%TF.GenerationSoftware,KiCad,Pcbnew,7.0.9*%
%TF.CreationDate,2024-02-17T01:27:59-05:00*%
%TF.ProjectId,Thumb,5468756d-622e-46b6-9963-61645f706362,rev?*%
%TF.SameCoordinates,Original*%
%TF.FileFunction,Profile,NP*%
%FSLAX46Y46*%
G04 Gerber Fmt 4.6, Leading zero omitted, Abs format (unit mm)*
G04 Created by KiCad (PCBNEW 7.0.9) date 2024-02-17 01:27:59*
%MOMM*%
%LPD*%
G01*
G04 APERTURE LIST*
%TA.AperFunction,Profile*%
%ADD10C,0.050000*%
%TD*%
%TA.AperFunction,Profile*%
%ADD11C,0.020000*%
%TD*%
%TA.AperFunction,Profile*%
%ADD12C,0.100000*%
%TD*%
G04 APERTURE END LIST*
D10*
X5750000Y-28950000D02*
X-650000Y-28950000D01*
X63296480Y-53412490D02*
X63423840Y-53387170D01*
X91138720Y-38852010D02*
X91223150Y-38659700D01*
D11*
X93060000Y-16050000D02*
G75*
G03*
X93060000Y-16050000I-1310000J0D01*
G01*
D10*
X11349969Y-12450000D02*
G75*
G03*
X15350000Y-16450000I4000010J10D01*
G01*
X83799280Y5372970D02*
X83775570Y5375570D01*
X53090640Y3600050D02*
X53074460Y3595450D01*
X94411780Y-26646490D02*
X94433160Y-26496110D01*
X52207910Y3345430D02*
X52199800Y3343060D01*
X82111050Y5542740D02*
X82039590Y5549360D01*
X56965850Y4581440D02*
X56892490Y4565770D01*
X52961190Y3563110D02*
X52945010Y3558480D01*
X58675100Y-54268850D02*
X58760520Y-54253940D01*
X50970450Y2983310D02*
X50962280Y2980920D01*
X-650000Y-27350000D02*
X5750000Y-27350000D01*
X47568680Y2049360D02*
X47537880Y2041890D01*
X53365640Y3677930D02*
X53341380Y3671090D01*
X74317580Y5883230D02*
X74269630Y5883050D01*
X47998090Y2156210D02*
X47971330Y2149410D01*
X94700300Y-24384700D02*
X94717210Y-24233520D01*
X63169090Y-53437700D02*
X63296480Y-53412490D01*
X70163190Y5815270D02*
X70067060Y5812360D01*
X57371390Y-54493000D02*
X57542470Y-54463940D01*
X57071940Y-54543620D02*
X57221670Y-54518350D01*
X49138930Y2459850D02*
X49114220Y2453040D01*
X5750000Y-8150011D02*
G75*
G03*
X9750000Y-4150000I-121J4000121D01*
G01*
X89972280Y3686890D02*
X89934740Y3709180D01*
X50552890Y2861630D02*
X50536500Y2856870D01*
X61574750Y-53744750D02*
X61681150Y-53724720D01*
X76999640Y5857980D02*
X76927860Y5859740D01*
X76784290Y5863060D02*
X76712510Y5864620D01*
X83751860Y5378160D02*
X83728150Y5380740D01*
X51834450Y3236340D02*
X51826320Y3233960D01*
X77860760Y5831080D02*
X77789020Y5833740D01*
X73166240Y5874590D02*
X73094240Y5873790D01*
X73502190Y5877960D02*
X73454200Y5877520D01*
X47630220Y2064370D02*
X47599460Y2056850D01*
X53429940Y-55136530D02*
X53558630Y-55116230D01*
X84414010Y5301910D02*
X84390440Y5304780D01*
X85443290Y5160020D02*
X85396900Y5167210D01*
X48767520Y2358440D02*
X48752310Y2354330D01*
X51712500Y3200640D02*
X51704370Y3198250D01*
X56542300Y4489160D02*
X56477200Y4474590D01*
X85766730Y5107300D02*
X85720660Y5115090D01*
X55097290Y4143470D02*
X55040580Y4129020D01*
X85047670Y5218730D02*
X85024310Y5222010D01*
X75288100Y-44405902D02*
X75288090Y-44405900D01*
X53389900Y3684760D02*
X53365640Y3677930D01*
X49460030Y2549140D02*
X49435340Y2542230D01*
X87123410Y4825080D02*
X87079050Y4836200D01*
X48721880Y2346130D02*
X48706670Y2342030D01*
X46510050Y1809350D02*
X46427400Y1792130D01*
X87256080Y4790900D02*
X87211920Y4802430D01*
X47753090Y2094640D02*
X47722400Y2087040D01*
X74173730Y5882630D02*
X74125780Y5882400D01*
X95304090Y-12510940D02*
X95301690Y-12244060D01*
X86990150Y4858050D02*
X86945600Y4868790D01*
X48299470Y2233950D02*
X48276610Y2227980D01*
X39739295Y-46674511D02*
G75*
G03*
X37365900Y-49264620I226684J-2590179D01*
G01*
X75563480Y5880990D02*
X75515580Y5881350D01*
X90369830Y3431020D02*
X90334840Y3455160D01*
X91326753Y2591073D02*
G75*
G03*
X92359390Y2136450I1032626J945437D01*
G01*
X90009590Y3664440D02*
X89972280Y3686890D01*
X30743847Y-19120153D02*
G75*
G03*
X31850000Y-18549990I406132J570163D01*
G01*
X53317120Y3664250D02*
X53292850Y3657400D01*
X58240820Y-17471380D02*
X81153303Y-15466796D01*
X52035200Y-55353900D02*
X52142520Y-55337340D01*
X26449967Y-18549990D02*
G75*
G03*
X27556306Y-19120004I700012J0D01*
G01*
X73314150Y-48736670D02*
X73314150Y-47224980D01*
X55957010Y4354600D02*
X55892050Y4339190D01*
X49558790Y2576880D02*
X49534110Y2569940D01*
X73454200Y5877520D02*
X73406210Y5877060D01*
X82468220Y5508930D02*
X82396810Y5515780D01*
X50569290Y2866390D02*
X50552890Y2861630D01*
X84083440Y5341090D02*
X84059780Y5343800D01*
X58845940Y-54239000D02*
X58931350Y-54224040D01*
X61042510Y-53844010D02*
X61148990Y-53824270D01*
X52443010Y3413780D02*
X52426800Y3409080D01*
X59614330Y-54103300D02*
X59699670Y-54088080D01*
X55892050Y4339190D02*
X55835220Y4325630D01*
X81539140Y5594330D02*
X81467620Y5600550D01*
X46905810Y1894950D02*
X46827680Y1877650D01*
X50651240Y2890210D02*
X50634850Y2885440D01*
X74557280Y5883850D02*
X74509340Y5883760D01*
X52491630Y3427880D02*
X52475420Y3423180D01*
X91312070Y2607090D02*
X91297340Y2623040D01*
X93935190Y-29519290D02*
X93968880Y-29340660D01*
X56021980Y4369930D02*
X55957010Y4354600D01*
X57039240Y4596970D02*
X56965850Y4581440D01*
X52199800Y3343060D02*
X52191690Y3340700D01*
X51280810Y3074140D02*
X51272650Y3071750D01*
X41756350Y-19196700D02*
X37974184Y-23704102D01*
X91148070Y2778900D02*
X91132930Y2794110D01*
X55494460Y4242890D02*
X55437700Y4228870D01*
X52053740Y3300460D02*
X52045620Y3298090D01*
X45061700Y1541820D02*
X45061699Y1541824D01*
X84484690Y5293190D02*
X84461140Y5296110D01*
X63933050Y-53284890D02*
X64060280Y-53259060D01*
X48474610Y2280040D02*
X48455580Y2275000D01*
X50044000Y2714750D02*
X50027570Y2710040D01*
X51996910Y3283850D02*
X51988790Y3281480D01*
X52378180Y3394960D02*
X52361970Y3390250D01*
X88463270Y4407510D02*
X88379000Y4439060D01*
X72373910Y5864290D02*
X72301850Y5863180D01*
X89627140Y3881800D02*
X89587870Y3902640D01*
X84508240Y5290260D02*
X84484690Y5293190D01*
X55210730Y4172180D02*
X55154000Y4157850D01*
X56745830Y4534060D02*
X56672540Y4518010D01*
X57096335Y4608961D02*
X57096340Y4608960D01*
X82825180Y5474030D02*
X82753810Y5481090D01*
X95609564Y-9544437D02*
X95609560Y-9544430D01*
X51288970Y3076530D02*
X51280810Y3074140D01*
X83728150Y5380740D02*
X83704430Y5383310D01*
X74605210Y5883920D02*
X74557280Y5883850D01*
X77932510Y5828330D02*
X77860760Y5831080D01*
X84837110Y5247710D02*
X84813660Y5250850D01*
X73262240Y5875620D02*
X73238240Y5875360D01*
X59699670Y-54088080D02*
X59784990Y-54072820D01*
X50454490Y2833090D02*
X50438090Y2828330D01*
X74365520Y5883390D02*
X74317580Y5883230D01*
X70643840Y5828780D02*
X70547710Y5826220D01*
X30476933Y-18742295D02*
G75*
G03*
X30750415Y-19121689I-26954J-307695D01*
G01*
X55664800Y4284560D02*
X55608010Y4270730D01*
X82547788Y-31405925D02*
G75*
G03*
X85274904Y-28155863I-261409J2988535D01*
G01*
X48737100Y2350230D02*
X48721880Y2346130D01*
X6350000Y-38500011D02*
G75*
G03*
X11350000Y-33500000I79J4999921D01*
G01*
X80465610Y5681730D02*
X80393990Y5687090D01*
X50602070Y2875910D02*
X50585680Y2871150D01*
X37365910Y-25375350D02*
X37365910Y-30995100D01*
X27850000Y-15949990D02*
X27850000Y-18549990D01*
X85544440Y-45721600D02*
X85639788Y-45649712D01*
X15350000Y-16450000D02*
X25950000Y-16449990D01*
X50159010Y2747770D02*
X50142590Y2743050D01*
X49534110Y2569940D02*
X49509420Y2563000D01*
X91178220Y2748260D02*
X91163160Y2763610D01*
X48322320Y2239930D02*
X48299470Y2233950D01*
X90575140Y3281770D02*
X90541460Y3307190D01*
X11350000Y-22050000D02*
X11350000Y-33500000D01*
X50913210Y2966580D02*
X50905030Y2964200D01*
X75288089Y-44405873D02*
G75*
G03*
X73314160Y-47224980I1025990J-2819017D01*
G01*
X54894790Y4091610D02*
X54846200Y4079050D01*
X47505920Y-30196792D02*
X47505920Y-30196790D01*
X56173100Y-54693750D02*
X56322960Y-54668910D01*
X87563260Y4706300D02*
X87519590Y4718820D01*
X59272910Y-54163900D02*
X59358280Y-54148790D01*
X85304000Y5181370D02*
X85257480Y5188330D01*
X94717210Y-24233520D02*
X94733850Y-24082300D01*
X51150220Y3035900D02*
X51142050Y3033510D01*
X86632020Y4940440D02*
X86586980Y4950190D01*
X49978250Y2695930D02*
X49961820Y2691230D01*
X46427400Y1792130D02*
X46344630Y1775100D01*
X37365900Y-50024540D02*
X37365910Y-50024540D01*
X78099910Y5821620D02*
X78004250Y5825510D01*
X89859020Y3753300D02*
X89820850Y3775120D01*
X51500890Y3138630D02*
X51492750Y3136250D01*
X91208220Y2717350D02*
X91193240Y2732840D01*
X86434480Y-45010350D02*
X86579160Y-44885870D01*
X51605880Y-55419900D02*
X51713210Y-55403440D01*
X96050019Y336450D02*
G75*
G03*
X94250000Y2136450I-1800040J-40D01*
G01*
X53729570Y3779560D02*
X53689130Y3768350D01*
X70759690Y-51720560D02*
X70906000Y-51682650D01*
X58397400Y-54317120D02*
X58568300Y-54287450D01*
X11350000Y-4150000D02*
G75*
G03*
X9750000Y-4150000I-800000J0D01*
G01*
X81968120Y5555930D02*
X81896640Y5562460D01*
X69202090Y5782810D02*
X69106010Y5779140D01*
X53043800Y-55197190D02*
X53172520Y-55177000D01*
X48139360Y2192390D02*
X48116460Y2186490D01*
X48550710Y2300260D02*
X48531690Y2295200D01*
X77789020Y5833740D02*
X77717270Y5836330D01*
X50978630Y2985700D02*
X50970450Y2983310D01*
X85535930Y5145380D02*
X85489630Y5152740D01*
X84272480Y5318990D02*
X84248870Y5321790D01*
X47722400Y2087040D02*
X47691690Y2079460D01*
X83300750Y5425900D02*
X83276990Y5428350D01*
X89705170Y3839610D02*
X89666240Y3860790D01*
X52621230Y3465370D02*
X52605030Y3460690D01*
X89429230Y3984330D02*
X89389210Y4004330D01*
X84403350Y-18193920D02*
X85274904Y-28155863D01*
X52329540Y3380830D02*
X52313330Y3376110D01*
X50880480Y2957030D02*
X50872300Y2954640D01*
X48588750Y2310410D02*
X48569730Y2305330D01*
X69125590Y-52130500D02*
X69419380Y-52058580D01*
X92053260Y-36567180D02*
X92114010Y-36397430D01*
X86133430Y5041590D02*
X86087770Y5050140D01*
X90083520Y3619080D02*
X90046680Y3641830D01*
X37446132Y-51066002D02*
X37446130Y-51066000D01*
X90645410Y-39913150D02*
X90749820Y-39696940D01*
X81109900Y5630830D02*
X81038340Y5636720D01*
X51688100Y3193490D02*
X51679960Y3191110D01*
X83253220Y5430800D02*
X83229450Y5433240D01*
X91627180Y-37690250D02*
X91704440Y-37494840D01*
X5750000Y-9750000D02*
X-650000Y-9750000D01*
X83443310Y5411090D02*
X83419560Y5413570D01*
X61787530Y-53704630D02*
X61893900Y-53684480D01*
X45061702Y1541803D02*
G75*
G03*
X41207875Y-779660I943277J-5925493D01*
G01*
X54943380Y4104120D02*
X54894790Y4091610D01*
X74749000Y5884020D02*
X74701070Y5884010D01*
X46012400Y1709130D02*
X45929070Y1693180D01*
X48607770Y2315490D02*
X48588750Y2310410D01*
X70067060Y5812360D02*
X69970940Y5809370D01*
X51240020Y3062190D02*
X51231860Y3059800D01*
X47294610Y1983890D02*
X47217100Y1965790D01*
X48341370Y2244920D02*
X48322320Y2239930D01*
X94066680Y-28803980D02*
X94098220Y-28624830D01*
X87300170Y4779240D02*
X87256080Y4790900D01*
X84860530Y5244560D02*
X84837110Y5247710D01*
X87167700Y4813820D02*
X87123410Y4825080D01*
X92517120Y-35200400D02*
X92571620Y-35028220D01*
X94390080Y-26796810D02*
X94411780Y-26646490D01*
X86279380Y-45140960D02*
X86434480Y-45010350D01*
X84248870Y5321790D02*
X84225250Y5324580D01*
X51509040Y3141020D02*
X51500890Y3138630D01*
X48230880Y2216070D02*
X48208000Y2210130D01*
X52021270Y3290970D02*
X52013150Y3288600D01*
X53689130Y3768350D02*
X53648690Y3757130D01*
X51052190Y3007210D02*
X51044020Y3004820D01*
X51011330Y2995260D02*
X51003150Y2992870D01*
X39739300Y-46674510D02*
X44244453Y-46280356D01*
X53009740Y3576990D02*
X52993560Y3572360D01*
X95306550Y-12986560D02*
X95305600Y-12748550D01*
X47810590Y2108950D02*
X47783760Y2102260D01*
X88766090Y-42662600D02*
X88870910Y-42538350D01*
X84883960Y5241390D02*
X84860530Y5244560D01*
X84790220Y5253970D02*
X84766760Y5257080D01*
X51988790Y3281480D02*
X51980670Y3279110D01*
X70739980Y5831280D02*
X70643840Y5828780D01*
X90404590Y3406680D02*
X90369830Y3431020D01*
X51142050Y3033510D02*
X51133890Y3031120D01*
X84743300Y5260170D02*
X84719830Y5263240D01*
X84766760Y5257080D02*
X84743300Y5260170D01*
X94592930Y-25290840D02*
X94611540Y-25139940D01*
X52786330Y-55237420D02*
X52915070Y-55217320D01*
X58783030Y-1489300D02*
X58783030Y3238630D01*
X49163630Y2466670D02*
X49138930Y2459850D01*
X75323990Y5882550D02*
X75276080Y5882790D01*
X92932580Y-33815440D02*
X92981290Y-33641180D01*
X85720660Y5115090D02*
X85674550Y5122800D01*
X50806830Y2935540D02*
X50798650Y2933150D01*
X87388140Y4755500D02*
X87344190Y4767440D01*
X48512660Y2290140D02*
X48493630Y2285090D01*
X54797620Y4066450D02*
X54749040Y4053810D01*
X52216020Y3347790D02*
X52207910Y3345430D01*
X52175460Y3335970D02*
X52167350Y3333600D01*
X90473460Y3357370D02*
X90439130Y3382130D01*
X52783150Y3512050D02*
X52766960Y3507390D01*
X88209540Y4500150D02*
X88124360Y4529710D01*
X52142520Y-55337340D02*
X52249830Y-55320750D01*
X80608830Y5670840D02*
X80537220Y5676320D01*
X84296080Y5316170D02*
X84272480Y5318990D01*
X93332190Y-32297790D02*
X93368010Y-32151050D01*
X52037510Y3295710D02*
X52029390Y3293340D01*
X52297110Y3371400D02*
X52289000Y3369040D01*
X83063020Y5450190D02*
X83015460Y5454990D01*
X50011130Y2705340D02*
X49994690Y2700630D01*
X91053050Y-39043770D02*
X91138720Y-38852010D01*
X89064920Y4158010D02*
X88962350Y4203690D01*
X50585680Y2871150D02*
X50569290Y2866390D01*
X52896460Y3544580D02*
X52880270Y3539940D01*
X94034620Y-28983010D02*
X94066680Y-28803980D01*
X91041280Y2883930D02*
X91025860Y2898650D01*
X51182880Y3045460D02*
X51174720Y3043070D01*
X82182500Y5536070D02*
X82111050Y5542740D01*
X54133990Y3890320D02*
X54093540Y3879350D01*
X65944480Y-52862720D02*
X66219170Y-52802710D01*
X48047750Y2168870D02*
X48024830Y2163020D01*
X52232240Y3352510D02*
X52224130Y3350150D01*
X27820792Y-18750087D02*
G75*
G03*
X27850000Y-18549990I-670813J200097D01*
G01*
X83419560Y5413570D02*
X83395800Y5416050D01*
X50503700Y2847350D02*
X50487300Y2842590D01*
X52864090Y3535300D02*
X52847900Y3530650D01*
X90994891Y2927859D02*
G75*
G03*
X90885066Y3027746I-3578712J-3824449D01*
G01*
X51391190Y-55452750D02*
X51498540Y-55436340D01*
X53648690Y3757130D02*
X53608260Y3745880D01*
X54973610Y-54890060D02*
X55123610Y-54865750D01*
X53535470Y3725570D02*
X53511210Y3718790D01*
X50774090Y2925990D02*
X50765900Y2923600D01*
X51191050Y3047850D02*
X51182880Y3045460D01*
X52289000Y3369040D02*
X52280900Y3366680D01*
X50741340Y2916450D02*
X50733150Y2914060D01*
X58782965Y-1489300D02*
G75*
G03*
X60297608Y-2884603I1400014J10D01*
G01*
X84930780Y5235000D02*
X84907370Y5238200D01*
X67063450Y-52614580D02*
X67358610Y-52547460D01*
X93513680Y-31533320D02*
X93560570Y-31326930D01*
X52280900Y3366680D02*
X52272790Y3364320D01*
X93029300Y-33466680D02*
X93068790Y-33321100D01*
X78673750Y5795190D02*
X78578120Y5799950D01*
X72229790Y5862040D02*
X72157730Y5860870D01*
X51606730Y3169650D02*
X51598590Y3167270D01*
X87953060Y4586870D02*
X87910050Y4600760D01*
X47837410Y2115650D02*
X47810590Y2108950D01*
X84201630Y5327360D02*
X84178000Y5330130D01*
X47061710Y1930050D02*
X46983820Y1912420D01*
X52134900Y3324140D02*
X52126780Y3321770D01*
X45061700Y1541826D02*
X45061700Y1541820D01*
X64060280Y-53259060D02*
X64187490Y-53233110D01*
X51125720Y3028730D02*
X51117550Y3026340D01*
X94647900Y-24837980D02*
X94665640Y-24686930D01*
X52426800Y3409080D02*
X52410600Y3404380D01*
X92405830Y-35543910D02*
X92461850Y-35372300D01*
X72013590Y5858450D02*
X71941520Y5857190D01*
X93560570Y-31326930D02*
X93606620Y-31120320D01*
X50405280Y2818830D02*
X50388870Y2814080D01*
X84602350Y5278400D02*
X84578830Y5281390D01*
X69733930Y-51980720D02*
X70027280Y-51907310D01*
X88294430Y4469940D02*
X88209540Y4500150D01*
X75132350Y5883380D02*
X75084440Y5883530D01*
X71725280Y5853220D02*
X71653190Y5851830D01*
X54330600Y-54993530D02*
X54459220Y-54972920D01*
X54506190Y3990010D02*
X54457640Y3977140D01*
X28975000Y-19049990D02*
G75*
G03*
X28975000Y-19049990I-225000J0D01*
G01*
X87910050Y4600760D02*
X87866960Y4614490D01*
X48024830Y2163020D02*
X47998090Y2156210D01*
X48070660Y2174730D02*
X48047750Y2168870D01*
X52653620Y3474730D02*
X52637420Y3470050D01*
X81181460Y5624890D02*
X81109900Y5630830D01*
X72734130Y5869390D02*
X72662100Y5868420D01*
X91252940Y2670490D02*
X91238070Y2686170D01*
X50854400Y-55534470D02*
X50961770Y-55518170D01*
X90264200Y3502880D02*
X90228530Y3526460D01*
X93866170Y-29876120D02*
X93900960Y-29697770D01*
X48162240Y2198290D02*
X48139360Y2192390D01*
X88379000Y4439060D02*
X88294430Y4469940D01*
X62914240Y-53487820D02*
X63041680Y-53462810D01*
X86900990Y4879400D02*
X86856310Y4889880D01*
X87784800Y-43743640D02*
X87884700Y-43640110D01*
X52045620Y3298090D02*
X52037510Y3295710D01*
X56472790Y-54643990D02*
X56622610Y-54619010D01*
X51166550Y3040680D02*
X51158390Y3038290D01*
X82682430Y5488120D02*
X82611030Y5495100D01*
X88978700Y-42408710D02*
X89085570Y-42278290D01*
X52078090Y3307560D02*
X52069980Y3305190D01*
X41207875Y-779660D02*
X41207870Y-779660D01*
X-650000Y-12950000D02*
X5750000Y-12950000D01*
X83395800Y5416050D02*
X83372040Y5418520D01*
X54053100Y3868360D02*
X54012650Y3857340D01*
X94828130Y-23174250D02*
X94840000Y-23053090D01*
X82967900Y5459780D02*
X82920330Y5464550D01*
X75850820Y5878320D02*
X75778990Y5879070D01*
X53687320Y-55095880D02*
X53815990Y-55075500D01*
X52799340Y3516700D02*
X52783150Y3512050D01*
X48934910Y2403890D02*
X48919690Y2399740D01*
X46592580Y1826780D02*
X46510050Y1809350D01*
X76497130Y5868900D02*
X76425330Y5870190D01*
X87106350Y-44410070D02*
X87227950Y-44295220D01*
X78291210Y5813380D02*
X78099910Y5821620D01*
X83917760Y5359860D02*
X83894070Y5362500D01*
X65929138Y-2422154D02*
X65929130Y-2422160D01*
X27556232Y-19120022D02*
G75*
G03*
X27819736Y-18749915I293447J69932D01*
G01*
X84719830Y5263240D02*
X84696350Y5266300D01*
X54311980Y3938270D02*
X54263440Y3925240D01*
X92291460Y-35886240D02*
X92349030Y-35715230D01*
X93794900Y-30232370D02*
X93830810Y-30054320D01*
X91704440Y-37494840D02*
X91780540Y-37298940D01*
X70836110Y5833710D02*
X70739980Y5831280D01*
X89782480Y3796780D02*
X89743920Y3818280D01*
X56086960Y4385160D02*
X56021980Y4369930D01*
X75084440Y5883530D02*
X75036530Y5883670D01*
X69394270Y5789910D02*
X69298180Y5786400D01*
X74125780Y5882400D02*
X74077830Y5882150D01*
X91282570Y2638920D02*
X91267770Y2654730D01*
X90772950Y3124100D02*
X90724170Y3164370D01*
X62319230Y-53603260D02*
X62425520Y-53582800D01*
X93645450Y-30943050D02*
X93683690Y-30765610D01*
X93900960Y-29697770D02*
X93935190Y-29519290D01*
X74701070Y5884010D02*
X74653140Y5883980D01*
X51133890Y3031120D02*
X51125720Y3028730D01*
X25950000Y-16450011D02*
G75*
G03*
X26450000Y-15949990I-21J500021D01*
G01*
X49912490Y2677140D02*
X49896050Y2672450D01*
X51793810Y3224450D02*
X51785680Y3222070D01*
X32350000Y3550000D02*
X-2650000Y3550000D01*
X5750000Y-24149980D02*
G75*
G03*
X5750000Y-22550000I79J799990D01*
G01*
X51927870Y-55370440D02*
X52035200Y-55353900D01*
X60296760Y-53980620D02*
X60403340Y-53961260D01*
X84012460Y5349190D02*
X83988790Y5351870D01*
X47433780Y2016860D02*
X47371980Y2002150D01*
X85858710Y5091440D02*
X85812740Y5099420D01*
X74844850Y5883980D02*
X74796930Y5884010D01*
X76856080Y5861440D02*
X76784290Y5863060D01*
X84366860Y5307650D02*
X84343270Y5310500D01*
X51850700Y3241100D02*
X51842570Y3238720D01*
X51663690Y3186340D02*
X51655560Y3183960D01*
X94474950Y-26195140D02*
X94495380Y-26044570D01*
X52928830Y3553850D02*
X52912640Y3549220D01*
X94629860Y-24988980D02*
X94647900Y-24837980D01*
X-650000Y-17750000D02*
X5750000Y-17750000D01*
X83348280Y5420990D02*
X83324520Y5423450D01*
X50323220Y2795100D02*
X50306810Y2790360D01*
X56922180Y-54568820D02*
X57071940Y-54543620D01*
X84130730Y5335630D02*
X84107090Y5338360D01*
X75419790Y5881990D02*
X75371890Y5882280D01*
X50675810Y2897360D02*
X50667620Y2894980D01*
X83158130Y5440530D02*
X83110580Y5445370D01*
X48889250Y2391450D02*
X48874030Y2387310D01*
X51176490Y-55485510D02*
X51283840Y-55469140D01*
X55873340Y-54743230D02*
X56023230Y-54718520D01*
X41207870Y-779660D02*
X41207877Y-779666D01*
X52013150Y3288600D02*
X52005030Y3286230D01*
X5750000Y-4949980D02*
G75*
G03*
X5750000Y-3350000I79J799990D01*
G01*
X50961770Y-55518170D02*
X51069130Y-55501850D01*
X91991700Y-36736610D02*
X92053260Y-36567180D01*
X85000940Y5225280D02*
X84977560Y5228540D01*
X48379450Y2254920D02*
X48360410Y2249920D01*
X47505925Y-49268940D02*
G75*
G03*
X44244453Y-46280356I-3000046J-50D01*
G01*
X83229450Y5433240D02*
X83205680Y5435670D01*
X94816090Y-23295390D02*
X94828130Y-23174250D01*
X50815020Y2937930D02*
X50806830Y2935540D01*
X94276650Y-27547380D02*
X94300010Y-27397410D01*
X93259220Y-32590880D02*
X93295930Y-32444410D01*
X83775570Y5375570D02*
X83751860Y5378160D01*
X49657540Y2604730D02*
X49632850Y2597760D01*
X83110580Y5445370D02*
X83063020Y5450190D01*
X83372040Y5418520D02*
X83348280Y5420990D01*
X54749040Y4053810D02*
X54700460Y4041130D01*
X52029390Y3293340D02*
X52021270Y3290970D01*
X51566030Y3157720D02*
X51557890Y3155340D01*
X50782280Y2928380D02*
X50774090Y2925990D01*
X46344630Y1775100D02*
X46261740Y1758290D01*
X48782740Y2362560D02*
X48767520Y2358440D01*
X80107460Y5707860D02*
X80011930Y5714560D01*
X52345760Y3385540D02*
X52329540Y3380830D01*
X83941440Y5357200D02*
X83917760Y5359860D01*
X82253940Y5529350D02*
X82182500Y5536070D01*
X44767392Y-33185011D02*
G75*
G03*
X47505920Y-30196792I-261513J2988621D01*
G01*
X85210930Y5195210D02*
X85164330Y5202020D01*
X95306830Y-13404140D02*
X95306910Y-13195170D01*
X55721600Y4298310D02*
X55664800Y4284560D01*
X68913870Y5771570D02*
X68817810Y5767660D01*
X72806160Y5870320D02*
X72734130Y5869390D01*
X95288380Y-11357150D02*
X95280030Y-10973800D01*
X47537880Y2041890D02*
X47503200Y2033520D01*
X50954100Y2978530D02*
X50945920Y2976140D01*
X49961820Y2691230D02*
X49945380Y2686530D01*
X29775000Y-15449990D02*
G75*
G03*
X29775000Y-15449990I-225000J0D01*
G01*
X48436550Y2269970D02*
X48417520Y2264950D01*
X50142590Y2743050D02*
X50126160Y2738330D01*
X74413460Y5883530D02*
X74365520Y5883390D01*
X68242970Y-52342070D02*
X68537380Y-52272250D01*
X51068540Y3011990D02*
X51060370Y3009600D01*
X86087770Y5050140D02*
X86042060Y5058600D01*
X87866960Y4614490D02*
X87823790Y4628070D01*
X56216980Y4415340D02*
X56151970Y4400300D01*
X59102150Y-54194020D02*
X59187530Y-54178980D01*
X92883170Y-33989460D02*
X92932580Y-33815440D01*
X90101860Y3607640D02*
X90083520Y3619080D01*
X85628390Y5130410D02*
X85582190Y5137940D01*
X85996300Y5066960D02*
X85950490Y5075220D01*
X51117550Y3026340D02*
X51109390Y3023950D01*
X65929130Y-2422160D02*
X60297608Y-2884604D01*
X5750000Y-17750000D02*
G75*
G03*
X5750000Y-9750000I-1J4000000D01*
G01*
X82325380Y5522590D02*
X82253940Y5529350D01*
X48455580Y2275000D02*
X48436550Y2269970D01*
X94683110Y-24535840D02*
X94700300Y-24384700D01*
X75228170Y5883010D02*
X75180260Y5883210D01*
X71220640Y5842790D02*
X71124510Y5840620D01*
X83324520Y5423450D02*
X83300750Y5425900D01*
X55723420Y-54767870D02*
X55873340Y-54743230D01*
X51223700Y3057410D02*
X51215530Y3055020D01*
X52702200Y3488740D02*
X52686010Y3484070D01*
X81467620Y5600550D02*
X81396090Y5606710D01*
X88362420Y-43124890D02*
X88462480Y-43012670D01*
X85472610Y-45775130D02*
X85544440Y-45721600D01*
X44254020Y-18213750D02*
X43521465Y-18277844D01*
X90852550Y-39479960D02*
X90953620Y-39262240D01*
X49994690Y2700630D02*
X49978250Y2695930D01*
X78769380Y5790290D02*
X78673750Y5795190D01*
X91326773Y2591091D02*
X91326770Y2591090D01*
X62106600Y-53644000D02*
X62212920Y-53623660D01*
X79247420Y5763740D02*
X79151830Y5769310D01*
X85164330Y5202020D02*
X85141020Y5205400D01*
X55778400Y4312010D02*
X55721600Y4298310D01*
X72445960Y5865360D02*
X72373910Y5864290D01*
X83538300Y5401090D02*
X83514560Y5403600D01*
X5750000Y-27350000D02*
G75*
G03*
X5750000Y-19350000I-1J4000000D01*
G01*
X39912970Y-2344180D02*
X39912963Y-2344181D01*
X50060430Y2719460D02*
X50044000Y2714750D01*
X75778990Y5879070D02*
X75707160Y5879770D01*
X53244320Y3643680D02*
X53220060Y3636810D01*
X91469150Y-38079580D02*
X91548750Y-37885170D01*
X43521469Y-18277885D02*
G75*
G03*
X41756355Y-19196702I226510J-2590005D01*
G01*
X94495380Y-26044570D02*
X94515500Y-25893930D01*
X48398480Y2259930D02*
X48379450Y2254920D01*
X90174600Y3561500D02*
X90156500Y3573100D01*
X64844340Y-53097310D02*
X65119570Y-53039470D01*
X49632850Y2597760D02*
X49608170Y2590790D01*
X84059780Y5343800D02*
X84036130Y5346500D01*
X54554750Y4002850D02*
X54506190Y3990010D01*
X50986800Y2988090D02*
X50978630Y2985700D01*
X48813170Y2370790D02*
X48797950Y2366670D01*
X52993560Y3572360D02*
X52977370Y3567740D01*
X77358480Y5848080D02*
X77286720Y5850210D01*
X93472840Y-31710030D02*
X93513680Y-31533320D01*
X87034630Y4847190D02*
X86990150Y4858050D01*
X45061700Y1541826D02*
G75*
G03*
X45929069Y1693191I-4641321J29157084D01*
G01*
X51199210Y3050240D02*
X51191050Y3047850D01*
X51753160Y3212540D02*
X51745030Y3210160D01*
X88755760Y4291680D02*
X88651740Y4334020D01*
X93968880Y-29340660D02*
X94002010Y-29161900D01*
X53608260Y3745880D02*
X53567820Y3734610D01*
X80823610Y5654050D02*
X80752020Y5659710D01*
X72590060Y5867430D02*
X72518010Y5866410D01*
X85946190Y-45411870D02*
X86118230Y-45273620D01*
X48950130Y2408040D02*
X48934910Y2403890D01*
X90299630Y3479110D02*
X90264200Y3502880D01*
X51517180Y3143410D02*
X51509040Y3141020D01*
X51093050Y3019170D02*
X51084880Y3016770D01*
X87737240Y4654750D02*
X87693850Y4667860D01*
X73838020Y5880670D02*
X73790050Y5880330D01*
X90953620Y-39262240D02*
X91053050Y-39043770D01*
X48706670Y2342030D02*
X48691450Y2337930D01*
X90138340Y3584650D02*
X90120130Y3596170D01*
X90821280Y3083220D02*
X90772950Y3124100D01*
X56772410Y-54593950D02*
X56922180Y-54568820D01*
X53220060Y3636810D02*
X53195790Y3629930D01*
X95140830Y-19136700D02*
X95173570Y-18527790D01*
X56892490Y4565770D02*
X56819150Y4549980D01*
X71581100Y5850410D02*
X71509010Y5848950D01*
X86270080Y5015300D02*
X86224590Y5024170D01*
X54073320Y-55034600D02*
X54201960Y-55014090D01*
X87079050Y4836200D02*
X87034630Y4847190D01*
X65669650Y-52922180D02*
X65944480Y-52862720D01*
X-650000Y-8150000D02*
X5750000Y-8150000D01*
X68831580Y-52201720D02*
X69125590Y-52130500D01*
X86496720Y4969350D02*
X86451510Y4978770D01*
X92571620Y-35028220D02*
X92625380Y-34855760D01*
X48417520Y2264950D02*
X48398480Y2259930D01*
X47503200Y2033520D02*
X47468500Y2025170D01*
X94129240Y-28445550D02*
X94159730Y-28266150D01*
X50076870Y2724170D02*
X50060430Y2719460D01*
X76066290Y5875730D02*
X75994470Y5876650D01*
X52272790Y3364320D02*
X52264680Y3361960D01*
X89389210Y4004330D02*
X89349070Y4024150D01*
X-650000Y-32150000D02*
X5750000Y-32150000D01*
X61681150Y-53724720D02*
X61787530Y-53704630D01*
X49896050Y2672450D02*
X49879610Y2667770D01*
X-4650000Y1550000D02*
X-4650000Y-1350000D01*
X49262450Y2494030D02*
X49237740Y2487180D01*
X51533470Y3148180D02*
X51525320Y3145790D01*
X72950210Y5872110D02*
X72878190Y5871230D01*
X91326770Y2591090D02*
X91312070Y2607090D01*
X55123610Y-54865750D02*
X55273590Y-54841380D01*
X85904620Y5083380D02*
X85858710Y5091440D01*
X51956310Y3271990D02*
X51948190Y3269610D01*
X73190240Y5874850D02*
X73166240Y5874590D01*
X84225250Y5324580D02*
X84201630Y5327360D01*
X90541460Y3307190D02*
X90507570Y3332390D01*
X51810060Y3229210D02*
X51801940Y3226830D01*
X90046680Y3641830D02*
X90009590Y3664440D01*
X48919690Y2399740D02*
X48904470Y2395590D01*
X55608010Y4270730D02*
X55551230Y4256840D01*
X91223150Y-38659700D02*
X91306360Y-38466860D01*
X11350000Y-4150000D02*
X11350000Y-12450000D01*
X84531770Y5287320D02*
X84508240Y5290260D01*
X-2650000Y3549989D02*
G75*
G03*
X-4650000Y1550000I-121J-1999879D01*
G01*
X88664340Y-42781530D02*
X88766090Y-42662600D01*
X48691450Y2337930D02*
X48676240Y2333850D01*
X54012650Y3857340D02*
X53972210Y3846300D01*
X48626790Y2320580D02*
X48607770Y2315490D01*
X51411270Y3112370D02*
X51403120Y3109980D01*
X52102440Y3314670D02*
X52094320Y3312300D01*
X52475420Y3423180D02*
X52459220Y3418480D01*
X36350000Y-12450000D02*
X36350000Y-450000D01*
X49509420Y2563000D02*
X49484720Y2556070D01*
X51076710Y3014380D02*
X51068540Y3011990D01*
X48208000Y2210130D02*
X48185130Y2204210D01*
X51354210Y3095650D02*
X51346060Y3093260D01*
X53147260Y3616160D02*
X53123000Y3609260D01*
X70027280Y-51907310D02*
X70173880Y-51870330D01*
X46749430Y1860520D02*
X46671060Y1843560D01*
X62786780Y-53512730D02*
X62914240Y-53487820D01*
X70547710Y5826220D02*
X70451580Y5823580D01*
X46178740Y1741690D02*
X46095620Y1725300D01*
X49863160Y2663080D02*
X49846720Y2658400D01*
X86766780Y4910460D02*
X86721920Y4920570D01*
X50749530Y2918830D02*
X50741340Y2916450D01*
X55267460Y4186450D02*
X55210730Y4172180D01*
X48093560Y2180600D02*
X48070660Y2174730D01*
X51378670Y3102820D02*
X51370520Y3100430D01*
X65394680Y-52981090D02*
X65669650Y-52922180D01*
X50692200Y2902130D02*
X50684010Y2899750D01*
X90674950Y3204060D02*
X90641890Y3230210D01*
X67948380Y-52411210D02*
X68242970Y-52342070D01*
X50210150Y-55631800D02*
X50296060Y-55618870D01*
X30449999Y-18549990D02*
G75*
G03*
X30476933Y-18742295I699980J0D01*
G01*
X49805600Y2646700D02*
X49780930Y2639690D01*
X73310230Y5876110D02*
X73262240Y5875620D01*
X91238070Y2686170D02*
X91223160Y2701790D01*
X56385256Y-30683377D02*
X56385260Y-30683380D01*
X51525320Y3145790D02*
X51517180Y3143410D01*
X52159240Y3331240D02*
X52151120Y3328870D01*
X48531690Y2295200D02*
X48512660Y2290140D01*
X54174440Y3901260D02*
X54133990Y3890320D01*
X83015460Y5454990D02*
X82967900Y5459780D01*
X70466900Y-51795820D02*
X70613320Y-51758280D01*
X90641890Y3230210D02*
X90608620Y3256110D01*
X83633250Y5390970D02*
X83609520Y5393510D01*
X84461140Y5296110D02*
X84437580Y5299020D01*
X91087290Y2839340D02*
X91072000Y2854280D01*
X53438430Y3698390D02*
X53414160Y3691580D01*
X89307680Y-42001070D02*
X89422700Y-41854150D01*
X94851720Y-22931910D02*
X94863270Y-22810720D01*
X51745030Y3210160D02*
X51736890Y3207780D01*
X94779010Y-23658700D02*
X94791540Y-23537610D01*
X52750770Y3502730D02*
X52734580Y3498070D01*
X51452020Y3124310D02*
X51443870Y3121920D01*
X80537220Y5676320D02*
X80465610Y5681730D01*
X78004250Y5825510D02*
X77932510Y5828330D01*
X69682580Y5799980D02*
X69586480Y5796700D01*
X95301690Y-12244060D02*
X95298560Y-11977580D01*
X50290390Y2785620D02*
X50273970Y2780890D01*
X51639280Y3179190D02*
X51631140Y3176810D01*
X94433160Y-26496110D02*
X94454210Y-26345660D01*
X5750000Y-14549980D02*
G75*
G03*
X5750000Y-12950000I79J799990D01*
G01*
X49089510Y2446240D02*
X49064810Y2439440D01*
X51370520Y3100430D02*
X51362370Y3098040D01*
X56622610Y-54619010D02*
X56772410Y-54593950D01*
X82547790Y-31405920D02*
X59635307Y-33410494D01*
X95199920Y-17979330D02*
X95225763Y-17369638D01*
X51101220Y3021560D02*
X51093050Y3019170D01*
X46827680Y1877650D02*
X46749430Y1860520D01*
X88124360Y4529710D02*
X88038860Y4558610D01*
X51468310Y3129090D02*
X51460160Y3126700D01*
X62000260Y-53664270D02*
X62106600Y-53644000D01*
X55437700Y4228870D02*
X55380940Y4214790D01*
X87693850Y4667860D02*
X87650390Y4680830D01*
X39739295Y-46674514D02*
X39739300Y-46674510D01*
X49114220Y2453040D02*
X49089510Y2446240D01*
X85489630Y5152740D02*
X85443290Y5160020D01*
X78482490Y5804570D02*
X78386850Y5809050D01*
X27849687Y-15949990D02*
G75*
G03*
X27819999Y-15748351I-699608J0D01*
G01*
X52167350Y3333600D02*
X52159240Y3331240D01*
X5750000Y-33750000D02*
X-650260Y-33750000D01*
X66219170Y-52802710D02*
X66493710Y-52742150D01*
X75180260Y5883210D02*
X75132350Y5883380D01*
X93830810Y-30054320D02*
X93866170Y-29876120D01*
X84625860Y5275400D02*
X84602350Y5278400D01*
X61893900Y-53684480D02*
X62000260Y-53664270D01*
X53195790Y3629930D02*
X53171530Y3623050D01*
X30742545Y-15380796D02*
G75*
G03*
X30476214Y-15749480I-292566J-69194D01*
G01*
X58782988Y3238630D02*
G75*
G03*
X57096335Y4608960I-1400009J-20D01*
G01*
X27557537Y-15380897D02*
G75*
G03*
X26450000Y-15949990I-407558J-569093D01*
G01*
X73022230Y5872960D02*
X72950210Y5872110D01*
X90885060Y3027750D02*
X90821280Y3083220D01*
X48116460Y2186490D02*
X48093560Y2180600D01*
X94791540Y-23537610D02*
X94803900Y-23416510D01*
X84154370Y5332880D02*
X84130730Y5335630D01*
X69490370Y5793340D02*
X69394270Y5789910D01*
X79056220Y5774760D02*
X78960610Y5780070D01*
X87432030Y4743410D02*
X87388140Y4755500D01*
X88547230Y4375270D02*
X88463270Y4407510D01*
X94840000Y-23053090D02*
X94851720Y-22931910D01*
X91132930Y2794110D02*
X91117760Y2809260D01*
D11*
X87860000Y-39650000D02*
G75*
G03*
X87860000Y-39650000I-1310000J0D01*
G01*
D10*
X52915070Y-55217320D02*
X53043800Y-55197190D01*
X54360530Y3951260D02*
X54311980Y3938270D01*
X85117690Y5208750D02*
X85094360Y5212100D01*
X48185130Y2204210D02*
X48162240Y2198290D01*
X88462480Y-43012670D02*
X88561810Y-42899720D01*
X53815990Y-55075500D02*
X53944660Y-55055070D01*
X95306330Y-13613480D02*
X95306830Y-13404140D01*
X77143180Y5854240D02*
X77071410Y5856140D01*
X51541610Y3150570D02*
X51533470Y3148180D01*
X49830270Y2653720D02*
X49805600Y2646700D01*
X94665640Y-24686930D02*
X94683110Y-24535840D01*
X70613320Y-51758280D02*
X70759690Y-51720560D01*
X47971330Y2149410D02*
X47944570Y2142620D01*
X54845030Y-54910840D02*
X54973610Y-54890060D01*
X86979430Y-44527870D02*
X87106350Y-44410070D01*
X77717270Y5836330D02*
X77645520Y5838830D01*
X50855940Y2949860D02*
X50847760Y2947480D01*
X50684010Y2899750D02*
X50675810Y2897360D01*
X54201960Y-55014090D02*
X54330600Y-54993530D01*
X86360900Y4997250D02*
X86315520Y5006330D01*
X52069980Y3305190D02*
X52061860Y3302820D01*
X51044020Y3004820D02*
X51035850Y3002430D01*
X53301230Y-55156790D02*
X53429940Y-55136530D01*
X94250000Y2136450D02*
X92359390Y2136450D01*
X91780540Y-37298940D02*
X91855500Y-37102560D01*
X83467060Y5408600D02*
X83443310Y5411090D01*
X69874820Y5806310D02*
X69778700Y5803180D01*
X85582190Y5137940D02*
X85535930Y5145380D01*
X37365910Y-50024540D02*
X37365900Y-49264620D01*
X93107810Y-33175350D02*
X93146350Y-33029460D01*
X77502000Y5843610D02*
X77430250Y5845880D01*
X41756355Y-19196702D02*
X41756350Y-19196700D01*
X50896850Y2961810D02*
X50888660Y2959420D01*
X95225761Y-17369638D02*
G75*
G03*
X95291809Y-15028560I-104715882J4125748D01*
G01*
X51923820Y3262490D02*
X51915700Y3260110D01*
X50798650Y2933150D02*
X50790460Y2930760D01*
X78386850Y5809050D02*
X78291210Y5813380D01*
X84977560Y5228540D02*
X84954170Y5231770D01*
X90120130Y3596170D02*
X90101860Y3607640D01*
X62212920Y-53623660D02*
X62319230Y-53603260D01*
X75371890Y5882280D02*
X75323990Y5882550D01*
X-650000Y-4950000D02*
G75*
G03*
X-650000Y-12950000I-1J-4000000D01*
G01*
X52815530Y3521360D02*
X52799340Y3516700D01*
X57096340Y4608960D02*
X57039240Y4596970D01*
X90334840Y3455160D02*
X90299630Y3479110D01*
X89820850Y3775120D02*
X89782480Y3796780D01*
X93222050Y-32737220D02*
X93259220Y-32590880D01*
X87823790Y4628070D02*
X87780550Y4641490D01*
X50536500Y2856870D02*
X50520100Y2852110D01*
X59016750Y-54209050D02*
X59102150Y-54194020D01*
X51598590Y3167270D02*
X51590450Y3164880D01*
X47513410Y-21313850D02*
X47513407Y-21313842D01*
X31849979Y-15949990D02*
G75*
G03*
X32350000Y-16449990I500000J0D01*
G01*
X-1449640Y-37725001D02*
G75*
G03*
X-650000Y-38500000I799619J25011D01*
G01*
X74796930Y5884010D02*
X74749000Y5884020D01*
X-650000Y-8149980D02*
G75*
G03*
X-650000Y-9750000I79J-800010D01*
G01*
X51826320Y3233960D02*
X51818190Y3231590D01*
X78578120Y5799950D02*
X78482490Y5804570D01*
X56412120Y4459920D02*
X56347060Y4445160D01*
X51069130Y-55501850D02*
X51176490Y-55485510D01*
X27819995Y-15748400D02*
G75*
G03*
X27557619Y-15380256I30084J299010D01*
G01*
X71124510Y5840620D02*
X71028380Y5838380D01*
X85946194Y-45411875D02*
X85946190Y-45411870D01*
X91102550Y2824340D02*
X91087290Y2839340D01*
X84178000Y5330130D02*
X84154370Y5332880D01*
X50208290Y2761950D02*
X50191870Y2757220D01*
X5750000Y-33749980D02*
G75*
G03*
X5750000Y-32150000I79J799990D01*
G01*
X73981910Y5881610D02*
X73933940Y5881310D01*
X84403372Y-18193911D02*
G75*
G03*
X81153303Y-15466797I-2988593J-261479D01*
G01*
X47139470Y1947840D02*
X47061710Y1930050D01*
X77645520Y5838830D02*
X77573760Y5841260D01*
X49756250Y2632690D02*
X49731580Y2625690D01*
X86851520Y-44644490D02*
X86979430Y-44527870D01*
X56385263Y-30683376D02*
G75*
G03*
X59635307Y-33410493I2988516J261386D01*
G01*
X60936020Y-53863690D02*
X61042510Y-53844010D01*
X87344330Y-44183440D02*
X87459880Y-44070660D01*
X63423840Y-53387170D02*
X63551180Y-53361760D01*
X54991980Y4116590D02*
X54943380Y4104120D01*
X87227950Y-44295220D02*
X87344330Y-44183440D01*
X50038340Y-55657620D02*
X50124250Y-55644720D01*
X50888660Y2959420D02*
X50880480Y2957030D01*
X93068790Y-33321100D02*
X93107810Y-33175350D01*
X94515500Y-25893930D02*
X94535310Y-25743240D01*
X57542470Y-54463940D02*
X57713510Y-54434780D01*
X52847900Y3530650D02*
X52831720Y3526010D01*
X60829510Y-53883310D02*
X60936020Y-53863690D01*
X47468500Y2025170D02*
X47433780Y2016860D01*
X51346060Y3093260D02*
X51337900Y3090870D01*
X56819150Y4549980D02*
X56745830Y4534060D01*
X62425520Y-53582800D02*
X62531790Y-53562270D01*
X79916400Y5721140D02*
X79820850Y5727590D01*
X51443870Y3121920D02*
X51435720Y3119530D01*
X52766960Y3507390D02*
X52750770Y3502730D01*
X51231860Y3059800D02*
X51223700Y3057410D01*
X51801940Y3226830D02*
X51793810Y3224450D01*
X51631140Y3176810D02*
X51623010Y3174420D01*
X70451580Y5823580D02*
X70355450Y5820880D01*
X84672860Y5269350D02*
X84649360Y5272380D01*
X52540230Y3441950D02*
X52524030Y3437260D01*
X89670910Y-41529070D02*
X89670900Y-41529066D01*
X92461850Y-35372300D02*
X92517120Y-35200400D01*
X75659270Y5880200D02*
X75611380Y5880600D01*
X82920330Y5464550D02*
X82872760Y5469300D01*
X51207370Y3052630D02*
X51199210Y3050240D01*
X95294220Y-11681930D02*
X95288380Y-11357150D01*
X69419380Y-52058580D02*
X69733930Y-51980720D01*
X84813660Y5250850D02*
X84790220Y5253970D01*
X89896990Y3731320D02*
X89859020Y3753300D01*
X91855500Y-37102560D02*
X91929320Y-36905710D01*
X51842570Y3238720D02*
X51834450Y3236340D01*
X90210610Y3538180D02*
X90192630Y3549860D01*
X58931350Y-54224040D02*
X59016750Y-54209050D01*
X75467690Y5881680D02*
X75419790Y5881990D01*
X82753810Y5481090D02*
X82682430Y5488120D01*
X79438590Y5752190D02*
X79343010Y5758030D01*
X57884530Y-54405520D02*
X58055520Y-54376150D01*
X50733150Y2914060D02*
X50724960Y2911670D01*
X70932250Y5836080D02*
X70836110Y5833710D01*
X94863270Y-22810720D02*
X94891480Y-22507660D01*
X85674550Y5122800D02*
X85628390Y5130410D01*
X51549750Y3152950D02*
X51541610Y3150570D01*
X74461400Y5883660D02*
X74413460Y5883530D01*
X51769420Y3217310D02*
X51761290Y3214930D01*
X86856310Y4889880D02*
X86811570Y4900230D01*
X50175440Y2752500D02*
X50159010Y2747770D01*
X50929570Y2971360D02*
X50921380Y2968980D01*
X53486950Y3712000D02*
X53462690Y3705200D01*
X93146350Y-33029460D02*
X93184430Y-32883410D01*
X91306360Y-38466860D02*
X91388350Y-38273480D01*
X85071020Y5215420D02*
X85047670Y5218730D01*
X52151120Y3328870D02*
X52143010Y3326510D01*
X50388870Y2814080D02*
X50372460Y2809340D01*
X50700390Y2904520D02*
X50692200Y2902130D01*
X33993447Y-57449992D02*
G75*
G03*
X37446131Y-51066002I-2476488J5465032D01*
G01*
X84649360Y5272380D02*
X84625860Y5275400D01*
X52183570Y3338330D02*
X52175460Y3335970D01*
X71941520Y5857190D02*
X71869440Y5855900D01*
X-650000Y-36950000D02*
X5750000Y-36950000D01*
X74029870Y5881890D02*
X73981910Y5881610D01*
X51720630Y3203020D02*
X51712500Y3200640D01*
X37365904Y-50024540D02*
G75*
G03*
X37446128Y-51066003I6800875J50D01*
G01*
X74221680Y5882850D02*
X74173730Y5882630D01*
X79534170Y5746230D02*
X79438590Y5752190D01*
X84555310Y5284360D02*
X84531770Y5287320D01*
X54603320Y4015650D02*
X54554750Y4002850D01*
X54716440Y-54931580D02*
X54845030Y-54910840D01*
X51283840Y-55469140D02*
X51391190Y-55452750D01*
X94248170Y-27727240D02*
X94276650Y-27547380D01*
X80680430Y5665300D02*
X80608830Y5670840D01*
X65929139Y-2422168D02*
G75*
G03*
X67214560Y-1026850I-114660J1395378D01*
G01*
X73314150Y-47224980D02*
X73314160Y-47224980D01*
X75036530Y5883670D02*
X74988610Y5883780D01*
X-4649931Y-1350000D02*
G75*
G03*
X-2650000Y-3350000I2000010J10D01*
G01*
X53972210Y3846300D02*
X53931760Y3835230D01*
X91297340Y2623040D02*
X91282570Y2638920D01*
X88962350Y4203690D02*
X88859300Y4248240D01*
X66768110Y-52681030D02*
X67063450Y-52614580D01*
X51671830Y3188720D02*
X51663690Y3186340D01*
X69778700Y5803180D02*
X69682580Y5799980D01*
X51484600Y3133860D02*
X51476460Y3131470D01*
X49846720Y2658400D02*
X49830270Y2653720D01*
X50356050Y2804590D02*
X50339640Y2799850D01*
X25950000Y-18049990D02*
X15350000Y-18050000D01*
X52248460Y3357240D02*
X52240350Y3354870D01*
X49928940Y2681840D02*
X49912490Y2677140D01*
X5750000Y-19350000D02*
X-650000Y-19350000D01*
X81324550Y5612830D02*
X81253010Y5618880D01*
X95303800Y-14063390D02*
X95306330Y-13613480D01*
X71412890Y5846960D02*
X71316770Y5844910D01*
X26449979Y-18549990D02*
G75*
G03*
X25950000Y-18049990I-500000J0D01*
G01*
X57221670Y-54518350D02*
X57371390Y-54493000D01*
X94891480Y-22507660D02*
X94955270Y-21779940D01*
X83609520Y5393510D02*
X83585780Y5396040D01*
X53462690Y3705200D02*
X53438430Y3698390D01*
X51883200Y3250610D02*
X51875080Y3248230D01*
X91117760Y2809260D02*
X91102550Y2824340D01*
X-4650031Y-54450000D02*
G75*
G03*
X-1650000Y-57450000I3000010J10D01*
G01*
X93295930Y-32444410D02*
X93332190Y-32297790D01*
X59187530Y-54178980D02*
X59272910Y-54163900D01*
X53341380Y3671090D02*
X53317120Y3664250D01*
X49040100Y2432660D02*
X49015390Y2425880D01*
X89187310Y4101710D02*
X89126210Y4130060D01*
X77430250Y5845880D02*
X77358480Y5848080D01*
X49802077Y-55693051D02*
X49802080Y-55693050D01*
X73238240Y5875360D02*
X73214240Y5875110D01*
X88074380Y-43439570D02*
X88168320Y-43338300D01*
X51866950Y3245850D02*
X51858830Y3243480D01*
X48276610Y2227980D02*
X48253740Y2222020D01*
X51386820Y3105210D02*
X51378670Y3102820D01*
X86118230Y-45273620D02*
X86279380Y-45140960D01*
X51060370Y3009600D02*
X51052190Y3007210D01*
X50708580Y2906900D02*
X50700390Y2904520D01*
X52361970Y3390250D02*
X52345760Y3385540D01*
X49385940Y2528420D02*
X49361250Y2521520D01*
X59955620Y-54042210D02*
X60040920Y-54026860D01*
X74653140Y5883980D02*
X74605210Y5883920D01*
X50470900Y2837840D02*
X50454490Y2833090D01*
X50945920Y2976140D02*
X50937740Y2973750D01*
X50191870Y2757220D02*
X50175440Y2752500D01*
X75288090Y-44405900D02*
X80235660Y-42605135D01*
X84907370Y5238200D02*
X84883960Y5241390D01*
X76425330Y5870190D02*
X76353530Y5871430D01*
X50790460Y2930760D02*
X50782280Y2928380D01*
X94002010Y-29161900D02*
X94034620Y-28983010D01*
X49608170Y2590790D02*
X49583480Y2583830D01*
X50339640Y2799850D02*
X50323220Y2795100D01*
X53891320Y3824150D02*
X53850880Y3813030D01*
X49866520Y-55683400D02*
X49952430Y-55670520D01*
X51907580Y3257740D02*
X51899450Y3255360D01*
X32350000Y-18049991D02*
G75*
G03*
X38349940Y-12050000I-1J5999941D01*
G01*
X93606620Y-31120320D02*
X93645450Y-30943050D01*
X28975000Y-15449990D02*
G75*
G03*
X28975000Y-15449990I-225000J0D01*
G01*
X91072000Y2854280D02*
X91056660Y2869140D01*
X90724170Y3164370D02*
X90674950Y3204060D01*
X91267770Y2654730D02*
X91252940Y2670490D01*
X54651890Y4028410D02*
X54603320Y4015650D01*
X69586480Y5796700D02*
X69490370Y5793340D01*
X37365900Y-25375350D02*
X37365910Y-25375350D01*
X92114010Y-36397430D02*
X92173950Y-36227350D01*
X51084880Y3016770D02*
X51076710Y3014380D01*
X56477200Y4474590D02*
X56412120Y4459920D01*
X49064810Y2439440D02*
X49040100Y2432660D01*
X95060090Y-20413820D02*
X95102510Y-19775530D01*
X59870310Y-54057530D02*
X59955620Y-54042210D01*
X80966770Y5642550D02*
X80895190Y5648330D01*
X71509010Y5848950D02*
X71412890Y5846960D01*
X47783760Y2102260D02*
X47753090Y2094640D01*
X54700460Y4041130D02*
X54651890Y4028410D01*
X55380940Y4214790D02*
X55324200Y4200650D01*
X51858830Y3243480D02*
X51850700Y3241100D01*
X64314680Y-53207060D02*
X64568970Y-53154620D01*
X95298560Y-11977580D02*
X95294220Y-11681930D01*
X90439130Y3382130D02*
X90404590Y3406680D01*
X46261740Y1758290D02*
X46178740Y1741690D01*
X93403390Y-32004170D02*
X93438330Y-31857160D01*
X55273590Y-54841380D02*
X55423550Y-54816940D01*
X47599460Y2056850D02*
X47568680Y2049360D01*
X74077830Y5882150D02*
X74029870Y5881890D01*
X87606860Y4693640D02*
X87563260Y4706300D01*
X15350000Y-18050011D02*
G75*
G03*
X11350000Y-22050000I79J-4000079D01*
G01*
X56607410Y4503640D02*
X56542300Y4489160D01*
X92782230Y-34336750D02*
X92833060Y-34163230D01*
X82919707Y-44489840D02*
G75*
G03*
X85472611Y-45775126I1599972J-50D01*
G01*
X72878190Y5871230D02*
X72806160Y5870320D01*
X86179040Y5032930D02*
X86133430Y5041590D01*
X51321590Y3086090D02*
X51313440Y3083700D01*
X51313440Y3083700D02*
X51305290Y3081310D01*
X91025860Y2898650D02*
X91010390Y2913290D01*
X82611030Y5495100D02*
X82539630Y5502040D01*
X81682160Y5581730D02*
X81610660Y5588060D01*
X91388350Y-38273480D02*
X91469150Y-38079580D01*
X82396810Y5515780D02*
X82325380Y5522590D01*
X84437580Y5299020D02*
X84414010Y5301910D01*
X89587870Y3902640D02*
X89548430Y3923310D01*
X48569730Y2305330D02*
X48550710Y2300260D01*
X51704370Y3198250D02*
X51696230Y3195870D01*
X76927860Y5859740D02*
X76856080Y5861440D01*
X49945380Y2686530D02*
X49928940Y2681840D01*
X51557890Y3155340D02*
X51549750Y3152950D01*
X51948190Y3269610D02*
X51940070Y3267240D01*
X75994470Y5876650D02*
X75922650Y5877520D01*
X71316770Y5844910D02*
X71220640Y5842790D01*
X48874030Y2387310D02*
X48858820Y2383170D01*
X51972550Y3276740D02*
X51964430Y3274360D01*
X95609589Y-9544458D02*
G75*
G03*
X95267587Y-10502500I1057390J-917532D01*
G01*
X49015390Y2425880D02*
X48990680Y2419120D01*
X40192510Y-33585200D02*
X44767387Y-33184954D01*
X92730670Y-34510020D02*
X92782230Y-34336750D01*
X50093300Y2728890D02*
X50076870Y2724170D01*
X51297130Y3078920D02*
X51288970Y3076530D01*
X60722990Y-53902880D02*
X60829510Y-53883310D01*
X53931760Y3835230D02*
X53891320Y3824150D01*
X90507570Y3332390D02*
X90473460Y3357370D01*
X75276080Y5882790D02*
X75228170Y5883010D01*
X94098220Y-28624830D02*
X94129240Y-28445550D01*
X62531790Y-53562270D02*
X62659300Y-53537550D01*
X87979840Y-43540180D02*
X88074380Y-43439570D01*
X51027680Y3000040D02*
X51019500Y2997650D01*
X52086210Y3309930D02*
X52078090Y3307560D01*
X60509910Y-53941860D02*
X60616460Y-53922390D01*
X52831720Y3526010D02*
X52815530Y3521360D01*
X51174720Y3043070D02*
X51166550Y3040680D01*
X53171530Y3623050D02*
X53147260Y3616160D01*
X72518010Y5866410D02*
X72445960Y5865360D01*
X50962280Y2980920D02*
X50954100Y2978530D01*
D11*
X3660000Y-53050000D02*
G75*
G03*
X3660000Y-53050000I-1310000J0D01*
G01*
D10*
X63805780Y-53310620D02*
X63933050Y-53284890D01*
X72085660Y5859680D02*
X72013590Y5858450D01*
X90749820Y-39696940D02*
X90852550Y-39479960D01*
X95102510Y-19775530D02*
X95140830Y-19136700D01*
X56322960Y-54668910D02*
X56472790Y-54643990D01*
X93683690Y-30765610D02*
X93721340Y-30588020D01*
X56151970Y4400300D02*
X56086960Y4385160D01*
X73694100Y5879600D02*
X73646130Y5879210D01*
X52734580Y3498070D02*
X52718390Y3493410D01*
X48904470Y2395590D02*
X48889250Y2391450D01*
X53268590Y3650550D02*
X53244320Y3643680D01*
X50372460Y2809340D02*
X50356050Y2804590D01*
X58760520Y-54253940D02*
X58845940Y-54239000D01*
X53042100Y3586220D02*
X53025920Y3581610D01*
X50747040Y-55550750D02*
X50854400Y-55534470D01*
X50864120Y2952250D02*
X50855940Y2949860D01*
X52143010Y3326510D02*
X52134900Y3324140D01*
X93368010Y-32151050D02*
X93403390Y-32004170D01*
X77573760Y5841260D02*
X77502000Y5843610D01*
X93758410Y-30410270D02*
X93794900Y-30232370D01*
X86718140Y-44763870D02*
X86851520Y-44644490D01*
X52637420Y3470050D02*
X52621230Y3465370D01*
X50639670Y-55567000D02*
X50747040Y-55550750D01*
X47864220Y2122370D02*
X47837410Y2115650D01*
X49237740Y2487180D02*
X49213040Y2480330D01*
X92678390Y-34683020D02*
X92730670Y-34510020D01*
X92349030Y-35715230D02*
X92405830Y-35543910D01*
X83276990Y5428350D02*
X83253220Y5430800D01*
X87680040Y-43850680D02*
X87784800Y-43743640D01*
X50257550Y2776150D02*
X50241130Y2771420D01*
X82539630Y5502040D02*
X82468220Y5508930D01*
X52410600Y3404380D02*
X52394390Y3399670D01*
X50306810Y2790360D02*
X50290390Y2785620D01*
X65119570Y-53039470D02*
X65394680Y-52981090D01*
X75707160Y5879770D02*
X75659270Y5880200D01*
X77214950Y5852260D02*
X77143180Y5854240D01*
X73790050Y5880330D02*
X73742080Y5879970D01*
X74940690Y5883870D02*
X74892770Y5883930D01*
X91548750Y-37885170D02*
X91627180Y-37690250D01*
X51427570Y3117150D02*
X51419420Y3114760D01*
X-650000Y-22550000D02*
X5750000Y-22550000D01*
X52005030Y3286230D02*
X51996910Y3283850D01*
X94733850Y-24082300D02*
X94750220Y-23931050D01*
X52718390Y3493410D02*
X52702200Y3488740D01*
X49879610Y2667770D02*
X49863160Y2663080D01*
X80298490Y5694130D02*
X80202980Y5701050D01*
X51248180Y3064580D02*
X51240020Y3062190D01*
X90994880Y2927860D02*
X90994892Y2927860D01*
X30450000Y-18549990D02*
X30450000Y-15949990D01*
X53511210Y3718790D02*
X53486950Y3712000D01*
X82039590Y5549360D02*
X81968120Y5555930D01*
X58240823Y-17471386D02*
X58240820Y-17471380D01*
X76353530Y5871430D02*
X76281730Y5872590D01*
X80393990Y5687090D02*
X80298490Y5694130D01*
X83656980Y5388430D02*
X83633250Y5390970D01*
X57713510Y-54434780D02*
X57884530Y-54405520D01*
X-1650000Y-57450000D02*
X33993448Y-57449994D01*
X72301850Y5863180D02*
X72229790Y5862040D01*
X49706900Y2618700D02*
X49682220Y2611710D01*
X94368060Y-26947070D02*
X94390080Y-26796810D01*
X88561810Y-42899720D02*
X88664340Y-42781530D01*
X50421690Y2823580D02*
X50405280Y2818830D01*
X93721340Y-30588020D02*
X93758410Y-30410270D01*
X36350069Y-450000D02*
G75*
G03*
X32350000Y3550000I-3999990J10D01*
G01*
X48645810Y2325680D02*
X48626790Y2320580D01*
X56672540Y4518010D02*
X56607410Y4503640D01*
X50831390Y2942700D02*
X50823200Y2940310D01*
X56347060Y4445160D02*
X56282010Y4430300D01*
X74892770Y5883930D02*
X74844850Y5883980D01*
X54457640Y3977140D02*
X54409080Y3964220D01*
X51736890Y3207780D02*
X51728760Y3205400D01*
X91193240Y2732840D02*
X91178220Y2748260D01*
X91056660Y2869140D02*
X91041280Y2883930D01*
X91010390Y2913290D02*
X90994880Y2927860D01*
X60040920Y-54026860D02*
X60126210Y-54011480D01*
X90565986Y-40074784D02*
X90565990Y-40074790D01*
X95011240Y-21081980D02*
X95060090Y-20413820D01*
X48990680Y2419120D02*
X48957740Y2410120D01*
X51419420Y3114760D02*
X51411270Y3112370D01*
X5750000Y-24150000D02*
X-650000Y-24150000D01*
X63551180Y-53361760D02*
X63678490Y-53336240D01*
X51820550Y-55386950D02*
X51927870Y-55370440D01*
X49583480Y2583830D02*
X49558790Y2576880D01*
X95609543Y-9544415D02*
G75*
G03*
X96050000Y-8364770I-1359664J1179725D01*
G01*
X52524030Y3437260D02*
X52507830Y3432570D01*
X73598150Y5878810D02*
X73550170Y5878390D01*
X76281730Y5872590D02*
X76209920Y5873700D01*
X39912967Y-2344184D02*
G75*
G03*
X41207877Y-779666I-15957088J14525394D01*
G01*
X51305290Y3081310D02*
X51297130Y3078920D01*
X54587840Y-54952280D02*
X54716440Y-54931580D01*
X50520100Y2852110D02*
X50503700Y2847350D01*
X44254013Y-18213746D02*
X44254020Y-18213750D01*
X89543860Y-41696860D02*
X89670910Y-41529070D01*
X53810440Y3801900D02*
X53770000Y3790740D01*
X87780550Y4641490D02*
X87737240Y4654750D01*
X50487300Y2842590D02*
X50470900Y2837840D01*
X63678490Y-53336240D02*
X63805780Y-53310620D01*
X52357140Y-55304140D02*
X52464450Y-55287500D01*
X51256340Y3066970D02*
X51248180Y3064580D01*
X68697740Y5762660D02*
X68553686Y5756486D01*
X75611380Y5880600D02*
X75563480Y5880990D01*
X51964430Y3274360D02*
X51956310Y3271990D01*
X53944660Y-55055070D02*
X54073320Y-55034600D01*
X-650260Y-33749951D02*
G75*
G03*
X-4650042Y-37708333I139J-4000139D01*
G01*
X82919700Y-44484520D02*
X82919700Y-44489840D01*
X51713210Y-55403440D02*
X51820550Y-55386950D01*
X53558630Y-55116230D02*
X53687320Y-55095880D01*
X85472611Y-45775126D02*
X85472610Y-45775130D01*
X54214890Y3912180D02*
X54174440Y3901260D01*
X55040580Y4129020D02*
X54991980Y4116590D01*
X76712510Y5864620D02*
X76640720Y5866110D01*
X-650000Y-14550000D02*
G75*
G03*
X-650000Y-22550000I-1J-4000000D01*
G01*
X54459220Y-54972920D02*
X54587840Y-54952280D01*
X94159730Y-28266150D02*
X94189720Y-28086630D01*
X52945010Y3558480D02*
X52928830Y3553850D01*
X73406210Y5877060D02*
X73358220Y5876590D01*
X50823200Y2940310D02*
X50815020Y2937930D01*
X83822990Y5370370D02*
X83799280Y5372970D01*
X32350000Y-18050011D02*
G75*
G03*
X31850000Y-18549990I-21J-499979D01*
G01*
X60403340Y-53961260D02*
X60509910Y-53941860D01*
X80011930Y5714560D02*
X79916400Y5721140D01*
X48253740Y2222020D02*
X48230880Y2216070D01*
X51614870Y3172040D02*
X51606730Y3169650D01*
X53850880Y3813030D02*
X53810440Y3801900D01*
X53123000Y3609260D02*
X53106820Y3604660D01*
X87459880Y-44070660D02*
X87570350Y-43961130D01*
X49780930Y2639690D02*
X49756250Y2632690D01*
X60616460Y-53922390D02*
X60722990Y-53902880D01*
X32350000Y-16450051D02*
G75*
G03*
X36350040Y-12450000I-21J4000061D01*
G01*
X90885067Y3027747D02*
X90885060Y3027750D01*
X51019500Y2997650D02*
X51011330Y2995260D01*
X89349070Y4024150D02*
X89308800Y4043810D01*
X94611540Y-25139940D02*
X94629860Y-24988980D01*
X94535310Y-25743240D02*
X94554810Y-25592500D01*
X61468330Y-53764720D02*
X61574750Y-53744750D01*
X83988790Y5351870D02*
X83965120Y5354550D01*
X51696230Y3195870D02*
X51688100Y3193490D01*
X39912942Y-2344162D02*
G75*
G03*
X38350000Y-6383080I4436937J-4038828D01*
G01*
X89126210Y4130060D02*
X89064920Y4158010D01*
X84319680Y5313340D02*
X84296080Y5316170D01*
X73885980Y5881000D02*
X73838020Y5880670D01*
X81896640Y5562460D02*
X81825160Y5568930D01*
X83704430Y5383310D02*
X83680700Y5385870D01*
X49952430Y-55670520D02*
X50038340Y-55657620D01*
X49410640Y2535320D02*
X49385940Y2528420D01*
X73314160Y-48736670D02*
X73314150Y-48736670D01*
X90228530Y3526460D02*
X90210610Y3538180D01*
X79151830Y5769310D02*
X79056220Y5774760D01*
X69009930Y5775400D02*
X68913870Y5771570D01*
X83846680Y5367750D02*
X83822990Y5370370D01*
X51582310Y3162500D02*
X51574170Y3160110D01*
X89248170Y4072960D02*
X89187310Y4101710D01*
X89508850Y3943820D02*
X89469110Y3964160D01*
X89085570Y-42278290D02*
X89195260Y-42142430D01*
X31849967Y-15949990D02*
G75*
G03*
X30742546Y-15380796I-699988J0D01*
G01*
X85094360Y5212100D02*
X85071020Y5215420D01*
X90156500Y3573100D02*
X90138340Y3584650D01*
X64568970Y-53154620D02*
X64844340Y-53097310D01*
X59784990Y-54072820D02*
X59870310Y-54057530D01*
X47660960Y2071900D02*
X47630220Y2064370D01*
X84036130Y5346500D02*
X84012460Y5349190D01*
X50847760Y2947480D02*
X50839570Y2945090D01*
X48843600Y2379040D02*
X48828380Y2374910D01*
X47371980Y2002150D02*
X47294610Y1983890D01*
X52264680Y3361960D02*
X52256570Y3359600D01*
X83181900Y5438100D02*
X83158130Y5440530D01*
X81825160Y5568930D02*
X81753660Y5575360D01*
X55423550Y-54816940D02*
X55573500Y-54792440D01*
X91223160Y2701790D02*
X91208220Y2717350D01*
X52572630Y3451330D02*
X52556430Y3446640D01*
X55573500Y-54792440D02*
X55723420Y-54767870D01*
X78960610Y5780070D02*
X78865000Y5785250D01*
X81610660Y5588060D02*
X81539140Y5594330D01*
X76568930Y5867540D02*
X76497130Y5868900D01*
X52240350Y3354870D02*
X52232240Y3352510D01*
X67214560Y4357810D02*
X67214560Y-1026850D01*
X94574020Y-25441700D02*
X94592930Y-25290840D01*
X83894070Y5362500D02*
X83870380Y5365130D01*
X51915700Y3260110D02*
X51907580Y3257740D01*
X51899450Y3255360D02*
X51891330Y3252990D01*
X89548430Y3923310D02*
X89508850Y3943820D01*
X83680700Y5385870D02*
X83656980Y5388430D01*
X79629740Y5740140D02*
X79534170Y5746230D01*
X50224710Y2766680D02*
X50208290Y2761950D01*
X51980670Y3279110D02*
X51972550Y3276740D01*
X50126160Y2738330D02*
X50109730Y2733610D01*
X51728760Y3205400D02*
X51720630Y3203020D01*
X50381960Y-55605920D02*
X50467870Y-55592960D01*
X73646130Y5879210D02*
X73598150Y5878810D01*
X90608620Y3256110D02*
X90575140Y3281770D01*
X-650000Y-36950009D02*
G75*
G03*
X-1449609Y-37725000I79J-800081D01*
G01*
X50296060Y-55618870D02*
X50381960Y-55605920D01*
X51818190Y3231590D02*
X51810060Y3229210D01*
X51272650Y3071750D02*
X51264500Y3069360D01*
X91929320Y-36905710D02*
X91991700Y-36736610D01*
X87519590Y4718820D02*
X87475840Y4731190D01*
X91163160Y2763610D02*
X91148070Y2778900D01*
X5750000Y-36950000D02*
G75*
G03*
X5750000Y-28950000I-1J4000000D01*
G01*
X47505920Y-30196790D02*
X47513410Y-21313850D01*
X94803900Y-23416510D02*
X94816090Y-23295390D01*
X52464450Y-55287500D02*
X52571750Y-55270830D01*
X6350000Y-38500000D02*
X-650000Y-38500000D01*
X81253010Y5618880D02*
X81181460Y5624890D01*
X46983820Y1912420D02*
X46905810Y1894950D01*
X51574170Y3160110D02*
X51566030Y3157720D01*
X66493710Y-52742150D02*
X66768110Y-52681030D01*
X55154000Y4157850D02*
X55097290Y4143470D01*
X52249830Y-55320750D02*
X52357140Y-55304140D01*
X71869440Y5855900D02*
X71797360Y5854570D01*
X47944570Y2142620D02*
X47917790Y2135860D01*
X50765900Y2923600D02*
X50757710Y2921220D01*
X87475840Y4731190D02*
X87432030Y4743410D01*
X37974208Y-23704122D02*
G75*
G03*
X37365900Y-25375350I1991671J-1671268D01*
G01*
X87344190Y4767440D02*
X87300170Y4779240D01*
X52126780Y3321770D02*
X52118670Y3319410D01*
X70320420Y-51833170D02*
X70466900Y-51795820D01*
X-650000Y-27349980D02*
G75*
G03*
X-650000Y-28950000I79J-800010D01*
G01*
X76209920Y5873700D02*
X76138110Y5874740D01*
X49435340Y2542230D02*
X49410640Y2535320D01*
X86945600Y4868790D02*
X86900990Y4879400D01*
X62659300Y-53537550D02*
X62786780Y-53512730D01*
X54263440Y3925240D02*
X54214890Y3912180D01*
X85396900Y5167210D02*
X85350470Y5174330D01*
X50921380Y2968980D02*
X50913210Y2966580D01*
X59528990Y-54118500D02*
X59614330Y-54103300D01*
X79343010Y5758030D02*
X79247420Y5763740D01*
X46671060Y1843560D02*
X46592580Y1826780D01*
X94750220Y-23931050D02*
X94766320Y-23779750D01*
X84107090Y5338360D02*
X84083440Y5341090D01*
X71073133Y-51639059D02*
G75*
G03*
X73314160Y-48736670I-759054J2902469D01*
G01*
X50124250Y-55644720D02*
X50210150Y-55631800D01*
X53567820Y3734610D02*
X53535470Y3725570D01*
X75515580Y5881350D02*
X75467690Y5881680D01*
X51761290Y3214930D02*
X51753160Y3212540D01*
X89743920Y3818280D02*
X89705170Y3839610D01*
X29775000Y-19049990D02*
G75*
G03*
X29775000Y-19049990I-225000J0D01*
G01*
X68817810Y5767660D02*
X68697740Y5762660D01*
X89195260Y-42142430D02*
X89307680Y-42001070D01*
X-4650040Y-37708330D02*
X-4650000Y-54450000D01*
X51940070Y3267240D02*
X51931940Y3264860D01*
X50109730Y2733610D02*
X50093300Y2728890D01*
X77071410Y5856140D02*
X76999640Y5857980D01*
X51785680Y3222070D02*
X51777550Y3219690D01*
X40192505Y-33585206D02*
X40192510Y-33585200D01*
X83562040Y5398570D02*
X83538300Y5401090D01*
X53770000Y3790740D02*
X53729570Y3779560D01*
X89469110Y3964160D02*
X89429230Y3984330D01*
X56282010Y4430300D02*
X56216980Y4415340D01*
X51394970Y3107590D02*
X51386820Y3105210D01*
X49731580Y2625690D02*
X49706900Y2618700D01*
X49213040Y2480330D02*
X49188340Y2473490D01*
X70173880Y-51870330D02*
X70320420Y-51833170D01*
X47505920Y-49268940D02*
X47505920Y-53715100D01*
X93184430Y-32883410D02*
X93222050Y-32737220D01*
X51679960Y3191110D02*
X51671830Y3188720D01*
X47217100Y1965790D02*
X47139470Y1947840D01*
X86721920Y4920570D02*
X86677000Y4930560D01*
X59358280Y-54148790D02*
X59443640Y-54133660D01*
X49311850Y2507760D02*
X49287150Y2500890D01*
X92981290Y-33641180D02*
X93029300Y-33466680D01*
X85950490Y5075220D02*
X85904620Y5083380D01*
X49336550Y2514640D02*
X49311850Y2507760D01*
X80752020Y5659710D02*
X80680430Y5665300D01*
X86579160Y-44885870D02*
X86718140Y-44763870D01*
X55835220Y4325630D02*
X55778400Y4312010D01*
X55324200Y4200650D02*
X55267460Y4186450D01*
X52094320Y3312300D02*
X52086210Y3309930D01*
X38350000Y-6383080D02*
X38350000Y-12050000D01*
X50994980Y2990480D02*
X50986800Y2988090D01*
X75922650Y5877520D02*
X75850820Y5878320D01*
X50905030Y2964200D02*
X50896850Y2961810D01*
X74509340Y5883760D02*
X74461400Y5883660D01*
X95280030Y-10973800D02*
X95267587Y-10502500D01*
X95173570Y-18527790D02*
X95199920Y-17979330D01*
X48957740Y2410120D02*
X48950130Y2408040D01*
X48676240Y2333850D02*
X48661020Y2329760D01*
X74269630Y5883050D02*
X74221680Y5882850D01*
X50241130Y2771420D02*
X50224710Y2766680D01*
X52110550Y3317040D02*
X52102440Y3314670D01*
X54846200Y4079050D02*
X54797620Y4066450D01*
X52191690Y3340700D02*
X52183570Y3338330D01*
X50937740Y2973750D02*
X50929570Y2971360D01*
X51460160Y3126700D02*
X51452020Y3124310D01*
X52256570Y3359600D02*
X52248460Y3357240D01*
X87570350Y-43961130D02*
X87680040Y-43850680D01*
X-650000Y-24150000D02*
G75*
G03*
X-650000Y-32150000I-1J-4000000D01*
G01*
X67653590Y-52479670D02*
X67948380Y-52411210D01*
X47691690Y2079460D02*
X47660960Y2071900D01*
X86677000Y4930560D02*
X86632020Y4940440D01*
X49361250Y2521520D02*
X49336550Y2514640D01*
X96050000Y-8364770D02*
X96050000Y336450D01*
X48493630Y2285090D02*
X48474610Y2280040D01*
X51109390Y3023950D02*
X51101220Y3021560D01*
X52313330Y3376110D02*
X52297110Y3371400D01*
X73933940Y5881310D02*
X73885980Y5881000D01*
X52556430Y3446640D02*
X52540230Y3441950D01*
X50724960Y2911670D02*
X50716770Y2909290D01*
X76640720Y5866110D02*
X76568930Y5867540D01*
X73214240Y5875110D02*
X73190240Y5874850D01*
X48360410Y2249920D02*
X48341370Y2244920D01*
X79820850Y5727590D02*
X79725300Y5733930D01*
X80202980Y5701050D02*
X80107460Y5707860D01*
X88168320Y-43338300D02*
X88265700Y-43231940D01*
X87884700Y-43640110D02*
X87979840Y-43540180D01*
X70355450Y5820880D02*
X70259320Y5818110D01*
X52977370Y3567740D02*
X52961190Y3563110D01*
X52459220Y3418480D02*
X52443010Y3413780D01*
X5750000Y-14550000D02*
X-650000Y-14550000D01*
X52118670Y3319410D02*
X52110550Y3317040D01*
X69298180Y5786400D02*
X69202090Y5782810D01*
X52880270Y3539940D02*
X52864090Y3535300D01*
X50634850Y2885440D02*
X50618460Y2880680D01*
X51931940Y3264860D02*
X51923820Y3262490D01*
X59443640Y-54133660D02*
X59528990Y-54118500D01*
X51590450Y3164880D02*
X51582310Y3162500D01*
X51362370Y3098040D02*
X51354210Y3095650D01*
X51403120Y3109980D02*
X51394970Y3107590D01*
X95306910Y-13195170D02*
X95306550Y-12986560D01*
X53025920Y3581610D02*
X53009740Y3576990D01*
X71653190Y5851830D02*
X71581100Y5850410D01*
X37446130Y-51066000D02*
X37446127Y-51066003D01*
X74988610Y5883780D02*
X74940690Y5883870D01*
X51435720Y3119530D02*
X51427570Y3117150D01*
X51623010Y3174420D02*
X51614870Y3172040D01*
X51264500Y3069360D02*
X51256340Y3066970D01*
X68537380Y-52272250D02*
X68831580Y-52201720D01*
X51891330Y3252990D02*
X51883200Y3250610D01*
X68553685Y5756508D02*
G75*
G03*
X67214560Y4357810I60794J-1398598D01*
G01*
X67358610Y-52547460D02*
X67653590Y-52479670D01*
X53414160Y3691580D02*
X53389900Y3684760D01*
X92233100Y-36056950D02*
X92291460Y-35886240D01*
X51647420Y3181570D02*
X51639280Y3179190D01*
X64187490Y-53233110D02*
X64314680Y-53207060D01*
X90565990Y-40074790D02*
X90645410Y-39913150D01*
X47505864Y-53715100D02*
G75*
G03*
X49802077Y-55693050I2000015J10D01*
G01*
X47513363Y-21313840D02*
G75*
G03*
X44254013Y-18213747I-2997884J111550D01*
G01*
X84696350Y5266300D02*
X84672860Y5269350D01*
X56023230Y-54718520D02*
X56173100Y-54693750D01*
X61148990Y-53824270D02*
X61255450Y-53804480D01*
X51875080Y3248230D02*
X51866950Y3245850D01*
X53106820Y3604660D02*
X53090640Y3600050D01*
X88870910Y-42538350D02*
X88978700Y-42408710D01*
X88038860Y4558610D02*
X87953060Y4586870D01*
X51498540Y-55436340D02*
X51605880Y-55419900D01*
X95291810Y-15028560D02*
X95303800Y-14063390D01*
X92833060Y-34163230D02*
X92883170Y-33989460D01*
X86406230Y4988060D02*
X86360900Y4997250D01*
X72662100Y5868420D02*
X72590060Y5867430D01*
X51777550Y3219690D02*
X51769420Y3217310D01*
X52679040Y-55254140D02*
X52786330Y-55237420D01*
X85024310Y5222010D02*
X85000940Y5225280D01*
X56385260Y-30683380D02*
X55513706Y-20721437D01*
X60211490Y-53996070D02*
X60296760Y-53980620D01*
X86811570Y4900230D02*
X86766780Y4910460D01*
X86541880Y4959830D02*
X86496720Y4969350D01*
X84578830Y5281390D02*
X84555310Y5284360D01*
X94955270Y-21779940D02*
X95011240Y-21081980D01*
X94766320Y-23779750D02*
X94779010Y-23658700D01*
X50872300Y2954640D02*
X50864120Y2952250D01*
X81396090Y5606710D02*
X81324550Y5612830D01*
X86042060Y5058600D02*
X85996300Y5066960D01*
X50027570Y2710040D02*
X50011130Y2705340D01*
X54409080Y3964220D02*
X54360530Y3951260D01*
X51655560Y3183960D02*
X51647420Y3181570D01*
X50467870Y-55592960D02*
X50553770Y-55579990D01*
X95305600Y-12748550D02*
X95304090Y-12510940D01*
X84390440Y5304780D02*
X84366860Y5307650D01*
X86315520Y5006330D02*
X86270080Y5015300D01*
X37365868Y-30995100D02*
G75*
G03*
X40192505Y-33585205I2600011J10D01*
G01*
X50438090Y2828330D02*
X50421690Y2823580D01*
X49287150Y2500890D02*
X49262450Y2494030D01*
X87650390Y4680830D02*
X87606860Y4693640D01*
X51035850Y3002430D02*
X51027680Y3000040D01*
X5750000Y-4950000D02*
X-650000Y-4950000D01*
X-650000Y-17749980D02*
G75*
G03*
X-650000Y-19350000I79J-800010D01*
G01*
X93438330Y-31857160D02*
X93472840Y-31710030D01*
X89934740Y3709180D02*
X89896990Y3731320D01*
X48797950Y2366670D02*
X48782740Y2362560D01*
X88265700Y-43231940D02*
X88362420Y-43124890D01*
X58240816Y-17471311D02*
G75*
G03*
X55513707Y-20721437I261463J-2988579D01*
G01*
X71797360Y5854570D02*
X71725280Y5853220D01*
X39912968Y-2344185D02*
X39912970Y-2344180D01*
X88651740Y4334020D02*
X88547230Y4375270D01*
X52061860Y3302820D02*
X52053740Y3300460D01*
X69106010Y5779140D02*
X69009930Y5775400D01*
X61255450Y-53804480D02*
X61361900Y-53784620D01*
X52394390Y3399670D02*
X52378180Y3394960D01*
X51329750Y3088480D02*
X51321590Y3086090D01*
X55551230Y4256840D02*
X55494460Y4242890D01*
X84343270Y5310500D02*
X84319680Y5313340D01*
X89670894Y-41529062D02*
G75*
G03*
X90565986Y-40074784I-7422515J5571072D01*
G01*
X50757710Y2921220D02*
X50749530Y2918830D01*
X51476460Y3131470D02*
X51468310Y3129090D01*
X82547787Y-31405914D02*
X82547790Y-31405920D01*
X83965120Y5354550D02*
X83941440Y5357200D01*
X60126210Y-54011480D02*
X60211490Y-53996070D01*
X52507830Y3432570D02*
X52491630Y3427880D01*
X51003150Y2992870D02*
X50994980Y2990480D01*
X51337900Y3090870D02*
X51329750Y3088480D01*
X85141020Y5205400D02*
X85117690Y5208750D01*
X83490810Y5406100D02*
X83467060Y5408600D01*
X80895190Y5648330D02*
X80823610Y5654050D01*
X82872760Y5469300D02*
X82825180Y5474030D01*
X89666240Y3860790D02*
X89627140Y3881800D01*
X52224130Y3350150D02*
X52216020Y3347790D01*
X94323020Y-27247370D02*
X94345710Y-27097250D01*
X89422700Y-41854150D02*
X89543860Y-41696860D01*
X52571750Y-55270830D02*
X52679040Y-55254140D01*
X58568300Y-54287450D02*
X58675100Y-54268850D01*
X51158390Y3038290D02*
X51150220Y3035900D01*
X94219190Y-27906990D02*
X94248170Y-27727240D01*
X52588830Y3456010D02*
X52572630Y3451330D01*
X50667620Y2894980D02*
X50651240Y2890210D01*
X45929070Y1693180D02*
X45929069Y1693191D01*
X71028380Y5838380D02*
X70932250Y5836080D01*
X70259320Y5818110D02*
X70163190Y5815270D01*
X50716770Y2909290D02*
X50708580Y2906900D01*
X51492750Y3136250D02*
X51484600Y3133860D01*
X88859300Y4248240D02*
X88755760Y4291680D01*
X54093540Y3879350D02*
X54053100Y3868360D01*
X51215530Y3055020D02*
X51207370Y3052630D01*
X53292850Y3657400D02*
X53268590Y3650550D01*
X86224590Y5024170D02*
X86179040Y5032930D01*
X94454210Y-26345660D02*
X94474950Y-26195140D01*
X92173950Y-36227350D02*
X92233100Y-36056950D01*
X81753660Y5575360D02*
X81682160Y5581730D01*
X85812740Y5099420D02*
X85766730Y5107300D01*
X85639788Y-45649712D02*
G75*
G03*
X85946194Y-45411875I-10879909J14332922D01*
G01*
X48828380Y2374910D02*
X48813170Y2370790D01*
X94554810Y-25592500D02*
X94574020Y-25441700D01*
X85350470Y5174330D02*
X85304000Y5181370D01*
X52605030Y3460690D02*
X52588830Y3456010D01*
X86451510Y4978770D02*
X86406230Y4988060D01*
X84954170Y5231770D02*
X84930780Y5235000D01*
X53058280Y3590840D02*
X53042100Y3586220D01*
X84403354Y-18193913D02*
X84403350Y-18193920D01*
X48858820Y2383170D02*
X48843600Y2379040D01*
X94345710Y-27097250D02*
X94368060Y-26947070D01*
X63041680Y-53462810D02*
X63169090Y-53437700D01*
X81038340Y5636720D02*
X80966770Y5642550D01*
X52669810Y3479400D02*
X52653620Y3474730D01*
X49188340Y2473490D02*
X49163630Y2466670D01*
X73742080Y5879970D02*
X73694100Y5879600D01*
X83870380Y5365130D02*
X83846680Y5367750D01*
X78865000Y5785250D02*
X78769380Y5790290D01*
X37365910Y-30995100D02*
X37365900Y-30995100D01*
X83585780Y5396040D02*
X83562040Y5398570D01*
X48661020Y2329760D02*
X48645810Y2325680D01*
X83205680Y5435670D02*
X83181900Y5438100D01*
X94189720Y-28086630D02*
X94219190Y-27906990D01*
X77286720Y5850210D02*
X77214950Y5852260D01*
X61361900Y-53784620D02*
X61468330Y-53764720D01*
X50273970Y2780890D02*
X50257550Y2776150D01*
X87211920Y4802430D02*
X87167700Y4813820D01*
X52686010Y3484070D02*
X52669810Y3479400D01*
X86586980Y4950190D02*
X86541880Y4959830D01*
X-2650000Y-3350000D02*
X5750000Y-3350000D01*
X49484720Y2556070D02*
X49460030Y2549140D01*
X48752310Y2354330D02*
X48737100Y2350230D01*
X85257480Y5188330D02*
X85210930Y5195210D01*
X52912640Y3549220D02*
X52896460Y3544580D01*
X82919643Y-44484520D02*
G75*
G03*
X80235660Y-42605135I-1999964J30D01*
G01*
X47891010Y2129110D02*
X47864220Y2122370D01*
X69970940Y5809370D02*
X69874820Y5806310D01*
X47917790Y2135860D02*
X47891010Y2129110D01*
X49802080Y-55693050D02*
X49866520Y-55683400D01*
X90192630Y3549860D02*
X90174600Y3561500D01*
X76138110Y5874740D02*
X76066290Y5875730D01*
X46095620Y1725300D02*
X46012400Y1709130D01*
X58055520Y-54376150D02*
X58226480Y-54346690D01*
X79725300Y5733930D02*
X79629740Y5740140D01*
X94300010Y-27397410D02*
X94323020Y-27247370D01*
X92625380Y-34855760D02*
X92678390Y-34683020D01*
X89308800Y4043810D02*
X89248170Y4072960D01*
X58226480Y-54346690D02*
X58397400Y-54317120D01*
X83514560Y5403600D02*
X83490810Y5406100D01*
X53074460Y3595450D02*
X53058280Y3590840D01*
X30476934Y-15757685D02*
G75*
G03*
X30450000Y-15949990I673045J-192305D01*
G01*
X73358220Y5876590D02*
X73310230Y5876110D01*
X53172520Y-55177000D02*
X53301230Y-55156790D01*
X73550170Y5878390D02*
X73502190Y5877960D01*
X50618460Y2880680D02*
X50602070Y2875910D01*
X70906000Y-51682650D02*
X71073137Y-51639075D01*
X72157730Y5860870D02*
X72085660Y5859680D01*
X49682220Y2611710D02*
X49657540Y2604730D01*
X50839570Y2945090D02*
X50831390Y2942700D01*
X50553770Y-55579990D02*
X50639670Y-55567000D01*
X73094240Y5873790D02*
X73022230Y5872960D01*
D12*
%TO.C,U1*%
X33100000Y-8950000D02*
X33100000Y-1050000D01*
X32750000Y-700000D02*
X15750000Y-700000D01*
X15750000Y-9300000D02*
X32750000Y-9300000D01*
X15400000Y-1050000D02*
X15400000Y-8950000D01*
X32750000Y-9300000D02*
G75*
G03*
X33100000Y-8950000I-1J350001D01*
G01*
X33100000Y-1050000D02*
G75*
G03*
X32750000Y-700000I-350001J-1D01*
G01*
X15400000Y-8950000D02*
G75*
G03*
X15750000Y-9300000I350000J0D01*
G01*
X15750000Y-700000D02*
G75*
G03*
X15400000Y-1050000I0J-350000D01*
G01*
%TD*%
M02*
