%TF.GenerationSoftware,KiCad,Pcbnew,7.0.9*%
%TF.CreationDate,2024-02-17T01:27:59-05:00*%
%TF.ProjectId,Thumb,5468756d-622e-46b6-9963-61645f706362,rev?*%
%TF.SameCoordinates,Original*%
%TF.FileFunction,Soldermask,Top*%
%TF.FilePolarity,Negative*%
%FSLAX46Y46*%
G04 Gerber Fmt 4.6, Leading zero omitted, Abs format (unit mm)*
G04 Created by KiCad (PCBNEW 7.0.9) date 2024-02-17 01:27:59*
%MOMM*%
%LPD*%
G01*
G04 APERTURE LIST*
G04 APERTURE END LIST*
G36*
X7388880Y-55137713D02*
G01*
X7421842Y-55159737D01*
X8140263Y-55878158D01*
X8162287Y-55911120D01*
X8170020Y-55950000D01*
X8162287Y-55988880D01*
X8140263Y-56021842D01*
X7421842Y-56740263D01*
X7388880Y-56762287D01*
X7350000Y-56770020D01*
X7311120Y-56762287D01*
X7278158Y-56740263D01*
X6559737Y-56021842D01*
X6537713Y-55988880D01*
X6529980Y-55950000D01*
X6537713Y-55911120D01*
X6559737Y-55878158D01*
X7278158Y-55159737D01*
X7311120Y-55137713D01*
X7350000Y-55129980D01*
X7388880Y-55137713D01*
G37*
G36*
X18388880Y-55137713D02*
G01*
X18421842Y-55159737D01*
X19140263Y-55878158D01*
X19162287Y-55911120D01*
X19170020Y-55950000D01*
X19162287Y-55988880D01*
X19140263Y-56021842D01*
X18421842Y-56740263D01*
X18388880Y-56762287D01*
X18350000Y-56770020D01*
X18311120Y-56762287D01*
X18278158Y-56740263D01*
X17559737Y-56021842D01*
X17537713Y-55988880D01*
X17529980Y-55950000D01*
X17537713Y-55911120D01*
X17559737Y-55878158D01*
X18278158Y-55159737D01*
X18311120Y-55137713D01*
X18350000Y-55129980D01*
X18388880Y-55137713D01*
G37*
G36*
X30388880Y-55137713D02*
G01*
X30421842Y-55159737D01*
X31140263Y-55878158D01*
X31162287Y-55911120D01*
X31170020Y-55950000D01*
X31162287Y-55988880D01*
X31140263Y-56021842D01*
X30421842Y-56740263D01*
X30388880Y-56762287D01*
X30350000Y-56770020D01*
X30311120Y-56762287D01*
X30278158Y-56740263D01*
X29559737Y-56021842D01*
X29537713Y-55988880D01*
X29529980Y-55950000D01*
X29537713Y-55911120D01*
X29559737Y-55878158D01*
X30278158Y-55159737D01*
X30311120Y-55137713D01*
X30350000Y-55129980D01*
X30388880Y-55137713D01*
G37*
G36*
X-1011120Y-54937713D02*
G01*
X-978158Y-54959737D01*
X-259737Y-55678158D01*
X-237713Y-55711120D01*
X-229980Y-55750000D01*
X-237713Y-55788880D01*
X-259737Y-55821842D01*
X-978158Y-56540263D01*
X-1011120Y-56562287D01*
X-1050000Y-56570020D01*
X-1088880Y-56562287D01*
X-1121842Y-56540263D01*
X-1840263Y-55821842D01*
X-1862287Y-55788880D01*
X-1870020Y-55750000D01*
X-1862287Y-55711120D01*
X-1840263Y-55678158D01*
X-1121842Y-54959737D01*
X-1088880Y-54937713D01*
X-1050000Y-54929980D01*
X-1011120Y-54937713D01*
G37*
G36*
X49544800Y-52902813D02*
G01*
X49577762Y-52924837D01*
X50296183Y-53643258D01*
X50318207Y-53676220D01*
X50325940Y-53715100D01*
X50318207Y-53753980D01*
X50296183Y-53786942D01*
X49577762Y-54505363D01*
X49544800Y-54527387D01*
X49505920Y-54535120D01*
X49467040Y-54527387D01*
X49434078Y-54505363D01*
X48715657Y-53786942D01*
X48693633Y-53753980D01*
X48685900Y-53715100D01*
X48693633Y-53676220D01*
X48715657Y-53643258D01*
X49434078Y-52924837D01*
X49467040Y-52902813D01*
X49505920Y-52895080D01*
X49544800Y-52902813D01*
G37*
G36*
X35688880Y-52837713D02*
G01*
X35721842Y-52859737D01*
X36440263Y-53578158D01*
X36462287Y-53611120D01*
X36470020Y-53650000D01*
X36462287Y-53688880D01*
X36440263Y-53721842D01*
X35721842Y-54440263D01*
X35688880Y-54462287D01*
X35650000Y-54470020D01*
X35611120Y-54462287D01*
X35578158Y-54440263D01*
X34859737Y-53721842D01*
X34837713Y-53688880D01*
X34829980Y-53650000D01*
X34837713Y-53611120D01*
X34859737Y-53578158D01*
X35578158Y-52859737D01*
X35611120Y-52837713D01*
X35650000Y-52829980D01*
X35688880Y-52837713D01*
G37*
G36*
X55320881Y-51411069D02*
G01*
X55334452Y-51417040D01*
X55344704Y-51427750D01*
X55350079Y-51441569D01*
X55732105Y-53608146D01*
X55731781Y-53622969D01*
X55725810Y-53636540D01*
X55715099Y-53646793D01*
X55701280Y-53652167D01*
X55123869Y-53753980D01*
X54228920Y-53911784D01*
X54228918Y-53911783D01*
X54224069Y-53912639D01*
X54209245Y-53912315D01*
X54195674Y-53906344D01*
X54185422Y-53895634D01*
X54180047Y-53881815D01*
X53951810Y-52587422D01*
X53798876Y-51720089D01*
X53798876Y-51720087D01*
X53798021Y-51715238D01*
X53798345Y-51700415D01*
X53804316Y-51686844D01*
X53815027Y-51676591D01*
X53828846Y-51671217D01*
X53833692Y-51670362D01*
X53833696Y-51670361D01*
X55301205Y-51411599D01*
X55301212Y-51411599D01*
X55306057Y-51410745D01*
X55320881Y-51411069D01*
G37*
G36*
X16608956Y-51982865D02*
G01*
X16769000Y-52054121D01*
X16910731Y-52157095D01*
X17027956Y-52287286D01*
X17115551Y-52439005D01*
X17169688Y-52605620D01*
X17188000Y-52779850D01*
X17169688Y-52954080D01*
X17115551Y-53120695D01*
X17027956Y-53272414D01*
X16910731Y-53402605D01*
X16769000Y-53505579D01*
X16608956Y-53576835D01*
X16437595Y-53613259D01*
X16262405Y-53613259D01*
X16091044Y-53576835D01*
X15931000Y-53505579D01*
X15789269Y-53402605D01*
X15672044Y-53272414D01*
X15584449Y-53120695D01*
X15530312Y-52954080D01*
X15512000Y-52779850D01*
X15530312Y-52605620D01*
X15584449Y-52439005D01*
X15672044Y-52287286D01*
X15789269Y-52157095D01*
X15931000Y-52054121D01*
X16091044Y-51982865D01*
X16262405Y-51946441D01*
X16437595Y-51946441D01*
X16608956Y-51982865D01*
G37*
G36*
X31848956Y-51982865D02*
G01*
X32009000Y-52054121D01*
X32150731Y-52157095D01*
X32267956Y-52287286D01*
X32355551Y-52439005D01*
X32409688Y-52605620D01*
X32428000Y-52779850D01*
X32409688Y-52954080D01*
X32355551Y-53120695D01*
X32267956Y-53272414D01*
X32150731Y-53402605D01*
X32009000Y-53505579D01*
X31848956Y-53576835D01*
X31677595Y-53613259D01*
X31502405Y-53613259D01*
X31331044Y-53576835D01*
X31171000Y-53505579D01*
X31029269Y-53402605D01*
X30912044Y-53272414D01*
X30824449Y-53120695D01*
X30770312Y-52954080D01*
X30752000Y-52779850D01*
X30770312Y-52605620D01*
X30824449Y-52439005D01*
X30912044Y-52287286D01*
X31029269Y-52157095D01*
X31171000Y-52054121D01*
X31331044Y-51982865D01*
X31502405Y-51946441D01*
X31677595Y-51946441D01*
X31848956Y-51982865D01*
G37*
G36*
X57921725Y-51094804D02*
G01*
X58053434Y-51149360D01*
X58166535Y-51236145D01*
X58253320Y-51349246D01*
X58307876Y-51480955D01*
X58326484Y-51622296D01*
X58307876Y-51763637D01*
X58253320Y-51895346D01*
X58166535Y-52008447D01*
X58053434Y-52095232D01*
X57921725Y-52149788D01*
X57780384Y-52168396D01*
X57639043Y-52149788D01*
X57507334Y-52095232D01*
X57394233Y-52008447D01*
X57307448Y-51895346D01*
X57252892Y-51763637D01*
X57234284Y-51622296D01*
X57252892Y-51480955D01*
X57307448Y-51349246D01*
X57394233Y-51236145D01*
X57507334Y-51149360D01*
X57639043Y-51094804D01*
X57780384Y-51076196D01*
X57921725Y-51094804D01*
G37*
G36*
X65464401Y-49622493D02*
G01*
X65477972Y-49628464D01*
X65488224Y-49639174D01*
X65493599Y-49652993D01*
X65875625Y-51819570D01*
X65875301Y-51834393D01*
X65869330Y-51847964D01*
X65858619Y-51858217D01*
X65844800Y-51863591D01*
X65168363Y-51982865D01*
X64372440Y-52123208D01*
X64372438Y-52123207D01*
X64367589Y-52124063D01*
X64352765Y-52123739D01*
X64339194Y-52117768D01*
X64328942Y-52107058D01*
X64323567Y-52093239D01*
X64078618Y-50704066D01*
X63942396Y-49931513D01*
X63942396Y-49931511D01*
X63941541Y-49926662D01*
X63941865Y-49911839D01*
X63947836Y-49898268D01*
X63958547Y-49888015D01*
X63972366Y-49882641D01*
X63977212Y-49881786D01*
X63977216Y-49881785D01*
X65444725Y-49623023D01*
X65444732Y-49623023D01*
X65449577Y-49622169D01*
X65464401Y-49622493D01*
G37*
G36*
X-1565740Y-51084479D02*
G01*
X-1529964Y-51084479D01*
X-1500886Y-51093017D01*
X-1471825Y-51096843D01*
X-1432789Y-51113012D01*
X-1393413Y-51124574D01*
X-1372630Y-51137930D01*
X-1351338Y-51146750D01*
X-1312323Y-51176687D01*
X-1273691Y-51201515D01*
X-1261238Y-51215887D01*
X-1247872Y-51226143D01*
X-1213222Y-51271300D01*
X-1180494Y-51309070D01*
X-1174987Y-51321128D01*
X-1168483Y-51329605D01*
X-1142799Y-51391612D01*
X-1121375Y-51438524D01*
X-1120316Y-51445890D01*
X-1118575Y-51450093D01*
X-1106241Y-51543780D01*
X-1101121Y-51579390D01*
X-1106242Y-51615002D01*
X-1118575Y-51708686D01*
X-1120316Y-51712888D01*
X-1121375Y-51720256D01*
X-1142800Y-51767170D01*
X-1168482Y-51829173D01*
X-1174987Y-51837649D01*
X-1180494Y-51849710D01*
X-1213234Y-51887493D01*
X-1247874Y-51932637D01*
X-1261234Y-51942888D01*
X-1273691Y-51957265D01*
X-1312333Y-51982098D01*
X-1351338Y-52012029D01*
X-1372625Y-52020846D01*
X-1393413Y-52034206D01*
X-1432798Y-52045770D01*
X-1471825Y-52061936D01*
X-1500880Y-52065761D01*
X-1529964Y-52074301D01*
X-1565747Y-52074301D01*
X-1601121Y-52078958D01*
X-1636495Y-52074301D01*
X-1672278Y-52074301D01*
X-1701362Y-52065761D01*
X-1730418Y-52061936D01*
X-1769449Y-52045769D01*
X-1808829Y-52034206D01*
X-1829616Y-52020847D01*
X-1850905Y-52012029D01*
X-1889917Y-51982094D01*
X-1928551Y-51957265D01*
X-1941007Y-51942890D01*
X-1954369Y-51932637D01*
X-1989018Y-51887483D01*
X-2021748Y-51849710D01*
X-2027255Y-51837652D01*
X-2033761Y-51829173D01*
X-2059453Y-51767147D01*
X-2080867Y-51720256D01*
X-2081926Y-51712892D01*
X-2083668Y-51708686D01*
X-2096013Y-51614919D01*
X-2101121Y-51579390D01*
X-2096013Y-51543863D01*
X-2083668Y-51450093D01*
X-2081926Y-51445886D01*
X-2080867Y-51438524D01*
X-2059455Y-51391635D01*
X-2033760Y-51329605D01*
X-2027254Y-51321125D01*
X-2021748Y-51309070D01*
X-1989032Y-51271313D01*
X-1954370Y-51226141D01*
X-1941001Y-51215881D01*
X-1928551Y-51201515D01*
X-1889929Y-51176693D01*
X-1850906Y-51146751D01*
X-1829613Y-51137931D01*
X-1808829Y-51124574D01*
X-1769456Y-51113012D01*
X-1730418Y-51096843D01*
X-1701356Y-51093016D01*
X-1672278Y-51084479D01*
X-1636503Y-51084479D01*
X-1601121Y-51079821D01*
X-1565740Y-51084479D01*
G37*
G36*
X13865938Y-50949500D02*
G01*
X13870653Y-50951582D01*
X13873326Y-50951934D01*
X13906770Y-50967529D01*
X13962759Y-50992251D01*
X14037599Y-51067091D01*
X14062330Y-51123101D01*
X14077915Y-51156523D01*
X14078266Y-51159193D01*
X14080350Y-51163912D01*
X14088000Y-51229850D01*
X14088000Y-51754850D01*
X14080350Y-51820788D01*
X14078266Y-51825506D01*
X14077915Y-51828176D01*
X14062338Y-51861580D01*
X14037599Y-51917609D01*
X13962759Y-51992449D01*
X13906730Y-52017188D01*
X13873326Y-52032765D01*
X13870656Y-52033116D01*
X13865938Y-52035200D01*
X13800000Y-52042850D01*
X12900000Y-52042850D01*
X12834062Y-52035200D01*
X12829343Y-52033116D01*
X12826673Y-52032765D01*
X12793251Y-52017180D01*
X12737241Y-51992449D01*
X12662401Y-51917609D01*
X12637679Y-51861620D01*
X12622084Y-51828176D01*
X12621732Y-51825503D01*
X12619650Y-51820788D01*
X12612000Y-51754850D01*
X12612000Y-51229850D01*
X12619650Y-51163912D01*
X12621732Y-51159196D01*
X12622084Y-51156523D01*
X12637687Y-51123060D01*
X12662401Y-51067091D01*
X12737241Y-50992251D01*
X12793210Y-50967537D01*
X12826673Y-50951934D01*
X12829346Y-50951582D01*
X12834062Y-50949500D01*
X12900000Y-50941850D01*
X13800000Y-50941850D01*
X13865938Y-50949500D01*
G37*
G36*
X-3162241Y-49967103D02*
G01*
X-3129279Y-49989127D01*
X-2410858Y-50707548D01*
X-2388834Y-50740510D01*
X-2381101Y-50779390D01*
X-2388834Y-50818270D01*
X-2410858Y-50851232D01*
X-3129279Y-51569653D01*
X-3162241Y-51591677D01*
X-3201121Y-51599410D01*
X-3240001Y-51591677D01*
X-3272963Y-51569653D01*
X-3991384Y-50851232D01*
X-4013408Y-50818270D01*
X-4021141Y-50779390D01*
X-4013408Y-50740510D01*
X-3991384Y-50707548D01*
X-3272963Y-49989127D01*
X-3240001Y-49967103D01*
X-3201121Y-49959370D01*
X-3162241Y-49967103D01*
G37*
G36*
X61860957Y-50400212D02*
G01*
X61992666Y-50454768D01*
X62105767Y-50541553D01*
X62192552Y-50654654D01*
X62247108Y-50786363D01*
X62265716Y-50927704D01*
X62247108Y-51069045D01*
X62192552Y-51200754D01*
X62105767Y-51313855D01*
X61992666Y-51400640D01*
X61860957Y-51455196D01*
X61719616Y-51473804D01*
X61578275Y-51455196D01*
X61446566Y-51400640D01*
X61333465Y-51313855D01*
X61246680Y-51200754D01*
X61192124Y-51069045D01*
X61173516Y-50927704D01*
X61192124Y-50786363D01*
X61246680Y-50654654D01*
X61333465Y-50541553D01*
X61446566Y-50454768D01*
X61578275Y-50400212D01*
X61719616Y-50381604D01*
X61860957Y-50400212D01*
G37*
G36*
X16608956Y-49442865D02*
G01*
X16769000Y-49514121D01*
X16910731Y-49617095D01*
X17027956Y-49747286D01*
X17115551Y-49899005D01*
X17169688Y-50065620D01*
X17188000Y-50239850D01*
X17169688Y-50414080D01*
X17115551Y-50580695D01*
X17027956Y-50732414D01*
X16910731Y-50862605D01*
X16769000Y-50965579D01*
X16608956Y-51036835D01*
X16437595Y-51073259D01*
X16262405Y-51073259D01*
X16091044Y-51036835D01*
X15931000Y-50965579D01*
X15789269Y-50862605D01*
X15672044Y-50732414D01*
X15584449Y-50580695D01*
X15530312Y-50414080D01*
X15512000Y-50239850D01*
X15530312Y-50065620D01*
X15584449Y-49899005D01*
X15672044Y-49747286D01*
X15789269Y-49617095D01*
X15931000Y-49514121D01*
X16091044Y-49442865D01*
X16262405Y-49406441D01*
X16437595Y-49406441D01*
X16608956Y-49442865D01*
G37*
G36*
X31848956Y-49442865D02*
G01*
X32009000Y-49514121D01*
X32150731Y-49617095D01*
X32267956Y-49747286D01*
X32355551Y-49899005D01*
X32409688Y-50065620D01*
X32428000Y-50239850D01*
X32409688Y-50414080D01*
X32355551Y-50580695D01*
X32267956Y-50732414D01*
X32150731Y-50862605D01*
X32009000Y-50965579D01*
X31848956Y-51036835D01*
X31677595Y-51073259D01*
X31502405Y-51073259D01*
X31331044Y-51036835D01*
X31171000Y-50965579D01*
X31029269Y-50862605D01*
X30912044Y-50732414D01*
X30824449Y-50580695D01*
X30770312Y-50414080D01*
X30752000Y-50239850D01*
X30770312Y-50065620D01*
X30824449Y-49899005D01*
X30912044Y-49747286D01*
X31029269Y-49617095D01*
X31171000Y-49514121D01*
X31331044Y-49442865D01*
X31502405Y-49406441D01*
X31677595Y-49406441D01*
X31848956Y-49442865D01*
G37*
G36*
X13865938Y-49124500D02*
G01*
X13870653Y-49126582D01*
X13873326Y-49126934D01*
X13906770Y-49142529D01*
X13962759Y-49167251D01*
X14037599Y-49242091D01*
X14062330Y-49298101D01*
X14077915Y-49331523D01*
X14078266Y-49334193D01*
X14080350Y-49338912D01*
X14088000Y-49404850D01*
X14088000Y-49929850D01*
X14080350Y-49995788D01*
X14078266Y-50000506D01*
X14077915Y-50003176D01*
X14062338Y-50036580D01*
X14037599Y-50092609D01*
X13962759Y-50167449D01*
X13906730Y-50192188D01*
X13873326Y-50207765D01*
X13870656Y-50208116D01*
X13865938Y-50210200D01*
X13800000Y-50217850D01*
X12900000Y-50217850D01*
X12834062Y-50210200D01*
X12829343Y-50208116D01*
X12826673Y-50207765D01*
X12793251Y-50192180D01*
X12737241Y-50167449D01*
X12662401Y-50092609D01*
X12637679Y-50036620D01*
X12622084Y-50003176D01*
X12621732Y-50000503D01*
X12619650Y-49995788D01*
X12612000Y-49929850D01*
X12612000Y-49404850D01*
X12619650Y-49338912D01*
X12621732Y-49334196D01*
X12622084Y-49331523D01*
X12637687Y-49298060D01*
X12662401Y-49242091D01*
X12737241Y-49167251D01*
X12793210Y-49142537D01*
X12826673Y-49126934D01*
X12829346Y-49126582D01*
X12834062Y-49124500D01*
X12900000Y-49116850D01*
X13800000Y-49116850D01*
X13865938Y-49124500D01*
G37*
G36*
X70988880Y-48537713D02*
G01*
X71021842Y-48559737D01*
X71740263Y-49278158D01*
X71762287Y-49311120D01*
X71770020Y-49350000D01*
X71762287Y-49388880D01*
X71740263Y-49421842D01*
X71021842Y-50140263D01*
X70988880Y-50162287D01*
X70950000Y-50170020D01*
X70911120Y-50162287D01*
X70878158Y-50140263D01*
X70159737Y-49421842D01*
X70137713Y-49388880D01*
X70129980Y-49350000D01*
X70137713Y-49311120D01*
X70159737Y-49278158D01*
X70878158Y-48559737D01*
X70911120Y-48537713D01*
X70950000Y-48529980D01*
X70988880Y-48537713D01*
G37*
G36*
X-1842138Y-47551133D02*
G01*
X-1800611Y-47578880D01*
X-1772864Y-47620407D01*
X-1763121Y-47669390D01*
X-1763121Y-49289390D01*
X-1772864Y-49338373D01*
X-1800611Y-49379900D01*
X-1842138Y-49407647D01*
X-1891121Y-49417390D01*
X-4111121Y-49417390D01*
X-4160104Y-49407647D01*
X-4201631Y-49379900D01*
X-4229378Y-49338373D01*
X-4239121Y-49289390D01*
X-4239121Y-47669390D01*
X-4229378Y-47620407D01*
X-4201631Y-47578880D01*
X-4160104Y-47551133D01*
X-4111121Y-47541390D01*
X-1891121Y-47541390D01*
X-1842138Y-47551133D01*
G37*
G36*
X16608956Y-46902865D02*
G01*
X16769000Y-46974121D01*
X16910731Y-47077095D01*
X17027956Y-47207286D01*
X17115551Y-47359005D01*
X17169688Y-47525620D01*
X17188000Y-47699850D01*
X17169688Y-47874080D01*
X17115551Y-48040695D01*
X17027956Y-48192414D01*
X16910731Y-48322605D01*
X16769000Y-48425579D01*
X16608956Y-48496835D01*
X16437595Y-48533259D01*
X16262405Y-48533259D01*
X16091044Y-48496835D01*
X15931000Y-48425579D01*
X15789269Y-48322605D01*
X15672044Y-48192414D01*
X15584449Y-48040695D01*
X15530312Y-47874080D01*
X15512000Y-47699850D01*
X15530312Y-47525620D01*
X15584449Y-47359005D01*
X15672044Y-47207286D01*
X15789269Y-47077095D01*
X15931000Y-46974121D01*
X16091044Y-46902865D01*
X16262405Y-46866441D01*
X16437595Y-46866441D01*
X16608956Y-46902865D01*
G37*
G36*
X31848956Y-46902865D02*
G01*
X32009000Y-46974121D01*
X32150731Y-47077095D01*
X32267956Y-47207286D01*
X32355551Y-47359005D01*
X32409688Y-47525620D01*
X32428000Y-47699850D01*
X32409688Y-47874080D01*
X32355551Y-48040695D01*
X32267956Y-48192414D01*
X32150731Y-48322605D01*
X32009000Y-48425579D01*
X31848956Y-48496835D01*
X31677595Y-48533259D01*
X31502405Y-48533259D01*
X31331044Y-48496835D01*
X31171000Y-48425579D01*
X31029269Y-48322605D01*
X30912044Y-48192414D01*
X30824449Y-48040695D01*
X30770312Y-47874080D01*
X30752000Y-47699850D01*
X30770312Y-47525620D01*
X30824449Y-47359005D01*
X30912044Y-47207286D01*
X31029269Y-47077095D01*
X31171000Y-46974121D01*
X31331044Y-46902865D01*
X31502405Y-46866441D01*
X31677595Y-46866441D01*
X31848956Y-46902865D01*
G37*
G36*
X48288880Y-46037713D02*
G01*
X48321842Y-46059737D01*
X49040263Y-46778158D01*
X49062287Y-46811120D01*
X49070020Y-46850000D01*
X49062287Y-46888880D01*
X49040263Y-46921842D01*
X48321842Y-47640263D01*
X48288880Y-47662287D01*
X48250000Y-47670020D01*
X48211120Y-47662287D01*
X48178158Y-47640263D01*
X47459737Y-46921842D01*
X47437713Y-46888880D01*
X47429980Y-46850000D01*
X47437713Y-46811120D01*
X47459737Y-46778158D01*
X48178158Y-46059737D01*
X48211120Y-46037713D01*
X48250000Y-46029980D01*
X48288880Y-46037713D01*
G37*
G36*
X-1842138Y-45351133D02*
G01*
X-1800611Y-45378880D01*
X-1772864Y-45420407D01*
X-1763121Y-45469390D01*
X-1763121Y-47089390D01*
X-1772864Y-47138373D01*
X-1800611Y-47179900D01*
X-1842138Y-47207647D01*
X-1891121Y-47217390D01*
X-4111121Y-47217390D01*
X-4160104Y-47207647D01*
X-4201631Y-47179900D01*
X-4229378Y-47138373D01*
X-4239121Y-47089390D01*
X-4239121Y-45469390D01*
X-4229378Y-45420407D01*
X-4201631Y-45378880D01*
X-4160104Y-45351133D01*
X-4111121Y-45341390D01*
X-1891121Y-45341390D01*
X-1842138Y-45351133D01*
G37*
G36*
X36088880Y-45437713D02*
G01*
X36121842Y-45459737D01*
X36840263Y-46178158D01*
X36862287Y-46211120D01*
X36870020Y-46250000D01*
X36862287Y-46288880D01*
X36840263Y-46321842D01*
X36121842Y-47040263D01*
X36088880Y-47062287D01*
X36050000Y-47070020D01*
X36011120Y-47062287D01*
X35978158Y-47040263D01*
X35259737Y-46321842D01*
X35237713Y-46288880D01*
X35229980Y-46250000D01*
X35237713Y-46211120D01*
X35259737Y-46178158D01*
X35978158Y-45459737D01*
X36011120Y-45437713D01*
X36050000Y-45429980D01*
X36088880Y-45437713D01*
G37*
G36*
X16608956Y-44362865D02*
G01*
X16769000Y-44434121D01*
X16910731Y-44537095D01*
X17027956Y-44667286D01*
X17115551Y-44819005D01*
X17169688Y-44985620D01*
X17188000Y-45159850D01*
X17169688Y-45334080D01*
X17115551Y-45500695D01*
X17027956Y-45652414D01*
X16910731Y-45782605D01*
X16769000Y-45885579D01*
X16608956Y-45956835D01*
X16437595Y-45993259D01*
X16262405Y-45993259D01*
X16091044Y-45956835D01*
X15931000Y-45885579D01*
X15789269Y-45782605D01*
X15672044Y-45652414D01*
X15584449Y-45500695D01*
X15530312Y-45334080D01*
X15512000Y-45159850D01*
X15530312Y-44985620D01*
X15584449Y-44819005D01*
X15672044Y-44667286D01*
X15789269Y-44537095D01*
X15931000Y-44434121D01*
X16091044Y-44362865D01*
X16262405Y-44326441D01*
X16437595Y-44326441D01*
X16608956Y-44362865D01*
G37*
G36*
X31848956Y-44362865D02*
G01*
X32009000Y-44434121D01*
X32150731Y-44537095D01*
X32267956Y-44667286D01*
X32355551Y-44819005D01*
X32409688Y-44985620D01*
X32428000Y-45159850D01*
X32409688Y-45334080D01*
X32355551Y-45500695D01*
X32267956Y-45652414D01*
X32150731Y-45782605D01*
X32009000Y-45885579D01*
X31848956Y-45956835D01*
X31677595Y-45993259D01*
X31502405Y-45993259D01*
X31331044Y-45956835D01*
X31171000Y-45885579D01*
X31029269Y-45782605D01*
X30912044Y-45652414D01*
X30824449Y-45500695D01*
X30770312Y-45334080D01*
X30752000Y-45159850D01*
X30770312Y-44985620D01*
X30824449Y-44819005D01*
X30912044Y-44667286D01*
X31029269Y-44537095D01*
X31171000Y-44434121D01*
X31331044Y-44362865D01*
X31502405Y-44326441D01*
X31677595Y-44326441D01*
X31848956Y-44362865D01*
G37*
G36*
X72488880Y-43537713D02*
G01*
X72521842Y-43559737D01*
X73240263Y-44278158D01*
X73262287Y-44311120D01*
X73270020Y-44350000D01*
X73262287Y-44388880D01*
X73240263Y-44421842D01*
X72521842Y-45140263D01*
X72488880Y-45162287D01*
X72450000Y-45170020D01*
X72411120Y-45162287D01*
X72378158Y-45140263D01*
X71659737Y-44421842D01*
X71637713Y-44388880D01*
X71629980Y-44350000D01*
X71637713Y-44311120D01*
X71659737Y-44278158D01*
X72378158Y-43559737D01*
X72411120Y-43537713D01*
X72450000Y-43529980D01*
X72488880Y-43537713D01*
G37*
G36*
X84788880Y-43137713D02*
G01*
X84821842Y-43159737D01*
X85540263Y-43878158D01*
X85562287Y-43911120D01*
X85570020Y-43950000D01*
X85562287Y-43988880D01*
X85540263Y-44021842D01*
X84821842Y-44740263D01*
X84788880Y-44762287D01*
X84750000Y-44770020D01*
X84711120Y-44762287D01*
X84678158Y-44740263D01*
X83959737Y-44021842D01*
X83937713Y-43988880D01*
X83929980Y-43950000D01*
X83937713Y-43911120D01*
X83959737Y-43878158D01*
X84678158Y-43159737D01*
X84711120Y-43137713D01*
X84750000Y-43129980D01*
X84788880Y-43137713D01*
G37*
G36*
X16608956Y-41822865D02*
G01*
X16769000Y-41894121D01*
X16910731Y-41997095D01*
X17027956Y-42127286D01*
X17115551Y-42279005D01*
X17169688Y-42445620D01*
X17188000Y-42619850D01*
X17169688Y-42794080D01*
X17115551Y-42960695D01*
X17027956Y-43112414D01*
X16910731Y-43242605D01*
X16769000Y-43345579D01*
X16608956Y-43416835D01*
X16437595Y-43453259D01*
X16262405Y-43453259D01*
X16091044Y-43416835D01*
X15931000Y-43345579D01*
X15789269Y-43242605D01*
X15672044Y-43112414D01*
X15584449Y-42960695D01*
X15530312Y-42794080D01*
X15512000Y-42619850D01*
X15530312Y-42445620D01*
X15584449Y-42279005D01*
X15672044Y-42127286D01*
X15789269Y-41997095D01*
X15931000Y-41894121D01*
X16091044Y-41822865D01*
X16262405Y-41786441D01*
X16437595Y-41786441D01*
X16608956Y-41822865D01*
G37*
G36*
X31848956Y-41822865D02*
G01*
X32009000Y-41894121D01*
X32150731Y-41997095D01*
X32267956Y-42127286D01*
X32355551Y-42279005D01*
X32409688Y-42445620D01*
X32428000Y-42619850D01*
X32409688Y-42794080D01*
X32355551Y-42960695D01*
X32267956Y-43112414D01*
X32150731Y-43242605D01*
X32009000Y-43345579D01*
X31848956Y-43416835D01*
X31677595Y-43453259D01*
X31502405Y-43453259D01*
X31331044Y-43416835D01*
X31171000Y-43345579D01*
X31029269Y-43242605D01*
X30912044Y-43112414D01*
X30824449Y-42960695D01*
X30770312Y-42794080D01*
X30752000Y-42619850D01*
X30770312Y-42445620D01*
X30824449Y-42279005D01*
X30912044Y-42127286D01*
X31029269Y-41997095D01*
X31171000Y-41894121D01*
X31331044Y-41822865D01*
X31502405Y-41786441D01*
X31677595Y-41786441D01*
X31848956Y-41822865D01*
G37*
G36*
X44765938Y-40249500D02*
G01*
X44770653Y-40251582D01*
X44773326Y-40251934D01*
X44806770Y-40267529D01*
X44862759Y-40292251D01*
X44937599Y-40367091D01*
X44962330Y-40423101D01*
X44977915Y-40456523D01*
X44978266Y-40459193D01*
X44980350Y-40463912D01*
X44988000Y-40529850D01*
X44988000Y-41429850D01*
X44980350Y-41495788D01*
X44978266Y-41500506D01*
X44977915Y-41503176D01*
X44962338Y-41536580D01*
X44937599Y-41592609D01*
X44862759Y-41667449D01*
X44806730Y-41692188D01*
X44773326Y-41707765D01*
X44770656Y-41708116D01*
X44765938Y-41710200D01*
X44700000Y-41717850D01*
X44175000Y-41717850D01*
X44109062Y-41710200D01*
X44104343Y-41708116D01*
X44101673Y-41707765D01*
X44068251Y-41692180D01*
X44012241Y-41667449D01*
X43937401Y-41592609D01*
X43912679Y-41536620D01*
X43897084Y-41503176D01*
X43896732Y-41500503D01*
X43894650Y-41495788D01*
X43887000Y-41429850D01*
X43887000Y-40529850D01*
X43894650Y-40463912D01*
X43896732Y-40459196D01*
X43897084Y-40456523D01*
X43912687Y-40423060D01*
X43937401Y-40367091D01*
X44012241Y-40292251D01*
X44068210Y-40267537D01*
X44101673Y-40251934D01*
X44104346Y-40251582D01*
X44109062Y-40249500D01*
X44175000Y-40241850D01*
X44700000Y-40241850D01*
X44765938Y-40249500D01*
G37*
G36*
X46590938Y-40249500D02*
G01*
X46595653Y-40251582D01*
X46598326Y-40251934D01*
X46631770Y-40267529D01*
X46687759Y-40292251D01*
X46762599Y-40367091D01*
X46787330Y-40423101D01*
X46802915Y-40456523D01*
X46803266Y-40459193D01*
X46805350Y-40463912D01*
X46813000Y-40529850D01*
X46813000Y-41429850D01*
X46805350Y-41495788D01*
X46803266Y-41500506D01*
X46802915Y-41503176D01*
X46787338Y-41536580D01*
X46762599Y-41592609D01*
X46687759Y-41667449D01*
X46631730Y-41692188D01*
X46598326Y-41707765D01*
X46595656Y-41708116D01*
X46590938Y-41710200D01*
X46525000Y-41717850D01*
X46000000Y-41717850D01*
X45934062Y-41710200D01*
X45929343Y-41708116D01*
X45926673Y-41707765D01*
X45893251Y-41692180D01*
X45837241Y-41667449D01*
X45762401Y-41592609D01*
X45737679Y-41536620D01*
X45722084Y-41503176D01*
X45721732Y-41500503D01*
X45719650Y-41495788D01*
X45712000Y-41429850D01*
X45712000Y-40529850D01*
X45719650Y-40463912D01*
X45721732Y-40459196D01*
X45722084Y-40456523D01*
X45737687Y-40423060D01*
X45762401Y-40367091D01*
X45837241Y-40292251D01*
X45893210Y-40267537D01*
X45926673Y-40251934D01*
X45929346Y-40251582D01*
X45934062Y-40249500D01*
X46000000Y-40241850D01*
X46525000Y-40241850D01*
X46590938Y-40249500D01*
G37*
G36*
X60050876Y-39174528D02*
G01*
X60063875Y-39181659D01*
X60073155Y-39193223D01*
X60077304Y-39207457D01*
X60269047Y-41399085D01*
X60267432Y-41413824D01*
X60260301Y-41426823D01*
X60248738Y-41436103D01*
X60234503Y-41440253D01*
X58740211Y-41570986D01*
X58725472Y-41569372D01*
X58712473Y-41562241D01*
X58703193Y-41550677D01*
X58699044Y-41536443D01*
X58507301Y-39344815D01*
X58508916Y-39330076D01*
X58516047Y-39317077D01*
X58527610Y-39307797D01*
X58541845Y-39303647D01*
X59288991Y-39238280D01*
X60031231Y-39173343D01*
X60031232Y-39173343D01*
X60036137Y-39172914D01*
X60050876Y-39174528D01*
G37*
G36*
X16608956Y-39282865D02*
G01*
X16769000Y-39354121D01*
X16910731Y-39457095D01*
X17027956Y-39587286D01*
X17115551Y-39739005D01*
X17169688Y-39905620D01*
X17188000Y-40079850D01*
X17169688Y-40254080D01*
X17115551Y-40420695D01*
X17027956Y-40572414D01*
X16910731Y-40702605D01*
X16769000Y-40805579D01*
X16608956Y-40876835D01*
X16437595Y-40913259D01*
X16262405Y-40913259D01*
X16091044Y-40876835D01*
X15931000Y-40805579D01*
X15789269Y-40702605D01*
X15672044Y-40572414D01*
X15584449Y-40420695D01*
X15530312Y-40254080D01*
X15512000Y-40079850D01*
X15530312Y-39905620D01*
X15584449Y-39739005D01*
X15672044Y-39587286D01*
X15789269Y-39457095D01*
X15931000Y-39354121D01*
X16091044Y-39282865D01*
X16262405Y-39246441D01*
X16437595Y-39246441D01*
X16608956Y-39282865D01*
G37*
G36*
X31848956Y-39282865D02*
G01*
X32009000Y-39354121D01*
X32150731Y-39457095D01*
X32267956Y-39587286D01*
X32355551Y-39739005D01*
X32409688Y-39905620D01*
X32428000Y-40079850D01*
X32409688Y-40254080D01*
X32355551Y-40420695D01*
X32267956Y-40572414D01*
X32150731Y-40702605D01*
X32009000Y-40805579D01*
X31848956Y-40876835D01*
X31677595Y-40913259D01*
X31502405Y-40913259D01*
X31331044Y-40876835D01*
X31171000Y-40805579D01*
X31029269Y-40702605D01*
X30912044Y-40572414D01*
X30824449Y-40420695D01*
X30770312Y-40254080D01*
X30752000Y-40079850D01*
X30770312Y-39905620D01*
X30824449Y-39739005D01*
X30912044Y-39587286D01*
X31029269Y-39457095D01*
X31171000Y-39354121D01*
X31331044Y-39282865D01*
X31502405Y-39246441D01*
X31677595Y-39246441D01*
X31848956Y-39282865D01*
G37*
G36*
X70311682Y-38276823D02*
G01*
X70324681Y-38283954D01*
X70333961Y-38295518D01*
X70338110Y-38309752D01*
X70529853Y-40501380D01*
X70528238Y-40516119D01*
X70521107Y-40529118D01*
X70509544Y-40538398D01*
X70495309Y-40542548D01*
X69001017Y-40673281D01*
X68986278Y-40671667D01*
X68973279Y-40664536D01*
X68963999Y-40652972D01*
X68959850Y-40638738D01*
X68768107Y-38447110D01*
X68769722Y-38432371D01*
X68776853Y-38419372D01*
X68788416Y-38410092D01*
X68802651Y-38405942D01*
X69595546Y-38336573D01*
X70292037Y-38275638D01*
X70292038Y-38275638D01*
X70296943Y-38275209D01*
X70311682Y-38276823D01*
G37*
G36*
X62623952Y-39071819D02*
G01*
X62755661Y-39126375D01*
X62868762Y-39213160D01*
X62955547Y-39326261D01*
X63010103Y-39457970D01*
X63028711Y-39599311D01*
X63010103Y-39740652D01*
X62955547Y-39872361D01*
X62868762Y-39985462D01*
X62755661Y-40072247D01*
X62623952Y-40126803D01*
X62482611Y-40145411D01*
X62341270Y-40126803D01*
X62209561Y-40072247D01*
X62096460Y-39985462D01*
X62009675Y-39872361D01*
X61955119Y-39740652D01*
X61936511Y-39599311D01*
X61955119Y-39457970D01*
X62009675Y-39326261D01*
X62096460Y-39213160D01*
X62209561Y-39126375D01*
X62341270Y-39071819D01*
X62482611Y-39053211D01*
X62623952Y-39071819D01*
G37*
G36*
X66608730Y-38723197D02*
G01*
X66740439Y-38777753D01*
X66853540Y-38864538D01*
X66940325Y-38977639D01*
X66994881Y-39109348D01*
X67013489Y-39250689D01*
X66994881Y-39392030D01*
X66940325Y-39523739D01*
X66853540Y-39636840D01*
X66740439Y-39723625D01*
X66608730Y-39778181D01*
X66467389Y-39796789D01*
X66326048Y-39778181D01*
X66194339Y-39723625D01*
X66081238Y-39636840D01*
X65994453Y-39523739D01*
X65939897Y-39392030D01*
X65921289Y-39250689D01*
X65939897Y-39109348D01*
X65994453Y-38977639D01*
X66081238Y-38864538D01*
X66194339Y-38777753D01*
X66326048Y-38723197D01*
X66467389Y-38704589D01*
X66608730Y-38723197D01*
G37*
G36*
X44765938Y-38249500D02*
G01*
X44770653Y-38251582D01*
X44773326Y-38251934D01*
X44806770Y-38267529D01*
X44862759Y-38292251D01*
X44937599Y-38367091D01*
X44962330Y-38423101D01*
X44977915Y-38456523D01*
X44978266Y-38459193D01*
X44980350Y-38463912D01*
X44988000Y-38529850D01*
X44988000Y-39429850D01*
X44980350Y-39495788D01*
X44978266Y-39500506D01*
X44977915Y-39503176D01*
X44962338Y-39536580D01*
X44937599Y-39592609D01*
X44862759Y-39667449D01*
X44806730Y-39692188D01*
X44773326Y-39707765D01*
X44770656Y-39708116D01*
X44765938Y-39710200D01*
X44700000Y-39717850D01*
X44175000Y-39717850D01*
X44109062Y-39710200D01*
X44104343Y-39708116D01*
X44101673Y-39707765D01*
X44068251Y-39692180D01*
X44012241Y-39667449D01*
X43937401Y-39592609D01*
X43912679Y-39536620D01*
X43897084Y-39503176D01*
X43896732Y-39500503D01*
X43894650Y-39495788D01*
X43887000Y-39429850D01*
X43887000Y-38529850D01*
X43894650Y-38463912D01*
X43896732Y-38459196D01*
X43897084Y-38456523D01*
X43912687Y-38423060D01*
X43937401Y-38367091D01*
X44012241Y-38292251D01*
X44068210Y-38267537D01*
X44101673Y-38251934D01*
X44104346Y-38251582D01*
X44109062Y-38249500D01*
X44175000Y-38241850D01*
X44700000Y-38241850D01*
X44765938Y-38249500D01*
G37*
G36*
X46590938Y-38249500D02*
G01*
X46595653Y-38251582D01*
X46598326Y-38251934D01*
X46631770Y-38267529D01*
X46687759Y-38292251D01*
X46762599Y-38367091D01*
X46787330Y-38423101D01*
X46802915Y-38456523D01*
X46803266Y-38459193D01*
X46805350Y-38463912D01*
X46813000Y-38529850D01*
X46813000Y-39429850D01*
X46805350Y-39495788D01*
X46803266Y-39500506D01*
X46802915Y-39503176D01*
X46787338Y-39536580D01*
X46762599Y-39592609D01*
X46687759Y-39667449D01*
X46631730Y-39692188D01*
X46598326Y-39707765D01*
X46595656Y-39708116D01*
X46590938Y-39710200D01*
X46525000Y-39717850D01*
X46000000Y-39717850D01*
X45934062Y-39710200D01*
X45929343Y-39708116D01*
X45926673Y-39707765D01*
X45893251Y-39692180D01*
X45837241Y-39667449D01*
X45762401Y-39592609D01*
X45737679Y-39536620D01*
X45722084Y-39503176D01*
X45721732Y-39500503D01*
X45719650Y-39495788D01*
X45712000Y-39429850D01*
X45712000Y-38529850D01*
X45719650Y-38463912D01*
X45721732Y-38459196D01*
X45722084Y-38456523D01*
X45737687Y-38423060D01*
X45762401Y-38367091D01*
X45837241Y-38292251D01*
X45893210Y-38267537D01*
X45926673Y-38251934D01*
X45929346Y-38251582D01*
X45934062Y-38249500D01*
X46000000Y-38241850D01*
X46525000Y-38241850D01*
X46590938Y-38249500D01*
G37*
G36*
X72338722Y-37103333D02*
G01*
X72351721Y-37110464D01*
X72361001Y-37122028D01*
X72365150Y-37136262D01*
X72556893Y-39327890D01*
X72555278Y-39342629D01*
X72548147Y-39355628D01*
X72536584Y-39364908D01*
X72522349Y-39369058D01*
X71028057Y-39499791D01*
X71013318Y-39498177D01*
X71000319Y-39491046D01*
X70991039Y-39479482D01*
X70986890Y-39465248D01*
X70795147Y-37273620D01*
X70796762Y-37258881D01*
X70803893Y-37245882D01*
X70815456Y-37236602D01*
X70829691Y-37232452D01*
X71576837Y-37167085D01*
X72319077Y-37102148D01*
X72319078Y-37102148D01*
X72323983Y-37101719D01*
X72338722Y-37103333D01*
G37*
G36*
X74998952Y-37996819D02*
G01*
X75130661Y-38051375D01*
X75243762Y-38138160D01*
X75330547Y-38251261D01*
X75385103Y-38382970D01*
X75403711Y-38524311D01*
X75385103Y-38665652D01*
X75330547Y-38797361D01*
X75243762Y-38910462D01*
X75130661Y-38997247D01*
X74998952Y-39051803D01*
X74857611Y-39070411D01*
X74716270Y-39051803D01*
X74584561Y-38997247D01*
X74471460Y-38910462D01*
X74384675Y-38797361D01*
X74330119Y-38665652D01*
X74311511Y-38524311D01*
X74330119Y-38382970D01*
X74384675Y-38251261D01*
X74471460Y-38138160D01*
X74584561Y-38051375D01*
X74716270Y-37996819D01*
X74857611Y-37978211D01*
X74998952Y-37996819D01*
G37*
G36*
X78983730Y-37648197D02*
G01*
X79115439Y-37702753D01*
X79228540Y-37789538D01*
X79315325Y-37902639D01*
X79369881Y-38034348D01*
X79388489Y-38175689D01*
X79369881Y-38317030D01*
X79315325Y-38448739D01*
X79228540Y-38561840D01*
X79115439Y-38648625D01*
X78983730Y-38703181D01*
X78842389Y-38721789D01*
X78701048Y-38703181D01*
X78569339Y-38648625D01*
X78456238Y-38561840D01*
X78369453Y-38448739D01*
X78314897Y-38317030D01*
X78296289Y-38175689D01*
X78314897Y-38034348D01*
X78369453Y-37902639D01*
X78456238Y-37789538D01*
X78569339Y-37702753D01*
X78701048Y-37648197D01*
X78842389Y-37629589D01*
X78983730Y-37648197D01*
G37*
G36*
X51278438Y-37249500D02*
G01*
X51283153Y-37251582D01*
X51285826Y-37251934D01*
X51319270Y-37267529D01*
X51375259Y-37292251D01*
X51450099Y-37367091D01*
X51474830Y-37423101D01*
X51490415Y-37456523D01*
X51490766Y-37459193D01*
X51492850Y-37463912D01*
X51500500Y-37529850D01*
X51500500Y-38429850D01*
X51492850Y-38495788D01*
X51490766Y-38500506D01*
X51490415Y-38503176D01*
X51474838Y-38536580D01*
X51450099Y-38592609D01*
X51375259Y-38667449D01*
X51319230Y-38692188D01*
X51285826Y-38707765D01*
X51283156Y-38708116D01*
X51278438Y-38710200D01*
X51212500Y-38717850D01*
X50687500Y-38717850D01*
X50621562Y-38710200D01*
X50616843Y-38708116D01*
X50614173Y-38707765D01*
X50580751Y-38692180D01*
X50524741Y-38667449D01*
X50449901Y-38592609D01*
X50425179Y-38536620D01*
X50409584Y-38503176D01*
X50409232Y-38500503D01*
X50407150Y-38495788D01*
X50399500Y-38429850D01*
X50399500Y-37529850D01*
X50407150Y-37463912D01*
X50409232Y-37459196D01*
X50409584Y-37456523D01*
X50425187Y-37423060D01*
X50449901Y-37367091D01*
X50524741Y-37292251D01*
X50580710Y-37267537D01*
X50614173Y-37251934D01*
X50616846Y-37251582D01*
X50621562Y-37249500D01*
X50687500Y-37241850D01*
X51212500Y-37241850D01*
X51278438Y-37249500D01*
G37*
G36*
X53103438Y-37249500D02*
G01*
X53108153Y-37251582D01*
X53110826Y-37251934D01*
X53144270Y-37267529D01*
X53200259Y-37292251D01*
X53275099Y-37367091D01*
X53299830Y-37423101D01*
X53315415Y-37456523D01*
X53315766Y-37459193D01*
X53317850Y-37463912D01*
X53325500Y-37529850D01*
X53325500Y-38429850D01*
X53317850Y-38495788D01*
X53315766Y-38500506D01*
X53315415Y-38503176D01*
X53299838Y-38536580D01*
X53275099Y-38592609D01*
X53200259Y-38667449D01*
X53144230Y-38692188D01*
X53110826Y-38707765D01*
X53108156Y-38708116D01*
X53103438Y-38710200D01*
X53037500Y-38717850D01*
X52512500Y-38717850D01*
X52446562Y-38710200D01*
X52441843Y-38708116D01*
X52439173Y-38707765D01*
X52405751Y-38692180D01*
X52349741Y-38667449D01*
X52274901Y-38592609D01*
X52250179Y-38536620D01*
X52234584Y-38503176D01*
X52234232Y-38500503D01*
X52232150Y-38495788D01*
X52224500Y-38429850D01*
X52224500Y-37529850D01*
X52232150Y-37463912D01*
X52234232Y-37459196D01*
X52234584Y-37456523D01*
X52250187Y-37423060D01*
X52274901Y-37367091D01*
X52349741Y-37292251D01*
X52405710Y-37267537D01*
X52439173Y-37251934D01*
X52441846Y-37251582D01*
X52446562Y-37249500D01*
X52512500Y-37241850D01*
X53037500Y-37241850D01*
X53103438Y-37249500D01*
G37*
G36*
X82599528Y-36205628D02*
G01*
X82612527Y-36212759D01*
X82621807Y-36224323D01*
X82625956Y-36238557D01*
X82817699Y-38430185D01*
X82816084Y-38444924D01*
X82808953Y-38457923D01*
X82797390Y-38467203D01*
X82783155Y-38471353D01*
X81288863Y-38602086D01*
X81274124Y-38600472D01*
X81261125Y-38593341D01*
X81251845Y-38581777D01*
X81247696Y-38567543D01*
X81055953Y-36375915D01*
X81057568Y-36361176D01*
X81064699Y-36348177D01*
X81076262Y-36338897D01*
X81090497Y-36334747D01*
X81837643Y-36269380D01*
X82579883Y-36204443D01*
X82579884Y-36204443D01*
X82584789Y-36204014D01*
X82599528Y-36205628D01*
G37*
G36*
X89788880Y-36937713D02*
G01*
X89821842Y-36959737D01*
X90540263Y-37678158D01*
X90562287Y-37711120D01*
X90570020Y-37750000D01*
X90562287Y-37788880D01*
X90540263Y-37821842D01*
X89821842Y-38540263D01*
X89788880Y-38562287D01*
X89750000Y-38570020D01*
X89711120Y-38562287D01*
X89678158Y-38540263D01*
X88959737Y-37821842D01*
X88937713Y-37788880D01*
X88929980Y-37750000D01*
X88937713Y-37711120D01*
X88959737Y-37678158D01*
X89678158Y-36959737D01*
X89711120Y-36937713D01*
X89750000Y-36929980D01*
X89788880Y-36937713D01*
G37*
G36*
X16608956Y-36742865D02*
G01*
X16769000Y-36814121D01*
X16910731Y-36917095D01*
X17027956Y-37047286D01*
X17115551Y-37199005D01*
X17169688Y-37365620D01*
X17188000Y-37539850D01*
X17169688Y-37714080D01*
X17115551Y-37880695D01*
X17027956Y-38032414D01*
X16910731Y-38162605D01*
X16769000Y-38265579D01*
X16608956Y-38336835D01*
X16437595Y-38373259D01*
X16262405Y-38373259D01*
X16091044Y-38336835D01*
X15931000Y-38265579D01*
X15789269Y-38162605D01*
X15672044Y-38032414D01*
X15584449Y-37880695D01*
X15530312Y-37714080D01*
X15512000Y-37539850D01*
X15530312Y-37365620D01*
X15584449Y-37199005D01*
X15672044Y-37047286D01*
X15789269Y-36917095D01*
X15931000Y-36814121D01*
X16091044Y-36742865D01*
X16262405Y-36706441D01*
X16437595Y-36706441D01*
X16608956Y-36742865D01*
G37*
G36*
X31848956Y-36742865D02*
G01*
X32009000Y-36814121D01*
X32150731Y-36917095D01*
X32267956Y-37047286D01*
X32355551Y-37199005D01*
X32409688Y-37365620D01*
X32428000Y-37539850D01*
X32409688Y-37714080D01*
X32355551Y-37880695D01*
X32267956Y-38032414D01*
X32150731Y-38162605D01*
X32009000Y-38265579D01*
X31848956Y-38336835D01*
X31677595Y-38373259D01*
X31502405Y-38373259D01*
X31331044Y-38336835D01*
X31171000Y-38265579D01*
X31029269Y-38162605D01*
X30912044Y-38032414D01*
X30824449Y-37880695D01*
X30770312Y-37714080D01*
X30752000Y-37539850D01*
X30770312Y-37365620D01*
X30824449Y-37199005D01*
X30912044Y-37047286D01*
X31029269Y-36917095D01*
X31171000Y-36814121D01*
X31331044Y-36742865D01*
X31502405Y-36706441D01*
X31677595Y-36706441D01*
X31848956Y-36742865D01*
G37*
G36*
X51278438Y-35249500D02*
G01*
X51283153Y-35251582D01*
X51285826Y-35251934D01*
X51319270Y-35267529D01*
X51375259Y-35292251D01*
X51450099Y-35367091D01*
X51474830Y-35423101D01*
X51490415Y-35456523D01*
X51490766Y-35459193D01*
X51492850Y-35463912D01*
X51500500Y-35529850D01*
X51500500Y-36429850D01*
X51492850Y-36495788D01*
X51490766Y-36500506D01*
X51490415Y-36503176D01*
X51474838Y-36536580D01*
X51450099Y-36592609D01*
X51375259Y-36667449D01*
X51319230Y-36692188D01*
X51285826Y-36707765D01*
X51283156Y-36708116D01*
X51278438Y-36710200D01*
X51212500Y-36717850D01*
X50687500Y-36717850D01*
X50621562Y-36710200D01*
X50616843Y-36708116D01*
X50614173Y-36707765D01*
X50580751Y-36692180D01*
X50524741Y-36667449D01*
X50449901Y-36592609D01*
X50425179Y-36536620D01*
X50409584Y-36503176D01*
X50409232Y-36500503D01*
X50407150Y-36495788D01*
X50399500Y-36429850D01*
X50399500Y-35529850D01*
X50407150Y-35463912D01*
X50409232Y-35459196D01*
X50409584Y-35456523D01*
X50425187Y-35423060D01*
X50449901Y-35367091D01*
X50524741Y-35292251D01*
X50580710Y-35267537D01*
X50614173Y-35251934D01*
X50616846Y-35251582D01*
X50621562Y-35249500D01*
X50687500Y-35241850D01*
X51212500Y-35241850D01*
X51278438Y-35249500D01*
G37*
G36*
X53103438Y-35249500D02*
G01*
X53108153Y-35251582D01*
X53110826Y-35251934D01*
X53144270Y-35267529D01*
X53200259Y-35292251D01*
X53275099Y-35367091D01*
X53299830Y-35423101D01*
X53315415Y-35456523D01*
X53315766Y-35459193D01*
X53317850Y-35463912D01*
X53325500Y-35529850D01*
X53325500Y-36429850D01*
X53317850Y-36495788D01*
X53315766Y-36500506D01*
X53315415Y-36503176D01*
X53299838Y-36536580D01*
X53275099Y-36592609D01*
X53200259Y-36667449D01*
X53144230Y-36692188D01*
X53110826Y-36707765D01*
X53108156Y-36708116D01*
X53103438Y-36710200D01*
X53037500Y-36717850D01*
X52512500Y-36717850D01*
X52446562Y-36710200D01*
X52441843Y-36708116D01*
X52439173Y-36707765D01*
X52405751Y-36692180D01*
X52349741Y-36667449D01*
X52274901Y-36592609D01*
X52250179Y-36536620D01*
X52234584Y-36503176D01*
X52234232Y-36500503D01*
X52232150Y-36495788D01*
X52224500Y-36429850D01*
X52224500Y-35529850D01*
X52232150Y-35463912D01*
X52234232Y-35459196D01*
X52234584Y-35456523D01*
X52250187Y-35423060D01*
X52274901Y-35367091D01*
X52349741Y-35292251D01*
X52405710Y-35267537D01*
X52439173Y-35251934D01*
X52441846Y-35251582D01*
X52446562Y-35249500D01*
X52512500Y-35241850D01*
X53037500Y-35241850D01*
X53103438Y-35249500D01*
G37*
G36*
X65872906Y-34580936D02*
G01*
X65880157Y-34583086D01*
X65884465Y-34583275D01*
X65942831Y-34601678D01*
X66008150Y-34621054D01*
X66012036Y-34623499D01*
X66013324Y-34623905D01*
X66063988Y-34656181D01*
X66127556Y-34696172D01*
X66177933Y-34751781D01*
X66218558Y-34796115D01*
X66219181Y-34797313D01*
X66222267Y-34800719D01*
X66252731Y-34861763D01*
X66280946Y-34915963D01*
X66281877Y-34920163D01*
X66285260Y-34926942D01*
X66310621Y-35047836D01*
X66366400Y-35685400D01*
X66362418Y-35808861D01*
X66360265Y-35816116D01*
X66360078Y-35820420D01*
X66341691Y-35878732D01*
X66322300Y-35944105D01*
X66319852Y-35947994D01*
X66319448Y-35949279D01*
X66287251Y-35999817D01*
X66247182Y-36063511D01*
X66191484Y-36113968D01*
X66147238Y-36154513D01*
X66146041Y-36155135D01*
X66142635Y-36158222D01*
X66081566Y-36188698D01*
X66027390Y-36216901D01*
X66023190Y-36217831D01*
X66016412Y-36221215D01*
X65895518Y-36246576D01*
X65058715Y-36319787D01*
X64935254Y-36315804D01*
X64927998Y-36313651D01*
X64923694Y-36313464D01*
X64865365Y-36295072D01*
X64800010Y-36275686D01*
X64796121Y-36273239D01*
X64794835Y-36272834D01*
X64744217Y-36240586D01*
X64680604Y-36200568D01*
X64630233Y-36144966D01*
X64589601Y-36100624D01*
X64588976Y-36099425D01*
X64585893Y-36096021D01*
X64555439Y-36034998D01*
X64527213Y-35980776D01*
X64526281Y-35976573D01*
X64522900Y-35969798D01*
X64497539Y-35848904D01*
X64443634Y-35232763D01*
X64442045Y-35214598D01*
X64442045Y-35214597D01*
X64441760Y-35211340D01*
X64445742Y-35087879D01*
X64447892Y-35080627D01*
X64448081Y-35076319D01*
X64466489Y-35017936D01*
X64485860Y-34952635D01*
X64488304Y-34948749D01*
X64488711Y-34947460D01*
X64521037Y-34896716D01*
X64560978Y-34833229D01*
X64616491Y-34782938D01*
X64660921Y-34742226D01*
X64662122Y-34741600D01*
X64665525Y-34738518D01*
X64726522Y-34708076D01*
X64780769Y-34679838D01*
X64784973Y-34678905D01*
X64791748Y-34675525D01*
X64912642Y-34650164D01*
X65749445Y-34576953D01*
X65872906Y-34580936D01*
G37*
G36*
X67166676Y-34955680D02*
G01*
X67217912Y-34957128D01*
X67235910Y-34963263D01*
X67258777Y-34965768D01*
X67284245Y-34979740D01*
X67305564Y-34987008D01*
X67320809Y-34999800D01*
X67343613Y-35012311D01*
X67359893Y-35032595D01*
X67375140Y-35045389D01*
X67385998Y-35065121D01*
X67404181Y-35087776D01*
X67410618Y-35109860D01*
X67419783Y-35126515D01*
X67430096Y-35176687D01*
X67431259Y-35180675D01*
X67481809Y-35758468D01*
X67481359Y-35762568D01*
X67479913Y-35813793D01*
X67473778Y-35831788D01*
X67471274Y-35854657D01*
X67457300Y-35880126D01*
X67450033Y-35901447D01*
X67437239Y-35916693D01*
X67424731Y-35939493D01*
X67404448Y-35955771D01*
X67391655Y-35971018D01*
X67371922Y-35981876D01*
X67349266Y-36000061D01*
X67327180Y-36006498D01*
X67310525Y-36015664D01*
X67260348Y-36025978D01*
X67256367Y-36027139D01*
X67077052Y-36042827D01*
X67072951Y-36042377D01*
X67021727Y-36040931D01*
X67003732Y-36034796D01*
X66980863Y-36032292D01*
X66955391Y-36018317D01*
X66934075Y-36011051D01*
X66918830Y-35998259D01*
X66896027Y-35985749D01*
X66879746Y-35965463D01*
X66864499Y-35952670D01*
X66853639Y-35932936D01*
X66835459Y-35910284D01*
X66829022Y-35888201D01*
X66819856Y-35871544D01*
X66809540Y-35821363D01*
X66808381Y-35817385D01*
X66763069Y-35299465D01*
X66758082Y-35242468D01*
X66758082Y-35242462D01*
X66757831Y-35239592D01*
X66758278Y-35235504D01*
X66759726Y-35184266D01*
X66765861Y-35166265D01*
X66768366Y-35143403D01*
X66782335Y-35117940D01*
X66789606Y-35096612D01*
X66802404Y-35081359D01*
X66814909Y-35058567D01*
X66835186Y-35042292D01*
X66847984Y-35027041D01*
X66867723Y-35016178D01*
X66890374Y-34997999D01*
X66912453Y-34991563D01*
X66929114Y-34982395D01*
X66979305Y-34972077D01*
X66983273Y-34970921D01*
X67082518Y-34962238D01*
X67159711Y-34955484D01*
X67159717Y-34955484D01*
X67162588Y-34955233D01*
X67166676Y-34955680D01*
G37*
G36*
X69264746Y-34284186D02*
G01*
X69271997Y-34286336D01*
X69276305Y-34286525D01*
X69334671Y-34304928D01*
X69399990Y-34324304D01*
X69403876Y-34326749D01*
X69405164Y-34327155D01*
X69455828Y-34359431D01*
X69519396Y-34399422D01*
X69569773Y-34455031D01*
X69610398Y-34499365D01*
X69611021Y-34500563D01*
X69614107Y-34503969D01*
X69644571Y-34565013D01*
X69672786Y-34619213D01*
X69673717Y-34623413D01*
X69677100Y-34630192D01*
X69702461Y-34751086D01*
X69758240Y-35388650D01*
X69754258Y-35512111D01*
X69752105Y-35519366D01*
X69751918Y-35523670D01*
X69733531Y-35581982D01*
X69714140Y-35647355D01*
X69711692Y-35651244D01*
X69711288Y-35652529D01*
X69679091Y-35703067D01*
X69639022Y-35766761D01*
X69583324Y-35817218D01*
X69539078Y-35857763D01*
X69537881Y-35858385D01*
X69534475Y-35861472D01*
X69473406Y-35891948D01*
X69419230Y-35920151D01*
X69415030Y-35921081D01*
X69408252Y-35924465D01*
X69287358Y-35949826D01*
X68450555Y-36023037D01*
X68327094Y-36019054D01*
X68319838Y-36016901D01*
X68315534Y-36016714D01*
X68257205Y-35998322D01*
X68191850Y-35978936D01*
X68187961Y-35976489D01*
X68186675Y-35976084D01*
X68136057Y-35943836D01*
X68072444Y-35903818D01*
X68022073Y-35848216D01*
X67981441Y-35803874D01*
X67980816Y-35802675D01*
X67977733Y-35799271D01*
X67947279Y-35738248D01*
X67919053Y-35684026D01*
X67918121Y-35679823D01*
X67914740Y-35673048D01*
X67889379Y-35552154D01*
X67833600Y-34914590D01*
X67837582Y-34791129D01*
X67839732Y-34783877D01*
X67839921Y-34779569D01*
X67858329Y-34721186D01*
X67877700Y-34655885D01*
X67880144Y-34651999D01*
X67880551Y-34650710D01*
X67912877Y-34599966D01*
X67952818Y-34536479D01*
X68008331Y-34486188D01*
X68052761Y-34445476D01*
X68053962Y-34444850D01*
X68057365Y-34441768D01*
X68118362Y-34411326D01*
X68172609Y-34383088D01*
X68176813Y-34382155D01*
X68183588Y-34378775D01*
X68304482Y-34353414D01*
X69141285Y-34280203D01*
X69264746Y-34284186D01*
G37*
G36*
X16608956Y-34202865D02*
G01*
X16769000Y-34274121D01*
X16910731Y-34377095D01*
X17027956Y-34507286D01*
X17115551Y-34659005D01*
X17169688Y-34825620D01*
X17188000Y-34999850D01*
X17169688Y-35174080D01*
X17115551Y-35340695D01*
X17027956Y-35492414D01*
X16910731Y-35622605D01*
X16769000Y-35725579D01*
X16608956Y-35796835D01*
X16437595Y-35833259D01*
X16262405Y-35833259D01*
X16091044Y-35796835D01*
X15931000Y-35725579D01*
X15789269Y-35622605D01*
X15672044Y-35492414D01*
X15584449Y-35340695D01*
X15530312Y-35174080D01*
X15512000Y-34999850D01*
X15530312Y-34825620D01*
X15584449Y-34659005D01*
X15672044Y-34507286D01*
X15789269Y-34377095D01*
X15931000Y-34274121D01*
X16091044Y-34202865D01*
X16262405Y-34166441D01*
X16437595Y-34166441D01*
X16608956Y-34202865D01*
G37*
G36*
X31848956Y-34202865D02*
G01*
X32009000Y-34274121D01*
X32150731Y-34377095D01*
X32267956Y-34507286D01*
X32355551Y-34659005D01*
X32409688Y-34825620D01*
X32428000Y-34999850D01*
X32409688Y-35174080D01*
X32355551Y-35340695D01*
X32267956Y-35492414D01*
X32150731Y-35622605D01*
X32009000Y-35725579D01*
X31848956Y-35796835D01*
X31677595Y-35833259D01*
X31502405Y-35833259D01*
X31331044Y-35796835D01*
X31171000Y-35725579D01*
X31029269Y-35622605D01*
X30912044Y-35492414D01*
X30824449Y-35340695D01*
X30770312Y-35174080D01*
X30752000Y-34999850D01*
X30770312Y-34825620D01*
X30824449Y-34659005D01*
X30912044Y-34507286D01*
X31029269Y-34377095D01*
X31171000Y-34274121D01*
X31331044Y-34202865D01*
X31502405Y-34166441D01*
X31677595Y-34166441D01*
X31848956Y-34202865D01*
G37*
G36*
X74297906Y-33955936D02*
G01*
X74305157Y-33958086D01*
X74309465Y-33958275D01*
X74367831Y-33976678D01*
X74433150Y-33996054D01*
X74437036Y-33998499D01*
X74438324Y-33998905D01*
X74488988Y-34031181D01*
X74552556Y-34071172D01*
X74602933Y-34126781D01*
X74643558Y-34171115D01*
X74644181Y-34172313D01*
X74647267Y-34175719D01*
X74677731Y-34236763D01*
X74705946Y-34290963D01*
X74706877Y-34295163D01*
X74710260Y-34301942D01*
X74735621Y-34422836D01*
X74791400Y-35060400D01*
X74787418Y-35183861D01*
X74785265Y-35191116D01*
X74785078Y-35195420D01*
X74766691Y-35253732D01*
X74747300Y-35319105D01*
X74744852Y-35322994D01*
X74744448Y-35324279D01*
X74712251Y-35374817D01*
X74672182Y-35438511D01*
X74616484Y-35488968D01*
X74572238Y-35529513D01*
X74571041Y-35530135D01*
X74567635Y-35533222D01*
X74506566Y-35563698D01*
X74452390Y-35591901D01*
X74448190Y-35592831D01*
X74441412Y-35596215D01*
X74320518Y-35621576D01*
X73483715Y-35694787D01*
X73360254Y-35690804D01*
X73352998Y-35688651D01*
X73348694Y-35688464D01*
X73290365Y-35670072D01*
X73225010Y-35650686D01*
X73221121Y-35648239D01*
X73219835Y-35647834D01*
X73169217Y-35615586D01*
X73105604Y-35575568D01*
X73055233Y-35519966D01*
X73014601Y-35475624D01*
X73013976Y-35474425D01*
X73010893Y-35471021D01*
X72980439Y-35409998D01*
X72952213Y-35355776D01*
X72951281Y-35351573D01*
X72947900Y-35344798D01*
X72922539Y-35223904D01*
X72866760Y-34586340D01*
X72870742Y-34462879D01*
X72872892Y-34455627D01*
X72873081Y-34451319D01*
X72891489Y-34392936D01*
X72910860Y-34327635D01*
X72913304Y-34323749D01*
X72913711Y-34322460D01*
X72946037Y-34271716D01*
X72985978Y-34208229D01*
X73041491Y-34157938D01*
X73085921Y-34117226D01*
X73087122Y-34116600D01*
X73090525Y-34113518D01*
X73151522Y-34083076D01*
X73205769Y-34054838D01*
X73209973Y-34053905D01*
X73216748Y-34050525D01*
X73337642Y-34025164D01*
X74174445Y-33951953D01*
X74297906Y-33955936D01*
G37*
G36*
X75591676Y-34330680D02*
G01*
X75642912Y-34332128D01*
X75660910Y-34338263D01*
X75683777Y-34340768D01*
X75709245Y-34354740D01*
X75730564Y-34362008D01*
X75745809Y-34374800D01*
X75768613Y-34387311D01*
X75784893Y-34407595D01*
X75800140Y-34420389D01*
X75810998Y-34440121D01*
X75829181Y-34462776D01*
X75835618Y-34484860D01*
X75844783Y-34501515D01*
X75855096Y-34551687D01*
X75856259Y-34555675D01*
X75906809Y-35133468D01*
X75906359Y-35137568D01*
X75904913Y-35188793D01*
X75898778Y-35206788D01*
X75896274Y-35229657D01*
X75882300Y-35255126D01*
X75875033Y-35276447D01*
X75862239Y-35291693D01*
X75849731Y-35314493D01*
X75829448Y-35330771D01*
X75816655Y-35346018D01*
X75796922Y-35356876D01*
X75774266Y-35375061D01*
X75752180Y-35381498D01*
X75735525Y-35390664D01*
X75685348Y-35400978D01*
X75681367Y-35402139D01*
X75502052Y-35417827D01*
X75497951Y-35417377D01*
X75446727Y-35415931D01*
X75428732Y-35409796D01*
X75405863Y-35407292D01*
X75380391Y-35393317D01*
X75359075Y-35386051D01*
X75343830Y-35373259D01*
X75321027Y-35360749D01*
X75304746Y-35340463D01*
X75289499Y-35327670D01*
X75278639Y-35307936D01*
X75260459Y-35285284D01*
X75254022Y-35263201D01*
X75244856Y-35246544D01*
X75234540Y-35196363D01*
X75233381Y-35192385D01*
X75186726Y-34659112D01*
X75183082Y-34617468D01*
X75183082Y-34617462D01*
X75182831Y-34614592D01*
X75183278Y-34610504D01*
X75184726Y-34559266D01*
X75190861Y-34541265D01*
X75193366Y-34518403D01*
X75207335Y-34492940D01*
X75214606Y-34471612D01*
X75227404Y-34456359D01*
X75239909Y-34433567D01*
X75260186Y-34417292D01*
X75272984Y-34402041D01*
X75292723Y-34391178D01*
X75315374Y-34372999D01*
X75337453Y-34366563D01*
X75354114Y-34357395D01*
X75404305Y-34347077D01*
X75408273Y-34345921D01*
X75507518Y-34337238D01*
X75584711Y-34330484D01*
X75584717Y-34330484D01*
X75587588Y-34330233D01*
X75591676Y-34330680D01*
G37*
G36*
X77689746Y-33659186D02*
G01*
X77696997Y-33661336D01*
X77701305Y-33661525D01*
X77759671Y-33679928D01*
X77824990Y-33699304D01*
X77828876Y-33701749D01*
X77830164Y-33702155D01*
X77880828Y-33734431D01*
X77944396Y-33774422D01*
X77994773Y-33830031D01*
X78035398Y-33874365D01*
X78036021Y-33875563D01*
X78039107Y-33878969D01*
X78069571Y-33940013D01*
X78097786Y-33994213D01*
X78098717Y-33998413D01*
X78102100Y-34005192D01*
X78127461Y-34126086D01*
X78183240Y-34763650D01*
X78179258Y-34887111D01*
X78177105Y-34894366D01*
X78176918Y-34898670D01*
X78158531Y-34956982D01*
X78139140Y-35022355D01*
X78136692Y-35026244D01*
X78136288Y-35027529D01*
X78104091Y-35078067D01*
X78064022Y-35141761D01*
X78008324Y-35192218D01*
X77964078Y-35232763D01*
X77962881Y-35233385D01*
X77959475Y-35236472D01*
X77898406Y-35266948D01*
X77844230Y-35295151D01*
X77840030Y-35296081D01*
X77833252Y-35299465D01*
X77712358Y-35324826D01*
X76875555Y-35398037D01*
X76752094Y-35394054D01*
X76744838Y-35391901D01*
X76740534Y-35391714D01*
X76682205Y-35373322D01*
X76616850Y-35353936D01*
X76612961Y-35351489D01*
X76611675Y-35351084D01*
X76561057Y-35318836D01*
X76497444Y-35278818D01*
X76447073Y-35223216D01*
X76406441Y-35178874D01*
X76405816Y-35177675D01*
X76402733Y-35174271D01*
X76372279Y-35113248D01*
X76344053Y-35059026D01*
X76343121Y-35054823D01*
X76339740Y-35048048D01*
X76314379Y-34927154D01*
X76258600Y-34289590D01*
X76262582Y-34166129D01*
X76264732Y-34158877D01*
X76264921Y-34154569D01*
X76283329Y-34096186D01*
X76302700Y-34030885D01*
X76305144Y-34026999D01*
X76305551Y-34025710D01*
X76337877Y-33974966D01*
X76377818Y-33911479D01*
X76433331Y-33861188D01*
X76477761Y-33820476D01*
X76478962Y-33819850D01*
X76482365Y-33816768D01*
X76543362Y-33786326D01*
X76597609Y-33758088D01*
X76601813Y-33757155D01*
X76608588Y-33753775D01*
X76729482Y-33728414D01*
X77566285Y-33655203D01*
X77689746Y-33659186D01*
G37*
G36*
X16608956Y-31662865D02*
G01*
X16769000Y-31734121D01*
X16910731Y-31837095D01*
X17027956Y-31967286D01*
X17115551Y-32119005D01*
X17169688Y-32285620D01*
X17188000Y-32459850D01*
X17169688Y-32634080D01*
X17115551Y-32800695D01*
X17027956Y-32952414D01*
X16910731Y-33082605D01*
X16769000Y-33185579D01*
X16608956Y-33256835D01*
X16437595Y-33293259D01*
X16262405Y-33293259D01*
X16091044Y-33256835D01*
X15931000Y-33185579D01*
X15789269Y-33082605D01*
X15672044Y-32952414D01*
X15584449Y-32800695D01*
X15530312Y-32634080D01*
X15512000Y-32459850D01*
X15530312Y-32285620D01*
X15584449Y-32119005D01*
X15672044Y-31967286D01*
X15789269Y-31837095D01*
X15931000Y-31734121D01*
X16091044Y-31662865D01*
X16262405Y-31626441D01*
X16437595Y-31626441D01*
X16608956Y-31662865D01*
G37*
G36*
X31848956Y-31662865D02*
G01*
X32009000Y-31734121D01*
X32150731Y-31837095D01*
X32267956Y-31967286D01*
X32355551Y-32119005D01*
X32409688Y-32285620D01*
X32428000Y-32459850D01*
X32409688Y-32634080D01*
X32355551Y-32800695D01*
X32267956Y-32952414D01*
X32150731Y-33082605D01*
X32009000Y-33185579D01*
X31848956Y-33256835D01*
X31677595Y-33293259D01*
X31502405Y-33293259D01*
X31331044Y-33256835D01*
X31171000Y-33185579D01*
X31029269Y-33082605D01*
X30912044Y-32952414D01*
X30824449Y-32800695D01*
X30770312Y-32634080D01*
X30752000Y-32459850D01*
X30770312Y-32285620D01*
X30824449Y-32119005D01*
X30912044Y-31967286D01*
X31029269Y-31837095D01*
X31171000Y-31734121D01*
X31331044Y-31662865D01*
X31502405Y-31626441D01*
X31677595Y-31626441D01*
X31848956Y-31662865D01*
G37*
G36*
X87985381Y-32084939D02*
G01*
X88021157Y-32084939D01*
X88050235Y-32093477D01*
X88079296Y-32097303D01*
X88118332Y-32113472D01*
X88157708Y-32125034D01*
X88178491Y-32138390D01*
X88199783Y-32147210D01*
X88238798Y-32177147D01*
X88277430Y-32201975D01*
X88289883Y-32216347D01*
X88303249Y-32226603D01*
X88337899Y-32271760D01*
X88370627Y-32309530D01*
X88376134Y-32321588D01*
X88382638Y-32330065D01*
X88408322Y-32392072D01*
X88429746Y-32438984D01*
X88430805Y-32446350D01*
X88432546Y-32450553D01*
X88444880Y-32544240D01*
X88450000Y-32579850D01*
X88444879Y-32615462D01*
X88432546Y-32709146D01*
X88430805Y-32713348D01*
X88429746Y-32720716D01*
X88408321Y-32767630D01*
X88382639Y-32829633D01*
X88376134Y-32838109D01*
X88370627Y-32850170D01*
X88337887Y-32887953D01*
X88303247Y-32933097D01*
X88289887Y-32943348D01*
X88277430Y-32957725D01*
X88238788Y-32982558D01*
X88199783Y-33012489D01*
X88178496Y-33021306D01*
X88157708Y-33034666D01*
X88118323Y-33046230D01*
X88079296Y-33062396D01*
X88050241Y-33066221D01*
X88021157Y-33074761D01*
X87985374Y-33074761D01*
X87950000Y-33079418D01*
X87914626Y-33074761D01*
X87878843Y-33074761D01*
X87849759Y-33066221D01*
X87820703Y-33062396D01*
X87781672Y-33046229D01*
X87742292Y-33034666D01*
X87721505Y-33021307D01*
X87700216Y-33012489D01*
X87661204Y-32982554D01*
X87622570Y-32957725D01*
X87610114Y-32943350D01*
X87596752Y-32933097D01*
X87562103Y-32887943D01*
X87529373Y-32850170D01*
X87523866Y-32838112D01*
X87517360Y-32829633D01*
X87491668Y-32767607D01*
X87470254Y-32720716D01*
X87469195Y-32713352D01*
X87467453Y-32709146D01*
X87455108Y-32615379D01*
X87450000Y-32579850D01*
X87455108Y-32544323D01*
X87467453Y-32450553D01*
X87469195Y-32446346D01*
X87470254Y-32438984D01*
X87491666Y-32392095D01*
X87517361Y-32330065D01*
X87523867Y-32321585D01*
X87529373Y-32309530D01*
X87562089Y-32271773D01*
X87596751Y-32226601D01*
X87610120Y-32216341D01*
X87622570Y-32201975D01*
X87661192Y-32177153D01*
X87700215Y-32147211D01*
X87721508Y-32138391D01*
X87742292Y-32125034D01*
X87781665Y-32113472D01*
X87820703Y-32097303D01*
X87849765Y-32093476D01*
X87878843Y-32084939D01*
X87914618Y-32084939D01*
X87950000Y-32080281D01*
X87985381Y-32084939D01*
G37*
G36*
X25503334Y-31196357D02*
G01*
X25538329Y-31196357D01*
X25566771Y-31204708D01*
X25595069Y-31208434D01*
X25633082Y-31224179D01*
X25671602Y-31235490D01*
X25691933Y-31248556D01*
X25712664Y-31257143D01*
X25750651Y-31286292D01*
X25788451Y-31310584D01*
X25800635Y-31324646D01*
X25813642Y-31334626D01*
X25847357Y-31378565D01*
X25879411Y-31415557D01*
X25884805Y-31427368D01*
X25891125Y-31435605D01*
X25916077Y-31495845D01*
X25937112Y-31541905D01*
X25938151Y-31549138D01*
X25939834Y-31553199D01*
X25951756Y-31643764D01*
X25956879Y-31679390D01*
X25951756Y-31715018D01*
X25939834Y-31805580D01*
X25938152Y-31809640D01*
X25937112Y-31816875D01*
X25916075Y-31862939D01*
X25891125Y-31923175D01*
X25884805Y-31931410D01*
X25879411Y-31943223D01*
X25847353Y-31980218D01*
X25813642Y-32024153D01*
X25800638Y-32034130D01*
X25788451Y-32048196D01*
X25750643Y-32072493D01*
X25712664Y-32101636D01*
X25691937Y-32110220D01*
X25671602Y-32123290D01*
X25633073Y-32134603D01*
X25595069Y-32150345D01*
X25566777Y-32154069D01*
X25538329Y-32162423D01*
X25503326Y-32162423D01*
X25468879Y-32166958D01*
X25434432Y-32162423D01*
X25399429Y-32162423D01*
X25370980Y-32154069D01*
X25342688Y-32150345D01*
X25304680Y-32134602D01*
X25266156Y-32123290D01*
X25245821Y-32110222D01*
X25225093Y-32101636D01*
X25187107Y-32072489D01*
X25149307Y-32048196D01*
X25137121Y-32034133D01*
X25124115Y-32024153D01*
X25090395Y-31980208D01*
X25058347Y-31943223D01*
X25052954Y-31931414D01*
X25046632Y-31923175D01*
X25021671Y-31862915D01*
X25000646Y-31816875D01*
X24999606Y-31809644D01*
X24997923Y-31805580D01*
X24985989Y-31714936D01*
X24980879Y-31679390D01*
X24985989Y-31643846D01*
X24997923Y-31553199D01*
X24999606Y-31549134D01*
X25000646Y-31541905D01*
X25021669Y-31495869D01*
X25046632Y-31435605D01*
X25052954Y-31427365D01*
X25058347Y-31415557D01*
X25090391Y-31378575D01*
X25124115Y-31334626D01*
X25137123Y-31324644D01*
X25149307Y-31310584D01*
X25187103Y-31286293D01*
X25225094Y-31257143D01*
X25245824Y-31248556D01*
X25266156Y-31235490D01*
X25304673Y-31224180D01*
X25342688Y-31208434D01*
X25370986Y-31204708D01*
X25399429Y-31196357D01*
X25434424Y-31196357D01*
X25468879Y-31191821D01*
X25503334Y-31196357D01*
G37*
G36*
X91788880Y-30337713D02*
G01*
X91821842Y-30359737D01*
X92540263Y-31078158D01*
X92562287Y-31111120D01*
X92570020Y-31150000D01*
X92562287Y-31188880D01*
X92540263Y-31221842D01*
X91821842Y-31940263D01*
X91788880Y-31962287D01*
X91750000Y-31970020D01*
X91711120Y-31962287D01*
X91678158Y-31940263D01*
X90959737Y-31221842D01*
X90937713Y-31188880D01*
X90929980Y-31150000D01*
X90937713Y-31111120D01*
X90959737Y-31078158D01*
X91678158Y-30359737D01*
X91711120Y-30337713D01*
X91750000Y-30329980D01*
X91788880Y-30337713D01*
G37*
G36*
X16608956Y-29122865D02*
G01*
X16769000Y-29194121D01*
X16910731Y-29297095D01*
X17027956Y-29427286D01*
X17115551Y-29579005D01*
X17169688Y-29745620D01*
X17188000Y-29919850D01*
X17169688Y-30094080D01*
X17115551Y-30260695D01*
X17027956Y-30412414D01*
X16910731Y-30542605D01*
X16769000Y-30645579D01*
X16608956Y-30716835D01*
X16437595Y-30753259D01*
X16262405Y-30753259D01*
X16091044Y-30716835D01*
X15931000Y-30645579D01*
X15789269Y-30542605D01*
X15672044Y-30412414D01*
X15584449Y-30260695D01*
X15530312Y-30094080D01*
X15512000Y-29919850D01*
X15530312Y-29745620D01*
X15584449Y-29579005D01*
X15672044Y-29427286D01*
X15789269Y-29297095D01*
X15931000Y-29194121D01*
X16091044Y-29122865D01*
X16262405Y-29086441D01*
X16437595Y-29086441D01*
X16608956Y-29122865D01*
G37*
G36*
X31848956Y-29122865D02*
G01*
X32009000Y-29194121D01*
X32150731Y-29297095D01*
X32267956Y-29427286D01*
X32355551Y-29579005D01*
X32409688Y-29745620D01*
X32428000Y-29919850D01*
X32409688Y-30094080D01*
X32355551Y-30260695D01*
X32267956Y-30412414D01*
X32150731Y-30542605D01*
X32009000Y-30645579D01*
X31848956Y-30716835D01*
X31677595Y-30753259D01*
X31502405Y-30753259D01*
X31331044Y-30716835D01*
X31171000Y-30645579D01*
X31029269Y-30542605D01*
X30912044Y-30412414D01*
X30824449Y-30260695D01*
X30770312Y-30094080D01*
X30752000Y-29919850D01*
X30770312Y-29745620D01*
X30824449Y-29579005D01*
X30912044Y-29427286D01*
X31029269Y-29297095D01*
X31171000Y-29194121D01*
X31331044Y-29122865D01*
X31502405Y-29086441D01*
X31677595Y-29086441D01*
X31848956Y-29122865D01*
G37*
G36*
X25503334Y-28196357D02*
G01*
X25538329Y-28196357D01*
X25566771Y-28204708D01*
X25595069Y-28208434D01*
X25633082Y-28224179D01*
X25671602Y-28235490D01*
X25691933Y-28248556D01*
X25712664Y-28257143D01*
X25750651Y-28286292D01*
X25788451Y-28310584D01*
X25800635Y-28324646D01*
X25813642Y-28334626D01*
X25847357Y-28378565D01*
X25879411Y-28415557D01*
X25884805Y-28427368D01*
X25891125Y-28435605D01*
X25916077Y-28495845D01*
X25937112Y-28541905D01*
X25938151Y-28549138D01*
X25939834Y-28553199D01*
X25951756Y-28643764D01*
X25956879Y-28679390D01*
X25951756Y-28715018D01*
X25939834Y-28805580D01*
X25938152Y-28809640D01*
X25937112Y-28816875D01*
X25916075Y-28862939D01*
X25891125Y-28923175D01*
X25884805Y-28931410D01*
X25879411Y-28943223D01*
X25847353Y-28980218D01*
X25813642Y-29024153D01*
X25800638Y-29034130D01*
X25788451Y-29048196D01*
X25750643Y-29072493D01*
X25712664Y-29101636D01*
X25691937Y-29110220D01*
X25671602Y-29123290D01*
X25633073Y-29134603D01*
X25595069Y-29150345D01*
X25566777Y-29154069D01*
X25538329Y-29162423D01*
X25503326Y-29162423D01*
X25468879Y-29166958D01*
X25434432Y-29162423D01*
X25399429Y-29162423D01*
X25370980Y-29154069D01*
X25342688Y-29150345D01*
X25304680Y-29134602D01*
X25266156Y-29123290D01*
X25245821Y-29110222D01*
X25225093Y-29101636D01*
X25187107Y-29072489D01*
X25149307Y-29048196D01*
X25137121Y-29034133D01*
X25124115Y-29024153D01*
X25090395Y-28980208D01*
X25058347Y-28943223D01*
X25052954Y-28931414D01*
X25046632Y-28923175D01*
X25021671Y-28862915D01*
X25000646Y-28816875D01*
X24999606Y-28809644D01*
X24997923Y-28805580D01*
X24985989Y-28714936D01*
X24980879Y-28679390D01*
X24985989Y-28643846D01*
X24997923Y-28553199D01*
X24999606Y-28549134D01*
X25000646Y-28541905D01*
X25021669Y-28495869D01*
X25046632Y-28435605D01*
X25052954Y-28427365D01*
X25058347Y-28415557D01*
X25090391Y-28378575D01*
X25124115Y-28334626D01*
X25137123Y-28324644D01*
X25149307Y-28310584D01*
X25187103Y-28286293D01*
X25225094Y-28257143D01*
X25245824Y-28248556D01*
X25266156Y-28235490D01*
X25304673Y-28224180D01*
X25342688Y-28208434D01*
X25370986Y-28204708D01*
X25399429Y-28196357D01*
X25434424Y-28196357D01*
X25468879Y-28191821D01*
X25503334Y-28196357D01*
G37*
G36*
X16608956Y-26582865D02*
G01*
X16769000Y-26654121D01*
X16910731Y-26757095D01*
X17027956Y-26887286D01*
X17115551Y-27039005D01*
X17169688Y-27205620D01*
X17188000Y-27379850D01*
X17169688Y-27554080D01*
X17115551Y-27720695D01*
X17027956Y-27872414D01*
X16910731Y-28002605D01*
X16769000Y-28105579D01*
X16608956Y-28176835D01*
X16437595Y-28213259D01*
X16262405Y-28213259D01*
X16091044Y-28176835D01*
X15931000Y-28105579D01*
X15789269Y-28002605D01*
X15672044Y-27872414D01*
X15584449Y-27720695D01*
X15530312Y-27554080D01*
X15512000Y-27379850D01*
X15530312Y-27205620D01*
X15584449Y-27039005D01*
X15672044Y-26887286D01*
X15789269Y-26757095D01*
X15931000Y-26654121D01*
X16091044Y-26582865D01*
X16262405Y-26546441D01*
X16437595Y-26546441D01*
X16608956Y-26582865D01*
G37*
G36*
X31848956Y-26582865D02*
G01*
X32009000Y-26654121D01*
X32150731Y-26757095D01*
X32267956Y-26887286D01*
X32355551Y-27039005D01*
X32409688Y-27205620D01*
X32428000Y-27379850D01*
X32409688Y-27554080D01*
X32355551Y-27720695D01*
X32267956Y-27872414D01*
X32150731Y-28002605D01*
X32009000Y-28105579D01*
X31848956Y-28176835D01*
X31677595Y-28213259D01*
X31502405Y-28213259D01*
X31331044Y-28176835D01*
X31171000Y-28105579D01*
X31029269Y-28002605D01*
X30912044Y-27872414D01*
X30824449Y-27720695D01*
X30770312Y-27554080D01*
X30752000Y-27379850D01*
X30770312Y-27205620D01*
X30824449Y-27039005D01*
X30912044Y-26887286D01*
X31029269Y-26757095D01*
X31171000Y-26654121D01*
X31331044Y-26582865D01*
X31502405Y-26546441D01*
X31677595Y-26546441D01*
X31848956Y-26582865D01*
G37*
G36*
X49088880Y-25537713D02*
G01*
X49121842Y-25559737D01*
X49840263Y-26278158D01*
X49862287Y-26311120D01*
X49870020Y-26350000D01*
X49862287Y-26388880D01*
X49840263Y-26421842D01*
X49121842Y-27140263D01*
X49088880Y-27162287D01*
X49050000Y-27170020D01*
X49011120Y-27162287D01*
X48978158Y-27140263D01*
X48259737Y-26421842D01*
X48237713Y-26388880D01*
X48229980Y-26350000D01*
X48237713Y-26311120D01*
X48259737Y-26278158D01*
X48978158Y-25559737D01*
X49011120Y-25537713D01*
X49050000Y-25529980D01*
X49088880Y-25537713D01*
G37*
G36*
X17164542Y-24004743D02*
G01*
X17176870Y-24012980D01*
X17185107Y-24025308D01*
X17188000Y-24039850D01*
X17188000Y-25639850D01*
X17185107Y-25654392D01*
X17176870Y-25666720D01*
X17164542Y-25674957D01*
X17150000Y-25677850D01*
X15550000Y-25677850D01*
X15535458Y-25674957D01*
X15523130Y-25666720D01*
X15514893Y-25654392D01*
X15512000Y-25639850D01*
X15512000Y-24039850D01*
X15514893Y-24025308D01*
X15523130Y-24012980D01*
X15535458Y-24004743D01*
X15550000Y-24001850D01*
X17150000Y-24001850D01*
X17164542Y-24004743D01*
G37*
G36*
X31848956Y-24042865D02*
G01*
X32009000Y-24114121D01*
X32150731Y-24217095D01*
X32267956Y-24347286D01*
X32355551Y-24499005D01*
X32409688Y-24665620D01*
X32428000Y-24839850D01*
X32409688Y-25014080D01*
X32355551Y-25180695D01*
X32267956Y-25332414D01*
X32150731Y-25462605D01*
X32009000Y-25565579D01*
X31848956Y-25636835D01*
X31677595Y-25673259D01*
X31502405Y-25673259D01*
X31331044Y-25636835D01*
X31171000Y-25565579D01*
X31029269Y-25462605D01*
X30912044Y-25332414D01*
X30824449Y-25180695D01*
X30770312Y-25014080D01*
X30752000Y-24839850D01*
X30770312Y-24665620D01*
X30824449Y-24499005D01*
X30912044Y-24347286D01*
X31029269Y-24217095D01*
X31171000Y-24114121D01*
X31331044Y-24042865D01*
X31502405Y-24006441D01*
X31677595Y-24006441D01*
X31848956Y-24042865D01*
G37*
G36*
X92788880Y-23237713D02*
G01*
X92821842Y-23259737D01*
X93540263Y-23978158D01*
X93562287Y-24011120D01*
X93570020Y-24050000D01*
X93562287Y-24088880D01*
X93540263Y-24121842D01*
X92821842Y-24840263D01*
X92788880Y-24862287D01*
X92750000Y-24870020D01*
X92711120Y-24862287D01*
X92678158Y-24840263D01*
X91959737Y-24121842D01*
X91937713Y-24088880D01*
X91929980Y-24050000D01*
X91937713Y-24011120D01*
X91959737Y-23978158D01*
X92678158Y-23259737D01*
X92711120Y-23237713D01*
X92750000Y-23229980D01*
X92788880Y-23237713D01*
G37*
G36*
X21014542Y-20494743D02*
G01*
X21026870Y-20502980D01*
X21035107Y-20515308D01*
X21038000Y-20529850D01*
X21038000Y-22229850D01*
X21035107Y-22244392D01*
X21026870Y-22256720D01*
X21014542Y-22264957D01*
X21000000Y-22267850D01*
X19300000Y-22267850D01*
X19285458Y-22264957D01*
X19273130Y-22256720D01*
X19264893Y-22244392D01*
X19262000Y-22229850D01*
X19262000Y-20529850D01*
X19264893Y-20515308D01*
X19273130Y-20502980D01*
X19285458Y-20494743D01*
X19300000Y-20491850D01*
X21000000Y-20491850D01*
X21014542Y-20494743D01*
G37*
G36*
X22964407Y-20535312D02*
G01*
X23134000Y-20610819D01*
X23284188Y-20719937D01*
X23408407Y-20857897D01*
X23501228Y-21018668D01*
X23558595Y-21195224D01*
X23578000Y-21379850D01*
X23558595Y-21564476D01*
X23501228Y-21741032D01*
X23408407Y-21901803D01*
X23284188Y-22039763D01*
X23134000Y-22148881D01*
X22964407Y-22224388D01*
X22782821Y-22262985D01*
X22597179Y-22262985D01*
X22415593Y-22224388D01*
X22246000Y-22148881D01*
X22095812Y-22039763D01*
X21971593Y-21901803D01*
X21878772Y-21741032D01*
X21821405Y-21564476D01*
X21802000Y-21379850D01*
X21821405Y-21195224D01*
X21878772Y-21018668D01*
X21971593Y-20857897D01*
X22095812Y-20719937D01*
X22246000Y-20610819D01*
X22415593Y-20535312D01*
X22597179Y-20496715D01*
X22782821Y-20496715D01*
X22964407Y-20535312D01*
G37*
G36*
X25504407Y-20535312D02*
G01*
X25674000Y-20610819D01*
X25824188Y-20719937D01*
X25948407Y-20857897D01*
X26041228Y-21018668D01*
X26098595Y-21195224D01*
X26118000Y-21379850D01*
X26098595Y-21564476D01*
X26041228Y-21741032D01*
X25948407Y-21901803D01*
X25824188Y-22039763D01*
X25674000Y-22148881D01*
X25504407Y-22224388D01*
X25322821Y-22262985D01*
X25137179Y-22262985D01*
X24955593Y-22224388D01*
X24786000Y-22148881D01*
X24635812Y-22039763D01*
X24511593Y-21901803D01*
X24418772Y-21741032D01*
X24361405Y-21564476D01*
X24342000Y-21379850D01*
X24361405Y-21195224D01*
X24418772Y-21018668D01*
X24511593Y-20857897D01*
X24635812Y-20719937D01*
X24786000Y-20610819D01*
X24955593Y-20535312D01*
X25137179Y-20496715D01*
X25322821Y-20496715D01*
X25504407Y-20535312D01*
G37*
G36*
X28044407Y-20535312D02*
G01*
X28214000Y-20610819D01*
X28364188Y-20719937D01*
X28488407Y-20857897D01*
X28581228Y-21018668D01*
X28638595Y-21195224D01*
X28658000Y-21379850D01*
X28638595Y-21564476D01*
X28581228Y-21741032D01*
X28488407Y-21901803D01*
X28364188Y-22039763D01*
X28214000Y-22148881D01*
X28044407Y-22224388D01*
X27862821Y-22262985D01*
X27677179Y-22262985D01*
X27495593Y-22224388D01*
X27326000Y-22148881D01*
X27175812Y-22039763D01*
X27051593Y-21901803D01*
X26958772Y-21741032D01*
X26901405Y-21564476D01*
X26882000Y-21379850D01*
X26901405Y-21195224D01*
X26958772Y-21018668D01*
X27051593Y-20857897D01*
X27175812Y-20719937D01*
X27326000Y-20610819D01*
X27495593Y-20535312D01*
X27677179Y-20496715D01*
X27862821Y-20496715D01*
X28044407Y-20535312D01*
G37*
G36*
X14688880Y-19037713D02*
G01*
X14721842Y-19059737D01*
X15440263Y-19778158D01*
X15462287Y-19811120D01*
X15470020Y-19850000D01*
X15462287Y-19888880D01*
X15440263Y-19921842D01*
X14721842Y-20640263D01*
X14688880Y-20662287D01*
X14650000Y-20670020D01*
X14611120Y-20662287D01*
X14578158Y-20640263D01*
X13859737Y-19921842D01*
X13837713Y-19888880D01*
X13829980Y-19850000D01*
X13837713Y-19811120D01*
X13859737Y-19778158D01*
X14578158Y-19059737D01*
X14611120Y-19037713D01*
X14650000Y-19029980D01*
X14688880Y-19037713D01*
G37*
G36*
X33188880Y-18367563D02*
G01*
X33221842Y-18389587D01*
X33940263Y-19108008D01*
X33962287Y-19140970D01*
X33970020Y-19179850D01*
X33962287Y-19218730D01*
X33940263Y-19251692D01*
X33221842Y-19970113D01*
X33188880Y-19992137D01*
X33150000Y-19999870D01*
X33111120Y-19992137D01*
X33078158Y-19970113D01*
X32359737Y-19251692D01*
X32337713Y-19218730D01*
X32329980Y-19179850D01*
X32337713Y-19140970D01*
X32359737Y-19108008D01*
X33078158Y-18389587D01*
X33111120Y-18367563D01*
X33150000Y-18359830D01*
X33188880Y-18367563D01*
G37*
G36*
X91688880Y-18337713D02*
G01*
X91721842Y-18359737D01*
X92440263Y-19078158D01*
X92462287Y-19111120D01*
X92470020Y-19150000D01*
X92462287Y-19188880D01*
X92440263Y-19221842D01*
X91721842Y-19940263D01*
X91688880Y-19962287D01*
X91650000Y-19970020D01*
X91611120Y-19962287D01*
X91578158Y-19940263D01*
X90859737Y-19221842D01*
X90837713Y-19188880D01*
X90829980Y-19150000D01*
X90837713Y-19111120D01*
X90859737Y-19078158D01*
X91578158Y-18359737D01*
X91611120Y-18337713D01*
X91650000Y-18329980D01*
X91688880Y-18337713D01*
G37*
G36*
X63996203Y-13467692D02*
G01*
X64003777Y-13469938D01*
X64008435Y-13470142D01*
X64071521Y-13490033D01*
X64139279Y-13510132D01*
X64143312Y-13512669D01*
X64144764Y-13513127D01*
X64201866Y-13549505D01*
X64265601Y-13589600D01*
X64316082Y-13645324D01*
X64361894Y-13695319D01*
X64362598Y-13696672D01*
X64365797Y-13700203D01*
X64397359Y-13763446D01*
X64427900Y-13822114D01*
X64428908Y-13826664D01*
X64432438Y-13833736D01*
X64459268Y-13961632D01*
X64518534Y-14639044D01*
X64514320Y-14769655D01*
X64512072Y-14777232D01*
X64511869Y-14781887D01*
X64491983Y-14844955D01*
X64471879Y-14912732D01*
X64469342Y-14916764D01*
X64468884Y-14918218D01*
X64432491Y-14975342D01*
X64392412Y-15039054D01*
X64336589Y-15089623D01*
X64286692Y-15135346D01*
X64285341Y-15136049D01*
X64281809Y-15139249D01*
X64218541Y-15170823D01*
X64159897Y-15201352D01*
X64155348Y-15202360D01*
X64148276Y-15205890D01*
X64020380Y-15232720D01*
X63243348Y-15300702D01*
X63112737Y-15296488D01*
X63105159Y-15294240D01*
X63100504Y-15294037D01*
X63037454Y-15274157D01*
X62969661Y-15254048D01*
X62965625Y-15251509D01*
X62964175Y-15251052D01*
X62907118Y-15214703D01*
X62843339Y-15174580D01*
X62792864Y-15118863D01*
X62747045Y-15068860D01*
X62746340Y-15067506D01*
X62743143Y-15063977D01*
X62711591Y-15000755D01*
X62681039Y-14942065D01*
X62680029Y-14937513D01*
X62676502Y-14930444D01*
X62649672Y-14802548D01*
X62590406Y-14125136D01*
X62594620Y-13994525D01*
X62596866Y-13986951D01*
X62597070Y-13982292D01*
X62616977Y-13919153D01*
X62637061Y-13851448D01*
X62639595Y-13847419D01*
X62640055Y-13845961D01*
X62676577Y-13788632D01*
X62716528Y-13725126D01*
X62772166Y-13674722D01*
X62822247Y-13628833D01*
X62823602Y-13628127D01*
X62827131Y-13624931D01*
X62890328Y-13593391D01*
X62949042Y-13562827D01*
X62953595Y-13561817D01*
X62960664Y-13558290D01*
X63088560Y-13531460D01*
X63865592Y-13463478D01*
X63996203Y-13467692D01*
G37*
G36*
X33088880Y-13637713D02*
G01*
X33121842Y-13659737D01*
X33840263Y-14378158D01*
X33862287Y-14411120D01*
X33870020Y-14450000D01*
X33862287Y-14488880D01*
X33840263Y-14521842D01*
X33121842Y-15240263D01*
X33088880Y-15262287D01*
X33050000Y-15270020D01*
X33011120Y-15262287D01*
X32978158Y-15240263D01*
X32259737Y-14521842D01*
X32237713Y-14488880D01*
X32229980Y-14450000D01*
X32237713Y-14411120D01*
X32259737Y-14378158D01*
X32978158Y-13659737D01*
X33011120Y-13637713D01*
X33050000Y-13629980D01*
X33088880Y-13637713D01*
G37*
G36*
X67587283Y-13153512D02*
G01*
X67594857Y-13155758D01*
X67599515Y-13155962D01*
X67662601Y-13175853D01*
X67730359Y-13195952D01*
X67734392Y-13198489D01*
X67735844Y-13198947D01*
X67792946Y-13235325D01*
X67856681Y-13275420D01*
X67907162Y-13331144D01*
X67952974Y-13381139D01*
X67953678Y-13382492D01*
X67956877Y-13386023D01*
X67988439Y-13449266D01*
X68018980Y-13507934D01*
X68019988Y-13512484D01*
X68023518Y-13519556D01*
X68050348Y-13647452D01*
X68109614Y-14324864D01*
X68105400Y-14455475D01*
X68103152Y-14463052D01*
X68102949Y-14467707D01*
X68083063Y-14530775D01*
X68062959Y-14598552D01*
X68060422Y-14602584D01*
X68059964Y-14604038D01*
X68023571Y-14661162D01*
X67983492Y-14724874D01*
X67927669Y-14775443D01*
X67877772Y-14821166D01*
X67876421Y-14821869D01*
X67872889Y-14825069D01*
X67809621Y-14856643D01*
X67750977Y-14887172D01*
X67746428Y-14888180D01*
X67739356Y-14891710D01*
X67611460Y-14918540D01*
X66834428Y-14986522D01*
X66703817Y-14982308D01*
X66696239Y-14980060D01*
X66691584Y-14979857D01*
X66628534Y-14959977D01*
X66560741Y-14939868D01*
X66556705Y-14937329D01*
X66555255Y-14936872D01*
X66498198Y-14900523D01*
X66434419Y-14860400D01*
X66383944Y-14804683D01*
X66338125Y-14754680D01*
X66337420Y-14753326D01*
X66334223Y-14749797D01*
X66302671Y-14686575D01*
X66272119Y-14627885D01*
X66271109Y-14623333D01*
X66267582Y-14616264D01*
X66240752Y-14488368D01*
X66181486Y-13810956D01*
X66185700Y-13680345D01*
X66187946Y-13672771D01*
X66188150Y-13668112D01*
X66208057Y-13604973D01*
X66228141Y-13537268D01*
X66230675Y-13533239D01*
X66231135Y-13531781D01*
X66267657Y-13474452D01*
X66307608Y-13410946D01*
X66363246Y-13360542D01*
X66413327Y-13314653D01*
X66414682Y-13313947D01*
X66418211Y-13310751D01*
X66481408Y-13279211D01*
X66540122Y-13248647D01*
X66544675Y-13247637D01*
X66551744Y-13244110D01*
X66679640Y-13217280D01*
X67456672Y-13149298D01*
X67587283Y-13153512D01*
G37*
G36*
X15621944Y-13231161D02*
G01*
X15682936Y-13271914D01*
X15723689Y-13332906D01*
X15738000Y-13404850D01*
X15738000Y-14429850D01*
X15723689Y-14501794D01*
X15682936Y-14562786D01*
X15621944Y-14603539D01*
X15550000Y-14617850D01*
X15250000Y-14617850D01*
X15178056Y-14603539D01*
X15117064Y-14562786D01*
X15076311Y-14501794D01*
X15062000Y-14429850D01*
X15062000Y-13404850D01*
X15076311Y-13332906D01*
X15117064Y-13271914D01*
X15178056Y-13231161D01*
X15250000Y-13216850D01*
X15550000Y-13216850D01*
X15621944Y-13231161D01*
G37*
G36*
X17521944Y-13231161D02*
G01*
X17582936Y-13271914D01*
X17623689Y-13332906D01*
X17638000Y-13404850D01*
X17638000Y-14429850D01*
X17623689Y-14501794D01*
X17582936Y-14562786D01*
X17521944Y-14603539D01*
X17450000Y-14617850D01*
X17150000Y-14617850D01*
X17078056Y-14603539D01*
X17017064Y-14562786D01*
X16976311Y-14501794D01*
X16962000Y-14429850D01*
X16962000Y-13404850D01*
X16976311Y-13332906D01*
X17017064Y-13271914D01*
X17078056Y-13231161D01*
X17150000Y-13216850D01*
X17450000Y-13216850D01*
X17521944Y-13231161D01*
G37*
G36*
X72221193Y-12767692D02*
G01*
X72228767Y-12769938D01*
X72233425Y-12770142D01*
X72296511Y-12790033D01*
X72364269Y-12810132D01*
X72368302Y-12812669D01*
X72369754Y-12813127D01*
X72426856Y-12849505D01*
X72490591Y-12889600D01*
X72541072Y-12945324D01*
X72586884Y-12995319D01*
X72587588Y-12996672D01*
X72590787Y-13000203D01*
X72622349Y-13063446D01*
X72652890Y-13122114D01*
X72653898Y-13126664D01*
X72657428Y-13133736D01*
X72684258Y-13261632D01*
X72743524Y-13939044D01*
X72739310Y-14069655D01*
X72737062Y-14077232D01*
X72736859Y-14081887D01*
X72716973Y-14144955D01*
X72696869Y-14212732D01*
X72694332Y-14216764D01*
X72693874Y-14218218D01*
X72657481Y-14275342D01*
X72617402Y-14339054D01*
X72561579Y-14389623D01*
X72511682Y-14435346D01*
X72510331Y-14436049D01*
X72506799Y-14439249D01*
X72443531Y-14470823D01*
X72384887Y-14501352D01*
X72380338Y-14502360D01*
X72373266Y-14505890D01*
X72245370Y-14532720D01*
X71468338Y-14600702D01*
X71337727Y-14596488D01*
X71330149Y-14594240D01*
X71325494Y-14594037D01*
X71262444Y-14574157D01*
X71194651Y-14554048D01*
X71190615Y-14551509D01*
X71189165Y-14551052D01*
X71132108Y-14514703D01*
X71068329Y-14474580D01*
X71017854Y-14418863D01*
X70972035Y-14368860D01*
X70971330Y-14367506D01*
X70968133Y-14363977D01*
X70936581Y-14300755D01*
X70906029Y-14242065D01*
X70905019Y-14237513D01*
X70901492Y-14230444D01*
X70874662Y-14102548D01*
X70815396Y-13425136D01*
X70819610Y-13294525D01*
X70821856Y-13286951D01*
X70822060Y-13282292D01*
X70841967Y-13219153D01*
X70862051Y-13151448D01*
X70864585Y-13147419D01*
X70865045Y-13145961D01*
X70901567Y-13088632D01*
X70941518Y-13025126D01*
X70997156Y-12974722D01*
X71047237Y-12928833D01*
X71048592Y-12928127D01*
X71052121Y-12924931D01*
X71115318Y-12893391D01*
X71174032Y-12862827D01*
X71178585Y-12861817D01*
X71185654Y-12858290D01*
X71313550Y-12831460D01*
X72090582Y-12763478D01*
X72221193Y-12767692D01*
G37*
G36*
X19690938Y-13399500D02*
G01*
X19695653Y-13401582D01*
X19698326Y-13401934D01*
X19731770Y-13417529D01*
X19787759Y-13442251D01*
X19862599Y-13517091D01*
X19887330Y-13573101D01*
X19902915Y-13606523D01*
X19903266Y-13609193D01*
X19905350Y-13613912D01*
X19913000Y-13679850D01*
X19913000Y-14179850D01*
X19905350Y-14245788D01*
X19903266Y-14250506D01*
X19902915Y-14253176D01*
X19887338Y-14286580D01*
X19862599Y-14342609D01*
X19787759Y-14417449D01*
X19731730Y-14442188D01*
X19698326Y-14457765D01*
X19695656Y-14458116D01*
X19690938Y-14460200D01*
X19625000Y-14467850D01*
X18675000Y-14467850D01*
X18609062Y-14460200D01*
X18604343Y-14458116D01*
X18601673Y-14457765D01*
X18568251Y-14442180D01*
X18512241Y-14417449D01*
X18437401Y-14342609D01*
X18412679Y-14286620D01*
X18397084Y-14253176D01*
X18396732Y-14250503D01*
X18394650Y-14245788D01*
X18387000Y-14179850D01*
X18387000Y-13679850D01*
X18394650Y-13613912D01*
X18396732Y-13609196D01*
X18397084Y-13606523D01*
X18412687Y-13573060D01*
X18437401Y-13517091D01*
X18512241Y-13442251D01*
X18568210Y-13417537D01*
X18601673Y-13401934D01*
X18604346Y-13401582D01*
X18609062Y-13399500D01*
X18675000Y-13391850D01*
X19625000Y-13391850D01*
X19690938Y-13399500D01*
G37*
G36*
X21665938Y-13349500D02*
G01*
X21670653Y-13351582D01*
X21673326Y-13351934D01*
X21706770Y-13367529D01*
X21762759Y-13392251D01*
X21837599Y-13467091D01*
X21862330Y-13523101D01*
X21877915Y-13556523D01*
X21878266Y-13559193D01*
X21880350Y-13563912D01*
X21888000Y-13629850D01*
X21888000Y-14154850D01*
X21880350Y-14220788D01*
X21878266Y-14225506D01*
X21877915Y-14228176D01*
X21862338Y-14261580D01*
X21837599Y-14317609D01*
X21762759Y-14392449D01*
X21706730Y-14417188D01*
X21673326Y-14432765D01*
X21670656Y-14433116D01*
X21665938Y-14435200D01*
X21600000Y-14442850D01*
X20700000Y-14442850D01*
X20634062Y-14435200D01*
X20629343Y-14433116D01*
X20626673Y-14432765D01*
X20593251Y-14417180D01*
X20537241Y-14392449D01*
X20462401Y-14317609D01*
X20437679Y-14261620D01*
X20422084Y-14228176D01*
X20421732Y-14225503D01*
X20419650Y-14220788D01*
X20412000Y-14154850D01*
X20412000Y-13629850D01*
X20419650Y-13563912D01*
X20421732Y-13559196D01*
X20422084Y-13556523D01*
X20437687Y-13523060D01*
X20462401Y-13467091D01*
X20537241Y-13392251D01*
X20593210Y-13367537D01*
X20626673Y-13351934D01*
X20629346Y-13351582D01*
X20634062Y-13349500D01*
X20700000Y-13341850D01*
X21600000Y-13341850D01*
X21665938Y-13349500D01*
G37*
G36*
X75812273Y-12453512D02*
G01*
X75819847Y-12455758D01*
X75824505Y-12455962D01*
X75887591Y-12475853D01*
X75955349Y-12495952D01*
X75959382Y-12498489D01*
X75960834Y-12498947D01*
X76017936Y-12535325D01*
X76081671Y-12575420D01*
X76132152Y-12631144D01*
X76177964Y-12681139D01*
X76178668Y-12682492D01*
X76181867Y-12686023D01*
X76213429Y-12749266D01*
X76243970Y-12807934D01*
X76244978Y-12812484D01*
X76248508Y-12819556D01*
X76275338Y-12947452D01*
X76334604Y-13624864D01*
X76330390Y-13755475D01*
X76328142Y-13763052D01*
X76327939Y-13767707D01*
X76308053Y-13830775D01*
X76287949Y-13898552D01*
X76285412Y-13902584D01*
X76284954Y-13904038D01*
X76248561Y-13961162D01*
X76208482Y-14024874D01*
X76152659Y-14075443D01*
X76102762Y-14121166D01*
X76101411Y-14121869D01*
X76097879Y-14125069D01*
X76034611Y-14156643D01*
X75975967Y-14187172D01*
X75971418Y-14188180D01*
X75964346Y-14191710D01*
X75836450Y-14218540D01*
X75059418Y-14286522D01*
X74928807Y-14282308D01*
X74921229Y-14280060D01*
X74916574Y-14279857D01*
X74853524Y-14259977D01*
X74785731Y-14239868D01*
X74781695Y-14237329D01*
X74780245Y-14236872D01*
X74723188Y-14200523D01*
X74659409Y-14160400D01*
X74608934Y-14104683D01*
X74563115Y-14054680D01*
X74562410Y-14053326D01*
X74559213Y-14049797D01*
X74527661Y-13986575D01*
X74497109Y-13927885D01*
X74496099Y-13923333D01*
X74492572Y-13916264D01*
X74465742Y-13788368D01*
X74406476Y-13110956D01*
X74410690Y-12980345D01*
X74412936Y-12972771D01*
X74413140Y-12968112D01*
X74433047Y-12904973D01*
X74453131Y-12837268D01*
X74455665Y-12833239D01*
X74456125Y-12831781D01*
X74492647Y-12774452D01*
X74532598Y-12710946D01*
X74588236Y-12660542D01*
X74638317Y-12614653D01*
X74639672Y-12613947D01*
X74643201Y-12610751D01*
X74706398Y-12579211D01*
X74765112Y-12548647D01*
X74769665Y-12547637D01*
X74776734Y-12544110D01*
X74904630Y-12517280D01*
X75681662Y-12449298D01*
X75812273Y-12453512D01*
G37*
G36*
X14090938Y-12999500D02*
G01*
X14095653Y-13001582D01*
X14098326Y-13001934D01*
X14131770Y-13017529D01*
X14187759Y-13042251D01*
X14262599Y-13117091D01*
X14287330Y-13173101D01*
X14302915Y-13206523D01*
X14303266Y-13209193D01*
X14305350Y-13213912D01*
X14313000Y-13279850D01*
X14313000Y-13779850D01*
X14305350Y-13845788D01*
X14303266Y-13850506D01*
X14302915Y-13853176D01*
X14287338Y-13886580D01*
X14262599Y-13942609D01*
X14187759Y-14017449D01*
X14131730Y-14042188D01*
X14098326Y-14057765D01*
X14095656Y-14058116D01*
X14090938Y-14060200D01*
X14025000Y-14067850D01*
X13075000Y-14067850D01*
X13009062Y-14060200D01*
X13004343Y-14058116D01*
X13001673Y-14057765D01*
X12968251Y-14042180D01*
X12912241Y-14017449D01*
X12837401Y-13942609D01*
X12812679Y-13886620D01*
X12797084Y-13853176D01*
X12796732Y-13850503D01*
X12794650Y-13845788D01*
X12787000Y-13779850D01*
X12787000Y-13279850D01*
X12794650Y-13213912D01*
X12796732Y-13209196D01*
X12797084Y-13206523D01*
X12812687Y-13173060D01*
X12837401Y-13117091D01*
X12912241Y-13042251D01*
X12968210Y-13017537D01*
X13001673Y-13001934D01*
X13004346Y-13001582D01*
X13009062Y-12999500D01*
X13075000Y-12991850D01*
X14025000Y-12991850D01*
X14090938Y-12999500D01*
G37*
G36*
X21665938Y-11524500D02*
G01*
X21670653Y-11526582D01*
X21673326Y-11526934D01*
X21706770Y-11542529D01*
X21762759Y-11567251D01*
X21837599Y-11642091D01*
X21862330Y-11698101D01*
X21877915Y-11731523D01*
X21878266Y-11734193D01*
X21880350Y-11738912D01*
X21888000Y-11804850D01*
X21888000Y-12329850D01*
X21880350Y-12395788D01*
X21878266Y-12400506D01*
X21877915Y-12403176D01*
X21862338Y-12436580D01*
X21837599Y-12492609D01*
X21762759Y-12567449D01*
X21706730Y-12592188D01*
X21673326Y-12607765D01*
X21670656Y-12608116D01*
X21665938Y-12610200D01*
X21600000Y-12617850D01*
X20700000Y-12617850D01*
X20634062Y-12610200D01*
X20629343Y-12608116D01*
X20626673Y-12607765D01*
X20593251Y-12592180D01*
X20537241Y-12567449D01*
X20462401Y-12492609D01*
X20437679Y-12436620D01*
X20422084Y-12403176D01*
X20421732Y-12400503D01*
X20419650Y-12395788D01*
X20412000Y-12329850D01*
X20412000Y-11804850D01*
X20419650Y-11738912D01*
X20421732Y-11734196D01*
X20422084Y-11731523D01*
X20437687Y-11698060D01*
X20462401Y-11642091D01*
X20537241Y-11567251D01*
X20593210Y-11542537D01*
X20626673Y-11526934D01*
X20629346Y-11526582D01*
X20634062Y-11524500D01*
X20700000Y-11516850D01*
X21600000Y-11516850D01*
X21665938Y-11524500D01*
G37*
G36*
X19690938Y-11499500D02*
G01*
X19695653Y-11501582D01*
X19698326Y-11501934D01*
X19731770Y-11517529D01*
X19787759Y-11542251D01*
X19862599Y-11617091D01*
X19887330Y-11673101D01*
X19902915Y-11706523D01*
X19903266Y-11709193D01*
X19905350Y-11713912D01*
X19913000Y-11779850D01*
X19913000Y-12279850D01*
X19905350Y-12345788D01*
X19903266Y-12350506D01*
X19902915Y-12353176D01*
X19887338Y-12386580D01*
X19862599Y-12442609D01*
X19787759Y-12517449D01*
X19731730Y-12542188D01*
X19698326Y-12557765D01*
X19695656Y-12558116D01*
X19690938Y-12560200D01*
X19625000Y-12567850D01*
X18675000Y-12567850D01*
X18609062Y-12560200D01*
X18604343Y-12558116D01*
X18601673Y-12557765D01*
X18568251Y-12542180D01*
X18512241Y-12517449D01*
X18437401Y-12442609D01*
X18412679Y-12386620D01*
X18397084Y-12353176D01*
X18396732Y-12350503D01*
X18394650Y-12345788D01*
X18387000Y-12279850D01*
X18387000Y-11779850D01*
X18394650Y-11713912D01*
X18396732Y-11709196D01*
X18397084Y-11706523D01*
X18412687Y-11673060D01*
X18437401Y-11617091D01*
X18512241Y-11542251D01*
X18568210Y-11517537D01*
X18601673Y-11501934D01*
X18604346Y-11501582D01*
X18609062Y-11499500D01*
X18675000Y-11491850D01*
X19625000Y-11491850D01*
X19690938Y-11499500D01*
G37*
G36*
X39788880Y-10737713D02*
G01*
X39821842Y-10759737D01*
X40540263Y-11478158D01*
X40562287Y-11511120D01*
X40570020Y-11550000D01*
X40562287Y-11588880D01*
X40540263Y-11621842D01*
X39821842Y-12340263D01*
X39788880Y-12362287D01*
X39750000Y-12370020D01*
X39711120Y-12362287D01*
X39678158Y-12340263D01*
X38959737Y-11621842D01*
X38937713Y-11588880D01*
X38929980Y-11550000D01*
X38937713Y-11511120D01*
X38959737Y-11478158D01*
X39678158Y-10759737D01*
X39711120Y-10737713D01*
X39750000Y-10729980D01*
X39788880Y-10737713D01*
G37*
G36*
X16571944Y-10956161D02*
G01*
X16632936Y-10996914D01*
X16673689Y-11057906D01*
X16688000Y-11129850D01*
X16688000Y-12154850D01*
X16673689Y-12226794D01*
X16632936Y-12287786D01*
X16571944Y-12328539D01*
X16500000Y-12342850D01*
X16200000Y-12342850D01*
X16128056Y-12328539D01*
X16067064Y-12287786D01*
X16026311Y-12226794D01*
X16012000Y-12154850D01*
X16012000Y-11129850D01*
X16026311Y-11057906D01*
X16067064Y-10996914D01*
X16128056Y-10956161D01*
X16200000Y-10941850D01*
X16500000Y-10941850D01*
X16571944Y-10956161D01*
G37*
G36*
X93388880Y-10637713D02*
G01*
X93421842Y-10659737D01*
X94140263Y-11378158D01*
X94162287Y-11411120D01*
X94170020Y-11450000D01*
X94162287Y-11488880D01*
X94140263Y-11521842D01*
X93421842Y-12240263D01*
X93388880Y-12262287D01*
X93350000Y-12270020D01*
X93311120Y-12262287D01*
X93278158Y-12240263D01*
X92559737Y-11521842D01*
X92537713Y-11488880D01*
X92529980Y-11450000D01*
X92537713Y-11411120D01*
X92559737Y-11378158D01*
X93278158Y-10659737D01*
X93311120Y-10637713D01*
X93350000Y-10629980D01*
X93388880Y-10637713D01*
G37*
G36*
X14090938Y-11099500D02*
G01*
X14095653Y-11101582D01*
X14098326Y-11101934D01*
X14131770Y-11117529D01*
X14187759Y-11142251D01*
X14262599Y-11217091D01*
X14287330Y-11273101D01*
X14302915Y-11306523D01*
X14303266Y-11309193D01*
X14305350Y-11313912D01*
X14313000Y-11379850D01*
X14313000Y-11879850D01*
X14305350Y-11945788D01*
X14303266Y-11950506D01*
X14302915Y-11953176D01*
X14287338Y-11986580D01*
X14262599Y-12042609D01*
X14187759Y-12117449D01*
X14131730Y-12142188D01*
X14098326Y-12157765D01*
X14095656Y-12158116D01*
X14090938Y-12160200D01*
X14025000Y-12167850D01*
X13075000Y-12167850D01*
X13009062Y-12160200D01*
X13004343Y-12158116D01*
X13001673Y-12157765D01*
X12968251Y-12142180D01*
X12912241Y-12117449D01*
X12837401Y-12042609D01*
X12812679Y-11986620D01*
X12797084Y-11953176D01*
X12796732Y-11950503D01*
X12794650Y-11945788D01*
X12787000Y-11879850D01*
X12787000Y-11379850D01*
X12794650Y-11313912D01*
X12796732Y-11309196D01*
X12797084Y-11306523D01*
X12812687Y-11273060D01*
X12837401Y-11217091D01*
X12912241Y-11142251D01*
X12968210Y-11117537D01*
X13001673Y-11101934D01*
X13004346Y-11101582D01*
X13009062Y-11099500D01*
X13075000Y-11091850D01*
X14025000Y-11091850D01*
X14090938Y-11099500D01*
G37*
G36*
X85265938Y-10949500D02*
G01*
X85270653Y-10951582D01*
X85273326Y-10951934D01*
X85306770Y-10967529D01*
X85362759Y-10992251D01*
X85437599Y-11067091D01*
X85462330Y-11123101D01*
X85477915Y-11156523D01*
X85478266Y-11159193D01*
X85480350Y-11163912D01*
X85488000Y-11229850D01*
X85488000Y-11754850D01*
X85480350Y-11820788D01*
X85478266Y-11825506D01*
X85477915Y-11828176D01*
X85462338Y-11861580D01*
X85437599Y-11917609D01*
X85362759Y-11992449D01*
X85306730Y-12017188D01*
X85273326Y-12032765D01*
X85270656Y-12033116D01*
X85265938Y-12035200D01*
X85200000Y-12042850D01*
X84300000Y-12042850D01*
X84234062Y-12035200D01*
X84229343Y-12033116D01*
X84226673Y-12032765D01*
X84193251Y-12017180D01*
X84137241Y-11992449D01*
X84062401Y-11917609D01*
X84037679Y-11861620D01*
X84022084Y-11828176D01*
X84021732Y-11825503D01*
X84019650Y-11820788D01*
X84012000Y-11754850D01*
X84012000Y-11229850D01*
X84019650Y-11163912D01*
X84021732Y-11159196D01*
X84022084Y-11156523D01*
X84037687Y-11123060D01*
X84062401Y-11067091D01*
X84137241Y-10992251D01*
X84193210Y-10967537D01*
X84226673Y-10951934D01*
X84229346Y-10951582D01*
X84234062Y-10949500D01*
X84300000Y-10941850D01*
X85200000Y-10941850D01*
X85265938Y-10949500D01*
G37*
G36*
X87265938Y-10949500D02*
G01*
X87270653Y-10951582D01*
X87273326Y-10951934D01*
X87306770Y-10967529D01*
X87362759Y-10992251D01*
X87437599Y-11067091D01*
X87462330Y-11123101D01*
X87477915Y-11156523D01*
X87478266Y-11159193D01*
X87480350Y-11163912D01*
X87488000Y-11229850D01*
X87488000Y-11754850D01*
X87480350Y-11820788D01*
X87478266Y-11825506D01*
X87477915Y-11828176D01*
X87462338Y-11861580D01*
X87437599Y-11917609D01*
X87362759Y-11992449D01*
X87306730Y-12017188D01*
X87273326Y-12032765D01*
X87270656Y-12033116D01*
X87265938Y-12035200D01*
X87200000Y-12042850D01*
X86300000Y-12042850D01*
X86234062Y-12035200D01*
X86229343Y-12033116D01*
X86226673Y-12032765D01*
X86193251Y-12017180D01*
X86137241Y-11992449D01*
X86062401Y-11917609D01*
X86037679Y-11861620D01*
X86022084Y-11828176D01*
X86021732Y-11825503D01*
X86019650Y-11820788D01*
X86012000Y-11754850D01*
X86012000Y-11229850D01*
X86019650Y-11163912D01*
X86021732Y-11159196D01*
X86022084Y-11156523D01*
X86037687Y-11123060D01*
X86062401Y-11067091D01*
X86137241Y-10992251D01*
X86193210Y-10967537D01*
X86226673Y-10951934D01*
X86229346Y-10951582D01*
X86234062Y-10949500D01*
X86300000Y-10941850D01*
X87200000Y-10941850D01*
X87265938Y-10949500D01*
G37*
G36*
X34688880Y-10337713D02*
G01*
X34721842Y-10359737D01*
X35440263Y-11078158D01*
X35462287Y-11111120D01*
X35470020Y-11150000D01*
X35462287Y-11188880D01*
X35440263Y-11221842D01*
X34721842Y-11940263D01*
X34688880Y-11962287D01*
X34650000Y-11970020D01*
X34611120Y-11962287D01*
X34578158Y-11940263D01*
X33859737Y-11221842D01*
X33837713Y-11188880D01*
X33829980Y-11150000D01*
X33837713Y-11111120D01*
X33859737Y-11078158D01*
X34578158Y-10359737D01*
X34611120Y-10337713D01*
X34650000Y-10329980D01*
X34688880Y-10337713D01*
G37*
G36*
X58765938Y-10219500D02*
G01*
X58770653Y-10221582D01*
X58773326Y-10221934D01*
X58806770Y-10237529D01*
X58862759Y-10262251D01*
X58937599Y-10337091D01*
X58962330Y-10393101D01*
X58977915Y-10426523D01*
X58978266Y-10429193D01*
X58980350Y-10433912D01*
X58988000Y-10499850D01*
X58988000Y-11399850D01*
X58980350Y-11465788D01*
X58978266Y-11470506D01*
X58977915Y-11473176D01*
X58962338Y-11506580D01*
X58937599Y-11562609D01*
X58862759Y-11637449D01*
X58806730Y-11662188D01*
X58773326Y-11677765D01*
X58770656Y-11678116D01*
X58765938Y-11680200D01*
X58700000Y-11687850D01*
X58175000Y-11687850D01*
X58109062Y-11680200D01*
X58104343Y-11678116D01*
X58101673Y-11677765D01*
X58068251Y-11662180D01*
X58012241Y-11637449D01*
X57937401Y-11562609D01*
X57912679Y-11506620D01*
X57897084Y-11473176D01*
X57896732Y-11470503D01*
X57894650Y-11465788D01*
X57887000Y-11399850D01*
X57887000Y-10499850D01*
X57894650Y-10433912D01*
X57896732Y-10429196D01*
X57897084Y-10426523D01*
X57912687Y-10393060D01*
X57937401Y-10337091D01*
X58012241Y-10262251D01*
X58068210Y-10237537D01*
X58101673Y-10221934D01*
X58104346Y-10221582D01*
X58109062Y-10219500D01*
X58175000Y-10211850D01*
X58700000Y-10211850D01*
X58765938Y-10219500D01*
G37*
G36*
X60590938Y-10219500D02*
G01*
X60595653Y-10221582D01*
X60598326Y-10221934D01*
X60631770Y-10237529D01*
X60687759Y-10262251D01*
X60762599Y-10337091D01*
X60787330Y-10393101D01*
X60802915Y-10426523D01*
X60803266Y-10429193D01*
X60805350Y-10433912D01*
X60813000Y-10499850D01*
X60813000Y-11399850D01*
X60805350Y-11465788D01*
X60803266Y-11470506D01*
X60802915Y-11473176D01*
X60787338Y-11506580D01*
X60762599Y-11562609D01*
X60687759Y-11637449D01*
X60631730Y-11662188D01*
X60598326Y-11677765D01*
X60595656Y-11678116D01*
X60590938Y-11680200D01*
X60525000Y-11687850D01*
X60000000Y-11687850D01*
X59934062Y-11680200D01*
X59929343Y-11678116D01*
X59926673Y-11677765D01*
X59893251Y-11662180D01*
X59837241Y-11637449D01*
X59762401Y-11562609D01*
X59737679Y-11506620D01*
X59722084Y-11473176D01*
X59721732Y-11470503D01*
X59719650Y-11465788D01*
X59712000Y-11399850D01*
X59712000Y-10499850D01*
X59719650Y-10433912D01*
X59721732Y-10429196D01*
X59722084Y-10426523D01*
X59737687Y-10393060D01*
X59762401Y-10337091D01*
X59837241Y-10262251D01*
X59893210Y-10237537D01*
X59926673Y-10221934D01*
X59929346Y-10221582D01*
X59934062Y-10219500D01*
X60000000Y-10211850D01*
X60525000Y-10211850D01*
X60590938Y-10219500D01*
G37*
G36*
X19398755Y-9617016D02*
G01*
X19415858Y-9617016D01*
X19474415Y-9631448D01*
X19536153Y-9643226D01*
X19551502Y-9650449D01*
X19565106Y-9653802D01*
X19621273Y-9683280D01*
X19680857Y-9711319D01*
X19691549Y-9720164D01*
X19701218Y-9725239D01*
X19751072Y-9769406D01*
X19804082Y-9813259D01*
X19810420Y-9821983D01*
X19816275Y-9827170D01*
X19855938Y-9884632D01*
X19898084Y-9942641D01*
X19900916Y-9949795D01*
X19903595Y-9953676D01*
X19929572Y-10022173D01*
X19956956Y-10091336D01*
X19957531Y-10095894D01*
X19958105Y-10097406D01*
X19967560Y-10175280D01*
X19977000Y-10250000D01*
X19977000Y-10450000D01*
X19971969Y-10529963D01*
X19962397Y-10567241D01*
X19958105Y-10602593D01*
X19943291Y-10641651D01*
X19932197Y-10684863D01*
X19915129Y-10715908D01*
X19903595Y-10746323D01*
X19878118Y-10783232D01*
X19855153Y-10825007D01*
X19833002Y-10848595D01*
X19816275Y-10872829D01*
X19780397Y-10904613D01*
X19745677Y-10941587D01*
X19720949Y-10957279D01*
X19701218Y-10974760D01*
X19656052Y-10998464D01*
X19610647Y-11027280D01*
X19585713Y-11035381D01*
X19565106Y-11046197D01*
X19512576Y-11059144D01*
X19458549Y-11076699D01*
X19435464Y-11078151D01*
X19415858Y-11082984D01*
X19358654Y-11082984D01*
X19298940Y-11086741D01*
X19279245Y-11082984D01*
X19262142Y-11082984D01*
X19203590Y-11068552D01*
X19141847Y-11056774D01*
X19126494Y-11049549D01*
X19112893Y-11046197D01*
X19056735Y-11016723D01*
X18997143Y-10988681D01*
X18986448Y-10979834D01*
X18976781Y-10974760D01*
X18926929Y-10930595D01*
X18873918Y-10886741D01*
X18867578Y-10878015D01*
X18861724Y-10872829D01*
X18822055Y-10815359D01*
X18779916Y-10757359D01*
X18777083Y-10750205D01*
X18774404Y-10746323D01*
X18748412Y-10677789D01*
X18721044Y-10608664D01*
X18720468Y-10604107D01*
X18719894Y-10602593D01*
X18710429Y-10524642D01*
X18701000Y-10450000D01*
X18701000Y-10250000D01*
X18706031Y-10170037D01*
X18715600Y-10132765D01*
X18719894Y-10097406D01*
X18734710Y-10058337D01*
X18745803Y-10015137D01*
X18762865Y-9984099D01*
X18774404Y-9953676D01*
X18799887Y-9916755D01*
X18822847Y-9874993D01*
X18844991Y-9851411D01*
X18861724Y-9827170D01*
X18897613Y-9795375D01*
X18932323Y-9758413D01*
X18957043Y-9742724D01*
X18976781Y-9725239D01*
X19021961Y-9701526D01*
X19067353Y-9672720D01*
X19092278Y-9664621D01*
X19112893Y-9653802D01*
X19165433Y-9640852D01*
X19219451Y-9623301D01*
X19242534Y-9621848D01*
X19262142Y-9617016D01*
X19319346Y-9617016D01*
X19379060Y-9613259D01*
X19398755Y-9617016D01*
G37*
G36*
X21176755Y-9617016D02*
G01*
X21193858Y-9617016D01*
X21252415Y-9631448D01*
X21314153Y-9643226D01*
X21329502Y-9650449D01*
X21343106Y-9653802D01*
X21399273Y-9683280D01*
X21458857Y-9711319D01*
X21469549Y-9720164D01*
X21479218Y-9725239D01*
X21529072Y-9769406D01*
X21582082Y-9813259D01*
X21588420Y-9821983D01*
X21594275Y-9827170D01*
X21633938Y-9884632D01*
X21676084Y-9942641D01*
X21678916Y-9949795D01*
X21681595Y-9953676D01*
X21707572Y-10022173D01*
X21734956Y-10091336D01*
X21735531Y-10095894D01*
X21736105Y-10097406D01*
X21745560Y-10175280D01*
X21755000Y-10250000D01*
X21755000Y-10450000D01*
X21749969Y-10529963D01*
X21740397Y-10567241D01*
X21736105Y-10602593D01*
X21721291Y-10641651D01*
X21710197Y-10684863D01*
X21693129Y-10715908D01*
X21681595Y-10746323D01*
X21656118Y-10783232D01*
X21633153Y-10825007D01*
X21611002Y-10848595D01*
X21594275Y-10872829D01*
X21558397Y-10904613D01*
X21523677Y-10941587D01*
X21498949Y-10957279D01*
X21479218Y-10974760D01*
X21434052Y-10998464D01*
X21388647Y-11027280D01*
X21363713Y-11035381D01*
X21343106Y-11046197D01*
X21290576Y-11059144D01*
X21236549Y-11076699D01*
X21213464Y-11078151D01*
X21193858Y-11082984D01*
X21136654Y-11082984D01*
X21076940Y-11086741D01*
X21057245Y-11082984D01*
X21040142Y-11082984D01*
X20981590Y-11068552D01*
X20919847Y-11056774D01*
X20904494Y-11049549D01*
X20890893Y-11046197D01*
X20834735Y-11016723D01*
X20775143Y-10988681D01*
X20764448Y-10979834D01*
X20754781Y-10974760D01*
X20704929Y-10930595D01*
X20651918Y-10886741D01*
X20645578Y-10878015D01*
X20639724Y-10872829D01*
X20600055Y-10815359D01*
X20557916Y-10757359D01*
X20555083Y-10750205D01*
X20552404Y-10746323D01*
X20526412Y-10677789D01*
X20499044Y-10608664D01*
X20498468Y-10604107D01*
X20497894Y-10602593D01*
X20488429Y-10524642D01*
X20479000Y-10450000D01*
X20479000Y-10250000D01*
X20484031Y-10170037D01*
X20493600Y-10132765D01*
X20497894Y-10097406D01*
X20512710Y-10058337D01*
X20523803Y-10015137D01*
X20540865Y-9984099D01*
X20552404Y-9953676D01*
X20577887Y-9916755D01*
X20600847Y-9874993D01*
X20622991Y-9851411D01*
X20639724Y-9827170D01*
X20675613Y-9795375D01*
X20710323Y-9758413D01*
X20735043Y-9742724D01*
X20754781Y-9725239D01*
X20799961Y-9701526D01*
X20845353Y-9672720D01*
X20870278Y-9664621D01*
X20890893Y-9653802D01*
X20943433Y-9640852D01*
X20997451Y-9623301D01*
X21020534Y-9621848D01*
X21040142Y-9617016D01*
X21097346Y-9617016D01*
X21157060Y-9613259D01*
X21176755Y-9617016D01*
G37*
G36*
X22954755Y-9617016D02*
G01*
X22971858Y-9617016D01*
X23030415Y-9631448D01*
X23092153Y-9643226D01*
X23107502Y-9650449D01*
X23121106Y-9653802D01*
X23177273Y-9683280D01*
X23236857Y-9711319D01*
X23247549Y-9720164D01*
X23257218Y-9725239D01*
X23307072Y-9769406D01*
X23360082Y-9813259D01*
X23366420Y-9821983D01*
X23372275Y-9827170D01*
X23411938Y-9884632D01*
X23454084Y-9942641D01*
X23456916Y-9949795D01*
X23459595Y-9953676D01*
X23485572Y-10022173D01*
X23512956Y-10091336D01*
X23513531Y-10095894D01*
X23514105Y-10097406D01*
X23523560Y-10175280D01*
X23533000Y-10250000D01*
X23533000Y-10450000D01*
X23527969Y-10529963D01*
X23518397Y-10567241D01*
X23514105Y-10602593D01*
X23499291Y-10641651D01*
X23488197Y-10684863D01*
X23471129Y-10715908D01*
X23459595Y-10746323D01*
X23434118Y-10783232D01*
X23411153Y-10825007D01*
X23389002Y-10848595D01*
X23372275Y-10872829D01*
X23336397Y-10904613D01*
X23301677Y-10941587D01*
X23276949Y-10957279D01*
X23257218Y-10974760D01*
X23212052Y-10998464D01*
X23166647Y-11027280D01*
X23141713Y-11035381D01*
X23121106Y-11046197D01*
X23068576Y-11059144D01*
X23014549Y-11076699D01*
X22991464Y-11078151D01*
X22971858Y-11082984D01*
X22914654Y-11082984D01*
X22854940Y-11086741D01*
X22835245Y-11082984D01*
X22818142Y-11082984D01*
X22759590Y-11068552D01*
X22697847Y-11056774D01*
X22682494Y-11049549D01*
X22668893Y-11046197D01*
X22612735Y-11016723D01*
X22553143Y-10988681D01*
X22542448Y-10979834D01*
X22532781Y-10974760D01*
X22482929Y-10930595D01*
X22429918Y-10886741D01*
X22423578Y-10878015D01*
X22417724Y-10872829D01*
X22378055Y-10815359D01*
X22335916Y-10757359D01*
X22333083Y-10750205D01*
X22330404Y-10746323D01*
X22304412Y-10677789D01*
X22277044Y-10608664D01*
X22276468Y-10604107D01*
X22275894Y-10602593D01*
X22266429Y-10524642D01*
X22257000Y-10450000D01*
X22257000Y-10250000D01*
X22262031Y-10170037D01*
X22271600Y-10132765D01*
X22275894Y-10097406D01*
X22290710Y-10058337D01*
X22301803Y-10015137D01*
X22318865Y-9984099D01*
X22330404Y-9953676D01*
X22355887Y-9916755D01*
X22378847Y-9874993D01*
X22400991Y-9851411D01*
X22417724Y-9827170D01*
X22453613Y-9795375D01*
X22488323Y-9758413D01*
X22513043Y-9742724D01*
X22532781Y-9725239D01*
X22577961Y-9701526D01*
X22623353Y-9672720D01*
X22648278Y-9664621D01*
X22668893Y-9653802D01*
X22721433Y-9640852D01*
X22775451Y-9623301D01*
X22798534Y-9621848D01*
X22818142Y-9617016D01*
X22875346Y-9617016D01*
X22935060Y-9613259D01*
X22954755Y-9617016D01*
G37*
G36*
X24732755Y-9617016D02*
G01*
X24749858Y-9617016D01*
X24808415Y-9631448D01*
X24870153Y-9643226D01*
X24885502Y-9650449D01*
X24899106Y-9653802D01*
X24955273Y-9683280D01*
X25014857Y-9711319D01*
X25025549Y-9720164D01*
X25035218Y-9725239D01*
X25085072Y-9769406D01*
X25138082Y-9813259D01*
X25144420Y-9821983D01*
X25150275Y-9827170D01*
X25189938Y-9884632D01*
X25232084Y-9942641D01*
X25234916Y-9949795D01*
X25237595Y-9953676D01*
X25263572Y-10022173D01*
X25290956Y-10091336D01*
X25291531Y-10095894D01*
X25292105Y-10097406D01*
X25301560Y-10175280D01*
X25311000Y-10250000D01*
X25311000Y-10450000D01*
X25305969Y-10529963D01*
X25296397Y-10567241D01*
X25292105Y-10602593D01*
X25277291Y-10641651D01*
X25266197Y-10684863D01*
X25249129Y-10715908D01*
X25237595Y-10746323D01*
X25212118Y-10783232D01*
X25189153Y-10825007D01*
X25167002Y-10848595D01*
X25150275Y-10872829D01*
X25114397Y-10904613D01*
X25079677Y-10941587D01*
X25054949Y-10957279D01*
X25035218Y-10974760D01*
X24990052Y-10998464D01*
X24944647Y-11027280D01*
X24919713Y-11035381D01*
X24899106Y-11046197D01*
X24846576Y-11059144D01*
X24792549Y-11076699D01*
X24769464Y-11078151D01*
X24749858Y-11082984D01*
X24692654Y-11082984D01*
X24632940Y-11086741D01*
X24613245Y-11082984D01*
X24596142Y-11082984D01*
X24537590Y-11068552D01*
X24475847Y-11056774D01*
X24460494Y-11049549D01*
X24446893Y-11046197D01*
X24390735Y-11016723D01*
X24331143Y-10988681D01*
X24320448Y-10979834D01*
X24310781Y-10974760D01*
X24260929Y-10930595D01*
X24207918Y-10886741D01*
X24201578Y-10878015D01*
X24195724Y-10872829D01*
X24156055Y-10815359D01*
X24113916Y-10757359D01*
X24111083Y-10750205D01*
X24108404Y-10746323D01*
X24082412Y-10677789D01*
X24055044Y-10608664D01*
X24054468Y-10604107D01*
X24053894Y-10602593D01*
X24044429Y-10524642D01*
X24035000Y-10450000D01*
X24035000Y-10250000D01*
X24040031Y-10170037D01*
X24049600Y-10132765D01*
X24053894Y-10097406D01*
X24068710Y-10058337D01*
X24079803Y-10015137D01*
X24096865Y-9984099D01*
X24108404Y-9953676D01*
X24133887Y-9916755D01*
X24156847Y-9874993D01*
X24178991Y-9851411D01*
X24195724Y-9827170D01*
X24231613Y-9795375D01*
X24266323Y-9758413D01*
X24291043Y-9742724D01*
X24310781Y-9725239D01*
X24355961Y-9701526D01*
X24401353Y-9672720D01*
X24426278Y-9664621D01*
X24446893Y-9653802D01*
X24499433Y-9640852D01*
X24553451Y-9623301D01*
X24576534Y-9621848D01*
X24596142Y-9617016D01*
X24653346Y-9617016D01*
X24713060Y-9613259D01*
X24732755Y-9617016D01*
G37*
G36*
X26510755Y-9617016D02*
G01*
X26527858Y-9617016D01*
X26586415Y-9631448D01*
X26648153Y-9643226D01*
X26663502Y-9650449D01*
X26677106Y-9653802D01*
X26733273Y-9683280D01*
X26792857Y-9711319D01*
X26803549Y-9720164D01*
X26813218Y-9725239D01*
X26863072Y-9769406D01*
X26916082Y-9813259D01*
X26922420Y-9821983D01*
X26928275Y-9827170D01*
X26967938Y-9884632D01*
X27010084Y-9942641D01*
X27012916Y-9949795D01*
X27015595Y-9953676D01*
X27041572Y-10022173D01*
X27068956Y-10091336D01*
X27069531Y-10095894D01*
X27070105Y-10097406D01*
X27079560Y-10175280D01*
X27089000Y-10250000D01*
X27089000Y-10450000D01*
X27083969Y-10529963D01*
X27074397Y-10567241D01*
X27070105Y-10602593D01*
X27055291Y-10641651D01*
X27044197Y-10684863D01*
X27027129Y-10715908D01*
X27015595Y-10746323D01*
X26990118Y-10783232D01*
X26967153Y-10825007D01*
X26945002Y-10848595D01*
X26928275Y-10872829D01*
X26892397Y-10904613D01*
X26857677Y-10941587D01*
X26832949Y-10957279D01*
X26813218Y-10974760D01*
X26768052Y-10998464D01*
X26722647Y-11027280D01*
X26697713Y-11035381D01*
X26677106Y-11046197D01*
X26624576Y-11059144D01*
X26570549Y-11076699D01*
X26547464Y-11078151D01*
X26527858Y-11082984D01*
X26470654Y-11082984D01*
X26410940Y-11086741D01*
X26391245Y-11082984D01*
X26374142Y-11082984D01*
X26315590Y-11068552D01*
X26253847Y-11056774D01*
X26238494Y-11049549D01*
X26224893Y-11046197D01*
X26168735Y-11016723D01*
X26109143Y-10988681D01*
X26098448Y-10979834D01*
X26088781Y-10974760D01*
X26038929Y-10930595D01*
X25985918Y-10886741D01*
X25979578Y-10878015D01*
X25973724Y-10872829D01*
X25934055Y-10815359D01*
X25891916Y-10757359D01*
X25889083Y-10750205D01*
X25886404Y-10746323D01*
X25860412Y-10677789D01*
X25833044Y-10608664D01*
X25832468Y-10604107D01*
X25831894Y-10602593D01*
X25822429Y-10524642D01*
X25813000Y-10450000D01*
X25813000Y-10250000D01*
X25818031Y-10170037D01*
X25827600Y-10132765D01*
X25831894Y-10097406D01*
X25846710Y-10058337D01*
X25857803Y-10015137D01*
X25874865Y-9984099D01*
X25886404Y-9953676D01*
X25911887Y-9916755D01*
X25934847Y-9874993D01*
X25956991Y-9851411D01*
X25973724Y-9827170D01*
X26009613Y-9795375D01*
X26044323Y-9758413D01*
X26069043Y-9742724D01*
X26088781Y-9725239D01*
X26133961Y-9701526D01*
X26179353Y-9672720D01*
X26204278Y-9664621D01*
X26224893Y-9653802D01*
X26277433Y-9640852D01*
X26331451Y-9623301D01*
X26354534Y-9621848D01*
X26374142Y-9617016D01*
X26431346Y-9617016D01*
X26491060Y-9613259D01*
X26510755Y-9617016D01*
G37*
G36*
X28288755Y-9617016D02*
G01*
X28305858Y-9617016D01*
X28364415Y-9631448D01*
X28426153Y-9643226D01*
X28441502Y-9650449D01*
X28455106Y-9653802D01*
X28511273Y-9683280D01*
X28570857Y-9711319D01*
X28581549Y-9720164D01*
X28591218Y-9725239D01*
X28641072Y-9769406D01*
X28694082Y-9813259D01*
X28700420Y-9821983D01*
X28706275Y-9827170D01*
X28745938Y-9884632D01*
X28788084Y-9942641D01*
X28790916Y-9949795D01*
X28793595Y-9953676D01*
X28819572Y-10022173D01*
X28846956Y-10091336D01*
X28847531Y-10095894D01*
X28848105Y-10097406D01*
X28857560Y-10175280D01*
X28867000Y-10250000D01*
X28867000Y-10450000D01*
X28861969Y-10529963D01*
X28852397Y-10567241D01*
X28848105Y-10602593D01*
X28833291Y-10641651D01*
X28822197Y-10684863D01*
X28805129Y-10715908D01*
X28793595Y-10746323D01*
X28768118Y-10783232D01*
X28745153Y-10825007D01*
X28723002Y-10848595D01*
X28706275Y-10872829D01*
X28670397Y-10904613D01*
X28635677Y-10941587D01*
X28610949Y-10957279D01*
X28591218Y-10974760D01*
X28546052Y-10998464D01*
X28500647Y-11027280D01*
X28475713Y-11035381D01*
X28455106Y-11046197D01*
X28402576Y-11059144D01*
X28348549Y-11076699D01*
X28325464Y-11078151D01*
X28305858Y-11082984D01*
X28248654Y-11082984D01*
X28188940Y-11086741D01*
X28169245Y-11082984D01*
X28152142Y-11082984D01*
X28093590Y-11068552D01*
X28031847Y-11056774D01*
X28016494Y-11049549D01*
X28002893Y-11046197D01*
X27946735Y-11016723D01*
X27887143Y-10988681D01*
X27876448Y-10979834D01*
X27866781Y-10974760D01*
X27816929Y-10930595D01*
X27763918Y-10886741D01*
X27757578Y-10878015D01*
X27751724Y-10872829D01*
X27712055Y-10815359D01*
X27669916Y-10757359D01*
X27667083Y-10750205D01*
X27664404Y-10746323D01*
X27638412Y-10677789D01*
X27611044Y-10608664D01*
X27610468Y-10604107D01*
X27609894Y-10602593D01*
X27600429Y-10524642D01*
X27591000Y-10450000D01*
X27591000Y-10250000D01*
X27596031Y-10170037D01*
X27605600Y-10132765D01*
X27609894Y-10097406D01*
X27624710Y-10058337D01*
X27635803Y-10015137D01*
X27652865Y-9984099D01*
X27664404Y-9953676D01*
X27689887Y-9916755D01*
X27712847Y-9874993D01*
X27734991Y-9851411D01*
X27751724Y-9827170D01*
X27787613Y-9795375D01*
X27822323Y-9758413D01*
X27847043Y-9742724D01*
X27866781Y-9725239D01*
X27911961Y-9701526D01*
X27957353Y-9672720D01*
X27982278Y-9664621D01*
X28002893Y-9653802D01*
X28055433Y-9640852D01*
X28109451Y-9623301D01*
X28132534Y-9621848D01*
X28152142Y-9617016D01*
X28209346Y-9617016D01*
X28269060Y-9613259D01*
X28288755Y-9617016D01*
G37*
G36*
X30066755Y-9617016D02*
G01*
X30083858Y-9617016D01*
X30142415Y-9631448D01*
X30204153Y-9643226D01*
X30219502Y-9650449D01*
X30233106Y-9653802D01*
X30289273Y-9683280D01*
X30348857Y-9711319D01*
X30359549Y-9720164D01*
X30369218Y-9725239D01*
X30419072Y-9769406D01*
X30472082Y-9813259D01*
X30478420Y-9821983D01*
X30484275Y-9827170D01*
X30523938Y-9884632D01*
X30566084Y-9942641D01*
X30568916Y-9949795D01*
X30571595Y-9953676D01*
X30597572Y-10022173D01*
X30624956Y-10091336D01*
X30625531Y-10095894D01*
X30626105Y-10097406D01*
X30635560Y-10175280D01*
X30645000Y-10250000D01*
X30645000Y-10450000D01*
X30639969Y-10529963D01*
X30630397Y-10567241D01*
X30626105Y-10602593D01*
X30611291Y-10641651D01*
X30600197Y-10684863D01*
X30583129Y-10715908D01*
X30571595Y-10746323D01*
X30546118Y-10783232D01*
X30523153Y-10825007D01*
X30501002Y-10848595D01*
X30484275Y-10872829D01*
X30448397Y-10904613D01*
X30413677Y-10941587D01*
X30388949Y-10957279D01*
X30369218Y-10974760D01*
X30324052Y-10998464D01*
X30278647Y-11027280D01*
X30253713Y-11035381D01*
X30233106Y-11046197D01*
X30180576Y-11059144D01*
X30126549Y-11076699D01*
X30103464Y-11078151D01*
X30083858Y-11082984D01*
X30026654Y-11082984D01*
X29966940Y-11086741D01*
X29947245Y-11082984D01*
X29930142Y-11082984D01*
X29871590Y-11068552D01*
X29809847Y-11056774D01*
X29794494Y-11049549D01*
X29780893Y-11046197D01*
X29724735Y-11016723D01*
X29665143Y-10988681D01*
X29654448Y-10979834D01*
X29644781Y-10974760D01*
X29594929Y-10930595D01*
X29541918Y-10886741D01*
X29535578Y-10878015D01*
X29529724Y-10872829D01*
X29490055Y-10815359D01*
X29447916Y-10757359D01*
X29445083Y-10750205D01*
X29442404Y-10746323D01*
X29416412Y-10677789D01*
X29389044Y-10608664D01*
X29388468Y-10604107D01*
X29387894Y-10602593D01*
X29378429Y-10524642D01*
X29369000Y-10450000D01*
X29369000Y-10250000D01*
X29374031Y-10170037D01*
X29383600Y-10132765D01*
X29387894Y-10097406D01*
X29402710Y-10058337D01*
X29413803Y-10015137D01*
X29430865Y-9984099D01*
X29442404Y-9953676D01*
X29467887Y-9916755D01*
X29490847Y-9874993D01*
X29512991Y-9851411D01*
X29529724Y-9827170D01*
X29565613Y-9795375D01*
X29600323Y-9758413D01*
X29625043Y-9742724D01*
X29644781Y-9725239D01*
X29689961Y-9701526D01*
X29735353Y-9672720D01*
X29760278Y-9664621D01*
X29780893Y-9653802D01*
X29833433Y-9640852D01*
X29887451Y-9623301D01*
X29910534Y-9621848D01*
X29930142Y-9617016D01*
X29987346Y-9617016D01*
X30047060Y-9613259D01*
X30066755Y-9617016D01*
G37*
G36*
X31844755Y-9617016D02*
G01*
X31861858Y-9617016D01*
X31920415Y-9631448D01*
X31982153Y-9643226D01*
X31997502Y-9650449D01*
X32011106Y-9653802D01*
X32067273Y-9683280D01*
X32126857Y-9711319D01*
X32137549Y-9720164D01*
X32147218Y-9725239D01*
X32197072Y-9769406D01*
X32250082Y-9813259D01*
X32256420Y-9821983D01*
X32262275Y-9827170D01*
X32301938Y-9884632D01*
X32344084Y-9942641D01*
X32346916Y-9949795D01*
X32349595Y-9953676D01*
X32375572Y-10022173D01*
X32402956Y-10091336D01*
X32403531Y-10095894D01*
X32404105Y-10097406D01*
X32413560Y-10175280D01*
X32423000Y-10250000D01*
X32423000Y-10450000D01*
X32417969Y-10529963D01*
X32408397Y-10567241D01*
X32404105Y-10602593D01*
X32389291Y-10641651D01*
X32378197Y-10684863D01*
X32361129Y-10715908D01*
X32349595Y-10746323D01*
X32324118Y-10783232D01*
X32301153Y-10825007D01*
X32279002Y-10848595D01*
X32262275Y-10872829D01*
X32226397Y-10904613D01*
X32191677Y-10941587D01*
X32166949Y-10957279D01*
X32147218Y-10974760D01*
X32102052Y-10998464D01*
X32056647Y-11027280D01*
X32031713Y-11035381D01*
X32011106Y-11046197D01*
X31958576Y-11059144D01*
X31904549Y-11076699D01*
X31881464Y-11078151D01*
X31861858Y-11082984D01*
X31804654Y-11082984D01*
X31744940Y-11086741D01*
X31725245Y-11082984D01*
X31708142Y-11082984D01*
X31649590Y-11068552D01*
X31587847Y-11056774D01*
X31572494Y-11049549D01*
X31558893Y-11046197D01*
X31502735Y-11016723D01*
X31443143Y-10988681D01*
X31432448Y-10979834D01*
X31422781Y-10974760D01*
X31372929Y-10930595D01*
X31319918Y-10886741D01*
X31313578Y-10878015D01*
X31307724Y-10872829D01*
X31268055Y-10815359D01*
X31225916Y-10757359D01*
X31223083Y-10750205D01*
X31220404Y-10746323D01*
X31194412Y-10677789D01*
X31167044Y-10608664D01*
X31166468Y-10604107D01*
X31165894Y-10602593D01*
X31156429Y-10524642D01*
X31147000Y-10450000D01*
X31147000Y-10250000D01*
X31152031Y-10170037D01*
X31161600Y-10132765D01*
X31165894Y-10097406D01*
X31180710Y-10058337D01*
X31191803Y-10015137D01*
X31208865Y-9984099D01*
X31220404Y-9953676D01*
X31245887Y-9916755D01*
X31268847Y-9874993D01*
X31290991Y-9851411D01*
X31307724Y-9827170D01*
X31343613Y-9795375D01*
X31378323Y-9758413D01*
X31403043Y-9742724D01*
X31422781Y-9725239D01*
X31467961Y-9701526D01*
X31513353Y-9672720D01*
X31538278Y-9664621D01*
X31558893Y-9653802D01*
X31611433Y-9640852D01*
X31665451Y-9623301D01*
X31688534Y-9621848D01*
X31708142Y-9617016D01*
X31765346Y-9617016D01*
X31825060Y-9613259D01*
X31844755Y-9617016D01*
G37*
G36*
X85265938Y-9124500D02*
G01*
X85270653Y-9126582D01*
X85273326Y-9126934D01*
X85306770Y-9142529D01*
X85362759Y-9167251D01*
X85437599Y-9242091D01*
X85462330Y-9298101D01*
X85477915Y-9331523D01*
X85478266Y-9334193D01*
X85480350Y-9338912D01*
X85488000Y-9404850D01*
X85488000Y-9929850D01*
X85480350Y-9995788D01*
X85478266Y-10000506D01*
X85477915Y-10003176D01*
X85462338Y-10036580D01*
X85437599Y-10092609D01*
X85362759Y-10167449D01*
X85306730Y-10192188D01*
X85273326Y-10207765D01*
X85270656Y-10208116D01*
X85265938Y-10210200D01*
X85200000Y-10217850D01*
X84300000Y-10217850D01*
X84234062Y-10210200D01*
X84229343Y-10208116D01*
X84226673Y-10207765D01*
X84193251Y-10192180D01*
X84137241Y-10167449D01*
X84062401Y-10092609D01*
X84037679Y-10036620D01*
X84022084Y-10003176D01*
X84021732Y-10000503D01*
X84019650Y-9995788D01*
X84012000Y-9929850D01*
X84012000Y-9404850D01*
X84019650Y-9338912D01*
X84021732Y-9334196D01*
X84022084Y-9331523D01*
X84037687Y-9298060D01*
X84062401Y-9242091D01*
X84137241Y-9167251D01*
X84193210Y-9142537D01*
X84226673Y-9126934D01*
X84229346Y-9126582D01*
X84234062Y-9124500D01*
X84300000Y-9116850D01*
X85200000Y-9116850D01*
X85265938Y-9124500D01*
G37*
G36*
X87265938Y-9124500D02*
G01*
X87270653Y-9126582D01*
X87273326Y-9126934D01*
X87306770Y-9142529D01*
X87362759Y-9167251D01*
X87437599Y-9242091D01*
X87462330Y-9298101D01*
X87477915Y-9331523D01*
X87478266Y-9334193D01*
X87480350Y-9338912D01*
X87488000Y-9404850D01*
X87488000Y-9929850D01*
X87480350Y-9995788D01*
X87478266Y-10000506D01*
X87477915Y-10003176D01*
X87462338Y-10036580D01*
X87437599Y-10092609D01*
X87362759Y-10167449D01*
X87306730Y-10192188D01*
X87273326Y-10207765D01*
X87270656Y-10208116D01*
X87265938Y-10210200D01*
X87200000Y-10217850D01*
X86300000Y-10217850D01*
X86234062Y-10210200D01*
X86229343Y-10208116D01*
X86226673Y-10207765D01*
X86193251Y-10192180D01*
X86137241Y-10167449D01*
X86062401Y-10092609D01*
X86037679Y-10036620D01*
X86022084Y-10003176D01*
X86021732Y-10000503D01*
X86019650Y-9995788D01*
X86012000Y-9929850D01*
X86012000Y-9404850D01*
X86019650Y-9338912D01*
X86021732Y-9334196D01*
X86022084Y-9331523D01*
X86037687Y-9298060D01*
X86062401Y-9242091D01*
X86137241Y-9167251D01*
X86193210Y-9142537D01*
X86226673Y-9126934D01*
X86229346Y-9126582D01*
X86234062Y-9124500D01*
X86300000Y-9116850D01*
X87200000Y-9116850D01*
X87265938Y-9124500D01*
G37*
G36*
X72513722Y-7528333D02*
G01*
X72526721Y-7535464D01*
X72536001Y-7547028D01*
X72540150Y-7561262D01*
X72731893Y-9752890D01*
X72730278Y-9767629D01*
X72723147Y-9780628D01*
X72711584Y-9789908D01*
X72697349Y-9794058D01*
X71203057Y-9924791D01*
X71188318Y-9923177D01*
X71175319Y-9916046D01*
X71166039Y-9904482D01*
X71161890Y-9890248D01*
X70970147Y-7698620D01*
X70971762Y-7683881D01*
X70978893Y-7670882D01*
X70990456Y-7661602D01*
X71004691Y-7657452D01*
X71751837Y-7592085D01*
X72494077Y-7527148D01*
X72494078Y-7527148D01*
X72498983Y-7526719D01*
X72513722Y-7528333D01*
G37*
G36*
X58765938Y-8249500D02*
G01*
X58770653Y-8251582D01*
X58773326Y-8251934D01*
X58806770Y-8267529D01*
X58862759Y-8292251D01*
X58937599Y-8367091D01*
X58962330Y-8423101D01*
X58977915Y-8456523D01*
X58978266Y-8459193D01*
X58980350Y-8463912D01*
X58988000Y-8529850D01*
X58988000Y-9429850D01*
X58980350Y-9495788D01*
X58978266Y-9500506D01*
X58977915Y-9503176D01*
X58962338Y-9536580D01*
X58937599Y-9592609D01*
X58862759Y-9667449D01*
X58806730Y-9692188D01*
X58773326Y-9707765D01*
X58770656Y-9708116D01*
X58765938Y-9710200D01*
X58700000Y-9717850D01*
X58175000Y-9717850D01*
X58109062Y-9710200D01*
X58104343Y-9708116D01*
X58101673Y-9707765D01*
X58068251Y-9692180D01*
X58012241Y-9667449D01*
X57937401Y-9592609D01*
X57912679Y-9536620D01*
X57897084Y-9503176D01*
X57896732Y-9500503D01*
X57894650Y-9495788D01*
X57887000Y-9429850D01*
X57887000Y-8529850D01*
X57894650Y-8463912D01*
X57896732Y-8459196D01*
X57897084Y-8456523D01*
X57912687Y-8423060D01*
X57937401Y-8367091D01*
X58012241Y-8292251D01*
X58068210Y-8267537D01*
X58101673Y-8251934D01*
X58104346Y-8251582D01*
X58109062Y-8249500D01*
X58175000Y-8241850D01*
X58700000Y-8241850D01*
X58765938Y-8249500D01*
G37*
G36*
X60590938Y-8249500D02*
G01*
X60595653Y-8251582D01*
X60598326Y-8251934D01*
X60631770Y-8267529D01*
X60687759Y-8292251D01*
X60762599Y-8367091D01*
X60787330Y-8423101D01*
X60802915Y-8456523D01*
X60803266Y-8459193D01*
X60805350Y-8463912D01*
X60813000Y-8529850D01*
X60813000Y-9429850D01*
X60805350Y-9495788D01*
X60803266Y-9500506D01*
X60802915Y-9503176D01*
X60787338Y-9536580D01*
X60762599Y-9592609D01*
X60687759Y-9667449D01*
X60631730Y-9692188D01*
X60598326Y-9707765D01*
X60595656Y-9708116D01*
X60590938Y-9710200D01*
X60525000Y-9717850D01*
X60000000Y-9717850D01*
X59934062Y-9710200D01*
X59929343Y-9708116D01*
X59926673Y-9707765D01*
X59893251Y-9692180D01*
X59837241Y-9667449D01*
X59762401Y-9592609D01*
X59737679Y-9536620D01*
X59722084Y-9503176D01*
X59721732Y-9500503D01*
X59719650Y-9495788D01*
X59712000Y-9429850D01*
X59712000Y-8529850D01*
X59719650Y-8463912D01*
X59721732Y-8459196D01*
X59722084Y-8456523D01*
X59737687Y-8423060D01*
X59762401Y-8367091D01*
X59837241Y-8292251D01*
X59893210Y-8267537D01*
X59926673Y-8251934D01*
X59929346Y-8251582D01*
X59934062Y-8249500D01*
X60000000Y-8241850D01*
X60525000Y-8241850D01*
X60590938Y-8249500D01*
G37*
G36*
X75173952Y-8421819D02*
G01*
X75305661Y-8476375D01*
X75418762Y-8563160D01*
X75505547Y-8676261D01*
X75560103Y-8807970D01*
X75578711Y-8949311D01*
X75560103Y-9090652D01*
X75505547Y-9222361D01*
X75418762Y-9335462D01*
X75305661Y-9422247D01*
X75173952Y-9476803D01*
X75032611Y-9495411D01*
X74891270Y-9476803D01*
X74759561Y-9422247D01*
X74646460Y-9335462D01*
X74559675Y-9222361D01*
X74505119Y-9090652D01*
X74486511Y-8949311D01*
X74505119Y-8807970D01*
X74559675Y-8676261D01*
X74646460Y-8563160D01*
X74759561Y-8476375D01*
X74891270Y-8421819D01*
X75032611Y-8403211D01*
X75173952Y-8421819D01*
G37*
G36*
X79158730Y-8073197D02*
G01*
X79290439Y-8127753D01*
X79403540Y-8214538D01*
X79490325Y-8327639D01*
X79544881Y-8459348D01*
X79563489Y-8600689D01*
X79544881Y-8742030D01*
X79490325Y-8873739D01*
X79403540Y-8986840D01*
X79290439Y-9073625D01*
X79158730Y-9128181D01*
X79017389Y-9146789D01*
X78876048Y-9128181D01*
X78744339Y-9073625D01*
X78631238Y-8986840D01*
X78544453Y-8873739D01*
X78489897Y-8742030D01*
X78471289Y-8600689D01*
X78489897Y-8459348D01*
X78544453Y-8327639D01*
X78631238Y-8214538D01*
X78744339Y-8127753D01*
X78876048Y-8073197D01*
X79017389Y-8054589D01*
X79158730Y-8073197D01*
G37*
G36*
X82774528Y-6630628D02*
G01*
X82787527Y-6637759D01*
X82796807Y-6649323D01*
X82800956Y-6663557D01*
X82992699Y-8855185D01*
X82991084Y-8869924D01*
X82983953Y-8882923D01*
X82972390Y-8892203D01*
X82958155Y-8896353D01*
X81463863Y-9027086D01*
X81449124Y-9025472D01*
X81436125Y-9018341D01*
X81426845Y-9006777D01*
X81422696Y-8992543D01*
X81230953Y-6800915D01*
X81232568Y-6786176D01*
X81239699Y-6773177D01*
X81251262Y-6763897D01*
X81265497Y-6759747D01*
X82012643Y-6694380D01*
X82754883Y-6629443D01*
X82754884Y-6629443D01*
X82759789Y-6629014D01*
X82774528Y-6630628D01*
G37*
G36*
X90133421Y-6734283D02*
G01*
X90145749Y-6742520D01*
X90153986Y-6754848D01*
X90156879Y-6769390D01*
X90156879Y-7369390D01*
X90153986Y-7383932D01*
X90145749Y-7396260D01*
X90133421Y-7404497D01*
X90118879Y-7407390D01*
X89168879Y-7407390D01*
X89154337Y-7404497D01*
X89142009Y-7396260D01*
X89133772Y-7383932D01*
X89130879Y-7369390D01*
X89130879Y-6769390D01*
X89133772Y-6754848D01*
X89142009Y-6742520D01*
X89154337Y-6734283D01*
X89168879Y-6731390D01*
X90118879Y-6731390D01*
X90133421Y-6734283D01*
G37*
G36*
X90976052Y-6414156D02*
G01*
X91077245Y-6465717D01*
X91157552Y-6546024D01*
X91209113Y-6647217D01*
X91226879Y-6759390D01*
X91209113Y-6871563D01*
X91157552Y-6972756D01*
X91077245Y-7053063D01*
X90976052Y-7104624D01*
X90863879Y-7122390D01*
X90751706Y-7104624D01*
X90650513Y-7053063D01*
X90570206Y-6972756D01*
X90518645Y-6871563D01*
X90500879Y-6759390D01*
X90518645Y-6647217D01*
X90570206Y-6546024D01*
X90650513Y-6465717D01*
X90751706Y-6414156D01*
X90863879Y-6396390D01*
X90976052Y-6414156D01*
G37*
G36*
X58765938Y-5649500D02*
G01*
X58770653Y-5651582D01*
X58773326Y-5651934D01*
X58806770Y-5667529D01*
X58862759Y-5692251D01*
X58937599Y-5767091D01*
X58962330Y-5823101D01*
X58977915Y-5856523D01*
X58978266Y-5859193D01*
X58980350Y-5863912D01*
X58988000Y-5929850D01*
X58988000Y-6829850D01*
X58980350Y-6895788D01*
X58978266Y-6900506D01*
X58977915Y-6903176D01*
X58962338Y-6936580D01*
X58937599Y-6992609D01*
X58862759Y-7067449D01*
X58806730Y-7092188D01*
X58773326Y-7107765D01*
X58770656Y-7108116D01*
X58765938Y-7110200D01*
X58700000Y-7117850D01*
X58175000Y-7117850D01*
X58109062Y-7110200D01*
X58104343Y-7108116D01*
X58101673Y-7107765D01*
X58068251Y-7092180D01*
X58012241Y-7067449D01*
X57937401Y-6992609D01*
X57912679Y-6936620D01*
X57897084Y-6903176D01*
X57896732Y-6900503D01*
X57894650Y-6895788D01*
X57887000Y-6829850D01*
X57887000Y-5929850D01*
X57894650Y-5863912D01*
X57896732Y-5859196D01*
X57897084Y-5856523D01*
X57912687Y-5823060D01*
X57937401Y-5767091D01*
X58012241Y-5692251D01*
X58068210Y-5667537D01*
X58101673Y-5651934D01*
X58104346Y-5651582D01*
X58109062Y-5649500D01*
X58175000Y-5641850D01*
X58700000Y-5641850D01*
X58765938Y-5649500D01*
G37*
G36*
X60590938Y-5649500D02*
G01*
X60595653Y-5651582D01*
X60598326Y-5651934D01*
X60631770Y-5667529D01*
X60687759Y-5692251D01*
X60762599Y-5767091D01*
X60787330Y-5823101D01*
X60802915Y-5856523D01*
X60803266Y-5859193D01*
X60805350Y-5863912D01*
X60813000Y-5929850D01*
X60813000Y-6829850D01*
X60805350Y-6895788D01*
X60803266Y-6900506D01*
X60802915Y-6903176D01*
X60787338Y-6936580D01*
X60762599Y-6992609D01*
X60687759Y-7067449D01*
X60631730Y-7092188D01*
X60598326Y-7107765D01*
X60595656Y-7108116D01*
X60590938Y-7110200D01*
X60525000Y-7117850D01*
X60000000Y-7117850D01*
X59934062Y-7110200D01*
X59929343Y-7108116D01*
X59926673Y-7107765D01*
X59893251Y-7092180D01*
X59837241Y-7067449D01*
X59762401Y-6992609D01*
X59737679Y-6936620D01*
X59722084Y-6903176D01*
X59721732Y-6900503D01*
X59719650Y-6895788D01*
X59712000Y-6829850D01*
X59712000Y-5929850D01*
X59719650Y-5863912D01*
X59721732Y-5859196D01*
X59722084Y-5856523D01*
X59737687Y-5823060D01*
X59762401Y-5767091D01*
X59837241Y-5692251D01*
X59893210Y-5667537D01*
X59926673Y-5651934D01*
X59929346Y-5651582D01*
X59934062Y-5649500D01*
X60000000Y-5641850D01*
X60525000Y-5641850D01*
X60590938Y-5649500D01*
G37*
G36*
X90133421Y-5934283D02*
G01*
X90145749Y-5942520D01*
X90153986Y-5954848D01*
X90156879Y-5969390D01*
X90156879Y-6569390D01*
X90153986Y-6583932D01*
X90145749Y-6596260D01*
X90133421Y-6604497D01*
X90118879Y-6607390D01*
X89168879Y-6607390D01*
X89154337Y-6604497D01*
X89142009Y-6596260D01*
X89133772Y-6583932D01*
X89130879Y-6569390D01*
X89130879Y-5969390D01*
X89133772Y-5954848D01*
X89142009Y-5942520D01*
X89154337Y-5934283D01*
X89168879Y-5931390D01*
X90118879Y-5931390D01*
X90133421Y-5934283D01*
G37*
G36*
X90133421Y-5434283D02*
G01*
X90145749Y-5442520D01*
X90153986Y-5454848D01*
X90156879Y-5469390D01*
X90156879Y-5769390D01*
X90153986Y-5783932D01*
X90145749Y-5796260D01*
X90133421Y-5804497D01*
X90118879Y-5807390D01*
X89168879Y-5807390D01*
X89154337Y-5804497D01*
X89142009Y-5796260D01*
X89133772Y-5783932D01*
X89130879Y-5769390D01*
X89130879Y-5469390D01*
X89133772Y-5454848D01*
X89142009Y-5442520D01*
X89154337Y-5434283D01*
X89168879Y-5431390D01*
X90118879Y-5431390D01*
X90133421Y-5434283D01*
G37*
G36*
X40088880Y-3737713D02*
G01*
X40121842Y-3759737D01*
X40840263Y-4478158D01*
X40862287Y-4511120D01*
X40870020Y-4550000D01*
X40862287Y-4588880D01*
X40840263Y-4621842D01*
X40121842Y-5340263D01*
X40088880Y-5362287D01*
X40050000Y-5370020D01*
X40011120Y-5362287D01*
X39978158Y-5340263D01*
X39259737Y-4621842D01*
X39237713Y-4588880D01*
X39229980Y-4550000D01*
X39237713Y-4511120D01*
X39259737Y-4478158D01*
X39978158Y-3759737D01*
X40011120Y-3737713D01*
X40050000Y-3729980D01*
X40088880Y-3737713D01*
G37*
G36*
X90133421Y-4934283D02*
G01*
X90145749Y-4942520D01*
X90153986Y-4954848D01*
X90156879Y-4969390D01*
X90156879Y-5269390D01*
X90153986Y-5283932D01*
X90145749Y-5296260D01*
X90133421Y-5304497D01*
X90118879Y-5307390D01*
X89168879Y-5307390D01*
X89154337Y-5304497D01*
X89142009Y-5296260D01*
X89133772Y-5283932D01*
X89130879Y-5269390D01*
X89130879Y-4969390D01*
X89133772Y-4954848D01*
X89142009Y-4942520D01*
X89154337Y-4934283D01*
X89168879Y-4931390D01*
X90118879Y-4931390D01*
X90133421Y-4934283D01*
G37*
G36*
X90133421Y-4434283D02*
G01*
X90145749Y-4442520D01*
X90153986Y-4454848D01*
X90156879Y-4469390D01*
X90156879Y-4769390D01*
X90153986Y-4783932D01*
X90145749Y-4796260D01*
X90133421Y-4804497D01*
X90118879Y-4807390D01*
X89168879Y-4807390D01*
X89154337Y-4804497D01*
X89142009Y-4796260D01*
X89133772Y-4783932D01*
X89130879Y-4769390D01*
X89130879Y-4469390D01*
X89133772Y-4454848D01*
X89142009Y-4442520D01*
X89154337Y-4434283D01*
X89168879Y-4431390D01*
X90118879Y-4431390D01*
X90133421Y-4434283D01*
G37*
G36*
X90133421Y-3934283D02*
G01*
X90145749Y-3942520D01*
X90153986Y-3954848D01*
X90156879Y-3969390D01*
X90156879Y-4269390D01*
X90153986Y-4283932D01*
X90145749Y-4296260D01*
X90133421Y-4304497D01*
X90118879Y-4307390D01*
X89168879Y-4307390D01*
X89154337Y-4304497D01*
X89142009Y-4296260D01*
X89133772Y-4283932D01*
X89130879Y-4269390D01*
X89130879Y-3969390D01*
X89133772Y-3954848D01*
X89142009Y-3942520D01*
X89154337Y-3934283D01*
X89168879Y-3931390D01*
X90118879Y-3931390D01*
X90133421Y-3934283D01*
G37*
G36*
X58188880Y-2637713D02*
G01*
X58221842Y-2659737D01*
X58940263Y-3378158D01*
X58962287Y-3411120D01*
X58970020Y-3450000D01*
X58962287Y-3488880D01*
X58940263Y-3521842D01*
X58221842Y-4240263D01*
X58188880Y-4262287D01*
X58150000Y-4270020D01*
X58111120Y-4262287D01*
X58078158Y-4240263D01*
X57359737Y-3521842D01*
X57337713Y-3488880D01*
X57329980Y-3450000D01*
X57337713Y-3411120D01*
X57359737Y-3378158D01*
X58078158Y-2659737D01*
X58111120Y-2637713D01*
X58150000Y-2629980D01*
X58188880Y-2637713D01*
G37*
G36*
X90133421Y-3434283D02*
G01*
X90145749Y-3442520D01*
X90153986Y-3454848D01*
X90156879Y-3469390D01*
X90156879Y-3769390D01*
X90153986Y-3783932D01*
X90145749Y-3796260D01*
X90133421Y-3804497D01*
X90118879Y-3807390D01*
X89168879Y-3807390D01*
X89154337Y-3804497D01*
X89142009Y-3796260D01*
X89133772Y-3783932D01*
X89130879Y-3769390D01*
X89130879Y-3469390D01*
X89133772Y-3454848D01*
X89142009Y-3442520D01*
X89154337Y-3434283D01*
X89168879Y-3431390D01*
X90118879Y-3431390D01*
X90133421Y-3434283D01*
G37*
G36*
X42804816Y-1035413D02*
G01*
X42815963Y-1045189D01*
X42822522Y-1058487D01*
X43391924Y-3183524D01*
X43392893Y-3198319D01*
X43388127Y-3212359D01*
X43378351Y-3223506D01*
X43365053Y-3230064D01*
X41916165Y-3618293D01*
X41901369Y-3619262D01*
X41887330Y-3614497D01*
X41876183Y-3604721D01*
X41869624Y-3591423D01*
X41300222Y-1466386D01*
X41299253Y-1451591D01*
X41304019Y-1437551D01*
X41313795Y-1426404D01*
X41327093Y-1419846D01*
X41331846Y-1418572D01*
X41331849Y-1418571D01*
X42675701Y-1058487D01*
X42775981Y-1031617D01*
X42790777Y-1030648D01*
X42804816Y-1035413D01*
G37*
G36*
X90133421Y-2934283D02*
G01*
X90145749Y-2942520D01*
X90153986Y-2954848D01*
X90156879Y-2969390D01*
X90156879Y-3269390D01*
X90153986Y-3283932D01*
X90145749Y-3296260D01*
X90133421Y-3304497D01*
X90118879Y-3307390D01*
X89168879Y-3307390D01*
X89154337Y-3304497D01*
X89142009Y-3296260D01*
X89133772Y-3283932D01*
X89130879Y-3269390D01*
X89130879Y-2969390D01*
X89133772Y-2954848D01*
X89142009Y-2942520D01*
X89154337Y-2934283D01*
X89168879Y-2931390D01*
X90118879Y-2931390D01*
X90133421Y-2934283D01*
G37*
G36*
X90133421Y-2434283D02*
G01*
X90145749Y-2442520D01*
X90153986Y-2454848D01*
X90156879Y-2469390D01*
X90156879Y-2769390D01*
X90153986Y-2783932D01*
X90145749Y-2796260D01*
X90133421Y-2804497D01*
X90118879Y-2807390D01*
X89168879Y-2807390D01*
X89154337Y-2804497D01*
X89142009Y-2796260D01*
X89133772Y-2783932D01*
X89130879Y-2769390D01*
X89130879Y-2469390D01*
X89133772Y-2454848D01*
X89142009Y-2442520D01*
X89154337Y-2434283D01*
X89168879Y-2431390D01*
X90118879Y-2431390D01*
X90133421Y-2434283D01*
G37*
G36*
X45659489Y-1465146D02*
G01*
X45791198Y-1519702D01*
X45904299Y-1606487D01*
X45991084Y-1719588D01*
X46045640Y-1851297D01*
X46064248Y-1992638D01*
X46045640Y-2133979D01*
X45991084Y-2265688D01*
X45904299Y-2378789D01*
X45791198Y-2465574D01*
X45659489Y-2520130D01*
X45518148Y-2538738D01*
X45376807Y-2520130D01*
X45245098Y-2465574D01*
X45131997Y-2378789D01*
X45045212Y-2265688D01*
X44990656Y-2133979D01*
X44972048Y-1992638D01*
X44990656Y-1851297D01*
X45045212Y-1719588D01*
X45131997Y-1606487D01*
X45245098Y-1519702D01*
X45376807Y-1465146D01*
X45518148Y-1446538D01*
X45659489Y-1465146D01*
G37*
G36*
X90133421Y-1934283D02*
G01*
X90145749Y-1942520D01*
X90153986Y-1954848D01*
X90156879Y-1969390D01*
X90156879Y-2269390D01*
X90153986Y-2283932D01*
X90145749Y-2296260D01*
X90133421Y-2304497D01*
X90118879Y-2307390D01*
X89168879Y-2307390D01*
X89154337Y-2304497D01*
X89142009Y-2296260D01*
X89133772Y-2283932D01*
X89130879Y-2269390D01*
X89130879Y-1969390D01*
X89133772Y-1954848D01*
X89142009Y-1942520D01*
X89154337Y-1934283D01*
X89168879Y-1931390D01*
X90118879Y-1931390D01*
X90133421Y-1934283D01*
G37*
G36*
X90133421Y-1134283D02*
G01*
X90145749Y-1142520D01*
X90153986Y-1154848D01*
X90156879Y-1169390D01*
X90156879Y-1769390D01*
X90153986Y-1783932D01*
X90145749Y-1796260D01*
X90133421Y-1804497D01*
X90118879Y-1807390D01*
X89168879Y-1807390D01*
X89154337Y-1804497D01*
X89142009Y-1796260D01*
X89133772Y-1783932D01*
X89130879Y-1769390D01*
X89130879Y-1169390D01*
X89133772Y-1154848D01*
X89142009Y-1142520D01*
X89154337Y-1134283D01*
X89168879Y-1131390D01*
X90118879Y-1131390D01*
X90133421Y-1134283D01*
G37*
G36*
X49523193Y-429870D02*
G01*
X49654902Y-484426D01*
X49768003Y-571211D01*
X49854788Y-684312D01*
X49909344Y-816021D01*
X49927952Y-957362D01*
X49909344Y-1098703D01*
X49854788Y-1230412D01*
X49768003Y-1343513D01*
X49654902Y-1430298D01*
X49523193Y-1484854D01*
X49381852Y-1503462D01*
X49240511Y-1484854D01*
X49108802Y-1430298D01*
X48995701Y-1343513D01*
X48908916Y-1230412D01*
X48854360Y-1098703D01*
X48835752Y-957362D01*
X48854360Y-816021D01*
X48908916Y-684312D01*
X48995701Y-571211D01*
X49108802Y-484426D01*
X49240511Y-429870D01*
X49381852Y-411262D01*
X49523193Y-429870D01*
G37*
G36*
X90976052Y-634156D02*
G01*
X91077245Y-685717D01*
X91157552Y-766024D01*
X91209113Y-867217D01*
X91226879Y-979390D01*
X91209113Y-1091563D01*
X91157552Y-1192756D01*
X91077245Y-1273063D01*
X90976052Y-1324624D01*
X90863879Y-1342390D01*
X90751706Y-1324624D01*
X90650513Y-1273063D01*
X90570206Y-1192756D01*
X90518645Y-1091563D01*
X90500879Y-979390D01*
X90518645Y-867217D01*
X90570206Y-766024D01*
X90650513Y-685717D01*
X90751706Y-634156D01*
X90863879Y-616390D01*
X90976052Y-634156D01*
G37*
G36*
X90133421Y-334283D02*
G01*
X90145749Y-342520D01*
X90153986Y-354848D01*
X90156879Y-369390D01*
X90156879Y-969390D01*
X90153986Y-983932D01*
X90145749Y-996260D01*
X90133421Y-1004497D01*
X90118879Y-1007390D01*
X89168879Y-1007390D01*
X89154337Y-1004497D01*
X89142009Y-996260D01*
X89133772Y-983932D01*
X89130879Y-969390D01*
X89130879Y-369390D01*
X89133772Y-354848D01*
X89142009Y-342520D01*
X89154337Y-334283D01*
X89168879Y-331390D01*
X90118879Y-331390D01*
X90133421Y-334283D01*
G37*
G36*
X52753852Y1630423D02*
G01*
X52764999Y1620647D01*
X52771558Y1607349D01*
X53340960Y-517688D01*
X53341929Y-532483D01*
X53337163Y-546523D01*
X53327387Y-557670D01*
X53314089Y-564228D01*
X51865201Y-952457D01*
X51850405Y-953426D01*
X51836366Y-948661D01*
X51825219Y-938885D01*
X51818660Y-925587D01*
X51249258Y1199450D01*
X51248289Y1214245D01*
X51253055Y1228285D01*
X51262831Y1239432D01*
X51276129Y1245990D01*
X51280882Y1247264D01*
X51280885Y1247265D01*
X52624737Y1607349D01*
X52725017Y1634219D01*
X52739813Y1635188D01*
X52753852Y1630423D01*
G37*
G36*
X18509755Y1082984D02*
G01*
X18526858Y1082984D01*
X18585415Y1068552D01*
X18647153Y1056774D01*
X18662502Y1049551D01*
X18676106Y1046198D01*
X18732273Y1016720D01*
X18791857Y988681D01*
X18802549Y979836D01*
X18812218Y974761D01*
X18862072Y930594D01*
X18915082Y886741D01*
X18921420Y878017D01*
X18927275Y872830D01*
X18966938Y815368D01*
X19009084Y757359D01*
X19011916Y750205D01*
X19014595Y746324D01*
X19040572Y677827D01*
X19067956Y608664D01*
X19068531Y604106D01*
X19069105Y602594D01*
X19078560Y524720D01*
X19088000Y450000D01*
X19088000Y250000D01*
X19082969Y170037D01*
X19073397Y132759D01*
X19069105Y97407D01*
X19054291Y58349D01*
X19043197Y15137D01*
X19026129Y-15908D01*
X19014595Y-46323D01*
X18989118Y-83232D01*
X18966153Y-125007D01*
X18944002Y-148595D01*
X18927275Y-172829D01*
X18891397Y-204613D01*
X18856677Y-241587D01*
X18831949Y-257279D01*
X18812218Y-274760D01*
X18767052Y-298464D01*
X18721647Y-327280D01*
X18696713Y-335381D01*
X18676106Y-346197D01*
X18623576Y-359144D01*
X18569549Y-376699D01*
X18546464Y-378151D01*
X18526858Y-382984D01*
X18469654Y-382984D01*
X18409940Y-386741D01*
X18390245Y-382984D01*
X18373142Y-382984D01*
X18314590Y-368552D01*
X18252847Y-356774D01*
X18237494Y-349549D01*
X18223893Y-346197D01*
X18167735Y-316723D01*
X18108143Y-288681D01*
X18097448Y-279834D01*
X18087781Y-274760D01*
X18037929Y-230595D01*
X17984918Y-186741D01*
X17978578Y-178015D01*
X17972724Y-172829D01*
X17933055Y-115359D01*
X17890916Y-57359D01*
X17888083Y-50205D01*
X17885404Y-46323D01*
X17859412Y22211D01*
X17832044Y91336D01*
X17831468Y95893D01*
X17830894Y97407D01*
X17821429Y175358D01*
X17812000Y250000D01*
X17812000Y450000D01*
X17817031Y529963D01*
X17826600Y567235D01*
X17830894Y602594D01*
X17845710Y641663D01*
X17856803Y684863D01*
X17873865Y715901D01*
X17885404Y746324D01*
X17910887Y783245D01*
X17933847Y825007D01*
X17955991Y848589D01*
X17972724Y872830D01*
X18008613Y904625D01*
X18043323Y941587D01*
X18068043Y957276D01*
X18087781Y974761D01*
X18132961Y998474D01*
X18178353Y1027280D01*
X18203278Y1035379D01*
X18223893Y1046198D01*
X18276433Y1059148D01*
X18330451Y1076699D01*
X18353534Y1078152D01*
X18373142Y1082984D01*
X18430346Y1082984D01*
X18490060Y1086741D01*
X18509755Y1082984D01*
G37*
G36*
X20287755Y1082984D02*
G01*
X20304858Y1082984D01*
X20363415Y1068552D01*
X20425153Y1056774D01*
X20440502Y1049551D01*
X20454106Y1046198D01*
X20510273Y1016720D01*
X20569857Y988681D01*
X20580549Y979836D01*
X20590218Y974761D01*
X20640072Y930594D01*
X20693082Y886741D01*
X20699420Y878017D01*
X20705275Y872830D01*
X20744938Y815368D01*
X20787084Y757359D01*
X20789916Y750205D01*
X20792595Y746324D01*
X20818572Y677827D01*
X20845956Y608664D01*
X20846531Y604106D01*
X20847105Y602594D01*
X20856560Y524720D01*
X20866000Y450000D01*
X20866000Y250000D01*
X20860969Y170037D01*
X20851397Y132759D01*
X20847105Y97407D01*
X20832291Y58349D01*
X20821197Y15137D01*
X20804129Y-15908D01*
X20792595Y-46323D01*
X20767118Y-83232D01*
X20744153Y-125007D01*
X20722002Y-148595D01*
X20705275Y-172829D01*
X20669397Y-204613D01*
X20634677Y-241587D01*
X20609949Y-257279D01*
X20590218Y-274760D01*
X20545052Y-298464D01*
X20499647Y-327280D01*
X20474713Y-335381D01*
X20454106Y-346197D01*
X20401576Y-359144D01*
X20347549Y-376699D01*
X20324464Y-378151D01*
X20304858Y-382984D01*
X20247654Y-382984D01*
X20187940Y-386741D01*
X20168245Y-382984D01*
X20151142Y-382984D01*
X20092590Y-368552D01*
X20030847Y-356774D01*
X20015494Y-349549D01*
X20001893Y-346197D01*
X19945735Y-316723D01*
X19886143Y-288681D01*
X19875448Y-279834D01*
X19865781Y-274760D01*
X19815929Y-230595D01*
X19762918Y-186741D01*
X19756578Y-178015D01*
X19750724Y-172829D01*
X19711055Y-115359D01*
X19668916Y-57359D01*
X19666083Y-50205D01*
X19663404Y-46323D01*
X19637412Y22211D01*
X19610044Y91336D01*
X19609468Y95893D01*
X19608894Y97407D01*
X19599429Y175358D01*
X19590000Y250000D01*
X19590000Y450000D01*
X19595031Y529963D01*
X19604600Y567235D01*
X19608894Y602594D01*
X19623710Y641663D01*
X19634803Y684863D01*
X19651865Y715901D01*
X19663404Y746324D01*
X19688887Y783245D01*
X19711847Y825007D01*
X19733991Y848589D01*
X19750724Y872830D01*
X19786613Y904625D01*
X19821323Y941587D01*
X19846043Y957276D01*
X19865781Y974761D01*
X19910961Y998474D01*
X19956353Y1027280D01*
X19981278Y1035379D01*
X20001893Y1046198D01*
X20054433Y1059148D01*
X20108451Y1076699D01*
X20131534Y1078152D01*
X20151142Y1082984D01*
X20208346Y1082984D01*
X20268060Y1086741D01*
X20287755Y1082984D01*
G37*
G36*
X22065755Y1082984D02*
G01*
X22082858Y1082984D01*
X22141415Y1068552D01*
X22203153Y1056774D01*
X22218502Y1049551D01*
X22232106Y1046198D01*
X22288273Y1016720D01*
X22347857Y988681D01*
X22358549Y979836D01*
X22368218Y974761D01*
X22418072Y930594D01*
X22471082Y886741D01*
X22477420Y878017D01*
X22483275Y872830D01*
X22522938Y815368D01*
X22565084Y757359D01*
X22567916Y750205D01*
X22570595Y746324D01*
X22596572Y677827D01*
X22623956Y608664D01*
X22624531Y604106D01*
X22625105Y602594D01*
X22634560Y524720D01*
X22644000Y450000D01*
X22644000Y250000D01*
X22638969Y170037D01*
X22629397Y132759D01*
X22625105Y97407D01*
X22610291Y58349D01*
X22599197Y15137D01*
X22582129Y-15908D01*
X22570595Y-46323D01*
X22545118Y-83232D01*
X22522153Y-125007D01*
X22500002Y-148595D01*
X22483275Y-172829D01*
X22447397Y-204613D01*
X22412677Y-241587D01*
X22387949Y-257279D01*
X22368218Y-274760D01*
X22323052Y-298464D01*
X22277647Y-327280D01*
X22252713Y-335381D01*
X22232106Y-346197D01*
X22179576Y-359144D01*
X22125549Y-376699D01*
X22102464Y-378151D01*
X22082858Y-382984D01*
X22025654Y-382984D01*
X21965940Y-386741D01*
X21946245Y-382984D01*
X21929142Y-382984D01*
X21870590Y-368552D01*
X21808847Y-356774D01*
X21793494Y-349549D01*
X21779893Y-346197D01*
X21723735Y-316723D01*
X21664143Y-288681D01*
X21653448Y-279834D01*
X21643781Y-274760D01*
X21593929Y-230595D01*
X21540918Y-186741D01*
X21534578Y-178015D01*
X21528724Y-172829D01*
X21489055Y-115359D01*
X21446916Y-57359D01*
X21444083Y-50205D01*
X21441404Y-46323D01*
X21415412Y22211D01*
X21388044Y91336D01*
X21387468Y95893D01*
X21386894Y97407D01*
X21377429Y175358D01*
X21368000Y250000D01*
X21368000Y450000D01*
X21373031Y529963D01*
X21382600Y567235D01*
X21386894Y602594D01*
X21401710Y641663D01*
X21412803Y684863D01*
X21429865Y715901D01*
X21441404Y746324D01*
X21466887Y783245D01*
X21489847Y825007D01*
X21511991Y848589D01*
X21528724Y872830D01*
X21564613Y904625D01*
X21599323Y941587D01*
X21624043Y957276D01*
X21643781Y974761D01*
X21688961Y998474D01*
X21734353Y1027280D01*
X21759278Y1035379D01*
X21779893Y1046198D01*
X21832433Y1059148D01*
X21886451Y1076699D01*
X21909534Y1078152D01*
X21929142Y1082984D01*
X21986346Y1082984D01*
X22046060Y1086741D01*
X22065755Y1082984D01*
G37*
G36*
X23843755Y1082984D02*
G01*
X23860858Y1082984D01*
X23919415Y1068552D01*
X23981153Y1056774D01*
X23996502Y1049551D01*
X24010106Y1046198D01*
X24066273Y1016720D01*
X24125857Y988681D01*
X24136549Y979836D01*
X24146218Y974761D01*
X24196072Y930594D01*
X24249082Y886741D01*
X24255420Y878017D01*
X24261275Y872830D01*
X24300938Y815368D01*
X24343084Y757359D01*
X24345916Y750205D01*
X24348595Y746324D01*
X24374572Y677827D01*
X24401956Y608664D01*
X24402531Y604106D01*
X24403105Y602594D01*
X24412560Y524720D01*
X24422000Y450000D01*
X24422000Y250000D01*
X24416969Y170037D01*
X24407397Y132759D01*
X24403105Y97407D01*
X24388291Y58349D01*
X24377197Y15137D01*
X24360129Y-15908D01*
X24348595Y-46323D01*
X24323118Y-83232D01*
X24300153Y-125007D01*
X24278002Y-148595D01*
X24261275Y-172829D01*
X24225397Y-204613D01*
X24190677Y-241587D01*
X24165949Y-257279D01*
X24146218Y-274760D01*
X24101052Y-298464D01*
X24055647Y-327280D01*
X24030713Y-335381D01*
X24010106Y-346197D01*
X23957576Y-359144D01*
X23903549Y-376699D01*
X23880464Y-378151D01*
X23860858Y-382984D01*
X23803654Y-382984D01*
X23743940Y-386741D01*
X23724245Y-382984D01*
X23707142Y-382984D01*
X23648590Y-368552D01*
X23586847Y-356774D01*
X23571494Y-349549D01*
X23557893Y-346197D01*
X23501735Y-316723D01*
X23442143Y-288681D01*
X23431448Y-279834D01*
X23421781Y-274760D01*
X23371929Y-230595D01*
X23318918Y-186741D01*
X23312578Y-178015D01*
X23306724Y-172829D01*
X23267055Y-115359D01*
X23224916Y-57359D01*
X23222083Y-50205D01*
X23219404Y-46323D01*
X23193412Y22211D01*
X23166044Y91336D01*
X23165468Y95893D01*
X23164894Y97407D01*
X23155429Y175358D01*
X23146000Y250000D01*
X23146000Y450000D01*
X23151031Y529963D01*
X23160600Y567235D01*
X23164894Y602594D01*
X23179710Y641663D01*
X23190803Y684863D01*
X23207865Y715901D01*
X23219404Y746324D01*
X23244887Y783245D01*
X23267847Y825007D01*
X23289991Y848589D01*
X23306724Y872830D01*
X23342613Y904625D01*
X23377323Y941587D01*
X23402043Y957276D01*
X23421781Y974761D01*
X23466961Y998474D01*
X23512353Y1027280D01*
X23537278Y1035379D01*
X23557893Y1046198D01*
X23610433Y1059148D01*
X23664451Y1076699D01*
X23687534Y1078152D01*
X23707142Y1082984D01*
X23764346Y1082984D01*
X23824060Y1086741D01*
X23843755Y1082984D01*
G37*
G36*
X25621755Y1082984D02*
G01*
X25638858Y1082984D01*
X25697415Y1068552D01*
X25759153Y1056774D01*
X25774502Y1049551D01*
X25788106Y1046198D01*
X25844273Y1016720D01*
X25903857Y988681D01*
X25914549Y979836D01*
X25924218Y974761D01*
X25974072Y930594D01*
X26027082Y886741D01*
X26033420Y878017D01*
X26039275Y872830D01*
X26078938Y815368D01*
X26121084Y757359D01*
X26123916Y750205D01*
X26126595Y746324D01*
X26152572Y677827D01*
X26179956Y608664D01*
X26180531Y604106D01*
X26181105Y602594D01*
X26190560Y524720D01*
X26200000Y450000D01*
X26200000Y250000D01*
X26194969Y170037D01*
X26185397Y132759D01*
X26181105Y97407D01*
X26166291Y58349D01*
X26155197Y15137D01*
X26138129Y-15908D01*
X26126595Y-46323D01*
X26101118Y-83232D01*
X26078153Y-125007D01*
X26056002Y-148595D01*
X26039275Y-172829D01*
X26003397Y-204613D01*
X25968677Y-241587D01*
X25943949Y-257279D01*
X25924218Y-274760D01*
X25879052Y-298464D01*
X25833647Y-327280D01*
X25808713Y-335381D01*
X25788106Y-346197D01*
X25735576Y-359144D01*
X25681549Y-376699D01*
X25658464Y-378151D01*
X25638858Y-382984D01*
X25581654Y-382984D01*
X25521940Y-386741D01*
X25502245Y-382984D01*
X25485142Y-382984D01*
X25426590Y-368552D01*
X25364847Y-356774D01*
X25349494Y-349549D01*
X25335893Y-346197D01*
X25279735Y-316723D01*
X25220143Y-288681D01*
X25209448Y-279834D01*
X25199781Y-274760D01*
X25149929Y-230595D01*
X25096918Y-186741D01*
X25090578Y-178015D01*
X25084724Y-172829D01*
X25045055Y-115359D01*
X25002916Y-57359D01*
X25000083Y-50205D01*
X24997404Y-46323D01*
X24971412Y22211D01*
X24944044Y91336D01*
X24943468Y95893D01*
X24942894Y97407D01*
X24933429Y175358D01*
X24924000Y250000D01*
X24924000Y450000D01*
X24929031Y529963D01*
X24938600Y567235D01*
X24942894Y602594D01*
X24957710Y641663D01*
X24968803Y684863D01*
X24985865Y715901D01*
X24997404Y746324D01*
X25022887Y783245D01*
X25045847Y825007D01*
X25067991Y848589D01*
X25084724Y872830D01*
X25120613Y904625D01*
X25155323Y941587D01*
X25180043Y957276D01*
X25199781Y974761D01*
X25244961Y998474D01*
X25290353Y1027280D01*
X25315278Y1035379D01*
X25335893Y1046198D01*
X25388433Y1059148D01*
X25442451Y1076699D01*
X25465534Y1078152D01*
X25485142Y1082984D01*
X25542346Y1082984D01*
X25602060Y1086741D01*
X25621755Y1082984D01*
G37*
G36*
X27399755Y1082984D02*
G01*
X27416858Y1082984D01*
X27475415Y1068552D01*
X27537153Y1056774D01*
X27552502Y1049551D01*
X27566106Y1046198D01*
X27622273Y1016720D01*
X27681857Y988681D01*
X27692549Y979836D01*
X27702218Y974761D01*
X27752072Y930594D01*
X27805082Y886741D01*
X27811420Y878017D01*
X27817275Y872830D01*
X27856938Y815368D01*
X27899084Y757359D01*
X27901916Y750205D01*
X27904595Y746324D01*
X27930572Y677827D01*
X27957956Y608664D01*
X27958531Y604106D01*
X27959105Y602594D01*
X27968560Y524720D01*
X27978000Y450000D01*
X27978000Y250000D01*
X27972969Y170037D01*
X27963397Y132759D01*
X27959105Y97407D01*
X27944291Y58349D01*
X27933197Y15137D01*
X27916129Y-15908D01*
X27904595Y-46323D01*
X27879118Y-83232D01*
X27856153Y-125007D01*
X27834002Y-148595D01*
X27817275Y-172829D01*
X27781397Y-204613D01*
X27746677Y-241587D01*
X27721949Y-257279D01*
X27702218Y-274760D01*
X27657052Y-298464D01*
X27611647Y-327280D01*
X27586713Y-335381D01*
X27566106Y-346197D01*
X27513576Y-359144D01*
X27459549Y-376699D01*
X27436464Y-378151D01*
X27416858Y-382984D01*
X27359654Y-382984D01*
X27299940Y-386741D01*
X27280245Y-382984D01*
X27263142Y-382984D01*
X27204590Y-368552D01*
X27142847Y-356774D01*
X27127494Y-349549D01*
X27113893Y-346197D01*
X27057735Y-316723D01*
X26998143Y-288681D01*
X26987448Y-279834D01*
X26977781Y-274760D01*
X26927929Y-230595D01*
X26874918Y-186741D01*
X26868578Y-178015D01*
X26862724Y-172829D01*
X26823055Y-115359D01*
X26780916Y-57359D01*
X26778083Y-50205D01*
X26775404Y-46323D01*
X26749412Y22211D01*
X26722044Y91336D01*
X26721468Y95893D01*
X26720894Y97407D01*
X26711429Y175358D01*
X26702000Y250000D01*
X26702000Y450000D01*
X26707031Y529963D01*
X26716600Y567235D01*
X26720894Y602594D01*
X26735710Y641663D01*
X26746803Y684863D01*
X26763865Y715901D01*
X26775404Y746324D01*
X26800887Y783245D01*
X26823847Y825007D01*
X26845991Y848589D01*
X26862724Y872830D01*
X26898613Y904625D01*
X26933323Y941587D01*
X26958043Y957276D01*
X26977781Y974761D01*
X27022961Y998474D01*
X27068353Y1027280D01*
X27093278Y1035379D01*
X27113893Y1046198D01*
X27166433Y1059148D01*
X27220451Y1076699D01*
X27243534Y1078152D01*
X27263142Y1082984D01*
X27320346Y1082984D01*
X27380060Y1086741D01*
X27399755Y1082984D01*
G37*
G36*
X29177755Y1082984D02*
G01*
X29194858Y1082984D01*
X29253415Y1068552D01*
X29315153Y1056774D01*
X29330502Y1049551D01*
X29344106Y1046198D01*
X29400273Y1016720D01*
X29459857Y988681D01*
X29470549Y979836D01*
X29480218Y974761D01*
X29530072Y930594D01*
X29583082Y886741D01*
X29589420Y878017D01*
X29595275Y872830D01*
X29634938Y815368D01*
X29677084Y757359D01*
X29679916Y750205D01*
X29682595Y746324D01*
X29708572Y677827D01*
X29735956Y608664D01*
X29736531Y604106D01*
X29737105Y602594D01*
X29746560Y524720D01*
X29756000Y450000D01*
X29756000Y250000D01*
X29750969Y170037D01*
X29741397Y132759D01*
X29737105Y97407D01*
X29722291Y58349D01*
X29711197Y15137D01*
X29694129Y-15908D01*
X29682595Y-46323D01*
X29657118Y-83232D01*
X29634153Y-125007D01*
X29612002Y-148595D01*
X29595275Y-172829D01*
X29559397Y-204613D01*
X29524677Y-241587D01*
X29499949Y-257279D01*
X29480218Y-274760D01*
X29435052Y-298464D01*
X29389647Y-327280D01*
X29364713Y-335381D01*
X29344106Y-346197D01*
X29291576Y-359144D01*
X29237549Y-376699D01*
X29214464Y-378151D01*
X29194858Y-382984D01*
X29137654Y-382984D01*
X29077940Y-386741D01*
X29058245Y-382984D01*
X29041142Y-382984D01*
X28982590Y-368552D01*
X28920847Y-356774D01*
X28905494Y-349549D01*
X28891893Y-346197D01*
X28835735Y-316723D01*
X28776143Y-288681D01*
X28765448Y-279834D01*
X28755781Y-274760D01*
X28705929Y-230595D01*
X28652918Y-186741D01*
X28646578Y-178015D01*
X28640724Y-172829D01*
X28601055Y-115359D01*
X28558916Y-57359D01*
X28556083Y-50205D01*
X28553404Y-46323D01*
X28527412Y22211D01*
X28500044Y91336D01*
X28499468Y95893D01*
X28498894Y97407D01*
X28489429Y175358D01*
X28480000Y250000D01*
X28480000Y450000D01*
X28485031Y529963D01*
X28494600Y567235D01*
X28498894Y602594D01*
X28513710Y641663D01*
X28524803Y684863D01*
X28541865Y715901D01*
X28553404Y746324D01*
X28578887Y783245D01*
X28601847Y825007D01*
X28623991Y848589D01*
X28640724Y872830D01*
X28676613Y904625D01*
X28711323Y941587D01*
X28736043Y957276D01*
X28755781Y974761D01*
X28800961Y998474D01*
X28846353Y1027280D01*
X28871278Y1035379D01*
X28891893Y1046198D01*
X28944433Y1059148D01*
X28998451Y1076699D01*
X29021534Y1078152D01*
X29041142Y1082984D01*
X29098346Y1082984D01*
X29158060Y1086741D01*
X29177755Y1082984D01*
G37*
G36*
X30955755Y1082984D02*
G01*
X30972858Y1082984D01*
X31031415Y1068552D01*
X31093153Y1056774D01*
X31108502Y1049551D01*
X31122106Y1046198D01*
X31178273Y1016720D01*
X31237857Y988681D01*
X31248549Y979836D01*
X31258218Y974761D01*
X31308072Y930594D01*
X31361082Y886741D01*
X31367420Y878017D01*
X31373275Y872830D01*
X31412938Y815368D01*
X31455084Y757359D01*
X31457916Y750205D01*
X31460595Y746324D01*
X31486572Y677827D01*
X31513956Y608664D01*
X31514531Y604106D01*
X31515105Y602594D01*
X31524560Y524720D01*
X31534000Y450000D01*
X31534000Y250000D01*
X31528969Y170037D01*
X31519397Y132759D01*
X31515105Y97407D01*
X31500291Y58349D01*
X31489197Y15137D01*
X31472129Y-15908D01*
X31460595Y-46323D01*
X31435118Y-83232D01*
X31412153Y-125007D01*
X31390002Y-148595D01*
X31373275Y-172829D01*
X31337397Y-204613D01*
X31302677Y-241587D01*
X31277949Y-257279D01*
X31258218Y-274760D01*
X31213052Y-298464D01*
X31167647Y-327280D01*
X31142713Y-335381D01*
X31122106Y-346197D01*
X31069576Y-359144D01*
X31015549Y-376699D01*
X30992464Y-378151D01*
X30972858Y-382984D01*
X30915654Y-382984D01*
X30855940Y-386741D01*
X30836245Y-382984D01*
X30819142Y-382984D01*
X30760590Y-368552D01*
X30698847Y-356774D01*
X30683494Y-349549D01*
X30669893Y-346197D01*
X30613735Y-316723D01*
X30554143Y-288681D01*
X30543448Y-279834D01*
X30533781Y-274760D01*
X30483929Y-230595D01*
X30430918Y-186741D01*
X30424578Y-178015D01*
X30418724Y-172829D01*
X30379055Y-115359D01*
X30336916Y-57359D01*
X30334083Y-50205D01*
X30331404Y-46323D01*
X30305412Y22211D01*
X30278044Y91336D01*
X30277468Y95893D01*
X30276894Y97407D01*
X30267429Y175358D01*
X30258000Y250000D01*
X30258000Y450000D01*
X30263031Y529963D01*
X30272600Y567235D01*
X30276894Y602594D01*
X30291710Y641663D01*
X30302803Y684863D01*
X30319865Y715901D01*
X30331404Y746324D01*
X30356887Y783245D01*
X30379847Y825007D01*
X30401991Y848589D01*
X30418724Y872830D01*
X30454613Y904625D01*
X30489323Y941587D01*
X30514043Y957276D01*
X30533781Y974761D01*
X30578961Y998474D01*
X30624353Y1027280D01*
X30649278Y1035379D01*
X30669893Y1046198D01*
X30722433Y1059148D01*
X30776451Y1076699D01*
X30799534Y1078152D01*
X30819142Y1082984D01*
X30876346Y1082984D01*
X30936060Y1086741D01*
X30955755Y1082984D01*
G37*
G36*
X74914541Y2960107D02*
G01*
X74926869Y2951870D01*
X74935106Y2939542D01*
X74937999Y2925000D01*
X74937999Y725000D01*
X74935106Y710458D01*
X74926869Y698130D01*
X74914541Y689893D01*
X74899999Y687000D01*
X73399999Y687000D01*
X73385457Y689893D01*
X73373129Y698130D01*
X73364892Y710458D01*
X73361999Y725000D01*
X73361999Y2925000D01*
X73364892Y2939542D01*
X73373129Y2951870D01*
X73385457Y2960107D01*
X73399999Y2963000D01*
X74899999Y2963000D01*
X74914541Y2960107D01*
G37*
G36*
X85214541Y2960107D02*
G01*
X85226869Y2951870D01*
X85235106Y2939542D01*
X85237999Y2925000D01*
X85237999Y725000D01*
X85235106Y710458D01*
X85226869Y698130D01*
X85214541Y689893D01*
X85199999Y687000D01*
X83699999Y687000D01*
X83685457Y689893D01*
X83673129Y698130D01*
X83664892Y710458D01*
X83661999Y725000D01*
X83661999Y2925000D01*
X83664892Y2939542D01*
X83673129Y2951870D01*
X83685457Y2960107D01*
X83699999Y2963000D01*
X85199999Y2963000D01*
X85214541Y2960107D01*
G37*
G36*
X34088880Y2362287D02*
G01*
X34121842Y2340263D01*
X34840263Y1621842D01*
X34862287Y1588880D01*
X34870020Y1550000D01*
X34862287Y1511120D01*
X34840263Y1478158D01*
X34121842Y759737D01*
X34088880Y737713D01*
X34050000Y729980D01*
X34011120Y737713D01*
X33978158Y759737D01*
X33259737Y1478158D01*
X33237713Y1511120D01*
X33229980Y1550000D01*
X33237713Y1588880D01*
X33259737Y1621842D01*
X33978158Y2340263D01*
X34011120Y2362287D01*
X34050000Y2370020D01*
X34088880Y2362287D01*
G37*
G36*
X20315938Y3175500D02*
G01*
X20320653Y3173418D01*
X20323326Y3173066D01*
X20356770Y3157471D01*
X20412759Y3132749D01*
X20487599Y3057909D01*
X20512330Y3001899D01*
X20527915Y2968477D01*
X20528266Y2965807D01*
X20530350Y2961088D01*
X20538000Y2895150D01*
X20538000Y1945150D01*
X20530350Y1879212D01*
X20528266Y1874494D01*
X20527915Y1871824D01*
X20512338Y1838420D01*
X20487599Y1782391D01*
X20412759Y1707551D01*
X20356730Y1682812D01*
X20323326Y1667235D01*
X20320656Y1666884D01*
X20315938Y1664800D01*
X20250000Y1657150D01*
X19750000Y1657150D01*
X19684062Y1664800D01*
X19679343Y1666884D01*
X19676673Y1667235D01*
X19643251Y1682820D01*
X19587241Y1707551D01*
X19512401Y1782391D01*
X19487679Y1838380D01*
X19472084Y1871824D01*
X19471732Y1874497D01*
X19469650Y1879212D01*
X19462000Y1945150D01*
X19462000Y2895150D01*
X19469650Y2961088D01*
X19471732Y2965804D01*
X19472084Y2968477D01*
X19487687Y3001940D01*
X19512401Y3057909D01*
X19587241Y3132749D01*
X19643210Y3157463D01*
X19676673Y3173066D01*
X19679346Y3173418D01*
X19684062Y3175500D01*
X19750000Y3183150D01*
X20250000Y3183150D01*
X20315938Y3175500D01*
G37*
G36*
X22215938Y3175500D02*
G01*
X22220653Y3173418D01*
X22223326Y3173066D01*
X22256770Y3157471D01*
X22312759Y3132749D01*
X22387599Y3057909D01*
X22412330Y3001899D01*
X22427915Y2968477D01*
X22428266Y2965807D01*
X22430350Y2961088D01*
X22438000Y2895150D01*
X22438000Y1945150D01*
X22430350Y1879212D01*
X22428266Y1874494D01*
X22427915Y1871824D01*
X22412338Y1838420D01*
X22387599Y1782391D01*
X22312759Y1707551D01*
X22256730Y1682812D01*
X22223326Y1667235D01*
X22220656Y1666884D01*
X22215938Y1664800D01*
X22150000Y1657150D01*
X21650000Y1657150D01*
X21584062Y1664800D01*
X21579343Y1666884D01*
X21576673Y1667235D01*
X21543251Y1682820D01*
X21487241Y1707551D01*
X21412401Y1782391D01*
X21387679Y1838380D01*
X21372084Y1871824D01*
X21371732Y1874497D01*
X21369650Y1879212D01*
X21362000Y1945150D01*
X21362000Y2895150D01*
X21369650Y2961088D01*
X21371732Y2965804D01*
X21372084Y2968477D01*
X21387687Y3001940D01*
X21412401Y3057909D01*
X21487241Y3132749D01*
X21543210Y3157463D01*
X21576673Y3173066D01*
X21579346Y3173418D01*
X21584062Y3175500D01*
X21650000Y3183150D01*
X22150000Y3183150D01*
X22215938Y3175500D01*
G37*
G36*
X23915938Y3175500D02*
G01*
X23920653Y3173418D01*
X23923326Y3173066D01*
X23956770Y3157471D01*
X24012759Y3132749D01*
X24087599Y3057909D01*
X24112330Y3001899D01*
X24127915Y2968477D01*
X24128266Y2965807D01*
X24130350Y2961088D01*
X24138000Y2895150D01*
X24138000Y1945150D01*
X24130350Y1879212D01*
X24128266Y1874494D01*
X24127915Y1871824D01*
X24112338Y1838420D01*
X24087599Y1782391D01*
X24012759Y1707551D01*
X23956730Y1682812D01*
X23923326Y1667235D01*
X23920656Y1666884D01*
X23915938Y1664800D01*
X23850000Y1657150D01*
X23350000Y1657150D01*
X23284062Y1664800D01*
X23279343Y1666884D01*
X23276673Y1667235D01*
X23243251Y1682820D01*
X23187241Y1707551D01*
X23112401Y1782391D01*
X23087679Y1838380D01*
X23072084Y1871824D01*
X23071732Y1874497D01*
X23069650Y1879212D01*
X23062000Y1945150D01*
X23062000Y2895150D01*
X23069650Y2961088D01*
X23071732Y2965804D01*
X23072084Y2968477D01*
X23087687Y3001940D01*
X23112401Y3057909D01*
X23187241Y3132749D01*
X23243210Y3157463D01*
X23276673Y3173066D01*
X23279346Y3173418D01*
X23284062Y3175500D01*
X23350000Y3183150D01*
X23850000Y3183150D01*
X23915938Y3175500D01*
G37*
G36*
X25815938Y3175500D02*
G01*
X25820653Y3173418D01*
X25823326Y3173066D01*
X25856770Y3157471D01*
X25912759Y3132749D01*
X25987599Y3057909D01*
X26012330Y3001899D01*
X26027915Y2968477D01*
X26028266Y2965807D01*
X26030350Y2961088D01*
X26038000Y2895150D01*
X26038000Y1945150D01*
X26030350Y1879212D01*
X26028266Y1874494D01*
X26027915Y1871824D01*
X26012338Y1838420D01*
X25987599Y1782391D01*
X25912759Y1707551D01*
X25856730Y1682812D01*
X25823326Y1667235D01*
X25820656Y1666884D01*
X25815938Y1664800D01*
X25750000Y1657150D01*
X25250000Y1657150D01*
X25184062Y1664800D01*
X25179343Y1666884D01*
X25176673Y1667235D01*
X25143251Y1682820D01*
X25087241Y1707551D01*
X25012401Y1782391D01*
X24987679Y1838380D01*
X24972084Y1871824D01*
X24971732Y1874497D01*
X24969650Y1879212D01*
X24962000Y1945150D01*
X24962000Y2895150D01*
X24969650Y2961088D01*
X24971732Y2965804D01*
X24972084Y2968477D01*
X24987687Y3001940D01*
X25012401Y3057909D01*
X25087241Y3132749D01*
X25143210Y3157463D01*
X25176673Y3173066D01*
X25179346Y3173418D01*
X25184062Y3175500D01*
X25250000Y3183150D01*
X25750000Y3183150D01*
X25815938Y3175500D01*
G37*
G36*
X77441341Y2852492D02*
G01*
X77573050Y2797936D01*
X77686151Y2711151D01*
X77772936Y2598050D01*
X77827492Y2466341D01*
X77846100Y2325000D01*
X77827492Y2183659D01*
X77772936Y2051950D01*
X77686151Y1938849D01*
X77573050Y1852064D01*
X77441341Y1797508D01*
X77300000Y1778900D01*
X77158659Y1797508D01*
X77026950Y1852064D01*
X76913849Y1938849D01*
X76827064Y2051950D01*
X76772508Y2183659D01*
X76753900Y2325000D01*
X76772508Y2466341D01*
X76827064Y2598050D01*
X76913849Y2711151D01*
X77026950Y2797936D01*
X77158659Y2852492D01*
X77300000Y2871100D01*
X77441341Y2852492D01*
G37*
G36*
X81441341Y2852492D02*
G01*
X81573050Y2797936D01*
X81686151Y2711151D01*
X81772936Y2598050D01*
X81827492Y2466341D01*
X81846100Y2325000D01*
X81827492Y2183659D01*
X81772936Y2051950D01*
X81686151Y1938849D01*
X81573050Y1852064D01*
X81441341Y1797508D01*
X81300000Y1778900D01*
X81158659Y1797508D01*
X81026950Y1852064D01*
X80913849Y1938849D01*
X80827064Y2051950D01*
X80772508Y2183659D01*
X80753900Y2325000D01*
X80772508Y2466341D01*
X80827064Y2598050D01*
X80913849Y2711151D01*
X81026950Y2797936D01*
X81158659Y2852492D01*
X81300000Y2871100D01*
X81441341Y2852492D01*
G37*
G36*
X88388880Y4032437D02*
G01*
X88421842Y4010413D01*
X89140263Y3291992D01*
X89162287Y3259030D01*
X89170020Y3220150D01*
X89162287Y3181270D01*
X89140263Y3148308D01*
X88421842Y2429887D01*
X88388880Y2407863D01*
X88350000Y2400130D01*
X88311120Y2407863D01*
X88278158Y2429887D01*
X87559737Y3148308D01*
X87537713Y3181270D01*
X87529980Y3220150D01*
X87537713Y3259030D01*
X87559737Y3291992D01*
X88278158Y4010413D01*
X88311120Y4032437D01*
X88350000Y4040170D01*
X88388880Y4032437D01*
G37*
G36*
X57421910Y4050917D02*
G01*
X57454872Y4028893D01*
X58173293Y3310472D01*
X58195317Y3277510D01*
X58203050Y3238630D01*
X58195317Y3199750D01*
X58173293Y3166788D01*
X57454872Y2448367D01*
X57421910Y2426343D01*
X57383030Y2418610D01*
X57344150Y2426343D01*
X57311188Y2448367D01*
X56592767Y3166788D01*
X56570743Y3199750D01*
X56563010Y3238630D01*
X56570743Y3277510D01*
X56592767Y3310472D01*
X57311188Y4028893D01*
X57344150Y4050917D01*
X57383030Y4058650D01*
X57421910Y4050917D01*
G37*
G36*
X69385381Y4044911D02*
G01*
X69421157Y4044911D01*
X69450235Y4036373D01*
X69479296Y4032547D01*
X69518332Y4016378D01*
X69557708Y4004816D01*
X69578491Y3991460D01*
X69599783Y3982640D01*
X69638798Y3952703D01*
X69677430Y3927875D01*
X69689883Y3913503D01*
X69703249Y3903247D01*
X69737899Y3858090D01*
X69770627Y3820320D01*
X69776134Y3808262D01*
X69782638Y3799785D01*
X69808322Y3737778D01*
X69829746Y3690866D01*
X69830805Y3683500D01*
X69832546Y3679297D01*
X69844880Y3585610D01*
X69850000Y3550000D01*
X69844879Y3514388D01*
X69832546Y3420704D01*
X69830805Y3416502D01*
X69829746Y3409134D01*
X69808321Y3362220D01*
X69782639Y3300217D01*
X69776134Y3291741D01*
X69770627Y3279680D01*
X69737887Y3241897D01*
X69703247Y3196753D01*
X69689887Y3186502D01*
X69677430Y3172125D01*
X69638788Y3147292D01*
X69599783Y3117361D01*
X69578496Y3108544D01*
X69557708Y3095184D01*
X69518323Y3083620D01*
X69479296Y3067454D01*
X69450241Y3063629D01*
X69421157Y3055089D01*
X69385374Y3055089D01*
X69350000Y3050432D01*
X69314626Y3055089D01*
X69278843Y3055089D01*
X69249759Y3063629D01*
X69220703Y3067454D01*
X69181672Y3083621D01*
X69142292Y3095184D01*
X69121505Y3108543D01*
X69100216Y3117361D01*
X69061204Y3147296D01*
X69022570Y3172125D01*
X69010114Y3186500D01*
X68996752Y3196753D01*
X68962103Y3241907D01*
X68929373Y3279680D01*
X68923866Y3291738D01*
X68917360Y3300217D01*
X68891668Y3362243D01*
X68870254Y3409134D01*
X68869195Y3416498D01*
X68867453Y3420704D01*
X68855108Y3514471D01*
X68850000Y3550000D01*
X68855108Y3585527D01*
X68867453Y3679297D01*
X68869195Y3683504D01*
X68870254Y3690866D01*
X68891666Y3737755D01*
X68917361Y3799785D01*
X68923867Y3808265D01*
X68929373Y3820320D01*
X68962089Y3858077D01*
X68996751Y3903249D01*
X69010120Y3913509D01*
X69022570Y3927875D01*
X69061192Y3952697D01*
X69100215Y3982639D01*
X69121508Y3991459D01*
X69142292Y4004816D01*
X69181665Y4016378D01*
X69220703Y4032547D01*
X69249765Y4036374D01*
X69278843Y4044911D01*
X69314618Y4044911D01*
X69350000Y4049569D01*
X69385381Y4044911D01*
G37*
M02*
