M48
;Layer_Color=9474304
;FILE_FORMAT=2:5
INCH,LZ
;TYPE=PLATED
T1F00S00C0.01181
T2F00S00C0.01575
T3F00S00C0.01772
T4F00S00C0.02000
T5F00S00C0.02362
T7F00S00C0.02756
T8F00S00C0.03937
T9F00S00C0.04000
T10F00S00C0.04724
T11F00S00C0.10236
;TYPE=NON_PLATED
%
T01
X0366142Y-0020079
T02
X0003937Y-022441
Y-0201181
X0022441Y-0197638
X0017717Y-0192913
X0031496Y-018937
X0019685Y-0169291
X0047244
X0059055Y-0180315
X0063779Y-0177165
X0067716Y-0165748
X0080709Y-0153543
X0088583Y-0150787
X0096063Y-0161024
X009685Y-0165354
X0096457Y-0172441
X0096063Y-0179921
X0103543Y-0186614
X0112992
X0113779Y-0180315
X0111417Y-0172835
X0122835Y-0176772
X0123228Y-0186221
X0135039Y-0194882
X0132382Y-020689
X0122638
X0108957
X0099606Y-020315
X0089764Y-0201181
X0070374Y-0200886
X0074803Y-0207087
X0076772Y-0224803
X0070866Y-0236221
X0112205Y-0233465
X0120079
X0129921Y-0233256
X0137402Y-0225197
Y-0214567
X0105118Y-0225197
X0106693Y-0159055
X0114567
X0120866
X0130709Y-0151181
X0140945Y-0162598
X0142913Y-0176772
X0147638Y-0172835
X0161811Y-0174409
X0166929Y-0175984
X0170866Y-0179528
X0185433Y-0179134
X0186221Y-0152756
X0160236Y-0161417
X0040157Y-019685
X003937Y-0216535
X0223228Y-0215748
X0232283Y-0199606
X0228346Y-0187008
X0212992
X0209055Y-0178347
X0211024Y-0164173
X0237795Y-0159055
X0237008Y-0178347
X0246063Y-0185827
X0270866Y-0187402
X0284646Y-0177165
X0297232Y-0178656
X0309449Y-0173622
X0330709Y-017874
X0302362Y-0151969
X0268898Y-0154331
X0286614Y-0196063
X02Y-0185827
X0358268Y-0149213
X035748Y-0130709
X0368898Y-0117323
X0356299Y-010315
X0364567Y-0090945
X0366535Y-0069291
X0356299Y-0067323
X0352756Y-0078347
X0360236Y-0044882
X036063Y-0032677
X0360236Y0000394
X0343307Y-0014173
X0332677Y-0020472
X0332677Y-0025591
X0327953Y-0037008
X0344882Y-0032677
X0334646Y-0053543
X0322441Y-0054724
X0323622Y-0063779
X0322441Y-0072047
X0337402Y-0070866
X0309842Y-0055905
X0308661Y-0040157
X0287008Y-0040945
X0289764Y-0034646
X0288583Y-0020079
X0288189Y-0011811
X0298425Y-0011417
X0330315Y-0009055
Y0002756
X028937Y-0054724
X0290945Y-0068504
X029252Y-0074803
X0266535Y-0077559
X0264173Y-0061811
X027441Y-0053543
X0266535Y-004252
X0248819
X0233071Y-0055512
X0234252Y-0062992
X0216929Y-006063
X0209842Y-0064567
X0201181Y-0079921
X0191732Y-0081496
X019252Y-0051968
X0201575Y-0035433
X0213386Y-0043701
X0217717Y-0048425
X0219291Y-0025591
X0243307Y-0012992
X0233858Y-0088583
X0233465Y-0104331
X0209449Y-0098425
X022126Y-0080315
X0236221Y-0132677
X0243307Y-0147244
X0209449Y-014252
X032559
X0159843Y-0140157
X0150394Y-0117717
X0162205Y-0107087
X0134252Y-0107874
X0123228Y-0101575
X0111811Y-0107874
X0109843Y-012126
Y-0127165
X0103937
Y-012126
X0094488Y-0110236
X008937Y-0096063
X0104724Y-0089764
Y-007559
X0116929
X0133858Y-0061811
X0157087Y-0043307
Y-0023622
X0136614Y-0005512
X0129921Y-0004331
X0084252Y-0012598
X0073622Y-001811
X0066142Y-0037402
Y-0059449
X0083858Y-0053937
X0085433Y-0069291
X0077165Y-010748
X0067323Y-0111811
X0066929Y-0133858
X0083858
X0084646Y-0123228
X0129528Y-012126
X0149213Y-008937
X0179528Y-0087402
X0170866Y-0073622
X0180709Y-0046063
X0185433Y-0038583
X003937Y-0023622
Y-0003937
X0051575
X0048819Y-0012205
X0005906Y-0005512
Y-002126
T03
X0131496Y-0088976
X0134646
Y-0074803
X0131496
T04
X0014173Y-0233465
X0005512Y-0192913
X0047244Y-0234252
X0090551
X0137795
X0158661Y-0225197
X0160236Y-0196063
X0208268Y-0198425
X0213212Y-0225453
X0297638Y-0208268
X0303543Y-0188583
X0351969Y-0187008
X0371654Y-0162598
X0379528Y-0136614
X0383465Y-0108661
X0379134Y-008937
X0385827Y-0059055
X037126Y-0004331
X0244225Y-0001226
X0247244Y-0027559
X0211417Y-0117717
X0174803Y-0059449
X0154724Y-0057874
X0148425Y-0070866
X0115748Y-0090551
X0075984Y-0092126
X0175984Y-003189
X0152362Y-0007874
T05
X0375984Y-0041024
X0138189Y-0074803
X0127953
Y-0088976
X0138189
T07
X0094445Y-0054724
X0101445
X0108445
X0115445
X0122445
X0129445
X0136445
X0143445
X0139945Y-0012598
X0132945
X0125945
X0118945
X0111945
X0104945
X0097945
X0090945
T08
X0049449Y-0202913
X0059449
Y-0192913
Y-0212913
T09
X0049449Y-0212913
Y-0192913
X0142126Y-0144252
Y-0134252
T10
X0245789Y-0217214
X0261298Y-0214479
X0264302Y-0169879
X027999Y-0168507
X0313022Y-0165647
X032871Y-0164274
X0329399Y-0047837
X0313711Y-004921
X0322638Y-0004823
X0338386
X0212724Y-0017745
X0197512Y-0021821
T11
X0027559Y-0222835
X0359055Y-0170079
X0379528Y-0077165
M30
