%TF.GenerationSoftware,Altium Limited,DefaultClient, ()*%
G04 Layer_Color=0*
%FSLAX26Y26*%
%MOIN*%
%TF.SameCoordinates,DAAB6657-3A95-45CE-84E1-7A21F4FC2F2A*%
%TF.FilePolarity,Positive*%
%TF.FileFunction,Profile,NP*%
%TF.Part,Single*%
G01*
G75*
%TA.AperFunction,Profile*%
%ADD85C,0.001000*%
G36*
X2402963Y-1347771D02*
X2368650Y-955568D01*
X2367975Y-947856D01*
X2368650Y-932389D01*
X2371339Y-917141D01*
X2375995Y-902375D01*
X2382538Y-888343D01*
X2390857Y-875285D01*
X2400809Y-863424D01*
X2412224Y-852965D01*
X2424907Y-844084D01*
X2438640Y-836935D01*
X2453189Y-831639D01*
X2468305Y-828288D01*
X2476017Y-827614D01*
Y-827614D01*
X3378083Y-748693D01*
X3385794Y-748018D01*
X3401262Y-748694D01*
X3416510Y-751382D01*
X3431276Y-756038D01*
X3445308Y-762581D01*
X3458366Y-770900D01*
X3470227Y-780852D01*
X3480686Y-792267D01*
X3489567Y-804950D01*
X3496716Y-818683D01*
X3502012Y-833232D01*
X3505363Y-848348D01*
X3506037Y-856060D01*
X3506037Y-856060D01*
X3540351Y-1248263D01*
X3541025Y-1255975D01*
X3540350Y-1271442D01*
X3537661Y-1286690D01*
X3533006Y-1301456D01*
X3526462Y-1315488D01*
X3518144Y-1328546D01*
X3508191Y-1340407D01*
X3496776Y-1350867D01*
X3484094Y-1359747D01*
X3470360Y-1366896D01*
X3455811Y-1372191D01*
X3440696Y-1375543D01*
X3432984Y-1376217D01*
X3432984D01*
X2530918Y-1455138D01*
X2523206Y-1455812D01*
X2507738Y-1455137D01*
X2492490Y-1452449D01*
X2477724Y-1447793D01*
X2463692Y-1441250D01*
X2450634Y-1432931D01*
X2438774Y-1422979D01*
X2428314Y-1411564D01*
X2419433Y-1398881D01*
X2412284Y-1385148D01*
X2406989Y-1370599D01*
X2403638Y-1355483D01*
X2402963Y-1347771D01*
D01*
D02*
G37*
G36*
X1654169Y-1360043D02*
Y-1367126D01*
X1656121Y-1381158D01*
X1659986Y-1394786D01*
X1665691Y-1407753D01*
X1673128Y-1419810D01*
X1682155Y-1430727D01*
X1692599Y-1440298D01*
X1704262Y-1448339D01*
X1716921Y-1454696D01*
X1730336Y-1459250D01*
X1744249Y-1461912D01*
X1758397Y-1462633D01*
X1765453Y-1462016D01*
X1765453D01*
X1765453D01*
X1945566Y-1446258D01*
X1952848Y-1445621D01*
X1967143Y-1442561D01*
X1980952Y-1437762D01*
X1994063Y-1431296D01*
X2006278Y-1423264D01*
X2017408Y-1413786D01*
X2027285Y-1403009D01*
X2035758Y-1391096D01*
X2042698Y-1378229D01*
X2047998Y-1364604D01*
X2051577Y-1350430D01*
X2053382Y-1335923D01*
X2053383Y-1328614D01*
X2053383D01*
X2053678Y-978892D01*
X2053988Y-970541D01*
X2052252Y-953918D01*
X2048192Y-937705D01*
X2041890Y-922226D01*
X2033471Y-907788D01*
X2023103Y-894679D01*
X2010993Y-883161D01*
X1997381Y-873462D01*
X1982540Y-865777D01*
X1966764Y-860258D01*
X1950369Y-857014D01*
X1933680Y-856112D01*
X1925355Y-856841D01*
Y-856841D01*
X1896514Y-859364D01*
X1886471Y-860243D01*
X1867113Y-865885D01*
X1849227Y-875196D01*
X1833502Y-887816D01*
X1827022Y-895539D01*
Y-895539D01*
X1678118Y-1072996D01*
X1672361Y-1079857D01*
X1663406Y-1095368D01*
X1657280Y-1112199D01*
X1654169Y-1129838D01*
Y-1138794D01*
D01*
Y-1360043D01*
D02*
G37*
D85*
X-0Y-2283465D02*
G03*
X118110Y-2401575I118110J0D01*
G01*
Y-2401575D01*
X1521396D01*
D02*
G03*
X1657328Y-2150236I-97501J215160D01*
G01*
Y-2150237D01*
D02*
G02*
X1654169Y-2109234I264558J41002D01*
G01*
Y-2079316D01*
D02*
G02*
X1747610Y-1977343I102362J0D01*
G01*
X1924979Y-1961825D01*
D02*
G02*
X2053383Y-2079486I10294J-117661D01*
G01*
Y-2254532D01*
D02*
G03*
X2143783Y-2332404I78740J0D01*
G01*
X2146320Y-2332024D01*
X2149702Y-2331517D01*
X2153084Y-2331009D01*
X2156466Y-2330501D01*
X2159849Y-2329992D01*
X2163231Y-2329483D01*
X2166613Y-2328973D01*
X2169995Y-2328463D01*
X2173377Y-2327952D01*
X2176758Y-2327441D01*
X2180986Y-2326801D01*
X2185213Y-2326160D01*
X2189440Y-2325519D01*
X2193666Y-2324876D01*
X2197893Y-2324233D01*
X2202120Y-2323588D01*
X2206346Y-2322943D01*
X2210572Y-2322297D01*
X2214798Y-2321650D01*
X2219024Y-2321001D01*
X2223250Y-2320352D01*
X2227475Y-2319702D01*
X2231701Y-2319051D01*
X2235926Y-2318399D01*
X2240151Y-2317746D01*
X2244376Y-2317092D01*
X2248600Y-2316437D01*
X2252825Y-2315781D01*
X2257049Y-2315124D01*
X2261273Y-2314465D01*
X2266341Y-2313674D01*
X2271409Y-2312881D01*
X2276477Y-2312087D01*
X2281545Y-2311291D01*
X2286612Y-2310493D01*
X2291678Y-2309694D01*
X2296745Y-2308893D01*
X2301811Y-2308091D01*
X2306876Y-2307286D01*
X2311942Y-2306480D01*
X2317006Y-2305673D01*
X2322071Y-2304863D01*
X2327135Y-2304052D01*
X2332198Y-2303239D01*
X2337262Y-2302425D01*
X2342324Y-2301608D01*
X2347386Y-2300790D01*
X2353292Y-2299833D01*
X2359196Y-2298873D01*
X2365101Y-2297911D01*
X2371004Y-2296946D01*
X2376907Y-2295979D01*
X2382809Y-2295009D01*
X2388710Y-2294036D01*
X2394610Y-2293061D01*
X2400510Y-2292083D01*
X2406409Y-2291102D01*
X2412307Y-2290119D01*
X2418205Y-2289132D01*
X2424102Y-2288143D01*
X2429998Y-2287151D01*
X2435893Y-2286156D01*
X2441787Y-2285158D01*
X2448522Y-2284013D01*
X2455256Y-2282865D01*
X2461989Y-2281713D01*
X2468721Y-2280557D01*
X2475452Y-2279397D01*
X2482181Y-2278233D01*
X2488910Y-2277065D01*
X2493114Y-2276333D01*
X2496477Y-2275746D01*
X2499840Y-2275158D01*
X2503203Y-2274568D01*
X2506565Y-2273978D01*
X2509927Y-2273387D01*
X2513289Y-2272794D01*
X2516650Y-2272201D01*
X2520011Y-2271606D01*
X2523372Y-2271010D01*
X2526732Y-2270413D01*
X2530092Y-2269815D01*
X2533452Y-2269216D01*
X2536811Y-2268615D01*
X2540170Y-2268013D01*
X2543528Y-2267410D01*
X2546887Y-2266806D01*
X2550244Y-2266200D01*
X2553602Y-2265593D01*
X2556959Y-2264985D01*
X2561155Y-2264223D01*
X2565351Y-2263459D01*
X2569546Y-2262693D01*
X2573740Y-2261925D01*
X2577934Y-2261154D01*
X2582127Y-2260381D01*
X2586319Y-2259607D01*
X2590511Y-2258830D01*
X2594703Y-2258050D01*
X2598894Y-2257269D01*
X2603084Y-2256485D01*
X2607273Y-2255699D01*
X2611463Y-2254910D01*
X2615651Y-2254119D01*
X2619839Y-2253326D01*
X2624026Y-2252530D01*
X2628213Y-2251732D01*
X2632398Y-2250932D01*
X2636584Y-2250129D01*
X2640768Y-2249323D01*
X2644952Y-2248515D01*
X2649972Y-2247541D01*
X2654992Y-2246564D01*
X2660010Y-2245584D01*
X2665027Y-2244599D01*
X2670043Y-2243610D01*
X2675058Y-2242618D01*
X2680073Y-2241621D01*
X2685086Y-2240621D01*
X2690098Y-2239616D01*
X2695110Y-2238607D01*
X2700120Y-2237594D01*
X2705129Y-2236577D01*
X2710137Y-2235556D01*
X2715145Y-2234530D01*
X2725156Y-2232465D01*
X2735997Y-2230209D01*
X2746834Y-2227932D01*
X2757664Y-2225634D01*
X2768490Y-2223314D01*
X2779310Y-2220973D01*
X2790125Y-2218611D01*
X2800934Y-2216227D01*
X2811737Y-2213820D01*
X2823364Y-2211204D01*
X2834985Y-2208561D01*
X2846598Y-2205893D01*
X2858204Y-2203198D01*
X2869802Y-2200475D01*
X2881393Y-2197726D01*
X2892976Y-2194950D01*
X2904551Y-2192146D01*
X2916117Y-2189314D01*
X2928501Y-2186249D01*
X2940050Y-2183359D01*
X2945822Y-2181903D01*
X2951591Y-2180440D01*
X2957358Y-2178969D01*
X2963123Y-2177492D01*
X2968885Y-2176006D01*
X2974646Y-2174514D01*
X2981226Y-2172798D01*
D02*
G03*
X3069455Y-2058530I-29881J114268D01*
G01*
Y-1999015D01*
X3069455D01*
D02*
G02*
X3147169Y-1888028I118110J0D01*
G01*
X3341955Y-1817131D01*
D02*
G02*
X3447626Y-1891123I26931J-73992D01*
G01*
Y-1891332D01*
D02*
G03*
X3548134Y-1941934I62992J0D01*
G01*
X3550962Y-1939827D01*
X3554716Y-1936996D01*
D02*
G03*
X3566779Y-1927633I-428279J564205D01*
G01*
X3566779Y-1927633D01*
X3573552Y-1922190D01*
X3579897Y-1916967D01*
X3586003Y-1911825D01*
X3591699Y-1906924D01*
X3597171Y-1902121D01*
X3602422Y-1897421D01*
X3607458Y-1892830D01*
X3612455Y-1888192D01*
X3617242Y-1883670D01*
X3621824Y-1879269D01*
X3626373Y-1874829D01*
X3630722Y-1870517D01*
X3635041Y-1866169D01*
X3639165Y-1861955D01*
X3643099Y-1857878D01*
X3646844Y-1853944D01*
X3650566Y-1849983D01*
X3654265Y-1845996D01*
X3658099Y-1841809D01*
X3661907Y-1837594D01*
X3665846Y-1833176D01*
X3669756Y-1828729D01*
X3673793Y-1824076D01*
X3677799Y-1819394D01*
X3681925Y-1814502D01*
X3686169Y-1809398D01*
X3690377Y-1804264D01*
X3694695Y-1798915D01*
X3699121Y-1793349D01*
X3703650Y-1787565D01*
X3708420Y-1781373D01*
X3713422Y-1774767D01*
X3713421Y-1774767D01*
D02*
G03*
X3748661Y-1717512I-292219J219328D01*
G01*
X3748661D01*
X3751788Y-1711148D01*
X3755898Y-1702636D01*
X3759943Y-1694093D01*
X3763922Y-1685521D01*
X3767837Y-1676920D01*
X3771209Y-1669371D01*
X3774533Y-1661800D01*
X3777809Y-1654207D01*
X3781037Y-1646594D01*
X3784218Y-1638960D01*
X3787352Y-1631306D01*
X3790440Y-1623632D01*
X3793482Y-1615939D01*
X3796478Y-1608226D01*
X3799429Y-1600495D01*
X3802335Y-1592745D01*
X3804791Y-1586087D01*
X3807215Y-1579417D01*
X3809607Y-1572734D01*
X3811967Y-1566037D01*
X3814295Y-1559329D01*
X3816593Y-1552608D01*
X3818860Y-1545875D01*
X3821095Y-1539131D01*
X3823301Y-1532374D01*
X3825477Y-1525607D01*
X3827623Y-1518828D01*
X3829739Y-1512038D01*
X3831827Y-1505237D01*
X3833885Y-1498426D01*
X3835914Y-1491604D01*
X3837916Y-1484773D01*
X3839889Y-1477931D01*
X3841834Y-1471080D01*
X3843751Y-1464220D01*
X3845642Y-1457350D01*
X3847197Y-1451618D01*
X3848733Y-1445880D01*
X3850250Y-1440136D01*
X3851749Y-1434386D01*
X3853231Y-1428631D01*
X3854694Y-1422870D01*
X3856139Y-1417103D01*
X3857567Y-1411331D01*
X3858977Y-1405553D01*
X3860370Y-1399771D01*
X3861745Y-1393983D01*
X3863104Y-1388190D01*
X3864712Y-1381233D01*
X3866558Y-1373108D01*
X3868371Y-1364973D01*
X3869900Y-1357994D01*
X3871405Y-1351008D01*
X3872887Y-1344017D01*
X3874347Y-1337019D01*
X3875783Y-1330015D01*
X3877197Y-1323005D01*
X3878589Y-1315989D01*
X3879959Y-1308968D01*
X3881307Y-1301941D01*
X3882633Y-1294908D01*
X3883938Y-1287870D01*
X3885221Y-1280827D01*
X3886484Y-1273779D01*
X3887725Y-1266726D01*
X3888946Y-1259667D01*
X3890147Y-1252604D01*
X3891327Y-1245537D01*
X3892488Y-1238464D01*
X3893629Y-1231388D01*
X3894750Y-1224306D01*
X3895669Y-1218402D01*
X3896576Y-1212495D01*
X3897469Y-1206585D01*
X3898349Y-1200672D01*
X3899216Y-1194756D01*
X3900070Y-1188838D01*
X3900912Y-1182918D01*
X3901741Y-1176994D01*
X3902557Y-1171069D01*
X3903361Y-1165141D01*
X3904153Y-1159210D01*
X3904933Y-1153277D01*
X3905701Y-1147342D01*
X3906457Y-1141406D01*
X3907202Y-1135466D01*
X3907935Y-1129525D01*
X3908656Y-1123582D01*
X3909366Y-1117637D01*
X3910065Y-1111690D01*
X3910752Y-1105742D01*
X3911429Y-1099792D01*
X3912095Y-1093840D01*
X3912750Y-1087886D01*
X3913394Y-1081931D01*
X3914028Y-1075975D01*
X3914528Y-1071209D01*
X3915021Y-1066442D01*
X3915508Y-1061674D01*
X3915988Y-1056905D01*
X3916462Y-1052136D01*
X3916929Y-1047366D01*
X3917390Y-1042595D01*
X3917845Y-1037824D01*
X3918956Y-1025892D01*
X3921467Y-997242D01*
X3923671Y-969763D01*
X3925594Y-943458D01*
X3927264Y-918328D01*
X3928773Y-893177D01*
X3930062Y-869204D01*
X3931099Y-847611D01*
X3932117Y-823608D01*
D02*
G03*
X3934717Y-731439I-4122691J162433D01*
G01*
Y-731439D01*
X3935189Y-693441D01*
X3935289Y-675728D01*
X3935308Y-667486D01*
X3935311Y-659259D01*
X3935297Y-651046D01*
X3935260Y-641675D01*
X3935200Y-632321D01*
X3935106Y-621813D01*
X3934983Y-611322D01*
X3934812Y-599682D01*
X3934582Y-586896D01*
X3934253Y-571803D01*
X3933763Y-553248D01*
D02*
G02*
X3947227Y-515529I55095J1596D01*
G01*
Y-515529D01*
D02*
G03*
X3964567Y-469086I-53526J46443D01*
G01*
Y-126518D01*
D02*
G03*
X3893701Y-55652I-70866J0D01*
G01*
X3819267D01*
D02*
G02*
X3778613Y-37752I0J55118D01*
G01*
X3778034Y-37122D01*
X3777454Y-36495D01*
X3776873Y-35870D01*
X3776290Y-35247D01*
X3775706Y-34627D01*
X3775121Y-34009D01*
X3774534Y-33394D01*
X3773945Y-32782D01*
X3773356Y-32172D01*
X3772765Y-31565D01*
X3772172Y-30960D01*
X3771577Y-30358D01*
X3770982Y-29759D01*
X3770384Y-29163D01*
X3769785Y-28570D01*
X3769185Y-27979D01*
X3768582Y-27391D01*
X3767979Y-26806D01*
X3767373Y-26223D01*
X3766766Y-25644D01*
X3766157Y-25067D01*
X3765547Y-24494D01*
X3765547D01*
D02*
G03*
X3761223Y-20561I-140919J-150596D01*
G01*
X3758712Y-18377D01*
X3756809Y-16768D01*
X3754889Y-15182D01*
X3752951Y-13620D01*
X3751649Y-12590D01*
X3750339Y-11571D01*
X3749021Y-10560D01*
X3747695Y-9559D01*
X3746361Y-8567D01*
X3745018Y-7584D01*
X3743667Y-6609D01*
X3742307Y-5643D01*
X3740938Y-4684D01*
X3739561Y-3734D01*
X3738175Y-2791D01*
X3736779Y-1855D01*
X3735375Y-927D01*
X3734670Y-465D01*
X3733962Y-6D01*
X3733252Y453D01*
X3732539Y909D01*
X3731825Y1364D01*
X3731108Y1817D01*
X3730388Y2269D01*
X3729666Y2720D01*
X3728216Y3615D01*
X3726756Y4505D01*
X3725287Y5389D01*
X3723809Y6267D01*
X3722322Y7138D01*
X3720828Y8004D01*
X3719325Y8863D01*
X3717814Y9716D01*
X3716296Y10562D01*
X3714770Y11402D01*
X3713238Y12236D01*
X3711698Y13063D01*
X3710152Y13883D01*
X3708600Y14697D01*
X3707041Y15505D01*
X3705477Y16305D01*
X3703907Y17100D01*
X3702331Y17887D01*
X3700751Y18667D01*
X3699165Y19441D01*
X3696778Y20589D01*
X3694382Y21721D01*
X3691977Y22837D01*
X3689564Y23937D01*
X3685526Y25736D01*
X3681469Y27490D01*
X3677392Y29200D01*
X3673297Y30867D01*
X3669182Y32491D01*
X3665877Y33760D01*
X3662559Y35002D01*
X3659229Y36218D01*
X3655888Y37407D01*
X3652534Y38571D01*
X3649168Y39709D01*
X3645790Y40822D01*
X3644096Y41368D01*
X3642400Y41909D01*
X3640700Y42444D01*
X3638998Y42972D01*
X3637293Y43494D01*
X3635585Y44010D01*
X3633874Y44521D01*
X3632160Y45025D01*
X3630443Y45523D01*
X3628724Y46016D01*
X3627002Y46503D01*
X3625277Y46985D01*
X3623549Y47460D01*
X3621818Y47931D01*
X3620085Y48395D01*
X3618349Y48854D01*
X3616611Y49308D01*
X3614870Y49757D01*
X3613126Y50200D01*
X3611380Y50638D01*
X3609631Y51071D01*
X3607880Y51498D01*
X3606126Y51921D01*
X3604370Y52338D01*
X3602611Y52751D01*
X3600849Y53159D01*
X3599086Y53561D01*
X3597320Y53959D01*
X3595551Y54353D01*
X3593780Y54742D01*
X3592007Y55126D01*
X3590231Y55505D01*
X3588454Y55880D01*
X3586673Y56251D01*
X3584891Y56617D01*
X3583106Y56978D01*
X3581320Y57336D01*
X3579531Y57689D01*
X3577740Y58038D01*
X3575946Y58383D01*
X3574151Y58724D01*
X3572353Y59061D01*
X3570554Y59394D01*
X3568752Y59723D01*
X3566948Y60048D01*
X3565143Y60369D01*
X3563335Y60687D01*
X3561525Y61001D01*
X3559714Y61311D01*
X3557900Y61618D01*
X3556085Y61921D01*
X3554267Y62221D01*
X3552448Y62517D01*
X3550627Y62810D01*
X3548805Y63100D01*
X3546980Y63386D01*
X3545154Y63670D01*
X3543326Y63950D01*
X3541496Y64227D01*
X3539665Y64501D01*
X3537832Y64772D01*
X3535997Y65040D01*
X3535079Y65173D01*
X3534161Y65305D01*
X3533243Y65437D01*
X3532324Y65568D01*
X3531404Y65698D01*
X3530485Y65827D01*
X3529565Y65956D01*
X3528644Y66084D01*
X3527723Y66212D01*
X3526802Y66338D01*
X3525881Y66464D01*
X3524959Y66590D01*
X3524037Y66715D01*
X3523114Y66839D01*
X3522191Y66962D01*
X3521268Y67085D01*
X3520345Y67208D01*
X3519421Y67329D01*
X3518497Y67450D01*
X3517573Y67571D01*
X3516648Y67691D01*
X3515723Y67810D01*
X3514798Y67929D01*
X3513872Y68047D01*
X3512946Y68165D01*
X3512020Y68282D01*
X3511093Y68398D01*
X3510167Y68514D01*
X3509240Y68630D01*
X3508312Y68744D01*
X3507385Y68859D01*
X3506457Y68973D01*
X3505529Y69086D01*
X3504601Y69199D01*
X3503672Y69311D01*
X3502743Y69423D01*
X3501814Y69534D01*
X3500885Y69645D01*
X3499955Y69755D01*
X3499026Y69865D01*
X3498096Y69975D01*
X3497166Y70084D01*
X3496235Y70192D01*
X3495304Y70300D01*
X3494374Y70408D01*
X3493443Y70515D01*
X3492511Y70622D01*
X3491580Y70728D01*
X3490648Y70834D01*
X3489716Y70940D01*
X3488784Y71045D01*
X3487852Y71150D01*
X3486920Y71254D01*
X3485987Y71358D01*
X3485054Y71462D01*
X3484121Y71565D01*
X3483188Y71668D01*
X3482255Y71770D01*
X3481322Y71873D01*
X3480388Y71975D01*
X3479455Y72076D01*
X3478521Y72177D01*
X3477587Y72278D01*
X3476653Y72379D01*
X3475718Y72479D01*
X3474784Y72579D01*
X3473850Y72679D01*
X3472915Y72778D01*
X3471980Y72877D01*
X3471046Y72976D01*
X3470111Y73075D01*
X3469176Y73173D01*
X3468241Y73271D01*
X3467305Y73369D01*
X3466370Y73466D01*
X3465435Y73564D01*
X3464499Y73661D01*
X3463564Y73758D01*
X3462628Y73854D01*
X3461692Y73951D01*
X3460757Y74047D01*
X3459821Y74143D01*
X3458885Y74239D01*
X3457949Y74335D01*
X3457013Y74430D01*
X3455141Y74621D01*
X3453269Y74810D01*
X3451396Y74999D01*
X3449524Y75188D01*
X3447651Y75376D01*
X3445778Y75563D01*
X3443905Y75749D01*
X3441095Y76027D01*
X3438285Y76304D01*
X3435474Y76579D01*
X3432663Y76852D01*
X3429851Y77123D01*
X3427040Y77393D01*
X3424227Y77661D01*
X3421415Y77927D01*
X3418602Y78192D01*
X3415789Y78454D01*
X3412976Y78715D01*
X3410162Y78974D01*
X3407348Y79231D01*
X3404534Y79485D01*
X3401719Y79738D01*
X3398904Y79989D01*
X3396089Y80238D01*
X3393273Y80485D01*
X3390457Y80730D01*
X3387641Y80973D01*
X3384825Y81213D01*
X3382008Y81452D01*
X3379191Y81688D01*
X3376374Y81922D01*
X3373557Y82154D01*
X3370739Y82384D01*
X3367921Y82611D01*
X3365103Y82836D01*
X3362284Y83059D01*
X3359466Y83280D01*
X3356647Y83498D01*
X3353827Y83713D01*
X3351008Y83926D01*
X3348189Y84137D01*
X3344429Y84414D01*
X3340669Y84687D01*
X3336908Y84955D01*
X3333147Y85219D01*
X3329386Y85478D01*
X3325624Y85732D01*
X3321862Y85981D01*
X3318100Y86226D01*
X3314337Y86466D01*
X3310575Y86700D01*
X3306811Y86930D01*
X3303048Y87155D01*
X3299285Y87374D01*
X3295521Y87589D01*
X3291756Y87798D01*
X3287992Y88002D01*
X3284228Y88200D01*
X3280463Y88393D01*
X3276698Y88581D01*
X3272933Y88763D01*
X3269167Y88939D01*
X3265402Y89109D01*
X3257870Y89434D01*
X3254104Y89587D01*
X3251280Y89698D01*
X3248455Y89806D01*
X3245631Y89911D01*
X3242806Y90013D01*
X3239981Y90111D01*
X3237156Y90207D01*
X3234331Y90299D01*
X3231506Y90389D01*
X3228680Y90476D01*
X3225855Y90559D01*
X3223030Y90640D01*
X3220204Y90718D01*
X3217378Y90793D01*
X3214553Y90865D01*
X3211727Y90935D01*
X3208901Y91001D01*
X3206075Y91065D01*
X3203248Y91127D01*
X3200422Y91186D01*
X3197596Y91242D01*
X3194769Y91295D01*
X3191942Y91346D01*
X3189115Y91395D01*
X3186288Y91441D01*
X3183461Y91484D01*
X3180634Y91525D01*
X3177807Y91564D01*
X3174979Y91600D01*
X3172152Y91634D01*
X3169324Y91666D01*
X3166496Y91696D01*
X3163668Y91723D01*
X3161782Y91740D01*
X3159897Y91756D01*
X3158011Y91771D01*
X3156125Y91785D01*
X3154240Y91798D01*
X3152354Y91811D01*
X3150468Y91822D01*
X3148582Y91832D01*
X3146696Y91842D01*
X3144810Y91851D01*
X3142924Y91858D01*
X3141037Y91865D01*
X3139151Y91871D01*
X3137265Y91876D01*
X3135378Y91881D01*
X3133492Y91884D01*
X3131605Y91887D01*
X3129718Y91889D01*
X3127832Y91890D01*
X3125945Y91890D01*
X3124058Y91890D01*
X3122171Y91889D01*
X3120284Y91887D01*
X3118397Y91884D01*
X3116510Y91880D01*
X3114622Y91876D01*
X3112735Y91871D01*
X3110847Y91866D01*
X3108960Y91859D01*
X3107072Y91852D01*
X3105184Y91844D01*
X3103297Y91836D01*
X3101409Y91827D01*
X3099521Y91817D01*
X3097633Y91807D01*
X3095744Y91796D01*
X3093856Y91784D01*
X3091968Y91772D01*
X3090079Y91759D01*
X3088191Y91745D01*
X3086302Y91731D01*
X3084414Y91716D01*
X3082525Y91701D01*
X3080636Y91685D01*
X3078747Y91669D01*
X3076858Y91652D01*
X3074969Y91635D01*
X3073079Y91617D01*
X3071190Y91598D01*
X3069300Y91579D01*
X3067411Y91560D01*
X3066466Y91550D01*
X3065521Y91540D01*
X3064576Y91529D01*
X3063631Y91519D01*
X3060797Y91488D01*
X3057962Y91455D01*
X3055126Y91421D01*
X3052291Y91387D01*
X3049455Y91351D01*
X3046619Y91314D01*
X3043783Y91276D01*
X3040947Y91237D01*
X3038111Y91197D01*
X3035274Y91156D01*
X3032437Y91114D01*
X3029601Y91070D01*
X3026764Y91025D01*
X3023926Y90979D01*
X3021089Y90932D01*
X3018251Y90884D01*
X3015414Y90834D01*
X3012576Y90783D01*
X3009738Y90731D01*
X3006901Y90678D01*
X3004063Y90623D01*
X3001224Y90567D01*
X2998386Y90510D01*
X2994602Y90431D01*
X2990818Y90351D01*
X2987033Y90267D01*
X2983249Y90182D01*
X2979464Y90094D01*
X2975679Y90003D01*
X2971894Y89910D01*
X2968109Y89814D01*
X2964325Y89716D01*
X2960540Y89615D01*
X2956755Y89511D01*
X2952970Y89405D01*
X2949186Y89296D01*
X2945401Y89184D01*
X2941617Y89069D01*
X2937832Y88951D01*
X2934048Y88831D01*
X2930264Y88708D01*
X2926480Y88582D01*
X2922696Y88453D01*
X2918912Y88320D01*
X2915129Y88185D01*
X2911346Y88047D01*
X2907563Y87906D01*
X2903780Y87761D01*
X2899997Y87614D01*
X2896215Y87463D01*
X2892433Y87309D01*
X2887706Y87112D01*
X2882035Y86869D01*
D02*
G03*
X2829313Y31803I2397J-55066D01*
G01*
Y-180191D01*
D02*
G02*
X2778706Y-235124I-55118J0D01*
G01*
X2556992Y-253331D01*
D02*
G02*
X2497363Y-198398I-4511J54933D01*
G01*
Y-12259D01*
D02*
G03*
X2430958Y41691I-55118J0D01*
G01*
X2428710Y41219D01*
X2425821Y40608D01*
X2422932Y39991D01*
X2420045Y39369D01*
X2417159Y38742D01*
X2414273Y38110D01*
X2411709Y37545D01*
X2409146Y36975D01*
X2406583Y36401D01*
X2404021Y35824D01*
X2401459Y35242D01*
X2398898Y34657D01*
X2396338Y34069D01*
X2393778Y33476D01*
X2391219Y32880D01*
X2388661Y32281D01*
X2386103Y31677D01*
X2383545Y31070D01*
X2381308Y30537D01*
X2379071Y30000D01*
X2376834Y29461D01*
X2374598Y28919D01*
X2372363Y28375D01*
X2370127Y27828D01*
X2367892Y27279D01*
X2365657Y26727D01*
X2363423Y26173D01*
X2361189Y25616D01*
X2358955Y25057D01*
X2356722Y24495D01*
X2354488Y23931D01*
X2352255Y23365D01*
X2350023Y22796D01*
X2348109Y22307D01*
X2346196Y21816D01*
X2344283Y21323D01*
X2342370Y20829D01*
X2340457Y20333D01*
X2338545Y19835D01*
X2336632Y19336D01*
X2334720Y18835D01*
X2332808Y18333D01*
X2330896Y17829D01*
X2328984Y17323D01*
X2327072Y16816D01*
X2325161Y16308D01*
X2323249Y15798D01*
X2321338Y15286D01*
X2319427Y14773D01*
X2317515Y14259D01*
X2315923Y13829D01*
X2314330Y13398D01*
X2312738Y12966D01*
X2311146Y12534D01*
X2309553Y12100D01*
X2307961Y11665D01*
X2306369Y11230D01*
X2304776Y10793D01*
X2303184Y10356D01*
X2301592Y9917D01*
X2300000Y9478D01*
X2298408Y9038D01*
X2296816Y8597D01*
X2295224Y8155D01*
X2293632Y7712D01*
X2292040Y7268D01*
X2290767Y6912D01*
X2289811Y6645D01*
X2288856Y6378D01*
X2287901Y6110D01*
X2286946Y5842D01*
X2285991Y5574D01*
X2285035Y5305D01*
X2284080Y5037D01*
X2283125Y4767D01*
X2282170Y4498D01*
X2281215Y4228D01*
X2280259Y3958D01*
X2279304Y3688D01*
X2278349Y3418D01*
X2277394Y3147D01*
X2276438Y2876D01*
X2275483Y2604D01*
X2274527Y2333D01*
X2273890Y2152D01*
X2273253Y1970D01*
X2272617Y1789D01*
X2271979Y1608D01*
X2271343Y1426D01*
X2270706Y1244D01*
X2270068Y1062D01*
X2269431Y880D01*
X2268794Y698D01*
X2268157Y516D01*
X2267520Y334D01*
X2266883Y152D01*
X2266246Y-31D01*
X2265609Y-214D01*
X2264971Y-396D01*
X2264334Y-579D01*
X2263697Y-762D01*
X2263060Y-945D01*
X2262422Y-1128D01*
X2261785Y-1311D01*
X2261148Y-1494D01*
X2260510Y-1678D01*
X2259873Y-1861D01*
X2259235Y-2045D01*
X2258598Y-2228D01*
X2257961Y-2412D01*
X2257323Y-2596D01*
X2256686Y-2780D01*
X2256048Y-2964D01*
X2255410Y-3148D01*
X2254773Y-3332D01*
X2254135Y-3516D01*
X2253497Y-3700D01*
X2252860Y-3885D01*
X2252222Y-4069D01*
X2251584Y-4254D01*
X2250946Y-4439D01*
X2250308Y-4623D01*
X2249670Y-4808D01*
X2249032Y-4993D01*
X2248394Y-5178D01*
X2247756Y-5363D01*
X2247118Y-5548D01*
X2246480Y-5733D01*
X2245842Y-5919D01*
X2245204Y-6104D01*
X2244566Y-6289D01*
X2243927Y-6475D01*
X2243289Y-6660D01*
X2242651Y-6846D01*
X2242012Y-7032D01*
X2241693Y-7125D01*
X2241374Y-7218D01*
X2241055Y-7310D01*
X2240735Y-7403D01*
X2240416Y-7496D01*
X2240097Y-7589D01*
X2239778Y-7682D01*
X2239458Y-7775D01*
X2239139Y-7868D01*
X2238820Y-7961D01*
X2238500Y-8054D01*
X2238181Y-8147D01*
X2237862Y-8240D01*
X2237542Y-8333D01*
X2237223Y-8427D01*
X2236903Y-8520D01*
X2236584Y-8613D01*
X2236265Y-8706D01*
X2235945Y-8799D01*
X2235626Y-8892D01*
X2235306Y-8985D01*
X2234987Y-9079D01*
X2234667Y-9172D01*
X2234348Y-9265D01*
X2234028Y-9358D01*
X2233709Y-9451D01*
X2233389Y-9545D01*
X2233070Y-9638D01*
X2232750Y-9731D01*
X2232431Y-9825D01*
X2232111Y-9918D01*
X2231792Y-10011D01*
X2231472Y-10105D01*
X2231152Y-10198D01*
X2230833Y-10291D01*
X2230513Y-10385D01*
X2230193Y-10478D01*
X2229874Y-10572D01*
X2229554Y-10665D01*
X2229234Y-10758D01*
X2228915Y-10852D01*
X2228595Y-10945D01*
X2228275Y-11039D01*
X2227955Y-11132D01*
X2227636Y-11226D01*
X2227316Y-11319D01*
X2226996Y-11413D01*
X2226676Y-11507D01*
X2226356Y-11600D01*
X2226037Y-11694D01*
X2225717Y-11787D01*
X2225397Y-11881D01*
X2225077Y-11974D01*
X2224757Y-12068D01*
X2224437Y-12162D01*
X2224117Y-12255D01*
X2223797Y-12349D01*
X2223477Y-12443D01*
X2223157Y-12536D01*
X2222837Y-12630D01*
X2222517Y-12723D01*
X2222197Y-12817D01*
X2221877Y-12911D01*
X2221557Y-13005D01*
X2221237Y-13098D01*
X2220917Y-13192D01*
X2220597Y-13286D01*
X2220277Y-13380D01*
X2219956Y-13473D01*
X2219636Y-13567D01*
X2219316Y-13661D01*
X2218996Y-13755D01*
X2218676Y-13848D01*
X2218356Y-13942D01*
X2218035Y-14036D01*
X2217715Y-14130D01*
X2217395Y-14224D01*
X2217075Y-14317D01*
X2216754Y-14411D01*
X2216434Y-14505D01*
X2216113Y-14599D01*
X2215793Y-14693D01*
X2215473Y-14787D01*
X2215152Y-14881D01*
X2214832Y-14975D01*
X2214512Y-15068D01*
X2214191Y-15162D01*
X2213871Y-15256D01*
X2213550Y-15350D01*
X2213230Y-15444D01*
X2212909Y-15538D01*
X2212589Y-15632D01*
X2212268Y-15726D01*
X2211948Y-15820D01*
X2211627Y-15914D01*
X2211306Y-16008D01*
X2210986Y-16102D01*
X2210665Y-16196D01*
X2210344Y-16290D01*
X2210024Y-16384D01*
X2209703Y-16477D01*
X2209382Y-16572D01*
X2209061Y-16666D01*
X2208741Y-16759D01*
X2208420Y-16854D01*
X2208099Y-16948D01*
X2207778Y-17042D01*
X2207458Y-17136D01*
X2207137Y-17230D01*
X2206816Y-17324D01*
X2206495Y-17418D01*
X2206174Y-17512D01*
X2205853Y-17606D01*
X2205532Y-17700D01*
X2205211Y-17794D01*
X2204890Y-17888D01*
X2204569Y-17982D01*
X2204248Y-18076D01*
X2203927Y-18170D01*
X2203606Y-18264D01*
X2203285Y-18358D01*
X2202964Y-18452D01*
X2202643Y-18547D01*
X2202322Y-18640D01*
X2202001Y-18735D01*
X2201679Y-18829D01*
X2201358Y-18923D01*
X2201037Y-19017D01*
X2200716Y-19111D01*
X2200394Y-19205D01*
X2200073Y-19299D01*
X2199752Y-19393D01*
X2199430Y-19487D01*
X2199109Y-19581D01*
X2198788Y-19676D01*
X2198466Y-19770D01*
X2198145Y-19864D01*
X2197823Y-19958D01*
X2197502Y-20052D01*
X2197181Y-20146D01*
X2196859Y-20240D01*
X2196538Y-20334D01*
X2196216Y-20429D01*
X2195895Y-20523D01*
X2195573Y-20617D01*
X2195251Y-20711D01*
X2194930Y-20805D01*
X2194608Y-20899D01*
X2194287Y-20993D01*
X2193965Y-21087D01*
X2193643Y-21181D01*
X2193322Y-21276D01*
X2193000Y-21370D01*
X2192678Y-21464D01*
X2192356Y-21558D01*
X2192035Y-21652D01*
X2191713Y-21746D01*
X2191391Y-21840D01*
X2191069Y-21934D01*
X2190747Y-22028D01*
X2190425Y-22122D01*
X2190104Y-22217D01*
X2189782Y-22311D01*
X2189460Y-22405D01*
X2189138Y-22499D01*
X2188816Y-22593D01*
X2188494Y-22687D01*
X2188172Y-22781D01*
X2187850Y-22875D01*
X2187528Y-22969D01*
X2187206Y-23063D01*
X2186884Y-23157D01*
X2186562Y-23251D01*
X2186240Y-23345D01*
X2185917Y-23439D01*
X2185595Y-23533D01*
X2185273Y-23628D01*
X2184951Y-23721D01*
X2184629Y-23816D01*
X2184307Y-23910D01*
X2183984Y-24003D01*
X2183662Y-24098D01*
X2183340Y-24192D01*
X2183018Y-24285D01*
X2182695Y-24380D01*
X2182373Y-24474D01*
X2182051Y-24567D01*
X2181728Y-24661D01*
X2181406Y-24755D01*
X2181084Y-24849D01*
X2180761Y-24943D01*
X2180439Y-25037D01*
X2180117Y-25131D01*
X2179794Y-25225D01*
X2179472Y-25319D01*
X2179149Y-25413D01*
X2178827Y-25507D01*
X2178504Y-25601D01*
X2178182Y-25694D01*
X2177859Y-25788D01*
X2177214Y-25976D01*
X2176569Y-26164D01*
X2175924Y-26351D01*
X2175278Y-26539D01*
X2174633Y-26726D01*
X2173988Y-26914D01*
X2173342Y-27101D01*
X2172697Y-27289D01*
X2172051Y-27476D01*
X2171406Y-27663D01*
X2170760Y-27851D01*
X2170114Y-28038D01*
X2169468Y-28225D01*
X2168823Y-28412D01*
X2168177Y-28599D01*
X2167531Y-28786D01*
X2166885Y-28973D01*
X2166239Y-29160D01*
X2165593Y-29347D01*
X2164946Y-29534D01*
X2164300Y-29721D01*
X2163654Y-29907D01*
X2163008Y-30094D01*
X2162361Y-30280D01*
X2161715Y-30467D01*
X2161068Y-30653D01*
X2160422Y-30839D01*
X2159775Y-31026D01*
X2159129Y-31212D01*
X2158482Y-31398D01*
X2157835Y-31584D01*
X2157189Y-31770D01*
X2156542Y-31956D01*
X2155895Y-32142D01*
X2155248Y-32327D01*
X2154601Y-32513D01*
X2153954Y-32698D01*
X2153307Y-32884D01*
X2152660Y-33069D01*
X2152013Y-33255D01*
X2151366Y-33440D01*
X2150719Y-33625D01*
X2150072Y-33810D01*
X2149424Y-33995D01*
X2148777Y-34180D01*
X2148130Y-34364D01*
X2147482Y-34549D01*
X2146835Y-34734D01*
X2146188Y-34918D01*
X2145540Y-35103D01*
X2144893Y-35287D01*
X2143921Y-35563D01*
X2142950Y-35839D01*
X2141979Y-36115D01*
X2141007Y-36390D01*
X2140035Y-36666D01*
X2139064Y-36941D01*
X2138092Y-37215D01*
X2137120Y-37490D01*
X2136148Y-37764D01*
X2135177Y-38038D01*
X2134204Y-38312D01*
X2133233Y-38585D01*
X2132260Y-38858D01*
X2131288Y-39131D01*
X2130316Y-39404D01*
X2129344Y-39676D01*
X2128372Y-39948D01*
X2127399Y-40220D01*
X2126427Y-40491D01*
X2125455Y-40762D01*
X2124482Y-41033D01*
X2123510Y-41304D01*
X2122537Y-41574D01*
X2121565Y-41844D01*
X2120592Y-42113D01*
X2119620Y-42382D01*
X2118647Y-42651D01*
X2117674Y-42919D01*
X2116702Y-43188D01*
X2115729Y-43455D01*
X2114756Y-43723D01*
X2113784Y-43990D01*
X2112811Y-44257D01*
X2111838Y-44523D01*
X2110541Y-44877D01*
X2110241Y-44959D01*
X2109642Y-45123D01*
X2109043Y-45286D01*
X2108444Y-45449D01*
X2107845Y-45612D01*
X2107245Y-45775D01*
X2106646Y-45938D01*
X2106047Y-46101D01*
X2105448Y-46263D01*
X2104849Y-46426D01*
X2104250Y-46588D01*
X2103651Y-46750D01*
X2103052Y-46912D01*
X2102453Y-47074D01*
X2101854Y-47235D01*
X2101255Y-47397D01*
X2100656Y-47558D01*
X2100057Y-47719D01*
X2099458Y-47880D01*
X2098859Y-48041D01*
X2098260Y-48202D01*
X2097512Y-48402D01*
X2096763Y-48603D01*
X2096014Y-48803D01*
X2095265Y-49003D01*
X2094516Y-49202D01*
X2093767Y-49402D01*
X2093018Y-49601D01*
X2092269Y-49800D01*
X2091520Y-49998D01*
X2090771Y-50197D01*
X2090022Y-50395D01*
X2089272Y-50593D01*
X2088523Y-50790D01*
X2087773Y-50987D01*
X2087024Y-51184D01*
X2086274Y-51381D01*
X2085525Y-51578D01*
X2084625Y-51813D01*
X2083725Y-52048D01*
X2082825Y-52283D01*
X2081924Y-52517D01*
X2081024Y-52751D01*
X2080123Y-52984D01*
X2079222Y-53217D01*
X2078321Y-53450D01*
X2077420Y-53682D01*
X2076518Y-53913D01*
X2075617Y-54145D01*
X2074715Y-54375D01*
X2073812Y-54606D01*
X2072759Y-54874D01*
X2071706Y-55142D01*
X2070652Y-55409D01*
X2069598Y-55675D01*
X2068544Y-55941D01*
X2067489Y-56206D01*
X2066433Y-56471D01*
X2065378Y-56734D01*
X2064321Y-56998D01*
X2063114Y-57298D01*
X2061905Y-57597D01*
X2060696Y-57895D01*
X2059487Y-58193D01*
X2058276Y-58490D01*
X2057065Y-58785D01*
X2055853Y-59080D01*
X2054641Y-59374D01*
X2053276Y-59704D01*
X2051910Y-60033D01*
X2050543Y-60360D01*
X2048109Y-60939D01*
X2045063Y-61658D01*
X2042012Y-62371D01*
X2038956Y-63077D01*
X2035894Y-63778D01*
X2032828Y-64472D01*
X2029756Y-65160D01*
X2026680Y-65841D01*
X2023600Y-66515D01*
X2020514Y-67183D01*
X2017424Y-67843D01*
X2014175Y-68529D01*
X2010921Y-69208D01*
X2007662Y-69878D01*
X2004399Y-70540D01*
X2001131Y-71194D01*
X1997859Y-71839D01*
X1994583Y-72475D01*
X1991302Y-73103D01*
X1991302D01*
D02*
G02*
X1957153Y-79062I-216872J1141925D01*
G01*
Y-79062D01*
D02*
G03*
X1805428Y-170459I37136J-233283D01*
G01*
X1805428Y-170459D01*
D02*
G02*
X1754447Y-232055I-679272J510320D01*
G01*
X1754447D01*
D02*
G03*
X1692913Y-391066I174686J-159012D01*
G01*
X1692914D01*
Y-614173D01*
D02*
G02*
X1456693Y-850394I-236220J0D01*
G01*
X787402D01*
D02*
G03*
X629921Y-1007874I0J-157480D01*
G01*
Y-1458661D01*
D02*
G02*
X433071Y-1655512I-196850J0D01*
G01*
X157480D01*
D02*
G02*
X126000Y-1625000I0J31496D01*
G01*
D02*
G02*
X157480Y-1594488I31481J-984D01*
G01*
X409449D01*
D02*
G03*
X409449Y-1279528I0J157480D01*
G01*
X157480D01*
D02*
G02*
X157480Y-1216535I0J31496D01*
G01*
X409449D01*
D02*
G03*
X409449Y-901575I0J157480D01*
G01*
X157480D01*
D02*
G02*
X157480Y-838583I0J31496D01*
G01*
Y-838583D01*
X409449D01*
D02*
G03*
X409449Y-523622I0J157480D01*
G01*
Y-523622D01*
X157480D01*
Y-523622D01*
D02*
G02*
X157480Y-460630I0J31496D01*
G01*
X409449D01*
D02*
G03*
X566929Y-303150I0J157480D01*
G01*
D02*
G02*
X629921Y-303150I31496J0D01*
G01*
X629921D01*
Y-629921D01*
D02*
G03*
X787402Y-787402I157480J0D01*
G01*
X1456693D01*
D02*
G03*
X1614173Y-629921I0J157480D01*
G01*
Y-157480D01*
D02*
G03*
X1456693Y0I-157480J0D01*
G01*
X78740Y-0D01*
Y0D01*
D02*
G03*
X0Y-78740I0J-78740D01*
G01*
Y-192913D01*
D02*
G03*
X78740Y-271654I78740J0D01*
G01*
Y-271654D01*
X409449D01*
D02*
G02*
X409449Y-334646I0J-31496D01*
G01*
X157480D01*
D02*
G03*
X157480Y-649606I0J-157480D01*
G01*
X409449D01*
D02*
G02*
X409449Y-712598I0J-31496D01*
G01*
Y-712598D01*
X157480D01*
D02*
G03*
X157480Y-1027559I0J-157480D01*
G01*
Y-1027559D01*
X409449D01*
Y-1027559D01*
D02*
G02*
X409449Y-1090551I0J-31496D01*
G01*
X157480D01*
D02*
G03*
X157480Y-1405512I0J-157480D01*
G01*
X409449D01*
D02*
G02*
X409449Y-1468504I0J-31496D01*
G01*
Y-1468504D01*
X157470D01*
Y-1468504D01*
D02*
G03*
X-2Y-1624344I0J-157480D01*
G01*
X-0Y-2283465D01*
%TF.MD5,84a891606af052acb4c4b1ad6d9af306*%
M02*
