%TF.GenerationSoftware,Altium Limited,DefaultClient, ()*%
G04 Layer_Color=8421504*
%FSLAX26Y26*%
%MOIN*%
%TF.SameCoordinates,DAAB6657-3A95-45CE-84E1-7A21F4FC2F2A*%
%TF.FilePolarity,Positive*%
%TF.FileFunction,Paste,Top*%
%TF.Part,Single*%
G01*
G75*
%TA.AperFunction,TestPad*%
G04:AMPARAMS|DCode=20|XSize=59.055mil|YSize=39.37mil|CornerRadius=5.906mil|HoleSize=0mil|Usage=FLASHONLY|Rotation=270.000|XOffset=0mil|YOffset=0mil|HoleType=Round|Shape=RoundedRectangle|*
%AMROUNDEDRECTD20*
21,1,0.059055,0.027559,0,0,270.0*
21,1,0.047244,0.039370,0,0,270.0*
1,1,0.011811,-0.013780,-0.023622*
1,1,0.011811,-0.013780,0.023622*
1,1,0.011811,0.013780,0.023622*
1,1,0.011811,0.013780,-0.023622*
%
%ADD20ROUNDEDRECTD20*%
G04:AMPARAMS|DCode=22|XSize=59.055mil|YSize=39.37mil|CornerRadius=5.906mil|HoleSize=0mil|Usage=FLASHONLY|Rotation=0.000|XOffset=0mil|YOffset=0mil|HoleType=Round|Shape=RoundedRectangle|*
%AMROUNDEDRECTD22*
21,1,0.059055,0.027559,0,0,0.0*
21,1,0.047244,0.039370,0,0,0.0*
1,1,0.011811,0.023622,-0.013780*
1,1,0.011811,-0.023622,-0.013780*
1,1,0.011811,-0.023622,0.013780*
1,1,0.011811,0.023622,0.013780*
%
%ADD22ROUNDEDRECTD22*%
G04:AMPARAMS|DCode=25|XSize=59.055mil|YSize=39.37mil|CornerRadius=5.906mil|HoleSize=0mil|Usage=FLASHONLY|Rotation=275.000|XOffset=0mil|YOffset=0mil|HoleType=Round|Shape=RoundedRectangle|*
%AMROUNDEDRECTD25*
21,1,0.059055,0.027559,0,0,275.0*
21,1,0.047244,0.039370,0,0,275.0*
1,1,0.011811,-0.011668,-0.024733*
1,1,0.011811,-0.015786,0.022331*
1,1,0.011811,0.011668,0.024733*
1,1,0.011811,0.015786,-0.022331*
%
%ADD25ROUNDEDRECTD25*%
%TA.AperFunction,NonConductor*%
%ADD58C,0.023622*%
%ADD59C,0.027559*%
%TA.AperFunction,SMDPad,CuDef*%
G04:AMPARAMS|DCode=60|XSize=90.551mil|YSize=161.417mil|CornerRadius=21.654mil|HoleSize=0mil|Usage=FLASHONLY|Rotation=185.000|XOffset=0mil|YOffset=0mil|HoleType=Round|Shape=RoundedRectangle|*
%AMROUNDEDRECTD60*
21,1,0.090551,0.118110,0,0,185.0*
21,1,0.047244,0.161417,0,0,185.0*
1,1,0.043307,-0.028679,0.056772*
1,1,0.043307,0.018385,0.060889*
1,1,0.043307,0.028679,-0.056772*
1,1,0.043307,-0.018385,-0.060889*
%
%ADD60ROUNDEDRECTD60*%
G04:AMPARAMS|DCode=61|XSize=90.551mil|YSize=161.417mil|CornerRadius=21.654mil|HoleSize=0mil|Usage=FLASHONLY|Rotation=0.000|XOffset=0mil|YOffset=0mil|HoleType=Round|Shape=RoundedRectangle|*
%AMROUNDEDRECTD61*
21,1,0.090551,0.118110,0,0,0.0*
21,1,0.047244,0.161417,0,0,0.0*
1,1,0.043307,0.023622,-0.059055*
1,1,0.043307,-0.023622,-0.059055*
1,1,0.043307,-0.023622,0.059055*
1,1,0.043307,0.023622,0.059055*
%
%ADD61ROUNDEDRECTD61*%
%TA.AperFunction,TestPad*%
G04:AMPARAMS|DCode=62|XSize=64.567mil|YSize=68.504mil|CornerRadius=18.898mil|HoleSize=0mil|Usage=FLASHONLY|Rotation=95.000|XOffset=0mil|YOffset=0mil|HoleType=Round|Shape=RoundedRectangle|*
%AMROUNDEDRECTD62*
21,1,0.064567,0.030709,0,0,95.0*
21,1,0.026772,0.068504,0,0,95.0*
1,1,0.037795,0.014129,0.014673*
1,1,0.037795,0.016463,-0.011997*
1,1,0.037795,-0.014129,-0.014673*
1,1,0.037795,-0.016463,0.011997*
%
%ADD62ROUNDEDRECTD62*%
%TA.AperFunction,SMDPad,CuDef*%
G04:AMPARAMS|DCode=63|XSize=106.299mil|YSize=129.921mil|CornerRadius=47.638mil|HoleSize=0mil|Usage=FLASHONLY|Rotation=195.000|XOffset=0mil|YOffset=0mil|HoleType=Round|Shape=RoundedRectangle|*
%AMROUNDEDRECTD63*
21,1,0.106299,0.034646,0,0,195.0*
21,1,0.011024,0.129921,0,0,195.0*
1,1,0.095276,-0.009807,0.015306*
1,1,0.095276,0.000840,0.018159*
1,1,0.095276,0.009807,-0.015306*
1,1,0.095276,-0.000840,-0.018159*
%
%ADD63ROUNDEDRECTD63*%
G04:AMPARAMS|DCode=64|XSize=67.716mil|YSize=55.906mil|CornerRadius=16.142mil|HoleSize=0mil|Usage=FLASHONLY|Rotation=0.000|XOffset=0mil|YOffset=0mil|HoleType=Round|Shape=RoundedRectangle|*
%AMROUNDEDRECTD64*
21,1,0.067716,0.023622,0,0,0.0*
21,1,0.035433,0.055906,0,0,0.0*
1,1,0.032283,0.017717,-0.011811*
1,1,0.032283,-0.017717,-0.011811*
1,1,0.032283,-0.017717,0.011811*
1,1,0.032283,0.017717,0.011811*
%
%ADD64ROUNDEDRECTD64*%
G04:AMPARAMS|DCode=65|XSize=90.551mil|YSize=161.417mil|CornerRadius=21.654mil|HoleSize=0mil|Usage=FLASHONLY|Rotation=10.000|XOffset=0mil|YOffset=0mil|HoleType=Round|Shape=RoundedRectangle|*
%AMROUNDEDRECTD65*
21,1,0.090551,0.118110,0,0,10.0*
21,1,0.047244,0.161417,0,0,10.0*
1,1,0.043307,0.033518,-0.054056*
1,1,0.043307,-0.013008,-0.062260*
1,1,0.043307,-0.033518,0.054056*
1,1,0.043307,0.013008,0.062260*
%
%ADD65ROUNDEDRECTD65*%
G04:AMPARAMS|DCode=66|XSize=77.953mil|YSize=164.567mil|CornerRadius=19.291mil|HoleSize=0mil|Usage=FLASHONLY|Rotation=5.000|XOffset=0mil|YOffset=0mil|HoleType=Round|Shape=RoundedRectangle|*
%AMROUNDEDRECTD66*
21,1,0.077953,0.125984,0,0,5.0*
21,1,0.039370,0.164567,0,0,5.0*
1,1,0.038583,0.025100,-0.061037*
1,1,0.038583,-0.014120,-0.064468*
1,1,0.038583,-0.025100,0.061037*
1,1,0.038583,0.014120,0.064468*
%
%ADD66ROUNDEDRECTD66*%
G04:AMPARAMS|DCode=67|XSize=60.63mil|YSize=68.504mil|CornerRadius=17.716mil|HoleSize=0mil|Usage=FLASHONLY|Rotation=275.000|XOffset=0mil|YOffset=0mil|HoleType=Round|Shape=RoundedRectangle|*
%AMROUNDEDRECTD67*
21,1,0.060630,0.033071,0,0,275.0*
21,1,0.025197,0.068504,0,0,275.0*
1,1,0.035433,-0.015374,-0.013992*
1,1,0.035433,-0.017571,0.011109*
1,1,0.035433,0.015374,0.013992*
1,1,0.035433,0.017571,-0.011109*
%
%ADD67ROUNDEDRECTD67*%
G04:AMPARAMS|DCode=68|XSize=11.024mil|YSize=54.331mil|CornerRadius=5.512mil|HoleSize=0mil|Usage=FLASHONLY|Rotation=0.000|XOffset=0mil|YOffset=0mil|HoleType=Round|Shape=RoundedRectangle|*
%AMROUNDEDRECTD68*
21,1,0.011024,0.043307,0,0,0.0*
21,1,0.000000,0.054331,0,0,0.0*
1,1,0.011024,0.000000,-0.021654*
1,1,0.011024,0.000000,-0.021654*
1,1,0.011024,0.000000,0.021654*
1,1,0.011024,0.000000,0.021654*
%
%ADD68ROUNDEDRECTD68*%
G04:AMPARAMS|DCode=69|XSize=11.024mil|YSize=54.331mil|CornerRadius=5.512mil|HoleSize=0mil|Usage=FLASHONLY|Rotation=90.000|XOffset=0mil|YOffset=0mil|HoleType=Round|Shape=RoundedRectangle|*
%AMROUNDEDRECTD69*
21,1,0.011024,0.043307,0,0,90.0*
21,1,0.000000,0.054331,0,0,90.0*
1,1,0.011024,0.021654,0.000000*
1,1,0.011024,0.021654,0.000000*
1,1,0.011024,-0.021654,0.000000*
1,1,0.011024,-0.021654,0.000000*
%
%ADD69ROUNDEDRECTD69*%
G04:AMPARAMS|DCode=70|XSize=59.055mil|YSize=51.181mil|CornerRadius=9.055mil|HoleSize=0mil|Usage=FLASHONLY|Rotation=180.000|XOffset=0mil|YOffset=0mil|HoleType=Round|Shape=RoundedRectangle|*
%AMROUNDEDRECTD70*
21,1,0.059055,0.033071,0,0,180.0*
21,1,0.040945,0.051181,0,0,180.0*
1,1,0.018110,-0.020473,0.016535*
1,1,0.018110,0.020473,0.016535*
1,1,0.018110,0.020473,-0.016535*
1,1,0.018110,-0.020473,-0.016535*
%
%ADD70ROUNDEDRECTD70*%
G04:AMPARAMS|DCode=71|XSize=20.472mil|YSize=36.221mil|CornerRadius=7.874mil|HoleSize=0mil|Usage=FLASHONLY|Rotation=0.000|XOffset=0mil|YOffset=0mil|HoleType=Round|Shape=RoundedRectangle|*
%AMROUNDEDRECTD71*
21,1,0.020472,0.020473,0,0,0.0*
21,1,0.004724,0.036221,0,0,0.0*
1,1,0.015748,0.002362,-0.010236*
1,1,0.015748,-0.002362,-0.010236*
1,1,0.015748,-0.002362,0.010236*
1,1,0.015748,0.002362,0.010236*
%
%ADD71ROUNDEDRECTD71*%
G04:AMPARAMS|DCode=72|XSize=90.551mil|YSize=161.417mil|CornerRadius=21.654mil|HoleSize=0mil|Usage=FLASHONLY|Rotation=195.000|XOffset=0mil|YOffset=0mil|HoleType=Round|Shape=RoundedRectangle|*
%AMROUNDEDRECTD72*
21,1,0.090551,0.118110,0,0,195.0*
21,1,0.047244,0.161417,0,0,195.0*
1,1,0.043307,-0.038102,0.050929*
1,1,0.043307,0.007533,0.063157*
1,1,0.043307,0.038102,-0.050929*
1,1,0.043307,-0.007533,-0.063157*
%
%ADD72ROUNDEDRECTD72*%
%TA.AperFunction,TestPad*%
G04:AMPARAMS|DCode=73|XSize=69.291mil|YSize=124.409mil|CornerRadius=18.898mil|HoleSize=0mil|Usage=FLASHONLY|Rotation=90.000|XOffset=0mil|YOffset=0mil|HoleType=Round|Shape=RoundedRectangle|*
%AMROUNDEDRECTD73*
21,1,0.069291,0.086614,0,0,90.0*
21,1,0.031496,0.124409,0,0,90.0*
1,1,0.037795,0.043307,0.015748*
1,1,0.037795,0.043307,-0.015748*
1,1,0.037795,-0.043307,-0.015748*
1,1,0.037795,-0.043307,0.015748*
%
%ADD73ROUNDEDRECTD73*%
G04:AMPARAMS|DCode=74|XSize=15.748mil|YSize=35.433mil|CornerRadius=4.921mil|HoleSize=0mil|Usage=FLASHONLY|Rotation=270.000|XOffset=0mil|YOffset=0mil|HoleType=Round|Shape=RoundedRectangle|*
%AMROUNDEDRECTD74*
21,1,0.015748,0.025590,0,0,270.0*
21,1,0.005905,0.035433,0,0,270.0*
1,1,0.009843,-0.012795,-0.002953*
1,1,0.009843,-0.012795,0.002953*
1,1,0.009843,0.012795,0.002953*
1,1,0.009843,0.012795,-0.002953*
%
%ADD74ROUNDEDRECTD74*%
G04:AMPARAMS|DCode=75|XSize=7.48mil|YSize=36.221mil|CornerRadius=2.146mil|HoleSize=0mil|Usage=FLASHONLY|Rotation=270.000|XOffset=0mil|YOffset=0mil|HoleType=Round|Shape=RoundedRectangle|*
%AMROUNDEDRECTD75*
21,1,0.007480,0.031929,0,0,270.0*
21,1,0.003189,0.036221,0,0,270.0*
1,1,0.004291,-0.015965,-0.001595*
1,1,0.004291,-0.015965,0.001595*
1,1,0.004291,0.015965,0.001595*
1,1,0.004291,0.015965,-0.001595*
%
%ADD75ROUNDEDRECTD75*%
G04:AMPARAMS|DCode=76|XSize=19.291mil|YSize=44.882mil|CornerRadius=7.48mil|HoleSize=0mil|Usage=FLASHONLY|Rotation=270.000|XOffset=0mil|YOffset=0mil|HoleType=Round|Shape=RoundedRectangle|*
%AMROUNDEDRECTD76*
21,1,0.019291,0.029921,0,0,270.0*
21,1,0.004331,0.044882,0,0,270.0*
1,1,0.014961,-0.014961,-0.002165*
1,1,0.014961,-0.014961,0.002165*
1,1,0.014961,0.014961,0.002165*
1,1,0.014961,0.014961,-0.002165*
%
%ADD76ROUNDEDRECTD76*%
%TA.AperFunction,SMDPad,CuDef*%
G04:AMPARAMS|DCode=77|XSize=20.472mil|YSize=36.221mil|CornerRadius=7.874mil|HoleSize=0mil|Usage=FLASHONLY|Rotation=90.000|XOffset=0mil|YOffset=0mil|HoleType=Round|Shape=RoundedRectangle|*
%AMROUNDEDRECTD77*
21,1,0.020472,0.020473,0,0,90.0*
21,1,0.004724,0.036221,0,0,90.0*
1,1,0.015748,0.010236,0.002362*
1,1,0.015748,0.010236,-0.002362*
1,1,0.015748,-0.010236,-0.002362*
1,1,0.015748,-0.010236,0.002362*
%
%ADD77ROUNDEDRECTD77*%
D20*
X3094394Y-200787D02*
D03*
X3173323D02*
D03*
X767622Y-1976378D02*
D03*
X846551D02*
D03*
X1082583Y-55118D02*
D03*
X1161512D02*
D03*
X1011905D02*
D03*
X932976D02*
D03*
X3567024Y-188976D02*
D03*
X3488095D02*
D03*
X2944787Y-200787D02*
D03*
X3023717D02*
D03*
X2417417Y-389764D02*
D03*
X2338488D02*
D03*
X2188882Y-1696850D02*
D03*
X2267811D02*
D03*
X2188882Y-1606299D02*
D03*
X2267811D02*
D03*
X956598Y-2086614D02*
D03*
X1035528D02*
D03*
X956598Y-2185039D02*
D03*
X1035528D02*
D03*
X881984Y-2169291D02*
D03*
X803055D02*
D03*
X881984Y-2074803D02*
D03*
X803055D02*
D03*
X1232189Y-1330709D02*
D03*
X1311118D02*
D03*
X1263874Y-1417323D02*
D03*
X1184945D02*
D03*
X881795Y-1421260D02*
D03*
X960725D02*
D03*
X976472Y-1338583D02*
D03*
X897543D02*
D03*
X984346Y-1232284D02*
D03*
X905417D02*
D03*
X1023716Y-972441D02*
D03*
X944787D02*
D03*
X799118Y-582677D02*
D03*
X878047D02*
D03*
D22*
X1181102Y-1157575D02*
D03*
Y-1078646D02*
D03*
X1279528Y-1157575D02*
D03*
Y-1078646D02*
D03*
X1165354Y-621953D02*
D03*
Y-700882D02*
D03*
X3562992Y-539276D02*
D03*
Y-618205D02*
D03*
X3653543Y-539276D02*
D03*
Y-618205D02*
D03*
X2527559Y-567024D02*
D03*
Y-488094D02*
D03*
X1783465Y-1795181D02*
D03*
Y-1874110D02*
D03*
X2484252Y-1996157D02*
D03*
Y-1917228D02*
D03*
X759842Y-1736315D02*
D03*
Y-1657386D02*
D03*
X1425197Y-1873921D02*
D03*
Y-1952850D02*
D03*
X1055118Y-1157575D02*
D03*
Y-1078646D02*
D03*
X834615Y-1154828D02*
D03*
Y-1075899D02*
D03*
X3625984Y-58961D02*
D03*
Y-137890D02*
D03*
X984252Y-736315D02*
D03*
Y-657386D02*
D03*
X728346Y-685134D02*
D03*
Y-606205D02*
D03*
X1082677Y-621953D02*
D03*
Y-700882D02*
D03*
D25*
X2956749Y-345959D02*
D03*
X3035377Y-339080D02*
D03*
X2716480Y-343017D02*
D03*
X2637851Y-349896D02*
D03*
X3200732Y-323332D02*
D03*
X3122103Y-330211D02*
D03*
D58*
X3855315Y-140945D02*
X3910433D01*
X3853346Y-103150D02*
X3908465D01*
X3853346Y-443307D02*
X3908465D01*
X3855315Y-481102D02*
X3910433D01*
D59*
X3702756Y-103150D02*
X3757874D01*
X3704724Y-481102D02*
X3759843D01*
D60*
X3007684Y-503422D02*
D03*
X3423419Y-467050D02*
D03*
X2513589Y-1710115D02*
D03*
X3416529Y-1631420D02*
D03*
D61*
X3513779Y-48228D02*
D03*
X3096457D02*
D03*
D62*
X3009034Y-678429D02*
D03*
X3150415Y-666059D02*
D03*
X2685215Y-705988D02*
D03*
X2826596Y-693619D02*
D03*
D63*
X1854331Y-251840D02*
D03*
D64*
X2248032Y-610236D02*
D03*
Y-484252D02*
D03*
X2437008D02*
D03*
Y-610236D02*
D03*
X2204724Y-1996063D02*
D03*
Y-1870079D02*
D03*
X2393701D02*
D03*
Y-1996063D02*
D03*
D65*
X2740924Y-2122231D02*
D03*
X2329942Y-2194698D02*
D03*
D66*
X2913583Y-1675315D02*
D03*
X3015748Y-1667323D02*
D03*
D67*
X2891572Y-1523686D02*
D03*
X2758035Y-1535369D02*
D03*
X3223265Y-1499080D02*
D03*
X3089728Y-1510763D02*
D03*
D68*
X940910Y-1511030D02*
D03*
X972407D02*
D03*
X1003903D02*
D03*
X1035399D02*
D03*
X1066895D02*
D03*
X1098391D02*
D03*
X1129887D02*
D03*
X1161383D02*
D03*
X1192879D02*
D03*
X1224375D02*
D03*
X1255871D02*
D03*
Y-1963786D02*
D03*
X1224375D02*
D03*
X1192879D02*
D03*
X1161383D02*
D03*
X1129887D02*
D03*
X1098391D02*
D03*
X1066895D02*
D03*
X1035399D02*
D03*
X1003903D02*
D03*
X972407D02*
D03*
X940910D02*
D03*
D69*
X1324769Y-1579928D02*
D03*
Y-1611424D02*
D03*
Y-1642920D02*
D03*
Y-1674416D02*
D03*
Y-1705912D02*
D03*
Y-1737408D02*
D03*
Y-1768904D02*
D03*
Y-1800400D02*
D03*
Y-1831896D02*
D03*
Y-1863392D02*
D03*
Y-1894888D02*
D03*
X872013D02*
D03*
Y-1863392D02*
D03*
Y-1831896D02*
D03*
Y-1800400D02*
D03*
Y-1768904D02*
D03*
Y-1737408D02*
D03*
Y-1705912D02*
D03*
Y-1674416D02*
D03*
Y-1642920D02*
D03*
Y-1611424D02*
D03*
Y-1579928D02*
D03*
D70*
X1122047Y-2129921D02*
D03*
X1287402D02*
D03*
Y-2240157D02*
D03*
X1122047D02*
D03*
D71*
X982284Y-1049213D02*
D03*
X944882D02*
D03*
X907480D02*
D03*
Y-1155512D02*
D03*
X982284D02*
D03*
D72*
X2252733Y-143829D02*
D03*
D73*
X3866142Y-240945D02*
D03*
Y-343307D02*
D03*
D74*
X3716535Y-170079D02*
D03*
Y-199606D02*
D03*
Y-384646D02*
D03*
Y-414173D02*
D03*
D75*
Y-223228D02*
D03*
Y-242913D02*
D03*
Y-262598D02*
D03*
Y-282283D02*
D03*
Y-301968D02*
D03*
Y-321654D02*
D03*
Y-341339D02*
D03*
Y-361024D02*
D03*
D76*
X3269685Y-277559D02*
D03*
Y-240157D02*
D03*
Y-202756D02*
D03*
X3383858D02*
D03*
Y-240157D02*
D03*
Y-277559D02*
D03*
D77*
X907480Y-655512D02*
D03*
Y-730315D02*
D03*
X801181D02*
D03*
Y-692913D02*
D03*
Y-655512D02*
D03*
%TF.MD5,e33cce920d908d1a8294a3a4f2ea3006*%
M02*
