M48
; DRILL file {KiCad 7.0.9} date Sat 17 Feb 2024 01:27:59 AM EST
; FORMAT={-:-/ absolute / inch / decimal}
; #@! TF.CreationDate,2024-02-17T01:27:59-05:00
; #@! TF.GenerationSoftware,Kicad,Pcbnew,7.0.9
; #@! TF.FileFunction,Plated,1,2,PTH
FMAT,2
INCH
; #@! TA.AperFunction,Plated,PTH,ViaDrill
T1C0.0118
; #@! TA.AperFunction,Plated,PTH,ViaDrill
T2C0.0157
; #@! TA.AperFunction,Plated,PTH,ComponentDrill
T3C0.0200
; #@! TA.AperFunction,Plated,PTH,ViaDrill
T4C0.0236
; #@! TA.AperFunction,Plated,PTH,ComponentDrill
T5C0.0236
; #@! TA.AperFunction,Plated,PTH,ComponentDrill
T6C0.0276
; #@! TA.AperFunction,Plated,PTH,ComponentDrill
T7C0.0394
; #@! TA.AperFunction,Plated,PTH,ComponentDrill
T8C0.0433
%
G90
G05
T1
X-0.0237Y-1.6764
X0.0354Y-1.6173
X0.5275Y-2.0779
X0.7637Y-1.5661
X0.7637Y-1.8102
X1.6909Y-1.5346
X1.6909Y-1.6134
X2.1398Y-0.0071
X2.7146Y-0.5346
X2.7539Y-0.385
X2.8327Y-1.5976
X3.0374Y-0.511
X3.3366Y-0.3299
X3.3917Y0.0717
X3.5669Y-0.2256
X3.5726Y-0.1374
X3.5726Y-0.187
T2
X-0.1437Y-1.637
X-0.1437Y-2.1043
X-0.124Y0.0846
X-0.124Y-0.0728
X0.1102Y-1.5897
X0.2106Y0.1004
X0.2106Y-0.0965
X0.2755Y-1.5897
X0.376Y-1.511
X0.4154Y0.0008
X0.4232Y0.1032
X0.4862Y-1.2276
X0.4902Y-0.9783
X0.5256Y-2.2224
X0.5886Y-0.6055
X0.7697Y-0.7472
X0.8957Y-0.4677
X0.939Y-2.1949
X0.9508Y-0.7472
X0.9744Y-0.6055
X1.1161Y-2.1928
X1.1319Y0.0953
X1.3681Y-0.8417
X1.3839Y-0.015
X1.3839Y-0.2118
X1.3839Y-0.385
X1.4311Y-1.259
X1.439Y-0.9311
X1.5413Y-0.5346
X1.5571Y-0.3063
X1.6122Y-0.7343
X1.628Y-0.5819
X1.6752Y-1.3535
X1.8169Y-0.6842
X1.8248Y-1.4716
X1.8248Y-1.6764
X1.8957Y-1.2748
X1.9114Y-0.8445
X1.9212Y-0.4638
X1.9272Y-0.322
X2.1319Y-1.4165
X2.1319Y-1.4953
X2.1398Y-0.322
X2.1417Y-0.4638
X2.1516Y-0.9035
X2.1555Y-0.7461
X2.1791Y-1.187
X2.25Y0.0098
X2.25Y-1.3327
X2.4566Y-0.4638
X2.4823Y-0.6358
X2.565Y-1.3378
X2.5807Y-0.322
X2.6988Y0.0217
X2.7421Y-0.6083
X2.7776Y-1.3693
X2.8406Y-0.1094
X2.8957Y-1.3063
X2.9055Y-0.2197
X3.0413Y-0.5807
X3.0728Y-1.2854
X3.1083Y-1.3378
X3.1201Y0.1673
X3.124Y-0.1094
X3.124Y-1.6476
X3.1909Y-0.5689
X3.3445Y-0.6437
X3.37Y-0.2118
X3.3799Y-0.8917
X3.3839Y0.1583
X3.3917Y-0.1094
X3.3917Y-1.1673
T3
X-0.126Y-1.9992
X-0.0413Y-2.1949
X0.2894Y-2.2028
X0.5768Y-0.7815
X0.7224Y-2.2028
X1.1949Y-2.2028
X1.3012Y-0.5689
X1.3051Y-0.7551
X1.3406Y0.061
X1.3642Y-0.439
X1.4035Y-2.1122
X1.4193Y-1.8209
X1.565Y-0.4547
X1.5768Y-0.1791
X1.8996Y-1.8445
X1.9311Y-1.0374
X1.9491Y-2.1148
X2.2592Y0.1275
X2.2894Y-0.1358
X2.7933Y-1.9429
X2.8524Y-1.7461
X3.3366Y-1.7303
X3.4783Y0.1268
X3.5335Y-1.4862
X3.6083Y-0.7539
X3.6122Y-1.2264
X3.6516Y-0.9469
X3.6752Y-0.4508
T4
X-0.1182Y-1.822
X-0.1182Y-1.9086
X0.3622Y-1.5897
X3.484Y-0.0578
X3.484Y-0.2468
T6
X0.7264Y0.0138
X0.7614Y-0.4075
X0.7964Y0.0138
X0.8314Y-0.4075
X0.8664Y0.0138
X0.9014Y-0.4075
X0.9364Y0.0138
X0.9714Y-0.4075
X1.0064Y0.0138
X1.0414Y-0.4075
X1.0764Y0.0138
X1.1114Y-0.4075
X1.1464Y0.0138
X1.1814Y-0.4075
X1.2164Y0.0138
X1.2514Y-0.4075
T7
X0.7933Y-0.8417
X0.8933Y-0.8417
X0.9933Y-0.8417
X1.0933Y-0.8417
T8
X0.6437Y-0.9779
X0.6437Y-1.0779
X0.6437Y-1.1779
X0.6437Y-1.2779
X0.6437Y-1.3779
X0.6437Y-1.4779
X0.6437Y-1.5779
X0.6437Y-1.6779
X0.6437Y-1.7779
X0.6437Y-1.8779
X0.6437Y-1.9779
X0.6437Y-2.0779
X1.2437Y-0.9779
X1.2437Y-1.0779
X1.2437Y-1.1779
X1.2437Y-1.2779
X1.2437Y-1.3779
X1.2437Y-1.4779
X1.2437Y-1.5779
X1.2437Y-1.6779
X1.2437Y-1.7779
X1.2437Y-1.8779
X1.2437Y-1.9779
X1.2437Y-2.0779
T5
G00X3.5352Y0.0177
M15
G01X3.5785Y0.0177
M16
G05
G00X3.5352Y-0.3224
M15
G01X3.5785Y-0.3224
M16
G05
G00X3.7065Y0.0177
M15
G01X3.7379Y0.0177
M16
G05
G00X3.7065Y-0.3224
M15
G01X3.7379Y-0.3224
M16
G05
T0
M30
