%TF.GenerationSoftware,KiCad,Pcbnew,7.0.9*%
%TF.CreationDate,2024-02-17T01:27:59-05:00*%
%TF.ProjectId,Thumb,5468756d-622e-46b6-9963-61645f706362,rev?*%
%TF.SameCoordinates,Original*%
%TF.FileFunction,Paste,Top*%
%TF.FilePolarity,Positive*%
%FSLAX46Y46*%
G04 Gerber Fmt 4.6, Leading zero omitted, Abs format (unit mm)*
G04 Created by KiCad (PCBNEW 7.0.9) date 2024-02-17 01:27:59*
%MOMM*%
%LPD*%
G01*
G04 APERTURE LIST*
G04 Aperture macros list*
%AMRoundRect*
0 Rectangle with rounded corners*
0 $1 Rounding radius*
0 $2 $3 $4 $5 $6 $7 $8 $9 X,Y pos of 4 corners*
0 Add a 4 corners polygon primitive as box body*
4,1,4,$2,$3,$4,$5,$6,$7,$8,$9,$2,$3,0*
0 Add four circle primitives for the rounded corners*
1,1,$1+$1,$2,$3*
1,1,$1+$1,$4,$5*
1,1,$1+$1,$6,$7*
1,1,$1+$1,$8,$9*
0 Add four rect primitives between the rounded corners*
20,1,$1+$1,$2,$3,$4,$5,0*
20,1,$1+$1,$4,$5,$6,$7,0*
20,1,$1+$1,$6,$7,$8,$9,0*
20,1,$1+$1,$8,$9,$2,$3,0*%
%AMRotRect*
0 Rectangle, with rotation*
0 The origin of the aperture is its center*
0 $1 length*
0 $2 width*
0 $3 Rotation angle, in degrees counterclockwise*
0 Add horizontal line*
21,1,$1,$2,0,0,$3*%
G04 Aperture macros list end*
%ADD10RotRect,1.500000X2.200000X190.000000*%
%ADD11RoundRect,0.250000X-0.450000X0.262500X-0.450000X-0.262500X0.450000X-0.262500X0.450000X0.262500X0*%
%ADD12R,0.950000X0.600000*%
%ADD13R,0.950000X0.300000*%
%ADD14RoundRect,0.480000X0.418149X-0.304715X0.358883X0.372697X-0.418149X0.304715X-0.358883X-0.372697X0*%
%ADD15RotRect,1.500000X2.200000X15.000000*%
%ADD16RoundRect,0.250000X-0.262500X-0.450000X0.262500X-0.450000X0.262500X0.450000X-0.262500X0.450000X0*%
%ADD17RoundRect,0.090000X-1.110000X0.810000X-1.110000X-0.810000X1.110000X-0.810000X1.110000X0.810000X0*%
%ADD18RotRect,1.500000X2.200000X5.000000*%
%ADD19RotRect,1.500000X2.200000X185.000000*%
%ADD20RoundRect,0.450000X-0.446292X0.282177X-0.390512X-0.355388X0.446292X-0.282177X0.390512X0.355388X0*%
%ADD21RoundRect,0.250000X-0.250000X-0.475000X0.250000X-0.475000X0.250000X0.475000X-0.250000X0.475000X0*%
%ADD22R,1.500000X2.200000*%
%ADD23RoundRect,0.150000X0.150000X-0.512500X0.150000X0.512500X-0.150000X0.512500X-0.150000X-0.512500X0*%
%ADD24RoundRect,0.250000X0.475000X-0.250000X0.475000X0.250000X-0.475000X0.250000X-0.475000X-0.250000X0*%
%ADD25RoundRect,0.250000X0.450000X-0.262500X0.450000X0.262500X-0.450000X0.262500X-0.450000X-0.262500X0*%
%ADD26RoundRect,0.250000X0.250000X0.475000X-0.250000X0.475000X-0.250000X-0.475000X0.250000X-0.475000X0*%
%ADD27RoundRect,0.250000X-0.475000X0.250000X-0.475000X-0.250000X0.475000X-0.250000X0.475000X0.250000X0*%
G04 APERTURE END LIST*
D10*
%TO.C,SW6*%
X64908583Y-50873116D03*
X54765063Y-52661692D03*
%TD*%
D11*
%TO.C,R1*%
X86750000Y-9667350D03*
X86750000Y-11492350D03*
%TD*%
D12*
%TO.C,J1*%
X89643879Y-7069390D03*
X89643879Y-6269390D03*
D13*
X89643879Y-5119390D03*
X89643879Y-4119390D03*
X89643879Y-3619390D03*
X89643879Y-2619390D03*
D12*
X89643879Y-1469390D03*
X89643879Y-669390D03*
X89643879Y-669390D03*
X89643879Y-1469390D03*
D13*
X89643879Y-2119390D03*
X89643879Y-3119390D03*
X89643879Y-4619390D03*
X89643879Y-5619390D03*
D12*
X89643879Y-6269390D03*
X89643879Y-7069390D03*
%TD*%
D14*
%TO.C,Q2*%
X63554470Y-14382090D03*
X67145550Y-14067910D03*
%TD*%
D15*
%TO.C,SW4*%
X42346073Y-2324955D03*
X52295109Y340881D03*
%TD*%
D16*
%TO.C,FB1*%
X58437500Y-6379850D03*
X60262500Y-6379850D03*
%TD*%
D17*
%TO.C,BT1*%
X-3001121Y-46279390D03*
X-3001121Y-48479390D03*
%TD*%
D16*
%TO.C,R6*%
X44437500Y-40979850D03*
X46262500Y-40979850D03*
%TD*%
%TO.C,R8*%
X44437500Y-38979850D03*
X46262500Y-38979850D03*
%TD*%
D18*
%TO.C,SW1*%
X71851020Y-8725755D03*
X82111826Y-7828050D03*
%TD*%
D19*
%TO.C,SW2*%
X69648980Y-39474245D03*
X59388174Y-40371950D03*
%TD*%
D16*
%TO.C,FB2*%
X58437500Y-8979850D03*
X60262500Y-8979850D03*
%TD*%
D20*
%TO.C,D2*%
X65404080Y-35448370D03*
X68795920Y-35151620D03*
%TD*%
%TO.C,D1*%
X73829080Y-34823370D03*
X77220920Y-34526620D03*
%TD*%
D21*
%TO.C,C4*%
X23600000Y2420150D03*
X25500000Y2420150D03*
%TD*%
D22*
%TO.C,SW5*%
X84449999Y1825000D03*
X74149999Y1825000D03*
%TD*%
D11*
%TO.C,R3*%
X13350000Y-49667350D03*
X13350000Y-51492350D03*
%TD*%
D14*
%TO.C,Q1*%
X75370540Y-13367910D03*
X71779460Y-13682090D03*
%TD*%
D23*
%TO.C,U2*%
X15400000Y-13917350D03*
X17300000Y-13917350D03*
X16350000Y-11642350D03*
%TD*%
D16*
%TO.C,R5*%
X50950000Y-37979850D03*
X52775000Y-37979850D03*
%TD*%
D18*
%TO.C,SW3*%
X71676020Y-38300755D03*
X81936826Y-37403050D03*
%TD*%
D24*
%TO.C,C2*%
X19150000Y-13929850D03*
X19150000Y-12029850D03*
%TD*%
D16*
%TO.C,R7*%
X50950000Y-35979850D03*
X52775000Y-35979850D03*
%TD*%
%TO.C,FB3*%
X58437500Y-10949850D03*
X60262500Y-10949850D03*
%TD*%
D25*
%TO.C,R4*%
X21150000Y-13892350D03*
X21150000Y-12067350D03*
%TD*%
D26*
%TO.C,C3*%
X21900000Y2420150D03*
X20000000Y2420150D03*
%TD*%
D27*
%TO.C,C1*%
X13550000Y-11629850D03*
X13550000Y-13529850D03*
%TD*%
D11*
%TO.C,R2*%
X84750000Y-9667350D03*
X84750000Y-11492350D03*
%TD*%
M02*
