%TF.GenerationSoftware,KiCad,Pcbnew,7.0.9*%
%TF.CreationDate,2024-02-17T01:27:59-05:00*%
%TF.ProjectId,Thumb,5468756d-622e-46b6-9963-61645f706362,rev?*%
%TF.SameCoordinates,Original*%
%TF.FileFunction,Legend,Bot*%
%TF.FilePolarity,Positive*%
%FSLAX46Y46*%
G04 Gerber Fmt 4.6, Leading zero omitted, Abs format (unit mm)*
G04 Created by KiCad (PCBNEW 7.0.9) date 2024-02-17 01:27:59*
%MOMM*%
%LPD*%
G01*
G04 APERTURE LIST*
G04 Aperture macros list*
%AMRoundRect*
0 Rectangle with rounded corners*
0 $1 Rounding radius*
0 $2 $3 $4 $5 $6 $7 $8 $9 X,Y pos of 4 corners*
0 Add a 4 corners polygon primitive as box body*
4,1,4,$2,$3,$4,$5,$6,$7,$8,$9,$2,$3,0*
0 Add four circle primitives for the rounded corners*
1,1,$1+$1,$2,$3*
1,1,$1+$1,$4,$5*
1,1,$1+$1,$6,$7*
1,1,$1+$1,$8,$9*
0 Add four rect primitives between the rounded corners*
20,1,$1+$1,$2,$3,$4,$5,0*
20,1,$1+$1,$4,$5,$6,$7,0*
20,1,$1+$1,$6,$7,$8,$9,0*
20,1,$1+$1,$8,$9,$2,$3,0*%
G04 Aperture macros list end*
%ADD10C,0.160000*%
%ADD11C,0.254000*%
%ADD12C,1.400000*%
%ADD13C,0.120000*%
%ADD14C,1.092200*%
%ADD15RoundRect,0.101600X0.718420X0.000000X0.000000X0.718420X-0.718420X0.000000X0.000000X-0.718420X0*%
%ADD16C,0.726000*%
%ADD17RoundRect,0.038000X0.850000X-0.850000X0.850000X0.850000X-0.850000X0.850000X-0.850000X-0.850000X0*%
%ADD18O,1.776000X1.776000*%
%ADD19RoundRect,0.038000X-0.800000X0.800000X-0.800000X-0.800000X0.800000X-0.800000X0.800000X0.800000X0*%
%ADD20C,1.676000*%
%ADD21O,1.276000X1.476000*%
%ADD22RoundRect,0.038000X0.400000X-0.500000X0.400000X0.500000X-0.400000X0.500000X-0.400000X-0.500000X0*%
%ADD23C,0.976000*%
%ADD24RoundRect,0.038000X0.750000X-0.350000X0.750000X0.350000X-0.750000X0.350000X-0.750000X-0.350000X0*%
G04 APERTURE END LIST*
D10*
X19701918Y-23898017D02*
X19654299Y-23802779D01*
X19654299Y-23802779D02*
X19654299Y-23659922D01*
X19654299Y-23659922D02*
X19701918Y-23517065D01*
X19701918Y-23517065D02*
X19797156Y-23421827D01*
X19797156Y-23421827D02*
X19892394Y-23374208D01*
X19892394Y-23374208D02*
X20082870Y-23326589D01*
X20082870Y-23326589D02*
X20225727Y-23326589D01*
X20225727Y-23326589D02*
X20416203Y-23374208D01*
X20416203Y-23374208D02*
X20511441Y-23421827D01*
X20511441Y-23421827D02*
X20606680Y-23517065D01*
X20606680Y-23517065D02*
X20654299Y-23659922D01*
X20654299Y-23659922D02*
X20654299Y-23755160D01*
X20654299Y-23755160D02*
X20606680Y-23898017D01*
X20606680Y-23898017D02*
X20559060Y-23945636D01*
X20559060Y-23945636D02*
X20225727Y-23945636D01*
X20225727Y-23945636D02*
X20225727Y-23755160D01*
X20654299Y-24374208D02*
X19654299Y-24374208D01*
X19654299Y-24374208D02*
X20654299Y-24945636D01*
X20654299Y-24945636D02*
X19654299Y-24945636D01*
X20654299Y-25421827D02*
X19654299Y-25421827D01*
X19654299Y-25421827D02*
X19654299Y-25659922D01*
X19654299Y-25659922D02*
X19701918Y-25802779D01*
X19701918Y-25802779D02*
X19797156Y-25898017D01*
X19797156Y-25898017D02*
X19892394Y-25945636D01*
X19892394Y-25945636D02*
X20082870Y-25993255D01*
X20082870Y-25993255D02*
X20225727Y-25993255D01*
X20225727Y-25993255D02*
X20416203Y-25945636D01*
X20416203Y-25945636D02*
X20511441Y-25898017D01*
X20511441Y-25898017D02*
X20606680Y-25802779D01*
X20606680Y-25802779D02*
X20654299Y-25659922D01*
X20654299Y-25659922D02*
X20654299Y-25421827D01*
X23194299Y-23374208D02*
X22194299Y-23374208D01*
X22194299Y-23374208D02*
X22194299Y-23612303D01*
X22194299Y-23612303D02*
X22241918Y-23755160D01*
X22241918Y-23755160D02*
X22337156Y-23850398D01*
X22337156Y-23850398D02*
X22432394Y-23898017D01*
X22432394Y-23898017D02*
X22622870Y-23945636D01*
X22622870Y-23945636D02*
X22765727Y-23945636D01*
X22765727Y-23945636D02*
X22956203Y-23898017D01*
X22956203Y-23898017D02*
X23051441Y-23850398D01*
X23051441Y-23850398D02*
X23146680Y-23755160D01*
X23146680Y-23755160D02*
X23194299Y-23612303D01*
X23194299Y-23612303D02*
X23194299Y-23374208D01*
X22813346Y-24374208D02*
X22813346Y-25136113D01*
X23194299Y-24755160D02*
X22432394Y-24755160D01*
X27274299Y-23850398D02*
X27274299Y-23374208D01*
X27274299Y-23374208D02*
X27750489Y-23326589D01*
X27750489Y-23326589D02*
X27702870Y-23374208D01*
X27702870Y-23374208D02*
X27655251Y-23469446D01*
X27655251Y-23469446D02*
X27655251Y-23707541D01*
X27655251Y-23707541D02*
X27702870Y-23802779D01*
X27702870Y-23802779D02*
X27750489Y-23850398D01*
X27750489Y-23850398D02*
X27845727Y-23898017D01*
X27845727Y-23898017D02*
X28083822Y-23898017D01*
X28083822Y-23898017D02*
X28179060Y-23850398D01*
X28179060Y-23850398D02*
X28226680Y-23802779D01*
X28226680Y-23802779D02*
X28274299Y-23707541D01*
X28274299Y-23707541D02*
X28274299Y-23469446D01*
X28274299Y-23469446D02*
X28226680Y-23374208D01*
X28226680Y-23374208D02*
X28179060Y-23326589D01*
X27274299Y-24183732D02*
X28274299Y-24517065D01*
X28274299Y-24517065D02*
X27274299Y-24850398D01*
X25734299Y-23374208D02*
X24734299Y-23374208D01*
X24734299Y-23374208D02*
X24734299Y-23612303D01*
X24734299Y-23612303D02*
X24781918Y-23755160D01*
X24781918Y-23755160D02*
X24877156Y-23850398D01*
X24877156Y-23850398D02*
X24972394Y-23898017D01*
X24972394Y-23898017D02*
X25162870Y-23945636D01*
X25162870Y-23945636D02*
X25305727Y-23945636D01*
X25305727Y-23945636D02*
X25496203Y-23898017D01*
X25496203Y-23898017D02*
X25591441Y-23850398D01*
X25591441Y-23850398D02*
X25686680Y-23755160D01*
X25686680Y-23755160D02*
X25734299Y-23612303D01*
X25734299Y-23612303D02*
X25734299Y-23374208D01*
X25353346Y-24374208D02*
X25353346Y-25136113D01*
X33778320Y-9154260D02*
X33730700Y-9011403D01*
X33730700Y-9011403D02*
X33730700Y-8773308D01*
X33730700Y-8773308D02*
X33778320Y-8678070D01*
X33778320Y-8678070D02*
X33825939Y-8630451D01*
X33825939Y-8630451D02*
X33921177Y-8582832D01*
X33921177Y-8582832D02*
X34016415Y-8582832D01*
X34016415Y-8582832D02*
X34111653Y-8630451D01*
X34111653Y-8630451D02*
X34159272Y-8678070D01*
X34159272Y-8678070D02*
X34206891Y-8773308D01*
X34206891Y-8773308D02*
X34254510Y-8963784D01*
X34254510Y-8963784D02*
X34302129Y-9059022D01*
X34302129Y-9059022D02*
X34349748Y-9106641D01*
X34349748Y-9106641D02*
X34444986Y-9154260D01*
X34444986Y-9154260D02*
X34540224Y-9154260D01*
X34540224Y-9154260D02*
X34635462Y-9106641D01*
X34635462Y-9106641D02*
X34683081Y-9059022D01*
X34683081Y-9059022D02*
X34730700Y-8963784D01*
X34730700Y-8963784D02*
X34730700Y-8725689D01*
X34730700Y-8725689D02*
X34683081Y-8582832D01*
X33778320Y-7773308D02*
X33730700Y-7868546D01*
X33730700Y-7868546D02*
X33730700Y-8059022D01*
X33730700Y-8059022D02*
X33778320Y-8154260D01*
X33778320Y-8154260D02*
X33873558Y-8201879D01*
X33873558Y-8201879D02*
X34254510Y-8201879D01*
X34254510Y-8201879D02*
X34349748Y-8154260D01*
X34349748Y-8154260D02*
X34397367Y-8059022D01*
X34397367Y-8059022D02*
X34397367Y-7868546D01*
X34397367Y-7868546D02*
X34349748Y-7773308D01*
X34349748Y-7773308D02*
X34254510Y-7725689D01*
X34254510Y-7725689D02*
X34159272Y-7725689D01*
X34159272Y-7725689D02*
X34064034Y-8201879D01*
X34397367Y-7297117D02*
X33730700Y-7297117D01*
X34302129Y-7297117D02*
X34349748Y-7249498D01*
X34349748Y-7249498D02*
X34397367Y-7154260D01*
X34397367Y-7154260D02*
X34397367Y-7011403D01*
X34397367Y-7011403D02*
X34349748Y-6916165D01*
X34349748Y-6916165D02*
X34254510Y-6868546D01*
X34254510Y-6868546D02*
X33730700Y-6868546D01*
X33778320Y-6439974D02*
X33730700Y-6344736D01*
X33730700Y-6344736D02*
X33730700Y-6154260D01*
X33730700Y-6154260D02*
X33778320Y-6059022D01*
X33778320Y-6059022D02*
X33873558Y-6011403D01*
X33873558Y-6011403D02*
X33921177Y-6011403D01*
X33921177Y-6011403D02*
X34016415Y-6059022D01*
X34016415Y-6059022D02*
X34064034Y-6154260D01*
X34064034Y-6154260D02*
X34064034Y-6297117D01*
X34064034Y-6297117D02*
X34111653Y-6392355D01*
X34111653Y-6392355D02*
X34206891Y-6439974D01*
X34206891Y-6439974D02*
X34254510Y-6439974D01*
X34254510Y-6439974D02*
X34349748Y-6392355D01*
X34349748Y-6392355D02*
X34397367Y-6297117D01*
X34397367Y-6297117D02*
X34397367Y-6154260D01*
X34397367Y-6154260D02*
X34349748Y-6059022D01*
X33730700Y-5439974D02*
X33778320Y-5535212D01*
X33778320Y-5535212D02*
X33825939Y-5582831D01*
X33825939Y-5582831D02*
X33921177Y-5630450D01*
X33921177Y-5630450D02*
X34206891Y-5630450D01*
X34206891Y-5630450D02*
X34302129Y-5582831D01*
X34302129Y-5582831D02*
X34349748Y-5535212D01*
X34349748Y-5535212D02*
X34397367Y-5439974D01*
X34397367Y-5439974D02*
X34397367Y-5297117D01*
X34397367Y-5297117D02*
X34349748Y-5201879D01*
X34349748Y-5201879D02*
X34302129Y-5154260D01*
X34302129Y-5154260D02*
X34206891Y-5106641D01*
X34206891Y-5106641D02*
X33921177Y-5106641D01*
X33921177Y-5106641D02*
X33825939Y-5154260D01*
X33825939Y-5154260D02*
X33778320Y-5201879D01*
X33778320Y-5201879D02*
X33730700Y-5297117D01*
X33730700Y-5297117D02*
X33730700Y-5439974D01*
X33730700Y-4678069D02*
X34397367Y-4678069D01*
X34206891Y-4678069D02*
X34302129Y-4630450D01*
X34302129Y-4630450D02*
X34349748Y-4582831D01*
X34349748Y-4582831D02*
X34397367Y-4487593D01*
X34397367Y-4487593D02*
X34397367Y-4392355D01*
X33778320Y-3344735D02*
X33730700Y-3201878D01*
X33730700Y-3201878D02*
X33730700Y-2963783D01*
X33730700Y-2963783D02*
X33778320Y-2868545D01*
X33778320Y-2868545D02*
X33825939Y-2820926D01*
X33825939Y-2820926D02*
X33921177Y-2773307D01*
X33921177Y-2773307D02*
X34016415Y-2773307D01*
X34016415Y-2773307D02*
X34111653Y-2820926D01*
X34111653Y-2820926D02*
X34159272Y-2868545D01*
X34159272Y-2868545D02*
X34206891Y-2963783D01*
X34206891Y-2963783D02*
X34254510Y-3154259D01*
X34254510Y-3154259D02*
X34302129Y-3249497D01*
X34302129Y-3249497D02*
X34349748Y-3297116D01*
X34349748Y-3297116D02*
X34444986Y-3344735D01*
X34444986Y-3344735D02*
X34540224Y-3344735D01*
X34540224Y-3344735D02*
X34635462Y-3297116D01*
X34635462Y-3297116D02*
X34683081Y-3249497D01*
X34683081Y-3249497D02*
X34730700Y-3154259D01*
X34730700Y-3154259D02*
X34730700Y-2916164D01*
X34730700Y-2916164D02*
X34683081Y-2773307D01*
X33730700Y-2344735D02*
X34397367Y-2344735D01*
X34730700Y-2344735D02*
X34683081Y-2392354D01*
X34683081Y-2392354D02*
X34635462Y-2344735D01*
X34635462Y-2344735D02*
X34683081Y-2297116D01*
X34683081Y-2297116D02*
X34730700Y-2344735D01*
X34730700Y-2344735D02*
X34635462Y-2344735D01*
X33730700Y-1439974D02*
X34730700Y-1439974D01*
X33778320Y-1439974D02*
X33730700Y-1535212D01*
X33730700Y-1535212D02*
X33730700Y-1725688D01*
X33730700Y-1725688D02*
X33778320Y-1820926D01*
X33778320Y-1820926D02*
X33825939Y-1868545D01*
X33825939Y-1868545D02*
X33921177Y-1916164D01*
X33921177Y-1916164D02*
X34206891Y-1916164D01*
X34206891Y-1916164D02*
X34302129Y-1868545D01*
X34302129Y-1868545D02*
X34349748Y-1820926D01*
X34349748Y-1820926D02*
X34397367Y-1725688D01*
X34397367Y-1725688D02*
X34397367Y-1535212D01*
X34397367Y-1535212D02*
X34349748Y-1439974D01*
X33778320Y-582831D02*
X33730700Y-678069D01*
X33730700Y-678069D02*
X33730700Y-868545D01*
X33730700Y-868545D02*
X33778320Y-963783D01*
X33778320Y-963783D02*
X33873558Y-1011402D01*
X33873558Y-1011402D02*
X34254510Y-1011402D01*
X34254510Y-1011402D02*
X34349748Y-963783D01*
X34349748Y-963783D02*
X34397367Y-868545D01*
X34397367Y-868545D02*
X34397367Y-678069D01*
X34397367Y-678069D02*
X34349748Y-582831D01*
X34349748Y-582831D02*
X34254510Y-535212D01*
X34254510Y-535212D02*
X34159272Y-535212D01*
X34159272Y-535212D02*
X34064034Y-1011402D01*
D11*
X13259085Y-2892030D02*
X14401942Y-2892030D01*
X13830514Y-2892030D02*
X13830514Y-892030D01*
X13830514Y-892030D02*
X14020990Y-1177744D01*
X14020990Y-1177744D02*
X14211466Y-1368220D01*
X14211466Y-1368220D02*
X14401942Y-1463458D01*
D10*
X29405559Y-28846057D02*
X29453178Y-28988914D01*
X29453178Y-28988914D02*
X29453178Y-29227009D01*
X29453178Y-29227009D02*
X29405559Y-29322247D01*
X29405559Y-29322247D02*
X29357939Y-29369866D01*
X29357939Y-29369866D02*
X29262701Y-29417485D01*
X29262701Y-29417485D02*
X29167463Y-29417485D01*
X29167463Y-29417485D02*
X29072225Y-29369866D01*
X29072225Y-29369866D02*
X29024606Y-29322247D01*
X29024606Y-29322247D02*
X28976987Y-29227009D01*
X28976987Y-29227009D02*
X28929368Y-29036533D01*
X28929368Y-29036533D02*
X28881749Y-28941295D01*
X28881749Y-28941295D02*
X28834130Y-28893676D01*
X28834130Y-28893676D02*
X28738892Y-28846057D01*
X28738892Y-28846057D02*
X28643654Y-28846057D01*
X28643654Y-28846057D02*
X28548416Y-28893676D01*
X28548416Y-28893676D02*
X28500797Y-28941295D01*
X28500797Y-28941295D02*
X28453178Y-29036533D01*
X28453178Y-29036533D02*
X28453178Y-29274628D01*
X28453178Y-29274628D02*
X28500797Y-29417485D01*
X28453178Y-29750819D02*
X29453178Y-29988914D01*
X29453178Y-29988914D02*
X28738892Y-30179390D01*
X28738892Y-30179390D02*
X29453178Y-30369866D01*
X29453178Y-30369866D02*
X28453178Y-30607962D01*
X28453178Y-30893676D02*
X28453178Y-31560342D01*
X28453178Y-31560342D02*
X29453178Y-31131771D01*
%TO.C,J2*%
X18880000Y-22649850D02*
X29040000Y-22649850D01*
X29040000Y-22649850D02*
X29040000Y-20109850D01*
X29040000Y-20109850D02*
X18880000Y-20109850D01*
X18880000Y-20109850D02*
X18880000Y-22649850D01*
%TO.C,U3*%
X32860000Y-23569850D02*
X30320000Y-23569850D01*
X30320000Y-23569850D02*
X30320000Y-54049850D01*
X30320000Y-54049850D02*
X32860000Y-54049850D01*
X32860000Y-54049850D02*
X32860000Y-23569850D01*
X17620000Y-23569850D02*
X15080000Y-23569850D01*
X15080000Y-23569850D02*
X15080000Y-54049850D01*
X15080000Y-54049850D02*
X17620000Y-54049850D01*
X17620000Y-54049850D02*
X17620000Y-23569850D01*
D12*
%TO.C,U1*%
X14550000Y350000D02*
X16525000Y350000D01*
D13*
%TO.C,SW7*%
X25868879Y-33629390D02*
X25078879Y-33629390D01*
X24068879Y-33029390D02*
X24068879Y-27329390D01*
X26918879Y-31779390D02*
X26918879Y-30079390D01*
X22778879Y-31579390D02*
X22568879Y-31379390D01*
X24068879Y-31579390D02*
X22778879Y-31579390D01*
X22568879Y-31379390D02*
X22568879Y-30479390D01*
X22778879Y-30279390D02*
X22568879Y-30479390D01*
X22778879Y-30279390D02*
X24068879Y-30279390D01*
X26918879Y-28779390D02*
X26918879Y-28579390D01*
X25078879Y-26729390D02*
X25868879Y-26729390D01*
%TD*%
%LPC*%
D14*
%TO.C,SW6*%
X61719616Y-50927704D03*
X57780384Y-51622296D03*
%TD*%
D15*
%TO.C,SPG3*%
X36050000Y-46250000D03*
%TD*%
D16*
%TO.C,J1*%
X90863879Y-6759390D03*
X90863879Y-979390D03*
%TD*%
D15*
%TO.C,SPG28*%
X72450000Y-44350000D03*
%TD*%
D17*
%TO.C,J2*%
X20150000Y-21379850D03*
D18*
X22690000Y-21379850D03*
X25230000Y-21379850D03*
X27770000Y-21379850D03*
%TD*%
D15*
%TO.C,SPG17*%
X33050000Y-14450000D03*
%TD*%
%TO.C,SPG26*%
X39750000Y-11550000D03*
%TD*%
%TO.C,SPG20*%
X89750000Y-37750000D03*
%TD*%
D14*
%TO.C,SW4*%
X45518148Y-1992638D03*
X49381852Y-957362D03*
%TD*%
D15*
%TO.C,SPG11*%
X91750000Y-31150000D03*
%TD*%
%TO.C,SPG16*%
X-1050000Y-55750000D03*
%TD*%
D14*
%TO.C,SW1*%
X75032611Y-8949311D03*
X79017389Y-8600689D03*
%TD*%
D15*
%TO.C,SPG19*%
X58150000Y-3450000D03*
%TD*%
%TO.C,SPG9*%
X34050000Y1550000D03*
%TD*%
%TO.C,SPG22*%
X57383030Y3238630D03*
%TD*%
D14*
%TO.C,SW2*%
X66467389Y-39250689D03*
X62482611Y-39599311D03*
%TD*%
D15*
%TO.C,SPG25*%
X-3201121Y-50779390D03*
%TD*%
%TO.C,SPG10*%
X70950000Y-49350000D03*
%TD*%
%TO.C,SPG24*%
X48250000Y-46850000D03*
%TD*%
%TO.C,SPG13*%
X40050000Y-4550000D03*
%TD*%
%TO.C,SPG8*%
X93350000Y-11450000D03*
%TD*%
%TO.C,SPG18*%
X34650000Y-11150000D03*
%TD*%
%TO.C,SPG27*%
X14650000Y-19850000D03*
%TD*%
%TO.C,SPG21*%
X91650000Y-19150000D03*
%TD*%
%TO.C,SPG14*%
X18350000Y-55950000D03*
%TD*%
D14*
%TO.C,SW5*%
X81300000Y2325000D03*
X77300000Y2325000D03*
%TD*%
D15*
%TO.C,SPG7*%
X7350000Y-55950000D03*
%TD*%
D14*
%TO.C,SW3*%
X74857611Y-38524311D03*
X78842389Y-38175689D03*
%TD*%
D19*
%TO.C,U3*%
X16350000Y-24839850D03*
D20*
X16350000Y-27379850D03*
X16350000Y-29919850D03*
X16350000Y-32459850D03*
X16350000Y-34999850D03*
X16350000Y-37539850D03*
X16350000Y-40079850D03*
X16350000Y-42619850D03*
X16350000Y-45159850D03*
X16350000Y-47699850D03*
X16350000Y-50239850D03*
X16350000Y-52779850D03*
X31590000Y-52779850D03*
X31590000Y-50239850D03*
X31590000Y-47699850D03*
X31590000Y-45159850D03*
X31590000Y-42619850D03*
X31590000Y-40079850D03*
X31590000Y-37539850D03*
X31590000Y-34999850D03*
X31590000Y-32459850D03*
X31590000Y-29919850D03*
X31590000Y-27379850D03*
X31590000Y-24839850D03*
%TD*%
D15*
%TO.C,SPG4*%
X92750000Y-24050000D03*
%TD*%
%TO.C,SPG6*%
X33150000Y-19179850D03*
%TD*%
%TO.C,SPG5*%
X84750000Y-43950000D03*
%TD*%
%TO.C,SPG23*%
X49505920Y-53715100D03*
%TD*%
%TO.C,SPG1*%
X35650000Y-53650000D03*
%TD*%
%TO.C,SPG12*%
X49050000Y-26350000D03*
%TD*%
%TO.C,SPG2*%
X88350000Y3220150D03*
%TD*%
%TO.C,SPG15*%
X30350000Y-55950000D03*
%TD*%
D21*
%TO.C,U1*%
X18450000Y350000D03*
X20228000Y350000D03*
X22006000Y350000D03*
X23784000Y350000D03*
X25562000Y350000D03*
X27340000Y350000D03*
X29118000Y350000D03*
X30896000Y350000D03*
X31785000Y-10350000D03*
X30007000Y-10350000D03*
X28229000Y-10350000D03*
X26451000Y-10350000D03*
X24673000Y-10350000D03*
X22895000Y-10350000D03*
X21117000Y-10350000D03*
X19339000Y-10350000D03*
%TD*%
D22*
%TO.C,SW7*%
X24368879Y-33829390D03*
X26578879Y-33829390D03*
D23*
X25468879Y-31679390D03*
X25468879Y-28679390D03*
D22*
X24368879Y-26529390D03*
X26578879Y-26529390D03*
D24*
X27228879Y-32429390D03*
X27228879Y-29429390D03*
X27228879Y-27929390D03*
%TD*%
%LPD*%
M02*
