%TF.GenerationSoftware,KiCad,Pcbnew,7.0.9*%
%TF.CreationDate,2024-02-17T01:27:59-05:00*%
%TF.ProjectId,Thumb,5468756d-622e-46b6-9963-61645f706362,rev?*%
%TF.SameCoordinates,Original*%
%TF.FileFunction,Legend,Top*%
%TF.FilePolarity,Positive*%
%FSLAX46Y46*%
G04 Gerber Fmt 4.6, Leading zero omitted, Abs format (unit mm)*
G04 Created by KiCad (PCBNEW 7.0.9) date 2024-02-17 01:27:59*
%MOMM*%
%LPD*%
G01*
G04 APERTURE LIST*
G04 Aperture macros list*
%AMRoundRect*
0 Rectangle with rounded corners*
0 $1 Rounding radius*
0 $2 $3 $4 $5 $6 $7 $8 $9 X,Y pos of 4 corners*
0 Add a 4 corners polygon primitive as box body*
4,1,4,$2,$3,$4,$5,$6,$7,$8,$9,$2,$3,0*
0 Add four circle primitives for the rounded corners*
1,1,$1+$1,$2,$3*
1,1,$1+$1,$4,$5*
1,1,$1+$1,$6,$7*
1,1,$1+$1,$8,$9*
0 Add four rect primitives between the rounded corners*
20,1,$1+$1,$2,$3,$4,$5,0*
20,1,$1+$1,$4,$5,$6,$7,0*
20,1,$1+$1,$6,$7,$8,$9,0*
20,1,$1+$1,$8,$9,$2,$3,0*%
G04 Aperture macros list end*
%ADD10C,0.160000*%
%ADD11C,0.600000*%
%ADD12C,0.080000*%
%ADD13C,0.254000*%
%ADD14C,0.152400*%
%ADD15C,0.120000*%
%ADD16C,0.300000*%
%ADD17C,0.500000*%
%ADD18C,0.100000*%
%ADD19C,1.092200*%
%ADD20RoundRect,0.038000X0.547593X1.213525X-0.929619X0.953052X-0.547593X-1.213525X0.929619X-0.953052X0*%
%ADD21RoundRect,0.101600X0.718420X0.000000X0.000000X0.718420X-0.718420X0.000000X0.000000X-0.718420X0*%
%ADD22RoundRect,0.288000X-0.450000X0.262500X-0.450000X-0.262500X0.450000X-0.262500X0.450000X0.262500X0*%
%ADD23C,0.726000*%
%ADD24RoundRect,0.038000X0.475000X-0.300000X0.475000X0.300000X-0.475000X0.300000X-0.475000X-0.300000X0*%
%ADD25RoundRect,0.038000X0.475000X-0.150000X0.475000X0.150000X-0.475000X0.150000X-0.475000X-0.150000X0*%
%ADD26RoundRect,0.038000X0.850000X-0.850000X0.850000X0.850000X-0.850000X0.850000X-0.850000X-0.850000X0*%
%ADD27O,1.776000X1.776000*%
%ADD28C,1.000000*%
%ADD29RoundRect,0.548000X0.418149X-0.304715X0.358883X0.372697X-0.418149X0.304715X-0.358883X-0.372697X0*%
%ADD30RoundRect,0.038000X-0.439743X-1.256633X1.009145X-0.868404X0.439743X1.256633X-1.009145X0.868404X0*%
%ADD31RoundRect,0.288000X-0.262500X-0.450000X0.262500X-0.450000X0.262500X0.450000X-0.262500X0.450000X0*%
%ADD32RoundRect,0.128000X-1.110000X0.810000X-1.110000X-0.810000X1.110000X-0.810000X1.110000X0.810000X0*%
%ADD33RoundRect,0.038000X-0.651275X-1.161181X0.843017X-1.030447X0.651275X1.161181X-0.843017X1.030447X0*%
%ADD34RoundRect,0.038000X0.651275X1.161181X-0.843017X1.030447X-0.651275X-1.161181X0.843017X-1.030447X0*%
%ADD35RoundRect,0.248000X-0.114933X0.281052X-0.064382X-0.296740X0.114933X-0.281052X0.064382X0.296740X0*%
%ADD36RoundRect,0.518000X-0.446292X0.282177X-0.390512X-0.355388X0.446292X-0.282177X0.390512X0.355388X0*%
%ADD37RoundRect,0.288000X-0.250000X-0.475000X0.250000X-0.475000X0.250000X0.475000X-0.250000X0.475000X0*%
%ADD38RoundRect,0.038000X0.750000X1.100000X-0.750000X1.100000X-0.750000X-1.100000X0.750000X-1.100000X0*%
%ADD39RoundRect,0.188000X0.150000X-0.512500X0.150000X0.512500X-0.150000X0.512500X-0.150000X-0.512500X0*%
%ADD40RoundRect,0.288000X0.475000X-0.250000X0.475000X0.250000X-0.475000X0.250000X-0.475000X-0.250000X0*%
%ADD41RoundRect,0.038000X-0.800000X0.800000X-0.800000X-0.800000X0.800000X-0.800000X0.800000X0.800000X0*%
%ADD42C,1.676000*%
%ADD43RoundRect,0.288000X0.450000X-0.262500X0.450000X0.262500X-0.450000X0.262500X-0.450000X-0.262500X0*%
%ADD44RoundRect,0.288000X0.250000X0.475000X-0.250000X0.475000X-0.250000X-0.475000X0.250000X-0.475000X0*%
%ADD45RoundRect,0.288000X-0.475000X0.250000X-0.475000X-0.250000X0.475000X-0.250000X0.475000X0.250000X0*%
%ADD46O,1.276000X1.476000*%
%ADD47C,0.976000*%
G04 APERTURE END LIST*
D10*
X33230000Y-23559850D02*
X33230000Y-25199850D01*
D11*
X88750000Y-5750000D02*
X88750000Y-5150000D01*
D10*
X34830000Y-24379850D02*
X33230000Y-23559850D01*
D12*
X33590000Y-24379850D02*
G75*
G03*
X33590000Y-24379850I-40000J0D01*
G01*
D10*
X34190000Y-24379850D02*
X33870000Y-24379850D01*
X33230000Y-25199850D02*
X34830000Y-24379850D01*
X34520700Y-25587970D02*
X34520700Y-26207017D01*
X34520700Y-26207017D02*
X34139748Y-25873684D01*
X34139748Y-25873684D02*
X34139748Y-26016541D01*
X34139748Y-26016541D02*
X34092129Y-26111779D01*
X34092129Y-26111779D02*
X34044510Y-26159398D01*
X34044510Y-26159398D02*
X33949272Y-26207017D01*
X33949272Y-26207017D02*
X33711177Y-26207017D01*
X33711177Y-26207017D02*
X33615939Y-26159398D01*
X33615939Y-26159398D02*
X33568320Y-26111779D01*
X33568320Y-26111779D02*
X33520700Y-26016541D01*
X33520700Y-26016541D02*
X33520700Y-25730827D01*
X33520700Y-25730827D02*
X33568320Y-25635589D01*
X33568320Y-25635589D02*
X33615939Y-25587970D01*
X33615939Y-26635589D02*
X33568320Y-26683208D01*
X33568320Y-26683208D02*
X33520700Y-26635589D01*
X33520700Y-26635589D02*
X33568320Y-26587970D01*
X33568320Y-26587970D02*
X33615939Y-26635589D01*
X33615939Y-26635589D02*
X33520700Y-26635589D01*
X34520700Y-27016541D02*
X34520700Y-27635588D01*
X34520700Y-27635588D02*
X34139748Y-27302255D01*
X34139748Y-27302255D02*
X34139748Y-27445112D01*
X34139748Y-27445112D02*
X34092129Y-27540350D01*
X34092129Y-27540350D02*
X34044510Y-27587969D01*
X34044510Y-27587969D02*
X33949272Y-27635588D01*
X33949272Y-27635588D02*
X33711177Y-27635588D01*
X33711177Y-27635588D02*
X33615939Y-27587969D01*
X33615939Y-27587969D02*
X33568320Y-27540350D01*
X33568320Y-27540350D02*
X33520700Y-27445112D01*
X33520700Y-27445112D02*
X33520700Y-27159398D01*
X33520700Y-27159398D02*
X33568320Y-27064160D01*
X33568320Y-27064160D02*
X33615939Y-27016541D01*
X34520700Y-27921303D02*
X33520700Y-28254636D01*
X33520700Y-28254636D02*
X34520700Y-28587969D01*
X33520700Y-29683208D02*
X34520700Y-29683208D01*
X34520700Y-29683208D02*
X33806415Y-30016541D01*
X33806415Y-30016541D02*
X34520700Y-30349874D01*
X34520700Y-30349874D02*
X33520700Y-30349874D01*
X33615939Y-31397493D02*
X33568320Y-31349874D01*
X33568320Y-31349874D02*
X33520700Y-31207017D01*
X33520700Y-31207017D02*
X33520700Y-31111779D01*
X33520700Y-31111779D02*
X33568320Y-30968922D01*
X33568320Y-30968922D02*
X33663558Y-30873684D01*
X33663558Y-30873684D02*
X33758796Y-30826065D01*
X33758796Y-30826065D02*
X33949272Y-30778446D01*
X33949272Y-30778446D02*
X34092129Y-30778446D01*
X34092129Y-30778446D02*
X34282605Y-30826065D01*
X34282605Y-30826065D02*
X34377843Y-30873684D01*
X34377843Y-30873684D02*
X34473081Y-30968922D01*
X34473081Y-30968922D02*
X34520700Y-31111779D01*
X34520700Y-31111779D02*
X34520700Y-31207017D01*
X34520700Y-31207017D02*
X34473081Y-31349874D01*
X34473081Y-31349874D02*
X34425462Y-31397493D01*
X34520700Y-31826065D02*
X33711177Y-31826065D01*
X33711177Y-31826065D02*
X33615939Y-31873684D01*
X33615939Y-31873684D02*
X33568320Y-31921303D01*
X33568320Y-31921303D02*
X33520700Y-32016541D01*
X33520700Y-32016541D02*
X33520700Y-32207017D01*
X33520700Y-32207017D02*
X33568320Y-32302255D01*
X33568320Y-32302255D02*
X33615939Y-32349874D01*
X33615939Y-32349874D02*
X33711177Y-32397493D01*
X33711177Y-32397493D02*
X34520700Y-32397493D01*
X33568320Y-32826065D02*
X33520700Y-32921303D01*
X33520700Y-32921303D02*
X33520700Y-33111779D01*
X33520700Y-33111779D02*
X33568320Y-33207017D01*
X33568320Y-33207017D02*
X33663558Y-33254636D01*
X33663558Y-33254636D02*
X33711177Y-33254636D01*
X33711177Y-33254636D02*
X33806415Y-33207017D01*
X33806415Y-33207017D02*
X33854034Y-33111779D01*
X33854034Y-33111779D02*
X33854034Y-32968922D01*
X33854034Y-32968922D02*
X33901653Y-32873684D01*
X33901653Y-32873684D02*
X33996891Y-32826065D01*
X33996891Y-32826065D02*
X34044510Y-32826065D01*
X34044510Y-32826065D02*
X34139748Y-32873684D01*
X34139748Y-32873684D02*
X34187367Y-32968922D01*
X34187367Y-32968922D02*
X34187367Y-33111779D01*
X34187367Y-33111779D02*
X34139748Y-33207017D01*
X33520700Y-34587970D02*
X33568320Y-34492732D01*
X33568320Y-34492732D02*
X33615939Y-34445113D01*
X33615939Y-34445113D02*
X33711177Y-34397494D01*
X33711177Y-34397494D02*
X33996891Y-34397494D01*
X33996891Y-34397494D02*
X34092129Y-34445113D01*
X34092129Y-34445113D02*
X34139748Y-34492732D01*
X34139748Y-34492732D02*
X34187367Y-34587970D01*
X34187367Y-34587970D02*
X34187367Y-34730827D01*
X34187367Y-34730827D02*
X34139748Y-34826065D01*
X34139748Y-34826065D02*
X34092129Y-34873684D01*
X34092129Y-34873684D02*
X33996891Y-34921303D01*
X33996891Y-34921303D02*
X33711177Y-34921303D01*
X33711177Y-34921303D02*
X33615939Y-34873684D01*
X33615939Y-34873684D02*
X33568320Y-34826065D01*
X33568320Y-34826065D02*
X33520700Y-34730827D01*
X33520700Y-34730827D02*
X33520700Y-34587970D01*
X34187367Y-35349875D02*
X33520700Y-35349875D01*
X34092129Y-35349875D02*
X34139748Y-35397494D01*
X34139748Y-35397494D02*
X34187367Y-35492732D01*
X34187367Y-35492732D02*
X34187367Y-35635589D01*
X34187367Y-35635589D02*
X34139748Y-35730827D01*
X34139748Y-35730827D02*
X34044510Y-35778446D01*
X34044510Y-35778446D02*
X33520700Y-35778446D01*
X33520700Y-36397494D02*
X33568320Y-36302256D01*
X33568320Y-36302256D02*
X33663558Y-36254637D01*
X33663558Y-36254637D02*
X34520700Y-36254637D01*
X34187367Y-36683209D02*
X33520700Y-36921304D01*
X34187367Y-37159399D02*
X33520700Y-36921304D01*
X33520700Y-36921304D02*
X33282605Y-36826066D01*
X33282605Y-36826066D02*
X33234986Y-36778447D01*
X33234986Y-36778447D02*
X33187367Y-36683209D01*
X33615939Y-37540352D02*
X33568320Y-37587971D01*
X33568320Y-37587971D02*
X33520700Y-37540352D01*
X33520700Y-37540352D02*
X33568320Y-37492733D01*
X33568320Y-37492733D02*
X33615939Y-37540352D01*
X33615939Y-37540352D02*
X33520700Y-37540352D01*
X33901653Y-37540352D02*
X34473081Y-37492733D01*
X34473081Y-37492733D02*
X34520700Y-37540352D01*
X34520700Y-37540352D02*
X34473081Y-37587971D01*
X34473081Y-37587971D02*
X33901653Y-37540352D01*
X33901653Y-37540352D02*
X34520700Y-37540352D01*
X57867542Y-48611882D02*
X58016498Y-48633971D01*
X58016498Y-48633971D02*
X58250976Y-48592626D01*
X58250976Y-48592626D02*
X58336498Y-48529192D01*
X58336498Y-48529192D02*
X58375125Y-48474028D01*
X58375125Y-48474028D02*
X58405483Y-48371968D01*
X58405483Y-48371968D02*
X58388945Y-48278176D01*
X58388945Y-48278176D02*
X58325511Y-48192654D01*
X58325511Y-48192654D02*
X58270347Y-48154027D01*
X58270347Y-48154027D02*
X58168286Y-48123670D01*
X58168286Y-48123670D02*
X57972435Y-48109850D01*
X57972435Y-48109850D02*
X57870375Y-48079492D01*
X57870375Y-48079492D02*
X57815210Y-48040866D01*
X57815210Y-48040866D02*
X57751777Y-47955343D01*
X57751777Y-47955343D02*
X57735239Y-47861552D01*
X57735239Y-47861552D02*
X57765597Y-47759492D01*
X57765597Y-47759492D02*
X57804223Y-47704327D01*
X57804223Y-47704327D02*
X57889745Y-47640894D01*
X57889745Y-47640894D02*
X58124224Y-47599549D01*
X58124224Y-47599549D02*
X58273179Y-47621638D01*
X58593180Y-47516860D02*
X59001306Y-48460322D01*
X59001306Y-48460322D02*
X59064854Y-47723813D01*
X59064854Y-47723813D02*
X59376471Y-48394171D01*
X59376471Y-48394171D02*
X59437301Y-47368018D01*
X60234526Y-47227446D02*
X60046943Y-47260522D01*
X60046943Y-47260522D02*
X59961421Y-47323955D01*
X59961421Y-47323955D02*
X59922794Y-47379120D01*
X59922794Y-47379120D02*
X59853810Y-47536345D01*
X59853810Y-47536345D02*
X59839990Y-47732196D01*
X59839990Y-47732196D02*
X59906142Y-48107361D01*
X59906142Y-48107361D02*
X59969576Y-48192883D01*
X59969576Y-48192883D02*
X60024740Y-48231510D01*
X60024740Y-48231510D02*
X60126800Y-48261867D01*
X60126800Y-48261867D02*
X60314383Y-48228792D01*
X60314383Y-48228792D02*
X60399905Y-48165358D01*
X60399905Y-48165358D02*
X60438532Y-48110193D01*
X60438532Y-48110193D02*
X60468889Y-48008133D01*
X60468889Y-48008133D02*
X60427544Y-47773655D01*
X60427544Y-47773655D02*
X60364111Y-47688133D01*
X60364111Y-47688133D02*
X60308946Y-47649506D01*
X60308946Y-47649506D02*
X60206886Y-47619149D01*
X60206886Y-47619149D02*
X60019304Y-47652225D01*
X60019304Y-47652225D02*
X59933782Y-47715658D01*
X59933782Y-47715658D02*
X59895155Y-47770823D01*
X59895155Y-47770823D02*
X59864797Y-47872883D01*
X86583333Y-13546649D02*
X86250000Y-13070458D01*
X86011905Y-13546649D02*
X86011905Y-12546649D01*
X86011905Y-12546649D02*
X86392857Y-12546649D01*
X86392857Y-12546649D02*
X86488095Y-12594268D01*
X86488095Y-12594268D02*
X86535714Y-12641887D01*
X86535714Y-12641887D02*
X86583333Y-12737125D01*
X86583333Y-12737125D02*
X86583333Y-12879982D01*
X86583333Y-12879982D02*
X86535714Y-12975220D01*
X86535714Y-12975220D02*
X86488095Y-13022839D01*
X86488095Y-13022839D02*
X86392857Y-13070458D01*
X86392857Y-13070458D02*
X86011905Y-13070458D01*
X87535714Y-13546649D02*
X86964286Y-13546649D01*
X87250000Y-13546649D02*
X87250000Y-12546649D01*
X87250000Y-12546649D02*
X87154762Y-12689506D01*
X87154762Y-12689506D02*
X87059524Y-12784744D01*
X87059524Y-12784744D02*
X86964286Y-12832363D01*
X87423178Y-4202723D02*
X88137463Y-4202723D01*
X88137463Y-4202723D02*
X88280320Y-4250342D01*
X88280320Y-4250342D02*
X88375559Y-4345580D01*
X88375559Y-4345580D02*
X88423178Y-4488437D01*
X88423178Y-4488437D02*
X88423178Y-4583675D01*
X88423178Y-3202723D02*
X88423178Y-3774151D01*
X88423178Y-3488437D02*
X87423178Y-3488437D01*
X87423178Y-3488437D02*
X87566035Y-3583675D01*
X87566035Y-3583675D02*
X87661273Y-3678913D01*
X87661273Y-3678913D02*
X87708892Y-3774151D01*
X17274299Y-21713183D02*
X17988584Y-21713183D01*
X17988584Y-21713183D02*
X18131441Y-21760802D01*
X18131441Y-21760802D02*
X18226680Y-21856040D01*
X18226680Y-21856040D02*
X18274299Y-21998897D01*
X18274299Y-21998897D02*
X18274299Y-22094135D01*
X17369537Y-21284611D02*
X17321918Y-21236992D01*
X17321918Y-21236992D02*
X17274299Y-21141754D01*
X17274299Y-21141754D02*
X17274299Y-20903659D01*
X17274299Y-20903659D02*
X17321918Y-20808421D01*
X17321918Y-20808421D02*
X17369537Y-20760802D01*
X17369537Y-20760802D02*
X17464775Y-20713183D01*
X17464775Y-20713183D02*
X17560013Y-20713183D01*
X17560013Y-20713183D02*
X17702870Y-20760802D01*
X17702870Y-20760802D02*
X18274299Y-21332230D01*
X18274299Y-21332230D02*
X18274299Y-20713183D01*
X60740024Y-16424387D02*
X60644786Y-16376768D01*
X60644786Y-16376768D02*
X60549548Y-16281530D01*
X60549548Y-16281530D02*
X60406691Y-16138672D01*
X60406691Y-16138672D02*
X60311453Y-16091053D01*
X60311453Y-16091053D02*
X60216215Y-16091053D01*
X60263834Y-16329149D02*
X60168596Y-16281530D01*
X60168596Y-16281530D02*
X60073358Y-16186291D01*
X60073358Y-16186291D02*
X60025739Y-15995815D01*
X60025739Y-15995815D02*
X60025739Y-15662482D01*
X60025739Y-15662482D02*
X60073358Y-15472006D01*
X60073358Y-15472006D02*
X60168596Y-15376768D01*
X60168596Y-15376768D02*
X60263834Y-15329149D01*
X60263834Y-15329149D02*
X60454310Y-15329149D01*
X60454310Y-15329149D02*
X60549548Y-15376768D01*
X60549548Y-15376768D02*
X60644786Y-15472006D01*
X60644786Y-15472006D02*
X60692405Y-15662482D01*
X60692405Y-15662482D02*
X60692405Y-15995815D01*
X60692405Y-15995815D02*
X60644786Y-16186291D01*
X60644786Y-16186291D02*
X60549548Y-16281530D01*
X60549548Y-16281530D02*
X60454310Y-16329149D01*
X60454310Y-16329149D02*
X60263834Y-16329149D01*
X61073358Y-15424387D02*
X61120977Y-15376768D01*
X61120977Y-15376768D02*
X61216215Y-15329149D01*
X61216215Y-15329149D02*
X61454310Y-15329149D01*
X61454310Y-15329149D02*
X61549548Y-15376768D01*
X61549548Y-15376768D02*
X61597167Y-15424387D01*
X61597167Y-15424387D02*
X61644786Y-15519625D01*
X61644786Y-15519625D02*
X61644786Y-15614863D01*
X61644786Y-15614863D02*
X61597167Y-15757720D01*
X61597167Y-15757720D02*
X61025739Y-16329149D01*
X61025739Y-16329149D02*
X61644786Y-16329149D01*
X47367355Y-5517764D02*
X47517670Y-5526786D01*
X47517670Y-5526786D02*
X47747652Y-5465163D01*
X47747652Y-5465163D02*
X47827320Y-5394517D01*
X47827320Y-5394517D02*
X47860992Y-5336196D01*
X47860992Y-5336196D02*
X47882339Y-5231878D01*
X47882339Y-5231878D02*
X47857689Y-5139885D01*
X47857689Y-5139885D02*
X47787044Y-5060217D01*
X47787044Y-5060217D02*
X47728722Y-5026545D01*
X47728722Y-5026545D02*
X47624405Y-5005198D01*
X47624405Y-5005198D02*
X47428094Y-5008501D01*
X47428094Y-5008501D02*
X47323776Y-4987154D01*
X47323776Y-4987154D02*
X47265455Y-4953482D01*
X47265455Y-4953482D02*
X47194809Y-4873814D01*
X47194809Y-4873814D02*
X47170160Y-4781821D01*
X47170160Y-4781821D02*
X47191507Y-4677503D01*
X47191507Y-4677503D02*
X47225179Y-4619182D01*
X47225179Y-4619182D02*
X47304847Y-4548536D01*
X47304847Y-4548536D02*
X47534829Y-4486912D01*
X47534829Y-4486912D02*
X47685143Y-4495935D01*
X47994794Y-4363665D02*
X48483595Y-5267967D01*
X48483595Y-5267967D02*
X48482711Y-4528722D01*
X48482711Y-4528722D02*
X48851567Y-5169370D01*
X48851567Y-5169370D02*
X48822730Y-4141820D01*
X49690943Y-4254275D02*
X49863489Y-4898226D01*
X49362363Y-3947927D02*
X49317252Y-4699498D01*
X49317252Y-4699498D02*
X49915206Y-4539277D01*
X55356666Y-6310339D02*
X55023333Y-6310339D01*
X55023333Y-6834149D02*
X55023333Y-5834149D01*
X55023333Y-5834149D02*
X55499523Y-5834149D01*
X56213809Y-6310339D02*
X56356666Y-6357958D01*
X56356666Y-6357958D02*
X56404285Y-6405577D01*
X56404285Y-6405577D02*
X56451904Y-6500815D01*
X56451904Y-6500815D02*
X56451904Y-6643672D01*
X56451904Y-6643672D02*
X56404285Y-6738910D01*
X56404285Y-6738910D02*
X56356666Y-6786530D01*
X56356666Y-6786530D02*
X56261428Y-6834149D01*
X56261428Y-6834149D02*
X55880476Y-6834149D01*
X55880476Y-6834149D02*
X55880476Y-5834149D01*
X55880476Y-5834149D02*
X56213809Y-5834149D01*
X56213809Y-5834149D02*
X56309047Y-5881768D01*
X56309047Y-5881768D02*
X56356666Y-5929387D01*
X56356666Y-5929387D02*
X56404285Y-6024625D01*
X56404285Y-6024625D02*
X56404285Y-6119863D01*
X56404285Y-6119863D02*
X56356666Y-6215101D01*
X56356666Y-6215101D02*
X56309047Y-6262720D01*
X56309047Y-6262720D02*
X56213809Y-6310339D01*
X56213809Y-6310339D02*
X55880476Y-6310339D01*
X57404285Y-6834149D02*
X56832857Y-6834149D01*
X57118571Y-6834149D02*
X57118571Y-5834149D01*
X57118571Y-5834149D02*
X57023333Y-5977006D01*
X57023333Y-5977006D02*
X56928095Y-6072244D01*
X56928095Y-6072244D02*
X56832857Y-6119863D01*
X120130Y-46841294D02*
X72511Y-46888913D01*
X72511Y-46888913D02*
X-70346Y-46984151D01*
X-70346Y-46984151D02*
X-165584Y-47031770D01*
X-165584Y-47031770D02*
X-308441Y-47079389D01*
X-308441Y-47079389D02*
X-546537Y-47127008D01*
X-546537Y-47127008D02*
X-737013Y-47127008D01*
X-737013Y-47127008D02*
X-975108Y-47079389D01*
X-975108Y-47079389D02*
X-1117965Y-47031770D01*
X-1117965Y-47031770D02*
X-1213203Y-46984151D01*
X-1213203Y-46984151D02*
X-1356061Y-46888913D01*
X-1356061Y-46888913D02*
X-1403680Y-46841294D01*
X-641775Y-46460341D02*
X-641775Y-45698437D01*
X-260822Y-46079389D02*
X-1022727Y-46079389D01*
X120130Y-45317484D02*
X72511Y-45269865D01*
X72511Y-45269865D02*
X-70346Y-45174627D01*
X-70346Y-45174627D02*
X-165584Y-45127008D01*
X-165584Y-45127008D02*
X-308441Y-45079389D01*
X-308441Y-45079389D02*
X-546537Y-45031770D01*
X-546537Y-45031770D02*
X-737013Y-45031770D01*
X-737013Y-45031770D02*
X-975108Y-45079389D01*
X-975108Y-45079389D02*
X-1117965Y-45127008D01*
X-1117965Y-45127008D02*
X-1213203Y-45174627D01*
X-1213203Y-45174627D02*
X-1356061Y-45269865D01*
X-1356061Y-45269865D02*
X-1403680Y-45317484D01*
X120130Y-49441294D02*
X72511Y-49488913D01*
X72511Y-49488913D02*
X-70346Y-49584151D01*
X-70346Y-49584151D02*
X-165584Y-49631770D01*
X-165584Y-49631770D02*
X-308441Y-49679389D01*
X-308441Y-49679389D02*
X-546537Y-49727008D01*
X-546537Y-49727008D02*
X-737013Y-49727008D01*
X-737013Y-49727008D02*
X-975108Y-49679389D01*
X-975108Y-49679389D02*
X-1117965Y-49631770D01*
X-1117965Y-49631770D02*
X-1213203Y-49584151D01*
X-1213203Y-49584151D02*
X-1356061Y-49488913D01*
X-1356061Y-49488913D02*
X-1403680Y-49441294D01*
X-641775Y-49060341D02*
X-641775Y-48298437D01*
X120130Y-47917484D02*
X72511Y-47869865D01*
X72511Y-47869865D02*
X-70346Y-47774627D01*
X-70346Y-47774627D02*
X-165584Y-47727008D01*
X-165584Y-47727008D02*
X-308441Y-47679389D01*
X-308441Y-47679389D02*
X-546537Y-47631770D01*
X-546537Y-47631770D02*
X-737013Y-47631770D01*
X-737013Y-47631770D02*
X-975108Y-47679389D01*
X-975108Y-47679389D02*
X-1117965Y-47727008D01*
X-1117965Y-47727008D02*
X-1213203Y-47774627D01*
X-1213203Y-47774627D02*
X-1356061Y-47869865D01*
X-1356061Y-47869865D02*
X-1403680Y-47917484D01*
X44383333Y-43234149D02*
X44050000Y-42757958D01*
X43811905Y-43234149D02*
X43811905Y-42234149D01*
X43811905Y-42234149D02*
X44192857Y-42234149D01*
X44192857Y-42234149D02*
X44288095Y-42281768D01*
X44288095Y-42281768D02*
X44335714Y-42329387D01*
X44335714Y-42329387D02*
X44383333Y-42424625D01*
X44383333Y-42424625D02*
X44383333Y-42567482D01*
X44383333Y-42567482D02*
X44335714Y-42662720D01*
X44335714Y-42662720D02*
X44288095Y-42710339D01*
X44288095Y-42710339D02*
X44192857Y-42757958D01*
X44192857Y-42757958D02*
X43811905Y-42757958D01*
X45240476Y-42234149D02*
X45050000Y-42234149D01*
X45050000Y-42234149D02*
X44954762Y-42281768D01*
X44954762Y-42281768D02*
X44907143Y-42329387D01*
X44907143Y-42329387D02*
X44811905Y-42472244D01*
X44811905Y-42472244D02*
X44764286Y-42662720D01*
X44764286Y-42662720D02*
X44764286Y-43043672D01*
X44764286Y-43043672D02*
X44811905Y-43138910D01*
X44811905Y-43138910D02*
X44859524Y-43186530D01*
X44859524Y-43186530D02*
X44954762Y-43234149D01*
X44954762Y-43234149D02*
X45145238Y-43234149D01*
X45145238Y-43234149D02*
X45240476Y-43186530D01*
X45240476Y-43186530D02*
X45288095Y-43138910D01*
X45288095Y-43138910D02*
X45335714Y-43043672D01*
X45335714Y-43043672D02*
X45335714Y-42805577D01*
X45335714Y-42805577D02*
X45288095Y-42710339D01*
X45288095Y-42710339D02*
X45240476Y-42662720D01*
X45240476Y-42662720D02*
X45145238Y-42615101D01*
X45145238Y-42615101D02*
X44954762Y-42615101D01*
X44954762Y-42615101D02*
X44859524Y-42662720D01*
X44859524Y-42662720D02*
X44811905Y-42710339D01*
X44811905Y-42710339D02*
X44764286Y-42805577D01*
X44383333Y-37834149D02*
X44050000Y-37357958D01*
X43811905Y-37834149D02*
X43811905Y-36834149D01*
X43811905Y-36834149D02*
X44192857Y-36834149D01*
X44192857Y-36834149D02*
X44288095Y-36881768D01*
X44288095Y-36881768D02*
X44335714Y-36929387D01*
X44335714Y-36929387D02*
X44383333Y-37024625D01*
X44383333Y-37024625D02*
X44383333Y-37167482D01*
X44383333Y-37167482D02*
X44335714Y-37262720D01*
X44335714Y-37262720D02*
X44288095Y-37310339D01*
X44288095Y-37310339D02*
X44192857Y-37357958D01*
X44192857Y-37357958D02*
X43811905Y-37357958D01*
X44954762Y-37262720D02*
X44859524Y-37215101D01*
X44859524Y-37215101D02*
X44811905Y-37167482D01*
X44811905Y-37167482D02*
X44764286Y-37072244D01*
X44764286Y-37072244D02*
X44764286Y-37024625D01*
X44764286Y-37024625D02*
X44811905Y-36929387D01*
X44811905Y-36929387D02*
X44859524Y-36881768D01*
X44859524Y-36881768D02*
X44954762Y-36834149D01*
X44954762Y-36834149D02*
X45145238Y-36834149D01*
X45145238Y-36834149D02*
X45240476Y-36881768D01*
X45240476Y-36881768D02*
X45288095Y-36929387D01*
X45288095Y-36929387D02*
X45335714Y-37024625D01*
X45335714Y-37024625D02*
X45335714Y-37072244D01*
X45335714Y-37072244D02*
X45288095Y-37167482D01*
X45288095Y-37167482D02*
X45240476Y-37215101D01*
X45240476Y-37215101D02*
X45145238Y-37262720D01*
X45145238Y-37262720D02*
X44954762Y-37262720D01*
X44954762Y-37262720D02*
X44859524Y-37310339D01*
X44859524Y-37310339D02*
X44811905Y-37357958D01*
X44811905Y-37357958D02*
X44764286Y-37453196D01*
X44764286Y-37453196D02*
X44764286Y-37643672D01*
X44764286Y-37643672D02*
X44811905Y-37738910D01*
X44811905Y-37738910D02*
X44859524Y-37786530D01*
X44859524Y-37786530D02*
X44954762Y-37834149D01*
X44954762Y-37834149D02*
X45145238Y-37834149D01*
X45145238Y-37834149D02*
X45240476Y-37786530D01*
X45240476Y-37786530D02*
X45288095Y-37738910D01*
X45288095Y-37738910D02*
X45335714Y-37643672D01*
X45335714Y-37643672D02*
X45335714Y-37453196D01*
X45335714Y-37453196D02*
X45288095Y-37357958D01*
X45288095Y-37357958D02*
X45240476Y-37310339D01*
X45240476Y-37310339D02*
X45145238Y-37262720D01*
X75451047Y-5968178D02*
X75597511Y-6003165D01*
X75597511Y-6003165D02*
X75834700Y-5982413D01*
X75834700Y-5982413D02*
X75925425Y-5926675D01*
X75925425Y-5926675D02*
X75968713Y-5875087D01*
X75968713Y-5875087D02*
X76007850Y-5776061D01*
X76007850Y-5776061D02*
X75999550Y-5681185D01*
X75999550Y-5681185D02*
X75943811Y-5590460D01*
X75943811Y-5590460D02*
X75892223Y-5547172D01*
X75892223Y-5547172D02*
X75793197Y-5508035D01*
X75793197Y-5508035D02*
X75599296Y-5477198D01*
X75599296Y-5477198D02*
X75500270Y-5438061D01*
X75500270Y-5438061D02*
X75448681Y-5394773D01*
X75448681Y-5394773D02*
X75392943Y-5304048D01*
X75392943Y-5304048D02*
X75384643Y-5209172D01*
X75384643Y-5209172D02*
X75423780Y-5110146D01*
X75423780Y-5110146D02*
X75467067Y-5058558D01*
X75467067Y-5058558D02*
X75557793Y-5002820D01*
X75557793Y-5002820D02*
X75794982Y-4982068D01*
X75794982Y-4982068D02*
X75941446Y-5017055D01*
X76269361Y-4940566D02*
X76593705Y-5916009D01*
X76593705Y-5916009D02*
X76721203Y-5187840D01*
X76721203Y-5187840D02*
X76973208Y-5882807D01*
X76973208Y-5882807D02*
X77123242Y-4865861D01*
X78111716Y-5783200D02*
X77542462Y-5833003D01*
X77827089Y-5808102D02*
X77739933Y-4811907D01*
X77739933Y-4811907D02*
X77657509Y-4962521D01*
X77657509Y-4962521D02*
X77570933Y-5065697D01*
X77570933Y-5065697D02*
X77480208Y-5121436D01*
X63657185Y-43501190D02*
X63803649Y-43536177D01*
X63803649Y-43536177D02*
X64040838Y-43515425D01*
X64040838Y-43515425D02*
X64131563Y-43459687D01*
X64131563Y-43459687D02*
X64174851Y-43408099D01*
X64174851Y-43408099D02*
X64213988Y-43309073D01*
X64213988Y-43309073D02*
X64205688Y-43214197D01*
X64205688Y-43214197D02*
X64149949Y-43123472D01*
X64149949Y-43123472D02*
X64098361Y-43080184D01*
X64098361Y-43080184D02*
X63999335Y-43041047D01*
X63999335Y-43041047D02*
X63805434Y-43010210D01*
X63805434Y-43010210D02*
X63706408Y-42971073D01*
X63706408Y-42971073D02*
X63654819Y-42927785D01*
X63654819Y-42927785D02*
X63599081Y-42837060D01*
X63599081Y-42837060D02*
X63590781Y-42742184D01*
X63590781Y-42742184D02*
X63629918Y-42643158D01*
X63629918Y-42643158D02*
X63673205Y-42591570D01*
X63673205Y-42591570D02*
X63763931Y-42535832D01*
X63763931Y-42535832D02*
X64001120Y-42515080D01*
X64001120Y-42515080D02*
X64147584Y-42550067D01*
X64475499Y-42473578D02*
X64799843Y-43449021D01*
X64799843Y-43449021D02*
X64927341Y-42720852D01*
X64927341Y-42720852D02*
X65179346Y-43415819D01*
X65179346Y-43415819D02*
X65329380Y-42398873D01*
X65669745Y-42464696D02*
X65713033Y-42413108D01*
X65713033Y-42413108D02*
X65803758Y-42357370D01*
X65803758Y-42357370D02*
X66040947Y-42336619D01*
X66040947Y-42336619D02*
X66139973Y-42375756D01*
X66139973Y-42375756D02*
X66191561Y-42419043D01*
X66191561Y-42419043D02*
X66247300Y-42509769D01*
X66247300Y-42509769D02*
X66255600Y-42604644D01*
X66255600Y-42604644D02*
X66220613Y-42751108D01*
X66220613Y-42751108D02*
X65701162Y-43370166D01*
X65701162Y-43370166D02*
X66317854Y-43316212D01*
X55356666Y-8910339D02*
X55023333Y-8910339D01*
X55023333Y-9434149D02*
X55023333Y-8434149D01*
X55023333Y-8434149D02*
X55499523Y-8434149D01*
X56213809Y-8910339D02*
X56356666Y-8957958D01*
X56356666Y-8957958D02*
X56404285Y-9005577D01*
X56404285Y-9005577D02*
X56451904Y-9100815D01*
X56451904Y-9100815D02*
X56451904Y-9243672D01*
X56451904Y-9243672D02*
X56404285Y-9338910D01*
X56404285Y-9338910D02*
X56356666Y-9386530D01*
X56356666Y-9386530D02*
X56261428Y-9434149D01*
X56261428Y-9434149D02*
X55880476Y-9434149D01*
X55880476Y-9434149D02*
X55880476Y-8434149D01*
X55880476Y-8434149D02*
X56213809Y-8434149D01*
X56213809Y-8434149D02*
X56309047Y-8481768D01*
X56309047Y-8481768D02*
X56356666Y-8529387D01*
X56356666Y-8529387D02*
X56404285Y-8624625D01*
X56404285Y-8624625D02*
X56404285Y-8719863D01*
X56404285Y-8719863D02*
X56356666Y-8815101D01*
X56356666Y-8815101D02*
X56309047Y-8862720D01*
X56309047Y-8862720D02*
X56213809Y-8910339D01*
X56213809Y-8910339D02*
X55880476Y-8910339D01*
X56832857Y-8529387D02*
X56880476Y-8481768D01*
X56880476Y-8481768D02*
X56975714Y-8434149D01*
X56975714Y-8434149D02*
X57213809Y-8434149D01*
X57213809Y-8434149D02*
X57309047Y-8481768D01*
X57309047Y-8481768D02*
X57356666Y-8529387D01*
X57356666Y-8529387D02*
X57404285Y-8624625D01*
X57404285Y-8624625D02*
X57404285Y-8719863D01*
X57404285Y-8719863D02*
X57356666Y-8862720D01*
X57356666Y-8862720D02*
X56785238Y-9434149D01*
X56785238Y-9434149D02*
X57404285Y-9434149D01*
X62293358Y-34649149D02*
X62293358Y-33649149D01*
X62293358Y-33649149D02*
X62531453Y-33649149D01*
X62531453Y-33649149D02*
X62674310Y-33696768D01*
X62674310Y-33696768D02*
X62769548Y-33792006D01*
X62769548Y-33792006D02*
X62817167Y-33887244D01*
X62817167Y-33887244D02*
X62864786Y-34077720D01*
X62864786Y-34077720D02*
X62864786Y-34220577D01*
X62864786Y-34220577D02*
X62817167Y-34411053D01*
X62817167Y-34411053D02*
X62769548Y-34506291D01*
X62769548Y-34506291D02*
X62674310Y-34601530D01*
X62674310Y-34601530D02*
X62531453Y-34649149D01*
X62531453Y-34649149D02*
X62293358Y-34649149D01*
X63245739Y-33744387D02*
X63293358Y-33696768D01*
X63293358Y-33696768D02*
X63388596Y-33649149D01*
X63388596Y-33649149D02*
X63626691Y-33649149D01*
X63626691Y-33649149D02*
X63721929Y-33696768D01*
X63721929Y-33696768D02*
X63769548Y-33744387D01*
X63769548Y-33744387D02*
X63817167Y-33839625D01*
X63817167Y-33839625D02*
X63817167Y-33934863D01*
X63817167Y-33934863D02*
X63769548Y-34077720D01*
X63769548Y-34077720D02*
X63198120Y-34649149D01*
X63198120Y-34649149D02*
X63817167Y-34649149D01*
X78893358Y-33249149D02*
X78893358Y-32249149D01*
X78893358Y-32249149D02*
X79131453Y-32249149D01*
X79131453Y-32249149D02*
X79274310Y-32296768D01*
X79274310Y-32296768D02*
X79369548Y-32392006D01*
X79369548Y-32392006D02*
X79417167Y-32487244D01*
X79417167Y-32487244D02*
X79464786Y-32677720D01*
X79464786Y-32677720D02*
X79464786Y-32820577D01*
X79464786Y-32820577D02*
X79417167Y-33011053D01*
X79417167Y-33011053D02*
X79369548Y-33106291D01*
X79369548Y-33106291D02*
X79274310Y-33201530D01*
X79274310Y-33201530D02*
X79131453Y-33249149D01*
X79131453Y-33249149D02*
X78893358Y-33249149D01*
X80417167Y-33249149D02*
X79845739Y-33249149D01*
X80131453Y-33249149D02*
X80131453Y-32249149D01*
X80131453Y-32249149D02*
X80036215Y-32392006D01*
X80036215Y-32392006D02*
X79940977Y-32487244D01*
X79940977Y-32487244D02*
X79845739Y-32534863D01*
X27033333Y2061090D02*
X26985714Y2013470D01*
X26985714Y2013470D02*
X26842857Y1965851D01*
X26842857Y1965851D02*
X26747619Y1965851D01*
X26747619Y1965851D02*
X26604762Y2013470D01*
X26604762Y2013470D02*
X26509524Y2108709D01*
X26509524Y2108709D02*
X26461905Y2203947D01*
X26461905Y2203947D02*
X26414286Y2394423D01*
X26414286Y2394423D02*
X26414286Y2537280D01*
X26414286Y2537280D02*
X26461905Y2727756D01*
X26461905Y2727756D02*
X26509524Y2822994D01*
X26509524Y2822994D02*
X26604762Y2918232D01*
X26604762Y2918232D02*
X26747619Y2965851D01*
X26747619Y2965851D02*
X26842857Y2965851D01*
X26842857Y2965851D02*
X26985714Y2918232D01*
X26985714Y2918232D02*
X27033333Y2870613D01*
X27890476Y2632518D02*
X27890476Y1965851D01*
X27652381Y3013470D02*
X27414286Y2299185D01*
X27414286Y2299185D02*
X28033333Y2299185D01*
X77956667Y-1586530D02*
X78099524Y-1634149D01*
X78099524Y-1634149D02*
X78337619Y-1634149D01*
X78337619Y-1634149D02*
X78432857Y-1586530D01*
X78432857Y-1586530D02*
X78480476Y-1538910D01*
X78480476Y-1538910D02*
X78528095Y-1443672D01*
X78528095Y-1443672D02*
X78528095Y-1348434D01*
X78528095Y-1348434D02*
X78480476Y-1253196D01*
X78480476Y-1253196D02*
X78432857Y-1205577D01*
X78432857Y-1205577D02*
X78337619Y-1157958D01*
X78337619Y-1157958D02*
X78147143Y-1110339D01*
X78147143Y-1110339D02*
X78051905Y-1062720D01*
X78051905Y-1062720D02*
X78004286Y-1015101D01*
X78004286Y-1015101D02*
X77956667Y-919863D01*
X77956667Y-919863D02*
X77956667Y-824625D01*
X77956667Y-824625D02*
X78004286Y-729387D01*
X78004286Y-729387D02*
X78051905Y-681768D01*
X78051905Y-681768D02*
X78147143Y-634149D01*
X78147143Y-634149D02*
X78385238Y-634149D01*
X78385238Y-634149D02*
X78528095Y-681768D01*
X78861429Y-634149D02*
X79099524Y-1634149D01*
X79099524Y-1634149D02*
X79290000Y-919863D01*
X79290000Y-919863D02*
X79480476Y-1634149D01*
X79480476Y-1634149D02*
X79718572Y-634149D01*
X80575714Y-634149D02*
X80099524Y-634149D01*
X80099524Y-634149D02*
X80051905Y-1110339D01*
X80051905Y-1110339D02*
X80099524Y-1062720D01*
X80099524Y-1062720D02*
X80194762Y-1015101D01*
X80194762Y-1015101D02*
X80432857Y-1015101D01*
X80432857Y-1015101D02*
X80528095Y-1062720D01*
X80528095Y-1062720D02*
X80575714Y-1110339D01*
X80575714Y-1110339D02*
X80623333Y-1205577D01*
X80623333Y-1205577D02*
X80623333Y-1443672D01*
X80623333Y-1443672D02*
X80575714Y-1538910D01*
X80575714Y-1538910D02*
X80528095Y-1586530D01*
X80528095Y-1586530D02*
X80432857Y-1634149D01*
X80432857Y-1634149D02*
X80194762Y-1634149D01*
X80194762Y-1634149D02*
X80099524Y-1586530D01*
X80099524Y-1586530D02*
X80051905Y-1538910D01*
X13183333Y-48633689D02*
X12850000Y-48157498D01*
X12611905Y-48633689D02*
X12611905Y-47633689D01*
X12611905Y-47633689D02*
X12992857Y-47633689D01*
X12992857Y-47633689D02*
X13088095Y-47681308D01*
X13088095Y-47681308D02*
X13135714Y-47728927D01*
X13135714Y-47728927D02*
X13183333Y-47824165D01*
X13183333Y-47824165D02*
X13183333Y-47967022D01*
X13183333Y-47967022D02*
X13135714Y-48062260D01*
X13135714Y-48062260D02*
X13088095Y-48109879D01*
X13088095Y-48109879D02*
X12992857Y-48157498D01*
X12992857Y-48157498D02*
X12611905Y-48157498D01*
X13516667Y-47633689D02*
X14135714Y-47633689D01*
X14135714Y-47633689D02*
X13802381Y-48014641D01*
X13802381Y-48014641D02*
X13945238Y-48014641D01*
X13945238Y-48014641D02*
X14040476Y-48062260D01*
X14040476Y-48062260D02*
X14088095Y-48109879D01*
X14088095Y-48109879D02*
X14135714Y-48205117D01*
X14135714Y-48205117D02*
X14135714Y-48443212D01*
X14135714Y-48443212D02*
X14088095Y-48538450D01*
X14088095Y-48538450D02*
X14040476Y-48586070D01*
X14040476Y-48586070D02*
X13945238Y-48633689D01*
X13945238Y-48633689D02*
X13659524Y-48633689D01*
X13659524Y-48633689D02*
X13564286Y-48586070D01*
X13564286Y-48586070D02*
X13516667Y-48538450D01*
X78700024Y-14984389D02*
X78604786Y-14936770D01*
X78604786Y-14936770D02*
X78509548Y-14841532D01*
X78509548Y-14841532D02*
X78366691Y-14698674D01*
X78366691Y-14698674D02*
X78271453Y-14651055D01*
X78271453Y-14651055D02*
X78176215Y-14651055D01*
X78223834Y-14889151D02*
X78128596Y-14841532D01*
X78128596Y-14841532D02*
X78033358Y-14746293D01*
X78033358Y-14746293D02*
X77985739Y-14555817D01*
X77985739Y-14555817D02*
X77985739Y-14222484D01*
X77985739Y-14222484D02*
X78033358Y-14032008D01*
X78033358Y-14032008D02*
X78128596Y-13936770D01*
X78128596Y-13936770D02*
X78223834Y-13889151D01*
X78223834Y-13889151D02*
X78414310Y-13889151D01*
X78414310Y-13889151D02*
X78509548Y-13936770D01*
X78509548Y-13936770D02*
X78604786Y-14032008D01*
X78604786Y-14032008D02*
X78652405Y-14222484D01*
X78652405Y-14222484D02*
X78652405Y-14555817D01*
X78652405Y-14555817D02*
X78604786Y-14746293D01*
X78604786Y-14746293D02*
X78509548Y-14841532D01*
X78509548Y-14841532D02*
X78414310Y-14889151D01*
X78414310Y-14889151D02*
X78223834Y-14889151D01*
X79604786Y-14889151D02*
X79033358Y-14889151D01*
X79319072Y-14889151D02*
X79319072Y-13889151D01*
X79319072Y-13889151D02*
X79223834Y-14032008D01*
X79223834Y-14032008D02*
X79128596Y-14127246D01*
X79128596Y-14127246D02*
X79033358Y-14174865D01*
X15588095Y-14834149D02*
X15588095Y-15643672D01*
X15588095Y-15643672D02*
X15635714Y-15738910D01*
X15635714Y-15738910D02*
X15683333Y-15786530D01*
X15683333Y-15786530D02*
X15778571Y-15834149D01*
X15778571Y-15834149D02*
X15969047Y-15834149D01*
X15969047Y-15834149D02*
X16064285Y-15786530D01*
X16064285Y-15786530D02*
X16111904Y-15738910D01*
X16111904Y-15738910D02*
X16159523Y-15643672D01*
X16159523Y-15643672D02*
X16159523Y-14834149D01*
X16588095Y-14929387D02*
X16635714Y-14881768D01*
X16635714Y-14881768D02*
X16730952Y-14834149D01*
X16730952Y-14834149D02*
X16969047Y-14834149D01*
X16969047Y-14834149D02*
X17064285Y-14881768D01*
X17064285Y-14881768D02*
X17111904Y-14929387D01*
X17111904Y-14929387D02*
X17159523Y-15024625D01*
X17159523Y-15024625D02*
X17159523Y-15119863D01*
X17159523Y-15119863D02*
X17111904Y-15262720D01*
X17111904Y-15262720D02*
X16540476Y-15834149D01*
X16540476Y-15834149D02*
X17159523Y-15834149D01*
X51695833Y-40234149D02*
X51362500Y-39757958D01*
X51124405Y-40234149D02*
X51124405Y-39234149D01*
X51124405Y-39234149D02*
X51505357Y-39234149D01*
X51505357Y-39234149D02*
X51600595Y-39281768D01*
X51600595Y-39281768D02*
X51648214Y-39329387D01*
X51648214Y-39329387D02*
X51695833Y-39424625D01*
X51695833Y-39424625D02*
X51695833Y-39567482D01*
X51695833Y-39567482D02*
X51648214Y-39662720D01*
X51648214Y-39662720D02*
X51600595Y-39710339D01*
X51600595Y-39710339D02*
X51505357Y-39757958D01*
X51505357Y-39757958D02*
X51124405Y-39757958D01*
X52600595Y-39234149D02*
X52124405Y-39234149D01*
X52124405Y-39234149D02*
X52076786Y-39710339D01*
X52076786Y-39710339D02*
X52124405Y-39662720D01*
X52124405Y-39662720D02*
X52219643Y-39615101D01*
X52219643Y-39615101D02*
X52457738Y-39615101D01*
X52457738Y-39615101D02*
X52552976Y-39662720D01*
X52552976Y-39662720D02*
X52600595Y-39710339D01*
X52600595Y-39710339D02*
X52648214Y-39805577D01*
X52648214Y-39805577D02*
X52648214Y-40043672D01*
X52648214Y-40043672D02*
X52600595Y-40138910D01*
X52600595Y-40138910D02*
X52552976Y-40186530D01*
X52552976Y-40186530D02*
X52457738Y-40234149D01*
X52457738Y-40234149D02*
X52219643Y-40234149D01*
X52219643Y-40234149D02*
X52124405Y-40186530D01*
X52124405Y-40186530D02*
X52076786Y-40138910D01*
X75857185Y-42301190D02*
X76003649Y-42336177D01*
X76003649Y-42336177D02*
X76240838Y-42315425D01*
X76240838Y-42315425D02*
X76331563Y-42259687D01*
X76331563Y-42259687D02*
X76374851Y-42208099D01*
X76374851Y-42208099D02*
X76413988Y-42109073D01*
X76413988Y-42109073D02*
X76405688Y-42014197D01*
X76405688Y-42014197D02*
X76349949Y-41923472D01*
X76349949Y-41923472D02*
X76298361Y-41880184D01*
X76298361Y-41880184D02*
X76199335Y-41841047D01*
X76199335Y-41841047D02*
X76005434Y-41810210D01*
X76005434Y-41810210D02*
X75906408Y-41771073D01*
X75906408Y-41771073D02*
X75854819Y-41727785D01*
X75854819Y-41727785D02*
X75799081Y-41637060D01*
X75799081Y-41637060D02*
X75790781Y-41542184D01*
X75790781Y-41542184D02*
X75829918Y-41443158D01*
X75829918Y-41443158D02*
X75873205Y-41391570D01*
X75873205Y-41391570D02*
X75963931Y-41335832D01*
X75963931Y-41335832D02*
X76201120Y-41315080D01*
X76201120Y-41315080D02*
X76347584Y-41350067D01*
X76675499Y-41273578D02*
X76999843Y-42249021D01*
X76999843Y-42249021D02*
X77127341Y-41520852D01*
X77127341Y-41520852D02*
X77379346Y-42215819D01*
X77379346Y-42215819D02*
X77529380Y-41198873D01*
X77814007Y-41173971D02*
X78430699Y-41120017D01*
X78430699Y-41120017D02*
X78131836Y-41528572D01*
X78131836Y-41528572D02*
X78274149Y-41516121D01*
X78274149Y-41516121D02*
X78373175Y-41555259D01*
X78373175Y-41555259D02*
X78424763Y-41598546D01*
X78424763Y-41598546D02*
X78480502Y-41689272D01*
X78480502Y-41689272D02*
X78501253Y-41926461D01*
X78501253Y-41926461D02*
X78462116Y-42025487D01*
X78462116Y-42025487D02*
X78418828Y-42077075D01*
X78418828Y-42077075D02*
X78328103Y-42132813D01*
X78328103Y-42132813D02*
X78043476Y-42157715D01*
X78043476Y-42157715D02*
X77944450Y-42118578D01*
X77944450Y-42118578D02*
X77892862Y-42075290D01*
D13*
X-968610Y1581494D02*
X-968610Y1010066D01*
X-1368610Y2210066D02*
X-968610Y1581494D01*
X-968610Y1581494D02*
X-568610Y2210066D01*
X1088533Y-289934D02*
X1888533Y-1489934D01*
X1888533Y-289934D02*
X1088533Y-1489934D01*
D10*
X18983333Y-15738910D02*
X18935714Y-15786530D01*
X18935714Y-15786530D02*
X18792857Y-15834149D01*
X18792857Y-15834149D02*
X18697619Y-15834149D01*
X18697619Y-15834149D02*
X18554762Y-15786530D01*
X18554762Y-15786530D02*
X18459524Y-15691291D01*
X18459524Y-15691291D02*
X18411905Y-15596053D01*
X18411905Y-15596053D02*
X18364286Y-15405577D01*
X18364286Y-15405577D02*
X18364286Y-15262720D01*
X18364286Y-15262720D02*
X18411905Y-15072244D01*
X18411905Y-15072244D02*
X18459524Y-14977006D01*
X18459524Y-14977006D02*
X18554762Y-14881768D01*
X18554762Y-14881768D02*
X18697619Y-14834149D01*
X18697619Y-14834149D02*
X18792857Y-14834149D01*
X18792857Y-14834149D02*
X18935714Y-14881768D01*
X18935714Y-14881768D02*
X18983333Y-14929387D01*
X19364286Y-14929387D02*
X19411905Y-14881768D01*
X19411905Y-14881768D02*
X19507143Y-14834149D01*
X19507143Y-14834149D02*
X19745238Y-14834149D01*
X19745238Y-14834149D02*
X19840476Y-14881768D01*
X19840476Y-14881768D02*
X19888095Y-14929387D01*
X19888095Y-14929387D02*
X19935714Y-15024625D01*
X19935714Y-15024625D02*
X19935714Y-15119863D01*
X19935714Y-15119863D02*
X19888095Y-15262720D01*
X19888095Y-15262720D02*
X19316667Y-15834149D01*
X19316667Y-15834149D02*
X19935714Y-15834149D01*
X29091691Y-50220339D02*
X29234548Y-50267958D01*
X29234548Y-50267958D02*
X29282167Y-50315577D01*
X29282167Y-50315577D02*
X29329786Y-50410815D01*
X29329786Y-50410815D02*
X29329786Y-50553672D01*
X29329786Y-50553672D02*
X29282167Y-50648910D01*
X29282167Y-50648910D02*
X29234548Y-50696530D01*
X29234548Y-50696530D02*
X29139310Y-50744149D01*
X29139310Y-50744149D02*
X28758358Y-50744149D01*
X28758358Y-50744149D02*
X28758358Y-49744149D01*
X28758358Y-49744149D02*
X29091691Y-49744149D01*
X29091691Y-49744149D02*
X29186929Y-49791768D01*
X29186929Y-49791768D02*
X29234548Y-49839387D01*
X29234548Y-49839387D02*
X29282167Y-49934625D01*
X29282167Y-49934625D02*
X29282167Y-50029863D01*
X29282167Y-50029863D02*
X29234548Y-50125101D01*
X29234548Y-50125101D02*
X29186929Y-50172720D01*
X29186929Y-50172720D02*
X29091691Y-50220339D01*
X29091691Y-50220339D02*
X28758358Y-50220339D01*
X29710739Y-49839387D02*
X29758358Y-49791768D01*
X29758358Y-49791768D02*
X29853596Y-49744149D01*
X29853596Y-49744149D02*
X30091691Y-49744149D01*
X30091691Y-49744149D02*
X30186929Y-49791768D01*
X30186929Y-49791768D02*
X30234548Y-49839387D01*
X30234548Y-49839387D02*
X30282167Y-49934625D01*
X30282167Y-49934625D02*
X30282167Y-50029863D01*
X30282167Y-50029863D02*
X30234548Y-50172720D01*
X30234548Y-50172720D02*
X29663120Y-50744149D01*
X29663120Y-50744149D02*
X30282167Y-50744149D01*
X28059786Y-30424149D02*
X27726453Y-29947958D01*
X27488358Y-30424149D02*
X27488358Y-29424149D01*
X27488358Y-29424149D02*
X27869310Y-29424149D01*
X27869310Y-29424149D02*
X27964548Y-29471768D01*
X27964548Y-29471768D02*
X28012167Y-29519387D01*
X28012167Y-29519387D02*
X28059786Y-29614625D01*
X28059786Y-29614625D02*
X28059786Y-29757482D01*
X28059786Y-29757482D02*
X28012167Y-29852720D01*
X28012167Y-29852720D02*
X27964548Y-29900339D01*
X27964548Y-29900339D02*
X27869310Y-29947958D01*
X27869310Y-29947958D02*
X27488358Y-29947958D01*
X28440739Y-30376530D02*
X28583596Y-30424149D01*
X28583596Y-30424149D02*
X28821691Y-30424149D01*
X28821691Y-30424149D02*
X28916929Y-30376530D01*
X28916929Y-30376530D02*
X28964548Y-30328910D01*
X28964548Y-30328910D02*
X29012167Y-30233672D01*
X29012167Y-30233672D02*
X29012167Y-30138434D01*
X29012167Y-30138434D02*
X28964548Y-30043196D01*
X28964548Y-30043196D02*
X28916929Y-29995577D01*
X28916929Y-29995577D02*
X28821691Y-29947958D01*
X28821691Y-29947958D02*
X28631215Y-29900339D01*
X28631215Y-29900339D02*
X28535977Y-29852720D01*
X28535977Y-29852720D02*
X28488358Y-29805101D01*
X28488358Y-29805101D02*
X28440739Y-29709863D01*
X28440739Y-29709863D02*
X28440739Y-29614625D01*
X28440739Y-29614625D02*
X28488358Y-29519387D01*
X28488358Y-29519387D02*
X28535977Y-29471768D01*
X28535977Y-29471768D02*
X28631215Y-29424149D01*
X28631215Y-29424149D02*
X28869310Y-29424149D01*
X28869310Y-29424149D02*
X29012167Y-29471768D01*
X29297882Y-29424149D02*
X29869310Y-29424149D01*
X29583596Y-30424149D02*
X29583596Y-29424149D01*
X18534786Y-27884149D02*
X18201453Y-27407958D01*
X17963358Y-27884149D02*
X17963358Y-26884149D01*
X17963358Y-26884149D02*
X18344310Y-26884149D01*
X18344310Y-26884149D02*
X18439548Y-26931768D01*
X18439548Y-26931768D02*
X18487167Y-26979387D01*
X18487167Y-26979387D02*
X18534786Y-27074625D01*
X18534786Y-27074625D02*
X18534786Y-27217482D01*
X18534786Y-27217482D02*
X18487167Y-27312720D01*
X18487167Y-27312720D02*
X18439548Y-27360339D01*
X18439548Y-27360339D02*
X18344310Y-27407958D01*
X18344310Y-27407958D02*
X17963358Y-27407958D01*
X18868120Y-26884149D02*
X19534786Y-27884149D01*
X19534786Y-26884149D02*
X18868120Y-27884149D01*
X29091691Y-34980339D02*
X28758358Y-34980339D01*
X28758358Y-35504149D02*
X28758358Y-34504149D01*
X28758358Y-34504149D02*
X29234548Y-34504149D01*
X30044072Y-34837482D02*
X30044072Y-35504149D01*
X29805977Y-34456530D02*
X29567882Y-35170815D01*
X29567882Y-35170815D02*
X30186929Y-35170815D01*
X18487167Y-32011768D02*
X18391929Y-31964149D01*
X18391929Y-31964149D02*
X18249072Y-31964149D01*
X18249072Y-31964149D02*
X18106215Y-32011768D01*
X18106215Y-32011768D02*
X18010977Y-32107006D01*
X18010977Y-32107006D02*
X17963358Y-32202244D01*
X17963358Y-32202244D02*
X17915739Y-32392720D01*
X17915739Y-32392720D02*
X17915739Y-32535577D01*
X17915739Y-32535577D02*
X17963358Y-32726053D01*
X17963358Y-32726053D02*
X18010977Y-32821291D01*
X18010977Y-32821291D02*
X18106215Y-32916530D01*
X18106215Y-32916530D02*
X18249072Y-32964149D01*
X18249072Y-32964149D02*
X18344310Y-32964149D01*
X18344310Y-32964149D02*
X18487167Y-32916530D01*
X18487167Y-32916530D02*
X18534786Y-32868910D01*
X18534786Y-32868910D02*
X18534786Y-32535577D01*
X18534786Y-32535577D02*
X18344310Y-32535577D01*
X18963358Y-32964149D02*
X18963358Y-31964149D01*
X18963358Y-31964149D02*
X19534786Y-32964149D01*
X19534786Y-32964149D02*
X19534786Y-31964149D01*
X20010977Y-32964149D02*
X20010977Y-31964149D01*
X20010977Y-31964149D02*
X20249072Y-31964149D01*
X20249072Y-31964149D02*
X20391929Y-32011768D01*
X20391929Y-32011768D02*
X20487167Y-32107006D01*
X20487167Y-32107006D02*
X20534786Y-32202244D01*
X20534786Y-32202244D02*
X20582405Y-32392720D01*
X20582405Y-32392720D02*
X20582405Y-32535577D01*
X20582405Y-32535577D02*
X20534786Y-32726053D01*
X20534786Y-32726053D02*
X20487167Y-32821291D01*
X20487167Y-32821291D02*
X20391929Y-32916530D01*
X20391929Y-32916530D02*
X20249072Y-32964149D01*
X20249072Y-32964149D02*
X20010977Y-32964149D01*
X18534786Y-43028910D02*
X18487167Y-43076530D01*
X18487167Y-43076530D02*
X18344310Y-43124149D01*
X18344310Y-43124149D02*
X18249072Y-43124149D01*
X18249072Y-43124149D02*
X18106215Y-43076530D01*
X18106215Y-43076530D02*
X18010977Y-42981291D01*
X18010977Y-42981291D02*
X17963358Y-42886053D01*
X17963358Y-42886053D02*
X17915739Y-42695577D01*
X17915739Y-42695577D02*
X17915739Y-42552720D01*
X17915739Y-42552720D02*
X17963358Y-42362244D01*
X17963358Y-42362244D02*
X18010977Y-42267006D01*
X18010977Y-42267006D02*
X18106215Y-42171768D01*
X18106215Y-42171768D02*
X18249072Y-42124149D01*
X18249072Y-42124149D02*
X18344310Y-42124149D01*
X18344310Y-42124149D02*
X18487167Y-42171768D01*
X18487167Y-42171768D02*
X18534786Y-42219387D01*
X19391929Y-42124149D02*
X19201453Y-42124149D01*
X19201453Y-42124149D02*
X19106215Y-42171768D01*
X19106215Y-42171768D02*
X19058596Y-42219387D01*
X19058596Y-42219387D02*
X18963358Y-42362244D01*
X18963358Y-42362244D02*
X18915739Y-42552720D01*
X18915739Y-42552720D02*
X18915739Y-42933672D01*
X18915739Y-42933672D02*
X18963358Y-43028910D01*
X18963358Y-43028910D02*
X19010977Y-43076530D01*
X19010977Y-43076530D02*
X19106215Y-43124149D01*
X19106215Y-43124149D02*
X19296691Y-43124149D01*
X19296691Y-43124149D02*
X19391929Y-43076530D01*
X19391929Y-43076530D02*
X19439548Y-43028910D01*
X19439548Y-43028910D02*
X19487167Y-42933672D01*
X19487167Y-42933672D02*
X19487167Y-42695577D01*
X19487167Y-42695577D02*
X19439548Y-42600339D01*
X19439548Y-42600339D02*
X19391929Y-42552720D01*
X19391929Y-42552720D02*
X19296691Y-42505101D01*
X19296691Y-42505101D02*
X19106215Y-42505101D01*
X19106215Y-42505101D02*
X19010977Y-42552720D01*
X19010977Y-42552720D02*
X18963358Y-42600339D01*
X18963358Y-42600339D02*
X18915739Y-42695577D01*
X29091691Y-37520339D02*
X28758358Y-37520339D01*
X28758358Y-38044149D02*
X28758358Y-37044149D01*
X28758358Y-37044149D02*
X29234548Y-37044149D01*
X30091691Y-37044149D02*
X29615501Y-37044149D01*
X29615501Y-37044149D02*
X29567882Y-37520339D01*
X29567882Y-37520339D02*
X29615501Y-37472720D01*
X29615501Y-37472720D02*
X29710739Y-37425101D01*
X29710739Y-37425101D02*
X29948834Y-37425101D01*
X29948834Y-37425101D02*
X30044072Y-37472720D01*
X30044072Y-37472720D02*
X30091691Y-37520339D01*
X30091691Y-37520339D02*
X30139310Y-37615577D01*
X30139310Y-37615577D02*
X30139310Y-37853672D01*
X30139310Y-37853672D02*
X30091691Y-37948910D01*
X30091691Y-37948910D02*
X30044072Y-37996530D01*
X30044072Y-37996530D02*
X29948834Y-38044149D01*
X29948834Y-38044149D02*
X29710739Y-38044149D01*
X29710739Y-38044149D02*
X29615501Y-37996530D01*
X29615501Y-37996530D02*
X29567882Y-37948910D01*
X29091691Y-42600339D02*
X28758358Y-42600339D01*
X28758358Y-43124149D02*
X28758358Y-42124149D01*
X28758358Y-42124149D02*
X29234548Y-42124149D01*
X29520263Y-42124149D02*
X30186929Y-42124149D01*
X30186929Y-42124149D02*
X29758358Y-43124149D01*
X17915739Y-37996530D02*
X18058596Y-38044149D01*
X18058596Y-38044149D02*
X18296691Y-38044149D01*
X18296691Y-38044149D02*
X18391929Y-37996530D01*
X18391929Y-37996530D02*
X18439548Y-37948910D01*
X18439548Y-37948910D02*
X18487167Y-37853672D01*
X18487167Y-37853672D02*
X18487167Y-37758434D01*
X18487167Y-37758434D02*
X18439548Y-37663196D01*
X18439548Y-37663196D02*
X18391929Y-37615577D01*
X18391929Y-37615577D02*
X18296691Y-37567958D01*
X18296691Y-37567958D02*
X18106215Y-37520339D01*
X18106215Y-37520339D02*
X18010977Y-37472720D01*
X18010977Y-37472720D02*
X17963358Y-37425101D01*
X17963358Y-37425101D02*
X17915739Y-37329863D01*
X17915739Y-37329863D02*
X17915739Y-37234625D01*
X17915739Y-37234625D02*
X17963358Y-37139387D01*
X17963358Y-37139387D02*
X18010977Y-37091768D01*
X18010977Y-37091768D02*
X18106215Y-37044149D01*
X18106215Y-37044149D02*
X18344310Y-37044149D01*
X18344310Y-37044149D02*
X18487167Y-37091768D01*
X19487167Y-37948910D02*
X19439548Y-37996530D01*
X19439548Y-37996530D02*
X19296691Y-38044149D01*
X19296691Y-38044149D02*
X19201453Y-38044149D01*
X19201453Y-38044149D02*
X19058596Y-37996530D01*
X19058596Y-37996530D02*
X18963358Y-37901291D01*
X18963358Y-37901291D02*
X18915739Y-37806053D01*
X18915739Y-37806053D02*
X18868120Y-37615577D01*
X18868120Y-37615577D02*
X18868120Y-37472720D01*
X18868120Y-37472720D02*
X18915739Y-37282244D01*
X18915739Y-37282244D02*
X18963358Y-37187006D01*
X18963358Y-37187006D02*
X19058596Y-37091768D01*
X19058596Y-37091768D02*
X19201453Y-37044149D01*
X19201453Y-37044149D02*
X19296691Y-37044149D01*
X19296691Y-37044149D02*
X19439548Y-37091768D01*
X19439548Y-37091768D02*
X19487167Y-37139387D01*
X20391929Y-38044149D02*
X19915739Y-38044149D01*
X19915739Y-38044149D02*
X19915739Y-37044149D01*
X29091691Y-40060339D02*
X28758358Y-40060339D01*
X28758358Y-40584149D02*
X28758358Y-39584149D01*
X28758358Y-39584149D02*
X29234548Y-39584149D01*
X30044072Y-39584149D02*
X29853596Y-39584149D01*
X29853596Y-39584149D02*
X29758358Y-39631768D01*
X29758358Y-39631768D02*
X29710739Y-39679387D01*
X29710739Y-39679387D02*
X29615501Y-39822244D01*
X29615501Y-39822244D02*
X29567882Y-40012720D01*
X29567882Y-40012720D02*
X29567882Y-40393672D01*
X29567882Y-40393672D02*
X29615501Y-40488910D01*
X29615501Y-40488910D02*
X29663120Y-40536530D01*
X29663120Y-40536530D02*
X29758358Y-40584149D01*
X29758358Y-40584149D02*
X29948834Y-40584149D01*
X29948834Y-40584149D02*
X30044072Y-40536530D01*
X30044072Y-40536530D02*
X30091691Y-40488910D01*
X30091691Y-40488910D02*
X30139310Y-40393672D01*
X30139310Y-40393672D02*
X30139310Y-40155577D01*
X30139310Y-40155577D02*
X30091691Y-40060339D01*
X30091691Y-40060339D02*
X30044072Y-40012720D01*
X30044072Y-40012720D02*
X29948834Y-39965101D01*
X29948834Y-39965101D02*
X29758358Y-39965101D01*
X29758358Y-39965101D02*
X29663120Y-40012720D01*
X29663120Y-40012720D02*
X29615501Y-40060339D01*
X29615501Y-40060339D02*
X29567882Y-40155577D01*
X17820501Y-24344149D02*
X18391929Y-24344149D01*
X18106215Y-25344149D02*
X18106215Y-24344149D01*
X18630025Y-24344149D02*
X19296691Y-25344149D01*
X19296691Y-24344149D02*
X18630025Y-25344149D01*
X17963358Y-45664149D02*
X17963358Y-44664149D01*
X17963358Y-44664149D02*
X18201453Y-44664149D01*
X18201453Y-44664149D02*
X18344310Y-44711768D01*
X18344310Y-44711768D02*
X18439548Y-44807006D01*
X18439548Y-44807006D02*
X18487167Y-44902244D01*
X18487167Y-44902244D02*
X18534786Y-45092720D01*
X18534786Y-45092720D02*
X18534786Y-45235577D01*
X18534786Y-45235577D02*
X18487167Y-45426053D01*
X18487167Y-45426053D02*
X18439548Y-45521291D01*
X18439548Y-45521291D02*
X18344310Y-45616530D01*
X18344310Y-45616530D02*
X18201453Y-45664149D01*
X18201453Y-45664149D02*
X17963358Y-45664149D01*
X18868120Y-44664149D02*
X19534786Y-44664149D01*
X19534786Y-44664149D02*
X19106215Y-45664149D01*
X27345501Y-31964149D02*
X27678834Y-32964149D01*
X27678834Y-32964149D02*
X28012167Y-31964149D01*
X28916929Y-32868910D02*
X28869310Y-32916530D01*
X28869310Y-32916530D02*
X28726453Y-32964149D01*
X28726453Y-32964149D02*
X28631215Y-32964149D01*
X28631215Y-32964149D02*
X28488358Y-32916530D01*
X28488358Y-32916530D02*
X28393120Y-32821291D01*
X28393120Y-32821291D02*
X28345501Y-32726053D01*
X28345501Y-32726053D02*
X28297882Y-32535577D01*
X28297882Y-32535577D02*
X28297882Y-32392720D01*
X28297882Y-32392720D02*
X28345501Y-32202244D01*
X28345501Y-32202244D02*
X28393120Y-32107006D01*
X28393120Y-32107006D02*
X28488358Y-32011768D01*
X28488358Y-32011768D02*
X28631215Y-31964149D01*
X28631215Y-31964149D02*
X28726453Y-31964149D01*
X28726453Y-31964149D02*
X28869310Y-32011768D01*
X28869310Y-32011768D02*
X28916929Y-32059387D01*
X29916929Y-32868910D02*
X29869310Y-32916530D01*
X29869310Y-32916530D02*
X29726453Y-32964149D01*
X29726453Y-32964149D02*
X29631215Y-32964149D01*
X29631215Y-32964149D02*
X29488358Y-32916530D01*
X29488358Y-32916530D02*
X29393120Y-32821291D01*
X29393120Y-32821291D02*
X29345501Y-32726053D01*
X29345501Y-32726053D02*
X29297882Y-32535577D01*
X29297882Y-32535577D02*
X29297882Y-32392720D01*
X29297882Y-32392720D02*
X29345501Y-32202244D01*
X29345501Y-32202244D02*
X29393120Y-32107006D01*
X29393120Y-32107006D02*
X29488358Y-32011768D01*
X29488358Y-32011768D02*
X29631215Y-31964149D01*
X29631215Y-31964149D02*
X29726453Y-31964149D01*
X29726453Y-31964149D02*
X29869310Y-32011768D01*
X29869310Y-32011768D02*
X29916929Y-32059387D01*
X29091691Y-45140339D02*
X29234548Y-45187958D01*
X29234548Y-45187958D02*
X29282167Y-45235577D01*
X29282167Y-45235577D02*
X29329786Y-45330815D01*
X29329786Y-45330815D02*
X29329786Y-45473672D01*
X29329786Y-45473672D02*
X29282167Y-45568910D01*
X29282167Y-45568910D02*
X29234548Y-45616530D01*
X29234548Y-45616530D02*
X29139310Y-45664149D01*
X29139310Y-45664149D02*
X28758358Y-45664149D01*
X28758358Y-45664149D02*
X28758358Y-44664149D01*
X28758358Y-44664149D02*
X29091691Y-44664149D01*
X29091691Y-44664149D02*
X29186929Y-44711768D01*
X29186929Y-44711768D02*
X29234548Y-44759387D01*
X29234548Y-44759387D02*
X29282167Y-44854625D01*
X29282167Y-44854625D02*
X29282167Y-44949863D01*
X29282167Y-44949863D02*
X29234548Y-45045101D01*
X29234548Y-45045101D02*
X29186929Y-45092720D01*
X29186929Y-45092720D02*
X29091691Y-45140339D01*
X29091691Y-45140339D02*
X28758358Y-45140339D01*
X30282167Y-45664149D02*
X29710739Y-45664149D01*
X29996453Y-45664149D02*
X29996453Y-44664149D01*
X29996453Y-44664149D02*
X29901215Y-44807006D01*
X29901215Y-44807006D02*
X29805977Y-44902244D01*
X29805977Y-44902244D02*
X29710739Y-44949863D01*
X29091691Y-47680339D02*
X29234548Y-47727958D01*
X29234548Y-47727958D02*
X29282167Y-47775577D01*
X29282167Y-47775577D02*
X29329786Y-47870815D01*
X29329786Y-47870815D02*
X29329786Y-48013672D01*
X29329786Y-48013672D02*
X29282167Y-48108910D01*
X29282167Y-48108910D02*
X29234548Y-48156530D01*
X29234548Y-48156530D02*
X29139310Y-48204149D01*
X29139310Y-48204149D02*
X28758358Y-48204149D01*
X28758358Y-48204149D02*
X28758358Y-47204149D01*
X28758358Y-47204149D02*
X29091691Y-47204149D01*
X29091691Y-47204149D02*
X29186929Y-47251768D01*
X29186929Y-47251768D02*
X29234548Y-47299387D01*
X29234548Y-47299387D02*
X29282167Y-47394625D01*
X29282167Y-47394625D02*
X29282167Y-47489863D01*
X29282167Y-47489863D02*
X29234548Y-47585101D01*
X29234548Y-47585101D02*
X29186929Y-47632720D01*
X29186929Y-47632720D02*
X29091691Y-47680339D01*
X29091691Y-47680339D02*
X28758358Y-47680339D01*
X29663120Y-47204149D02*
X30282167Y-47204149D01*
X30282167Y-47204149D02*
X29948834Y-47585101D01*
X29948834Y-47585101D02*
X30091691Y-47585101D01*
X30091691Y-47585101D02*
X30186929Y-47632720D01*
X30186929Y-47632720D02*
X30234548Y-47680339D01*
X30234548Y-47680339D02*
X30282167Y-47775577D01*
X30282167Y-47775577D02*
X30282167Y-48013672D01*
X30282167Y-48013672D02*
X30234548Y-48108910D01*
X30234548Y-48108910D02*
X30186929Y-48156530D01*
X30186929Y-48156530D02*
X30091691Y-48204149D01*
X30091691Y-48204149D02*
X29805977Y-48204149D01*
X29805977Y-48204149D02*
X29710739Y-48156530D01*
X29710739Y-48156530D02*
X29663120Y-48108910D01*
X18296691Y-50220339D02*
X18439548Y-50267958D01*
X18439548Y-50267958D02*
X18487167Y-50315577D01*
X18487167Y-50315577D02*
X18534786Y-50410815D01*
X18534786Y-50410815D02*
X18534786Y-50553672D01*
X18534786Y-50553672D02*
X18487167Y-50648910D01*
X18487167Y-50648910D02*
X18439548Y-50696530D01*
X18439548Y-50696530D02*
X18344310Y-50744149D01*
X18344310Y-50744149D02*
X17963358Y-50744149D01*
X17963358Y-50744149D02*
X17963358Y-49744149D01*
X17963358Y-49744149D02*
X18296691Y-49744149D01*
X18296691Y-49744149D02*
X18391929Y-49791768D01*
X18391929Y-49791768D02*
X18439548Y-49839387D01*
X18439548Y-49839387D02*
X18487167Y-49934625D01*
X18487167Y-49934625D02*
X18487167Y-50029863D01*
X18487167Y-50029863D02*
X18439548Y-50125101D01*
X18439548Y-50125101D02*
X18391929Y-50172720D01*
X18391929Y-50172720D02*
X18296691Y-50220339D01*
X18296691Y-50220339D02*
X17963358Y-50220339D01*
X19391929Y-50077482D02*
X19391929Y-50744149D01*
X19153834Y-49696530D02*
X18915739Y-50410815D01*
X18915739Y-50410815D02*
X19534786Y-50410815D01*
X18487167Y-29471768D02*
X18391929Y-29424149D01*
X18391929Y-29424149D02*
X18249072Y-29424149D01*
X18249072Y-29424149D02*
X18106215Y-29471768D01*
X18106215Y-29471768D02*
X18010977Y-29567006D01*
X18010977Y-29567006D02*
X17963358Y-29662244D01*
X17963358Y-29662244D02*
X17915739Y-29852720D01*
X17915739Y-29852720D02*
X17915739Y-29995577D01*
X17915739Y-29995577D02*
X17963358Y-30186053D01*
X17963358Y-30186053D02*
X18010977Y-30281291D01*
X18010977Y-30281291D02*
X18106215Y-30376530D01*
X18106215Y-30376530D02*
X18249072Y-30424149D01*
X18249072Y-30424149D02*
X18344310Y-30424149D01*
X18344310Y-30424149D02*
X18487167Y-30376530D01*
X18487167Y-30376530D02*
X18534786Y-30328910D01*
X18534786Y-30328910D02*
X18534786Y-29995577D01*
X18534786Y-29995577D02*
X18344310Y-29995577D01*
X18963358Y-30424149D02*
X18963358Y-29424149D01*
X18963358Y-29424149D02*
X19534786Y-30424149D01*
X19534786Y-30424149D02*
X19534786Y-29424149D01*
X20010977Y-30424149D02*
X20010977Y-29424149D01*
X20010977Y-29424149D02*
X20249072Y-29424149D01*
X20249072Y-29424149D02*
X20391929Y-29471768D01*
X20391929Y-29471768D02*
X20487167Y-29567006D01*
X20487167Y-29567006D02*
X20534786Y-29662244D01*
X20534786Y-29662244D02*
X20582405Y-29852720D01*
X20582405Y-29852720D02*
X20582405Y-29995577D01*
X20582405Y-29995577D02*
X20534786Y-30186053D01*
X20534786Y-30186053D02*
X20487167Y-30281291D01*
X20487167Y-30281291D02*
X20391929Y-30376530D01*
X20391929Y-30376530D02*
X20249072Y-30424149D01*
X20249072Y-30424149D02*
X20010977Y-30424149D01*
X17915739Y-35456530D02*
X18058596Y-35504149D01*
X18058596Y-35504149D02*
X18296691Y-35504149D01*
X18296691Y-35504149D02*
X18391929Y-35456530D01*
X18391929Y-35456530D02*
X18439548Y-35408910D01*
X18439548Y-35408910D02*
X18487167Y-35313672D01*
X18487167Y-35313672D02*
X18487167Y-35218434D01*
X18487167Y-35218434D02*
X18439548Y-35123196D01*
X18439548Y-35123196D02*
X18391929Y-35075577D01*
X18391929Y-35075577D02*
X18296691Y-35027958D01*
X18296691Y-35027958D02*
X18106215Y-34980339D01*
X18106215Y-34980339D02*
X18010977Y-34932720D01*
X18010977Y-34932720D02*
X17963358Y-34885101D01*
X17963358Y-34885101D02*
X17915739Y-34789863D01*
X17915739Y-34789863D02*
X17915739Y-34694625D01*
X17915739Y-34694625D02*
X17963358Y-34599387D01*
X17963358Y-34599387D02*
X18010977Y-34551768D01*
X18010977Y-34551768D02*
X18106215Y-34504149D01*
X18106215Y-34504149D02*
X18344310Y-34504149D01*
X18344310Y-34504149D02*
X18487167Y-34551768D01*
X18915739Y-35504149D02*
X18915739Y-34504149D01*
X18915739Y-34504149D02*
X19153834Y-34504149D01*
X19153834Y-34504149D02*
X19296691Y-34551768D01*
X19296691Y-34551768D02*
X19391929Y-34647006D01*
X19391929Y-34647006D02*
X19439548Y-34742244D01*
X19439548Y-34742244D02*
X19487167Y-34932720D01*
X19487167Y-34932720D02*
X19487167Y-35075577D01*
X19487167Y-35075577D02*
X19439548Y-35266053D01*
X19439548Y-35266053D02*
X19391929Y-35361291D01*
X19391929Y-35361291D02*
X19296691Y-35456530D01*
X19296691Y-35456530D02*
X19153834Y-35504149D01*
X19153834Y-35504149D02*
X18915739Y-35504149D01*
X19868120Y-35218434D02*
X20344310Y-35218434D01*
X19772882Y-35504149D02*
X20106215Y-34504149D01*
X20106215Y-34504149D02*
X20439548Y-35504149D01*
X17963358Y-40584149D02*
X17963358Y-39584149D01*
X17963358Y-39584149D02*
X18201453Y-39584149D01*
X18201453Y-39584149D02*
X18344310Y-39631768D01*
X18344310Y-39631768D02*
X18439548Y-39727006D01*
X18439548Y-39727006D02*
X18487167Y-39822244D01*
X18487167Y-39822244D02*
X18534786Y-40012720D01*
X18534786Y-40012720D02*
X18534786Y-40155577D01*
X18534786Y-40155577D02*
X18487167Y-40346053D01*
X18487167Y-40346053D02*
X18439548Y-40441291D01*
X18439548Y-40441291D02*
X18344310Y-40536530D01*
X18344310Y-40536530D02*
X18201453Y-40584149D01*
X18201453Y-40584149D02*
X17963358Y-40584149D01*
X19391929Y-39917482D02*
X19391929Y-40584149D01*
X19153834Y-39536530D02*
X18915739Y-40250815D01*
X18915739Y-40250815D02*
X19534786Y-40250815D01*
X29091691Y-52760339D02*
X29234548Y-52807958D01*
X29234548Y-52807958D02*
X29282167Y-52855577D01*
X29282167Y-52855577D02*
X29329786Y-52950815D01*
X29329786Y-52950815D02*
X29329786Y-53093672D01*
X29329786Y-53093672D02*
X29282167Y-53188910D01*
X29282167Y-53188910D02*
X29234548Y-53236530D01*
X29234548Y-53236530D02*
X29139310Y-53284149D01*
X29139310Y-53284149D02*
X28758358Y-53284149D01*
X28758358Y-53284149D02*
X28758358Y-52284149D01*
X28758358Y-52284149D02*
X29091691Y-52284149D01*
X29091691Y-52284149D02*
X29186929Y-52331768D01*
X29186929Y-52331768D02*
X29234548Y-52379387D01*
X29234548Y-52379387D02*
X29282167Y-52474625D01*
X29282167Y-52474625D02*
X29282167Y-52569863D01*
X29282167Y-52569863D02*
X29234548Y-52665101D01*
X29234548Y-52665101D02*
X29186929Y-52712720D01*
X29186929Y-52712720D02*
X29091691Y-52760339D01*
X29091691Y-52760339D02*
X28758358Y-52760339D01*
X30186929Y-52284149D02*
X29996453Y-52284149D01*
X29996453Y-52284149D02*
X29901215Y-52331768D01*
X29901215Y-52331768D02*
X29853596Y-52379387D01*
X29853596Y-52379387D02*
X29758358Y-52522244D01*
X29758358Y-52522244D02*
X29710739Y-52712720D01*
X29710739Y-52712720D02*
X29710739Y-53093672D01*
X29710739Y-53093672D02*
X29758358Y-53188910D01*
X29758358Y-53188910D02*
X29805977Y-53236530D01*
X29805977Y-53236530D02*
X29901215Y-53284149D01*
X29901215Y-53284149D02*
X30091691Y-53284149D01*
X30091691Y-53284149D02*
X30186929Y-53236530D01*
X30186929Y-53236530D02*
X30234548Y-53188910D01*
X30234548Y-53188910D02*
X30282167Y-53093672D01*
X30282167Y-53093672D02*
X30282167Y-52855577D01*
X30282167Y-52855577D02*
X30234548Y-52760339D01*
X30234548Y-52760339D02*
X30186929Y-52712720D01*
X30186929Y-52712720D02*
X30091691Y-52665101D01*
X30091691Y-52665101D02*
X29901215Y-52665101D01*
X29901215Y-52665101D02*
X29805977Y-52712720D01*
X29805977Y-52712720D02*
X29758358Y-52760339D01*
X29758358Y-52760339D02*
X29710739Y-52855577D01*
X28059786Y-25344149D02*
X27726453Y-24867958D01*
X27488358Y-25344149D02*
X27488358Y-24344149D01*
X27488358Y-24344149D02*
X27869310Y-24344149D01*
X27869310Y-24344149D02*
X27964548Y-24391768D01*
X27964548Y-24391768D02*
X28012167Y-24439387D01*
X28012167Y-24439387D02*
X28059786Y-24534625D01*
X28059786Y-24534625D02*
X28059786Y-24677482D01*
X28059786Y-24677482D02*
X28012167Y-24772720D01*
X28012167Y-24772720D02*
X27964548Y-24820339D01*
X27964548Y-24820339D02*
X27869310Y-24867958D01*
X27869310Y-24867958D02*
X27488358Y-24867958D01*
X28440739Y-25058434D02*
X28916929Y-25058434D01*
X28345501Y-25344149D02*
X28678834Y-24344149D01*
X28678834Y-24344149D02*
X29012167Y-25344149D01*
X29250263Y-24344149D02*
X29488358Y-25344149D01*
X29488358Y-25344149D02*
X29678834Y-24629863D01*
X29678834Y-24629863D02*
X29869310Y-25344149D01*
X29869310Y-25344149D02*
X30107406Y-24344149D01*
X17963358Y-47680339D02*
X18296691Y-47680339D01*
X18439548Y-48204149D02*
X17963358Y-48204149D01*
X17963358Y-48204149D02*
X17963358Y-47204149D01*
X17963358Y-47204149D02*
X18439548Y-47204149D01*
X19296691Y-47204149D02*
X19106215Y-47204149D01*
X19106215Y-47204149D02*
X19010977Y-47251768D01*
X19010977Y-47251768D02*
X18963358Y-47299387D01*
X18963358Y-47299387D02*
X18868120Y-47442244D01*
X18868120Y-47442244D02*
X18820501Y-47632720D01*
X18820501Y-47632720D02*
X18820501Y-48013672D01*
X18820501Y-48013672D02*
X18868120Y-48108910D01*
X18868120Y-48108910D02*
X18915739Y-48156530D01*
X18915739Y-48156530D02*
X19010977Y-48204149D01*
X19010977Y-48204149D02*
X19201453Y-48204149D01*
X19201453Y-48204149D02*
X19296691Y-48156530D01*
X19296691Y-48156530D02*
X19344310Y-48108910D01*
X19344310Y-48108910D02*
X19391929Y-48013672D01*
X19391929Y-48013672D02*
X19391929Y-47775577D01*
X19391929Y-47775577D02*
X19344310Y-47680339D01*
X19344310Y-47680339D02*
X19296691Y-47632720D01*
X19296691Y-47632720D02*
X19201453Y-47585101D01*
X19201453Y-47585101D02*
X19010977Y-47585101D01*
X19010977Y-47585101D02*
X18915739Y-47632720D01*
X18915739Y-47632720D02*
X18868120Y-47680339D01*
X18868120Y-47680339D02*
X18820501Y-47775577D01*
X18296691Y-52760339D02*
X18439548Y-52807958D01*
X18439548Y-52807958D02*
X18487167Y-52855577D01*
X18487167Y-52855577D02*
X18534786Y-52950815D01*
X18534786Y-52950815D02*
X18534786Y-53093672D01*
X18534786Y-53093672D02*
X18487167Y-53188910D01*
X18487167Y-53188910D02*
X18439548Y-53236530D01*
X18439548Y-53236530D02*
X18344310Y-53284149D01*
X18344310Y-53284149D02*
X17963358Y-53284149D01*
X17963358Y-53284149D02*
X17963358Y-52284149D01*
X17963358Y-52284149D02*
X18296691Y-52284149D01*
X18296691Y-52284149D02*
X18391929Y-52331768D01*
X18391929Y-52331768D02*
X18439548Y-52379387D01*
X18439548Y-52379387D02*
X18487167Y-52474625D01*
X18487167Y-52474625D02*
X18487167Y-52569863D01*
X18487167Y-52569863D02*
X18439548Y-52665101D01*
X18439548Y-52665101D02*
X18391929Y-52712720D01*
X18391929Y-52712720D02*
X18296691Y-52760339D01*
X18296691Y-52760339D02*
X17963358Y-52760339D01*
X19439548Y-52284149D02*
X18963358Y-52284149D01*
X18963358Y-52284149D02*
X18915739Y-52760339D01*
X18915739Y-52760339D02*
X18963358Y-52712720D01*
X18963358Y-52712720D02*
X19058596Y-52665101D01*
X19058596Y-52665101D02*
X19296691Y-52665101D01*
X19296691Y-52665101D02*
X19391929Y-52712720D01*
X19391929Y-52712720D02*
X19439548Y-52760339D01*
X19439548Y-52760339D02*
X19487167Y-52855577D01*
X19487167Y-52855577D02*
X19487167Y-53093672D01*
X19487167Y-53093672D02*
X19439548Y-53188910D01*
X19439548Y-53188910D02*
X19391929Y-53236530D01*
X19391929Y-53236530D02*
X19296691Y-53284149D01*
X19296691Y-53284149D02*
X19058596Y-53284149D01*
X19058596Y-53284149D02*
X18963358Y-53236530D01*
X18963358Y-53236530D02*
X18915739Y-53188910D01*
X28012167Y-26931768D02*
X27916929Y-26884149D01*
X27916929Y-26884149D02*
X27774072Y-26884149D01*
X27774072Y-26884149D02*
X27631215Y-26931768D01*
X27631215Y-26931768D02*
X27535977Y-27027006D01*
X27535977Y-27027006D02*
X27488358Y-27122244D01*
X27488358Y-27122244D02*
X27440739Y-27312720D01*
X27440739Y-27312720D02*
X27440739Y-27455577D01*
X27440739Y-27455577D02*
X27488358Y-27646053D01*
X27488358Y-27646053D02*
X27535977Y-27741291D01*
X27535977Y-27741291D02*
X27631215Y-27836530D01*
X27631215Y-27836530D02*
X27774072Y-27884149D01*
X27774072Y-27884149D02*
X27869310Y-27884149D01*
X27869310Y-27884149D02*
X28012167Y-27836530D01*
X28012167Y-27836530D02*
X28059786Y-27788910D01*
X28059786Y-27788910D02*
X28059786Y-27455577D01*
X28059786Y-27455577D02*
X27869310Y-27455577D01*
X28488358Y-27884149D02*
X28488358Y-26884149D01*
X28488358Y-26884149D02*
X29059786Y-27884149D01*
X29059786Y-27884149D02*
X29059786Y-26884149D01*
X29535977Y-27884149D02*
X29535977Y-26884149D01*
X29535977Y-26884149D02*
X29774072Y-26884149D01*
X29774072Y-26884149D02*
X29916929Y-26931768D01*
X29916929Y-26931768D02*
X30012167Y-27027006D01*
X30012167Y-27027006D02*
X30059786Y-27122244D01*
X30059786Y-27122244D02*
X30107405Y-27312720D01*
X30107405Y-27312720D02*
X30107405Y-27455577D01*
X30107405Y-27455577D02*
X30059786Y-27646053D01*
X30059786Y-27646053D02*
X30012167Y-27741291D01*
X30012167Y-27741291D02*
X29916929Y-27836530D01*
X29916929Y-27836530D02*
X29774072Y-27884149D01*
X29774072Y-27884149D02*
X29535977Y-27884149D01*
X51695833Y-34784149D02*
X51362500Y-34307958D01*
X51124405Y-34784149D02*
X51124405Y-33784149D01*
X51124405Y-33784149D02*
X51505357Y-33784149D01*
X51505357Y-33784149D02*
X51600595Y-33831768D01*
X51600595Y-33831768D02*
X51648214Y-33879387D01*
X51648214Y-33879387D02*
X51695833Y-33974625D01*
X51695833Y-33974625D02*
X51695833Y-34117482D01*
X51695833Y-34117482D02*
X51648214Y-34212720D01*
X51648214Y-34212720D02*
X51600595Y-34260339D01*
X51600595Y-34260339D02*
X51505357Y-34307958D01*
X51505357Y-34307958D02*
X51124405Y-34307958D01*
X52029167Y-33784149D02*
X52695833Y-33784149D01*
X52695833Y-33784149D02*
X52267262Y-34784149D01*
X55306666Y-10910339D02*
X54973333Y-10910339D01*
X54973333Y-11434149D02*
X54973333Y-10434149D01*
X54973333Y-10434149D02*
X55449523Y-10434149D01*
X56163809Y-10910339D02*
X56306666Y-10957958D01*
X56306666Y-10957958D02*
X56354285Y-11005577D01*
X56354285Y-11005577D02*
X56401904Y-11100815D01*
X56401904Y-11100815D02*
X56401904Y-11243672D01*
X56401904Y-11243672D02*
X56354285Y-11338910D01*
X56354285Y-11338910D02*
X56306666Y-11386530D01*
X56306666Y-11386530D02*
X56211428Y-11434149D01*
X56211428Y-11434149D02*
X55830476Y-11434149D01*
X55830476Y-11434149D02*
X55830476Y-10434149D01*
X55830476Y-10434149D02*
X56163809Y-10434149D01*
X56163809Y-10434149D02*
X56259047Y-10481768D01*
X56259047Y-10481768D02*
X56306666Y-10529387D01*
X56306666Y-10529387D02*
X56354285Y-10624625D01*
X56354285Y-10624625D02*
X56354285Y-10719863D01*
X56354285Y-10719863D02*
X56306666Y-10815101D01*
X56306666Y-10815101D02*
X56259047Y-10862720D01*
X56259047Y-10862720D02*
X56163809Y-10910339D01*
X56163809Y-10910339D02*
X55830476Y-10910339D01*
X56735238Y-10434149D02*
X57354285Y-10434149D01*
X57354285Y-10434149D02*
X57020952Y-10815101D01*
X57020952Y-10815101D02*
X57163809Y-10815101D01*
X57163809Y-10815101D02*
X57259047Y-10862720D01*
X57259047Y-10862720D02*
X57306666Y-10910339D01*
X57306666Y-10910339D02*
X57354285Y-11005577D01*
X57354285Y-11005577D02*
X57354285Y-11243672D01*
X57354285Y-11243672D02*
X57306666Y-11338910D01*
X57306666Y-11338910D02*
X57259047Y-11386530D01*
X57259047Y-11386530D02*
X57163809Y-11434149D01*
X57163809Y-11434149D02*
X56878095Y-11434149D01*
X56878095Y-11434149D02*
X56782857Y-11386530D01*
X56782857Y-11386530D02*
X56735238Y-11338910D01*
X20983333Y-15834149D02*
X20650000Y-15357958D01*
X20411905Y-15834149D02*
X20411905Y-14834149D01*
X20411905Y-14834149D02*
X20792857Y-14834149D01*
X20792857Y-14834149D02*
X20888095Y-14881768D01*
X20888095Y-14881768D02*
X20935714Y-14929387D01*
X20935714Y-14929387D02*
X20983333Y-15024625D01*
X20983333Y-15024625D02*
X20983333Y-15167482D01*
X20983333Y-15167482D02*
X20935714Y-15262720D01*
X20935714Y-15262720D02*
X20888095Y-15310339D01*
X20888095Y-15310339D02*
X20792857Y-15357958D01*
X20792857Y-15357958D02*
X20411905Y-15357958D01*
X21840476Y-15167482D02*
X21840476Y-15834149D01*
X21602381Y-14786530D02*
X21364286Y-15500815D01*
X21364286Y-15500815D02*
X21983333Y-15500815D01*
X18133333Y2061090D02*
X18085714Y2013470D01*
X18085714Y2013470D02*
X17942857Y1965851D01*
X17942857Y1965851D02*
X17847619Y1965851D01*
X17847619Y1965851D02*
X17704762Y2013470D01*
X17704762Y2013470D02*
X17609524Y2108709D01*
X17609524Y2108709D02*
X17561905Y2203947D01*
X17561905Y2203947D02*
X17514286Y2394423D01*
X17514286Y2394423D02*
X17514286Y2537280D01*
X17514286Y2537280D02*
X17561905Y2727756D01*
X17561905Y2727756D02*
X17609524Y2822994D01*
X17609524Y2822994D02*
X17704762Y2918232D01*
X17704762Y2918232D02*
X17847619Y2965851D01*
X17847619Y2965851D02*
X17942857Y2965851D01*
X17942857Y2965851D02*
X18085714Y2918232D01*
X18085714Y2918232D02*
X18133333Y2870613D01*
X18466667Y2965851D02*
X19085714Y2965851D01*
X19085714Y2965851D02*
X18752381Y2584899D01*
X18752381Y2584899D02*
X18895238Y2584899D01*
X18895238Y2584899D02*
X18990476Y2537280D01*
X18990476Y2537280D02*
X19038095Y2489661D01*
X19038095Y2489661D02*
X19085714Y2394423D01*
X19085714Y2394423D02*
X19085714Y2156328D01*
X19085714Y2156328D02*
X19038095Y2061090D01*
X19038095Y2061090D02*
X18990476Y2013470D01*
X18990476Y2013470D02*
X18895238Y1965851D01*
X18895238Y1965851D02*
X18609524Y1965851D01*
X18609524Y1965851D02*
X18514286Y2013470D01*
X18514286Y2013470D02*
X18466667Y2061090D01*
X13383333Y-15138910D02*
X13335714Y-15186530D01*
X13335714Y-15186530D02*
X13192857Y-15234149D01*
X13192857Y-15234149D02*
X13097619Y-15234149D01*
X13097619Y-15234149D02*
X12954762Y-15186530D01*
X12954762Y-15186530D02*
X12859524Y-15091291D01*
X12859524Y-15091291D02*
X12811905Y-14996053D01*
X12811905Y-14996053D02*
X12764286Y-14805577D01*
X12764286Y-14805577D02*
X12764286Y-14662720D01*
X12764286Y-14662720D02*
X12811905Y-14472244D01*
X12811905Y-14472244D02*
X12859524Y-14377006D01*
X12859524Y-14377006D02*
X12954762Y-14281768D01*
X12954762Y-14281768D02*
X13097619Y-14234149D01*
X13097619Y-14234149D02*
X13192857Y-14234149D01*
X13192857Y-14234149D02*
X13335714Y-14281768D01*
X13335714Y-14281768D02*
X13383333Y-14329387D01*
X14335714Y-15234149D02*
X13764286Y-15234149D01*
X14050000Y-15234149D02*
X14050000Y-14234149D01*
X14050000Y-14234149D02*
X13954762Y-14377006D01*
X13954762Y-14377006D02*
X13859524Y-14472244D01*
X13859524Y-14472244D02*
X13764286Y-14519863D01*
X84533333Y-13546649D02*
X84200000Y-13070458D01*
X83961905Y-13546649D02*
X83961905Y-12546649D01*
X83961905Y-12546649D02*
X84342857Y-12546649D01*
X84342857Y-12546649D02*
X84438095Y-12594268D01*
X84438095Y-12594268D02*
X84485714Y-12641887D01*
X84485714Y-12641887D02*
X84533333Y-12737125D01*
X84533333Y-12737125D02*
X84533333Y-12879982D01*
X84533333Y-12879982D02*
X84485714Y-12975220D01*
X84485714Y-12975220D02*
X84438095Y-13022839D01*
X84438095Y-13022839D02*
X84342857Y-13070458D01*
X84342857Y-13070458D02*
X83961905Y-13070458D01*
X84914286Y-12641887D02*
X84961905Y-12594268D01*
X84961905Y-12594268D02*
X85057143Y-12546649D01*
X85057143Y-12546649D02*
X85295238Y-12546649D01*
X85295238Y-12546649D02*
X85390476Y-12594268D01*
X85390476Y-12594268D02*
X85438095Y-12641887D01*
X85438095Y-12641887D02*
X85485714Y-12737125D01*
X85485714Y-12737125D02*
X85485714Y-12832363D01*
X85485714Y-12832363D02*
X85438095Y-12975220D01*
X85438095Y-12975220D02*
X84866667Y-13546649D01*
X84866667Y-13546649D02*
X85485714Y-13546649D01*
X35180710Y-1658834D02*
X35180710Y-1849310D01*
X35180710Y-1849310D02*
X35133091Y-1944548D01*
X35133091Y-1944548D02*
X35037853Y-2039786D01*
X35037853Y-2039786D02*
X34847377Y-2087405D01*
X34847377Y-2087405D02*
X34514044Y-2087405D01*
X34514044Y-2087405D02*
X34323568Y-2039786D01*
X34323568Y-2039786D02*
X34228330Y-1944548D01*
X34228330Y-1944548D02*
X34180710Y-1849310D01*
X34180710Y-1849310D02*
X34180710Y-1658834D01*
X34180710Y-1658834D02*
X34228330Y-1563596D01*
X34228330Y-1563596D02*
X34323568Y-1468358D01*
X34323568Y-1468358D02*
X34514044Y-1420739D01*
X34514044Y-1420739D02*
X34847377Y-1420739D01*
X34847377Y-1420739D02*
X35037853Y-1468358D01*
X35037853Y-1468358D02*
X35133091Y-1563596D01*
X35133091Y-1563596D02*
X35180710Y-1658834D01*
X34847377Y-2515977D02*
X33847377Y-2515977D01*
X34799758Y-2515977D02*
X34847377Y-2611215D01*
X34847377Y-2611215D02*
X34847377Y-2801691D01*
X34847377Y-2801691D02*
X34799758Y-2896929D01*
X34799758Y-2896929D02*
X34752139Y-2944548D01*
X34752139Y-2944548D02*
X34656901Y-2992167D01*
X34656901Y-2992167D02*
X34371187Y-2992167D01*
X34371187Y-2992167D02*
X34275949Y-2944548D01*
X34275949Y-2944548D02*
X34228330Y-2896929D01*
X34228330Y-2896929D02*
X34180710Y-2801691D01*
X34180710Y-2801691D02*
X34180710Y-2611215D01*
X34180710Y-2611215D02*
X34228330Y-2515977D01*
X34847377Y-3277882D02*
X34847377Y-3658834D01*
X35180710Y-3420739D02*
X34323568Y-3420739D01*
X34323568Y-3420739D02*
X34228330Y-3468358D01*
X34228330Y-3468358D02*
X34180710Y-3563596D01*
X34180710Y-3563596D02*
X34180710Y-3658834D01*
X34180710Y-3992168D02*
X34847377Y-3992168D01*
X35180710Y-3992168D02*
X35133091Y-3944549D01*
X35133091Y-3944549D02*
X35085472Y-3992168D01*
X35085472Y-3992168D02*
X35133091Y-4039787D01*
X35133091Y-4039787D02*
X35180710Y-3992168D01*
X35180710Y-3992168D02*
X35085472Y-3992168D01*
X34228330Y-4896929D02*
X34180710Y-4801691D01*
X34180710Y-4801691D02*
X34180710Y-4611215D01*
X34180710Y-4611215D02*
X34228330Y-4515977D01*
X34228330Y-4515977D02*
X34275949Y-4468358D01*
X34275949Y-4468358D02*
X34371187Y-4420739D01*
X34371187Y-4420739D02*
X34656901Y-4420739D01*
X34656901Y-4420739D02*
X34752139Y-4468358D01*
X34752139Y-4468358D02*
X34799758Y-4515977D01*
X34799758Y-4515977D02*
X34847377Y-4611215D01*
X34847377Y-4611215D02*
X34847377Y-4801691D01*
X34847377Y-4801691D02*
X34799758Y-4896929D01*
X34228330Y-6039787D02*
X34180710Y-6182644D01*
X34180710Y-6182644D02*
X34180710Y-6420739D01*
X34180710Y-6420739D02*
X34228330Y-6515977D01*
X34228330Y-6515977D02*
X34275949Y-6563596D01*
X34275949Y-6563596D02*
X34371187Y-6611215D01*
X34371187Y-6611215D02*
X34466425Y-6611215D01*
X34466425Y-6611215D02*
X34561663Y-6563596D01*
X34561663Y-6563596D02*
X34609282Y-6515977D01*
X34609282Y-6515977D02*
X34656901Y-6420739D01*
X34656901Y-6420739D02*
X34704520Y-6230263D01*
X34704520Y-6230263D02*
X34752139Y-6135025D01*
X34752139Y-6135025D02*
X34799758Y-6087406D01*
X34799758Y-6087406D02*
X34894996Y-6039787D01*
X34894996Y-6039787D02*
X34990234Y-6039787D01*
X34990234Y-6039787D02*
X35085472Y-6087406D01*
X35085472Y-6087406D02*
X35133091Y-6135025D01*
X35133091Y-6135025D02*
X35180710Y-6230263D01*
X35180710Y-6230263D02*
X35180710Y-6468358D01*
X35180710Y-6468358D02*
X35133091Y-6611215D01*
X34180710Y-7039787D02*
X34847377Y-7039787D01*
X35180710Y-7039787D02*
X35133091Y-6992168D01*
X35133091Y-6992168D02*
X35085472Y-7039787D01*
X35085472Y-7039787D02*
X35133091Y-7087406D01*
X35133091Y-7087406D02*
X35180710Y-7039787D01*
X35180710Y-7039787D02*
X35085472Y-7039787D01*
X34180710Y-7944548D02*
X35180710Y-7944548D01*
X34228330Y-7944548D02*
X34180710Y-7849310D01*
X34180710Y-7849310D02*
X34180710Y-7658834D01*
X34180710Y-7658834D02*
X34228330Y-7563596D01*
X34228330Y-7563596D02*
X34275949Y-7515977D01*
X34275949Y-7515977D02*
X34371187Y-7468358D01*
X34371187Y-7468358D02*
X34656901Y-7468358D01*
X34656901Y-7468358D02*
X34752139Y-7515977D01*
X34752139Y-7515977D02*
X34799758Y-7563596D01*
X34799758Y-7563596D02*
X34847377Y-7658834D01*
X34847377Y-7658834D02*
X34847377Y-7849310D01*
X34847377Y-7849310D02*
X34799758Y-7944548D01*
X34228330Y-8801691D02*
X34180710Y-8706453D01*
X34180710Y-8706453D02*
X34180710Y-8515977D01*
X34180710Y-8515977D02*
X34228330Y-8420739D01*
X34228330Y-8420739D02*
X34323568Y-8373120D01*
X34323568Y-8373120D02*
X34704520Y-8373120D01*
X34704520Y-8373120D02*
X34799758Y-8420739D01*
X34799758Y-8420739D02*
X34847377Y-8515977D01*
X34847377Y-8515977D02*
X34847377Y-8706453D01*
X34847377Y-8706453D02*
X34799758Y-8801691D01*
X34799758Y-8801691D02*
X34704520Y-8849310D01*
X34704520Y-8849310D02*
X34609282Y-8849310D01*
X34609282Y-8849310D02*
X34514044Y-8373120D01*
D14*
%TO.C,SW6*%
X64535182Y-52919039D02*
X55815691Y-54456520D01*
X64445361Y-52409637D02*
X64535182Y-52919039D01*
X63670935Y-48017651D02*
X63947775Y-49587690D01*
X55815691Y-54456520D02*
X55725870Y-53947118D01*
X55228285Y-51125171D02*
X54951444Y-49555133D01*
X54951444Y-49555133D02*
X63670935Y-48017651D01*
D15*
%TO.C,R1*%
X87485000Y-10352786D02*
X87485000Y-10806914D01*
X86015000Y-10352786D02*
X86015000Y-10806914D01*
%TO.C,J1*%
X91618879Y-8449390D02*
X93538879Y-8449390D01*
X93538879Y710610D02*
X91618879Y710610D01*
D10*
%TO.C,J2*%
X18820000Y-22709850D02*
X18820000Y-21379850D01*
X20150000Y-22709850D02*
X18820000Y-22709850D01*
X21420000Y-22709850D02*
X29100000Y-22709850D01*
X21420000Y-22709850D02*
X21420000Y-20049850D01*
X29100000Y-22709850D02*
X29100000Y-20049850D01*
X21420000Y-20049850D02*
X29100000Y-20049850D01*
D16*
%TO.C,Q2*%
X66341240Y-12933690D02*
X67735910Y-12811680D01*
D14*
%TO.C,SW4*%
X42519811Y-179897D02*
X51072121Y2111687D01*
X42673616Y-753908D02*
X42519811Y-179897D01*
X43827882Y-5061686D02*
X43415257Y-3521750D01*
X51072121Y2111687D02*
X51225927Y1537676D01*
X51967567Y-1230165D02*
X52380192Y-2770101D01*
X52380192Y-2770101D02*
X43827882Y-5061686D01*
D15*
%TO.C,FB1*%
X59122936Y-5644850D02*
X59577064Y-5644850D01*
X59122936Y-7114850D02*
X59577064Y-7114850D01*
%TO.C,R6*%
X45122936Y-40244850D02*
X45577064Y-40244850D01*
X45122936Y-41714850D02*
X45577064Y-41714850D01*
%TO.C,R8*%
X45122936Y-38244850D02*
X45577064Y-38244850D01*
X45122936Y-39714850D02*
X45577064Y-39714850D01*
D14*
%TO.C,SW1*%
X72394604Y-6643454D02*
X81214914Y-5871777D01*
X72446397Y-7235453D02*
X72394604Y-6643454D01*
X72835089Y-11678221D02*
X72696140Y-10090029D01*
X81214914Y-5871777D02*
X81266708Y-6463776D01*
X81516451Y-9318352D02*
X81655399Y-10906544D01*
X81655399Y-10906544D02*
X72835089Y-11678221D01*
%TO.C,SW2*%
X69105396Y-41556546D02*
X60285086Y-42328223D01*
X69053603Y-40964547D02*
X69105396Y-41556546D01*
X68664911Y-36521779D02*
X68803860Y-38109971D01*
X60285086Y-42328223D02*
X60233292Y-41736224D01*
X59983549Y-38881648D02*
X59844601Y-37293456D01*
X59844601Y-37293456D02*
X68664911Y-36521779D01*
D15*
%TO.C,FB2*%
X59122936Y-8244850D02*
X59577064Y-8244850D01*
X59122936Y-9714850D02*
X59577064Y-9714850D01*
D16*
%TO.C,D2*%
X64217878Y-36204636D02*
X64104574Y-34909582D01*
%TO.C,D1*%
X72642878Y-35579636D02*
X72529574Y-34284582D01*
D15*
%TO.C,C4*%
X24288748Y3155150D02*
X24811252Y3155150D01*
X24288748Y1685150D02*
X24811252Y1685150D01*
D14*
%TO.C,SW5*%
X83727000Y-202000D02*
X74872997Y-202000D01*
X83727000Y392260D02*
X83727000Y-202000D01*
X83727000Y4851999D02*
X83727000Y3257740D01*
X74872997Y-202000D02*
X74872997Y392260D01*
X74872997Y3257740D02*
X74872997Y4851999D01*
X74872997Y4851999D02*
X83727000Y4851999D01*
D15*
%TO.C,R3*%
X14085000Y-50352786D02*
X14085000Y-50806914D01*
X12615000Y-50352786D02*
X12615000Y-50806914D01*
D16*
%TO.C,Q1*%
X74566230Y-12233690D02*
X75960900Y-12111680D01*
D15*
%TO.C,U2*%
X14790000Y-12779850D02*
X14790000Y-14579850D01*
X14790000Y-12779850D02*
X14790000Y-11979850D01*
X17910000Y-12779850D02*
X17910000Y-13579850D01*
X17910000Y-12779850D02*
X17910000Y-11979850D01*
%TO.C,R5*%
X51635436Y-37244850D02*
X52089564Y-37244850D01*
X51635436Y-38714850D02*
X52089564Y-38714850D01*
D14*
%TO.C,SW3*%
X72219604Y-36218454D02*
X81039914Y-35446777D01*
X72271397Y-36810453D02*
X72219604Y-36218454D01*
X72660089Y-41253221D02*
X72521140Y-39665029D01*
X81039914Y-35446777D02*
X81091708Y-36038776D01*
X81341451Y-38893352D02*
X81480399Y-40481544D01*
X81480399Y-40481544D02*
X72660089Y-41253221D01*
D17*
%TO.C,LOGO1*%
X-2250000Y-2250000D02*
X-2250000Y2250000D01*
X-2250000Y-2250000D02*
X2250000Y-2250000D01*
D15*
%TO.C,C2*%
X18415000Y-13241102D02*
X18415000Y-12718598D01*
X19885000Y-13241102D02*
X19885000Y-12718598D01*
D10*
%TO.C,U3*%
X32860000Y-23569850D02*
X32860000Y-54049850D01*
X15080000Y-23569850D02*
X32860000Y-23569850D01*
X15080000Y-23569850D02*
X15080000Y-54049850D01*
X32860000Y-54049850D02*
X15080000Y-54049850D01*
D15*
%TO.C,R7*%
X51635436Y-35244850D02*
X52089564Y-35244850D01*
X51635436Y-36714850D02*
X52089564Y-36714850D01*
%TO.C,FB3*%
X59122936Y-10214850D02*
X59577064Y-10214850D01*
X59122936Y-11684850D02*
X59577064Y-11684850D01*
%TO.C,R4*%
X20415000Y-13206914D02*
X20415000Y-12752786D01*
X21885000Y-13206914D02*
X21885000Y-12752786D01*
%TO.C,C3*%
X21211252Y1685150D02*
X20688748Y1685150D01*
X21211252Y3155150D02*
X20688748Y3155150D01*
%TO.C,C1*%
X14285000Y-12318598D02*
X14285000Y-12841102D01*
X12815000Y-12318598D02*
X12815000Y-12841102D01*
%TO.C,R2*%
X85485000Y-10352786D02*
X85485000Y-10806914D01*
X84015000Y-10352786D02*
X84015000Y-10806914D01*
%TD*%
%LPC*%
%TO.C,BT1*%
D18*
X-2001121Y-46980832D02*
X-4001121Y-46980832D01*
X-4001121Y-45580832D01*
X-2001121Y-45580832D01*
X-2001121Y-46980832D01*
G36*
X-2001121Y-46980832D02*
G01*
X-4001121Y-46980832D01*
X-4001121Y-45580832D01*
X-2001121Y-45580832D01*
X-2001121Y-46980832D01*
G37*
X-2001121Y-49179390D02*
X-4001121Y-49179390D01*
X-4001121Y-47779390D01*
X-2001121Y-47779390D01*
X-2001121Y-49179390D01*
G36*
X-2001121Y-49179390D02*
G01*
X-4001121Y-49179390D01*
X-4001121Y-47779390D01*
X-2001121Y-47779390D01*
X-2001121Y-49179390D01*
G37*
%TD*%
D19*
%TO.C,SW6*%
X61719616Y-50927704D03*
X57780384Y-51622296D03*
D20*
X64908583Y-50873116D03*
X54765063Y-52661692D03*
%TD*%
D21*
%TO.C,SPG3*%
X36050000Y-46250000D03*
%TD*%
D22*
%TO.C,R1*%
X86750000Y-9667350D03*
X86750000Y-11492350D03*
%TD*%
D23*
%TO.C,J1*%
X90863879Y-6759390D03*
X90863879Y-979390D03*
D24*
X89643879Y-7069390D03*
X89643879Y-6269390D03*
D25*
X89643879Y-5119390D03*
X89643879Y-4119390D03*
X89643879Y-3619390D03*
X89643879Y-2619390D03*
D24*
X89643879Y-1469390D03*
X89643879Y-669390D03*
X89643879Y-669390D03*
X89643879Y-1469390D03*
D25*
X89643879Y-2119390D03*
X89643879Y-3119390D03*
X89643879Y-4619390D03*
X89643879Y-5619390D03*
D24*
X89643879Y-6269390D03*
X89643879Y-7069390D03*
%TD*%
D21*
%TO.C,SPG28*%
X72450000Y-44350000D03*
%TD*%
D26*
%TO.C,J2*%
X20150000Y-21379850D03*
D27*
X22690000Y-21379850D03*
X25230000Y-21379850D03*
X27770000Y-21379850D03*
%TD*%
D28*
%TO.C,FID1*%
X-1601121Y-51579390D03*
%TD*%
D21*
%TO.C,SPG17*%
X33050000Y-14450000D03*
%TD*%
D29*
%TO.C,Q2*%
X63554470Y-14382090D03*
X67145550Y-14067910D03*
%TD*%
D21*
%TO.C,SPG26*%
X39750000Y-11550000D03*
%TD*%
%TO.C,SPG20*%
X89750000Y-37750000D03*
%TD*%
D19*
%TO.C,SW4*%
X45518148Y-1992638D03*
X49381852Y-957362D03*
D30*
X42346073Y-2324955D03*
X52295109Y340881D03*
%TD*%
D21*
%TO.C,SPG11*%
X91750000Y-31150000D03*
%TD*%
D31*
%TO.C,FB1*%
X58437500Y-6379850D03*
X60262500Y-6379850D03*
%TD*%
D32*
%TO.C,BT1*%
X-3001121Y-46279390D03*
X-3001121Y-48479390D03*
%TD*%
D31*
%TO.C,R6*%
X44437500Y-40979850D03*
X46262500Y-40979850D03*
%TD*%
%TO.C,R8*%
X44437500Y-38979850D03*
X46262500Y-38979850D03*
%TD*%
D21*
%TO.C,SPG16*%
X-1050000Y-55750000D03*
%TD*%
D19*
%TO.C,SW1*%
X75032611Y-8949311D03*
X79017389Y-8600689D03*
D33*
X71851020Y-8725755D03*
X82111826Y-7828050D03*
%TD*%
D21*
%TO.C,SPG19*%
X58150000Y-3450000D03*
%TD*%
%TO.C,SPG9*%
X34050000Y1550000D03*
%TD*%
%TO.C,SPG22*%
X57383030Y3238630D03*
%TD*%
D19*
%TO.C,SW2*%
X66467389Y-39250689D03*
X62482611Y-39599311D03*
D34*
X69648980Y-39474245D03*
X59388174Y-40371950D03*
%TD*%
D21*
%TO.C,SPG25*%
X-3201121Y-50779390D03*
%TD*%
%TO.C,SPG10*%
X70950000Y-49350000D03*
%TD*%
D31*
%TO.C,FB2*%
X58437500Y-8979850D03*
X60262500Y-8979850D03*
%TD*%
D35*
%TO.C,D2*%
X67119820Y-35499030D03*
D36*
X65404080Y-35448370D03*
X68795920Y-35151620D03*
%TD*%
D21*
%TO.C,SPG24*%
X48250000Y-46850000D03*
%TD*%
%TO.C,SPG13*%
X40050000Y-4550000D03*
%TD*%
%TO.C,SPG8*%
X93350000Y-11450000D03*
%TD*%
D35*
%TO.C,D1*%
X75544820Y-34874030D03*
D36*
X73829080Y-34823370D03*
X77220920Y-34526620D03*
%TD*%
D21*
%TO.C,SPG18*%
X34650000Y-11150000D03*
%TD*%
D37*
%TO.C,C4*%
X23600000Y2420150D03*
X25500000Y2420150D03*
%TD*%
D21*
%TO.C,SPG27*%
X14650000Y-19850000D03*
%TD*%
%TO.C,SPG21*%
X91650000Y-19150000D03*
%TD*%
%TO.C,SPG14*%
X18350000Y-55950000D03*
%TD*%
D19*
%TO.C,SW5*%
X81300000Y2325000D03*
X77300000Y2325000D03*
D38*
X84449999Y1825000D03*
X74149999Y1825000D03*
%TD*%
D22*
%TO.C,R3*%
X13350000Y-49667350D03*
X13350000Y-51492350D03*
%TD*%
D21*
%TO.C,SPG7*%
X7350000Y-55950000D03*
%TD*%
D29*
%TO.C,Q1*%
X75370540Y-13367910D03*
X71779460Y-13682090D03*
%TD*%
D39*
%TO.C,U2*%
X15400000Y-13917350D03*
X17300000Y-13917350D03*
X16350000Y-11642350D03*
%TD*%
D31*
%TO.C,R5*%
X50950000Y-37979850D03*
X52775000Y-37979850D03*
%TD*%
D19*
%TO.C,SW3*%
X74857611Y-38524311D03*
X78842389Y-38175689D03*
D33*
X71676020Y-38300755D03*
X81936826Y-37403050D03*
%TD*%
D28*
%TO.C,FID3*%
X87950000Y-32579850D03*
%TD*%
D40*
%TO.C,C2*%
X19150000Y-13929850D03*
X19150000Y-12029850D03*
%TD*%
D41*
%TO.C,U3*%
X16350000Y-24839850D03*
D42*
X16350000Y-27379850D03*
X16350000Y-29919850D03*
X16350000Y-32459850D03*
X16350000Y-34999850D03*
X16350000Y-37539850D03*
X16350000Y-40079850D03*
X16350000Y-42619850D03*
X16350000Y-45159850D03*
X16350000Y-47699850D03*
X16350000Y-50239850D03*
X16350000Y-52779850D03*
X31590000Y-52779850D03*
X31590000Y-50239850D03*
X31590000Y-47699850D03*
X31590000Y-45159850D03*
X31590000Y-42619850D03*
X31590000Y-40079850D03*
X31590000Y-37539850D03*
X31590000Y-34999850D03*
X31590000Y-32459850D03*
X31590000Y-29919850D03*
X31590000Y-27379850D03*
X31590000Y-24839850D03*
%TD*%
D31*
%TO.C,R7*%
X50950000Y-35979850D03*
X52775000Y-35979850D03*
%TD*%
D21*
%TO.C,SPG4*%
X92750000Y-24050000D03*
%TD*%
%TO.C,SPG6*%
X33150000Y-19179850D03*
%TD*%
%TO.C,SPG5*%
X84750000Y-43950000D03*
%TD*%
D31*
%TO.C,FB3*%
X58437500Y-10949850D03*
X60262500Y-10949850D03*
%TD*%
D21*
%TO.C,SPG23*%
X49505920Y-53715100D03*
%TD*%
%TO.C,SPG1*%
X35650000Y-53650000D03*
%TD*%
%TO.C,SPG12*%
X49050000Y-26350000D03*
%TD*%
%TO.C,SPG2*%
X88350000Y3220150D03*
%TD*%
D43*
%TO.C,R4*%
X21150000Y-13892350D03*
X21150000Y-12067350D03*
%TD*%
D21*
%TO.C,SPG15*%
X30350000Y-55950000D03*
%TD*%
D28*
%TO.C,FID2*%
X69350000Y3550000D03*
%TD*%
D44*
%TO.C,C3*%
X21900000Y2420150D03*
X20000000Y2420150D03*
%TD*%
D45*
%TO.C,C1*%
X13550000Y-11629850D03*
X13550000Y-13529850D03*
%TD*%
D22*
%TO.C,R2*%
X84750000Y-9667350D03*
X84750000Y-11492350D03*
%TD*%
D46*
%TO.C,U1*%
X18450000Y350000D03*
X20228000Y350000D03*
X22006000Y350000D03*
X23784000Y350000D03*
X25562000Y350000D03*
X27340000Y350000D03*
X29118000Y350000D03*
X30896000Y350000D03*
X31785000Y-10350000D03*
X30007000Y-10350000D03*
X28229000Y-10350000D03*
X26451000Y-10350000D03*
X24673000Y-10350000D03*
X22895000Y-10350000D03*
X21117000Y-10350000D03*
X19339000Y-10350000D03*
%TD*%
D47*
%TO.C,SW7*%
X25468879Y-31679390D03*
X25468879Y-28679390D03*
%TD*%
%LPD*%
M02*
