%TF.GenerationSoftware,Altium Limited,DefaultClient, ()*%
G04 Layer_Physical_Order=4*
G04 Layer_Color=16711680*
%FSLAX26Y26*%
%MOIN*%
%TF.SameCoordinates,DAAB6657-3A95-45CE-84E1-7A21F4FC2F2A*%
%TF.FilePolarity,Positive*%
%TF.FileFunction,Copper,L4,Bot,Signal*%
%TF.Part,Single*%
G01*
G75*
%TA.AperFunction,Conductor*%
%ADD10C,0.015748*%
%ADD11C,0.019685*%
%ADD12C,0.013780*%
%ADD15C,0.012598*%
%TA.AperFunction,SMDPad,CuDef*%
%ADD43P,0.056569X4X180.0*%
%TA.AperFunction,ComponentPad*%
%ADD45C,0.078740*%
%TA.AperFunction,TestPad*%
%ADD46O,0.070866X0.066929*%
%ADD47R,0.070000X0.070000*%
%ADD48C,0.070000*%
%TA.AperFunction,ComponentPad*%
%ADD49O,0.047244X0.055118*%
G04:AMPARAMS|DCode=50|XSize=43.307mil|YSize=82.677mil|CornerRadius=21.654mil|HoleSize=0mil|Usage=FLASHONLY|Rotation=270.000|XOffset=0mil|YOffset=0mil|HoleType=Round|Shape=RoundedRectangle|*
%AMROUNDEDRECTD50*
21,1,0.043307,0.039370,0,0,270.0*
21,1,0.000000,0.082677,0,0,270.0*
1,1,0.043307,-0.019685,0.000000*
1,1,0.043307,-0.019685,0.000000*
1,1,0.043307,0.019685,0.000000*
1,1,0.043307,0.019685,0.000000*
%
%ADD50ROUNDEDRECTD50*%
%TA.AperFunction,TestPad*%
G04:AMPARAMS|DCode=51|XSize=43.307mil|YSize=82.677mil|CornerRadius=21.654mil|HoleSize=0mil|Usage=FLASHONLY|Rotation=270.000|XOffset=0mil|YOffset=0mil|HoleType=Round|Shape=RoundedRectangle|*
%AMROUNDEDRECTD51*
21,1,0.043307,0.039370,0,0,270.0*
21,1,0.000000,0.082677,0,0,270.0*
1,1,0.043307,-0.019685,0.000000*
1,1,0.043307,-0.019685,0.000000*
1,1,0.043307,0.019685,0.000000*
1,1,0.043307,0.019685,0.000000*
%
%ADD51ROUNDEDRECTD51*%
G04:AMPARAMS|DCode=52|XSize=43.307mil|YSize=102.362mil|CornerRadius=21.654mil|HoleSize=0mil|Usage=FLASHONLY|Rotation=270.000|XOffset=0mil|YOffset=0mil|HoleType=Round|Shape=RoundedRectangle|*
%AMROUNDEDRECTD52*
21,1,0.043307,0.059055,0,0,270.0*
21,1,0.000000,0.102362,0,0,270.0*
1,1,0.043307,-0.029528,0.000000*
1,1,0.043307,-0.029528,0.000000*
1,1,0.043307,0.029528,0.000000*
1,1,0.043307,0.029528,0.000000*
%
%ADD52ROUNDEDRECTD52*%
%TA.AperFunction,ViaPad*%
%ADD53C,0.023622*%
%ADD54C,0.017716*%
%ADD55C,0.031496*%
%ADD56C,0.040000*%
%TA.AperFunction,Conductor*%
%ADD57C,0.027559*%
G36*
X3127822Y75834D02*
X3129702Y75833D01*
X3131582Y75831D01*
X3133462Y75828D01*
X3135341Y75825D01*
X3137227Y75820D01*
X3137228Y75821D01*
X3139100Y75815D01*
X3140979Y75809D01*
X3142857Y75802D01*
X3144744Y75795D01*
X3144744Y75795D01*
X3146614Y75786D01*
X3148493Y75777D01*
X3150379Y75766D01*
X3152250Y75755D01*
X3154136Y75743D01*
X3156005Y75730D01*
X3156005Y75730D01*
X3157891Y75716D01*
X3159768Y75701D01*
X3161646Y75685D01*
X3163512Y75668D01*
X3163513Y75668D01*
X3166341Y75640D01*
X3166341Y75641D01*
X3169143Y75611D01*
X3171971Y75579D01*
X3174773Y75546D01*
X3174773Y75546D01*
X3177601Y75509D01*
X3180414Y75471D01*
X3183217Y75430D01*
X3186027Y75387D01*
X3188854Y75341D01*
X3188854Y75341D01*
X3191653Y75293D01*
X3194479Y75242D01*
X3197292Y75189D01*
X3200095Y75133D01*
X3202900Y75075D01*
X3205711Y75013D01*
X3208537Y74950D01*
X3211348Y74883D01*
X3214142Y74814D01*
X3214143Y74814D01*
X3216968Y74742D01*
X3216968Y74742D01*
X3219762Y74668D01*
X3222571Y74591D01*
X3225390Y74510D01*
X3228202Y74427D01*
X3231014Y74341D01*
X3231014Y74341D01*
X3233805Y74252D01*
X3233805Y74252D01*
X3236630Y74159D01*
X3239438Y74064D01*
X3242228Y73967D01*
X3245053Y73865D01*
X3247841Y73762D01*
X3247842Y73762D01*
X3250649Y73654D01*
X3253473Y73543D01*
X3257180Y73392D01*
X3264712Y73068D01*
X3264712D01*
X3268416Y72900D01*
X3272157Y72725D01*
X3275923Y72543D01*
X3279664Y72357D01*
X3283397Y72166D01*
X3287124Y71969D01*
X3290866Y71767D01*
X3294630Y71558D01*
X3298349Y71346D01*
X3302099Y71127D01*
X3305854Y70903D01*
X3305855Y70903D01*
X3309575Y70676D01*
X3313316Y70442D01*
X3317058Y70204D01*
X3320820Y69959D01*
X3324541Y69713D01*
X3324541Y69712D01*
X3328299Y69458D01*
X3332044Y69201D01*
X3332044D01*
X3335766Y68940D01*
X3339526Y68672D01*
X3343248Y68402D01*
X3343249Y68402D01*
X3347008Y68125D01*
X3349797Y67916D01*
X3352603Y67704D01*
X3355409Y67490D01*
X3358227Y67271D01*
X3361019Y67053D01*
X3361019Y67053D01*
X3363838Y66830D01*
X3363838D01*
X3366629Y66607D01*
X3369435Y66381D01*
X3372253Y66151D01*
X3375057Y65921D01*
X3375057D01*
X3377849Y65689D01*
X3380666Y65452D01*
X3383457Y65216D01*
X3383458Y65216D01*
X3386274Y64975D01*
X3389079Y64733D01*
X3391882Y64490D01*
X3394675Y64245D01*
X3397478Y63997D01*
X3397478Y63997D01*
X3400293Y63746D01*
X3400293D01*
X3403096Y63494D01*
X3405888Y63241D01*
X3408702Y62984D01*
X3411494Y62727D01*
X3414308Y62467D01*
X3417100Y62206D01*
X3419902Y61943D01*
X3419902Y61943D01*
X3422715Y61676D01*
X3425516Y61409D01*
X3425517D01*
X3428318Y61141D01*
X3431119Y60870D01*
X3433911Y60599D01*
X3436713Y60325D01*
X3439513Y60049D01*
X3439513Y60049D01*
X3442316Y59772D01*
X3444189Y59586D01*
X3446056Y59399D01*
X3447916Y59212D01*
X3449789Y59024D01*
X3449789D01*
X3451649Y58836D01*
X3453515Y58647D01*
X3455383Y58457D01*
X3456319Y58361D01*
X3457252Y58266D01*
X3458180Y58171D01*
X3460045Y57980D01*
X3461909Y57787D01*
X3462845Y57690D01*
X3463777Y57593D01*
X3464704Y57497D01*
X3465639Y57400D01*
X3466571Y57302D01*
X3467497Y57205D01*
X3468432Y57107D01*
X3469358Y57009D01*
X3469358Y57009D01*
X3470293Y56910D01*
X3471217Y56812D01*
X3471217Y56812D01*
X3472152Y56713D01*
X3473081Y56614D01*
X3474010Y56514D01*
X3474933Y56415D01*
X3474934Y56415D01*
X3475868Y56315D01*
X3476796Y56214D01*
X3477718Y56114D01*
X3478650Y56013D01*
X3479579Y55911D01*
X3480502Y55810D01*
X3481435Y55708D01*
X3482360Y55606D01*
X3483280Y55504D01*
X3483280Y55504D01*
X3484207Y55401D01*
X3485140Y55297D01*
X3486060Y55194D01*
X3486992Y55089D01*
X3487908Y54986D01*
X3488835Y54881D01*
X3489767Y54775D01*
X3489767D01*
X3490689Y54670D01*
X3490689D01*
X3491606Y54565D01*
X3492528Y54458D01*
X3493454Y54351D01*
X3494384Y54243D01*
X3494385D01*
X3495298Y54136D01*
X3496229Y54028D01*
X3496229D01*
X3497141Y53920D01*
X3497141Y53920D01*
X3498064Y53811D01*
X3498993Y53701D01*
X3499912Y53591D01*
X3500825Y53482D01*
X3501754Y53370D01*
X3501754D01*
X3502664Y53260D01*
X3502664Y53260D01*
X3503583Y53148D01*
X3504511Y53035D01*
X3505420Y52923D01*
X3506340Y52810D01*
X3507267Y52695D01*
X3507267D01*
X3508172Y52583D01*
X3509090Y52468D01*
X3510017Y52351D01*
X3510934Y52235D01*
X3511838Y52120D01*
X3512764Y52002D01*
X3512764D01*
X3513668Y51886D01*
X3514593Y51767D01*
X3515497Y51650D01*
X3516411Y51531D01*
X3517335Y51409D01*
X3518237Y51291D01*
X3519149Y51170D01*
X3519149Y51170D01*
X3520073Y51047D01*
X3520073D01*
X3520972Y50927D01*
X3521883Y50804D01*
X3522806Y50679D01*
X3522806D01*
X3523715Y50555D01*
X3524613Y50432D01*
X3524613Y50432D01*
X3525523Y50307D01*
X3526444Y50180D01*
X3527351Y50053D01*
X3528247Y49928D01*
X3529153Y49800D01*
X3530061Y49672D01*
X3530980Y49541D01*
X3530980D01*
X3531873Y49413D01*
X3532777Y49283D01*
X3532777Y49283D01*
X3533695Y49150D01*
X3533695D01*
X3535491Y48888D01*
X3537316Y48618D01*
X3539092Y48352D01*
X3540897Y48079D01*
X3542722Y47799D01*
X3544502Y47523D01*
X3546284Y47243D01*
X3548088Y46956D01*
X3549886Y46667D01*
X3551665Y46377D01*
X3553465Y46080D01*
X3555249Y45782D01*
X3557019Y45483D01*
X3558784Y45181D01*
X3560559Y44873D01*
X3562347Y44558D01*
X3564124Y44242D01*
X3565868Y43928D01*
X3567669Y43599D01*
X3569398Y43279D01*
X3571165Y42948D01*
X3572951Y42609D01*
X3574691Y42274D01*
X3576435Y41934D01*
X3578170Y41592D01*
X3579956Y41234D01*
X3581661Y40889D01*
X3583443Y40523D01*
X3585146Y40168D01*
X3586890Y39800D01*
X3588651Y39424D01*
X3590338Y39059D01*
X3592091Y38674D01*
X3593820Y38290D01*
X3595523Y37906D01*
X3597259Y37509D01*
X3598953Y37117D01*
X3600695Y36708D01*
X3602373Y36309D01*
X3604111Y35891D01*
X3605778Y35484D01*
X3607504Y35056D01*
X3609189Y34634D01*
X3610901Y34199D01*
X3612567Y33770D01*
X3614276Y33324D01*
X3615954Y32880D01*
X3617622Y32433D01*
X3619316Y31973D01*
X3620983Y31513D01*
X3622664Y31044D01*
X3624339Y30571D01*
X3625968Y30104D01*
X3627652Y29615D01*
X3629320Y29124D01*
X3630962Y28634D01*
X3632606Y28137D01*
X3634272Y27627D01*
X3635913Y27118D01*
X3637543Y26605D01*
X3639194Y26079D01*
X3640813Y25556D01*
X3644084Y24479D01*
X3647337Y23379D01*
X3650561Y22261D01*
X3653783Y21114D01*
X3656988Y19944D01*
X3660184Y18747D01*
X3663361Y17527D01*
X3667321Y15964D01*
X3671258Y14362D01*
X3675177Y12718D01*
X3679071Y11034D01*
X3682971Y9297D01*
X3685258Y8254D01*
X3687580Y7177D01*
X3689876Y6092D01*
X3692157Y4995D01*
X3693678Y4253D01*
X3695191Y3506D01*
X3696680Y2762D01*
X3698193Y1996D01*
X3699685Y1233D01*
X3701179Y459D01*
X3702651Y-313D01*
X3704145Y-1106D01*
X3705595Y-1885D01*
X3707048Y-2675D01*
X3708517Y-3484D01*
X3709963Y-4290D01*
X3711389Y-5095D01*
X3712819Y-5912D01*
X3714238Y-6734D01*
X3715645Y-7559D01*
X3717053Y-8395D01*
X3718438Y-9229D01*
X3719821Y-10072D01*
X3721198Y-10922D01*
X3721858Y-11334D01*
X3722563Y-11776D01*
X3723205Y-12182D01*
X3723885Y-12615D01*
X3724577Y-13059D01*
X3725246Y-13490D01*
X3725903Y-13917D01*
X3726547Y-14338D01*
X3727877Y-15218D01*
X3729192Y-16099D01*
X3730487Y-16980D01*
X3731765Y-17862D01*
X3733056Y-18766D01*
X3734326Y-19669D01*
X3735575Y-20570D01*
X3736834Y-21492D01*
X3738067Y-22408D01*
X3739294Y-23335D01*
X3740526Y-24278D01*
X3741743Y-25227D01*
X3742935Y-26169D01*
X3744738Y-27622D01*
X3746510Y-29086D01*
X3748263Y-30569D01*
X3750638Y-32635D01*
X3751094Y-33037D01*
X3752095Y-33935D01*
X3753089Y-34839D01*
X3754084Y-35757D01*
X3754576Y-36218D01*
X3755149Y-36756D01*
X3755696Y-37273D01*
X3756262Y-37813D01*
X3756826Y-38356D01*
X3757380Y-38892D01*
X3757954Y-39454D01*
X3758511Y-40002D01*
X3759065Y-40550D01*
X3759622Y-41106D01*
X3760178Y-41665D01*
X3760733Y-42227D01*
X3761286Y-42791D01*
X3761832Y-43352D01*
X3762379Y-43917D01*
X3762928Y-44489D01*
X3763483Y-45070D01*
X3764041Y-45659D01*
X3764569Y-46220D01*
X3765129Y-46818D01*
X3765679Y-47410D01*
X3766216Y-47990D01*
X3766787Y-48612D01*
X3767117Y-48854D01*
X3767348Y-49193D01*
X3771418Y-53201D01*
X3772468Y-53891D01*
X3773327Y-54808D01*
X3782599Y-61457D01*
X3784118Y-62147D01*
X3785485Y-63104D01*
X3795928Y-67702D01*
X3797557Y-68063D01*
X3799092Y-68719D01*
X3810257Y-71068D01*
X3811513Y-71082D01*
X3812731Y-71390D01*
X3818435Y-71686D01*
X3818853Y-71625D01*
X3819267Y-71708D01*
X3899099D01*
X3909688Y-73814D01*
X3919663Y-77946D01*
X3928640Y-83944D01*
X3936275Y-91579D01*
X3942273Y-100555D01*
X3946405Y-110531D01*
X3948511Y-121120D01*
Y-126518D01*
Y-469086D01*
Y-473995D01*
X3946766Y-483658D01*
X3943332Y-492856D01*
X3938317Y-501298D01*
X3935100Y-505006D01*
X3934912Y-505335D01*
X3934624Y-505581D01*
X3931451Y-509601D01*
X3930938Y-510606D01*
X3930190Y-511450D01*
X3925029Y-520284D01*
X3924540Y-521701D01*
X3923770Y-522986D01*
X3920331Y-532623D01*
X3920112Y-534105D01*
X3919593Y-535511D01*
X3917994Y-545618D01*
X3918039Y-546745D01*
X3917799Y-547846D01*
X3917710Y-552967D01*
X3917773Y-553319D01*
X3917713Y-553672D01*
X3918202Y-572187D01*
X3918529Y-587218D01*
X3918758Y-599933D01*
X3918928Y-611544D01*
X3919051Y-621965D01*
X3919145Y-632451D01*
X3919204Y-641759D01*
X3919241Y-651093D01*
X3919255Y-659281D01*
X3919252Y-667447D01*
X3919233Y-675689D01*
X3919134Y-693283D01*
X3918663Y-731205D01*
X3918468Y-742649D01*
X3917948Y-765605D01*
X3917301Y-788558D01*
X3916526Y-811490D01*
X3916073Y-822966D01*
X3915059Y-846889D01*
X3914026Y-868395D01*
X3912743Y-892256D01*
X3911240Y-917313D01*
X3909576Y-942351D01*
X3907662Y-968534D01*
X3905468Y-995892D01*
X3902965Y-1024447D01*
X3901860Y-1036325D01*
X3901408Y-1041063D01*
X3900948Y-1045821D01*
X3900484Y-1050549D01*
X3900011Y-1055318D01*
X3899533Y-1060062D01*
X3899050Y-1064789D01*
X3898559Y-1069537D01*
X3898060Y-1074301D01*
X3897432Y-1080204D01*
X3896787Y-1086157D01*
X3896138Y-1092060D01*
X3895474Y-1097989D01*
X3894801Y-1103910D01*
X3894115Y-1109846D01*
X3893422Y-1115742D01*
X3892715Y-1121665D01*
X3891996Y-1127591D01*
X3891267Y-1133495D01*
X3890528Y-1139390D01*
X3889774Y-1145314D01*
X3889011Y-1151207D01*
X3888238Y-1157092D01*
X3887451Y-1162982D01*
X3886647Y-1168910D01*
X3885837Y-1174789D01*
X3885014Y-1180671D01*
X3884175Y-1186569D01*
X3883326Y-1192456D01*
X3882468Y-1198308D01*
X3881588Y-1204221D01*
X3880703Y-1210076D01*
X3879803Y-1215945D01*
X3878887Y-1221822D01*
X3877776Y-1228839D01*
X3876641Y-1235880D01*
X3875483Y-1242937D01*
X3874311Y-1249953D01*
X3873123Y-1256946D01*
X3871908Y-1263966D01*
X3870675Y-1270972D01*
X3869417Y-1277996D01*
X3868150Y-1284949D01*
X3866851Y-1291955D01*
X3865536Y-1298929D01*
X3864191Y-1305939D01*
X3862840Y-1312867D01*
X3861449Y-1319878D01*
X3860049Y-1326816D01*
X3858628Y-1333746D01*
X3857175Y-1340714D01*
X3855701Y-1347665D01*
X3854209Y-1354591D01*
X3852693Y-1361510D01*
X3850895Y-1369577D01*
X3849060Y-1377655D01*
X3847470Y-1384532D01*
X3846114Y-1390315D01*
X3844754Y-1396036D01*
X3843374Y-1401763D01*
X3841974Y-1407501D01*
X3840557Y-1413231D01*
X3839125Y-1418945D01*
X3837677Y-1424646D01*
X3836206Y-1430360D01*
X3834720Y-1436059D01*
X3833216Y-1441752D01*
X3831691Y-1447449D01*
X3830159Y-1453100D01*
X3828278Y-1459934D01*
X3826380Y-1466726D01*
X3824453Y-1473511D01*
X3822501Y-1480281D01*
X3820517Y-1487054D01*
X3818501Y-1493829D01*
X3816468Y-1500555D01*
X3814402Y-1507288D01*
X3812305Y-1514016D01*
X3810180Y-1520729D01*
X3808028Y-1527422D01*
X3805848Y-1534100D01*
X3803632Y-1540784D01*
X3801387Y-1547453D01*
X3799114Y-1554100D01*
X3796810Y-1560739D01*
X3794478Y-1567355D01*
X3792110Y-1573973D01*
X3789712Y-1580573D01*
X3787283Y-1587157D01*
X3784411Y-1594816D01*
X3781497Y-1602450D01*
X3778527Y-1610095D01*
X3775529Y-1617678D01*
X3772477Y-1625262D01*
X3769376Y-1632835D01*
X3766239Y-1640364D01*
X3763049Y-1647888D01*
X3759816Y-1655382D01*
X3756524Y-1662879D01*
X3753199Y-1670322D01*
X3749333Y-1678817D01*
X3745406Y-1687277D01*
X3741412Y-1695711D01*
X3737352Y-1704118D01*
X3734250Y-1710431D01*
X3730702Y-1717600D01*
X3722905Y-1731683D01*
X3714470Y-1745388D01*
X3705410Y-1758693D01*
X3700607Y-1765093D01*
X3695665Y-1771620D01*
X3690967Y-1777719D01*
X3686517Y-1783402D01*
X3682159Y-1788883D01*
X3677923Y-1794130D01*
X3673788Y-1799176D01*
X3669615Y-1804194D01*
X3665562Y-1808999D01*
X3661633Y-1813591D01*
X3657661Y-1818170D01*
X3653827Y-1822530D01*
X3649961Y-1826866D01*
X3646221Y-1831005D01*
X3642455Y-1835118D01*
X3638830Y-1839026D01*
X3635170Y-1842920D01*
X3631512Y-1846763D01*
X3627651Y-1850764D01*
X3623608Y-1854896D01*
X3619372Y-1859160D01*
X3615117Y-1863379D01*
X3610653Y-1867736D01*
X3606163Y-1872049D01*
X3601480Y-1876472D01*
X3596591Y-1881009D01*
X3591658Y-1885507D01*
X3586519Y-1890107D01*
X3581166Y-1894806D01*
X3575593Y-1899601D01*
X3569619Y-1904631D01*
X3563420Y-1909734D01*
X3556760Y-1915086D01*
X3555335Y-1916217D01*
X3552412Y-1918512D01*
X3549448Y-1920812D01*
X3546501Y-1923075D01*
X3545039Y-1924184D01*
X3541327Y-1926983D01*
X3538566Y-1929041D01*
X3535092Y-1931616D01*
X3527305Y-1935415D01*
X3518956Y-1937725D01*
X3510323Y-1938467D01*
X3501701Y-1937617D01*
X3493381Y-1935203D01*
X3485643Y-1931307D01*
X3478748Y-1926061D01*
X3472930Y-1919641D01*
X3468386Y-1912265D01*
X3465268Y-1904182D01*
X3463682Y-1895664D01*
Y-1891332D01*
X3463620Y-1891023D01*
X3463670Y-1890711D01*
X3463418Y-1884210D01*
X3463189Y-1883254D01*
X3463225Y-1882273D01*
X3461220Y-1869850D01*
X3460770Y-1868639D01*
X3460610Y-1867357D01*
X3456652Y-1855412D01*
X3456014Y-1854289D01*
X3455653Y-1853049D01*
X3449842Y-1841886D01*
X3449034Y-1840879D01*
X3448479Y-1839712D01*
X3440965Y-1829618D01*
X3440006Y-1828752D01*
X3439273Y-1827689D01*
X3430246Y-1818921D01*
X3429162Y-1818219D01*
X3428268Y-1817286D01*
X3417960Y-1810068D01*
X3416778Y-1809548D01*
X3415747Y-1808769D01*
X3404421Y-1803285D01*
X3403170Y-1802960D01*
X3402029Y-1802355D01*
X3389974Y-1798746D01*
X3388688Y-1798624D01*
X3387464Y-1798209D01*
X3374988Y-1796566D01*
X3373699Y-1796651D01*
X3372425Y-1796436D01*
X3359847Y-1796802D01*
X3358587Y-1797091D01*
X3357296Y-1797081D01*
X3344936Y-1799446D01*
X3344035Y-1799812D01*
X3343070Y-1799921D01*
X3337071Y-1801836D01*
X3336786Y-1801994D01*
X3336463Y-1802044D01*
X3141678Y-1872940D01*
X3141412Y-1873102D01*
X3141106Y-1873161D01*
X3132757Y-1876566D01*
X3131982Y-1877077D01*
X3131097Y-1877356D01*
X3115299Y-1886024D01*
X3114354Y-1886816D01*
X3113247Y-1887362D01*
X3098952Y-1898332D01*
X3098138Y-1899259D01*
X3097127Y-1899967D01*
X3084666Y-1912984D01*
X3084004Y-1914024D01*
X3083112Y-1914878D01*
X3072777Y-1929639D01*
X3072280Y-1930768D01*
X3071529Y-1931746D01*
X3063559Y-1947908D01*
X3063240Y-1949100D01*
X3062646Y-1950181D01*
X3057227Y-1967367D01*
X3057093Y-1968593D01*
X3056671Y-1969753D01*
X3053930Y-1987563D01*
X3053970Y-1988490D01*
X3053755Y-1989392D01*
X3053411Y-1998402D01*
X3053460Y-1998710D01*
X3053399Y-1999015D01*
Y-2066937D01*
X3050648Y-2083524D01*
X3045219Y-2099437D01*
X3037260Y-2114247D01*
X3026984Y-2127555D01*
X3014670Y-2139002D01*
X3000648Y-2148280D01*
X2985297Y-2155138D01*
X2977175Y-2157262D01*
X2970595Y-2158977D01*
X2964869Y-2160461D01*
X2959116Y-2161944D01*
X2953371Y-2163416D01*
X2947628Y-2164881D01*
X2941875Y-2166340D01*
X2936153Y-2167783D01*
X2924644Y-2170663D01*
X2912262Y-2173728D01*
X2900740Y-2176549D01*
X2889230Y-2179337D01*
X2877681Y-2182105D01*
X2866097Y-2184853D01*
X2854566Y-2187559D01*
X2842968Y-2190253D01*
X2831424Y-2192905D01*
X2819804Y-2195548D01*
X2808246Y-2198148D01*
X2797467Y-2200549D01*
X2786681Y-2202929D01*
X2775883Y-2205287D01*
X2765126Y-2207615D01*
X2754311Y-2209932D01*
X2743531Y-2212219D01*
X2732695Y-2214496D01*
X2721914Y-2216740D01*
X2711902Y-2218805D01*
X2706929Y-2219823D01*
X2706929D01*
X2701921Y-2220845D01*
X2696938Y-2221857D01*
X2691928Y-2222869D01*
X2686943Y-2223873D01*
X2686943D01*
X2681930Y-2224878D01*
X2676943Y-2225873D01*
X2671928Y-2226870D01*
X2671928Y-2226870D01*
X2666939Y-2227857D01*
X2661922Y-2228846D01*
X2656930Y-2229826D01*
X2651911Y-2230807D01*
X2646916Y-2231779D01*
X2641896Y-2232752D01*
X2637723Y-2233558D01*
X2633549Y-2234362D01*
X2629373Y-2235163D01*
X2625206Y-2235960D01*
X2621019Y-2236759D01*
X2616841Y-2237552D01*
X2612672Y-2238342D01*
X2612672D01*
X2608483Y-2239133D01*
X2604303Y-2239920D01*
X2600132Y-2240703D01*
X2595941Y-2241486D01*
X2595941Y-2241487D01*
X2591768Y-2242265D01*
X2591768D01*
X2587577Y-2243044D01*
X2583402Y-2243818D01*
X2579218Y-2244591D01*
X2575024Y-2245364D01*
X2570847Y-2246131D01*
X2566661Y-2246898D01*
X2562474Y-2247663D01*
X2558278Y-2248427D01*
X2558278Y-2248427D01*
X2554090Y-2249188D01*
X2554090Y-2249188D01*
X2550740Y-2249794D01*
X2547395Y-2250399D01*
X2547395D01*
X2544037Y-2251005D01*
X2540685Y-2251608D01*
X2537338Y-2252209D01*
X2537338D01*
X2533985Y-2252810D01*
X2530626Y-2253410D01*
X2530625Y-2253410D01*
X2527272Y-2254009D01*
X2523923Y-2254605D01*
X2523923D01*
X2520564Y-2255202D01*
X2517208Y-2255797D01*
X2513852Y-2256390D01*
X2510496Y-2256983D01*
X2507146Y-2257574D01*
X2503783Y-2258165D01*
X2500427Y-2258754D01*
X2497069Y-2259343D01*
X2493712Y-2259930D01*
X2490359Y-2260515D01*
X2486155Y-2261247D01*
X2479435Y-2262414D01*
X2472725Y-2263575D01*
X2466004Y-2264733D01*
X2459272Y-2265889D01*
X2452558Y-2267038D01*
X2445829Y-2268185D01*
X2439107Y-2269327D01*
X2433221Y-2270323D01*
X2427333Y-2271317D01*
X2421437Y-2272309D01*
X2415548Y-2273297D01*
X2409666Y-2274281D01*
X2409666D01*
X2403776Y-2275264D01*
X2403776D01*
X2397877Y-2276244D01*
X2391992Y-2277220D01*
X2386099Y-2278194D01*
X2380198Y-2279167D01*
X2374310Y-2280134D01*
X2374310D01*
X2368407Y-2281102D01*
X2362518Y-2282064D01*
X2356614Y-2283026D01*
X2350716Y-2283985D01*
X2344818Y-2284941D01*
X2339768Y-2285757D01*
X2339768D01*
X2334705Y-2286573D01*
X2329648Y-2287387D01*
X2324595Y-2288198D01*
X2319531Y-2289010D01*
X2314473Y-2289818D01*
X2309413Y-2290625D01*
X2309413Y-2290625D01*
X2304359Y-2291429D01*
X2304359D01*
X2299299Y-2292232D01*
X2299299D01*
X2294233Y-2293035D01*
X2289176Y-2293834D01*
X2284115Y-2294633D01*
X2279048Y-2295430D01*
X2273986Y-2296225D01*
X2268928Y-2297018D01*
X2268928D01*
X2263860Y-2297811D01*
X2258796Y-2298602D01*
X2254581Y-2299259D01*
X2250360Y-2299915D01*
X2246140Y-2300571D01*
X2241915Y-2301226D01*
X2237695Y-2301879D01*
X2233477Y-2302531D01*
X2233477D01*
X2229252Y-2303183D01*
X2225030Y-2303834D01*
X2220813Y-2304483D01*
X2220812D01*
X2216586Y-2305132D01*
X2212364Y-2305779D01*
X2208145Y-2306425D01*
X2203923Y-2307071D01*
X2199696Y-2307716D01*
X2199696Y-2307716D01*
X2195477Y-2308360D01*
X2191254Y-2309003D01*
X2187030Y-2309645D01*
X2182803Y-2310286D01*
X2178579Y-2310927D01*
X2174359Y-2311566D01*
X2174358D01*
X2170977Y-2312077D01*
X2167600Y-2312587D01*
X2164220Y-2313097D01*
X2160841Y-2313606D01*
X2157458Y-2314115D01*
X2154079Y-2314623D01*
X2150702Y-2315131D01*
X2147319Y-2315638D01*
X2147319Y-2315638D01*
X2143941Y-2316145D01*
X2141405Y-2316525D01*
X2141405D01*
X2134717Y-2317526D01*
X2121222Y-2316630D01*
X2108229Y-2312876D01*
X2096336Y-2306438D01*
X2086088Y-2297611D01*
X2077960Y-2286802D01*
X2072323Y-2274507D01*
X2069439Y-2261294D01*
Y-2254532D01*
Y-2079486D01*
X2069384Y-2079210D01*
X2069429Y-2078932D01*
X2069147Y-2070778D01*
X2068955Y-2069960D01*
X2069004Y-2069121D01*
X2066758Y-2052970D01*
X2066391Y-2051915D01*
X2066302Y-2050801D01*
X2061853Y-2035113D01*
X2061344Y-2034118D01*
X2061102Y-2033027D01*
X2054535Y-2018102D01*
X2053894Y-2017187D01*
X2053504Y-2016139D01*
X2044944Y-2002261D01*
X2044183Y-2001442D01*
X2043652Y-2000459D01*
X2033262Y-1987891D01*
X2032396Y-1987186D01*
X2031735Y-1986284D01*
X2019713Y-1975268D01*
X2018757Y-1974688D01*
X2017978Y-1973887D01*
X2004553Y-1964631D01*
X2003527Y-1964188D01*
X2002646Y-1963502D01*
X1988074Y-1956184D01*
X1986997Y-1955887D01*
X1986029Y-1955328D01*
X1970588Y-1950086D01*
X1969480Y-1949940D01*
X1968445Y-1949520D01*
X1952429Y-1946455D01*
X1951311Y-1946464D01*
X1950228Y-1946190D01*
X1933942Y-1945360D01*
X1933111Y-1945482D01*
X1932279Y-1945362D01*
X1924132Y-1945792D01*
X1923859Y-1945861D01*
X1923579Y-1945831D01*
X1746211Y-1961348D01*
X1745848Y-1961454D01*
X1745471Y-1961430D01*
X1736068Y-1962694D01*
X1735004Y-1963059D01*
X1733882Y-1963145D01*
X1715628Y-1968250D01*
X1714295Y-1968926D01*
X1712851Y-1969312D01*
X1695851Y-1977696D01*
X1694665Y-1978606D01*
X1693318Y-1979252D01*
X1678155Y-1990627D01*
X1677157Y-1991739D01*
X1675952Y-1992623D01*
X1663146Y-2006598D01*
X1662370Y-2007876D01*
X1661349Y-2008967D01*
X1651339Y-2025063D01*
X1650813Y-2026462D01*
X1650010Y-2027723D01*
X1643140Y-2045389D01*
X1642880Y-2046861D01*
X1642323Y-2048248D01*
X1638828Y-2066878D01*
X1638841Y-2068003D01*
X1638570Y-2069095D01*
X1638131Y-2078572D01*
X1638187Y-2078945D01*
X1638113Y-2079316D01*
Y-2109234D01*
X1638129Y-2109311D01*
X1638114Y-2109388D01*
X1638164Y-2114534D01*
X1638212Y-2114764D01*
X1638175Y-2114997D01*
X1638570Y-2125279D01*
X1638643Y-2125584D01*
X1638606Y-2125895D01*
X1639396Y-2136155D01*
X1639481Y-2136458D01*
X1639455Y-2136770D01*
X1640639Y-2146992D01*
X1640712Y-2147216D01*
X1640699Y-2147451D01*
X1641439Y-2152543D01*
X1641465Y-2152617D01*
X1641461Y-2152695D01*
X1643288Y-2164484D01*
X1644373Y-2188317D01*
X1642878Y-2212127D01*
X1638818Y-2235637D01*
X1632241Y-2258570D01*
X1623225Y-2280659D01*
X1611876Y-2301644D01*
X1598326Y-2321280D01*
X1582732Y-2339337D01*
X1565281Y-2355603D01*
X1546172Y-2369889D01*
X1525633Y-2382027D01*
X1517927Y-2385519D01*
X118110Y-2385519D01*
X111421Y-2385519D01*
X98158Y-2383773D01*
X85235Y-2380310D01*
X72876Y-2375191D01*
X61290Y-2368502D01*
X50677Y-2360358D01*
X41217Y-2350898D01*
X33073Y-2340285D01*
X26384Y-2328699D01*
X21265Y-2316340D01*
X17802Y-2303417D01*
X16056Y-2290153D01*
Y-2283465D01*
X16055Y-1696505D01*
X26291Y-1694815D01*
X32783Y-1713940D01*
X45335Y-1739393D01*
X61102Y-1762990D01*
X73197Y-1776782D01*
X79756Y-1784262D01*
D01*
X79781Y-1784284D01*
X87228Y-1790938D01*
X104790Y-1806632D01*
X132411Y-1826231D01*
X162053Y-1842614D01*
X193343Y-1855574D01*
X225888Y-1864950D01*
X259277Y-1870623D01*
X283187Y-1871966D01*
X293092Y-1872523D01*
X293206Y-1872516D01*
X303424Y-1872471D01*
X661263D01*
Y-1960482D01*
X653224Y-1966819D01*
X650707Y-1966215D01*
X633975Y-1964898D01*
X631722Y-1962001D01*
X628989Y-1954644D01*
X632566Y-1949982D01*
X636731Y-1939925D01*
X638152Y-1929134D01*
X636731Y-1918342D01*
X632566Y-1908286D01*
X625940Y-1899651D01*
X617304Y-1893025D01*
X607248Y-1888859D01*
X596457Y-1887439D01*
X592520D01*
X581728Y-1888859D01*
X571672Y-1893025D01*
X563037Y-1899651D01*
X556411Y-1908286D01*
X552245Y-1918342D01*
X550824Y-1929134D01*
X552245Y-1939925D01*
X555677Y-1948210D01*
X552323Y-1952877D01*
X548182Y-1955811D01*
X538472Y-1950621D01*
X537362Y-1949710D01*
Y-1886260D01*
X451614D01*
Y-1972008D01*
X518828D01*
X534113Y-1981374D01*
X550716Y-1988252D01*
X558608Y-1990146D01*
X560615Y-1994454D01*
X561685Y-2001412D01*
X556411Y-2008286D01*
X552245Y-2018342D01*
X550824Y-2029134D01*
X552245Y-2039925D01*
X556411Y-2049981D01*
X563037Y-2058617D01*
X571672Y-2065243D01*
X581728Y-2069408D01*
X592520Y-2070829D01*
X596457D01*
X607248Y-2069408D01*
X617304Y-2065243D01*
X625940Y-2058617D01*
X632566Y-2049981D01*
X636731Y-2039925D01*
X638152Y-2029134D01*
X636731Y-2018342D01*
X632566Y-2008286D01*
X629290Y-2004018D01*
X632045Y-1995964D01*
X632118Y-1995843D01*
X634307Y-1993740D01*
X649518Y-1995238D01*
X661835Y-1998975D01*
X664040Y-2005343D01*
X664219Y-2007060D01*
X663670Y-2009812D01*
X663334Y-2010512D01*
X663311Y-2010546D01*
X662902Y-2010908D01*
X662449Y-2011837D01*
X661874Y-2012697D01*
X661768Y-2013232D01*
X661528Y-2013723D01*
X661465Y-2014755D01*
X661263Y-2015769D01*
Y-2123933D01*
Y-2133782D01*
X661417Y-2134558D01*
Y-2135348D01*
X665260Y-2154668D01*
X665563Y-2155398D01*
X665717Y-2156174D01*
X673255Y-2174373D01*
X673695Y-2175031D01*
X673997Y-2175761D01*
X684941Y-2192140D01*
X685500Y-2192699D01*
X685939Y-2193356D01*
X734421Y-2241838D01*
X735079Y-2242277D01*
X735638Y-2242836D01*
X736368Y-2243139D01*
X737026Y-2243578D01*
X737801Y-2243733D01*
X738532Y-2244035D01*
X739323D01*
X740098Y-2244189D01*
X740874Y-2244035D01*
X741664D01*
X744830Y-2243405D01*
X745383Y-2243176D01*
X745976Y-2243088D01*
X751508Y-2241102D01*
X751676Y-2241001D01*
X751868Y-2240963D01*
X753014Y-2240197D01*
X754194Y-2239488D01*
X754310Y-2239331D01*
X754473Y-2239222D01*
X758884Y-2234812D01*
X764615Y-2232438D01*
X770818D01*
X776550Y-2234812D01*
X780936Y-2239198D01*
X783310Y-2244930D01*
Y-2251133D01*
X780936Y-2256865D01*
X775421Y-2262380D01*
X774981Y-2263038D01*
X774422Y-2263597D01*
X774120Y-2264327D01*
X773680Y-2264985D01*
X773526Y-2265760D01*
X773223Y-2266491D01*
X771713Y-2274084D01*
Y-2274874D01*
X771559Y-2275650D01*
X771713Y-2276426D01*
Y-2277216D01*
X772016Y-2277947D01*
X772170Y-2278722D01*
X772609Y-2279380D01*
X772912Y-2280110D01*
X773471Y-2280669D01*
X773910Y-2281327D01*
X798770Y-2306187D01*
X799427Y-2306626D01*
X799986Y-2307185D01*
X816365Y-2318129D01*
X817096Y-2318432D01*
X817753Y-2318871D01*
X835952Y-2326409D01*
X836727Y-2326563D01*
X837458Y-2326866D01*
X856778Y-2330709D01*
X857568D01*
X858344Y-2330863D01*
X885777D01*
X885777Y-2330863D01*
X888849Y-2330252D01*
X891454Y-2328512D01*
X905512Y-2314454D01*
X919570Y-2328512D01*
X922174Y-2330252D01*
X925246Y-2330863D01*
X1101371D01*
X1101371Y-2330863D01*
X1101372Y-2330863D01*
X1104444Y-2330252D01*
X1107048Y-2328512D01*
X1108788Y-2325907D01*
X1108789Y-2325907D01*
Y-2325907D01*
X1108828Y-2325812D01*
X1113214Y-2321426D01*
X1118946Y-2319052D01*
X1125149D01*
X1130880Y-2321426D01*
X1135267Y-2325812D01*
X1135306Y-2325907D01*
Y-2325907D01*
X1135306Y-2325907D01*
X1137046Y-2328512D01*
X1137047Y-2328512D01*
X1139651Y-2330252D01*
X1142722Y-2330863D01*
X1142723Y-2330863D01*
X1142723Y-2330863D01*
X1143429Y-2330863D01*
X1180111D01*
X1180112Y-2330863D01*
X1180112Y-2330863D01*
X1183184Y-2330252D01*
X1185788Y-2328512D01*
X1187528Y-2325907D01*
X1187529Y-2325907D01*
Y-2325907D01*
X1187568Y-2325812D01*
X1191954Y-2321426D01*
X1197686Y-2319052D01*
X1203889D01*
X1209621Y-2321426D01*
X1214007Y-2325812D01*
X1214046Y-2325907D01*
Y-2325907D01*
X1214047Y-2325907D01*
X1215786Y-2328512D01*
X1215787Y-2328512D01*
X1218391Y-2330252D01*
X1221462Y-2330863D01*
X1221463Y-2330863D01*
X1221464Y-2330863D01*
X1222170Y-2330863D01*
X1228270D01*
X1229046Y-2330709D01*
X1229836D01*
X1249156Y-2326866D01*
X1249887Y-2326563D01*
X1250662Y-2326409D01*
X1268861Y-2318871D01*
X1269519Y-2318431D01*
X1270249Y-2318129D01*
X1286628Y-2307185D01*
X1287187Y-2306626D01*
X1287844Y-2306186D01*
X1294809Y-2299222D01*
X1354340Y-2239691D01*
X1354341Y-2239690D01*
X1361305Y-2232726D01*
X1361744Y-2232069D01*
X1362303Y-2231510D01*
X1373247Y-2215131D01*
X1373550Y-2214401D01*
X1373989Y-2213743D01*
X1381527Y-2195544D01*
X1381681Y-2194769D01*
X1381984Y-2194038D01*
X1385004Y-2178858D01*
Y-2178809D01*
X1385022Y-2178763D01*
X1385004Y-2177242D01*
Y-2175725D01*
X1384985Y-2175680D01*
X1384984Y-2175630D01*
X1384388Y-2174238D01*
X1383805Y-2172831D01*
X1383770Y-2172796D01*
X1383751Y-2172751D01*
X1378264Y-2164751D01*
X1377733Y-2164232D01*
X1377320Y-2163614D01*
X1376623Y-2163148D01*
X1376023Y-2162563D01*
X1375333Y-2162287D01*
X1374716Y-2161874D01*
X1373893Y-2161711D01*
X1373115Y-2161399D01*
X1372372Y-2161408D01*
X1371643Y-2161263D01*
X1370914D01*
X1365183Y-2158889D01*
X1360796Y-2154502D01*
X1358422Y-2148771D01*
Y-2142568D01*
X1360796Y-2136836D01*
X1365183Y-2132450D01*
X1370914Y-2130076D01*
X1377953D01*
X1381025Y-2129465D01*
X1383630Y-2127724D01*
X1385370Y-2125120D01*
X1385981Y-2122047D01*
Y-1964918D01*
X1385944Y-1964732D01*
X1385973Y-1964545D01*
X1385640Y-1963202D01*
X1385370Y-1961845D01*
X1385265Y-1961688D01*
X1385219Y-1961505D01*
X1384398Y-1960391D01*
X1383630Y-1959241D01*
X1383472Y-1959136D01*
X1383360Y-1958984D01*
X1382176Y-1958270D01*
X1381025Y-1957501D01*
X1380840Y-1957464D01*
X1380678Y-1957366D01*
X1374959Y-1955303D01*
X1373913Y-1955145D01*
X1372895Y-1954854D01*
X1370613Y-1954665D01*
X1370281Y-1954703D01*
X1369953Y-1954638D01*
X1368735Y-1954880D01*
X1367501Y-1955022D01*
X1367209Y-1955184D01*
X1366880Y-1955249D01*
X1365848Y-1955939D01*
X1364762Y-1956542D01*
X1364554Y-1956804D01*
X1364276Y-1956990D01*
X1359227Y-1962039D01*
X1353495Y-1964413D01*
X1347292D01*
X1341561Y-1962039D01*
X1337174Y-1957652D01*
X1334800Y-1951921D01*
Y-1945717D01*
X1337174Y-1939986D01*
X1341561Y-1935599D01*
X1347292Y-1933225D01*
X1353495D01*
X1359227Y-1935599D01*
X1364276Y-1940648D01*
X1364554Y-1940834D01*
X1364762Y-1941096D01*
X1365848Y-1941699D01*
X1366880Y-1942389D01*
X1367208Y-1942454D01*
X1367501Y-1942616D01*
X1368735Y-1942757D01*
X1369953Y-1943000D01*
X1370281Y-1942935D01*
X1370613Y-1942973D01*
X1372895Y-1942784D01*
X1373913Y-1942493D01*
X1374959Y-1942335D01*
X1380678Y-1940272D01*
X1380840Y-1940174D01*
X1381025Y-1940137D01*
X1382176Y-1939368D01*
X1383360Y-1938654D01*
X1383472Y-1938502D01*
X1383630Y-1938397D01*
X1384398Y-1937246D01*
X1385219Y-1936133D01*
X1385265Y-1935950D01*
X1385370Y-1935792D01*
X1385640Y-1934436D01*
X1385973Y-1933093D01*
X1385944Y-1932905D01*
X1385981Y-1932720D01*
Y-1485394D01*
X1464134D01*
Y-1399646D01*
X1385981D01*
Y-1222524D01*
Y-1212675D01*
X1385827Y-1211899D01*
Y-1211108D01*
X1381984Y-1191789D01*
X1381681Y-1191058D01*
X1381527Y-1190283D01*
X1373989Y-1172084D01*
X1373550Y-1171426D01*
X1373247Y-1170696D01*
X1362303Y-1154317D01*
X1361744Y-1153758D01*
X1361305Y-1153101D01*
X1354340Y-1146136D01*
X1354340Y-1146136D01*
X1294809Y-1086604D01*
X1294808Y-1086604D01*
X1287844Y-1079640D01*
X1287187Y-1079201D01*
X1286628Y-1078642D01*
X1270249Y-1067698D01*
X1269518Y-1067395D01*
X1268861Y-1066956D01*
X1250662Y-1059418D01*
X1249887Y-1059264D01*
X1249156Y-1058961D01*
X1229836Y-1055118D01*
X1229046D01*
X1228270Y-1054964D01*
X1145815D01*
X1145039Y-1055118D01*
X1144248D01*
X1143518Y-1055421D01*
X1142742Y-1055575D01*
X1142085Y-1056014D01*
X1141354Y-1056317D01*
X1140795Y-1056876D01*
X1140138Y-1057315D01*
X1139698Y-1057973D01*
X1139139Y-1058532D01*
X1133794Y-1066532D01*
X1133491Y-1067262D01*
X1133052Y-1067920D01*
X1132898Y-1068696D01*
X1132595Y-1069426D01*
Y-1070217D01*
X1132441Y-1070992D01*
X1132595Y-1071767D01*
Y-1072559D01*
X1132898Y-1073289D01*
X1133052Y-1074064D01*
X1133704Y-1075638D01*
Y-1081842D01*
X1131330Y-1087573D01*
X1126943Y-1091960D01*
X1121212Y-1094334D01*
X1115008D01*
X1109277Y-1091960D01*
X1104891Y-1087573D01*
X1102517Y-1081842D01*
Y-1075638D01*
X1103168Y-1074065D01*
X1103323Y-1073289D01*
X1103626Y-1072558D01*
Y-1071767D01*
X1103780Y-1070992D01*
X1103625Y-1070217D01*
Y-1069426D01*
X1103323Y-1068696D01*
X1103169Y-1067920D01*
X1102729Y-1067262D01*
X1102427Y-1066532D01*
X1097081Y-1058532D01*
X1096522Y-1057973D01*
X1096083Y-1057315D01*
X1095425Y-1056876D01*
X1094866Y-1056317D01*
X1094136Y-1056014D01*
X1093478Y-1055575D01*
X1092703Y-1055421D01*
X1091972Y-1055118D01*
X1091181D01*
X1090406Y-1054964D01*
X818974D01*
X818198Y-1055118D01*
X817408D01*
X800792Y-1058423D01*
X799693Y-1058878D01*
X798557Y-1059226D01*
X791474Y-1063033D01*
X790572Y-1063777D01*
X789599Y-1064428D01*
X789372Y-1064767D01*
X789058Y-1065026D01*
X788508Y-1066059D01*
X787858Y-1067032D01*
X787779Y-1067432D01*
X787587Y-1067792D01*
X787475Y-1068957D01*
X787247Y-1070104D01*
Y-1077905D01*
X784873Y-1083636D01*
X780487Y-1088023D01*
X774755Y-1090397D01*
X768552D01*
X762821Y-1088023D01*
X762596Y-1087798D01*
X759991Y-1086058D01*
X756919Y-1085447D01*
X753846Y-1086058D01*
X751242Y-1087798D01*
X722329Y-1116711D01*
X722329Y-1116711D01*
X692904Y-1146136D01*
X692903Y-1146137D01*
X685939Y-1153101D01*
X685500Y-1153758D01*
X684941Y-1154317D01*
X673997Y-1170696D01*
X673694Y-1171426D01*
X673255Y-1172084D01*
X665717Y-1190283D01*
X665563Y-1191058D01*
X665260Y-1191789D01*
X661417Y-1211108D01*
Y-1211899D01*
X661263Y-1212675D01*
Y-1222524D01*
Y-1314961D01*
X661874Y-1318033D01*
X663615Y-1320638D01*
X666219Y-1322378D01*
X669291Y-1322989D01*
X672393D01*
X678125Y-1325363D01*
X682511Y-1329750D01*
X684885Y-1335481D01*
Y-1341685D01*
X682511Y-1347416D01*
X678125Y-1351802D01*
X672393Y-1354176D01*
X669291D01*
X666219Y-1354787D01*
X663615Y-1356528D01*
X661874Y-1359132D01*
X661263Y-1362205D01*
Y-1631737D01*
X661417Y-1632512D01*
Y-1633303D01*
X661720Y-1634034D01*
X661874Y-1634809D01*
X662313Y-1635466D01*
X662616Y-1636197D01*
X663175Y-1636756D01*
X663615Y-1637414D01*
X664272Y-1637853D01*
X664831Y-1638412D01*
X668007Y-1640534D01*
X668737Y-1640836D01*
X669394Y-1641275D01*
X670170Y-1641430D01*
X670901Y-1641732D01*
X671692D01*
X672467Y-1641887D01*
X680267D01*
X685999Y-1644261D01*
X690385Y-1648647D01*
X692759Y-1654379D01*
Y-1660582D01*
X690385Y-1666313D01*
X685999Y-1670700D01*
X680267Y-1673074D01*
X672467D01*
X671692Y-1673228D01*
X670901D01*
X670170Y-1673531D01*
X669394Y-1673685D01*
X668737Y-1674124D01*
X668007Y-1674427D01*
X664831Y-1676549D01*
X664272Y-1677108D01*
X663615Y-1677547D01*
X663175Y-1678205D01*
X662616Y-1678764D01*
X662313Y-1679494D01*
X661874Y-1680152D01*
X661720Y-1680927D01*
X661417Y-1681658D01*
Y-1682449D01*
X661263Y-1683224D01*
Y-1747238D01*
X651176Y-1751628D01*
X642494Y-1748032D01*
X633097D01*
X630933Y-1748928D01*
X629921Y-1748727D01*
X619319D01*
X618786Y-1748656D01*
Y-1748727D01*
X206924D01*
X206255Y-1748860D01*
X190313Y-1747290D01*
X174340Y-1742444D01*
X159620Y-1734576D01*
X147237Y-1724414D01*
X146858Y-1723846D01*
X130859Y-1707848D01*
X129510Y-1706268D01*
X121834Y-1693742D01*
X117202Y-1684778D01*
X111300Y-1670530D01*
X108903Y-1660544D01*
X116584Y-1648687D01*
X116856Y-1648636D01*
X120315Y-1653601D01*
X121433Y-1654676D01*
X122314Y-1655951D01*
X126660Y-1660163D01*
X127962Y-1661004D01*
X129071Y-1662087D01*
X134142Y-1665390D01*
X135581Y-1665967D01*
X136877Y-1666818D01*
X142486Y-1669090D01*
X144009Y-1669381D01*
X145443Y-1669968D01*
X151383Y-1671126D01*
X152551Y-1671121D01*
X153683Y-1671404D01*
X156709Y-1671549D01*
X157096Y-1671491D01*
X157480Y-1671568D01*
X433071D01*
X433333Y-1671516D01*
X433596Y-1671559D01*
X446471Y-1671138D01*
X447247Y-1670957D01*
X448041Y-1671009D01*
X473570Y-1667648D01*
X474573Y-1667308D01*
X475630Y-1667238D01*
X500502Y-1660574D01*
X501452Y-1660105D01*
X502491Y-1659899D01*
X526280Y-1650045D01*
X527161Y-1649457D01*
X528164Y-1649116D01*
X550463Y-1636242D01*
X551259Y-1635543D01*
X552209Y-1635075D01*
X572638Y-1619399D01*
X573336Y-1618603D01*
X574217Y-1618015D01*
X592424Y-1599807D01*
X593013Y-1598927D01*
X593809Y-1598228D01*
X609484Y-1577800D01*
X609952Y-1576850D01*
X610651Y-1576054D01*
X623525Y-1553754D01*
X623866Y-1552751D01*
X624455Y-1551870D01*
X634308Y-1528081D01*
X634515Y-1527043D01*
X634983Y-1526092D01*
X641648Y-1501221D01*
X641717Y-1500164D01*
X642057Y-1499161D01*
X645418Y-1473632D01*
X645366Y-1472837D01*
X645547Y-1472062D01*
X645969Y-1459187D01*
X645925Y-1458923D01*
X645977Y-1458661D01*
Y-1007874D01*
Y-998604D01*
X648397Y-980225D01*
X653195Y-962317D01*
X660290Y-945189D01*
X669559Y-929135D01*
X680845Y-914427D01*
X693954Y-901318D01*
X708662Y-890032D01*
X724717Y-880762D01*
X741845Y-873668D01*
X759752Y-868870D01*
X778132Y-866450D01*
X1238842D01*
Y-901575D01*
X1239841Y-906598D01*
X1242687Y-910856D01*
X1246945Y-913702D01*
X1251968Y-914701D01*
X1409449D01*
X1414472Y-913702D01*
X1418730Y-910856D01*
X1421576Y-906598D01*
X1422575Y-901575D01*
Y-866450D01*
X1456693D01*
X1456889Y-866411D01*
X1457087Y-866445D01*
X1468678Y-866160D01*
X1469262Y-866029D01*
X1469858Y-866088D01*
X1492927Y-863816D01*
X1493690Y-863585D01*
X1494486D01*
X1517222Y-859062D01*
X1517958Y-858757D01*
X1518751Y-858679D01*
X1540934Y-851950D01*
X1541636Y-851574D01*
X1542418Y-851419D01*
X1563835Y-842548D01*
X1564497Y-842105D01*
X1565259Y-841874D01*
X1585703Y-830947D01*
X1586319Y-830441D01*
X1587055Y-830136D01*
X1606330Y-817257D01*
X1606893Y-816694D01*
X1607595Y-816319D01*
X1625515Y-801612D01*
X1626020Y-800997D01*
X1626682Y-800554D01*
X1643074Y-784163D01*
X1643517Y-783500D01*
X1644132Y-782995D01*
X1658839Y-765075D01*
X1659214Y-764373D01*
X1659777Y-763810D01*
X1672656Y-744535D01*
X1672961Y-743799D01*
X1673466Y-743184D01*
X1684394Y-722739D01*
X1684625Y-721977D01*
X1685068Y-721315D01*
X1693939Y-699898D01*
X1694094Y-699117D01*
X1694470Y-698414D01*
X1701199Y-676231D01*
X1701277Y-675438D01*
X1701582Y-674702D01*
X1706104Y-651966D01*
Y-651170D01*
X1706335Y-650408D01*
X1708608Y-627338D01*
X1708549Y-626742D01*
X1708680Y-626158D01*
X1708965Y-614567D01*
X1708930Y-614370D01*
X1708969Y-614173D01*
Y-391066D01*
X1708969Y-380897D01*
X1710844Y-360648D01*
X1714577Y-340655D01*
X1720137Y-321093D01*
X1727477Y-302126D01*
X1736533Y-283918D01*
X1747230Y-266620D01*
X1759476Y-250382D01*
X1766321Y-242863D01*
X1766346Y-242821D01*
X1766384Y-242793D01*
X1773071Y-235360D01*
X1773145Y-235236D01*
X1773259Y-235147D01*
X1786367Y-220047D01*
X1786463Y-219880D01*
X1786612Y-219759D01*
X1799361Y-204355D01*
X1799452Y-204186D01*
X1799599Y-204061D01*
X1811982Y-188361D01*
X1812048Y-188232D01*
X1812156Y-188137D01*
X1818208Y-180179D01*
X1818229Y-180135D01*
X1818265Y-180103D01*
X1824623Y-171641D01*
X1838903Y-156013D01*
X1854616Y-141828D01*
X1871618Y-129216D01*
X1889752Y-118293D01*
X1908849Y-109160D01*
X1928734Y-101901D01*
X1949224Y-96583D01*
X1959678Y-94919D01*
X1959692Y-94913D01*
X1959707Y-94914D01*
X1963985Y-94225D01*
X1964028Y-94209D01*
X1964074Y-94210D01*
X1972622Y-92784D01*
X1972679Y-92763D01*
X1972740Y-92764D01*
X1981277Y-91274D01*
X1981334Y-91252D01*
X1981395Y-91253D01*
X1989921Y-89700D01*
X1989964Y-89683D01*
X1990010Y-89683D01*
X1994268Y-88883D01*
X1994293Y-88873D01*
X1994320Y-88873D01*
X1997601Y-88245D01*
X1997622Y-88237D01*
X1997644Y-88237D01*
X2000921Y-87600D01*
X2000942Y-87591D01*
X2000965D01*
X2004237Y-86946D01*
X2004258Y-86938D01*
X2004281D01*
X2007549Y-86284D01*
X2007569Y-86275D01*
X2007591Y-86275D01*
X2010854Y-85614D01*
X2010875Y-85605D01*
X2010897Y-85605D01*
X2014156Y-84934D01*
X2014176Y-84926D01*
X2014197Y-84926D01*
X2017451Y-84248D01*
X2017471Y-84239D01*
X2017493Y-84239D01*
X2020742Y-83553D01*
X2020761Y-83545D01*
X2020782Y-83544D01*
X2023871Y-82884D01*
X2023890Y-82876D01*
X2023910Y-82876D01*
X2026995Y-82208D01*
X2027013Y-82200D01*
X2027033Y-82200D01*
X2030114Y-81525D01*
X2030132Y-81517D01*
X2030151Y-81517D01*
X2033227Y-80836D01*
X2033245Y-80828D01*
X2033265Y-80828D01*
X2036336Y-80140D01*
X2036353Y-80132D01*
X2036372Y-80132D01*
X2039439Y-79438D01*
X2039456Y-79430D01*
X2039475Y-79429D01*
X2042536Y-78729D01*
X2042553Y-78721D01*
X2042572Y-78721D01*
X2045629Y-78014D01*
X2045646Y-78007D01*
X2045664Y-78006D01*
X2048715Y-77293D01*
X2048732Y-77285D01*
X2048751Y-77285D01*
X2051797Y-76566D01*
X2051811Y-76559D01*
X2051827Y-76559D01*
X2054260Y-75980D01*
X2054271Y-75975D01*
X2054283Y-75974D01*
X2055650Y-75647D01*
X2055656Y-75644D01*
X2055664Y-75644D01*
X2057030Y-75315D01*
X2057037Y-75312D01*
X2057045Y-75311D01*
X2058410Y-74982D01*
X2058417Y-74978D01*
X2058425Y-74978D01*
X2059638Y-74684D01*
X2059644Y-74681D01*
X2059650Y-74681D01*
X2060862Y-74386D01*
X2060868Y-74383D01*
X2060875Y-74383D01*
X2062086Y-74087D01*
X2062092Y-74084D01*
X2062099Y-74084D01*
X2063309Y-73787D01*
X2063315Y-73785D01*
X2063321Y-73784D01*
X2064531Y-73487D01*
X2064537Y-73484D01*
X2064544Y-73484D01*
X2065753Y-73185D01*
X2065759Y-73182D01*
X2065766Y-73182D01*
X2066974Y-72883D01*
X2066980Y-72880D01*
X2066986Y-72880D01*
X2068193Y-72580D01*
X2068198Y-72577D01*
X2068203Y-72577D01*
X2069260Y-72314D01*
X2069265Y-72311D01*
X2069271Y-72311D01*
X2070327Y-72047D01*
X2070332Y-72045D01*
X2070338Y-72044D01*
X2071393Y-71780D01*
X2071398Y-71778D01*
X2071403Y-71777D01*
X2072458Y-71512D01*
X2072462Y-71510D01*
X2072467Y-71510D01*
X2073521Y-71244D01*
X2073526Y-71242D01*
X2073532Y-71242D01*
X2074586Y-70975D01*
X2074592Y-70973D01*
X2074597Y-70972D01*
X2075651Y-70705D01*
X2075655Y-70703D01*
X2075660Y-70703D01*
X2076713Y-70436D01*
X2076718Y-70433D01*
X2076723Y-70433D01*
X2077776Y-70165D01*
X2077780Y-70163D01*
X2077785Y-70162D01*
X2078687Y-69932D01*
X2078691Y-69930D01*
X2078695Y-69930D01*
X2079597Y-69699D01*
X2079600Y-69698D01*
X2079604Y-69698D01*
X2080506Y-69466D01*
X2080510Y-69464D01*
X2080515Y-69464D01*
X2081417Y-69232D01*
X2081420Y-69231D01*
X2081424Y-69230D01*
X2082325Y-68998D01*
X2082329Y-68996D01*
X2082332Y-68996D01*
X2083234Y-68764D01*
X2083238Y-68762D01*
X2083242Y-68761D01*
X2084143Y-68528D01*
X2084146Y-68527D01*
X2084149Y-68527D01*
X2085050Y-68294D01*
X2085054Y-68292D01*
X2085059Y-68291D01*
X2085959Y-68058D01*
X2085963Y-68056D01*
X2085966Y-68056D01*
X2086867Y-67822D01*
X2086870Y-67820D01*
X2086874Y-67820D01*
X2087774Y-67585D01*
X2087778Y-67583D01*
X2087782Y-67583D01*
X2088682Y-67348D01*
X2088685Y-67347D01*
X2088688Y-67346D01*
X2089588Y-67111D01*
X2089590Y-67110D01*
X2089593Y-67110D01*
X2090343Y-66913D01*
X2090347Y-66911D01*
X2090352Y-66911D01*
X2091101Y-66714D01*
X2091103Y-66713D01*
X2091105Y-66713D01*
X2091855Y-66516D01*
X2091858Y-66515D01*
X2091861Y-66514D01*
X2092610Y-66317D01*
X2092613Y-66316D01*
X2092615Y-66316D01*
X2093365Y-66118D01*
X2093367Y-66117D01*
X2093370Y-66117D01*
X2094120Y-65919D01*
X2094122Y-65918D01*
X2094126Y-65918D01*
X2094875Y-65719D01*
X2094878Y-65718D01*
X2094882Y-65718D01*
X2095631Y-65519D01*
X2095633Y-65518D01*
X2095635Y-65518D01*
X2096384Y-65320D01*
X2096386Y-65318D01*
X2096390Y-65318D01*
X2097139Y-65119D01*
X2097141Y-65118D01*
X2097143Y-65118D01*
X2097892Y-64919D01*
X2097895Y-64917D01*
X2097898Y-64917D01*
X2098647Y-64718D01*
X2098649Y-64717D01*
X2098651Y-64717D01*
X2099400Y-64517D01*
X2099403Y-64516D01*
X2099406Y-64516D01*
X2100155Y-64316D01*
X2100158Y-64314D01*
X2100161Y-64314D01*
X2100910Y-64114D01*
X2100912Y-64113D01*
X2100914Y-64113D01*
X2101662Y-63912D01*
X2101664Y-63911D01*
X2101667Y-63911D01*
X2102416Y-63711D01*
X2102418Y-63709D01*
X2102421Y-63709D01*
X2103020Y-63549D01*
X2103021Y-63548D01*
X2103022Y-63548D01*
X2103621Y-63387D01*
X2103623Y-63386D01*
X2103626Y-63386D01*
X2104225Y-63225D01*
X2104227Y-63224D01*
X2104230Y-63224D01*
X2104829Y-63062D01*
X2104830Y-63062D01*
X2104831Y-63062D01*
X2105430Y-62900D01*
X2105432Y-62899D01*
X2105435Y-62899D01*
X2106034Y-62738D01*
X2106035Y-62737D01*
X2106037Y-62737D01*
X2106636Y-62575D01*
X2106638Y-62574D01*
X2106640Y-62574D01*
X2107239Y-62412D01*
X2107240Y-62412D01*
X2107242Y-62412D01*
X2107840Y-62250D01*
X2107841Y-62249D01*
X2107843Y-62249D01*
X2108442Y-62087D01*
X2108445Y-62086D01*
X2108448Y-62085D01*
X2109048Y-61923D01*
X2109048Y-61923D01*
X2109647Y-61761D01*
X2109649Y-61759D01*
X2109652Y-61759D01*
X2110251Y-61597D01*
X2110253Y-61596D01*
X2110255Y-61596D01*
X2110854Y-61433D01*
X2110856Y-61432D01*
X2110857Y-61432D01*
X2111456Y-61269D01*
X2111457Y-61269D01*
X2111458Y-61269D01*
X2112057Y-61106D01*
X2112059Y-61105D01*
X2112061Y-61105D01*
X2112661Y-60942D01*
X2112662Y-60941D01*
X2112664Y-60941D01*
X2113263Y-60778D01*
X2113265Y-60777D01*
X2113266Y-60777D01*
X2113866Y-60613D01*
X2113867Y-60612D01*
X2113869Y-60612D01*
X2114468Y-60449D01*
X2114470Y-60448D01*
X2114474Y-60447D01*
X2116070Y-60011D01*
X2116074Y-60009D01*
X2116078Y-60009D01*
X2117050Y-59743D01*
X2117053Y-59741D01*
X2117056Y-59741D01*
X2118029Y-59474D01*
X2118032Y-59473D01*
X2118035Y-59473D01*
X2119008Y-59206D01*
X2119010Y-59205D01*
X2119012Y-59204D01*
X2119985Y-58937D01*
X2119988Y-58936D01*
X2119991Y-58935D01*
X2120963Y-58668D01*
X2120965Y-58667D01*
X2120968Y-58666D01*
X2121941Y-58398D01*
X2121943Y-58397D01*
X2121947Y-58397D01*
X2122919Y-58128D01*
X2122922Y-58127D01*
X2122924Y-58127D01*
X2123897Y-57858D01*
X2123899Y-57857D01*
X2123901Y-57857D01*
X2124874Y-57588D01*
X2124877Y-57586D01*
X2124880Y-57586D01*
X2125853Y-57316D01*
X2125854Y-57316D01*
X2125857Y-57315D01*
X2126829Y-57045D01*
X2126831Y-57044D01*
X2126834Y-57044D01*
X2127807Y-56774D01*
X2127810Y-56773D01*
X2127813Y-56772D01*
X2128785Y-56502D01*
X2128787Y-56501D01*
X2128789Y-56501D01*
X2129762Y-56230D01*
X2129764Y-56229D01*
X2129767Y-56228D01*
X2130739Y-55957D01*
X2130741Y-55956D01*
X2130743Y-55956D01*
X2131716Y-55685D01*
X2131718Y-55684D01*
X2131721Y-55684D01*
X2132693Y-55412D01*
X2132695Y-55411D01*
X2132697Y-55410D01*
X2133670Y-55139D01*
X2133672Y-55137D01*
X2133675Y-55137D01*
X2134647Y-54865D01*
X2134649Y-54864D01*
X2134651Y-54864D01*
X2135624Y-54591D01*
X2135625Y-54590D01*
X2135628Y-54590D01*
X2136600Y-54317D01*
X2136602Y-54316D01*
X2136604Y-54316D01*
X2137575Y-54043D01*
X2137578Y-54041D01*
X2137581Y-54041D01*
X2138553Y-53768D01*
X2138555Y-53767D01*
X2138556Y-53767D01*
X2139528Y-53493D01*
X2139531Y-53492D01*
X2139533Y-53492D01*
X2140505Y-53218D01*
X2140507Y-53217D01*
X2140508Y-53217D01*
X2141480Y-52943D01*
X2141483Y-52941D01*
X2141485Y-52941D01*
X2142456Y-52667D01*
X2142459Y-52666D01*
X2142461Y-52665D01*
X2143433Y-52391D01*
X2143434Y-52390D01*
X2143436Y-52390D01*
X2144408Y-52115D01*
X2144410Y-52114D01*
X2144412Y-52113D01*
X2145384Y-51838D01*
X2145386Y-51837D01*
X2145387Y-51837D01*
X2146359Y-51562D01*
X2146361Y-51561D01*
X2146362Y-51561D01*
X2147334Y-51285D01*
X2147336Y-51284D01*
X2147338Y-51284D01*
X2148309Y-51008D01*
X2148312Y-51007D01*
X2148314Y-51006D01*
X2149933Y-50546D01*
X2149936Y-50545D01*
X2149939Y-50544D01*
X2150586Y-50360D01*
X2150586Y-50360D01*
X2150587Y-50360D01*
X2151235Y-50175D01*
X2151235Y-50175D01*
X2151236Y-50175D01*
X2151883Y-49990D01*
X2151885Y-49989D01*
X2151887Y-49989D01*
X2152535Y-49804D01*
X2152536Y-49804D01*
X2152537Y-49804D01*
X2153832Y-49434D01*
X2153834Y-49433D01*
X2153837Y-49433D01*
X2155131Y-49063D01*
X2155133Y-49062D01*
X2155134Y-49062D01*
X2155781Y-48877D01*
X2155782Y-48876D01*
X2155784Y-48876D01*
X2156431Y-48691D01*
X2156432Y-48690D01*
X2156433Y-48690D01*
X2157080Y-48505D01*
X2157081Y-48504D01*
X2157083Y-48504D01*
X2157730Y-48319D01*
X2157731Y-48318D01*
X2157732Y-48318D01*
X2158379Y-48133D01*
X2158379D01*
X2159026Y-47947D01*
X2159029Y-47946D01*
X2159031Y-47946D01*
X2160325Y-47574D01*
X2160326Y-47574D01*
X2160328Y-47573D01*
X2160975Y-47388D01*
X2160976Y-47387D01*
X2160977Y-47387D01*
X2161624Y-47201D01*
X2161624Y-47201D01*
X2161624D01*
X2162271Y-47015D01*
X2162272Y-47014D01*
X2162273Y-47014D01*
X2162920Y-46828D01*
X2162921Y-46828D01*
X2162922Y-46828D01*
X2163569Y-46642D01*
X2163570Y-46641D01*
X2163572Y-46641D01*
X2164218Y-46455D01*
X2164219Y-46454D01*
X2164865Y-46268D01*
X2164868Y-46267D01*
X2164870Y-46267D01*
X2165514Y-46081D01*
X2165514D01*
X2166161Y-45895D01*
X2166163Y-45894D01*
X2166166Y-45893D01*
X2167459Y-45520D01*
X2167460Y-45520D01*
X2167461Y-45520D01*
X2168754Y-45146D01*
X2168756Y-45145D01*
X2168759Y-45145D01*
X2169403Y-44959D01*
X2169403D01*
X2170049Y-44772D01*
X2170052Y-44771D01*
X2170054Y-44771D01*
X2170700Y-44584D01*
X2170701Y-44584D01*
X2170701D01*
X2171993Y-44210D01*
X2171994Y-44209D01*
X2171995Y-44209D01*
X2172641Y-44022D01*
X2172642Y-44021D01*
X2172644Y-44021D01*
X2173290Y-43834D01*
X2173290Y-43834D01*
X2173291D01*
X2173936Y-43647D01*
X2173937Y-43646D01*
X2173939Y-43646D01*
X2174584Y-43459D01*
X2174584D01*
X2175230Y-43272D01*
X2175231Y-43272D01*
X2175876Y-43084D01*
X2175879Y-43083D01*
X2175881Y-43083D01*
X2176527Y-42896D01*
X2177171Y-42709D01*
X2177172Y-42708D01*
X2177173Y-42708D01*
X2177819Y-42521D01*
X2177820Y-42520D01*
X2177822Y-42520D01*
X2179758Y-41957D01*
X2179760Y-41957D01*
X2179761Y-41956D01*
X2181052Y-41581D01*
X2181053Y-41581D01*
X2181054Y-41581D01*
X2181699Y-41393D01*
X2181699Y-41393D01*
X2181700D01*
X2182345Y-41205D01*
X2182346Y-41205D01*
X2182991Y-41017D01*
X2182992Y-41017D01*
X2182993Y-41016D01*
X2183638Y-40829D01*
X2183638Y-40828D01*
X2183638D01*
X2184283Y-40641D01*
X2184284Y-40641D01*
X2184929Y-40453D01*
X2184930Y-40452D01*
X2184931Y-40452D01*
X2185576Y-40264D01*
X2185576Y-40264D01*
X2185576D01*
X2186866Y-39888D01*
X2186867Y-39887D01*
X2186869Y-39887D01*
X2187513Y-39699D01*
X2187514Y-39699D01*
X2187514D01*
X2188158Y-39511D01*
X2188159Y-39511D01*
X2188159D01*
X2189448Y-39135D01*
X2189449Y-39134D01*
X2189451Y-39134D01*
X2190095Y-38946D01*
X2190095Y-38946D01*
X2190738Y-38758D01*
X2190738Y-38758D01*
X2190740Y-38758D01*
X2191384Y-38570D01*
X2191384Y-38569D01*
X2191385D01*
X2192673Y-38193D01*
X2192675Y-38193D01*
X2192676Y-38192D01*
X2193962Y-37817D01*
X2193963Y-37816D01*
X2193965Y-37816D01*
X2195252Y-37439D01*
X2195253Y-37439D01*
X2195253D01*
X2195897Y-37251D01*
X2195897Y-37251D01*
X2195897D01*
X2196541Y-37063D01*
X2196541Y-37062D01*
X2196542D01*
X2197185Y-36874D01*
X2197186Y-36874D01*
X2197186D01*
X2198473Y-36498D01*
X2198474Y-36497D01*
X2198475Y-36497D01*
X2199117Y-36309D01*
X2199117D01*
X2200404Y-35933D01*
X2200405Y-35932D01*
X2200407Y-35931D01*
X2201048Y-35744D01*
X2201048D01*
X2201691Y-35556D01*
X2201691Y-35556D01*
X2201691D01*
X2202977Y-35179D01*
X2202979Y-35178D01*
X2202981Y-35178D01*
X2204264Y-34802D01*
X2204264Y-34802D01*
X2204265D01*
X2204907Y-34614D01*
X2204908Y-34614D01*
X2204908D01*
X2205550Y-34425D01*
X2205551Y-34425D01*
X2207477Y-33861D01*
X2207478Y-33860D01*
X2207480Y-33860D01*
X2209404Y-33296D01*
X2209406Y-33296D01*
X2209408Y-33295D01*
X2210047Y-33108D01*
X2210047D01*
X2210689Y-32920D01*
X2210690Y-32920D01*
X2211329Y-32732D01*
X2211331Y-32731D01*
X2211332Y-32731D01*
X2211974Y-32543D01*
X2211974Y-32543D01*
X2212614Y-32356D01*
X2212615Y-32355D01*
X2212616Y-32355D01*
X2213258Y-32167D01*
X2213258Y-32167D01*
X2214538Y-31792D01*
X2214539Y-31791D01*
X2214541Y-31791D01*
X2215182Y-31603D01*
X2215182Y-31603D01*
X2215821Y-31416D01*
X2215822Y-31415D01*
X2215824Y-31415D01*
X2216465Y-31227D01*
X2217102Y-31040D01*
X2217104Y-31040D01*
X2217104Y-31040D01*
X2219667Y-30289D01*
X2219668Y-30288D01*
X2219669Y-30288D01*
X2220307Y-30101D01*
X2221589Y-29726D01*
X2221589Y-29726D01*
X2223509Y-29163D01*
X2223510Y-29163D01*
X2223510Y-29163D01*
X2224789Y-28788D01*
X2227349Y-28039D01*
X2227349Y-28039D01*
X2227987Y-27852D01*
X2227987Y-27852D01*
X2227988D01*
X2229265Y-27478D01*
X2229265Y-27478D01*
X2229266D01*
X2229906Y-27291D01*
X2229906Y-27291D01*
X2229906D01*
X2230544Y-27104D01*
X2230544D01*
X2231184Y-26917D01*
X2231184Y-26917D01*
X2231184D01*
X2232459Y-26544D01*
X2233099Y-26357D01*
X2233101Y-26356D01*
X2233102Y-26356D01*
X2233737Y-26170D01*
X2235016Y-25797D01*
X2235016Y-25796D01*
X2235017Y-25796D01*
X2235656Y-25610D01*
X2236293Y-25424D01*
X2236293Y-25423D01*
X2236294Y-25423D01*
X2236930Y-25237D01*
X2236930D01*
X2237569Y-25051D01*
X2237570Y-25050D01*
X2237571Y-25050D01*
X2238210Y-24864D01*
X2240123Y-24306D01*
X2240759Y-24120D01*
X2240760Y-24120D01*
X2240760D01*
X2242672Y-23562D01*
X2242673D01*
X2243309Y-23377D01*
X2244585Y-23005D01*
X2244585D01*
X2245860Y-22634D01*
X2245860Y-22634D01*
X2245861D01*
X2246497Y-22449D01*
X2246497D01*
X2247771Y-22078D01*
X2247772Y-22078D01*
X2247772D01*
X2249046Y-21707D01*
X2249047Y-21707D01*
X2249681Y-21523D01*
X2249681D01*
X2250319Y-21338D01*
X2250319Y-21338D01*
X2250320D01*
X2251594Y-20968D01*
X2252230Y-20783D01*
X2252230Y-20783D01*
X2252230D01*
X2252864Y-20599D01*
X2255410Y-19861D01*
X2256686Y-19492D01*
X2256686Y-19492D01*
X2257320Y-19309D01*
X2259227Y-18758D01*
X2260499Y-18390D01*
X2260500D01*
X2261771Y-18023D01*
X2262409Y-17840D01*
X2262409Y-17839D01*
X2263042Y-17657D01*
X2264313Y-17291D01*
X2264950Y-17108D01*
X2264950D01*
X2265583Y-16925D01*
X2266220Y-16742D01*
X2266221Y-16742D01*
X2267489Y-16378D01*
X2268126Y-16195D01*
X2268126Y-16195D01*
X2269394Y-15831D01*
X2270666Y-15466D01*
X2270667D01*
X2271304Y-15284D01*
X2272574Y-14920D01*
X2272575Y-14920D01*
X2273204Y-14740D01*
X2274475Y-14377D01*
X2275112Y-14195D01*
X2276379Y-13834D01*
X2277016Y-13652D01*
X2277017Y-13652D01*
X2278286Y-13291D01*
X2279869Y-12841D01*
X2280820Y-12571D01*
X2281775Y-12300D01*
X2282723Y-12031D01*
X2283679Y-11761D01*
X2283679Y-11760D01*
X2284631Y-11491D01*
X2284631Y-11491D01*
X2285577Y-11224D01*
X2285578D01*
X2286533Y-10954D01*
X2287480Y-10687D01*
X2287481D01*
X2288430Y-10419D01*
X2289385Y-10150D01*
X2290331Y-9884D01*
X2291286Y-9616D01*
X2292234Y-9350D01*
X2293183Y-9084D01*
X2294138Y-8817D01*
X2295085Y-8552D01*
X2296351Y-8198D01*
X2296352D01*
X2297944Y-7755D01*
X2299525Y-7315D01*
X2301111Y-6874D01*
X2302688Y-6438D01*
X2304280Y-5997D01*
X2305863Y-5560D01*
X2307439Y-5127D01*
X2309031Y-4689D01*
X2310605Y-4257D01*
X2310606D01*
X2312189Y-3824D01*
X2313772Y-3392D01*
X2313773D01*
X2315365Y-2958D01*
X2316949Y-2527D01*
X2318523Y-2101D01*
X2318523D01*
X2320116Y-1670D01*
X2321688Y-1245D01*
X2323589Y-734D01*
X2325500Y-221D01*
X2325501Y-221D01*
X2327394Y286D01*
X2329289Y792D01*
X2331188Y1297D01*
X2333100Y1804D01*
X2335000Y2306D01*
X2336887Y2804D01*
X2336888D01*
X2338800Y3306D01*
X2338800Y3306D01*
X2340687Y3800D01*
X2342600Y4300D01*
X2344500Y4794D01*
X2346387Y5283D01*
X2346388D01*
X2348301Y5778D01*
X2350188Y6264D01*
X2352101Y6755D01*
X2354001Y7240D01*
X2354001Y7241D01*
X2356203Y7802D01*
X2358428Y8366D01*
X2360651Y8928D01*
X2362854Y9481D01*
X2362854D01*
X2365088Y10041D01*
X2367299Y10592D01*
X2369523Y11143D01*
X2371725Y11687D01*
X2373960Y12236D01*
X2376177Y12779D01*
X2378378Y13315D01*
X2380615Y13856D01*
X2382816Y14387D01*
X2385033Y14919D01*
X2387259Y15450D01*
X2389809Y16055D01*
X2389809Y16055D01*
X2392332Y16650D01*
X2394861Y17243D01*
X2394862D01*
X2397421Y17839D01*
X2397421Y17839D01*
X2399958Y18426D01*
X2402487Y19008D01*
X2405012Y19584D01*
X2407561Y20163D01*
X2410095Y20734D01*
X2412629Y21301D01*
X2415193Y21871D01*
X2415193Y21871D01*
X2417708Y22426D01*
X2420594Y23058D01*
X2423448Y23678D01*
X2426285Y24289D01*
X2429173Y24906D01*
X2432013Y25506D01*
X2434246Y25975D01*
X2438510Y26867D01*
X2447222Y26729D01*
X2455689Y24675D01*
X2463495Y20806D01*
X2470258Y15312D01*
X2475643Y8463D01*
X2479388Y596D01*
X2481307Y-7903D01*
Y-12259D01*
Y-198398D01*
X2481390Y-198810D01*
X2481329Y-199226D01*
X2481622Y-204910D01*
X2481930Y-206123D01*
X2481943Y-207375D01*
X2484274Y-218499D01*
X2484926Y-220029D01*
X2485284Y-221653D01*
X2489848Y-232063D01*
X2490800Y-233427D01*
X2491483Y-234942D01*
X2498085Y-244195D01*
X2499297Y-245334D01*
X2500276Y-246678D01*
X2508636Y-254379D01*
X2510055Y-255245D01*
X2511290Y-256359D01*
X2521052Y-262182D01*
X2522618Y-262739D01*
X2524055Y-263576D01*
X2534804Y-267273D01*
X2536451Y-267497D01*
X2538029Y-268021D01*
X2549308Y-269435D01*
X2550556Y-269345D01*
X2551791Y-269552D01*
X2557479Y-269379D01*
X2557889Y-269285D01*
X2558307Y-269333D01*
X2780020Y-251126D01*
X2780385Y-251022D01*
X2780763Y-251048D01*
X2785848Y-250391D01*
X2786918Y-250031D01*
X2788043Y-249950D01*
X2797921Y-247237D01*
X2799262Y-246566D01*
X2800712Y-246183D01*
X2809917Y-241690D01*
X2811110Y-240781D01*
X2812465Y-240137D01*
X2820680Y-234018D01*
X2821684Y-232904D01*
X2822896Y-232021D01*
X2829836Y-224487D01*
X2830618Y-223207D01*
X2831646Y-222114D01*
X2837072Y-213427D01*
X2837603Y-212024D01*
X2838411Y-210760D01*
X2842136Y-201218D01*
X2842398Y-199741D01*
X2842958Y-198350D01*
X2844854Y-188284D01*
X2844842Y-187155D01*
X2845113Y-186060D01*
X2845352Y-180938D01*
X2845295Y-180563D01*
X2845369Y-180191D01*
Y31803D01*
Y35543D01*
X2846789Y42887D01*
X2849576Y49829D01*
X2853630Y56116D01*
X2858802Y61519D01*
X2864907Y65842D01*
X2871720Y68928D01*
X2878997Y70666D01*
X2882722Y70828D01*
X2882723Y70828D01*
X2888394Y71071D01*
X2893102Y71267D01*
X2896854Y71420D01*
X2896854D01*
X2900637Y71571D01*
X2904406Y71718D01*
X2908175Y71862D01*
X2911932Y72002D01*
X2915702Y72139D01*
X2919485Y72275D01*
X2923256Y72406D01*
X2927014Y72535D01*
X2927015D01*
X2930787Y72660D01*
X2934559Y72783D01*
X2938330Y72903D01*
X2942115Y73021D01*
X2942115Y73021D01*
X2945875Y73135D01*
X2945876D01*
X2949660Y73246D01*
X2953421Y73355D01*
X2953421Y73355D01*
X2957206Y73461D01*
X2960980Y73565D01*
X2964747Y73665D01*
X2968516Y73763D01*
X2972300Y73859D01*
X2972301Y73859D01*
X2976063Y73952D01*
X2979848Y74042D01*
X2983611Y74130D01*
X2987396Y74216D01*
X2991160Y74298D01*
X2991160Y74298D01*
X2994935Y74379D01*
X2998710Y74457D01*
X3001541Y74514D01*
X3001541Y74514D01*
X3004379Y74570D01*
X3004380Y74570D01*
X3007202Y74625D01*
X3007203Y74624D01*
X3010041Y74678D01*
X3012871Y74730D01*
X3015702Y74781D01*
X3018524Y74830D01*
X3018525Y74830D01*
X3021362Y74878D01*
X3024193Y74925D01*
X3027022Y74971D01*
X3029854Y75016D01*
X3032684Y75059D01*
X3035508Y75102D01*
X3038338Y75143D01*
X3041168Y75183D01*
X3043998Y75222D01*
X3046834Y75260D01*
X3046834Y75260D01*
X3049657Y75296D01*
X3052487Y75332D01*
X3055317Y75367D01*
X3058152Y75400D01*
X3058152Y75400D01*
X3060975Y75433D01*
X3063810Y75464D01*
X3064748Y75475D01*
X3064748Y75474D01*
X3066638Y75495D01*
X3067579Y75504D01*
X3069462Y75524D01*
X3069462Y75524D01*
X3071351Y75543D01*
X3073231Y75561D01*
X3075121Y75579D01*
X3077001Y75597D01*
X3077001Y75597D01*
X3078890Y75614D01*
X3080775Y75630D01*
X3082654Y75646D01*
X3082654Y75646D01*
X3084543Y75661D01*
X3086422Y75675D01*
X3086422Y75675D01*
X3088311Y75689D01*
X3090194Y75703D01*
X3092072Y75716D01*
X3092072Y75716D01*
X3093961Y75728D01*
X3095844Y75740D01*
X3097721Y75751D01*
X3097721Y75751D01*
X3099609Y75761D01*
X3101492Y75771D01*
X3103374Y75780D01*
X3105250Y75788D01*
X3105251Y75788D01*
X3107138Y75796D01*
X3109020Y75803D01*
X3110902Y75810D01*
X3112782Y75815D01*
X3114657Y75820D01*
X3114658Y75820D01*
X3116545Y75824D01*
X3118427Y75828D01*
X3120308Y75831D01*
X3122188Y75833D01*
X3124069Y75834D01*
X3125946Y75834D01*
X3127822Y75834D01*
D02*
G37*
G36*
X78740Y-16056D02*
X631194D01*
X632057Y-26292D01*
X627832Y-27010D01*
X594241Y-36688D01*
X561945Y-50065D01*
X531350Y-66974D01*
X502841Y-87203D01*
X490283Y-98425D01*
X483490D01*
X474808Y-102021D01*
X468163Y-108666D01*
X464567Y-117349D01*
Y-126746D01*
X468163Y-135428D01*
X474808Y-142073D01*
X483490Y-145669D01*
X492888D01*
X501570Y-142073D01*
X508215Y-135428D01*
X511811Y-126746D01*
Y-122097D01*
X522822Y-112257D01*
X548400Y-94109D01*
X575850Y-78938D01*
X604825Y-66936D01*
X634963Y-58253D01*
X665882Y-53000D01*
X673835Y-52553D01*
X675888Y-62690D01*
X640891Y-75212D01*
X605442Y-91978D01*
X571806Y-112139D01*
X540309Y-135499D01*
X511296Y-161794D01*
X511333Y-161831D01*
X511332Y-161835D01*
X511176Y-162068D01*
X495731Y-179680D01*
X482558Y-199395D01*
X472071Y-220660D01*
X464450Y-243113D01*
X459824Y-266368D01*
X459295Y-274447D01*
X448877Y-276876D01*
X448341Y-275948D01*
X446957Y-274369D01*
X445790Y-272623D01*
X439976Y-266809D01*
X438229Y-265642D01*
X436650Y-264257D01*
X429530Y-260146D01*
X427541Y-259471D01*
X425658Y-258542D01*
X420389Y-257130D01*
X420389D01*
X417715Y-256414D01*
X416138Y-256311D01*
X414610Y-255901D01*
X410499Y-255632D01*
X409971Y-255701D01*
X409449Y-255597D01*
X78740D01*
X72566Y-255598D01*
X60456Y-253189D01*
X49048Y-248463D01*
X38782Y-241604D01*
X30050Y-232872D01*
X23190Y-222605D01*
X18465Y-211198D01*
X16056Y-199087D01*
Y-192913D01*
Y-78740D01*
Y-72566D01*
X18465Y-60456D01*
X23190Y-49048D01*
X30050Y-38782D01*
X38781Y-30050D01*
X49048Y-23190D01*
X60456Y-18465D01*
X72566Y-16056D01*
X78740Y-16056D01*
D02*
G37*
G36*
X1334720Y-561713D02*
X1336937Y-567065D01*
X1341986Y-573644D01*
X1348565Y-578693D01*
X1356227Y-581866D01*
X1364449Y-582949D01*
X1372671Y-581866D01*
X1380333Y-578693D01*
X1386912Y-573644D01*
X1391960Y-567065D01*
X1394177Y-561713D01*
X1395472Y-561401D01*
X1403425D01*
X1404720Y-561713D01*
X1406937Y-567065D01*
X1411986Y-573644D01*
X1412742Y-574225D01*
X1411918Y-576216D01*
X1403239Y-587527D01*
X1402508Y-588015D01*
X1372976Y-617547D01*
X1372597Y-618115D01*
X1360214Y-628277D01*
X1345493Y-636145D01*
X1329521Y-640990D01*
X1313579Y-642561D01*
X1312909Y-642427D01*
X1106371D01*
X1104335Y-632191D01*
X1110349Y-629700D01*
X1129280Y-618099D01*
X1141829Y-607381D01*
X1146162Y-603681D01*
X1149189Y-600531D01*
X1149213Y-600506D01*
X1152764Y-596179D01*
X1158216Y-589535D01*
X1162288Y-581917D01*
X1162671Y-581866D01*
X1170333Y-578693D01*
X1176912Y-573644D01*
X1181960Y-567065D01*
X1184177Y-561713D01*
X1185472Y-561401D01*
X1193425D01*
X1194720Y-561713D01*
X1196937Y-567065D01*
X1201986Y-573644D01*
X1208565Y-578693D01*
X1216227Y-581866D01*
X1224449Y-582949D01*
X1232671Y-581866D01*
X1240333Y-578693D01*
X1246912Y-573644D01*
X1251960Y-567065D01*
X1254177Y-561713D01*
X1255472Y-561401D01*
X1263425D01*
X1264720Y-561713D01*
X1266937Y-567065D01*
X1271986Y-573644D01*
X1278565Y-578693D01*
X1286227Y-581866D01*
X1294449Y-582949D01*
X1302671Y-581866D01*
X1310333Y-578693D01*
X1316912Y-573644D01*
X1321960Y-567065D01*
X1324177Y-561713D01*
X1325472Y-561401D01*
X1333425D01*
X1334720Y-561713D01*
D02*
G37*
G36*
X1484342Y-18476D02*
X1502250Y-23274D01*
X1519378Y-30369D01*
X1535432Y-39638D01*
X1550140Y-50924D01*
X1563249Y-64033D01*
X1574535Y-78741D01*
X1583805Y-94796D01*
X1590899Y-111924D01*
X1595697Y-129831D01*
X1598117Y-148211D01*
Y-157480D01*
Y-629921D01*
Y-639191D01*
X1595697Y-657571D01*
X1590899Y-675479D01*
X1583805Y-692606D01*
X1574535Y-708661D01*
X1563250Y-723369D01*
X1550141Y-736478D01*
X1535432Y-747764D01*
X1519378Y-757033D01*
X1502250Y-764128D01*
X1484342Y-768926D01*
X1465963Y-771346D01*
X1422575D01*
Y-736221D01*
X1421576Y-731197D01*
X1418730Y-726939D01*
X1414472Y-724093D01*
X1409449Y-723094D01*
X1251968D01*
X1246945Y-724093D01*
X1242687Y-726939D01*
X1239841Y-731197D01*
X1238842Y-736221D01*
Y-771346D01*
X778132D01*
X759752Y-768926D01*
X741844Y-764128D01*
X724717Y-757033D01*
X708662Y-747764D01*
X693954Y-736478D01*
X680845Y-723369D01*
X669559Y-708661D01*
X660290Y-692606D01*
X653195Y-675478D01*
X648397Y-657571D01*
X645977Y-639191D01*
Y-629921D01*
Y-303150D01*
X645873Y-302627D01*
X645943Y-302100D01*
X645673Y-297989D01*
X645264Y-296461D01*
X645161Y-294883D01*
X643033Y-286941D01*
X652217Y-282476D01*
X653423Y-283888D01*
X665712Y-303942D01*
X674713Y-325671D01*
X680203Y-348542D01*
X681262Y-361994D01*
X681798Y-372009D01*
X681797Y-372011D01*
X681798Y-372013D01*
X681797Y-372039D01*
X681798Y-372092D01*
Y-509760D01*
X681732D01*
X683149Y-527768D01*
X687366Y-545333D01*
X694279Y-562023D01*
X703717Y-577425D01*
X715449Y-591161D01*
X715496Y-591114D01*
X763216Y-638835D01*
X763170Y-638881D01*
X776906Y-650613D01*
X792308Y-660052D01*
X808997Y-666965D01*
X826562Y-671182D01*
X844571Y-672599D01*
Y-672533D01*
X1312909D01*
Y-672599D01*
X1330918Y-671182D01*
X1348483Y-666965D01*
X1365172Y-660052D01*
X1380574Y-650613D01*
X1394310Y-638881D01*
X1394264Y-638835D01*
X1423796Y-609303D01*
X1423891Y-609398D01*
X1434822Y-596078D01*
X1442399Y-581902D01*
X1442671Y-581866D01*
X1450333Y-578693D01*
X1456912Y-573644D01*
X1461960Y-567065D01*
X1465134Y-559403D01*
X1466216Y-551181D01*
Y-543307D01*
X1465134Y-535085D01*
X1461960Y-527423D01*
X1459346Y-524016D01*
X1463468Y-514074D01*
X1463753Y-513779D01*
X1494094D01*
Y-159449D01*
X1431875D01*
X1426827Y-149213D01*
X1428680Y-146798D01*
X1432052Y-138657D01*
X1432425Y-135827D01*
X1399449D01*
Y-125984D01*
X1389607D01*
Y-89902D01*
X1382572Y-92816D01*
X1375582Y-98180D01*
X1370217Y-105171D01*
X1368923Y-108296D01*
X1357843Y-108295D01*
X1356960Y-106163D01*
X1351912Y-99584D01*
X1345333Y-94536D01*
X1337671Y-91362D01*
X1329449Y-90279D01*
X1321227Y-91362D01*
X1318615Y-92444D01*
X1279541Y-53369D01*
X1279575Y-53334D01*
X1265721Y-41502D01*
X1250187Y-31982D01*
X1236451Y-26292D01*
X1238487Y-16056D01*
X1456693D01*
X1465963D01*
X1484342Y-18476D01*
D02*
G37*
G36*
X793839Y-89007D02*
X793841Y-89007D01*
X793869Y-89007D01*
X793943Y-89007D01*
X883955D01*
X887430Y-99243D01*
X886986Y-99584D01*
X881937Y-106163D01*
X878763Y-113825D01*
X877681Y-122047D01*
Y-129921D01*
X878763Y-138143D01*
X881937Y-145805D01*
X884552Y-149213D01*
X880429Y-159154D01*
X880144Y-159449D01*
X781496D01*
Y-513779D01*
X915144D01*
X915429Y-514074D01*
X919552Y-524016D01*
X916937Y-527423D01*
X913763Y-535085D01*
X912681Y-543307D01*
Y-551181D01*
X913763Y-559403D01*
X916937Y-567065D01*
X921986Y-573644D01*
X928565Y-578693D01*
X936227Y-581866D01*
X944449Y-582949D01*
X952671Y-581866D01*
X960333Y-578693D01*
X966912Y-573644D01*
X971960Y-567065D01*
X974177Y-561713D01*
X975472Y-561401D01*
X983425D01*
X984720Y-561713D01*
X986937Y-567065D01*
X991986Y-573644D01*
X998565Y-578693D01*
X1006227Y-581866D01*
X1014449Y-582949D01*
X1022671Y-581866D01*
X1030333Y-578693D01*
X1036912Y-573644D01*
X1041960Y-567065D01*
X1044177Y-561713D01*
X1045472Y-561401D01*
X1053425D01*
X1054720Y-561713D01*
X1056937Y-567065D01*
X1061986Y-573644D01*
X1068565Y-578693D01*
X1076227Y-581866D01*
X1084449Y-582949D01*
X1092671Y-581866D01*
X1100333Y-578693D01*
X1106912Y-573644D01*
X1111960Y-567065D01*
X1113108Y-564295D01*
X1123634Y-563311D01*
X1128563Y-569510D01*
X1127922Y-578615D01*
X1125585Y-581473D01*
X1124770Y-582288D01*
X1124500Y-582693D01*
X1111575Y-593731D01*
X1096675Y-602863D01*
X1080529Y-609550D01*
X1063536Y-613630D01*
X1046591Y-614963D01*
X1046118Y-614869D01*
X1046062Y-614868D01*
X1046048Y-614871D01*
X1046035Y-614868D01*
X857366D01*
X856697Y-615002D01*
X840755Y-613432D01*
X824782Y-608586D01*
X810062Y-600718D01*
X797679Y-590556D01*
X797300Y-589988D01*
X764343Y-557031D01*
X763775Y-556652D01*
X753613Y-544269D01*
X745745Y-529548D01*
X740899Y-513576D01*
X739329Y-497634D01*
X739462Y-496964D01*
Y-369840D01*
X739568Y-359604D01*
X739571Y-359561D01*
X738918Y-349596D01*
X737981Y-335299D01*
X733237Y-311452D01*
X725422Y-288428D01*
X714668Y-266621D01*
X701159Y-246404D01*
X685202Y-228208D01*
X685202Y-228208D01*
X685148Y-228167D01*
X685148Y-228167D01*
X670151Y-215359D01*
X653246Y-204999D01*
X634929Y-197412D01*
X615651Y-192784D01*
X605685Y-192000D01*
X595803Y-191144D01*
X595803D01*
X595803Y-191144D01*
X576318Y-193063D01*
X557487Y-198776D01*
X544958Y-205472D01*
X538518Y-197467D01*
X542556Y-193056D01*
X549853Y-185971D01*
X568133Y-169403D01*
X596173Y-148607D01*
X626117Y-130659D01*
X657676Y-115733D01*
X690546Y-103972D01*
X724410Y-95490D01*
X758943Y-90367D01*
X783662Y-89153D01*
X793837Y-89007D01*
X793839Y-89007D01*
D02*
G37*
G36*
X1247590Y-1066835D02*
X1265789Y-1074373D01*
X1282167Y-1085317D01*
X1289132Y-1092282D01*
X1289132Y-1092281D01*
X1348663Y-1151813D01*
X1355628Y-1158778D01*
X1366572Y-1175156D01*
X1374110Y-1193355D01*
X1377953Y-1212675D01*
Y-1222524D01*
Y-1932720D01*
X1372235Y-1934783D01*
X1369953Y-1934971D01*
X1363774Y-1928793D01*
X1355092Y-1925197D01*
X1345695D01*
X1337013Y-1928793D01*
X1330368Y-1935438D01*
X1326772Y-1944120D01*
Y-1953518D01*
X1330368Y-1962200D01*
X1337013Y-1968845D01*
X1345695Y-1972441D01*
X1355092D01*
X1363774Y-1968845D01*
X1369953Y-1962666D01*
X1372235Y-1962855D01*
X1377953Y-1964918D01*
Y-2122047D01*
X1369317D01*
X1360635Y-2125644D01*
X1353990Y-2132289D01*
X1350394Y-2140971D01*
Y-2150368D01*
X1353990Y-2159050D01*
X1360635Y-2165695D01*
X1369317Y-2169291D01*
X1371643D01*
X1377130Y-2177291D01*
X1374110Y-2192472D01*
X1366572Y-2210671D01*
X1355628Y-2227049D01*
X1348663Y-2234014D01*
X1348663D01*
X1348663Y-2234014D01*
X1289132Y-2293545D01*
X1282167Y-2300510D01*
X1265789Y-2311454D01*
X1247590Y-2318992D01*
X1228270Y-2322835D01*
X1221464D01*
X1220813Y-2321265D01*
X1214168Y-2314620D01*
X1205486Y-2311024D01*
X1196089D01*
X1187407Y-2314620D01*
X1180762Y-2321265D01*
X1180111Y-2322835D01*
X1142723D01*
X1142073Y-2321265D01*
X1135428Y-2314620D01*
X1126746Y-2311024D01*
X1117349D01*
X1108667Y-2314620D01*
X1102022Y-2321265D01*
X1101371Y-2322835D01*
X925246D01*
X905512Y-2303100D01*
X885777Y-2322835D01*
X858344D01*
X839024Y-2318992D01*
X820825Y-2311454D01*
X804447Y-2300510D01*
X779587Y-2275650D01*
X781097Y-2268057D01*
X787742Y-2261412D01*
X791339Y-2252730D01*
Y-2243333D01*
X787742Y-2234651D01*
X781097Y-2228006D01*
X772415Y-2224410D01*
X763018D01*
X754336Y-2228006D01*
X748796Y-2233545D01*
X743264Y-2235531D01*
X740098Y-2236161D01*
X691616Y-2187679D01*
X680673Y-2171301D01*
X673134Y-2153102D01*
X669291Y-2133782D01*
Y-2123933D01*
Y-2015769D01*
X677292Y-2011106D01*
X680118Y-2012708D01*
Y-2013557D01*
X683714Y-2022239D01*
X690359Y-2028884D01*
X699042Y-2032480D01*
X708439D01*
X717121Y-2028884D01*
X723766Y-2022239D01*
X727362Y-2013557D01*
Y-2004160D01*
X723766Y-1995477D01*
X717121Y-1988832D01*
X708439Y-1985236D01*
X699042D01*
X698275Y-1985554D01*
X684785Y-1977287D01*
X669291Y-1970870D01*
Y-1683224D01*
X672467Y-1681102D01*
X681864D01*
X690546Y-1677506D01*
X697191Y-1670861D01*
X700787Y-1662179D01*
Y-1652782D01*
X697191Y-1644100D01*
X690546Y-1637455D01*
X681864Y-1633858D01*
X672467D01*
X669291Y-1631737D01*
Y-1362205D01*
X673990D01*
X682672Y-1358609D01*
X689317Y-1351964D01*
X692913Y-1343281D01*
Y-1333884D01*
X689317Y-1325202D01*
X682672Y-1318557D01*
X673990Y-1314961D01*
X669291D01*
Y-1222524D01*
Y-1212675D01*
X673134Y-1193355D01*
X680673Y-1175156D01*
X691616Y-1158777D01*
X698581Y-1151813D01*
Y-1151813D01*
X728006Y-1122388D01*
X756919Y-1093475D01*
X758273Y-1094829D01*
X766955Y-1098425D01*
X776352D01*
X785034Y-1094829D01*
X791679Y-1088184D01*
X795276Y-1079502D01*
Y-1070104D01*
X802358Y-1066297D01*
X818974Y-1062992D01*
X1090406D01*
X1095751Y-1070992D01*
X1094488Y-1074042D01*
Y-1083439D01*
X1098084Y-1092121D01*
X1104729Y-1098766D01*
X1113412Y-1102362D01*
X1122809D01*
X1131491Y-1098766D01*
X1138136Y-1092121D01*
X1141732Y-1083439D01*
Y-1074042D01*
X1140469Y-1070992D01*
X1145815Y-1062992D01*
X1228270D01*
X1247590Y-1066835D01*
D02*
G37*
%LPC*%
G36*
X3390078Y-984D02*
X3377639D01*
X3365623Y-4204D01*
X3354850Y-10424D01*
X3346054Y-19220D01*
X3339834Y-29993D01*
X3336614Y-42008D01*
Y-54448D01*
X3339834Y-66464D01*
X3346054Y-77237D01*
X3354850Y-86033D01*
X3365623Y-92253D01*
X3377639Y-95472D01*
X3390078D01*
X3402094Y-92253D01*
X3412867Y-86033D01*
X3421663Y-77237D01*
X3427883Y-66464D01*
X3431102Y-54448D01*
Y-42008D01*
X3427883Y-29993D01*
X3421663Y-19220D01*
X3412867Y-10424D01*
X3402094Y-4204D01*
X3390078Y-984D01*
D02*
G37*
G36*
X3232598D02*
X3220158D01*
X3208142Y-4204D01*
X3197369Y-10424D01*
X3188573Y-19220D01*
X3182353Y-29993D01*
X3179134Y-42008D01*
Y-54448D01*
X3182353Y-66464D01*
X3188573Y-77237D01*
X3197369Y-86033D01*
X3208142Y-92253D01*
X3220158Y-95472D01*
X3232598D01*
X3244613Y-92253D01*
X3255387Y-86033D01*
X3264183Y-77237D01*
X3270402Y-66464D01*
X3273622Y-54448D01*
Y-42008D01*
X3270402Y-29993D01*
X3264183Y-19220D01*
X3255387Y-10424D01*
X3244613Y-4204D01*
X3232598Y-984D01*
D02*
G37*
G36*
X3759843Y-149024D02*
X3752162Y-150552D01*
X3745651Y-154902D01*
X3741300Y-161414D01*
X3739772Y-169094D01*
Y-178937D01*
X3741300Y-186618D01*
X3745651Y-193129D01*
X3752162Y-197480D01*
X3759843Y-199008D01*
X3767523Y-197480D01*
X3774035Y-193129D01*
X3778385Y-186618D01*
X3779913Y-178937D01*
Y-169094D01*
X3778385Y-161414D01*
X3774035Y-154902D01*
X3767523Y-150552D01*
X3759843Y-149024D01*
D02*
G37*
G36*
X3665333Y-181102D02*
X3657502D01*
X3650267Y-184099D01*
X3644729Y-189637D01*
X3641732Y-196872D01*
Y-204703D01*
X3644729Y-211938D01*
X3650267Y-217476D01*
X3657502Y-220472D01*
X3665333D01*
X3672568Y-217476D01*
X3678106Y-211938D01*
X3681102Y-204703D01*
Y-196872D01*
X3678106Y-189637D01*
X3672568Y-184099D01*
X3665333Y-181102D01*
D02*
G37*
G36*
X2890526Y-177165D02*
X2881128D01*
X2872446Y-180762D01*
X2865801Y-187407D01*
X2862205Y-196089D01*
Y-205486D01*
X2865801Y-214168D01*
X2872446Y-220813D01*
X2881128Y-224409D01*
X2890526D01*
X2899208Y-220813D01*
X2905853Y-214168D01*
X2909449Y-205486D01*
Y-196089D01*
X2905853Y-187407D01*
X2899208Y-180762D01*
X2890526Y-177165D01*
D02*
G37*
G36*
X2133458Y-130211D02*
X2121019D01*
X2109003Y-133431D01*
X2098230Y-139650D01*
X2089434Y-148446D01*
X2083214Y-159220D01*
X2079994Y-171235D01*
Y-183675D01*
X2083214Y-195691D01*
X2089434Y-206464D01*
X2098230Y-215260D01*
X2109003Y-221480D01*
X2121018Y-224699D01*
X2133458D01*
X2145474Y-221480D01*
X2156247Y-215260D01*
X2165043Y-206464D01*
X2171263Y-195691D01*
X2174482Y-183675D01*
Y-171235D01*
X2171263Y-159220D01*
X2165043Y-148446D01*
X2156247Y-139650D01*
X2145474Y-133431D01*
X2133458Y-130211D01*
D02*
G37*
G36*
X3331470Y-181102D02*
X3322073D01*
X3313391Y-184699D01*
X3306746Y-191344D01*
X3303150Y-200026D01*
Y-209423D01*
X3306746Y-218105D01*
X3313391Y-224750D01*
X3322073Y-228346D01*
X3331470D01*
X3340153Y-224750D01*
X3346798Y-218105D01*
X3350394Y-209423D01*
Y-200026D01*
X3346798Y-191344D01*
X3340153Y-184699D01*
X3331470Y-181102D01*
D02*
G37*
G36*
X1981344Y-170970D02*
X1968904D01*
X1956888Y-174190D01*
X1946115Y-180409D01*
X1937319Y-189206D01*
X1931099Y-199978D01*
X1927880Y-211994D01*
Y-224434D01*
X1931099Y-236450D01*
X1937319Y-247223D01*
X1946115Y-256019D01*
X1956888Y-262239D01*
X1968904Y-265458D01*
X1981344D01*
X1993359Y-262239D01*
X2004132Y-256019D01*
X2012929Y-247223D01*
X2019148Y-236450D01*
X2022368Y-224434D01*
Y-211994D01*
X2019148Y-199979D01*
X2012929Y-189206D01*
X2004132Y-180409D01*
X1993360Y-174190D01*
X1981344Y-170970D01*
D02*
G37*
G36*
X2902336Y-322835D02*
X2892939D01*
X2884257Y-326431D01*
X2877612Y-333076D01*
X2874016Y-341758D01*
Y-351155D01*
X2877612Y-359837D01*
X2884257Y-366483D01*
X2892939Y-370079D01*
X2902336D01*
X2911019Y-366483D01*
X2917664Y-359837D01*
X2921260Y-351155D01*
Y-341758D01*
X2917664Y-333076D01*
X2911019Y-326431D01*
X2902336Y-322835D01*
D02*
G37*
G36*
X3763758Y-390551D02*
X3755927D01*
X3748692Y-393548D01*
X3743154Y-399085D01*
X3740158Y-406320D01*
Y-414152D01*
X3743154Y-421387D01*
X3748692Y-426924D01*
X3755927Y-429921D01*
X3763758D01*
X3770993Y-426924D01*
X3776531Y-421387D01*
X3779528Y-414152D01*
Y-406320D01*
X3776531Y-399085D01*
X3770993Y-393548D01*
X3763758Y-390551D01*
D02*
G37*
G36*
X3296070Y-430767D02*
X3283678Y-431851D01*
X3271989Y-436106D01*
X3261799Y-443241D01*
X3253803Y-452770D01*
X3248546Y-464044D01*
X3246385Y-476295D01*
X3247470Y-488687D01*
X3251724Y-500377D01*
X3258859Y-510567D01*
X3268389Y-518563D01*
X3279663Y-523820D01*
X3291913Y-525980D01*
X3304305Y-524896D01*
X3315995Y-520641D01*
X3326185Y-513506D01*
X3334181Y-503977D01*
X3339438Y-492703D01*
X3341598Y-480452D01*
X3340514Y-468060D01*
X3336259Y-456370D01*
X3329124Y-446180D01*
X3319595Y-438185D01*
X3308321Y-432927D01*
X3296070Y-430767D01*
D02*
G37*
G36*
X3139189Y-444493D02*
X3126797Y-445577D01*
X3115107Y-449831D01*
X3104918Y-456966D01*
X3096921Y-466496D01*
X3091664Y-477770D01*
X3089504Y-490021D01*
X3090588Y-502413D01*
X3094843Y-514102D01*
X3101978Y-524292D01*
X3111507Y-532288D01*
X3122781Y-537545D01*
X3135032Y-539705D01*
X3147424Y-538621D01*
X3159114Y-534367D01*
X3169304Y-527232D01*
X3177300Y-517702D01*
X3182557Y-506428D01*
X3184717Y-494178D01*
X3183633Y-481785D01*
X3179378Y-470096D01*
X3172243Y-459906D01*
X3162714Y-451910D01*
X3151440Y-446653D01*
X3139189Y-444493D01*
D02*
G37*
G36*
X2898399Y-523622D02*
X2889002D01*
X2880320Y-527218D01*
X2873675Y-533863D01*
X2870079Y-542545D01*
Y-551943D01*
X2873675Y-560625D01*
X2880320Y-567270D01*
X2889002Y-570866D01*
X2894615D01*
X2943609Y-619860D01*
X2943574Y-619895D01*
X2957428Y-631727D01*
X2972962Y-641246D01*
X2989795Y-648219D01*
X3007510Y-652472D01*
X3025673Y-653901D01*
Y-653852D01*
X3218870D01*
X3222840Y-657821D01*
X3231522Y-661417D01*
X3240919D01*
X3249601Y-657821D01*
X3256246Y-651176D01*
X3259843Y-642494D01*
Y-633097D01*
X3256246Y-624414D01*
X3249601Y-617769D01*
X3240919Y-614173D01*
X3231522D01*
X3222840Y-617769D01*
X3218870Y-621739D01*
X3025673D01*
X3024955Y-621882D01*
X3009255Y-620335D01*
X2993468Y-615546D01*
X2978918Y-607769D01*
X2966723Y-597761D01*
X2966316Y-597152D01*
X2917323Y-548159D01*
Y-542545D01*
X2913727Y-533863D01*
X2907082Y-527218D01*
X2898399Y-523622D01*
D02*
G37*
G36*
X2646431Y-594488D02*
X2637034D01*
X2628352Y-598084D01*
X2621706Y-604729D01*
X2618110Y-613412D01*
Y-622809D01*
X2621706Y-631491D01*
X2628352Y-638136D01*
X2637034Y-641732D01*
X2646431D01*
X2655113Y-638136D01*
X2659082Y-634167D01*
X2801098D01*
X2801817Y-634024D01*
X2817517Y-635570D01*
X2833304Y-640359D01*
X2847853Y-648136D01*
X2860048Y-658144D01*
X2860455Y-658753D01*
X2885827Y-684125D01*
Y-689738D01*
X2889423Y-698420D01*
X2896068Y-705065D01*
X2904750Y-708661D01*
X2914148D01*
X2922830Y-705065D01*
X2929475Y-698420D01*
X2933071Y-689738D01*
Y-680341D01*
X2929475Y-671659D01*
X2922830Y-665014D01*
X2914148Y-661417D01*
X2908534D01*
X2883163Y-636046D01*
X2883198Y-636011D01*
X2869343Y-624179D01*
X2853809Y-614659D01*
X2836977Y-607687D01*
X2819261Y-603434D01*
X2801098Y-602004D01*
Y-602054D01*
X2659082D01*
X2655113Y-598084D01*
X2646431Y-594488D01*
D02*
G37*
G36*
X3386495Y-731977D02*
X3385448Y-732138D01*
X3384395Y-732023D01*
X3376683Y-732698D01*
X2474617Y-811618D01*
X2474617Y-811618D01*
X2466905Y-812293D01*
X2465888Y-812589D01*
X2464829Y-812612D01*
X2449714Y-815964D01*
X2448744Y-816390D01*
X2447697Y-816551D01*
X2433148Y-821847D01*
X2432243Y-822396D01*
X2431226Y-822693D01*
X2417492Y-829842D01*
X2416666Y-830505D01*
X2415697Y-830931D01*
X2403014Y-839812D01*
X2402282Y-840577D01*
X2401376Y-841126D01*
X2389961Y-851586D01*
X2389335Y-852440D01*
X2388509Y-853104D01*
X2378557Y-864964D01*
X2378047Y-865893D01*
X2377315Y-866658D01*
X2368996Y-879716D01*
X2368612Y-880703D01*
X2367986Y-881557D01*
X2361443Y-895589D01*
X2361191Y-896618D01*
X2360681Y-897547D01*
X2356026Y-912313D01*
X2355910Y-913366D01*
X2355526Y-914353D01*
X2352838Y-929600D01*
X2352861Y-930660D01*
X2352609Y-931688D01*
X2351934Y-947156D01*
X2352095Y-948203D01*
X2351980Y-949256D01*
X2352654Y-956968D01*
X2386968Y-1349170D01*
X2387642Y-1356882D01*
X2387939Y-1357899D01*
X2387962Y-1358958D01*
X2391313Y-1374074D01*
X2391739Y-1375043D01*
X2391901Y-1376090D01*
X2397196Y-1390639D01*
X2397745Y-1391545D01*
X2398042Y-1392562D01*
X2405191Y-1406295D01*
X2405854Y-1407121D01*
X2406281Y-1408091D01*
X2415161Y-1420773D01*
X2415926Y-1421506D01*
X2416476Y-1422411D01*
X2426936Y-1433826D01*
X2427790Y-1434453D01*
X2428453Y-1435279D01*
X2440313Y-1445231D01*
X2441242Y-1445740D01*
X2442007Y-1446473D01*
X2455065Y-1454792D01*
X2456052Y-1455175D01*
X2456906Y-1455802D01*
X2470939Y-1462345D01*
X2471967Y-1462597D01*
X2472896Y-1463106D01*
X2487662Y-1467762D01*
X2488715Y-1467877D01*
X2489702Y-1468261D01*
X2504950Y-1470950D01*
X2506009Y-1470927D01*
X2507038Y-1471178D01*
X2522506Y-1471854D01*
X2523552Y-1471693D01*
X2524605Y-1471808D01*
X2532317Y-1471133D01*
X3434383Y-1392213D01*
X3442095Y-1391538D01*
X3443112Y-1391242D01*
X3444171Y-1391218D01*
X3459287Y-1387867D01*
X3460256Y-1387441D01*
X3461303Y-1387280D01*
X3475852Y-1381984D01*
X3476758Y-1381435D01*
X3477774Y-1381138D01*
X3491508Y-1373989D01*
X3492334Y-1373326D01*
X3493303Y-1372900D01*
X3505986Y-1364019D01*
X3506718Y-1363254D01*
X3507624Y-1362705D01*
X3519039Y-1352245D01*
X3519665Y-1351391D01*
X3520492Y-1350727D01*
X3530444Y-1338867D01*
X3530953Y-1337938D01*
X3531686Y-1337173D01*
X3540004Y-1324115D01*
X3540388Y-1323128D01*
X3541015Y-1322274D01*
X3547558Y-1308242D01*
X3547809Y-1307213D01*
X3548319Y-1306284D01*
X3552975Y-1291518D01*
X3553090Y-1290465D01*
X3553474Y-1289478D01*
X3556163Y-1274231D01*
X3556140Y-1273171D01*
X3556391Y-1272143D01*
X3557066Y-1256675D01*
X3556905Y-1255628D01*
X3557021Y-1254575D01*
X3556346Y-1246863D01*
X3522033Y-854660D01*
X3522033Y-854660D01*
X3521358Y-846949D01*
X3521062Y-845932D01*
X3521039Y-844873D01*
X3517687Y-829757D01*
X3517261Y-828788D01*
X3517100Y-827741D01*
X3511804Y-813192D01*
X3511255Y-812286D01*
X3510958Y-811269D01*
X3503809Y-797536D01*
X3503146Y-796710D01*
X3502720Y-795740D01*
X3493839Y-783058D01*
X3493074Y-782325D01*
X3492525Y-781420D01*
X3482065Y-770005D01*
X3481211Y-769378D01*
X3480548Y-768552D01*
X3468687Y-758600D01*
X3467758Y-758091D01*
X3466993Y-757358D01*
X3453935Y-749039D01*
X3452948Y-748655D01*
X3452094Y-748029D01*
X3438062Y-741486D01*
X3437033Y-741234D01*
X3436104Y-740725D01*
X3421338Y-736069D01*
X3420285Y-735954D01*
X3419298Y-735570D01*
X3404051Y-732881D01*
X3402991Y-732904D01*
X3401963Y-732653D01*
X3386495Y-731977D01*
D02*
G37*
G36*
X3801092Y-712598D02*
X3789459D01*
X3778050Y-714868D01*
X3767303Y-719320D01*
X3757630Y-725782D01*
X3749405Y-734008D01*
X3742942Y-743680D01*
X3738490Y-754428D01*
X3736221Y-765837D01*
Y-777470D01*
X3738490Y-788879D01*
X3742942Y-799627D01*
X3749405Y-809299D01*
X3757630Y-817525D01*
X3767303Y-823987D01*
X3778050Y-828439D01*
X3789459Y-830709D01*
X3801092D01*
X3812501Y-828439D01*
X3823249Y-823987D01*
X3832921Y-817525D01*
X3841147Y-809299D01*
X3847610Y-799627D01*
X3852061Y-788879D01*
X3854331Y-777470D01*
Y-765837D01*
X3852061Y-754428D01*
X3847610Y-743680D01*
X3841147Y-734008D01*
X3832921Y-725782D01*
X3823249Y-719320D01*
X3812501Y-714868D01*
X3801092Y-712598D01*
D02*
G37*
G36*
X1859029Y-362205D02*
X1849632D01*
X1840950Y-365801D01*
X1834305Y-372446D01*
X1830709Y-381128D01*
Y-390526D01*
X1834305Y-399208D01*
X1838274Y-403177D01*
Y-537459D01*
X1838116D01*
X1839977Y-556357D01*
X1845490Y-574528D01*
X1854441Y-591275D01*
X1866487Y-605953D01*
X1866599Y-605842D01*
X1876680Y-615923D01*
X1877289Y-616330D01*
X1887297Y-628524D01*
X1895074Y-643074D01*
X1899863Y-658861D01*
X1901409Y-674561D01*
X1901266Y-675280D01*
Y-797611D01*
X1897297Y-801580D01*
X1893701Y-810262D01*
Y-819659D01*
X1897297Y-828341D01*
X1901491Y-832535D01*
X1898749Y-842896D01*
X1898641Y-843060D01*
X1885072Y-844247D01*
X1883553Y-844690D01*
X1881978Y-844828D01*
X1862620Y-850470D01*
X1861217Y-851200D01*
X1859699Y-851643D01*
X1841813Y-860953D01*
X1840580Y-861943D01*
X1839177Y-862673D01*
X1823452Y-875294D01*
X1822436Y-876506D01*
X1821202Y-877495D01*
X1814722Y-885218D01*
X1814722Y-885218D01*
X1665818Y-1062676D01*
X1660061Y-1069536D01*
X1659384Y-1070770D01*
X1658456Y-1071829D01*
X1649500Y-1087340D01*
X1649048Y-1088673D01*
X1648317Y-1089877D01*
X1642191Y-1106708D01*
X1641977Y-1108099D01*
X1641467Y-1109411D01*
X1638357Y-1127050D01*
X1638388Y-1128457D01*
X1638113Y-1129838D01*
Y-1138794D01*
Y-1360043D01*
Y-1367126D01*
X1638331Y-1368222D01*
X1638266Y-1369338D01*
X1640217Y-1383369D01*
X1640584Y-1384425D01*
X1640673Y-1385538D01*
X1644538Y-1399167D01*
X1645047Y-1400162D01*
X1645289Y-1401253D01*
X1650994Y-1414219D01*
X1651635Y-1415135D01*
X1652025Y-1416182D01*
X1659462Y-1428239D01*
X1660223Y-1429057D01*
X1660753Y-1430041D01*
X1669780Y-1440959D01*
X1670646Y-1441664D01*
X1671307Y-1442565D01*
X1681751Y-1452136D01*
X1682707Y-1452716D01*
X1683485Y-1453517D01*
X1695148Y-1461558D01*
X1696174Y-1462001D01*
X1697056Y-1462687D01*
X1709715Y-1469045D01*
X1710792Y-1469342D01*
X1711760Y-1469901D01*
X1725174Y-1474454D01*
X1726283Y-1474600D01*
X1727318Y-1475020D01*
X1741231Y-1477683D01*
X1742349Y-1477675D01*
X1743432Y-1477948D01*
X1757580Y-1478669D01*
X1758686Y-1478507D01*
X1759796Y-1478629D01*
X1766853Y-1478011D01*
X1946966Y-1462254D01*
X1954248Y-1461616D01*
X1955208Y-1461336D01*
X1956209Y-1461322D01*
X1970504Y-1458262D01*
X1971423Y-1457865D01*
X1972415Y-1457728D01*
X1986223Y-1452928D01*
X1987086Y-1452421D01*
X1988053Y-1452162D01*
X2001165Y-1445697D01*
X2001958Y-1445088D01*
X2002886Y-1444712D01*
X2015100Y-1436679D01*
X2015813Y-1435977D01*
X2016687Y-1435489D01*
X2027818Y-1426012D01*
X2028439Y-1425226D01*
X2029246Y-1424635D01*
X2039123Y-1413857D01*
X2039642Y-1413002D01*
X2040370Y-1412315D01*
X2048843Y-1400402D01*
X2049253Y-1399489D01*
X2049891Y-1398717D01*
X2056830Y-1385851D01*
X2057124Y-1384894D01*
X2057662Y-1384050D01*
X2062962Y-1370426D01*
X2063136Y-1369440D01*
X2063565Y-1368536D01*
X2067145Y-1354362D01*
X2067196Y-1353363D01*
X2067511Y-1352412D01*
X2069315Y-1337905D01*
X2069243Y-1336907D01*
X2069438Y-1335926D01*
X2069439Y-1328628D01*
X2069439Y-1328627D01*
X2069734Y-979196D01*
X2070034Y-971137D01*
X2069852Y-970010D01*
X2069958Y-968873D01*
X2068221Y-952250D01*
X2067883Y-951159D01*
X2067827Y-950018D01*
X2063767Y-933805D01*
X2063279Y-932773D01*
X2063063Y-931651D01*
X2056761Y-916171D01*
X2056132Y-915218D01*
X2055760Y-914138D01*
X2047341Y-899700D01*
X2046585Y-898844D01*
X2046065Y-897827D01*
X2035697Y-884719D01*
X2034827Y-883978D01*
X2034169Y-883045D01*
X2022059Y-871526D01*
X2021093Y-870916D01*
X2020310Y-870084D01*
X2006699Y-860385D01*
X2005657Y-859917D01*
X2004765Y-859204D01*
X1989923Y-851518D01*
X1988826Y-851201D01*
X1987842Y-850621D01*
X1972066Y-845102D01*
X1970936Y-844942D01*
X1969880Y-844506D01*
X1953484Y-841263D01*
X1952342Y-841264D01*
X1951235Y-840981D01*
X1939803Y-840363D01*
X1935794Y-829896D01*
X1937349Y-828341D01*
X1940945Y-819659D01*
Y-810262D01*
X1937349Y-801580D01*
X1933379Y-797611D01*
Y-675280D01*
X1933429D01*
X1931999Y-657117D01*
X1927746Y-639401D01*
X1920774Y-622569D01*
X1911255Y-607034D01*
X1899422Y-593180D01*
X1899387Y-593215D01*
X1889306Y-583135D01*
X1888964Y-582906D01*
X1881174Y-573413D01*
X1875193Y-562225D01*
X1871511Y-550085D01*
X1870307Y-537863D01*
X1870387Y-537459D01*
Y-403177D01*
X1874357Y-399208D01*
X1877953Y-390526D01*
Y-381128D01*
X1874357Y-372446D01*
X1867711Y-365801D01*
X1859029Y-362205D01*
D02*
G37*
G36*
X3289180Y-1595137D02*
X3276788Y-1596221D01*
X3265099Y-1600476D01*
X3254909Y-1607611D01*
X3246913Y-1617140D01*
X3241656Y-1628414D01*
X3239496Y-1640665D01*
X3240580Y-1653057D01*
X3244834Y-1664747D01*
X3251969Y-1674937D01*
X3261499Y-1682933D01*
X3272773Y-1688190D01*
X3285023Y-1690350D01*
X3297416Y-1689266D01*
X3309105Y-1685011D01*
X3319295Y-1677876D01*
X3327291Y-1668347D01*
X3332548Y-1657073D01*
X3334708Y-1644822D01*
X3333624Y-1632430D01*
X3329370Y-1620740D01*
X3322235Y-1610551D01*
X3312705Y-1602554D01*
X3301431Y-1597297D01*
X3289180Y-1595137D01*
D02*
G37*
G36*
X3132299Y-1608863D02*
X3119907Y-1609947D01*
X3108218Y-1614201D01*
X3098028Y-1621336D01*
X3090032Y-1630866D01*
X3084774Y-1642140D01*
X3082614Y-1654390D01*
X3083699Y-1666783D01*
X3087953Y-1678472D01*
X3095088Y-1688662D01*
X3104617Y-1696658D01*
X3115892Y-1701915D01*
X3128142Y-1704075D01*
X3140535Y-1702991D01*
X3152224Y-1698737D01*
X3162414Y-1691602D01*
X3170410Y-1682072D01*
X3175667Y-1670798D01*
X3177827Y-1658547D01*
X3176743Y-1646155D01*
X3172488Y-1634466D01*
X3165353Y-1624276D01*
X3155824Y-1616280D01*
X3144550Y-1611023D01*
X3132299Y-1608863D01*
D02*
G37*
G36*
X2801976Y-1637460D02*
X2789584Y-1638544D01*
X2777894Y-1642799D01*
X2767704Y-1649934D01*
X2759708Y-1659463D01*
X2754451Y-1670737D01*
X2752291Y-1682988D01*
X2753375Y-1695380D01*
X2757630Y-1707070D01*
X2764765Y-1717259D01*
X2774294Y-1725255D01*
X2785568Y-1730513D01*
X2797819Y-1732673D01*
X2810211Y-1731589D01*
X2821901Y-1727334D01*
X2832090Y-1720199D01*
X2840086Y-1710670D01*
X2845344Y-1699396D01*
X2847504Y-1687145D01*
X2846419Y-1674753D01*
X2842165Y-1663063D01*
X2835030Y-1652873D01*
X2825501Y-1644877D01*
X2814227Y-1639620D01*
X2801976Y-1637460D01*
D02*
G37*
G36*
X2645095Y-1651185D02*
X2632702Y-1652270D01*
X2621013Y-1656524D01*
X2610823Y-1663659D01*
X2602827Y-1673188D01*
X2597570Y-1684463D01*
X2595410Y-1696713D01*
X2596494Y-1709105D01*
X2600749Y-1720795D01*
X2607883Y-1730985D01*
X2617413Y-1738981D01*
X2628687Y-1744238D01*
X2640938Y-1746398D01*
X2653330Y-1745314D01*
X2665019Y-1741059D01*
X2675209Y-1733924D01*
X2683205Y-1724395D01*
X2688462Y-1713121D01*
X2690622Y-1700870D01*
X2689538Y-1688478D01*
X2685284Y-1676789D01*
X2678149Y-1666599D01*
X2668619Y-1658603D01*
X2657345Y-1653345D01*
X2645095Y-1651185D01*
D02*
G37*
G36*
X3596368Y-1641732D02*
X3584735D01*
X3573325Y-1644002D01*
X3562578Y-1648454D01*
X3552906Y-1654916D01*
X3544680Y-1663142D01*
X3538217Y-1672814D01*
X3533766Y-1683562D01*
X3531496Y-1694971D01*
Y-1706604D01*
X3533766Y-1718013D01*
X3538217Y-1728761D01*
X3544680Y-1738433D01*
X3552906Y-1746659D01*
X3562578Y-1753121D01*
X3573325Y-1757573D01*
X3584735Y-1759842D01*
X3596368D01*
X3607777Y-1757573D01*
X3618524Y-1753121D01*
X3628197Y-1746659D01*
X3636422Y-1738433D01*
X3642885Y-1728761D01*
X3647337Y-1718013D01*
X3649606Y-1706604D01*
Y-1694971D01*
X3647337Y-1683562D01*
X3642885Y-1672814D01*
X3636422Y-1663142D01*
X3628197Y-1654916D01*
X3618524Y-1648454D01*
X3607777Y-1644002D01*
X3596368Y-1641732D01*
D02*
G37*
G36*
X1433833Y-1744094D02*
X1424435D01*
X1415753Y-1747691D01*
X1409108Y-1754336D01*
X1405512Y-1763018D01*
Y-1772415D01*
X1409108Y-1781097D01*
X1415753Y-1787742D01*
X1424435Y-1791339D01*
X1430049D01*
X1479042Y-1840332D01*
X1479007Y-1840367D01*
X1492861Y-1852199D01*
X1508396Y-1861719D01*
X1525228Y-1868691D01*
X1542944Y-1872944D01*
X1561107Y-1874374D01*
Y-1874324D01*
X1982650D01*
X1986619Y-1878293D01*
X1995301Y-1881890D01*
X2004699D01*
X2013381Y-1878293D01*
X2020026Y-1871649D01*
X2023622Y-1862966D01*
Y-1853569D01*
X2020026Y-1844887D01*
X2013381Y-1838242D01*
X2004699Y-1834646D01*
X1995301D01*
X1986619Y-1838242D01*
X1982650Y-1842211D01*
X1561107D01*
X1560388Y-1842354D01*
X1544688Y-1840808D01*
X1528901Y-1836019D01*
X1514351Y-1828242D01*
X1502157Y-1818234D01*
X1501749Y-1817625D01*
X1452756Y-1768631D01*
Y-1763018D01*
X1449160Y-1754336D01*
X1442515Y-1747691D01*
X1433833Y-1744094D01*
D02*
G37*
G36*
X181864Y-1905512D02*
X172467D01*
X163785Y-1909108D01*
X157140Y-1915753D01*
X153543Y-1924435D01*
Y-1933833D01*
X157140Y-1942515D01*
X163785Y-1949160D01*
X172467Y-1952756D01*
X181864D01*
X190546Y-1949160D01*
X197191Y-1942515D01*
X200787Y-1933833D01*
Y-1924435D01*
X197191Y-1915753D01*
X190546Y-1909108D01*
X181864Y-1905512D01*
D02*
G37*
G36*
X2138557Y-413386D02*
X2129160D01*
X2120477Y-416982D01*
X2113832Y-423627D01*
X2110236Y-432309D01*
Y-441707D01*
X2113832Y-450389D01*
X2117802Y-454358D01*
Y-753854D01*
X2117752D01*
X2119182Y-772017D01*
X2123435Y-789733D01*
X2130407Y-806565D01*
X2139927Y-822100D01*
X2151759Y-835953D01*
X2151794Y-835919D01*
X2166378Y-850502D01*
X2166385Y-850509D01*
X2166385Y-850510D01*
X2166678Y-850705D01*
X2172164Y-857855D01*
X2175749Y-866511D01*
X2176925Y-875437D01*
X2176857Y-875773D01*
X2176857Y-875829D01*
X2176860Y-875844D01*
X2176857Y-875858D01*
X2176857Y-1324366D01*
X2176857Y-1334600D01*
X2176857Y-1334602D01*
X2176259Y-1344591D01*
X2175531Y-1353841D01*
X2171031Y-1372588D01*
X2163652Y-1390401D01*
X2153579Y-1406840D01*
X2147533Y-1413918D01*
X2140891Y-1421403D01*
X2140885Y-1421407D01*
X2140885Y-1421407D01*
X2133652Y-1428640D01*
X1923405Y-1638888D01*
X1922945Y-1639575D01*
X1897979Y-1662203D01*
X1869565Y-1683277D01*
X1839222Y-1701464D01*
X1807242Y-1716589D01*
X1773934Y-1728506D01*
X1739618Y-1737102D01*
X1704625Y-1742293D01*
X1686061Y-1743205D01*
X1682672Y-1739817D01*
X1673990Y-1736220D01*
X1664593D01*
X1655911Y-1739817D01*
X1651968Y-1743759D01*
X1641732Y-1739936D01*
Y-1739396D01*
X1638136Y-1730714D01*
X1631491Y-1724069D01*
X1622809Y-1720473D01*
X1613412D01*
X1604729Y-1724069D01*
X1598084Y-1730714D01*
X1594488Y-1739396D01*
Y-1748793D01*
X1598084Y-1757475D01*
X1604729Y-1764120D01*
X1613412Y-1767716D01*
X1622809D01*
X1631491Y-1764120D01*
X1635433Y-1760178D01*
X1645669Y-1764001D01*
Y-1764541D01*
X1649266Y-1773223D01*
X1655911Y-1779868D01*
X1658145Y-1780794D01*
X1656109Y-1791030D01*
X1613243D01*
X1612550Y-1791168D01*
X1593773Y-1789690D01*
X1574782Y-1785131D01*
X1556739Y-1777657D01*
X1540086Y-1767453D01*
X1525764Y-1755220D01*
X1525371Y-1754633D01*
X1500000Y-1729261D01*
Y-1723648D01*
X1496404Y-1714966D01*
X1489759Y-1708321D01*
X1481077Y-1704725D01*
X1471679D01*
X1462997Y-1708321D01*
X1456352Y-1714966D01*
X1452756Y-1723648D01*
Y-1733045D01*
X1456352Y-1741727D01*
X1462997Y-1748372D01*
X1471679Y-1751968D01*
X1477293D01*
X1495426Y-1770102D01*
X1502541Y-1777463D01*
X1502541Y-1777463D01*
X1521222Y-1793418D01*
X1542168Y-1806254D01*
X1564864Y-1815655D01*
X1588752Y-1821390D01*
X1613243Y-1823317D01*
Y-1823143D01*
X1613243Y-1823143D01*
X1690327D01*
X1690873Y-1823035D01*
X1698550Y-1822024D01*
X1706097Y-1818898D01*
X1713360D01*
X1722042Y-1815301D01*
X1728687Y-1808656D01*
X1732283Y-1799974D01*
Y-1790577D01*
X1728687Y-1781895D01*
X1728272Y-1781480D01*
X1731867Y-1770598D01*
X1745868Y-1768521D01*
X1783234Y-1759162D01*
X1819502Y-1746185D01*
X1854323Y-1729716D01*
X1887363Y-1709912D01*
X1918302Y-1686966D01*
X1946171Y-1661707D01*
X1946107Y-1661643D01*
X1946112Y-1661595D01*
X2163472Y-1444235D01*
X2163704D01*
X2163704Y-1444235D01*
X2163752Y-1444195D01*
X2170215Y-1436628D01*
X2179544Y-1425705D01*
X2192249Y-1404971D01*
X2201555Y-1382506D01*
X2207231Y-1358862D01*
X2208355Y-1344577D01*
X2209139Y-1334620D01*
X2209137Y-1334597D01*
X2208970Y-1324430D01*
X2208970Y-885418D01*
X2208989Y-875802D01*
X2208989Y-875801D01*
X2208988Y-875801D01*
X2207684Y-862553D01*
X2203819Y-849813D01*
X2197544Y-838073D01*
X2189098Y-827782D01*
X2189085Y-827795D01*
X2189085Y-827795D01*
X2174501Y-813211D01*
X2173892Y-812804D01*
X2163884Y-800609D01*
X2156107Y-786060D01*
X2151318Y-770273D01*
X2149772Y-754573D01*
X2149915Y-753854D01*
Y-633703D01*
X2160151Y-628081D01*
X2164593Y-629921D01*
X2167368D01*
X2230376Y-692930D01*
X2230838Y-693239D01*
X2236716Y-700899D01*
X2240627Y-710340D01*
X2241888Y-719922D01*
X2241779Y-720472D01*
Y-1838303D01*
X2241851Y-1838666D01*
X2243089Y-1848067D01*
X2246857Y-1857165D01*
X2252629Y-1864687D01*
X2252835Y-1864995D01*
X2259843Y-1872003D01*
Y-1874777D01*
X2263439Y-1883459D01*
X2270084Y-1890104D01*
X2278766Y-1893701D01*
X2288163D01*
X2290521Y-1892724D01*
X2300757Y-1899564D01*
Y-1987636D01*
X2299213Y-1991364D01*
Y-2000762D01*
X2302809Y-2009444D01*
X2309454Y-2016089D01*
X2318136Y-2019685D01*
X2327533D01*
X2336215Y-2016089D01*
X2342860Y-2009444D01*
X2346457Y-2000762D01*
Y-1991364D01*
X2344912Y-1987636D01*
Y-1856917D01*
X2344803Y-1856365D01*
X2343417Y-1838755D01*
X2339164Y-1821039D01*
X2332192Y-1804207D01*
X2322672Y-1788673D01*
X2318466Y-1783389D01*
X2317243Y-1780436D01*
X2317353Y-1779883D01*
Y-631973D01*
X2317152Y-630961D01*
X2318555Y-616712D01*
X2323007Y-602038D01*
X2330235Y-588514D01*
X2339318Y-577446D01*
X2340176Y-576873D01*
X2340361Y-576688D01*
X2344090Y-575144D01*
X2350735Y-568499D01*
X2354331Y-559817D01*
Y-550419D01*
X2350735Y-541737D01*
X2344090Y-535092D01*
X2335407Y-531496D01*
X2326010D01*
X2317328Y-535092D01*
X2310683Y-541737D01*
X2309139Y-545466D01*
X2308954Y-545651D01*
X2308727Y-545990D01*
X2296552Y-560245D01*
X2286546Y-576572D01*
X2279218Y-594263D01*
X2274748Y-612883D01*
X2273277Y-631573D01*
X2273198Y-631973D01*
Y-672325D01*
X2262962Y-675941D01*
X2255922Y-667364D01*
X2255912Y-667374D01*
X2255912Y-667374D01*
X2192913Y-604375D01*
Y-601601D01*
X2189317Y-592918D01*
X2182672Y-586273D01*
X2173990Y-582677D01*
X2164593D01*
X2160151Y-584517D01*
X2149915Y-578895D01*
Y-454358D01*
X2153884Y-450389D01*
X2157480Y-441707D01*
Y-432309D01*
X2153884Y-423627D01*
X2147239Y-416982D01*
X2138557Y-413386D01*
D02*
G37*
G36*
X496457Y-1987439D02*
X492520D01*
X481728Y-1988859D01*
X471672Y-1993025D01*
X463037Y-1999651D01*
X456411Y-2008286D01*
X452245Y-2018342D01*
X450825Y-2029134D01*
X452245Y-2039925D01*
X456411Y-2049981D01*
X463037Y-2058617D01*
X471672Y-2065243D01*
X481728Y-2069408D01*
X492520Y-2070829D01*
X496457D01*
X507248Y-2069408D01*
X517304Y-2065243D01*
X525940Y-2058617D01*
X532566Y-2049981D01*
X536731Y-2039925D01*
X538152Y-2029134D01*
X536731Y-2018342D01*
X532566Y-2008286D01*
X525940Y-1999651D01*
X517304Y-1993025D01*
X507248Y-1988859D01*
X496457Y-1987439D01*
D02*
G37*
G36*
Y-2087439D02*
X492520D01*
X481728Y-2088859D01*
X471672Y-2093025D01*
X463037Y-2099651D01*
X456411Y-2108286D01*
X452245Y-2118342D01*
X450825Y-2129134D01*
X452245Y-2139925D01*
X456411Y-2149981D01*
X463037Y-2158617D01*
X471672Y-2165243D01*
X481728Y-2169408D01*
X492520Y-2170829D01*
X496457D01*
X507248Y-2169408D01*
X517304Y-2165243D01*
X525940Y-2158617D01*
X532566Y-2149981D01*
X536731Y-2139925D01*
X538152Y-2129134D01*
X536731Y-2118342D01*
X532566Y-2108286D01*
X525940Y-2099651D01*
X517304Y-2093025D01*
X507248Y-2088859D01*
X496457Y-2087439D01*
D02*
G37*
G36*
X2610899Y-2097185D02*
X2598648Y-2099345D01*
X2587374Y-2104602D01*
X2577845Y-2112598D01*
X2570709Y-2122788D01*
X2566455Y-2134478D01*
X2565371Y-2146870D01*
X2567531Y-2159121D01*
X2572788Y-2170395D01*
X2580784Y-2179924D01*
X2590974Y-2187059D01*
X2602663Y-2191314D01*
X2615056Y-2192398D01*
X2627306Y-2190238D01*
X2638580Y-2184981D01*
X2648110Y-2176985D01*
X2655245Y-2166795D01*
X2659499Y-2155105D01*
X2660584Y-2142713D01*
X2658423Y-2130462D01*
X2653166Y-2119188D01*
X2645170Y-2109659D01*
X2634980Y-2102524D01*
X2623291Y-2098269D01*
X2610899Y-2097185D01*
D02*
G37*
G36*
X2455811Y-2124531D02*
X2443560Y-2126691D01*
X2432286Y-2131949D01*
X2422756Y-2139945D01*
X2415621Y-2150135D01*
X2411367Y-2161824D01*
X2410283Y-2174216D01*
X2412443Y-2186467D01*
X2417700Y-2197741D01*
X2425696Y-2207270D01*
X2435886Y-2214405D01*
X2447575Y-2218660D01*
X2459968Y-2219744D01*
X2472218Y-2217584D01*
X2483492Y-2212327D01*
X2493022Y-2204331D01*
X2500157Y-2194141D01*
X2504411Y-2182452D01*
X2505495Y-2170059D01*
X2503335Y-2157809D01*
X2498078Y-2146534D01*
X2490082Y-2137005D01*
X2479892Y-2129870D01*
X2468203Y-2125615D01*
X2455811Y-2124531D01*
D02*
G37*
G36*
X281407Y-2169291D02*
X269774D01*
X258365Y-2171561D01*
X247618Y-2176013D01*
X237945Y-2182475D01*
X229720Y-2190701D01*
X223257Y-2200373D01*
X218805Y-2211121D01*
X216536Y-2222530D01*
Y-2234163D01*
X218805Y-2245572D01*
X223257Y-2256320D01*
X229720Y-2265992D01*
X237945Y-2274218D01*
X247618Y-2280680D01*
X258365Y-2285132D01*
X269774Y-2287402D01*
X281407D01*
X292816Y-2285132D01*
X303564Y-2280680D01*
X313236Y-2274218D01*
X321462Y-2265992D01*
X327925Y-2256320D01*
X332376Y-2245572D01*
X334646Y-2234163D01*
Y-2222530D01*
X332376Y-2211121D01*
X327925Y-2200373D01*
X321462Y-2190701D01*
X313236Y-2182475D01*
X303564Y-2176013D01*
X292816Y-2171561D01*
X281407Y-2169291D01*
D02*
G37*
G36*
X1370841Y-31496D02*
X1361443D01*
X1352761Y-35092D01*
X1346116Y-41737D01*
X1342520Y-50419D01*
Y-59817D01*
X1346116Y-68499D01*
X1352761Y-75144D01*
X1361443Y-78740D01*
X1370841D01*
X1379523Y-75144D01*
X1386168Y-68499D01*
X1389764Y-59817D01*
Y-50419D01*
X1386168Y-41737D01*
X1379523Y-35092D01*
X1370841Y-31496D01*
D02*
G37*
G36*
X1409292Y-89903D02*
Y-116142D01*
X1432425D01*
X1432052Y-113311D01*
X1428680Y-105171D01*
X1423316Y-98180D01*
X1416325Y-92816D01*
X1409292Y-89903D01*
D02*
G37*
G36*
X949581Y-1078740D02*
X940183D01*
X931501Y-1082336D01*
X924856Y-1088981D01*
X921260Y-1097664D01*
Y-1107061D01*
X924856Y-1115743D01*
X931501Y-1122388D01*
X940183Y-1125984D01*
X949581D01*
X958263Y-1122388D01*
X964908Y-1115743D01*
X968504Y-1107061D01*
Y-1097664D01*
X964908Y-1088981D01*
X958263Y-1082336D01*
X949581Y-1078740D01*
D02*
G37*
G36*
X1299974Y-1188976D02*
X1290577D01*
X1281895Y-1192573D01*
X1275250Y-1199218D01*
X1271654Y-1207900D01*
Y-1217297D01*
X1275250Y-1225979D01*
X1281895Y-1232624D01*
X1290577Y-1236220D01*
X1299974D01*
X1308656Y-1232624D01*
X1315301Y-1225979D01*
X1318898Y-1217297D01*
Y-1207900D01*
X1315301Y-1199218D01*
X1308656Y-1192573D01*
X1299974Y-1188976D01*
D02*
G37*
G36*
X851155Y-1208661D02*
X841758D01*
X833076Y-1212258D01*
X826431Y-1218903D01*
X822835Y-1227585D01*
Y-1236982D01*
X826431Y-1245664D01*
X833076Y-1252309D01*
X841758Y-1255906D01*
X851155D01*
X859837Y-1252309D01*
X866482Y-1245664D01*
X870079Y-1236982D01*
Y-1227585D01*
X866482Y-1218903D01*
X859837Y-1212258D01*
X851155Y-1208661D01*
D02*
G37*
G36*
X843281Y-1314961D02*
X833884D01*
X825202Y-1318557D01*
X818557Y-1325202D01*
X814961Y-1333884D01*
Y-1343281D01*
X818557Y-1351964D01*
X825202Y-1358609D01*
X833884Y-1362205D01*
X843281D01*
X851963Y-1358609D01*
X858609Y-1351964D01*
X862205Y-1343281D01*
Y-1333884D01*
X858609Y-1325202D01*
X851963Y-1318557D01*
X843281Y-1314961D01*
D02*
G37*
G36*
X811785Y-1511811D02*
X802388D01*
X793706Y-1515407D01*
X787061Y-1522052D01*
X783465Y-1530734D01*
Y-1540132D01*
X787061Y-1548814D01*
X793706Y-1555459D01*
X802388Y-1559055D01*
X811785D01*
X820467Y-1555459D01*
X827112Y-1548814D01*
X830709Y-1540132D01*
Y-1530734D01*
X827112Y-1522052D01*
X820467Y-1515407D01*
X811785Y-1511811D01*
D02*
G37*
G36*
X1213360Y-1566929D02*
X1203963D01*
X1195281Y-1570525D01*
X1188636Y-1577170D01*
X1185039Y-1585852D01*
Y-1595250D01*
X1188636Y-1603932D01*
X1195281Y-1610577D01*
X1203963Y-1614173D01*
X1213360D01*
X1222042Y-1610577D01*
X1228687Y-1603932D01*
X1232283Y-1595250D01*
Y-1585852D01*
X1228687Y-1577170D01*
X1222042Y-1570525D01*
X1213360Y-1566929D01*
D02*
G37*
G36*
X1150368D02*
X1140971D01*
X1132289Y-1570525D01*
X1125643Y-1577170D01*
X1122047Y-1585852D01*
Y-1595250D01*
X1125643Y-1603932D01*
X1132289Y-1610577D01*
X1140971Y-1614173D01*
X1150368D01*
X1159050Y-1610577D01*
X1165695Y-1603932D01*
X1169291Y-1595250D01*
Y-1585852D01*
X1165695Y-1577170D01*
X1159050Y-1570525D01*
X1150368Y-1566929D01*
D02*
G37*
G36*
X1071628D02*
X1062230D01*
X1053548Y-1570525D01*
X1046903Y-1577170D01*
X1043307Y-1585852D01*
Y-1595250D01*
X1046903Y-1603932D01*
X1053548Y-1610577D01*
X1062230Y-1614173D01*
X1071628D01*
X1080310Y-1610577D01*
X1086955Y-1603932D01*
X1090551Y-1595250D01*
Y-1585852D01*
X1086955Y-1577170D01*
X1080310Y-1570525D01*
X1071628Y-1566929D01*
D02*
G37*
G36*
X965329Y-1586614D02*
X955931D01*
X947249Y-1590210D01*
X940604Y-1596855D01*
X937008Y-1605537D01*
Y-1614935D01*
X940604Y-1623617D01*
X947249Y-1630262D01*
X948467Y-1630766D01*
X950028Y-1638613D01*
X948478Y-1640162D01*
X944882Y-1648845D01*
Y-1658242D01*
X948478Y-1666924D01*
X955123Y-1673569D01*
X963805Y-1677165D01*
X973203D01*
X981885Y-1673569D01*
X988530Y-1666924D01*
X992126Y-1658242D01*
Y-1648845D01*
X988530Y-1640162D01*
X981885Y-1633517D01*
X980667Y-1633013D01*
X979106Y-1625167D01*
X980656Y-1623617D01*
X984252Y-1614935D01*
Y-1605537D01*
X980656Y-1596855D01*
X974011Y-1590210D01*
X965329Y-1586614D01*
D02*
G37*
G36*
X969266Y-1700787D02*
X959868D01*
X951186Y-1704384D01*
X944541Y-1711029D01*
X940945Y-1719711D01*
Y-1729108D01*
X944541Y-1737790D01*
X951186Y-1744435D01*
X959868Y-1748031D01*
X969266D01*
X977948Y-1744435D01*
X984593Y-1737790D01*
X988189Y-1729108D01*
Y-1719711D01*
X984593Y-1711029D01*
X977948Y-1704384D01*
X969266Y-1700787D01*
D02*
G37*
G36*
X1118872Y-1704725D02*
X1109475D01*
X1100793Y-1708321D01*
X1094148Y-1714966D01*
X1090551Y-1723648D01*
Y-1733045D01*
X1094148Y-1741727D01*
X1100793Y-1748372D01*
X1109475Y-1751968D01*
X1118872D01*
X1127554Y-1748372D01*
X1134199Y-1741727D01*
X1137795Y-1733045D01*
Y-1723648D01*
X1134199Y-1714966D01*
X1127554Y-1708321D01*
X1118872Y-1704725D01*
D02*
G37*
G36*
X1233045Y-1744094D02*
X1223648D01*
X1214966Y-1747691D01*
X1208321Y-1754336D01*
X1204725Y-1763018D01*
Y-1772415D01*
X1208321Y-1781097D01*
X1214966Y-1787742D01*
X1223648Y-1791339D01*
X1233045D01*
X1241727Y-1787742D01*
X1248372Y-1781097D01*
X1251968Y-1772415D01*
Y-1763018D01*
X1248372Y-1754336D01*
X1241727Y-1747691D01*
X1233045Y-1744094D01*
D02*
G37*
G36*
X965329Y-1775591D02*
X955931D01*
X947249Y-1779187D01*
X940604Y-1785832D01*
X937008Y-1794514D01*
Y-1803911D01*
X940604Y-1812593D01*
X947249Y-1819238D01*
X955931Y-1822835D01*
X965329D01*
X974011Y-1819238D01*
X980656Y-1812593D01*
X984252Y-1803911D01*
Y-1794514D01*
X980656Y-1785832D01*
X974011Y-1779187D01*
X965329Y-1775591D01*
D02*
G37*
G36*
X1142494Y-1779528D02*
X1133097D01*
X1124415Y-1783124D01*
X1117770Y-1789769D01*
X1114173Y-1798451D01*
Y-1807848D01*
X1117770Y-1816530D01*
X1124415Y-1823175D01*
X1133097Y-1826772D01*
X1142494D01*
X1151176Y-1823175D01*
X1157821Y-1816530D01*
X1161417Y-1807848D01*
Y-1798451D01*
X1157821Y-1789769D01*
X1151176Y-1783124D01*
X1142494Y-1779528D01*
D02*
G37*
G36*
X1134620Y-1842520D02*
X1125223D01*
X1116541Y-1846116D01*
X1109896Y-1852761D01*
X1106299Y-1861443D01*
Y-1870840D01*
X1109896Y-1879523D01*
X1116541Y-1886168D01*
X1125223Y-1889764D01*
X1134620D01*
X1143302Y-1886168D01*
X1149947Y-1879523D01*
X1153543Y-1870840D01*
Y-1861443D01*
X1149947Y-1852761D01*
X1143302Y-1846116D01*
X1134620Y-1842520D01*
D02*
G37*
G36*
X1040132D02*
X1030734D01*
X1022052Y-1846116D01*
X1015407Y-1852761D01*
X1011811Y-1861443D01*
Y-1870840D01*
X1015407Y-1879523D01*
X1022052Y-1886168D01*
X1030734Y-1889764D01*
X1040132D01*
X1048814Y-1886168D01*
X1055459Y-1879523D01*
X1059055Y-1870840D01*
Y-1861443D01*
X1055459Y-1852761D01*
X1048814Y-1846116D01*
X1040132Y-1842520D01*
D02*
G37*
G36*
X902337Y-1988189D02*
X892939D01*
X884257Y-1991785D01*
X877612Y-1998430D01*
X874016Y-2007112D01*
Y-2016510D01*
X877612Y-2025192D01*
X884257Y-2031837D01*
X892939Y-2035433D01*
X902337D01*
X911019Y-2031837D01*
X917664Y-2025192D01*
X921260Y-2016510D01*
Y-2007112D01*
X917664Y-1998430D01*
X911019Y-1991785D01*
X902337Y-1988189D01*
D02*
G37*
G36*
X1328518Y-2045276D02*
X1319120D01*
X1310438Y-2048872D01*
X1303793Y-2055517D01*
X1300197Y-2064199D01*
Y-2073596D01*
X1303793Y-2082278D01*
X1310438Y-2088923D01*
X1319120Y-2092520D01*
X1328518D01*
X1337200Y-2088923D01*
X1343845Y-2082278D01*
X1347441Y-2073596D01*
Y-2064199D01*
X1343845Y-2055517D01*
X1337200Y-2048872D01*
X1328518Y-2045276D01*
D02*
G37*
G36*
X1231077D02*
X1221679D01*
X1212997Y-2048872D01*
X1206352Y-2055517D01*
X1202756Y-2064199D01*
Y-2073596D01*
X1206352Y-2082278D01*
X1212997Y-2088923D01*
X1221679Y-2092520D01*
X1231077D01*
X1239759Y-2088923D01*
X1246404Y-2082278D01*
X1250000Y-2073596D01*
Y-2064199D01*
X1246404Y-2055517D01*
X1239759Y-2048872D01*
X1231077Y-2045276D01*
D02*
G37*
G36*
X1094266D02*
X1084868D01*
X1076186Y-2048872D01*
X1069541Y-2055517D01*
X1065945Y-2064199D01*
Y-2073596D01*
X1069541Y-2082278D01*
X1076186Y-2088923D01*
X1084868Y-2092520D01*
X1094266D01*
X1102948Y-2088923D01*
X1109593Y-2082278D01*
X1113189Y-2073596D01*
Y-2064199D01*
X1109593Y-2055517D01*
X1102948Y-2048872D01*
X1094266Y-2045276D01*
D02*
G37*
G36*
X752730Y-2047244D02*
X743333D01*
X734651Y-2050840D01*
X728006Y-2057485D01*
X724409Y-2066167D01*
Y-2075565D01*
X728006Y-2084247D01*
X734651Y-2090892D01*
X743333Y-2094488D01*
X752730D01*
X761412Y-2090892D01*
X768057Y-2084247D01*
X771654Y-2075565D01*
Y-2066167D01*
X768057Y-2057485D01*
X761412Y-2050840D01*
X752730Y-2047244D01*
D02*
G37*
G36*
X1055880Y-2228347D02*
X1046483D01*
X1037800Y-2231943D01*
X1031155Y-2238588D01*
X1027559Y-2247270D01*
Y-2256667D01*
X1031155Y-2265349D01*
X1037800Y-2271994D01*
X1046483Y-2275590D01*
X1055880D01*
X1064562Y-2271994D01*
X1071207Y-2265349D01*
X1074803Y-2256667D01*
Y-2247270D01*
X1071207Y-2238588D01*
X1064562Y-2231943D01*
X1055880Y-2228347D01*
D02*
G37*
%LPD*%
D10*
X2954963Y-608506D02*
G03*
X3025673Y-637795I70711J70711D01*
G01*
X2871809Y-647399D02*
G03*
X2801098Y-618110I-70711J-70711D01*
G01*
X2177739Y-839156D02*
G03*
X2177731Y-839149I-36660J-36646D01*
G01*
X2192914Y-875802D02*
G03*
X2177739Y-839156I-51835J0D01*
G01*
X2133858Y-753854D02*
G03*
X2163148Y-824565I100000J0D01*
G01*
X2152239Y-1432761D02*
G03*
X2152261Y-1432739I-98062J98141D01*
G01*
D02*
G03*
X2192913Y-1334600I-98084J98119D01*
G01*
X1669291Y-1759843D02*
G03*
X1934758Y-1650242I1J376296D01*
G01*
X1917323Y-675280D02*
G03*
X1888034Y-604569I-100000J0D01*
G01*
X1854331Y-537459D02*
G03*
X1877953Y-594488I80651J0D01*
G01*
X1514018Y-1765986D02*
G03*
X1613243Y-1807087I99225J99225D01*
G01*
X1690327Y-1807087D02*
G03*
X1701463Y-1802474I0J15748D01*
G01*
X1490396Y-1828978D02*
G03*
X1561107Y-1858268I70711J70711D01*
G01*
X697219Y-35433D02*
G03*
X488189Y-122047I-23J-295483D01*
G01*
X1268187Y-64722D02*
G03*
X1197476Y-35433I-70711J-70711D01*
G01*
X2893701Y-547244D02*
X2954963Y-608506D01*
X3025673Y-637795D02*
X3236220D01*
X2641732Y-618110D02*
X2801098D01*
X2871809Y-647399D02*
X2909449Y-685039D01*
X2192913Y-875858D02*
X2192914Y-875802D01*
X2163148Y-824565D02*
X2177731Y-839149D01*
X2177739Y-839156D01*
X2133858Y-753854D02*
Y-437008D01*
X1934758Y-1650242D02*
X2152239Y-1432761D01*
X1669291Y-1759843D02*
X1669291Y-1759842D01*
X2192913Y-1334600D02*
X2192913Y-875858D01*
X1877953Y-594488D02*
X1888034Y-604569D01*
X1854331Y-537459D02*
Y-385827D01*
X1917323Y-814961D02*
Y-675280D01*
X1613243Y-1807087D02*
X1690327D01*
X1701463Y-1802474D02*
X1708661Y-1795276D01*
X1476378Y-1728347D02*
X1514018Y-1765986D01*
X1561107Y-1858268D02*
X2000000D01*
X1429134Y-1767716D02*
X1490396Y-1828978D01*
X697275Y-35433D02*
X1197476D01*
X697219Y-35433D02*
X697275Y-35433D01*
X1268187Y-64722D02*
X1329449Y-125984D01*
D11*
X2243149Y-680157D02*
G03*
X2243139Y-680147I-40335J-40316D01*
G01*
X2259843Y-720472D02*
G03*
X2243149Y-680157I-57029J0D01*
G01*
X2259843Y-1838303D02*
G03*
X2265608Y-1852222I19685J0D01*
G01*
X2259843Y-1838303D02*
Y-720472D01*
X2243139Y-680147D02*
X2243149Y-680157D01*
X2169291Y-606299D02*
X2243139Y-680147D01*
X2265608Y-1852223D02*
X2283465Y-1870079D01*
D12*
X637781Y-1771639D02*
G03*
X618786Y-1763780I-18995J-19023D01*
G01*
X637795Y-1771653D02*
G03*
X637781Y-1771639I-19009J-19009D01*
G01*
X648553Y-255475D02*
G03*
X597835Y-234503I-50718J-50840D01*
G01*
X696850Y-372011D02*
G03*
X648553Y-255475I-164689J22D01*
G01*
X591825Y-234503D02*
G03*
X552113Y-250952I0J-56161D01*
G01*
D02*
G03*
X532087Y-299301I48349J-48349D01*
G01*
X1312909Y-657480D02*
G03*
X1383620Y-628191I0J100000D01*
G01*
X696850Y-509760D02*
G03*
X726140Y-580470I100000J0D01*
G01*
X773860Y-628191D02*
G03*
X844571Y-657480I70711J70711D01*
G01*
X525093Y-718328D02*
G03*
X531102Y-681102I-112296J37226D01*
G01*
X517828Y-624943D02*
G03*
X494292Y-592336I-112159J-56160D01*
G01*
X531102Y-681102D02*
G03*
X517828Y-624943I-125434J0D01*
G01*
X417719Y-559449D02*
G03*
X417690Y-559449I-29J-22441D01*
G01*
X524879Y-718990D02*
G03*
X525069Y-718408I-13004J4559D01*
G01*
X496352Y-764856D02*
G03*
X524441Y-720240I-83555J83754D01*
G01*
X483412Y-776604D02*
G03*
X494371Y-766837I-78011J98565D01*
G01*
X532087Y-1437008D02*
G03*
X531810Y-1428846I-120681J0D01*
G01*
Y-1428846D02*
G03*
X496657Y-1351590I-120405J-8162D01*
G01*
X500124Y-1514037D02*
G03*
X532087Y-1437008I-76838J77029D01*
G01*
X500732Y-979364D02*
G03*
X495230Y-973234I-77110J-63671D01*
G01*
X530118Y-1060039D02*
G03*
X528895Y-1042565I-125434J0D01*
G01*
X492556Y-1146461D02*
G03*
X496123Y-1143038I-87563J94814D01*
G01*
X495230Y-973234D02*
G03*
X493271Y-971237I-90545J-86805D01*
G01*
X496363Y-1351296D02*
G03*
X487127Y-1342936I-86617J-86399D01*
G01*
X451639Y-1172171D02*
G03*
X491141Y-1147876I-31209J95005D01*
G01*
X477384Y-1532981D02*
G03*
X499315Y-1514846I-83695J123544D01*
G01*
X487127Y-1342936D02*
G03*
X430256Y-1317086I-77382J-94760D01*
G01*
X403601Y-425787D02*
G03*
X458678Y-413790I0J132422D01*
G01*
X405401Y-803740D02*
G03*
X413666Y-803468I0J125701D01*
G01*
X326719Y-559449D02*
G03*
X326772Y-559449I0J13780D01*
G01*
X159391Y-425787D02*
G03*
X121541Y-435430I0J-79105D01*
G01*
X165803Y-803740D02*
G03*
X143863Y-806773I0J-80861D01*
G01*
X414629Y-937402D02*
G03*
X412420Y-937378I-2209J-99976D01*
G01*
X404993Y-1180709D02*
G03*
X445273Y-1174262I0J129062D01*
G01*
X109452Y-916504D02*
G03*
X157852Y-937378I50247J49961D01*
G01*
X108736Y-542547D02*
G03*
X150096Y-559449I41360J42156D01*
G01*
X152445D02*
G03*
X152378Y-559449I-67J-22441D01*
G01*
X143863Y-806773D02*
G03*
X109738Y-826332I21939J-77828D01*
G01*
X107759Y-828311D02*
G03*
X107604Y-828471I9787J-9700D01*
G01*
X93438Y-852527D02*
G03*
X90639Y-871159I58646J-18336D01*
G01*
X90706Y-873828D02*
G03*
X109449Y-916501I64707J2968D01*
G01*
X90639Y-871159D02*
G03*
X90706Y-873828I64774J299D01*
G01*
X159214Y-1180709D02*
G03*
X159467Y-1180709I104J22441D01*
G01*
X393689Y-1558661D02*
G03*
X477384Y-1532981I0J149225D01*
G01*
X430255Y-1317086D02*
G03*
X411728Y-1315355I-18526J-98269D01*
G01*
X159214Y-1180709D02*
G03*
X150155Y-1181301I-92J-68138D01*
G01*
X137846Y-1310918D02*
G03*
X164349Y-1315355I26468J76731D01*
G01*
X338582Y-1558661D02*
G03*
X338530Y-1558661I-52J-13779D01*
G01*
X136214Y-1734490D02*
G03*
X206924Y-1763780I70711J70711D01*
G01*
X91049Y-1253317D02*
G03*
X91015Y-1250890I-79331J82D01*
G01*
X109996Y-1294500D02*
G03*
X137833Y-1310913I54319J60312D01*
G01*
X99692Y-1215517D02*
G03*
X90988Y-1248081I59430J-33330D01*
G01*
X90988Y-1249583D02*
G03*
X91015Y-1250890I68134J736D01*
G01*
X108612Y-1701199D02*
G03*
X119689Y-1717966I124616J70286D01*
G01*
X90190Y-1633970D02*
G03*
X108612Y-1701199I143038J3057D01*
G01*
X90188Y-1633778D02*
G03*
X90190Y-1633970I13780J52D01*
G01*
X203429Y-1802386D02*
G03*
X213466Y-1803150I9962J64558D01*
G01*
X67729Y-1632967D02*
G03*
X83886Y-1702266I165499J2054D01*
G01*
Y-1702266D02*
G03*
X108286Y-1739465I149342J71353D01*
G01*
X89910Y-1568117D02*
G03*
X67730Y-1626387I69523J-59821D01*
G01*
X91103Y-1307500D02*
G03*
X98824Y-1314472I73211J73313D01*
G01*
X126552Y-1757703D02*
G03*
X193455Y-1800400I166541J187195D01*
G01*
X98824Y-1314472D02*
G03*
X164417Y-1337795I65490J80285D01*
G01*
X193466Y-1800405D02*
G03*
X196770Y-1801366I5469J12648D01*
G01*
X68197Y-871028D02*
G03*
X72651Y-898374I87215J168D01*
G01*
Y-898374D02*
G03*
X93880Y-932668I82762J27515D01*
G01*
X92781Y-558331D02*
G03*
X92835Y-558384I86638J87608D01*
G01*
X64156Y-489427D02*
G03*
X92771Y-558321I96597J-268D01*
G01*
X92955Y-558502D02*
G03*
X93028Y-558575I9717J9770D01*
G01*
X116059Y-949007D02*
G03*
X159805Y-959842I43641J82463D01*
G01*
X165803Y-781299D02*
G03*
X107790Y-799127I0J-103302D01*
G01*
X93052Y-558597D02*
G03*
X150203Y-581890I57044J58205D01*
G01*
X159391Y-403346D02*
G03*
X87445Y-433231I0J-101546D01*
G01*
X393689Y-1536220D02*
G03*
X420264Y-1533404I0J126784D01*
G01*
X404993Y-1158268D02*
G03*
X438033Y-1153019I0J106621D01*
G01*
X480450Y-1367119D02*
G03*
X409746Y-1337795I-70704J-70576D01*
G01*
X420264Y-1533404D02*
G03*
X483397Y-1499028I-26575J123967D01*
G01*
X475531Y-985232D02*
G03*
X414329Y-959842I-61202J-61068D01*
G01*
X405401Y-781299D02*
G03*
X427659Y-778872I0J103260D01*
G01*
D02*
G03*
X478482Y-750990I-22258J100833D01*
G01*
X509646Y-1437008D02*
G03*
X480823Y-1367493I-98240J0D01*
G01*
X480504Y-748968D02*
G03*
X508236Y-690128I-67707J67866D01*
G01*
X507677Y-1060039D02*
G03*
X502593Y-1028080I-102993J0D01*
G01*
X461620Y-594451D02*
G03*
X417690Y-581890I-43930J-70536D01*
G01*
X403601Y-403346D02*
G03*
X481430Y-371074I0J109981D01*
G01*
X476511Y-606291D02*
G03*
X461620Y-594451I-58821J-58697D01*
G01*
X481429Y-371074D02*
G03*
X488953Y-362640I-67648J67924D01*
G01*
X535701Y-231318D02*
G03*
X509646Y-294220I62902J-62902D01*
G01*
X724409Y-359601D02*
G03*
X674480Y-238917I-170720J39D01*
G01*
X595818Y-206381D02*
G03*
X535701Y-231318I84J-85139D01*
G01*
X674447Y-238885D02*
G03*
X595818Y-206381I-78562J-78692D01*
G01*
X786656Y-600632D02*
G03*
X857366Y-629921I70711J70711D01*
G01*
X1046091Y-629921D02*
G03*
X1135414Y-592932I24J126289D01*
G01*
X1155181Y-553077D02*
G03*
X1155205Y-552573I-15717J988D01*
G01*
X724409Y-496964D02*
G03*
X753699Y-567675I100000J0D01*
G01*
X1155092Y-551350D02*
G03*
X1154768Y-549312I-15681J-1451D01*
G01*
X488953Y-362640D02*
G03*
X509646Y-303150I-75172J59491D01*
G01*
X87445Y-433231D02*
G03*
X64156Y-489427I56715J-56428D01*
G01*
X108600Y-1580872D02*
G03*
X90188Y-1625881I50833J-47066D01*
G01*
X139701Y-1561531D02*
G03*
X108600Y-1580872I19733J-66406D01*
G01*
X159641Y-1558662D02*
G03*
X139701Y-1561531I-207J-69276D01*
G01*
X528895Y-1042565D02*
G03*
X500732Y-979364I-124210J-17474D01*
G01*
X109574Y-1294100D02*
G03*
X109996Y-1294500I9690J9797D01*
G01*
X91049Y-1253317D02*
G03*
X104719Y-1289245I54199J57D01*
G01*
X150155Y-1181301D02*
G03*
X99692Y-1215517I8967J-67546D01*
G01*
X496123Y-1143038D02*
G03*
X530118Y-1061151I-81625J81886D01*
G01*
X491451Y-969416D02*
G03*
X489871Y-967863I-77122J-76885D01*
G01*
X489871Y-967863D02*
G03*
X414629Y-937402I-75542J-78438D01*
G01*
X100219Y-532529D02*
G03*
X108736Y-542547I60535J42835D01*
G01*
X107604Y-828471D02*
G03*
X93438Y-852527I44480J-42392D01*
G01*
X413666Y-803468D02*
G03*
X483412Y-776604I-8265J125429D01*
G01*
X492426Y-590470D02*
G03*
X417719Y-559449I-74736J-74518D01*
G01*
X87124Y-498523D02*
G03*
X100219Y-532529I73630J8829D01*
G01*
X86597Y-489589D02*
G03*
X87124Y-498523I74157J-105D01*
G01*
X96198Y-457828D02*
G03*
X86597Y-489589I47962J-31831D01*
G01*
X103379Y-449033D02*
G03*
X96198Y-457828I40781J-40626D01*
G01*
X121541Y-435430D02*
G03*
X103379Y-449033I37850J-69462D01*
G01*
X126071Y-1757250D02*
G03*
X126552Y-1757703I9690J9797D01*
G01*
X130438Y-1540925D02*
G03*
X89910Y-1568117I28996J-87013D01*
G01*
X159572Y-1536221D02*
G03*
X130438Y-1540925I-139J-91717D01*
G01*
X84226Y-1197904D02*
G03*
X68585Y-1251601I74896J-50943D01*
G01*
X68609Y-1253260D02*
G03*
X68585Y-1251601I-56890J25D01*
G01*
X484285Y-1498140D02*
G03*
X509646Y-1437008I-60998J61132D01*
G01*
X69765Y-1266526D02*
G03*
X91103Y-1307500I75483J13266D01*
G01*
X68609Y-1253260D02*
G03*
X69765Y-1266526I76640J0D01*
G01*
X113786Y-1170430D02*
G03*
X84226Y-1197904I45336J-78417D01*
G01*
X76280Y-834936D02*
G03*
X68197Y-871028I75803J-35927D01*
G01*
X159317Y-1158268D02*
G03*
X113786Y-1170430I-195J-90579D01*
G01*
X438033Y-1153019D02*
G03*
X480320Y-1127105I-33039J101373D01*
G01*
D02*
G03*
X505374Y-1081742I-65822J65953D01*
G01*
D02*
G03*
X507677Y-1061151I-90876J20590D01*
G01*
X502593Y-1028080D02*
G03*
X477455Y-987156I-97908J-31960D01*
G01*
X93880Y-932668D02*
G03*
X116059Y-949007I65820J66125D01*
G01*
X92857Y-811456D02*
G03*
X76280Y-834936I59226J-59407D01*
G01*
X107790Y-799127D02*
G03*
X92857Y-811456I58012J-85474D01*
G01*
X508236Y-690128D02*
G03*
X508661Y-681102I-95439J9025D01*
G01*
D02*
G03*
X478447Y-608226I-102993J0D01*
G01*
X458678Y-413790D02*
G03*
X497334Y-386905I-55077J120425D01*
G01*
D02*
G03*
X522918Y-348815I-83553J83756D01*
G01*
D02*
G03*
X532087Y-303150I-109136J45665D01*
G01*
X1413152Y-598659D02*
G03*
X1434449Y-547244I-51415J51415D01*
G01*
X1138526Y-589820D02*
G03*
X1155181Y-553077I-40508J40508D01*
G01*
X213466Y-1803150D02*
X590551D01*
X618786Y-1763780D02*
X629921D01*
X206924D02*
X618786D01*
X637781Y-1771639D02*
X637795Y-1771653D01*
X629921Y-1763780D02*
X637781Y-1771639D01*
X591825Y-234503D02*
X597835D01*
X696850Y-509760D02*
Y-372063D01*
X696850Y-372011D02*
X696850Y-372063D01*
X532087Y-303150D02*
Y-299301D01*
X1383620Y-628191D02*
X1413152Y-598659D01*
X844571Y-657480D02*
X1312909D01*
X726140Y-580470D02*
X773860Y-628191D01*
X517828Y-624943D02*
Y-624943D01*
X525069Y-718408D02*
X525093Y-718328D01*
X524441Y-720240D02*
X524879Y-718990D01*
X496352Y-764856D02*
X496352Y-764856D01*
X494371Y-766837D02*
X496352Y-764856D01*
X494371Y-766837D02*
X494371Y-766837D01*
X531810Y-1428846D02*
X531810Y-1428846D01*
X495230Y-973234D02*
X495230Y-973234D01*
X530118Y-1061151D02*
Y-1060039D01*
X491141Y-1147876D02*
X492556Y-1146461D01*
X487127Y-1342936D02*
X487127Y-1342936D01*
X499315Y-1514846D02*
X500124Y-1514037D01*
X496363Y-1351296D02*
X496657Y-1351590D01*
X445273Y-1174262D02*
X451639Y-1172171D01*
X326772Y-559449D02*
X417690D01*
X159391Y-425787D02*
X403601D01*
X152445Y-559449D02*
X152446D01*
X326719D01*
X165803Y-803740D02*
X405401D01*
X283465Y-1180709D02*
X404993D01*
X157852Y-937378D02*
X412420D01*
X159476Y-1180709D02*
X283464Y-1180709D01*
X159467Y-1180709D02*
X159476D01*
X150096Y-559449D02*
X152378D01*
X107759Y-828311D02*
X109738Y-826332D01*
X109449Y-916501D02*
X109452Y-916504D01*
X90638Y-871159D02*
X90639Y-871159D01*
X164349Y-1315355D02*
X411728D01*
X159214Y-1180709D02*
Y-1180709D01*
X338583Y-1558661D02*
X393689D01*
X338582Y-1558661D02*
X338583D01*
X90988Y-1249583D02*
X90988Y-1248081D01*
X91015Y-1250890D02*
X91015D01*
X137833Y-1310913D02*
X137846Y-1310918D01*
X108612Y-1701199D02*
Y-1701199D01*
X119689Y-1717966D02*
X136214Y-1734490D01*
X90188Y-1633778D02*
Y-1625881D01*
X202345Y-1802220D02*
X203429Y-1802386D01*
X67730Y-1626388D02*
Y-1626387D01*
X67729Y-1632967D02*
X67730Y-1626388D01*
X108286Y-1739465D02*
X126071Y-1757250D01*
X83886Y-1702266D02*
Y-1702266D01*
X98824Y-1314472D02*
X98824Y-1314472D01*
X164417Y-1337795D02*
X208661Y-1337795D01*
X193455Y-1800400D02*
X193466Y-1800405D01*
X244094Y-1536220D02*
X393689D01*
X208661Y-1337795D02*
X409746D01*
X72651Y-898374D02*
Y-898374D01*
X92771Y-558321D02*
X92781Y-558331D01*
X93028Y-558575D02*
X93052Y-558597D01*
X92835Y-558384D02*
X92886Y-558435D01*
X92955Y-558502D01*
X283465Y-1158268D02*
X404993D01*
X159805Y-959843D02*
X200787Y-959842D01*
X165803Y-781299D02*
X405401D01*
X150203Y-581890D02*
X152379Y-581890D01*
X159391Y-403346D02*
X403601D01*
X483397Y-1499028D02*
X484285Y-1498140D01*
X480449Y-1367119D02*
X480823Y-1367493D01*
X397638Y-959842D02*
X414329D01*
X478482Y-750990D02*
X478482Y-750990D01*
X480504Y-748968D01*
X480504Y-748968D01*
X507677Y-1061151D02*
Y-1060039D01*
X326772Y-581890D02*
X417690D01*
X461620Y-594451D02*
Y-594451D01*
X481429Y-371074D02*
X481430Y-371074D01*
X509646Y-303150D02*
Y-294220D01*
X674447Y-238885D02*
X674480Y-238917D01*
X857366Y-629921D02*
X1046035D01*
X1046091Y-629921D01*
X753699Y-567675D02*
X786656Y-600632D01*
X724409Y-359601D02*
X724409Y-359653D01*
Y-496964D02*
Y-359653D01*
X1155092Y-551350D02*
X1155205Y-552573D01*
X1154449Y-549312D02*
X1154768D01*
X159641Y-1558662D02*
X244042Y-1558662D01*
X244094Y-1558661D02*
X338530D01*
X244042Y-1558662D02*
X244094Y-1558661D01*
X104719Y-1289245D02*
X109574Y-1294100D01*
X283464Y-1180709D02*
X283465Y-1180709D01*
X491451Y-969416D02*
X493271Y-971237D01*
X492426Y-590470D02*
X494292Y-592336D01*
X196770Y-1801366D02*
X197399Y-1801462D01*
X213466Y-1803150D02*
Y-1803150D01*
X197399Y-1801462D02*
X202345Y-1802220D01*
X159572Y-1536221D02*
X244094Y-1536220D01*
X159317Y-1158268D02*
X283465Y-1158268D01*
X475531Y-985232D02*
X477455Y-987156D01*
X200787Y-959843D02*
X397638Y-959842D01*
X476511Y-606291D02*
X478447Y-608226D01*
X152378Y-581890D02*
X326772Y-581890D01*
X1154449Y-549312D02*
Y-547244D01*
X1135414Y-592932D02*
X1138526Y-589820D01*
D15*
X515396Y-1950041D02*
G03*
X586106Y-1979331I70711J70711D01*
G01*
X590103D02*
G03*
X590902Y-1979302I-50J12598D01*
G01*
X598076Y-1979302D02*
G03*
X598873Y-1979331I848J12570D01*
G01*
X598076Y-1979302D02*
G03*
X590902Y-1979302I-3587J-49832D01*
G01*
X703502Y-2008620D02*
G03*
X632791Y-1979331I-70711J-70711D01*
G01*
X494488Y-1929134D02*
X515396Y-1950041D01*
X703502Y-2008620D02*
X703740Y-2008858D01*
X590103Y-1979331D02*
X590103D01*
X586106D02*
X590103D01*
X598873D02*
X632791D01*
D43*
X3795276Y-1366142D02*
D03*
X1523622Y-78740D02*
D03*
X472441Y-2342520D02*
D03*
X3519685Y-1870079D02*
D03*
X1602362Y-1960630D02*
D03*
X1586614Y-2251968D02*
D03*
X1157480Y-905512D02*
D03*
X3834646Y-1086614D02*
D03*
X3712598Y-43307D02*
D03*
X2114173Y-1177165D02*
D03*
X2976378Y-2082677D02*
D03*
X3858268Y-590551D02*
D03*
X1484252Y-708662D02*
D03*
X1759842Y-318898D02*
D03*
X1547244Y-578740D02*
D03*
X905512Y-2342520D02*
D03*
X2472441Y-275591D02*
D03*
X1377953Y-2342520D02*
D03*
X3716535Y-1625984D02*
D03*
X141732Y-2334646D02*
D03*
X759842Y-921260D02*
D03*
X55118Y-1929134D02*
D03*
X2132123Y-2254532D02*
D03*
X3791339Y-893701D02*
D03*
X2082677Y-1984252D02*
D03*
X2442245Y-12259D02*
D03*
X3035433Y-1885827D02*
D03*
X1748032Y-594488D02*
D03*
D45*
X3137111Y-492099D02*
D03*
X3293992Y-478374D02*
D03*
X3383858Y-48228D02*
D03*
X3226378D02*
D03*
X2612977Y-2144791D02*
D03*
X2457889Y-2172138D02*
D03*
X2799897Y-1685066D02*
D03*
X2643016Y-1698792D02*
D03*
X3130221Y-1656469D02*
D03*
X3287102Y-1642744D02*
D03*
X2127238Y-177455D02*
D03*
X1975124Y-218214D02*
D03*
D46*
X594488Y-1929134D02*
D03*
X494488Y-2029134D02*
D03*
X594488D02*
D03*
X494488Y-2129134D02*
D03*
X594488D02*
D03*
D47*
X494488Y-1929134D02*
D03*
X1421260Y-1442520D02*
D03*
D48*
Y-1342520D02*
D03*
D49*
X944449Y-547244D02*
D03*
X1014449D02*
D03*
X1084449D02*
D03*
X1154449D02*
D03*
X1224449D02*
D03*
X1294449D02*
D03*
X1364449D02*
D03*
X1434449D02*
D03*
X909449Y-125984D02*
D03*
X1049449D02*
D03*
X1119449D02*
D03*
X1189449D02*
D03*
X1259449D02*
D03*
X1329449D02*
D03*
X1399449D02*
D03*
X979449D02*
D03*
D50*
X3731299Y-462205D02*
D03*
D51*
Y-122047D02*
D03*
D52*
X3881890Y-462205D02*
D03*
Y-122047D02*
D03*
D53*
X1279528Y-889764D02*
D03*
X1381890D02*
D03*
Y-748031D02*
D03*
X1279528D02*
D03*
X3661417Y-200787D02*
D03*
D54*
X1314961Y-889764D02*
D03*
X1346457D02*
D03*
Y-748031D02*
D03*
X1314961D02*
D03*
D55*
X59055Y-55118D02*
D03*
Y-212598D02*
D03*
X590551Y-1803150D02*
D03*
X637795Y-1771653D02*
D03*
X1602362Y-1614173D02*
D03*
X393701Y-2165354D02*
D03*
X767717Y-2248032D02*
D03*
X224410Y-1976378D02*
D03*
X401575Y-1968504D02*
D03*
X1114173Y-1728347D02*
D03*
X1854331Y-1791339D02*
D03*
X2370079Y-1783465D02*
D03*
X2110236Y-1641732D02*
D03*
X2708661Y-1874016D02*
D03*
X3307087Y-1787402D02*
D03*
X2972320Y-1786556D02*
D03*
X3645669Y-909449D02*
D03*
X3688976Y-1173228D02*
D03*
X3602362Y-448819D02*
D03*
X3086614Y-401575D02*
D03*
X3606299Y-326772D02*
D03*
X2866142Y-1960630D02*
D03*
X3448819Y-326772D02*
D03*
X3582677Y-1492126D02*
D03*
X2090551Y-1783465D02*
D03*
X3279528Y-370079D02*
D03*
X393701Y-236220D02*
D03*
X3236220Y-637795D02*
D03*
X2893701Y-547244D02*
D03*
X2909449Y-685039D02*
D03*
X2641732Y-618110D02*
D03*
X2133858Y-437008D02*
D03*
X2169291Y-606299D02*
D03*
X2330709Y-555118D02*
D03*
X1854331Y-385827D02*
D03*
X1917323Y-814961D02*
D03*
X2322835Y-1996063D02*
D03*
X2283465Y-1870079D02*
D03*
X1669291Y-1759842D02*
D03*
X1618110Y-1744094D02*
D03*
X1708661Y-1795276D02*
D03*
X1476378Y-1728347D02*
D03*
X2000000Y-1858268D02*
D03*
X1429134Y-1767716D02*
D03*
X807087Y-1535433D02*
D03*
X488189Y-122047D02*
D03*
X1137795Y-1803150D02*
D03*
X1366142Y-55118D02*
D03*
X842520Y-125984D02*
D03*
X177165Y-1929134D02*
D03*
X703740Y-2008858D02*
D03*
X960630Y-1799213D02*
D03*
X1232284Y-1862205D02*
D03*
X996063Y-2031496D02*
D03*
X1307087Y-1511811D02*
D03*
X885827Y-1507874D02*
D03*
X1039370Y-1271653D02*
D03*
X1098425D02*
D03*
Y-1212598D02*
D03*
X1039370D02*
D03*
X1129921Y-1866142D02*
D03*
X1323819Y-2068898D02*
D03*
X1295276Y-1212598D02*
D03*
X3303150Y27559D02*
D03*
X1598425Y-1401575D02*
D03*
X2094488Y-1425197D02*
D03*
X669291Y-1338583D02*
D03*
X1622047Y-1070866D02*
D03*
X1492126Y-893701D02*
D03*
X1708661Y-736221D02*
D03*
X1503937Y-1177165D02*
D03*
X1862205Y-1527559D02*
D03*
X1925197Y-519685D02*
D03*
X2212598Y-803150D02*
D03*
X2015748Y-354331D02*
D03*
X2665354Y-425197D02*
D03*
X2744095Y-535433D02*
D03*
X2984252Y-114173D02*
D03*
X2881890Y-118110D02*
D03*
X2433071Y-129921D02*
D03*
X2094488Y-984252D02*
D03*
X2870079Y-409449D02*
D03*
X2011811Y-799213D02*
D03*
X1795276Y-874016D02*
D03*
X960630Y-1610236D02*
D03*
X968504Y-1653543D02*
D03*
X2897638Y-346457D02*
D03*
X2885827Y-200787D02*
D03*
X3326772Y-204724D02*
D03*
X472441Y-1692913D02*
D03*
X39370Y-2011811D02*
D03*
Y-2244095D02*
D03*
X196850Y-1692913D02*
D03*
X2098425Y-645669D02*
D03*
X2377953Y-1590551D02*
D03*
X2362205Y-1326772D02*
D03*
X2334646Y-1043307D02*
D03*
X2338583Y-885827D02*
D03*
X2433071Y-1472441D02*
D03*
X3255905Y-1425197D02*
D03*
X3574803Y-1307087D02*
D03*
X2925197Y-748032D02*
D03*
X3224410Y-720472D02*
D03*
X1066929Y-1590551D02*
D03*
X2342520Y-629921D02*
D03*
X3562992Y-1031496D02*
D03*
X1807087Y-460630D02*
D03*
X3527559Y-783465D02*
D03*
X3098425Y-559055D02*
D03*
X3346457Y-535433D02*
D03*
X3602362Y3937D02*
D03*
X3433071Y-141732D02*
D03*
X3374016Y-708661D02*
D03*
X3224410Y-547244D02*
D03*
X3326772Y-255905D02*
D03*
X2488189Y-425197D02*
D03*
X2177165Y-484252D02*
D03*
X3303150Y-90551D02*
D03*
X2192913Y-255905D02*
D03*
X1570866Y-236220D02*
D03*
X1169291Y-755905D02*
D03*
X1047244D02*
D03*
X1570866Y-433071D02*
D03*
X661417Y-594488D02*
D03*
X1047244Y-897638D02*
D03*
X736221Y-181102D02*
D03*
X1338583Y-618110D02*
D03*
X673228Y-1118110D02*
D03*
X393701Y-39370D02*
D03*
X661417Y-374016D02*
D03*
X838583Y-539370D02*
D03*
X515748Y-39370D02*
D03*
X1299213Y-43307D02*
D03*
X708661Y-2362205D02*
D03*
X2665354Y-775591D02*
D03*
X1232284Y-1015748D02*
D03*
X771654Y-1074803D02*
D03*
X1342520Y-1078740D02*
D03*
X1118110D02*
D03*
X846457Y-1232284D02*
D03*
X854331Y-692913D02*
D03*
X944882Y-1102362D02*
D03*
X1035433Y-1866142D02*
D03*
X1228347Y-1767716D02*
D03*
X838583Y-1338583D02*
D03*
X1208661Y-1590551D02*
D03*
X677165Y-1657480D02*
D03*
X3562992Y-673228D02*
D03*
X3094488Y-1736220D02*
D03*
X3023622Y-1519685D02*
D03*
X2232284Y-2157480D02*
D03*
X2688976Y-1543307D02*
D03*
X2460630Y-1858268D02*
D03*
X2129921Y-1870079D02*
D03*
X964567Y-1724409D02*
D03*
X3665354Y-692913D02*
D03*
X1409449Y-1625984D02*
D03*
X1145669Y-1590551D02*
D03*
X893701Y-960630D02*
D03*
X2846457Y-1771653D02*
D03*
X1051181Y-2251968D02*
D03*
X1089567Y-2068898D02*
D03*
X1350394Y-1948819D02*
D03*
X1226378Y-2068898D02*
D03*
X1374016Y-2145669D02*
D03*
Y-2251968D02*
D03*
X1299213Y-2332559D02*
D03*
X1200787Y-2334646D02*
D03*
X1122047D02*
D03*
X748032Y-2070866D02*
D03*
X314961Y-1893701D02*
D03*
X897638Y-2011811D02*
D03*
D56*
X3795276Y-1366142D02*
D03*
X1523622Y-78740D02*
D03*
X472441Y-2342520D02*
D03*
X3519685Y-1870079D02*
D03*
X1602362Y-1960630D02*
D03*
X1586614Y-2251968D02*
D03*
X1157480Y-905512D02*
D03*
X3834646Y-1086614D02*
D03*
X3712598Y-43307D02*
D03*
X2114173Y-1177165D02*
D03*
X2976378Y-2082677D02*
D03*
X3858268Y-590551D02*
D03*
X1484252Y-708662D02*
D03*
X1759842Y-318898D02*
D03*
X1547244Y-578740D02*
D03*
X905512Y-2342520D02*
D03*
X2472441Y-275591D02*
D03*
X1377953Y-2342520D02*
D03*
X3716535Y-1625984D02*
D03*
X141732Y-2334646D02*
D03*
X759842Y-921260D02*
D03*
X55118Y-1929134D02*
D03*
X2132123Y-2254532D02*
D03*
X3791339Y-893701D02*
D03*
X2082677Y-1984252D02*
D03*
X2442245Y-12259D02*
D03*
X3035433Y-1885827D02*
D03*
X1748032Y-594488D02*
D03*
D57*
X2324565Y-561262D02*
G03*
X2295276Y-631973I70711J-70711D01*
G01*
Y-1779883D02*
G03*
X2301519Y-1797277I27559J74D01*
G01*
X2322835Y-1856917D02*
G03*
X2301519Y-1797277I-94092J-0D01*
G01*
X793839Y-66929D02*
G03*
X526944Y-177446I-28J-377464D01*
G01*
D02*
G03*
X480315Y-290059I112595J-112581D01*
G01*
X95398Y-1768632D02*
G03*
X293198Y-1850394I197694J198124D01*
G01*
X38386Y-1630892D02*
G03*
X95399Y-1768632I194842J-21D01*
G01*
X159464Y-1506890D02*
G03*
X38386Y-1628002I-30J-121048D01*
G01*
X996063Y-1935122D02*
G03*
X966774Y-1864411I-100000J0D01*
G01*
X964567Y-1862205D02*
G03*
X936053Y-1850394I-28514J-28514D01*
G01*
X70332Y-1328209D02*
G03*
X164417Y-1367126I93983J94022D01*
G01*
X39278Y-1253175D02*
G03*
X70332Y-1328209I105971J-85D01*
G01*
X39278Y-1253175D02*
G03*
X39268Y-1252496I-27559J-60D01*
G01*
X159185Y-1128937D02*
G03*
X39266Y-1252415I-63J-119910D01*
G01*
X480315Y-1437008D02*
G03*
X460132Y-1388282I-68910J0D01*
G01*
X459646Y-1387795D02*
G03*
X409746Y-1367126I-49900J-49900D01*
G01*
X393689Y-1506890D02*
G03*
X462598Y-1478347I0J97453D01*
G01*
X463612Y-1477333D02*
G03*
X480315Y-1437008I-40325J40325D01*
G01*
X478346Y-1060039D02*
G03*
X456771Y-1007952I-73662J0D01*
G01*
X404993Y-1128937D02*
G03*
X459646Y-1106299I0J77290D01*
G01*
X454724Y-1005905D02*
G03*
X414329Y-989173I-40395J-40395D01*
G01*
X459646Y-1106299D02*
G03*
X478346Y-1061151I-45148J45148D01*
G01*
X72998Y-953266D02*
G03*
X159805Y-989173I86702J86723D01*
G01*
X72096Y-790737D02*
G03*
X38866Y-870851I79987J-80126D01*
G01*
X38866D02*
G03*
X72998Y-953266I116546J-9D01*
G01*
X165803Y-751968D02*
G03*
X72096Y-790737I0J-132632D01*
G01*
X405401Y-751968D02*
G03*
X457677Y-730315I0J73930D01*
G01*
X479331Y-681102D02*
G03*
X457755Y-629015I-73662J0D01*
G01*
X455709Y-626968D02*
G03*
X417690Y-611221I-38019J-38019D01*
G01*
X459844Y-728149D02*
G03*
X479331Y-681102I-47046J47046D01*
G01*
X71704Y-578735D02*
G03*
X150203Y-611221I78392J78344D01*
G01*
X34825Y-489573D02*
G03*
X71704Y-578735I125928J-121D01*
G01*
X66776Y-412420D02*
G03*
X34825Y-489573I77384J-77239D01*
G01*
X159391Y-374016D02*
G03*
X66776Y-412420I0J-130876D01*
G01*
X403601Y-374016D02*
G03*
X460630Y-350394I0J80651D01*
G01*
X460828Y-350196D02*
G03*
X480315Y-303150I-47046J47046D01*
G01*
X1165354Y-83661D02*
G03*
X1124959Y-66929I-40395J-40395D01*
G01*
X1189449Y-125984D02*
G03*
X1176559Y-94866I-44008J0D01*
G01*
X2324565Y-561262D02*
X2330709Y-555118D01*
X2295276Y-1779883D02*
Y-631973D01*
X2322835Y-1996063D02*
Y-1856917D01*
X2301519Y-1797277D02*
X2301519Y-1797277D01*
X480315Y-290059D02*
X480315Y-290133D01*
Y-303150D02*
Y-290133D01*
X793839Y-66929D02*
X793914Y-66929D01*
X1124959D01*
X293198Y-1850394D02*
X936053D01*
X293198Y-1850394D02*
Y-1850394D01*
X38386Y-1630892D02*
X38386Y-1630818D01*
Y-1628076D01*
X38386Y-1628002D02*
X38386Y-1628076D01*
X996063Y-2031496D02*
Y-1935122D01*
X964567Y-1862205D02*
X966774Y-1864411D01*
X39266Y-1252415D02*
X39268Y-1252496D01*
X164417Y-1367126D02*
Y-1367126D01*
X409746D01*
X159185Y-1128937D02*
X159260Y-1128937D01*
X404993D01*
X159538Y-1506890D02*
X393689D01*
X159464Y-1506890D02*
X159538Y-1506890D01*
X459646Y-1387795D02*
X460132Y-1388281D01*
X462598Y-1478347D02*
X463612Y-1477333D01*
X478346Y-1061151D02*
Y-1060039D01*
X454724Y-1005905D02*
X456771Y-1007952D01*
X159805Y-989173D02*
X414329D01*
X72096Y-790737D02*
Y-790737D01*
X159805Y-989173D02*
Y-989173D01*
X165803Y-751968D02*
X405401D01*
X457677Y-730315D02*
X459844Y-728149D01*
X455709Y-626968D02*
X457755Y-629015D01*
X150203Y-611221D02*
X417690D01*
X159391Y-374016D02*
X403601D01*
X460630Y-350394D02*
X460828Y-350196D01*
X1165354Y-83661D02*
X1176559Y-94866D01*
%TF.MD5,b0c49639c2d044a5ad551ac3e2c7308b*%
M02*
