%TF.GenerationSoftware,Altium Limited,DefaultClient, ()*%
G04 Layer_Physical_Order=2*
G04 Layer_Color=6736896*
%FSLAX26Y26*%
%MOIN*%
%TF.SameCoordinates,DAAB6657-3A95-45CE-84E1-7A21F4FC2F2A*%
%TF.FilePolarity,Positive*%
%TF.FileFunction,Copper,L2,Inr,Signal*%
%TF.Part,Single*%
G01*
G75*
%TA.AperFunction,ComponentPad*%
%ADD45C,0.078740*%
%TA.AperFunction,TestPad*%
%ADD46O,0.070866X0.066929*%
%ADD47R,0.070000X0.070000*%
%ADD48C,0.070000*%
%TA.AperFunction,ComponentPad*%
%ADD49O,0.047244X0.055118*%
G04:AMPARAMS|DCode=50|XSize=43.307mil|YSize=82.677mil|CornerRadius=21.654mil|HoleSize=0mil|Usage=FLASHONLY|Rotation=270.000|XOffset=0mil|YOffset=0mil|HoleType=Round|Shape=RoundedRectangle|*
%AMROUNDEDRECTD50*
21,1,0.043307,0.039370,0,0,270.0*
21,1,0.000000,0.082677,0,0,270.0*
1,1,0.043307,-0.019685,0.000000*
1,1,0.043307,-0.019685,0.000000*
1,1,0.043307,0.019685,0.000000*
1,1,0.043307,0.019685,0.000000*
%
%ADD50ROUNDEDRECTD50*%
%TA.AperFunction,TestPad*%
G04:AMPARAMS|DCode=51|XSize=43.307mil|YSize=82.677mil|CornerRadius=21.654mil|HoleSize=0mil|Usage=FLASHONLY|Rotation=270.000|XOffset=0mil|YOffset=0mil|HoleType=Round|Shape=RoundedRectangle|*
%AMROUNDEDRECTD51*
21,1,0.043307,0.039370,0,0,270.0*
21,1,0.000000,0.082677,0,0,270.0*
1,1,0.043307,-0.019685,0.000000*
1,1,0.043307,-0.019685,0.000000*
1,1,0.043307,0.019685,0.000000*
1,1,0.043307,0.019685,0.000000*
%
%ADD51ROUNDEDRECTD51*%
G04:AMPARAMS|DCode=52|XSize=43.307mil|YSize=102.362mil|CornerRadius=21.654mil|HoleSize=0mil|Usage=FLASHONLY|Rotation=270.000|XOffset=0mil|YOffset=0mil|HoleType=Round|Shape=RoundedRectangle|*
%AMROUNDEDRECTD52*
21,1,0.043307,0.059055,0,0,270.0*
21,1,0.000000,0.102362,0,0,270.0*
1,1,0.043307,-0.029528,0.000000*
1,1,0.043307,-0.029528,0.000000*
1,1,0.043307,0.029528,0.000000*
1,1,0.043307,0.029528,0.000000*
%
%ADD52ROUNDEDRECTD52*%
%TA.AperFunction,ViaPad*%
%ADD53C,0.023622*%
%ADD54C,0.017716*%
%ADD55C,0.031496*%
%ADD56C,0.040000*%
G36*
X3127822Y75834D02*
X3129702Y75833D01*
X3131582Y75831D01*
X3133462Y75828D01*
X3135341Y75825D01*
X3137227Y75820D01*
X3137228Y75821D01*
X3139100Y75815D01*
X3140979Y75809D01*
X3142857Y75802D01*
X3144744Y75795D01*
X3144744Y75795D01*
X3146614Y75786D01*
X3148493Y75777D01*
X3150379Y75766D01*
X3152250Y75755D01*
X3154136Y75743D01*
X3156005Y75730D01*
X3156005Y75730D01*
X3157891Y75716D01*
X3159768Y75701D01*
X3161646Y75685D01*
X3163512Y75668D01*
X3163513Y75668D01*
X3166341Y75640D01*
X3166341Y75641D01*
X3169143Y75611D01*
X3171971Y75579D01*
X3174773Y75546D01*
X3174773Y75546D01*
X3177601Y75509D01*
X3180414Y75471D01*
X3183217Y75430D01*
X3186027Y75387D01*
X3188854Y75341D01*
X3188854Y75341D01*
X3191653Y75293D01*
X3194479Y75242D01*
X3197292Y75189D01*
X3200095Y75133D01*
X3202900Y75075D01*
X3205711Y75013D01*
X3208537Y74950D01*
X3211348Y74883D01*
X3214142Y74814D01*
X3214143Y74814D01*
X3216968Y74742D01*
X3216968Y74742D01*
X3219762Y74668D01*
X3222571Y74591D01*
X3225390Y74510D01*
X3228202Y74427D01*
X3231014Y74341D01*
X3231014Y74341D01*
X3233805Y74252D01*
X3233805Y74252D01*
X3236630Y74159D01*
X3239438Y74064D01*
X3242228Y73967D01*
X3245053Y73865D01*
X3247841Y73762D01*
X3247842Y73762D01*
X3250649Y73654D01*
X3253473Y73543D01*
X3257180Y73392D01*
X3264712Y73068D01*
X3264712D01*
X3268416Y72900D01*
X3272157Y72725D01*
X3275923Y72543D01*
X3279664Y72357D01*
X3283397Y72166D01*
X3287124Y71969D01*
X3290866Y71767D01*
X3294630Y71558D01*
X3298349Y71346D01*
X3302099Y71127D01*
X3305854Y70903D01*
X3305855Y70903D01*
X3309575Y70676D01*
X3313316Y70442D01*
X3317058Y70204D01*
X3320820Y69959D01*
X3324541Y69713D01*
X3324541Y69712D01*
X3328299Y69458D01*
X3332044Y69201D01*
X3332044D01*
X3335766Y68940D01*
X3339526Y68672D01*
X3343248Y68402D01*
X3343249Y68402D01*
X3347008Y68125D01*
X3349797Y67916D01*
X3352603Y67704D01*
X3355409Y67490D01*
X3358227Y67271D01*
X3361019Y67053D01*
X3361019Y67053D01*
X3363838Y66830D01*
X3363838D01*
X3366629Y66607D01*
X3369435Y66381D01*
X3372253Y66151D01*
X3375057Y65921D01*
X3375057D01*
X3377849Y65689D01*
X3380666Y65452D01*
X3383457Y65216D01*
X3383458Y65216D01*
X3386274Y64975D01*
X3389079Y64733D01*
X3391882Y64490D01*
X3394675Y64245D01*
X3397478Y63997D01*
X3397478Y63997D01*
X3400293Y63746D01*
X3400293D01*
X3403096Y63494D01*
X3405888Y63241D01*
X3408702Y62984D01*
X3411494Y62727D01*
X3414308Y62467D01*
X3417100Y62206D01*
X3419902Y61943D01*
X3419902Y61943D01*
X3422715Y61676D01*
X3425516Y61409D01*
X3425517D01*
X3428318Y61141D01*
X3431119Y60870D01*
X3433911Y60599D01*
X3436713Y60325D01*
X3439513Y60049D01*
X3439513Y60049D01*
X3442316Y59772D01*
X3444189Y59586D01*
X3446056Y59399D01*
X3447916Y59212D01*
X3449789Y59024D01*
X3449789D01*
X3451649Y58836D01*
X3453515Y58647D01*
X3455383Y58457D01*
X3456319Y58361D01*
X3457252Y58266D01*
X3458180Y58171D01*
X3460045Y57980D01*
X3461909Y57787D01*
X3462845Y57690D01*
X3463777Y57593D01*
X3464704Y57497D01*
X3465639Y57400D01*
X3466571Y57302D01*
X3467497Y57205D01*
X3468432Y57107D01*
X3469358Y57009D01*
X3469358Y57009D01*
X3470293Y56910D01*
X3471217Y56812D01*
X3471217Y56812D01*
X3472152Y56713D01*
X3473081Y56614D01*
X3474010Y56514D01*
X3474933Y56415D01*
X3474934Y56415D01*
X3475868Y56315D01*
X3476796Y56214D01*
X3477718Y56114D01*
X3478650Y56013D01*
X3479579Y55911D01*
X3480502Y55810D01*
X3481435Y55708D01*
X3482360Y55606D01*
X3483280Y55504D01*
X3483280Y55504D01*
X3484207Y55401D01*
X3485140Y55297D01*
X3486060Y55194D01*
X3486992Y55089D01*
X3487908Y54986D01*
X3488835Y54881D01*
X3489767Y54775D01*
X3489767D01*
X3490689Y54670D01*
X3490689D01*
X3491606Y54565D01*
X3492528Y54458D01*
X3493454Y54351D01*
X3494384Y54243D01*
X3494385D01*
X3495298Y54136D01*
X3496229Y54028D01*
X3496229D01*
X3497141Y53920D01*
X3497141Y53920D01*
X3498064Y53811D01*
X3498993Y53701D01*
X3499912Y53591D01*
X3500825Y53482D01*
X3501754Y53370D01*
X3501754D01*
X3502664Y53260D01*
X3502664Y53260D01*
X3503583Y53148D01*
X3504511Y53035D01*
X3505420Y52923D01*
X3506340Y52810D01*
X3507267Y52695D01*
X3507267D01*
X3508172Y52583D01*
X3509090Y52468D01*
X3510017Y52351D01*
X3510934Y52235D01*
X3511838Y52120D01*
X3512764Y52002D01*
X3512764D01*
X3513668Y51886D01*
X3514593Y51767D01*
X3515497Y51650D01*
X3516411Y51531D01*
X3517335Y51409D01*
X3518237Y51291D01*
X3519149Y51170D01*
X3519149Y51170D01*
X3520073Y51047D01*
X3520073D01*
X3520972Y50927D01*
X3521883Y50804D01*
X3522806Y50679D01*
X3522806D01*
X3523715Y50555D01*
X3524613Y50432D01*
X3524613Y50432D01*
X3525523Y50307D01*
X3526444Y50180D01*
X3527351Y50053D01*
X3528247Y49928D01*
X3529153Y49800D01*
X3530061Y49672D01*
X3530980Y49541D01*
X3530980D01*
X3531873Y49413D01*
X3532777Y49283D01*
X3532777Y49283D01*
X3533695Y49150D01*
X3533695D01*
X3535491Y48888D01*
X3537316Y48618D01*
X3539092Y48352D01*
X3540897Y48079D01*
X3542722Y47799D01*
X3544502Y47523D01*
X3546284Y47243D01*
X3548088Y46956D01*
X3549886Y46667D01*
X3551665Y46377D01*
X3553465Y46080D01*
X3555249Y45782D01*
X3557019Y45483D01*
X3558784Y45181D01*
X3560559Y44873D01*
X3562347Y44558D01*
X3564124Y44242D01*
X3565868Y43928D01*
X3567669Y43599D01*
X3569398Y43279D01*
X3571165Y42948D01*
X3572951Y42609D01*
X3574691Y42274D01*
X3576435Y41934D01*
X3578170Y41592D01*
X3579956Y41234D01*
X3581661Y40889D01*
X3583443Y40523D01*
X3585146Y40168D01*
X3586890Y39800D01*
X3588651Y39424D01*
X3590338Y39059D01*
X3592091Y38674D01*
X3593820Y38290D01*
X3595523Y37906D01*
X3597259Y37509D01*
X3598953Y37117D01*
X3600695Y36708D01*
X3602373Y36309D01*
X3604111Y35891D01*
X3605778Y35484D01*
X3607504Y35056D01*
X3609189Y34634D01*
X3610901Y34199D01*
X3612567Y33770D01*
X3614276Y33324D01*
X3615954Y32880D01*
X3617622Y32433D01*
X3619316Y31973D01*
X3620983Y31513D01*
X3622664Y31044D01*
X3624339Y30571D01*
X3625968Y30104D01*
X3627652Y29615D01*
X3629320Y29124D01*
X3630962Y28634D01*
X3632606Y28137D01*
X3634272Y27627D01*
X3635913Y27118D01*
X3637543Y26605D01*
X3639194Y26079D01*
X3640813Y25556D01*
X3644084Y24479D01*
X3647337Y23379D01*
X3650561Y22261D01*
X3653783Y21114D01*
X3656988Y19944D01*
X3660184Y18747D01*
X3663361Y17527D01*
X3667321Y15964D01*
X3671258Y14362D01*
X3675177Y12718D01*
X3679071Y11034D01*
X3682971Y9297D01*
X3685258Y8254D01*
X3687580Y7177D01*
X3689876Y6092D01*
X3692157Y4995D01*
X3693678Y4253D01*
X3695191Y3506D01*
X3696680Y2762D01*
X3698193Y1996D01*
X3699685Y1233D01*
X3701179Y459D01*
X3702651Y-313D01*
X3704145Y-1106D01*
X3705595Y-1885D01*
X3707048Y-2675D01*
X3708517Y-3484D01*
X3709963Y-4290D01*
X3711389Y-5095D01*
X3712819Y-5912D01*
X3714238Y-6734D01*
X3715645Y-7559D01*
X3717053Y-8395D01*
X3718438Y-9229D01*
X3719821Y-10072D01*
X3721198Y-10922D01*
X3721858Y-11334D01*
X3722563Y-11776D01*
X3723205Y-12182D01*
X3723885Y-12615D01*
X3724577Y-13059D01*
X3725246Y-13490D01*
X3725903Y-13917D01*
X3726547Y-14338D01*
X3727877Y-15218D01*
X3729192Y-16099D01*
X3730487Y-16980D01*
X3731765Y-17862D01*
X3733056Y-18766D01*
X3734326Y-19669D01*
X3735575Y-20570D01*
X3736834Y-21492D01*
X3738067Y-22408D01*
X3739294Y-23335D01*
X3740526Y-24278D01*
X3741743Y-25227D01*
X3742935Y-26169D01*
X3744738Y-27622D01*
X3746510Y-29086D01*
X3748263Y-30569D01*
X3750638Y-32635D01*
X3751094Y-33037D01*
X3752095Y-33935D01*
X3753089Y-34839D01*
X3754084Y-35757D01*
X3754576Y-36218D01*
X3755149Y-36756D01*
X3755696Y-37273D01*
X3756262Y-37813D01*
X3756826Y-38356D01*
X3757380Y-38892D01*
X3757954Y-39454D01*
X3758511Y-40002D01*
X3759065Y-40550D01*
X3759622Y-41106D01*
X3760178Y-41665D01*
X3760733Y-42227D01*
X3761286Y-42791D01*
X3761832Y-43352D01*
X3762379Y-43917D01*
X3762928Y-44489D01*
X3763483Y-45070D01*
X3764041Y-45659D01*
X3764569Y-46220D01*
X3765129Y-46818D01*
X3765679Y-47410D01*
X3766216Y-47990D01*
X3766787Y-48612D01*
X3767117Y-48854D01*
X3767348Y-49193D01*
X3771418Y-53201D01*
X3772468Y-53891D01*
X3773327Y-54808D01*
X3782599Y-61457D01*
X3784118Y-62147D01*
X3785485Y-63104D01*
X3795928Y-67702D01*
X3797557Y-68063D01*
X3799092Y-68719D01*
X3810257Y-71068D01*
X3811513Y-71082D01*
X3812731Y-71390D01*
X3818435Y-71686D01*
X3818853Y-71625D01*
X3819267Y-71708D01*
X3899099D01*
X3909688Y-73814D01*
X3919663Y-77946D01*
X3928640Y-83944D01*
X3936275Y-91579D01*
X3942273Y-100555D01*
X3946405Y-110531D01*
X3948511Y-121120D01*
Y-126518D01*
Y-469086D01*
Y-473995D01*
X3946766Y-483658D01*
X3943332Y-492856D01*
X3938317Y-501298D01*
X3935100Y-505006D01*
X3934912Y-505335D01*
X3934624Y-505581D01*
X3931451Y-509601D01*
X3930938Y-510606D01*
X3930190Y-511450D01*
X3925029Y-520284D01*
X3924540Y-521701D01*
X3923770Y-522986D01*
X3920331Y-532623D01*
X3920112Y-534105D01*
X3919593Y-535511D01*
X3917994Y-545618D01*
X3918039Y-546745D01*
X3917799Y-547846D01*
X3917710Y-552967D01*
X3917773Y-553319D01*
X3917713Y-553672D01*
X3918202Y-572187D01*
X3918529Y-587218D01*
X3918758Y-599933D01*
X3918928Y-611544D01*
X3919051Y-621965D01*
X3919145Y-632451D01*
X3919204Y-641759D01*
X3919241Y-651093D01*
X3919255Y-659281D01*
X3919252Y-667447D01*
X3919233Y-675689D01*
X3919134Y-693283D01*
X3918663Y-731205D01*
X3918468Y-742649D01*
X3917948Y-765605D01*
X3917301Y-788558D01*
X3916526Y-811490D01*
X3916073Y-822966D01*
X3915059Y-846889D01*
X3914026Y-868395D01*
X3912743Y-892256D01*
X3911240Y-917313D01*
X3909576Y-942351D01*
X3907662Y-968534D01*
X3905468Y-995892D01*
X3902965Y-1024447D01*
X3901860Y-1036325D01*
X3901408Y-1041063D01*
X3900948Y-1045821D01*
X3900484Y-1050549D01*
X3900011Y-1055318D01*
X3899533Y-1060062D01*
X3899050Y-1064789D01*
X3898559Y-1069537D01*
X3898060Y-1074301D01*
X3897432Y-1080204D01*
X3896787Y-1086157D01*
X3896138Y-1092060D01*
X3895474Y-1097989D01*
X3894801Y-1103910D01*
X3894115Y-1109846D01*
X3893422Y-1115742D01*
X3892715Y-1121665D01*
X3891996Y-1127591D01*
X3891267Y-1133495D01*
X3890528Y-1139390D01*
X3889774Y-1145314D01*
X3889011Y-1151207D01*
X3888238Y-1157092D01*
X3887451Y-1162982D01*
X3886647Y-1168910D01*
X3885837Y-1174789D01*
X3885014Y-1180671D01*
X3884175Y-1186569D01*
X3883326Y-1192456D01*
X3882468Y-1198308D01*
X3881588Y-1204221D01*
X3880703Y-1210076D01*
X3879803Y-1215945D01*
X3878887Y-1221822D01*
X3877776Y-1228839D01*
X3876641Y-1235880D01*
X3875483Y-1242937D01*
X3874311Y-1249953D01*
X3873123Y-1256946D01*
X3871908Y-1263966D01*
X3870675Y-1270972D01*
X3869417Y-1277996D01*
X3868150Y-1284949D01*
X3866851Y-1291955D01*
X3865536Y-1298929D01*
X3864191Y-1305939D01*
X3862840Y-1312867D01*
X3861449Y-1319878D01*
X3860049Y-1326816D01*
X3858628Y-1333746D01*
X3857175Y-1340714D01*
X3855701Y-1347665D01*
X3854209Y-1354591D01*
X3852693Y-1361510D01*
X3850895Y-1369577D01*
X3849060Y-1377655D01*
X3847470Y-1384532D01*
X3846114Y-1390315D01*
X3844754Y-1396036D01*
X3843374Y-1401763D01*
X3841974Y-1407501D01*
X3840557Y-1413231D01*
X3839125Y-1418945D01*
X3837677Y-1424646D01*
X3836206Y-1430360D01*
X3834720Y-1436059D01*
X3833216Y-1441752D01*
X3831691Y-1447449D01*
X3830159Y-1453100D01*
X3828278Y-1459934D01*
X3826380Y-1466726D01*
X3824453Y-1473511D01*
X3822501Y-1480281D01*
X3820517Y-1487054D01*
X3818501Y-1493829D01*
X3816468Y-1500555D01*
X3814402Y-1507288D01*
X3812305Y-1514016D01*
X3810180Y-1520729D01*
X3808028Y-1527422D01*
X3805848Y-1534100D01*
X3803632Y-1540784D01*
X3801387Y-1547453D01*
X3799114Y-1554100D01*
X3796810Y-1560739D01*
X3794478Y-1567355D01*
X3792110Y-1573973D01*
X3789712Y-1580573D01*
X3787283Y-1587157D01*
X3784411Y-1594816D01*
X3781497Y-1602450D01*
X3778527Y-1610095D01*
X3775529Y-1617678D01*
X3772477Y-1625262D01*
X3769376Y-1632835D01*
X3766239Y-1640364D01*
X3763049Y-1647888D01*
X3759816Y-1655382D01*
X3756524Y-1662879D01*
X3753199Y-1670322D01*
X3749333Y-1678817D01*
X3745406Y-1687277D01*
X3741412Y-1695711D01*
X3737352Y-1704118D01*
X3734250Y-1710431D01*
X3730702Y-1717600D01*
X3722905Y-1731683D01*
X3714470Y-1745388D01*
X3705410Y-1758693D01*
X3700607Y-1765093D01*
X3695665Y-1771620D01*
X3690967Y-1777719D01*
X3686517Y-1783402D01*
X3682159Y-1788883D01*
X3677923Y-1794130D01*
X3673788Y-1799176D01*
X3669615Y-1804194D01*
X3665562Y-1808999D01*
X3661633Y-1813591D01*
X3657661Y-1818170D01*
X3653827Y-1822530D01*
X3649961Y-1826866D01*
X3646221Y-1831005D01*
X3642455Y-1835118D01*
X3638830Y-1839026D01*
X3635170Y-1842920D01*
X3631512Y-1846763D01*
X3627651Y-1850764D01*
X3623608Y-1854896D01*
X3619372Y-1859160D01*
X3615117Y-1863379D01*
X3610653Y-1867736D01*
X3606163Y-1872049D01*
X3601480Y-1876472D01*
X3596591Y-1881009D01*
X3591658Y-1885507D01*
X3586519Y-1890107D01*
X3581166Y-1894806D01*
X3575593Y-1899601D01*
X3569619Y-1904631D01*
X3563420Y-1909734D01*
X3556760Y-1915086D01*
X3555335Y-1916217D01*
X3552412Y-1918512D01*
X3549448Y-1920812D01*
X3546501Y-1923075D01*
X3545039Y-1924184D01*
X3541327Y-1926983D01*
X3538566Y-1929041D01*
X3535092Y-1931616D01*
X3527305Y-1935415D01*
X3518956Y-1937725D01*
X3510323Y-1938467D01*
X3501701Y-1937617D01*
X3493381Y-1935203D01*
X3485643Y-1931307D01*
X3478748Y-1926061D01*
X3472930Y-1919641D01*
X3468386Y-1912265D01*
X3465268Y-1904182D01*
X3463682Y-1895664D01*
Y-1891332D01*
X3463620Y-1891023D01*
X3463670Y-1890711D01*
X3463418Y-1884210D01*
X3463189Y-1883254D01*
X3463225Y-1882273D01*
X3461220Y-1869850D01*
X3460770Y-1868639D01*
X3460610Y-1867357D01*
X3456652Y-1855412D01*
X3456014Y-1854289D01*
X3455653Y-1853049D01*
X3449842Y-1841886D01*
X3449034Y-1840879D01*
X3448479Y-1839712D01*
X3440965Y-1829618D01*
X3440006Y-1828752D01*
X3439273Y-1827689D01*
X3430246Y-1818921D01*
X3429162Y-1818219D01*
X3428268Y-1817286D01*
X3417960Y-1810068D01*
X3416778Y-1809548D01*
X3415747Y-1808769D01*
X3404421Y-1803285D01*
X3403170Y-1802960D01*
X3402029Y-1802355D01*
X3389974Y-1798746D01*
X3388688Y-1798624D01*
X3387464Y-1798209D01*
X3374988Y-1796566D01*
X3373699Y-1796651D01*
X3372425Y-1796436D01*
X3359847Y-1796802D01*
X3358587Y-1797091D01*
X3357296Y-1797081D01*
X3344936Y-1799446D01*
X3344035Y-1799812D01*
X3343070Y-1799921D01*
X3337071Y-1801836D01*
X3336786Y-1801994D01*
X3336463Y-1802044D01*
X3141678Y-1872940D01*
X3141412Y-1873102D01*
X3141106Y-1873161D01*
X3132757Y-1876566D01*
X3131982Y-1877077D01*
X3131097Y-1877356D01*
X3115299Y-1886024D01*
X3114354Y-1886816D01*
X3113247Y-1887362D01*
X3098952Y-1898332D01*
X3098138Y-1899259D01*
X3097127Y-1899967D01*
X3084666Y-1912984D01*
X3084004Y-1914024D01*
X3083112Y-1914878D01*
X3072777Y-1929639D01*
X3072280Y-1930768D01*
X3071529Y-1931746D01*
X3063559Y-1947908D01*
X3063240Y-1949100D01*
X3062646Y-1950181D01*
X3057227Y-1967367D01*
X3057093Y-1968593D01*
X3056671Y-1969753D01*
X3053930Y-1987563D01*
X3053970Y-1988490D01*
X3053755Y-1989392D01*
X3053411Y-1998402D01*
X3053460Y-1998710D01*
X3053399Y-1999015D01*
Y-2066937D01*
X3050648Y-2083524D01*
X3045219Y-2099437D01*
X3037260Y-2114247D01*
X3026984Y-2127555D01*
X3014670Y-2139002D01*
X3000648Y-2148280D01*
X2985297Y-2155138D01*
X2977175Y-2157262D01*
X2970595Y-2158977D01*
X2964869Y-2160461D01*
X2959116Y-2161944D01*
X2953371Y-2163416D01*
X2947628Y-2164881D01*
X2941875Y-2166340D01*
X2936153Y-2167783D01*
X2924644Y-2170663D01*
X2912262Y-2173728D01*
X2900740Y-2176549D01*
X2889230Y-2179337D01*
X2877681Y-2182105D01*
X2866097Y-2184853D01*
X2854566Y-2187559D01*
X2842968Y-2190253D01*
X2831424Y-2192905D01*
X2819804Y-2195548D01*
X2808246Y-2198148D01*
X2797467Y-2200549D01*
X2786681Y-2202929D01*
X2775883Y-2205287D01*
X2765126Y-2207615D01*
X2754311Y-2209932D01*
X2743531Y-2212219D01*
X2732695Y-2214496D01*
X2721914Y-2216740D01*
X2711902Y-2218805D01*
X2706929Y-2219823D01*
X2706929D01*
X2701921Y-2220845D01*
X2696938Y-2221857D01*
X2691928Y-2222869D01*
X2686943Y-2223873D01*
X2686943D01*
X2681930Y-2224878D01*
X2676943Y-2225873D01*
X2671928Y-2226870D01*
X2671928Y-2226870D01*
X2666939Y-2227857D01*
X2661922Y-2228846D01*
X2656930Y-2229826D01*
X2651911Y-2230807D01*
X2646916Y-2231779D01*
X2641896Y-2232752D01*
X2637723Y-2233558D01*
X2633549Y-2234362D01*
X2629373Y-2235163D01*
X2625206Y-2235960D01*
X2621019Y-2236759D01*
X2616841Y-2237552D01*
X2612672Y-2238342D01*
X2612672D01*
X2608483Y-2239133D01*
X2604303Y-2239920D01*
X2600132Y-2240703D01*
X2595941Y-2241486D01*
X2595941Y-2241487D01*
X2591768Y-2242265D01*
X2591768D01*
X2587577Y-2243044D01*
X2583402Y-2243818D01*
X2579218Y-2244591D01*
X2575024Y-2245364D01*
X2570847Y-2246131D01*
X2566661Y-2246898D01*
X2562474Y-2247663D01*
X2558278Y-2248427D01*
X2558278Y-2248427D01*
X2554090Y-2249188D01*
X2554090Y-2249188D01*
X2550740Y-2249794D01*
X2547395Y-2250399D01*
X2547395D01*
X2544037Y-2251005D01*
X2540685Y-2251608D01*
X2537338Y-2252209D01*
X2537338D01*
X2533985Y-2252810D01*
X2530626Y-2253410D01*
X2530625Y-2253410D01*
X2527272Y-2254009D01*
X2523923Y-2254605D01*
X2523923D01*
X2520564Y-2255202D01*
X2517208Y-2255797D01*
X2513852Y-2256390D01*
X2510496Y-2256983D01*
X2507146Y-2257574D01*
X2503783Y-2258165D01*
X2500427Y-2258754D01*
X2497069Y-2259343D01*
X2493712Y-2259930D01*
X2490359Y-2260515D01*
X2486155Y-2261247D01*
X2479435Y-2262414D01*
X2472725Y-2263575D01*
X2466004Y-2264733D01*
X2459272Y-2265889D01*
X2452558Y-2267038D01*
X2445829Y-2268185D01*
X2439107Y-2269327D01*
X2433221Y-2270323D01*
X2427333Y-2271317D01*
X2421437Y-2272309D01*
X2415548Y-2273297D01*
X2409666Y-2274281D01*
X2409666D01*
X2403776Y-2275264D01*
X2403776D01*
X2397877Y-2276244D01*
X2391992Y-2277220D01*
X2386099Y-2278194D01*
X2380198Y-2279167D01*
X2374310Y-2280134D01*
X2374310D01*
X2368407Y-2281102D01*
X2362518Y-2282064D01*
X2356614Y-2283026D01*
X2350716Y-2283985D01*
X2344818Y-2284941D01*
X2339768Y-2285757D01*
X2339768D01*
X2334705Y-2286573D01*
X2329648Y-2287387D01*
X2324595Y-2288198D01*
X2319531Y-2289010D01*
X2314473Y-2289818D01*
X2309413Y-2290625D01*
X2309413Y-2290625D01*
X2304359Y-2291429D01*
X2304359D01*
X2299299Y-2292232D01*
X2299299D01*
X2294233Y-2293035D01*
X2289176Y-2293834D01*
X2284115Y-2294633D01*
X2279048Y-2295430D01*
X2273986Y-2296225D01*
X2268928Y-2297018D01*
X2268928D01*
X2263860Y-2297811D01*
X2258796Y-2298602D01*
X2254581Y-2299259D01*
X2250360Y-2299915D01*
X2246140Y-2300571D01*
X2241915Y-2301226D01*
X2237695Y-2301879D01*
X2233477Y-2302531D01*
X2233477D01*
X2229252Y-2303183D01*
X2225030Y-2303834D01*
X2220813Y-2304483D01*
X2220812D01*
X2216586Y-2305132D01*
X2212364Y-2305779D01*
X2208145Y-2306425D01*
X2203923Y-2307071D01*
X2199696Y-2307716D01*
X2199696Y-2307716D01*
X2195477Y-2308360D01*
X2191254Y-2309003D01*
X2187030Y-2309645D01*
X2182803Y-2310286D01*
X2178579Y-2310927D01*
X2174359Y-2311566D01*
X2174358D01*
X2170977Y-2312077D01*
X2167600Y-2312587D01*
X2164220Y-2313097D01*
X2160841Y-2313606D01*
X2157458Y-2314115D01*
X2154079Y-2314623D01*
X2150702Y-2315131D01*
X2147319Y-2315638D01*
X2147319Y-2315638D01*
X2143941Y-2316145D01*
X2141405Y-2316525D01*
X2141405D01*
X2134717Y-2317526D01*
X2121222Y-2316630D01*
X2108229Y-2312876D01*
X2096336Y-2306438D01*
X2086088Y-2297611D01*
X2077960Y-2286802D01*
X2072323Y-2274507D01*
X2069439Y-2261294D01*
Y-2254532D01*
Y-2079486D01*
X2069384Y-2079210D01*
X2069429Y-2078932D01*
X2069147Y-2070778D01*
X2068955Y-2069960D01*
X2069004Y-2069121D01*
X2066758Y-2052970D01*
X2066391Y-2051915D01*
X2066302Y-2050801D01*
X2061853Y-2035113D01*
X2061344Y-2034118D01*
X2061102Y-2033027D01*
X2054535Y-2018102D01*
X2053894Y-2017187D01*
X2053504Y-2016139D01*
X2044944Y-2002261D01*
X2044183Y-2001442D01*
X2043652Y-2000459D01*
X2033262Y-1987891D01*
X2032396Y-1987186D01*
X2031735Y-1986284D01*
X2019713Y-1975268D01*
X2018757Y-1974688D01*
X2017978Y-1973887D01*
X2004553Y-1964631D01*
X2003527Y-1964188D01*
X2002646Y-1963502D01*
X1988074Y-1956184D01*
X1986997Y-1955887D01*
X1986029Y-1955328D01*
X1970588Y-1950086D01*
X1969480Y-1949940D01*
X1968445Y-1949520D01*
X1952429Y-1946455D01*
X1951311Y-1946464D01*
X1950228Y-1946190D01*
X1933942Y-1945360D01*
X1933111Y-1945482D01*
X1932279Y-1945362D01*
X1924132Y-1945792D01*
X1923859Y-1945861D01*
X1923579Y-1945831D01*
X1746211Y-1961348D01*
X1745848Y-1961454D01*
X1745471Y-1961430D01*
X1736068Y-1962694D01*
X1735004Y-1963059D01*
X1733882Y-1963145D01*
X1715628Y-1968250D01*
X1714295Y-1968926D01*
X1712851Y-1969312D01*
X1695851Y-1977696D01*
X1694665Y-1978606D01*
X1693318Y-1979252D01*
X1678155Y-1990627D01*
X1677157Y-1991739D01*
X1675952Y-1992623D01*
X1663146Y-2006598D01*
X1662370Y-2007876D01*
X1661349Y-2008967D01*
X1651339Y-2025063D01*
X1650813Y-2026462D01*
X1650010Y-2027723D01*
X1643140Y-2045389D01*
X1642880Y-2046861D01*
X1642323Y-2048248D01*
X1638828Y-2066878D01*
X1638841Y-2068003D01*
X1638570Y-2069095D01*
X1638131Y-2078572D01*
X1638187Y-2078945D01*
X1638113Y-2079316D01*
Y-2109234D01*
X1638129Y-2109311D01*
X1638114Y-2109388D01*
X1638164Y-2114534D01*
X1638212Y-2114764D01*
X1638175Y-2114997D01*
X1638570Y-2125279D01*
X1638643Y-2125584D01*
X1638606Y-2125895D01*
X1639396Y-2136155D01*
X1639481Y-2136458D01*
X1639455Y-2136770D01*
X1640639Y-2146992D01*
X1640712Y-2147216D01*
X1640699Y-2147451D01*
X1641439Y-2152543D01*
X1641465Y-2152617D01*
X1641461Y-2152695D01*
X1643288Y-2164484D01*
X1644373Y-2188317D01*
X1642878Y-2212127D01*
X1638818Y-2235637D01*
X1632241Y-2258570D01*
X1623225Y-2280659D01*
X1611876Y-2301644D01*
X1598326Y-2321280D01*
X1582732Y-2339337D01*
X1565281Y-2355603D01*
X1546172Y-2369889D01*
X1525633Y-2382027D01*
X1517927Y-2385519D01*
X118110Y-2385519D01*
X111421Y-2385519D01*
X98158Y-2383773D01*
X85235Y-2380310D01*
X72876Y-2375191D01*
X61290Y-2368502D01*
X50677Y-2360358D01*
X41217Y-2350898D01*
X33073Y-2340285D01*
X26384Y-2328699D01*
X21265Y-2316340D01*
X17802Y-2303417D01*
X16056Y-2290153D01*
Y-2283465D01*
X16054Y-1655512D01*
X16054Y-1624425D01*
X16149Y-1615304D01*
X18727Y-1597069D01*
X23648Y-1579324D01*
X30828Y-1562366D01*
X40147Y-1546481D01*
X51445Y-1531940D01*
X64535Y-1518986D01*
X79193Y-1507839D01*
X95174Y-1498686D01*
X112206Y-1491683D01*
X130002Y-1486948D01*
X148262Y-1484560D01*
X157470Y-1484560D01*
X409449D01*
X409971Y-1484456D01*
X410498Y-1484526D01*
X414609Y-1484256D01*
X416137Y-1483847D01*
X417716Y-1483744D01*
X425657Y-1481616D01*
X427541Y-1480687D01*
X429530Y-1480012D01*
X436650Y-1475900D01*
X438229Y-1474516D01*
X439976Y-1473349D01*
X445790Y-1467535D01*
X446957Y-1465789D01*
X448341Y-1464209D01*
X452452Y-1457089D01*
X453127Y-1455100D01*
X454056Y-1453216D01*
X456184Y-1445274D01*
X456322Y-1443179D01*
X456731Y-1441119D01*
Y-1432897D01*
X456322Y-1430837D01*
X456184Y-1428741D01*
X454056Y-1420799D01*
X453128Y-1418916D01*
X452452Y-1416927D01*
X448341Y-1409806D01*
X446957Y-1408227D01*
X445790Y-1406481D01*
X439976Y-1400667D01*
X438229Y-1399500D01*
X436650Y-1398115D01*
X429530Y-1394005D01*
X427541Y-1393329D01*
X425657Y-1392400D01*
X417715Y-1390272D01*
X416138Y-1390169D01*
X414610Y-1389760D01*
X410499Y-1389490D01*
X409971Y-1389560D01*
X409449Y-1389456D01*
X146350D01*
X124363Y-1385974D01*
X103192Y-1379095D01*
X83358Y-1368989D01*
X65349Y-1355904D01*
X49608Y-1340164D01*
X36523Y-1322154D01*
X26417Y-1302319D01*
X19538Y-1281149D01*
X16056Y-1259162D01*
Y-1236901D01*
X19538Y-1214915D01*
X26417Y-1193744D01*
X36523Y-1173909D01*
X49608Y-1155900D01*
X65348Y-1140159D01*
X83358Y-1127074D01*
X103193Y-1116968D01*
X124363Y-1110090D01*
X146350Y-1106607D01*
X409449D01*
X409971Y-1106503D01*
X410499Y-1106573D01*
X414610Y-1106303D01*
X416137Y-1105894D01*
X417716Y-1105791D01*
X425657Y-1103663D01*
X427541Y-1102734D01*
X429530Y-1102059D01*
X436650Y-1097948D01*
X438229Y-1096563D01*
X439976Y-1095396D01*
X445790Y-1089582D01*
X446957Y-1087836D01*
X448341Y-1086257D01*
X452452Y-1079136D01*
X453127Y-1077148D01*
X454056Y-1075264D01*
X456184Y-1067322D01*
X456322Y-1065226D01*
X456731Y-1063166D01*
Y-1054944D01*
X456322Y-1052884D01*
X456184Y-1050789D01*
X454056Y-1042847D01*
X453128Y-1040963D01*
X452452Y-1038974D01*
X448341Y-1031854D01*
X446957Y-1030274D01*
X445790Y-1028528D01*
X439976Y-1022714D01*
X438229Y-1021547D01*
X436650Y-1020163D01*
X429530Y-1016052D01*
X427541Y-1015377D01*
X425657Y-1014448D01*
X417715Y-1012320D01*
X416137Y-1012216D01*
X414610Y-1011807D01*
X410499Y-1011538D01*
X409971Y-1011607D01*
X409449Y-1011503D01*
X157481D01*
X146350Y-1011503D01*
X124363Y-1008021D01*
X103192Y-1001142D01*
X83358Y-991036D01*
X65349Y-977951D01*
X49608Y-962211D01*
X36523Y-944201D01*
X26417Y-924366D01*
X19538Y-903196D01*
X16056Y-881209D01*
Y-858948D01*
X19538Y-836962D01*
X26417Y-815791D01*
X36523Y-795957D01*
X49608Y-777947D01*
X65348Y-762207D01*
X83358Y-749122D01*
X103193Y-739015D01*
X124363Y-732137D01*
X146350Y-728654D01*
X409449D01*
X409971Y-728551D01*
X410498Y-728620D01*
X414609Y-728351D01*
X416137Y-727942D01*
X417716Y-727838D01*
X425657Y-725710D01*
X427541Y-724781D01*
X429530Y-724106D01*
X436650Y-719995D01*
X438229Y-718610D01*
X439976Y-717443D01*
X445790Y-711629D01*
X446957Y-709883D01*
X448341Y-708304D01*
X452452Y-701183D01*
X453127Y-699195D01*
X454056Y-697311D01*
X456184Y-689369D01*
X456322Y-687273D01*
X456731Y-685213D01*
Y-676991D01*
X456322Y-674932D01*
X456184Y-672836D01*
X454056Y-664894D01*
X453128Y-663010D01*
X452452Y-661021D01*
X448341Y-653901D01*
X446957Y-652322D01*
X445790Y-650575D01*
X439976Y-644762D01*
X438229Y-643595D01*
X436650Y-642210D01*
X429530Y-638099D01*
X427541Y-637424D01*
X425657Y-636495D01*
X417715Y-634367D01*
X416138Y-634264D01*
X414610Y-633854D01*
X410499Y-633585D01*
X409971Y-633654D01*
X409449Y-633550D01*
X146350D01*
X124363Y-630068D01*
X103192Y-623189D01*
X83358Y-613083D01*
X65349Y-599999D01*
X49608Y-584258D01*
X36523Y-566248D01*
X26417Y-546414D01*
X19538Y-525243D01*
X16056Y-503257D01*
Y-480995D01*
X19538Y-459009D01*
X26417Y-437838D01*
X36523Y-418004D01*
X49608Y-399994D01*
X65348Y-384254D01*
X83358Y-371169D01*
X103193Y-361063D01*
X124363Y-354184D01*
X146350Y-350702D01*
X409449D01*
X409971Y-350598D01*
X410499Y-350667D01*
X414610Y-350398D01*
X416137Y-349989D01*
X417716Y-349885D01*
X425657Y-347757D01*
X427541Y-346828D01*
X429530Y-346153D01*
X436650Y-342042D01*
X438229Y-340657D01*
X439976Y-339490D01*
X445790Y-333677D01*
X446957Y-331930D01*
X448341Y-330351D01*
X452452Y-323231D01*
X453127Y-321242D01*
X454056Y-319358D01*
X456184Y-311416D01*
X456322Y-309320D01*
X456731Y-307261D01*
Y-299039D01*
X456322Y-296979D01*
X456184Y-294883D01*
X454056Y-286941D01*
X453128Y-285058D01*
X452452Y-283069D01*
X448341Y-275948D01*
X446957Y-274369D01*
X445790Y-272623D01*
X439976Y-266809D01*
X438229Y-265642D01*
X436650Y-264257D01*
X429530Y-260146D01*
X427541Y-259471D01*
X425658Y-258542D01*
X420389Y-257130D01*
X420389D01*
X417715Y-256414D01*
X416138Y-256311D01*
X414610Y-255901D01*
X410499Y-255632D01*
X409971Y-255701D01*
X409449Y-255597D01*
X78740D01*
X72566Y-255598D01*
X60456Y-253189D01*
X49048Y-248463D01*
X38782Y-241604D01*
X30050Y-232872D01*
X23190Y-222605D01*
X18465Y-211198D01*
X16056Y-199087D01*
Y-192913D01*
Y-78740D01*
Y-72566D01*
X18465Y-60456D01*
X23190Y-49048D01*
X30050Y-38782D01*
X38781Y-30050D01*
X49048Y-23190D01*
X60456Y-18465D01*
X72566Y-16056D01*
X78740Y-16056D01*
X1456693Y-16056D01*
X1465963D01*
X1484342Y-18476D01*
X1502250Y-23274D01*
X1519378Y-30369D01*
X1535432Y-39638D01*
X1550140Y-50924D01*
X1563249Y-64033D01*
X1574535Y-78741D01*
X1583805Y-94796D01*
X1590899Y-111924D01*
X1595697Y-129831D01*
X1598117Y-148211D01*
Y-157480D01*
Y-629921D01*
Y-639191D01*
X1595697Y-657571D01*
X1590899Y-675479D01*
X1583805Y-692606D01*
X1574535Y-708661D01*
X1563250Y-723369D01*
X1550141Y-736478D01*
X1535432Y-747764D01*
X1519378Y-757033D01*
X1502250Y-764128D01*
X1484342Y-768926D01*
X1465963Y-771346D01*
X1426589D01*
Y-736221D01*
X1425284Y-729661D01*
X1421569Y-724101D01*
X1416008Y-720385D01*
X1409449Y-719080D01*
X1251968D01*
X1245409Y-720385D01*
X1239849Y-724101D01*
X1236133Y-729661D01*
X1234828Y-736221D01*
Y-771346D01*
X778132D01*
X759752Y-768926D01*
X741844Y-764128D01*
X724717Y-757033D01*
X708662Y-747764D01*
X693954Y-736478D01*
X680845Y-723369D01*
X669559Y-708661D01*
X660290Y-692606D01*
X653195Y-675478D01*
X648397Y-657571D01*
X645977Y-639191D01*
Y-629921D01*
Y-303150D01*
X645873Y-302627D01*
X645943Y-302100D01*
X645673Y-297989D01*
X645264Y-296461D01*
X645161Y-294883D01*
X643033Y-286941D01*
X642104Y-285058D01*
X641429Y-283069D01*
X637318Y-275948D01*
X635933Y-274369D01*
X634766Y-272623D01*
X628952Y-266809D01*
X627206Y-265642D01*
X625627Y-264257D01*
X618506Y-260146D01*
X616518Y-259471D01*
X614634Y-258542D01*
X606692Y-256414D01*
X604596Y-256277D01*
X602536Y-255867D01*
X594314D01*
X592255Y-256277D01*
X590159Y-256414D01*
X582217Y-258542D01*
X580333Y-259471D01*
X578344Y-260146D01*
X571224Y-264257D01*
X569645Y-265642D01*
X567898Y-266809D01*
X562084Y-272623D01*
X560918Y-274369D01*
X559533Y-275948D01*
X555422Y-283069D01*
X554747Y-285057D01*
X553818Y-286941D01*
X551690Y-294883D01*
X551586Y-296461D01*
X551177Y-297989D01*
X550908Y-302100D01*
X550977Y-302627D01*
X550873Y-303150D01*
Y-312419D01*
X548453Y-330799D01*
X543655Y-348707D01*
X536561Y-365834D01*
X527291Y-381889D01*
X516005Y-396597D01*
X502897Y-409706D01*
X488188Y-420992D01*
X472134Y-430261D01*
X455005Y-437356D01*
X437098Y-442154D01*
X418719Y-444574D01*
X157480D01*
X156958Y-444678D01*
X156430Y-444608D01*
X152319Y-444878D01*
X150792Y-445287D01*
X149214Y-445390D01*
X141272Y-447519D01*
X139388Y-448447D01*
X137399Y-449123D01*
X130279Y-453233D01*
X128700Y-454618D01*
X126953Y-455785D01*
X121139Y-461599D01*
X119973Y-463345D01*
X118588Y-464925D01*
X114477Y-472045D01*
X113802Y-474034D01*
X112873Y-475918D01*
X110745Y-483860D01*
X110607Y-485955D01*
X110198Y-488015D01*
Y-496237D01*
X110607Y-498297D01*
X110745Y-500393D01*
X112873Y-508335D01*
X113802Y-510218D01*
X114477Y-512207D01*
X118588Y-519328D01*
X119973Y-520907D01*
X121139Y-522653D01*
X126953Y-528467D01*
X128700Y-529634D01*
X130279Y-531019D01*
X137399Y-535130D01*
X139388Y-535805D01*
X141272Y-536734D01*
X149214Y-538862D01*
X150792Y-538965D01*
X152320Y-539374D01*
X156431Y-539644D01*
X156958Y-539574D01*
X157480Y-539678D01*
X409449D01*
X420579Y-539678D01*
X442566Y-543160D01*
X463737Y-550039D01*
X483571Y-560145D01*
X501580Y-573230D01*
X517321Y-588971D01*
X530406Y-606980D01*
X540512Y-626815D01*
X547391Y-647985D01*
X550873Y-669972D01*
Y-692233D01*
X547391Y-714220D01*
X540512Y-735390D01*
X530406Y-755225D01*
X517321Y-773234D01*
X501581Y-788975D01*
X483571Y-802060D01*
X463737Y-812166D01*
X442566Y-819044D01*
X420579Y-822527D01*
X157480D01*
X156958Y-822631D01*
X156430Y-822561D01*
X152320Y-822831D01*
X150792Y-823240D01*
X149214Y-823343D01*
X141272Y-825471D01*
X139388Y-826400D01*
X137399Y-827075D01*
X130279Y-831186D01*
X128700Y-832571D01*
X126953Y-833738D01*
X121139Y-839552D01*
X119973Y-841298D01*
X118588Y-842877D01*
X114477Y-849998D01*
X113802Y-851986D01*
X112873Y-853870D01*
X110745Y-861812D01*
X110607Y-863908D01*
X110198Y-865968D01*
Y-874190D01*
X110607Y-876250D01*
X110745Y-878345D01*
X112873Y-886287D01*
X113802Y-888171D01*
X114477Y-890160D01*
X118588Y-897280D01*
X119973Y-898859D01*
X121139Y-900606D01*
X126953Y-906420D01*
X128700Y-907587D01*
X130279Y-908971D01*
X137399Y-913082D01*
X139388Y-913757D01*
X141272Y-914686D01*
X149214Y-916814D01*
X150792Y-916918D01*
X152319Y-917327D01*
X156430Y-917596D01*
X156958Y-917527D01*
X157480Y-917631D01*
X420579D01*
X442566Y-921113D01*
X463737Y-927992D01*
X483571Y-938098D01*
X501580Y-951183D01*
X517321Y-966923D01*
X530406Y-984933D01*
X540512Y-1004767D01*
X547391Y-1025938D01*
X550873Y-1047925D01*
Y-1070186D01*
X547391Y-1092172D01*
X540512Y-1113343D01*
X530406Y-1133177D01*
X517321Y-1151187D01*
X501581Y-1166927D01*
X483571Y-1180012D01*
X463737Y-1190118D01*
X442566Y-1196997D01*
X420579Y-1200479D01*
X157480D01*
X156958Y-1200583D01*
X156430Y-1200514D01*
X152319Y-1200783D01*
X150792Y-1201193D01*
X149214Y-1201296D01*
X141272Y-1203424D01*
X139388Y-1204353D01*
X137399Y-1205028D01*
X130279Y-1209139D01*
X128700Y-1210524D01*
X126953Y-1211691D01*
X121139Y-1217505D01*
X119973Y-1219251D01*
X118588Y-1220830D01*
X114477Y-1227950D01*
X113802Y-1229939D01*
X112873Y-1231823D01*
X110745Y-1239765D01*
X110607Y-1241861D01*
X110198Y-1243921D01*
Y-1252142D01*
X110607Y-1254202D01*
X110745Y-1256298D01*
X112873Y-1264240D01*
X113802Y-1266124D01*
X114477Y-1268113D01*
X118588Y-1275233D01*
X119973Y-1276812D01*
X121139Y-1278559D01*
X126953Y-1284372D01*
X128700Y-1285539D01*
X130279Y-1286924D01*
X137399Y-1291035D01*
X139388Y-1291710D01*
X141272Y-1292639D01*
X149214Y-1294767D01*
X150792Y-1294871D01*
X152319Y-1295280D01*
X156430Y-1295549D01*
X156958Y-1295480D01*
X157480Y-1295584D01*
X420579D01*
X442566Y-1299066D01*
X463737Y-1305945D01*
X483571Y-1316051D01*
X501580Y-1329136D01*
X517321Y-1344876D01*
X530406Y-1362886D01*
X540512Y-1382720D01*
X547391Y-1403891D01*
X550873Y-1425878D01*
Y-1448138D01*
X547391Y-1470125D01*
X540512Y-1491296D01*
X530406Y-1511130D01*
X517321Y-1529140D01*
X501581Y-1544880D01*
X483571Y-1557965D01*
X463737Y-1568071D01*
X442566Y-1574950D01*
X420579Y-1578432D01*
X157480D01*
X157096Y-1578509D01*
X156708Y-1578451D01*
X153682Y-1578597D01*
X152550Y-1578879D01*
X151383Y-1578874D01*
X145443Y-1580032D01*
X144009Y-1580619D01*
X142486Y-1580910D01*
X136877Y-1583182D01*
X135581Y-1584033D01*
X134142Y-1584610D01*
X129071Y-1587913D01*
X127962Y-1588996D01*
X126660Y-1589837D01*
X122314Y-1594049D01*
X121433Y-1595324D01*
X120315Y-1596399D01*
X116856Y-1601364D01*
X116234Y-1602785D01*
X115343Y-1604053D01*
X112897Y-1609589D01*
X112559Y-1611102D01*
X111926Y-1612517D01*
X110584Y-1618418D01*
X110552Y-1619585D01*
X110234Y-1620707D01*
X109994Y-1623727D01*
X110144Y-1625000D01*
X109994Y-1626273D01*
X110234Y-1629293D01*
X110552Y-1630415D01*
X110584Y-1631582D01*
X111926Y-1637483D01*
X112559Y-1638898D01*
X112897Y-1640411D01*
X115343Y-1645947D01*
X116234Y-1647215D01*
X116856Y-1648636D01*
X120315Y-1653601D01*
X121433Y-1654676D01*
X122314Y-1655951D01*
X126660Y-1660163D01*
X127962Y-1661004D01*
X129071Y-1662087D01*
X134142Y-1665390D01*
X135581Y-1665967D01*
X136877Y-1666818D01*
X142486Y-1669090D01*
X144009Y-1669381D01*
X145443Y-1669968D01*
X151383Y-1671126D01*
X152551Y-1671121D01*
X153683Y-1671404D01*
X156709Y-1671549D01*
X157096Y-1671491D01*
X157480Y-1671568D01*
X433071D01*
X433333Y-1671516D01*
X433596Y-1671559D01*
X446471Y-1671138D01*
X447247Y-1670957D01*
X448041Y-1671009D01*
X473570Y-1667648D01*
X474573Y-1667308D01*
X475630Y-1667238D01*
X500502Y-1660574D01*
X501452Y-1660105D01*
X502491Y-1659899D01*
X526280Y-1650045D01*
X527161Y-1649457D01*
X528164Y-1649116D01*
X550463Y-1636242D01*
X551259Y-1635543D01*
X552209Y-1635075D01*
X572638Y-1619399D01*
X573336Y-1618603D01*
X574217Y-1618015D01*
X592424Y-1599807D01*
X593013Y-1598927D01*
X593809Y-1598228D01*
X609484Y-1577800D01*
X609952Y-1576850D01*
X610651Y-1576054D01*
X623525Y-1553754D01*
X623866Y-1552751D01*
X624455Y-1551870D01*
X634308Y-1528081D01*
X634515Y-1527043D01*
X634983Y-1526092D01*
X641648Y-1501221D01*
X641717Y-1500164D01*
X642057Y-1499161D01*
X645418Y-1473632D01*
X645366Y-1472837D01*
X645547Y-1472062D01*
X645969Y-1459187D01*
X645925Y-1458923D01*
X645977Y-1458661D01*
Y-1007874D01*
Y-998604D01*
X648397Y-980225D01*
X653195Y-962317D01*
X660290Y-945189D01*
X669559Y-929135D01*
X680845Y-914427D01*
X693954Y-901318D01*
X708662Y-890032D01*
X724717Y-880762D01*
X741845Y-873668D01*
X759752Y-868870D01*
X778132Y-866450D01*
X1234828D01*
Y-901575D01*
X1236133Y-908134D01*
X1239849Y-913695D01*
X1245409Y-917410D01*
X1251968Y-918715D01*
X1409449D01*
X1416008Y-917410D01*
X1421569Y-913695D01*
X1425284Y-908134D01*
X1426589Y-901575D01*
Y-866450D01*
X1456693D01*
X1456889Y-866411D01*
X1457087Y-866445D01*
X1468678Y-866160D01*
X1469262Y-866029D01*
X1469858Y-866088D01*
X1492927Y-863816D01*
X1493690Y-863585D01*
X1494486D01*
X1517222Y-859062D01*
X1517958Y-858757D01*
X1518751Y-858679D01*
X1540934Y-851950D01*
X1541636Y-851574D01*
X1542418Y-851419D01*
X1563835Y-842548D01*
X1564497Y-842105D01*
X1565259Y-841874D01*
X1585703Y-830947D01*
X1586319Y-830441D01*
X1587055Y-830136D01*
X1606330Y-817257D01*
X1606893Y-816694D01*
X1607595Y-816319D01*
X1625515Y-801612D01*
X1626020Y-800997D01*
X1626682Y-800554D01*
X1643074Y-784163D01*
X1643517Y-783500D01*
X1644132Y-782995D01*
X1658839Y-765075D01*
X1659214Y-764373D01*
X1659777Y-763810D01*
X1672656Y-744535D01*
X1672961Y-743799D01*
X1673466Y-743184D01*
X1684394Y-722739D01*
X1684625Y-721977D01*
X1685068Y-721315D01*
X1693939Y-699898D01*
X1694094Y-699117D01*
X1694470Y-698414D01*
X1701199Y-676231D01*
X1701277Y-675438D01*
X1701582Y-674702D01*
X1706104Y-651966D01*
Y-651170D01*
X1706335Y-650408D01*
X1708608Y-627338D01*
X1708549Y-626742D01*
X1708680Y-626158D01*
X1708965Y-614567D01*
X1708930Y-614370D01*
X1708969Y-614173D01*
Y-391066D01*
X1708969Y-380897D01*
X1710844Y-360648D01*
X1714577Y-340655D01*
X1720137Y-321093D01*
X1727477Y-302126D01*
X1736533Y-283918D01*
X1747230Y-266620D01*
X1759476Y-250382D01*
X1766321Y-242863D01*
X1766346Y-242821D01*
X1766384Y-242793D01*
X1773071Y-235360D01*
X1773145Y-235236D01*
X1773259Y-235147D01*
X1786367Y-220047D01*
X1786463Y-219880D01*
X1786612Y-219759D01*
X1799361Y-204355D01*
X1799452Y-204186D01*
X1799599Y-204061D01*
X1811982Y-188361D01*
X1812048Y-188232D01*
X1812156Y-188137D01*
X1818208Y-180179D01*
X1818229Y-180135D01*
X1818265Y-180103D01*
X1824623Y-171641D01*
X1838903Y-156013D01*
X1854616Y-141828D01*
X1871618Y-129216D01*
X1889752Y-118293D01*
X1908849Y-109160D01*
X1928734Y-101901D01*
X1949224Y-96583D01*
X1959678Y-94919D01*
X1959692Y-94913D01*
X1959707Y-94914D01*
X1963985Y-94225D01*
X1964028Y-94209D01*
X1964074Y-94210D01*
X1972622Y-92784D01*
X1972679Y-92763D01*
X1972740Y-92764D01*
X1981277Y-91274D01*
X1981334Y-91252D01*
X1981395Y-91253D01*
X1989921Y-89700D01*
X1989964Y-89683D01*
X1990010Y-89683D01*
X1994268Y-88883D01*
X1994293Y-88873D01*
X1994320Y-88873D01*
X1997601Y-88245D01*
X1997622Y-88237D01*
X1997644Y-88237D01*
X2000921Y-87600D01*
X2000942Y-87591D01*
X2000965D01*
X2004237Y-86946D01*
X2004258Y-86938D01*
X2004281D01*
X2007549Y-86284D01*
X2007569Y-86275D01*
X2007591Y-86275D01*
X2010854Y-85614D01*
X2010875Y-85605D01*
X2010897Y-85605D01*
X2014156Y-84934D01*
X2014176Y-84926D01*
X2014197Y-84926D01*
X2017451Y-84248D01*
X2017471Y-84239D01*
X2017493Y-84239D01*
X2020742Y-83553D01*
X2020761Y-83545D01*
X2020782Y-83544D01*
X2023871Y-82884D01*
X2023890Y-82876D01*
X2023910Y-82876D01*
X2026995Y-82208D01*
X2027013Y-82200D01*
X2027033Y-82200D01*
X2030114Y-81525D01*
X2030132Y-81517D01*
X2030151Y-81517D01*
X2033227Y-80836D01*
X2033245Y-80828D01*
X2033265Y-80828D01*
X2036336Y-80140D01*
X2036353Y-80132D01*
X2036372Y-80132D01*
X2039439Y-79438D01*
X2039456Y-79430D01*
X2039475Y-79429D01*
X2042536Y-78729D01*
X2042553Y-78721D01*
X2042572Y-78721D01*
X2045629Y-78014D01*
X2045646Y-78007D01*
X2045664Y-78006D01*
X2048715Y-77293D01*
X2048732Y-77285D01*
X2048751Y-77285D01*
X2051797Y-76566D01*
X2051811Y-76559D01*
X2051827Y-76559D01*
X2054260Y-75980D01*
X2054271Y-75975D01*
X2054283Y-75974D01*
X2055650Y-75647D01*
X2055656Y-75644D01*
X2055664Y-75644D01*
X2057030Y-75315D01*
X2057037Y-75312D01*
X2057045Y-75311D01*
X2058410Y-74982D01*
X2058417Y-74978D01*
X2058425Y-74978D01*
X2059638Y-74684D01*
X2059644Y-74681D01*
X2059650Y-74681D01*
X2060862Y-74386D01*
X2060868Y-74383D01*
X2060875Y-74383D01*
X2062086Y-74087D01*
X2062092Y-74084D01*
X2062099Y-74084D01*
X2063309Y-73787D01*
X2063315Y-73785D01*
X2063321Y-73784D01*
X2064531Y-73487D01*
X2064537Y-73484D01*
X2064544Y-73484D01*
X2065753Y-73185D01*
X2065759Y-73182D01*
X2065766Y-73182D01*
X2066974Y-72883D01*
X2066980Y-72880D01*
X2066986Y-72880D01*
X2068193Y-72580D01*
X2068198Y-72577D01*
X2068203Y-72577D01*
X2069260Y-72314D01*
X2069265Y-72311D01*
X2069271Y-72311D01*
X2070327Y-72047D01*
X2070332Y-72045D01*
X2070338Y-72044D01*
X2071393Y-71780D01*
X2071398Y-71778D01*
X2071403Y-71777D01*
X2072458Y-71512D01*
X2072462Y-71510D01*
X2072467Y-71510D01*
X2073521Y-71244D01*
X2073526Y-71242D01*
X2073532Y-71242D01*
X2074586Y-70975D01*
X2074592Y-70973D01*
X2074597Y-70972D01*
X2075651Y-70705D01*
X2075655Y-70703D01*
X2075660Y-70703D01*
X2076713Y-70436D01*
X2076718Y-70433D01*
X2076723Y-70433D01*
X2077776Y-70165D01*
X2077780Y-70163D01*
X2077785Y-70162D01*
X2078687Y-69932D01*
X2078691Y-69930D01*
X2078695Y-69930D01*
X2079597Y-69699D01*
X2079600Y-69698D01*
X2079604Y-69698D01*
X2080506Y-69466D01*
X2080510Y-69464D01*
X2080515Y-69464D01*
X2081417Y-69232D01*
X2081420Y-69231D01*
X2081424Y-69230D01*
X2082325Y-68998D01*
X2082329Y-68996D01*
X2082332Y-68996D01*
X2083234Y-68764D01*
X2083238Y-68762D01*
X2083242Y-68761D01*
X2084143Y-68528D01*
X2084146Y-68527D01*
X2084149Y-68527D01*
X2085050Y-68294D01*
X2085054Y-68292D01*
X2085059Y-68291D01*
X2085959Y-68058D01*
X2085963Y-68056D01*
X2085966Y-68056D01*
X2086867Y-67822D01*
X2086870Y-67820D01*
X2086874Y-67820D01*
X2087774Y-67585D01*
X2087778Y-67583D01*
X2087782Y-67583D01*
X2088682Y-67348D01*
X2088685Y-67347D01*
X2088688Y-67346D01*
X2089588Y-67111D01*
X2089590Y-67110D01*
X2089593Y-67110D01*
X2090343Y-66913D01*
X2090347Y-66911D01*
X2090352Y-66911D01*
X2091101Y-66714D01*
X2091103Y-66713D01*
X2091105Y-66713D01*
X2091855Y-66516D01*
X2091858Y-66515D01*
X2091861Y-66514D01*
X2092610Y-66317D01*
X2092613Y-66316D01*
X2092615Y-66316D01*
X2093365Y-66118D01*
X2093367Y-66117D01*
X2093370Y-66117D01*
X2094120Y-65919D01*
X2094122Y-65918D01*
X2094126Y-65918D01*
X2094875Y-65719D01*
X2094878Y-65718D01*
X2094882Y-65718D01*
X2095631Y-65519D01*
X2095633Y-65518D01*
X2095635Y-65518D01*
X2096384Y-65320D01*
X2096386Y-65318D01*
X2096390Y-65318D01*
X2097139Y-65119D01*
X2097141Y-65118D01*
X2097143Y-65118D01*
X2097892Y-64919D01*
X2097895Y-64917D01*
X2097898Y-64917D01*
X2098647Y-64718D01*
X2098649Y-64717D01*
X2098651Y-64717D01*
X2099400Y-64517D01*
X2099403Y-64516D01*
X2099406Y-64516D01*
X2100155Y-64316D01*
X2100158Y-64314D01*
X2100161Y-64314D01*
X2100910Y-64114D01*
X2100912Y-64113D01*
X2100914Y-64113D01*
X2101662Y-63912D01*
X2101664Y-63911D01*
X2101667Y-63911D01*
X2102416Y-63711D01*
X2102418Y-63709D01*
X2102421Y-63709D01*
X2103020Y-63549D01*
X2103021Y-63548D01*
X2103022Y-63548D01*
X2103621Y-63387D01*
X2103623Y-63386D01*
X2103626Y-63386D01*
X2104225Y-63225D01*
X2104227Y-63224D01*
X2104230Y-63224D01*
X2104829Y-63062D01*
X2104830Y-63062D01*
X2104831Y-63062D01*
X2105430Y-62900D01*
X2105432Y-62899D01*
X2105435Y-62899D01*
X2106034Y-62738D01*
X2106035Y-62737D01*
X2106037Y-62737D01*
X2106636Y-62575D01*
X2106638Y-62574D01*
X2106640Y-62574D01*
X2107239Y-62412D01*
X2107240Y-62412D01*
X2107242Y-62412D01*
X2107840Y-62250D01*
X2107841Y-62249D01*
X2107843Y-62249D01*
X2108442Y-62087D01*
X2108445Y-62086D01*
X2108448Y-62085D01*
X2109048Y-61923D01*
X2109048Y-61923D01*
X2109647Y-61761D01*
X2109649Y-61759D01*
X2109652Y-61759D01*
X2110251Y-61597D01*
X2110253Y-61596D01*
X2110255Y-61596D01*
X2110854Y-61433D01*
X2110856Y-61432D01*
X2110857Y-61432D01*
X2111456Y-61269D01*
X2111457Y-61269D01*
X2111458Y-61269D01*
X2112057Y-61106D01*
X2112059Y-61105D01*
X2112061Y-61105D01*
X2112661Y-60942D01*
X2112662Y-60941D01*
X2112664Y-60941D01*
X2113263Y-60778D01*
X2113265Y-60777D01*
X2113266Y-60777D01*
X2113866Y-60613D01*
X2113867Y-60612D01*
X2113869Y-60612D01*
X2114468Y-60449D01*
X2114470Y-60448D01*
X2114474Y-60447D01*
X2116070Y-60011D01*
X2116074Y-60009D01*
X2116078Y-60009D01*
X2117050Y-59743D01*
X2117053Y-59741D01*
X2117056Y-59741D01*
X2118029Y-59474D01*
X2118032Y-59473D01*
X2118035Y-59473D01*
X2119008Y-59206D01*
X2119010Y-59205D01*
X2119012Y-59204D01*
X2119985Y-58937D01*
X2119988Y-58936D01*
X2119991Y-58935D01*
X2120963Y-58668D01*
X2120965Y-58667D01*
X2120968Y-58666D01*
X2121941Y-58398D01*
X2121943Y-58397D01*
X2121947Y-58397D01*
X2122919Y-58128D01*
X2122922Y-58127D01*
X2122924Y-58127D01*
X2123897Y-57858D01*
X2123899Y-57857D01*
X2123901Y-57857D01*
X2124874Y-57588D01*
X2124877Y-57586D01*
X2124880Y-57586D01*
X2125853Y-57316D01*
X2125854Y-57316D01*
X2125857Y-57315D01*
X2126829Y-57045D01*
X2126831Y-57044D01*
X2126834Y-57044D01*
X2127807Y-56774D01*
X2127810Y-56773D01*
X2127813Y-56772D01*
X2128785Y-56502D01*
X2128787Y-56501D01*
X2128789Y-56501D01*
X2129762Y-56230D01*
X2129764Y-56229D01*
X2129767Y-56228D01*
X2130739Y-55957D01*
X2130741Y-55956D01*
X2130743Y-55956D01*
X2131716Y-55685D01*
X2131718Y-55684D01*
X2131721Y-55684D01*
X2132693Y-55412D01*
X2132695Y-55411D01*
X2132697Y-55410D01*
X2133670Y-55139D01*
X2133672Y-55137D01*
X2133675Y-55137D01*
X2134647Y-54865D01*
X2134649Y-54864D01*
X2134651Y-54864D01*
X2135624Y-54591D01*
X2135625Y-54590D01*
X2135628Y-54590D01*
X2136600Y-54317D01*
X2136602Y-54316D01*
X2136604Y-54316D01*
X2137575Y-54043D01*
X2137578Y-54041D01*
X2137581Y-54041D01*
X2138553Y-53768D01*
X2138555Y-53767D01*
X2138556Y-53767D01*
X2139528Y-53493D01*
X2139531Y-53492D01*
X2139533Y-53492D01*
X2140505Y-53218D01*
X2140507Y-53217D01*
X2140508Y-53217D01*
X2141480Y-52943D01*
X2141483Y-52941D01*
X2141485Y-52941D01*
X2142456Y-52667D01*
X2142459Y-52666D01*
X2142461Y-52665D01*
X2143433Y-52391D01*
X2143434Y-52390D01*
X2143436Y-52390D01*
X2144408Y-52115D01*
X2144410Y-52114D01*
X2144412Y-52113D01*
X2145384Y-51838D01*
X2145386Y-51837D01*
X2145387Y-51837D01*
X2146359Y-51562D01*
X2146361Y-51561D01*
X2146362Y-51561D01*
X2147334Y-51285D01*
X2147336Y-51284D01*
X2147338Y-51284D01*
X2148309Y-51008D01*
X2148312Y-51007D01*
X2148314Y-51006D01*
X2149933Y-50546D01*
X2149936Y-50545D01*
X2149939Y-50544D01*
X2150586Y-50360D01*
X2150586Y-50360D01*
X2150587Y-50360D01*
X2151235Y-50175D01*
X2151235Y-50175D01*
X2151236Y-50175D01*
X2151883Y-49990D01*
X2151885Y-49989D01*
X2151887Y-49989D01*
X2152535Y-49804D01*
X2152536Y-49804D01*
X2152537Y-49804D01*
X2153832Y-49434D01*
X2153834Y-49433D01*
X2153837Y-49433D01*
X2155131Y-49063D01*
X2155133Y-49062D01*
X2155134Y-49062D01*
X2155781Y-48877D01*
X2155782Y-48876D01*
X2155784Y-48876D01*
X2156431Y-48691D01*
X2156432Y-48690D01*
X2156433Y-48690D01*
X2157080Y-48505D01*
X2157081Y-48504D01*
X2157083Y-48504D01*
X2157730Y-48319D01*
X2157731Y-48318D01*
X2157732Y-48318D01*
X2158379Y-48133D01*
X2158379D01*
X2159026Y-47947D01*
X2159029Y-47946D01*
X2159031Y-47946D01*
X2160325Y-47574D01*
X2160326Y-47574D01*
X2160328Y-47573D01*
X2160975Y-47388D01*
X2160976Y-47387D01*
X2160977Y-47387D01*
X2161624Y-47201D01*
X2161624Y-47201D01*
X2161624D01*
X2162271Y-47015D01*
X2162272Y-47014D01*
X2162273Y-47014D01*
X2162920Y-46828D01*
X2162921Y-46828D01*
X2162922Y-46828D01*
X2163569Y-46642D01*
X2163570Y-46641D01*
X2163572Y-46641D01*
X2164218Y-46455D01*
X2164219Y-46454D01*
X2164865Y-46268D01*
X2164868Y-46267D01*
X2164870Y-46267D01*
X2165514Y-46081D01*
X2165514D01*
X2166161Y-45895D01*
X2166163Y-45894D01*
X2166166Y-45893D01*
X2167459Y-45520D01*
X2167460Y-45520D01*
X2167461Y-45520D01*
X2168754Y-45146D01*
X2168756Y-45145D01*
X2168759Y-45145D01*
X2169403Y-44959D01*
X2169403D01*
X2170049Y-44772D01*
X2170052Y-44771D01*
X2170054Y-44771D01*
X2170700Y-44584D01*
X2170701Y-44584D01*
X2170701D01*
X2171993Y-44210D01*
X2171994Y-44209D01*
X2171995Y-44209D01*
X2172641Y-44022D01*
X2172642Y-44021D01*
X2172644Y-44021D01*
X2173290Y-43834D01*
X2173290Y-43834D01*
X2173291D01*
X2173936Y-43647D01*
X2173937Y-43646D01*
X2173939Y-43646D01*
X2174584Y-43459D01*
X2174584D01*
X2175230Y-43272D01*
X2175231Y-43272D01*
X2175876Y-43084D01*
X2175879Y-43083D01*
X2175881Y-43083D01*
X2176527Y-42896D01*
X2177171Y-42709D01*
X2177172Y-42708D01*
X2177173Y-42708D01*
X2177819Y-42521D01*
X2177820Y-42520D01*
X2177822Y-42520D01*
X2179758Y-41957D01*
X2179760Y-41957D01*
X2179761Y-41956D01*
X2181052Y-41581D01*
X2181053Y-41581D01*
X2181054Y-41581D01*
X2181699Y-41393D01*
X2181699Y-41393D01*
X2181700D01*
X2182345Y-41205D01*
X2182346Y-41205D01*
X2182991Y-41017D01*
X2182992Y-41017D01*
X2182993Y-41016D01*
X2183638Y-40829D01*
X2183638Y-40828D01*
X2183638D01*
X2184283Y-40641D01*
X2184284Y-40641D01*
X2184929Y-40453D01*
X2184930Y-40452D01*
X2184931Y-40452D01*
X2185576Y-40264D01*
X2185576Y-40264D01*
X2185576D01*
X2186866Y-39888D01*
X2186867Y-39887D01*
X2186869Y-39887D01*
X2187513Y-39699D01*
X2187514Y-39699D01*
X2187514D01*
X2188158Y-39511D01*
X2188159Y-39511D01*
X2188159D01*
X2189448Y-39135D01*
X2189449Y-39134D01*
X2189451Y-39134D01*
X2190095Y-38946D01*
X2190095Y-38946D01*
X2190738Y-38758D01*
X2190738Y-38758D01*
X2190740Y-38758D01*
X2191384Y-38570D01*
X2191384Y-38569D01*
X2191385D01*
X2192673Y-38193D01*
X2192675Y-38193D01*
X2192676Y-38192D01*
X2193962Y-37817D01*
X2193963Y-37816D01*
X2193965Y-37816D01*
X2195252Y-37439D01*
X2195253Y-37439D01*
X2195253D01*
X2195897Y-37251D01*
X2195897Y-37251D01*
X2195897D01*
X2196541Y-37063D01*
X2196541Y-37062D01*
X2196542D01*
X2197185Y-36874D01*
X2197186Y-36874D01*
X2197186D01*
X2198473Y-36498D01*
X2198474Y-36497D01*
X2198475Y-36497D01*
X2199117Y-36309D01*
X2199117D01*
X2200404Y-35933D01*
X2200405Y-35932D01*
X2200407Y-35931D01*
X2201048Y-35744D01*
X2201048D01*
X2201691Y-35556D01*
X2201691Y-35556D01*
X2201691D01*
X2202977Y-35179D01*
X2202979Y-35178D01*
X2202981Y-35178D01*
X2204264Y-34802D01*
X2204264Y-34802D01*
X2204265D01*
X2204907Y-34614D01*
X2204908Y-34614D01*
X2204908D01*
X2205550Y-34425D01*
X2205551Y-34425D01*
X2207477Y-33861D01*
X2207478Y-33860D01*
X2207480Y-33860D01*
X2209404Y-33296D01*
X2209406Y-33296D01*
X2209408Y-33295D01*
X2210047Y-33108D01*
X2210047D01*
X2210689Y-32920D01*
X2210690Y-32920D01*
X2211329Y-32732D01*
X2211331Y-32731D01*
X2211332Y-32731D01*
X2211974Y-32543D01*
X2211974Y-32543D01*
X2212614Y-32356D01*
X2212615Y-32355D01*
X2212616Y-32355D01*
X2213258Y-32167D01*
X2213258Y-32167D01*
X2214538Y-31792D01*
X2214539Y-31791D01*
X2214541Y-31791D01*
X2215182Y-31603D01*
X2215182Y-31603D01*
X2215821Y-31416D01*
X2215822Y-31415D01*
X2215824Y-31415D01*
X2216465Y-31227D01*
X2217102Y-31040D01*
X2217104Y-31040D01*
X2217104Y-31040D01*
X2219667Y-30289D01*
X2219668Y-30288D01*
X2219669Y-30288D01*
X2220307Y-30101D01*
X2221589Y-29726D01*
X2221589Y-29726D01*
X2223509Y-29163D01*
X2223510Y-29163D01*
X2223510Y-29163D01*
X2224789Y-28788D01*
X2227349Y-28039D01*
X2227349Y-28039D01*
X2227987Y-27852D01*
X2227987Y-27852D01*
X2227988D01*
X2229265Y-27478D01*
X2229265Y-27478D01*
X2229266D01*
X2229906Y-27291D01*
X2229906Y-27291D01*
X2229906D01*
X2230544Y-27104D01*
X2230544D01*
X2231184Y-26917D01*
X2231184Y-26917D01*
X2231184D01*
X2232459Y-26544D01*
X2233099Y-26357D01*
X2233101Y-26356D01*
X2233102Y-26356D01*
X2233737Y-26170D01*
X2235016Y-25797D01*
X2235016Y-25796D01*
X2235017Y-25796D01*
X2235656Y-25610D01*
X2236293Y-25424D01*
X2236293Y-25423D01*
X2236294Y-25423D01*
X2236930Y-25237D01*
X2236930D01*
X2237569Y-25051D01*
X2237570Y-25050D01*
X2237571Y-25050D01*
X2238210Y-24864D01*
X2240123Y-24306D01*
X2240759Y-24120D01*
X2240760Y-24120D01*
X2240760D01*
X2242672Y-23562D01*
X2242673D01*
X2243309Y-23377D01*
X2244585Y-23005D01*
X2244585D01*
X2245860Y-22634D01*
X2245860Y-22634D01*
X2245861D01*
X2246497Y-22449D01*
X2246497D01*
X2247771Y-22078D01*
X2247772Y-22078D01*
X2247772D01*
X2249046Y-21707D01*
X2249047Y-21707D01*
X2249681Y-21523D01*
X2249681D01*
X2250319Y-21338D01*
X2250319Y-21338D01*
X2250320D01*
X2251594Y-20968D01*
X2252230Y-20783D01*
X2252230Y-20783D01*
X2252230D01*
X2252864Y-20599D01*
X2255410Y-19861D01*
X2256686Y-19492D01*
X2256686Y-19492D01*
X2257320Y-19309D01*
X2259227Y-18758D01*
X2260499Y-18390D01*
X2260500D01*
X2261771Y-18023D01*
X2262409Y-17840D01*
X2262409Y-17839D01*
X2263042Y-17657D01*
X2264313Y-17291D01*
X2264950Y-17108D01*
X2264950D01*
X2265583Y-16925D01*
X2266220Y-16742D01*
X2266221Y-16742D01*
X2267489Y-16378D01*
X2268126Y-16195D01*
X2268126Y-16195D01*
X2269394Y-15831D01*
X2270666Y-15466D01*
X2270667D01*
X2271304Y-15284D01*
X2272574Y-14920D01*
X2272575Y-14920D01*
X2273204Y-14740D01*
X2274475Y-14377D01*
X2275112Y-14195D01*
X2276379Y-13834D01*
X2277016Y-13652D01*
X2277017Y-13652D01*
X2278286Y-13291D01*
X2279869Y-12841D01*
X2280820Y-12571D01*
X2281775Y-12300D01*
X2282723Y-12031D01*
X2283679Y-11761D01*
X2283679Y-11760D01*
X2284631Y-11491D01*
X2284631Y-11491D01*
X2285577Y-11224D01*
X2285578D01*
X2286533Y-10954D01*
X2287480Y-10687D01*
X2287481D01*
X2288430Y-10419D01*
X2289385Y-10150D01*
X2290331Y-9884D01*
X2291286Y-9616D01*
X2292234Y-9350D01*
X2293183Y-9084D01*
X2294138Y-8817D01*
X2295085Y-8552D01*
X2296351Y-8198D01*
X2296352D01*
X2297944Y-7755D01*
X2299525Y-7315D01*
X2301111Y-6874D01*
X2302688Y-6438D01*
X2304280Y-5997D01*
X2305863Y-5560D01*
X2307439Y-5127D01*
X2309031Y-4689D01*
X2310605Y-4257D01*
X2310606D01*
X2312189Y-3824D01*
X2313772Y-3392D01*
X2313773D01*
X2315365Y-2958D01*
X2316949Y-2527D01*
X2318523Y-2101D01*
X2318523D01*
X2320116Y-1670D01*
X2321688Y-1245D01*
X2323589Y-734D01*
X2325500Y-221D01*
X2325501Y-221D01*
X2327394Y286D01*
X2329289Y792D01*
X2331188Y1297D01*
X2333100Y1804D01*
X2335000Y2306D01*
X2336887Y2804D01*
X2336888D01*
X2338800Y3306D01*
X2338800Y3306D01*
X2340687Y3800D01*
X2342600Y4300D01*
X2344500Y4794D01*
X2346387Y5283D01*
X2346388D01*
X2348301Y5778D01*
X2350188Y6264D01*
X2352101Y6755D01*
X2354001Y7240D01*
X2354001Y7241D01*
X2356203Y7802D01*
X2358428Y8366D01*
X2360651Y8928D01*
X2362854Y9481D01*
X2362854D01*
X2365088Y10041D01*
X2367299Y10592D01*
X2369523Y11143D01*
X2371725Y11687D01*
X2373960Y12236D01*
X2376177Y12779D01*
X2378378Y13315D01*
X2380615Y13856D01*
X2382816Y14387D01*
X2385033Y14919D01*
X2387259Y15450D01*
X2389809Y16055D01*
X2389809Y16055D01*
X2392332Y16650D01*
X2394861Y17243D01*
X2394862D01*
X2397421Y17839D01*
X2397421Y17839D01*
X2399958Y18426D01*
X2402487Y19008D01*
X2405012Y19584D01*
X2407561Y20163D01*
X2410095Y20734D01*
X2412629Y21301D01*
X2415193Y21871D01*
X2415193Y21871D01*
X2417708Y22426D01*
X2420594Y23058D01*
X2423448Y23678D01*
X2426285Y24289D01*
X2429173Y24906D01*
X2432013Y25506D01*
X2434246Y25975D01*
X2438510Y26867D01*
X2447222Y26729D01*
X2455689Y24675D01*
X2463495Y20806D01*
X2470258Y15312D01*
X2475643Y8463D01*
X2479388Y596D01*
X2481307Y-7903D01*
Y-12259D01*
Y-198398D01*
X2481390Y-198810D01*
X2481329Y-199226D01*
X2481622Y-204910D01*
X2481930Y-206123D01*
X2481943Y-207375D01*
X2484274Y-218499D01*
X2484926Y-220029D01*
X2485284Y-221653D01*
X2489848Y-232063D01*
X2490800Y-233427D01*
X2491483Y-234942D01*
X2498085Y-244195D01*
X2499297Y-245334D01*
X2500276Y-246678D01*
X2508636Y-254379D01*
X2510055Y-255245D01*
X2511290Y-256359D01*
X2521052Y-262182D01*
X2522618Y-262739D01*
X2524055Y-263576D01*
X2534804Y-267273D01*
X2536451Y-267497D01*
X2538029Y-268021D01*
X2549308Y-269435D01*
X2550556Y-269345D01*
X2551791Y-269552D01*
X2557479Y-269379D01*
X2557889Y-269285D01*
X2558307Y-269333D01*
X2780020Y-251126D01*
X2780385Y-251022D01*
X2780763Y-251048D01*
X2785848Y-250391D01*
X2786918Y-250031D01*
X2788043Y-249950D01*
X2797921Y-247237D01*
X2799262Y-246566D01*
X2800712Y-246183D01*
X2809917Y-241690D01*
X2811110Y-240781D01*
X2812465Y-240137D01*
X2820680Y-234018D01*
X2821684Y-232904D01*
X2822896Y-232021D01*
X2829836Y-224487D01*
X2830618Y-223207D01*
X2831646Y-222114D01*
X2837072Y-213427D01*
X2837603Y-212024D01*
X2838411Y-210760D01*
X2842136Y-201218D01*
X2842398Y-199741D01*
X2842958Y-198350D01*
X2844854Y-188284D01*
X2844842Y-187155D01*
X2845113Y-186060D01*
X2845352Y-180938D01*
X2845295Y-180563D01*
X2845369Y-180191D01*
Y31803D01*
Y35543D01*
X2846789Y42887D01*
X2849576Y49829D01*
X2853630Y56116D01*
X2858802Y61519D01*
X2864907Y65842D01*
X2871720Y68928D01*
X2878997Y70666D01*
X2882722Y70828D01*
X2882723Y70828D01*
X2888394Y71071D01*
X2893102Y71267D01*
X2896854Y71420D01*
X2896854D01*
X2900637Y71571D01*
X2904406Y71718D01*
X2908175Y71862D01*
X2911932Y72002D01*
X2915702Y72139D01*
X2919485Y72275D01*
X2923256Y72406D01*
X2927014Y72535D01*
X2927015D01*
X2930787Y72660D01*
X2934559Y72783D01*
X2938330Y72903D01*
X2942115Y73021D01*
X2942115Y73021D01*
X2945875Y73135D01*
X2945876D01*
X2949660Y73246D01*
X2953421Y73355D01*
X2953421Y73355D01*
X2957206Y73461D01*
X2960980Y73565D01*
X2964747Y73665D01*
X2968516Y73763D01*
X2972300Y73859D01*
X2972301Y73859D01*
X2976063Y73952D01*
X2979848Y74042D01*
X2983611Y74130D01*
X2987396Y74216D01*
X2991160Y74298D01*
X2991160Y74298D01*
X2994935Y74379D01*
X2998710Y74457D01*
X3001541Y74514D01*
X3001541Y74514D01*
X3004379Y74570D01*
X3004380Y74570D01*
X3007202Y74625D01*
X3007203Y74624D01*
X3010041Y74678D01*
X3012871Y74730D01*
X3015702Y74781D01*
X3018524Y74830D01*
X3018525Y74830D01*
X3021362Y74878D01*
X3024193Y74925D01*
X3027022Y74971D01*
X3029854Y75016D01*
X3032684Y75059D01*
X3035508Y75102D01*
X3038338Y75143D01*
X3041168Y75183D01*
X3043998Y75222D01*
X3046834Y75260D01*
X3046834Y75260D01*
X3049657Y75296D01*
X3052487Y75332D01*
X3055317Y75367D01*
X3058152Y75400D01*
X3058152Y75400D01*
X3060975Y75433D01*
X3063810Y75464D01*
X3064748Y75475D01*
X3064748Y75474D01*
X3066638Y75495D01*
X3067579Y75504D01*
X3069462Y75524D01*
X3069462Y75524D01*
X3071351Y75543D01*
X3073231Y75561D01*
X3075121Y75579D01*
X3077001Y75597D01*
X3077001Y75597D01*
X3078890Y75614D01*
X3080775Y75630D01*
X3082654Y75646D01*
X3082654Y75646D01*
X3084543Y75661D01*
X3086422Y75675D01*
X3086422Y75675D01*
X3088311Y75689D01*
X3090194Y75703D01*
X3092072Y75716D01*
X3092072Y75716D01*
X3093961Y75728D01*
X3095844Y75740D01*
X3097721Y75751D01*
X3097721Y75751D01*
X3099609Y75761D01*
X3101492Y75771D01*
X3103374Y75780D01*
X3105250Y75788D01*
X3105251Y75788D01*
X3107138Y75796D01*
X3109020Y75803D01*
X3110902Y75810D01*
X3112782Y75815D01*
X3114657Y75820D01*
X3114658Y75820D01*
X3116545Y75824D01*
X3118427Y75828D01*
X3120308Y75831D01*
X3122188Y75833D01*
X3124069Y75834D01*
X3125946Y75834D01*
X3127822Y75834D01*
D02*
G37*
%LPC*%
G36*
X1369770Y-27559D02*
X1362514D01*
X1355504Y-29437D01*
X1349220Y-33065D01*
X1344089Y-38197D01*
X1340461Y-44481D01*
X1338583Y-51490D01*
Y-58746D01*
X1340461Y-65755D01*
X1344089Y-72040D01*
X1349220Y-77171D01*
X1355504Y-80799D01*
X1362514Y-82677D01*
X1369770D01*
X1376779Y-80799D01*
X1383063Y-77171D01*
X1388195Y-72040D01*
X1391823Y-65755D01*
X1393701Y-58746D01*
Y-51490D01*
X1391823Y-44481D01*
X1388195Y-38197D01*
X1383063Y-33065D01*
X1376779Y-29437D01*
X1369770Y-27559D01*
D02*
G37*
G36*
X3390596Y2953D02*
X3377120D01*
X3364103Y-535D01*
X3352432Y-7273D01*
X3342903Y-16802D01*
X3336165Y-28473D01*
X3332677Y-41490D01*
Y-54966D01*
X3336165Y-67984D01*
X3342903Y-79654D01*
X3352432Y-89183D01*
X3364103Y-95921D01*
X3377120Y-99409D01*
X3390596D01*
X3403613Y-95921D01*
X3415284Y-89183D01*
X3424813Y-79654D01*
X3431552Y-67984D01*
X3435039Y-54966D01*
Y-41490D01*
X3431552Y-28473D01*
X3424813Y-16802D01*
X3415284Y-7273D01*
X3403613Y-535D01*
X3390596Y2953D01*
D02*
G37*
G36*
X3233116D02*
X3219640D01*
X3206623Y-535D01*
X3194952Y-7273D01*
X3185423Y-16802D01*
X3178685Y-28473D01*
X3175197Y-41490D01*
Y-54966D01*
X3178685Y-67984D01*
X3185423Y-79654D01*
X3194952Y-89183D01*
X3206623Y-95921D01*
X3219640Y-99409D01*
X3233116D01*
X3246133Y-95921D01*
X3257804Y-89183D01*
X3267333Y-79654D01*
X3274071Y-67984D01*
X3277559Y-54966D01*
Y-41490D01*
X3274071Y-28473D01*
X3267333Y-16802D01*
X3257804Y-7273D01*
X3246133Y-535D01*
X3233116Y2953D01*
D02*
G37*
G36*
X1329449Y-86309D02*
X1320199Y-87526D01*
X1311579Y-91097D01*
X1304178Y-96776D01*
X1300434Y-101655D01*
X1296899Y-102544D01*
X1291998D01*
X1288464Y-101655D01*
X1284720Y-96776D01*
X1277318Y-91097D01*
X1268699Y-87526D01*
X1259449Y-86309D01*
X1250199Y-87526D01*
X1241579Y-91097D01*
X1234178Y-96776D01*
X1230434Y-101655D01*
X1226899Y-102544D01*
X1221998D01*
X1218464Y-101655D01*
X1214720Y-96776D01*
X1207318Y-91097D01*
X1198699Y-87526D01*
X1189449Y-86309D01*
X1180199Y-87526D01*
X1171579Y-91097D01*
X1164178Y-96776D01*
X1160434Y-101655D01*
X1156899Y-102544D01*
X1151998D01*
X1148464Y-101655D01*
X1144720Y-96776D01*
X1137318Y-91097D01*
X1128699Y-87526D01*
X1119449Y-86309D01*
X1110199Y-87526D01*
X1101579Y-91097D01*
X1094178Y-96776D01*
X1090434Y-101655D01*
X1086899Y-102544D01*
X1081998D01*
X1078464Y-101655D01*
X1074720Y-96776D01*
X1067318Y-91097D01*
X1058699Y-87526D01*
X1049449Y-86309D01*
X1040199Y-87526D01*
X1031579Y-91097D01*
X1024178Y-96776D01*
X1020434Y-101655D01*
X1016899Y-102544D01*
X1011998D01*
X1008463Y-101655D01*
X1004720Y-96776D01*
X997318Y-91097D01*
X988699Y-87526D01*
X979449Y-86309D01*
X970199Y-87526D01*
X961579Y-91097D01*
X954178Y-96776D01*
X950434Y-101655D01*
X946899Y-102544D01*
X941998D01*
X938463Y-101655D01*
X934720Y-96776D01*
X927318Y-91097D01*
X918699Y-87526D01*
X909449Y-86309D01*
X900199Y-87526D01*
X891579Y-91097D01*
X884178Y-96776D01*
X878498Y-104178D01*
X874928Y-112797D01*
X873710Y-122047D01*
Y-129921D01*
X874928Y-139171D01*
X877456Y-145276D01*
X874162Y-152589D01*
X871520Y-155512D01*
X777559D01*
Y-517716D01*
X906520D01*
X909162Y-520640D01*
X912456Y-527953D01*
X909928Y-534057D01*
X908710Y-543307D01*
Y-551181D01*
X909928Y-560431D01*
X913498Y-569050D01*
X919178Y-576452D01*
X926579Y-582132D01*
X935199Y-585702D01*
X944449Y-586920D01*
X953699Y-585702D01*
X962318Y-582132D01*
X969720Y-576452D01*
X973463Y-571573D01*
X976998Y-570685D01*
X981899D01*
X985434Y-571573D01*
X989178Y-576452D01*
X996579Y-582132D01*
X1005199Y-585702D01*
X1014449Y-586920D01*
X1023699Y-585702D01*
X1032318Y-582132D01*
X1039720Y-576452D01*
X1043464Y-571573D01*
X1046998Y-570685D01*
X1051899D01*
X1055434Y-571573D01*
X1059178Y-576452D01*
X1066579Y-582132D01*
X1075199Y-585702D01*
X1084449Y-586920D01*
X1093699Y-585702D01*
X1102318Y-582132D01*
X1109720Y-576452D01*
X1113464Y-571573D01*
X1116998Y-570685D01*
X1121899D01*
X1125434Y-571573D01*
X1129178Y-576452D01*
X1136579Y-582132D01*
X1145199Y-585702D01*
X1154449Y-586920D01*
X1163699Y-585702D01*
X1172318Y-582132D01*
X1179720Y-576452D01*
X1183464Y-571573D01*
X1186998Y-570685D01*
X1191899D01*
X1195434Y-571573D01*
X1199178Y-576452D01*
X1206579Y-582132D01*
X1215199Y-585702D01*
X1224449Y-586920D01*
X1233699Y-585702D01*
X1242318Y-582132D01*
X1249720Y-576452D01*
X1253464Y-571573D01*
X1256998Y-570685D01*
X1261899D01*
X1265434Y-571573D01*
X1269178Y-576452D01*
X1276579Y-582132D01*
X1285199Y-585702D01*
X1294449Y-586920D01*
X1303699Y-585702D01*
X1312318Y-582132D01*
X1319720Y-576452D01*
X1323464Y-571573D01*
X1326998Y-570685D01*
X1331899D01*
X1335434Y-571573D01*
X1339178Y-576452D01*
X1346579Y-582132D01*
X1355199Y-585702D01*
X1364449Y-586920D01*
X1373699Y-585702D01*
X1382318Y-582132D01*
X1389720Y-576452D01*
X1393464Y-571573D01*
X1396998Y-570685D01*
X1401899D01*
X1405434Y-571573D01*
X1409178Y-576452D01*
X1416579Y-582132D01*
X1425199Y-585702D01*
X1434449Y-586920D01*
X1443699Y-585702D01*
X1452318Y-582132D01*
X1459720Y-576452D01*
X1465399Y-569050D01*
X1468970Y-560431D01*
X1470187Y-551181D01*
Y-543307D01*
X1468970Y-534057D01*
X1466441Y-527953D01*
X1469736Y-520640D01*
X1472377Y-517716D01*
X1498032D01*
Y-155512D01*
X1434896D01*
X1431424Y-150645D01*
X1429311Y-145276D01*
X1432052Y-138657D01*
X1432425Y-135827D01*
X1399449D01*
Y-125984D01*
X1389607D01*
Y-89902D01*
X1382572Y-92816D01*
X1375582Y-98180D01*
X1371304Y-103755D01*
X1364785Y-104274D01*
X1359847Y-103458D01*
X1354720Y-96776D01*
X1347318Y-91097D01*
X1338699Y-87526D01*
X1329449Y-86309D01*
D02*
G37*
G36*
X1409292Y-89903D02*
Y-116142D01*
X1432425D01*
X1432052Y-113311D01*
X1428680Y-105171D01*
X1423316Y-98180D01*
X1416325Y-92816D01*
X1409292Y-89903D01*
D02*
G37*
G36*
X491817Y-94488D02*
X484561D01*
X477552Y-96366D01*
X471267Y-99995D01*
X466136Y-105126D01*
X462508Y-111410D01*
X460630Y-118419D01*
Y-125675D01*
X462508Y-132685D01*
X466136Y-138969D01*
X471267Y-144100D01*
X477552Y-147728D01*
X484561Y-149606D01*
X491817D01*
X498826Y-147728D01*
X505111Y-144100D01*
X510242Y-138969D01*
X513870Y-132685D01*
X515748Y-125675D01*
Y-118419D01*
X513870Y-111410D01*
X510242Y-105126D01*
X505111Y-99995D01*
X498826Y-96366D01*
X491817Y-94488D01*
D02*
G37*
G36*
X3759843Y-145010D02*
X3750626Y-146843D01*
X3742812Y-152064D01*
X3737591Y-159877D01*
X3735758Y-169094D01*
Y-178937D01*
X3737591Y-188154D01*
X3742812Y-195968D01*
X3750626Y-201189D01*
X3759843Y-203022D01*
X3769059Y-201189D01*
X3776873Y-195968D01*
X3782094Y-188154D01*
X3783927Y-178937D01*
Y-169094D01*
X3782094Y-159877D01*
X3776873Y-152064D01*
X3769059Y-146843D01*
X3759843Y-145010D01*
D02*
G37*
G36*
X3666116Y-177165D02*
X3656719D01*
X3648037Y-180762D01*
X3641392Y-187407D01*
X3637795Y-196089D01*
Y-205486D01*
X3641392Y-214168D01*
X3648037Y-220813D01*
X3656719Y-224409D01*
X3666116D01*
X3674798Y-220813D01*
X3681443Y-214168D01*
X3685039Y-205486D01*
Y-196089D01*
X3681443Y-187407D01*
X3674798Y-180762D01*
X3666116Y-177165D01*
D02*
G37*
G36*
X2889455Y-173228D02*
X2882199D01*
X2875189Y-175107D01*
X2868905Y-178735D01*
X2863774Y-183866D01*
X2860146Y-190150D01*
X2858268Y-197159D01*
Y-204416D01*
X2860146Y-211425D01*
X2863774Y-217709D01*
X2868905Y-222840D01*
X2875189Y-226468D01*
X2882199Y-228346D01*
X2889455D01*
X2896464Y-226468D01*
X2902748Y-222840D01*
X2907880Y-217709D01*
X2911508Y-211425D01*
X2913386Y-204416D01*
Y-197159D01*
X2911508Y-190150D01*
X2907880Y-183866D01*
X2902748Y-178735D01*
X2896464Y-175107D01*
X2889455Y-173228D01*
D02*
G37*
G36*
X2133976Y-126274D02*
X2120500D01*
X2107483Y-129762D01*
X2095812Y-136500D01*
X2086283Y-146029D01*
X2079545Y-157700D01*
X2076057Y-170717D01*
Y-184193D01*
X2079545Y-197210D01*
X2086283Y-208881D01*
X2095812Y-218410D01*
X2107483Y-225148D01*
X2120500Y-228636D01*
X2133976D01*
X2146993Y-225148D01*
X2158664Y-218410D01*
X2168193Y-208881D01*
X2174931Y-197210D01*
X2178419Y-184193D01*
Y-170717D01*
X2174932Y-157700D01*
X2168193Y-146029D01*
X2158664Y-136500D01*
X2146994Y-129762D01*
X2133976Y-126274D01*
D02*
G37*
G36*
X3330400Y-177165D02*
X3323144D01*
X3316134Y-179043D01*
X3309850Y-182672D01*
X3304719Y-187803D01*
X3301091Y-194087D01*
X3299213Y-201096D01*
Y-208353D01*
X3301091Y-215362D01*
X3304719Y-221646D01*
X3309850Y-226777D01*
X3316134Y-230405D01*
X3323144Y-232283D01*
X3330400D01*
X3337409Y-230405D01*
X3343693Y-226777D01*
X3348824Y-221646D01*
X3352453Y-215362D01*
X3354331Y-208353D01*
Y-201096D01*
X3352453Y-194087D01*
X3348824Y-187803D01*
X3343693Y-182672D01*
X3337409Y-179043D01*
X3330400Y-177165D01*
D02*
G37*
G36*
X1981862Y-167033D02*
X1968386D01*
X1955369Y-170521D01*
X1943698Y-177259D01*
X1934169Y-186788D01*
X1927431Y-198459D01*
X1923943Y-211476D01*
Y-224952D01*
X1927431Y-237969D01*
X1934169Y-249640D01*
X1943698Y-259169D01*
X1955369Y-265907D01*
X1968386Y-269395D01*
X1981862D01*
X1994879Y-265907D01*
X2006550Y-259169D01*
X2016079Y-249640D01*
X2022817Y-237969D01*
X2026305Y-224952D01*
Y-211476D01*
X2022817Y-198459D01*
X2016079Y-186788D01*
X2006550Y-177259D01*
X1994879Y-170521D01*
X1981862Y-167033D01*
D02*
G37*
G36*
X2901266Y-318898D02*
X2894010D01*
X2887000Y-320776D01*
X2880716Y-324404D01*
X2875585Y-329535D01*
X2871957Y-335819D01*
X2870079Y-342829D01*
Y-350085D01*
X2871957Y-357094D01*
X2875585Y-363378D01*
X2880716Y-368509D01*
X2887000Y-372138D01*
X2894010Y-374016D01*
X2901266D01*
X2908275Y-372138D01*
X2914559Y-368509D01*
X2919691Y-363378D01*
X2923319Y-357094D01*
X2925197Y-350085D01*
Y-342829D01*
X2923319Y-335819D01*
X2919691Y-329535D01*
X2914559Y-324404D01*
X2908275Y-320776D01*
X2901266Y-318898D01*
D02*
G37*
G36*
X1857959Y-358268D02*
X1850703D01*
X1843693Y-360146D01*
X1837409Y-363774D01*
X1832278Y-368905D01*
X1828650Y-375189D01*
X1826772Y-382199D01*
Y-389455D01*
X1828650Y-396464D01*
X1832278Y-402748D01*
X1837409Y-407880D01*
X1843693Y-411508D01*
X1850703Y-413386D01*
X1857959D01*
X1864968Y-411508D01*
X1871252Y-407880D01*
X1876383Y-402748D01*
X1880012Y-396464D01*
X1881890Y-389455D01*
Y-382199D01*
X1880012Y-375189D01*
X1876383Y-368905D01*
X1871252Y-363774D01*
X1864968Y-360146D01*
X1857959Y-358268D01*
D02*
G37*
G36*
X3764541Y-386614D02*
X3755144D01*
X3746462Y-390210D01*
X3739817Y-396855D01*
X3736221Y-405537D01*
Y-414935D01*
X3739817Y-423617D01*
X3746462Y-430262D01*
X3755144Y-433858D01*
X3764541D01*
X3773223Y-430262D01*
X3779868Y-423617D01*
X3783465Y-414935D01*
Y-405537D01*
X3779868Y-396855D01*
X3773223Y-390210D01*
X3764541Y-386614D01*
D02*
G37*
G36*
X2137486Y-409449D02*
X2130230D01*
X2123221Y-411327D01*
X2116937Y-414955D01*
X2111806Y-420086D01*
X2108177Y-426370D01*
X2106299Y-433380D01*
Y-440636D01*
X2108177Y-447645D01*
X2111806Y-453930D01*
X2116937Y-459061D01*
X2123221Y-462689D01*
X2130230Y-464567D01*
X2137486D01*
X2144496Y-462689D01*
X2150780Y-459061D01*
X2155911Y-453930D01*
X2159539Y-447645D01*
X2161417Y-440636D01*
Y-433380D01*
X2159539Y-426370D01*
X2155911Y-420086D01*
X2150780Y-414955D01*
X2144496Y-411327D01*
X2137486Y-409449D01*
D02*
G37*
G36*
X3296244Y-426800D02*
X3282819Y-427974D01*
X3270155Y-432584D01*
X3259116Y-440313D01*
X3250454Y-450637D01*
X3244758Y-462850D01*
X3242418Y-476122D01*
X3243593Y-489547D01*
X3248202Y-502210D01*
X3255932Y-513249D01*
X3266255Y-521912D01*
X3278468Y-527607D01*
X3291740Y-529947D01*
X3305165Y-528773D01*
X3317829Y-524163D01*
X3328868Y-516434D01*
X3337530Y-506111D01*
X3343225Y-493897D01*
X3345565Y-480625D01*
X3344391Y-467200D01*
X3339782Y-454537D01*
X3332052Y-443498D01*
X3321729Y-434836D01*
X3309515Y-429140D01*
X3296244Y-426800D01*
D02*
G37*
G36*
X3139362Y-440525D02*
X3125937Y-441700D01*
X3113274Y-446309D01*
X3102235Y-454039D01*
X3093573Y-464362D01*
X3087877Y-476576D01*
X3085537Y-489847D01*
X3086711Y-503272D01*
X3091321Y-515936D01*
X3099050Y-526975D01*
X3109374Y-535637D01*
X3121587Y-541332D01*
X3134859Y-543673D01*
X3148284Y-542498D01*
X3160947Y-537889D01*
X3171986Y-530159D01*
X3180649Y-519836D01*
X3186344Y-507622D01*
X3188684Y-494351D01*
X3187510Y-480926D01*
X3182901Y-468262D01*
X3175171Y-457223D01*
X3164847Y-448561D01*
X3152634Y-442865D01*
X3139362Y-440525D01*
D02*
G37*
G36*
X2897329Y-519685D02*
X2890073D01*
X2883063Y-521563D01*
X2876779Y-525191D01*
X2871648Y-530322D01*
X2868020Y-536607D01*
X2866142Y-543616D01*
Y-550872D01*
X2868020Y-557881D01*
X2871648Y-564166D01*
X2876779Y-569297D01*
X2883063Y-572925D01*
X2890073Y-574803D01*
X2897329D01*
X2904338Y-572925D01*
X2910622Y-569297D01*
X2915753Y-564166D01*
X2919382Y-557881D01*
X2921260Y-550872D01*
Y-543616D01*
X2919382Y-536607D01*
X2915753Y-530322D01*
X2910622Y-525191D01*
X2904338Y-521563D01*
X2897329Y-519685D01*
D02*
G37*
G36*
X2334337Y-527559D02*
X2327081D01*
X2320071Y-529437D01*
X2313787Y-533065D01*
X2308656Y-538197D01*
X2305028Y-544481D01*
X2303150Y-551490D01*
Y-558746D01*
X2305028Y-565755D01*
X2308656Y-572040D01*
X2313787Y-577171D01*
X2320071Y-580799D01*
X2327081Y-582677D01*
X2334337D01*
X2341346Y-580799D01*
X2347630Y-577171D01*
X2352761Y-572040D01*
X2356390Y-565755D01*
X2358268Y-558746D01*
Y-551490D01*
X2356390Y-544481D01*
X2352761Y-538197D01*
X2347630Y-533065D01*
X2341346Y-529437D01*
X2334337Y-527559D01*
D02*
G37*
G36*
X2172920Y-578740D02*
X2165663D01*
X2158654Y-580618D01*
X2152370Y-584246D01*
X2147239Y-589378D01*
X2143610Y-595662D01*
X2141732Y-602671D01*
Y-609927D01*
X2143610Y-616937D01*
X2147239Y-623221D01*
X2152370Y-628352D01*
X2158654Y-631980D01*
X2165663Y-633858D01*
X2172920D01*
X2179929Y-631980D01*
X2186213Y-628352D01*
X2191344Y-623221D01*
X2194972Y-616937D01*
X2196850Y-609927D01*
Y-602671D01*
X2194972Y-595662D01*
X2191344Y-589378D01*
X2186213Y-584246D01*
X2179929Y-580618D01*
X2172920Y-578740D01*
D02*
G37*
G36*
X2645360Y-590551D02*
X2638104D01*
X2631095Y-592429D01*
X2624811Y-596058D01*
X2619680Y-601189D01*
X2616051Y-607473D01*
X2614173Y-614482D01*
Y-621738D01*
X2616051Y-628748D01*
X2619680Y-635032D01*
X2624811Y-640163D01*
X2631095Y-643791D01*
X2638104Y-645669D01*
X2645360D01*
X2652370Y-643791D01*
X2658654Y-640163D01*
X2663785Y-635032D01*
X2667413Y-628748D01*
X2669291Y-621738D01*
Y-614482D01*
X2667413Y-607473D01*
X2663785Y-601189D01*
X2658654Y-596058D01*
X2652370Y-592429D01*
X2645360Y-590551D01*
D02*
G37*
G36*
X3239849Y-610236D02*
X3232592D01*
X3225583Y-612114D01*
X3219299Y-615743D01*
X3214168Y-620874D01*
X3210540Y-627158D01*
X3208662Y-634167D01*
Y-641423D01*
X3210540Y-648433D01*
X3214168Y-654717D01*
X3219299Y-659848D01*
X3225583Y-663476D01*
X3232592Y-665354D01*
X3239849D01*
X3246858Y-663476D01*
X3253142Y-659848D01*
X3258273Y-654717D01*
X3261901Y-648433D01*
X3263780Y-641423D01*
Y-634167D01*
X3261901Y-627158D01*
X3258273Y-620874D01*
X3253142Y-615743D01*
X3246858Y-612114D01*
X3239849Y-610236D01*
D02*
G37*
G36*
X2913077Y-657480D02*
X2905821D01*
X2898811Y-659359D01*
X2892527Y-662987D01*
X2887396Y-668118D01*
X2883768Y-674402D01*
X2881890Y-681411D01*
Y-688668D01*
X2883768Y-695677D01*
X2887396Y-701961D01*
X2892527Y-707092D01*
X2898811Y-710720D01*
X2905821Y-712598D01*
X2913077D01*
X2920086Y-710720D01*
X2926370Y-707092D01*
X2931501Y-701961D01*
X2935130Y-695677D01*
X2937008Y-688668D01*
Y-681411D01*
X2935130Y-674402D01*
X2931501Y-668118D01*
X2926370Y-662987D01*
X2920086Y-659359D01*
X2913077Y-657480D01*
D02*
G37*
G36*
X3386495Y-731977D02*
X3385448Y-732138D01*
X3384395Y-732023D01*
X3376683Y-732698D01*
X2474617Y-811618D01*
X2474617Y-811618D01*
X2466905Y-812293D01*
X2465888Y-812589D01*
X2464829Y-812612D01*
X2449714Y-815964D01*
X2448744Y-816390D01*
X2447697Y-816551D01*
X2433148Y-821847D01*
X2432243Y-822396D01*
X2431226Y-822693D01*
X2417492Y-829842D01*
X2416666Y-830505D01*
X2415697Y-830931D01*
X2403014Y-839812D01*
X2402282Y-840577D01*
X2401376Y-841126D01*
X2389961Y-851586D01*
X2389335Y-852440D01*
X2388509Y-853104D01*
X2378557Y-864964D01*
X2378047Y-865893D01*
X2377315Y-866658D01*
X2368996Y-879716D01*
X2368612Y-880703D01*
X2367986Y-881557D01*
X2361443Y-895589D01*
X2361191Y-896618D01*
X2360681Y-897547D01*
X2356026Y-912313D01*
X2355910Y-913366D01*
X2355526Y-914353D01*
X2352838Y-929600D01*
X2352861Y-930660D01*
X2352609Y-931688D01*
X2351934Y-947156D01*
X2352095Y-948203D01*
X2351980Y-949256D01*
X2352654Y-956968D01*
X2386968Y-1349170D01*
X2387642Y-1356882D01*
X2387939Y-1357899D01*
X2387962Y-1358958D01*
X2391313Y-1374074D01*
X2391739Y-1375043D01*
X2391901Y-1376090D01*
X2397196Y-1390639D01*
X2397745Y-1391545D01*
X2398042Y-1392562D01*
X2405191Y-1406295D01*
X2405854Y-1407121D01*
X2406281Y-1408091D01*
X2415161Y-1420773D01*
X2415926Y-1421506D01*
X2416476Y-1422411D01*
X2426936Y-1433826D01*
X2427790Y-1434453D01*
X2428453Y-1435279D01*
X2440313Y-1445231D01*
X2441242Y-1445740D01*
X2442007Y-1446473D01*
X2455065Y-1454792D01*
X2456052Y-1455175D01*
X2456906Y-1455802D01*
X2470939Y-1462345D01*
X2471967Y-1462597D01*
X2472896Y-1463106D01*
X2487662Y-1467762D01*
X2488715Y-1467877D01*
X2489702Y-1468261D01*
X2504950Y-1470950D01*
X2506009Y-1470927D01*
X2507038Y-1471178D01*
X2522506Y-1471854D01*
X2523552Y-1471693D01*
X2524605Y-1471808D01*
X2532317Y-1471133D01*
X3434383Y-1392213D01*
X3442095Y-1391538D01*
X3443112Y-1391242D01*
X3444171Y-1391218D01*
X3459287Y-1387867D01*
X3460256Y-1387441D01*
X3461303Y-1387280D01*
X3475852Y-1381984D01*
X3476758Y-1381435D01*
X3477774Y-1381138D01*
X3491508Y-1373989D01*
X3492334Y-1373326D01*
X3493303Y-1372900D01*
X3505986Y-1364019D01*
X3506718Y-1363254D01*
X3507624Y-1362705D01*
X3519039Y-1352245D01*
X3519665Y-1351391D01*
X3520492Y-1350727D01*
X3530444Y-1338867D01*
X3530953Y-1337938D01*
X3531686Y-1337173D01*
X3540004Y-1324115D01*
X3540388Y-1323128D01*
X3541015Y-1322274D01*
X3547558Y-1308242D01*
X3547809Y-1307213D01*
X3548319Y-1306284D01*
X3552975Y-1291518D01*
X3553090Y-1290465D01*
X3553474Y-1289478D01*
X3556163Y-1274231D01*
X3556140Y-1273171D01*
X3556391Y-1272143D01*
X3557066Y-1256675D01*
X3556905Y-1255628D01*
X3557021Y-1254575D01*
X3556346Y-1246863D01*
X3522033Y-854660D01*
X3522033Y-854660D01*
X3521358Y-846949D01*
X3521062Y-845932D01*
X3521039Y-844873D01*
X3517687Y-829757D01*
X3517261Y-828788D01*
X3517100Y-827741D01*
X3511804Y-813192D01*
X3511255Y-812286D01*
X3510958Y-811269D01*
X3503809Y-797536D01*
X3503146Y-796710D01*
X3502720Y-795740D01*
X3493839Y-783058D01*
X3493074Y-782325D01*
X3492525Y-781420D01*
X3482065Y-770005D01*
X3481211Y-769378D01*
X3480548Y-768552D01*
X3468687Y-758600D01*
X3467758Y-758091D01*
X3466993Y-757358D01*
X3453935Y-749039D01*
X3452948Y-748655D01*
X3452094Y-748029D01*
X3438062Y-741486D01*
X3437033Y-741234D01*
X3436104Y-740725D01*
X3421338Y-736069D01*
X3420285Y-735954D01*
X3419298Y-735570D01*
X3404051Y-732881D01*
X3402991Y-732904D01*
X3401963Y-732653D01*
X3386495Y-731977D01*
D02*
G37*
G36*
X3801480Y-708661D02*
X3789072D01*
X3776902Y-711082D01*
X3765438Y-715831D01*
X3755121Y-722724D01*
X3746347Y-731498D01*
X3739453Y-741816D01*
X3734704Y-753279D01*
X3732284Y-765449D01*
Y-777858D01*
X3734704Y-790028D01*
X3739453Y-801491D01*
X3746347Y-811809D01*
X3755121Y-820583D01*
X3765438Y-827476D01*
X3776902Y-832225D01*
X3789072Y-834646D01*
X3801480D01*
X3813650Y-832225D01*
X3825114Y-827476D01*
X3835431Y-820583D01*
X3844205Y-811809D01*
X3851099Y-801491D01*
X3855847Y-790028D01*
X3858268Y-777858D01*
Y-765449D01*
X3855847Y-753279D01*
X3851099Y-741816D01*
X3844205Y-731498D01*
X3835431Y-722724D01*
X3825114Y-715831D01*
X3813650Y-711082D01*
X3801480Y-708661D01*
D02*
G37*
G36*
X1102053Y-1185039D02*
X1094797D01*
X1087788Y-1186918D01*
X1081504Y-1190546D01*
X1076372Y-1195677D01*
X1074559Y-1198818D01*
X1072923Y-1199358D01*
X1064872D01*
X1063236Y-1198818D01*
X1061423Y-1195677D01*
X1056292Y-1190546D01*
X1050007Y-1186918D01*
X1042998Y-1185039D01*
X1035742D01*
X1028733Y-1186918D01*
X1022448Y-1190546D01*
X1017317Y-1195677D01*
X1013689Y-1201961D01*
X1011811Y-1208970D01*
Y-1216227D01*
X1013689Y-1223236D01*
X1017317Y-1229520D01*
X1022448Y-1234651D01*
X1025589Y-1236464D01*
X1026130Y-1238100D01*
Y-1246152D01*
X1025589Y-1247787D01*
X1022448Y-1249601D01*
X1017317Y-1254732D01*
X1013689Y-1261016D01*
X1011811Y-1268025D01*
Y-1275282D01*
X1013689Y-1282291D01*
X1017317Y-1288575D01*
X1022448Y-1293706D01*
X1028733Y-1297334D01*
X1035742Y-1299213D01*
X1042998D01*
X1050007Y-1297334D01*
X1056292Y-1293706D01*
X1061423Y-1288575D01*
X1063236Y-1285434D01*
X1064872Y-1284894D01*
X1072923D01*
X1074559Y-1285434D01*
X1076372Y-1288575D01*
X1081504Y-1293706D01*
X1087788Y-1297334D01*
X1094797Y-1299213D01*
X1102053D01*
X1109063Y-1297334D01*
X1115347Y-1293706D01*
X1120478Y-1288575D01*
X1124106Y-1282291D01*
X1125984Y-1275282D01*
Y-1268025D01*
X1124106Y-1261016D01*
X1120478Y-1254732D01*
X1115347Y-1249601D01*
X1112206Y-1247787D01*
X1111665Y-1246152D01*
Y-1238100D01*
X1112206Y-1236464D01*
X1115347Y-1234651D01*
X1120478Y-1229520D01*
X1124106Y-1223236D01*
X1125984Y-1216227D01*
Y-1208970D01*
X1124106Y-1201961D01*
X1120478Y-1195677D01*
X1115347Y-1190546D01*
X1109063Y-1186918D01*
X1102053Y-1185039D01*
D02*
G37*
G36*
X1920951Y-787402D02*
X1913695D01*
X1906686Y-789280D01*
X1900401Y-792908D01*
X1895270Y-798039D01*
X1891642Y-804323D01*
X1889764Y-811332D01*
Y-818589D01*
X1891642Y-825598D01*
X1895270Y-831882D01*
X1896371Y-832983D01*
X1895817Y-837563D01*
X1892508Y-843597D01*
X1885072Y-844247D01*
X1883553Y-844690D01*
X1881978Y-844828D01*
X1862620Y-850470D01*
X1861217Y-851200D01*
X1859699Y-851643D01*
X1841813Y-860953D01*
X1840580Y-861943D01*
X1839177Y-862673D01*
X1823452Y-875294D01*
X1822436Y-876506D01*
X1821202Y-877495D01*
X1814722Y-885218D01*
X1814722Y-885218D01*
X1665818Y-1062676D01*
X1660061Y-1069536D01*
X1659384Y-1070770D01*
X1658456Y-1071829D01*
X1649500Y-1087340D01*
X1649048Y-1088673D01*
X1648317Y-1089877D01*
X1642191Y-1106708D01*
X1641977Y-1108099D01*
X1641467Y-1109411D01*
X1638357Y-1127050D01*
X1638388Y-1128457D01*
X1638113Y-1129838D01*
Y-1138794D01*
Y-1360043D01*
Y-1367126D01*
X1638331Y-1368222D01*
X1638266Y-1369338D01*
X1640217Y-1383369D01*
X1640584Y-1384425D01*
X1640673Y-1385538D01*
X1644538Y-1399167D01*
X1645047Y-1400162D01*
X1645289Y-1401253D01*
X1650994Y-1414219D01*
X1651635Y-1415135D01*
X1652025Y-1416182D01*
X1659462Y-1428239D01*
X1660223Y-1429057D01*
X1660753Y-1430041D01*
X1669780Y-1440959D01*
X1670646Y-1441664D01*
X1671307Y-1442565D01*
X1681751Y-1452136D01*
X1682707Y-1452716D01*
X1683485Y-1453517D01*
X1695148Y-1461558D01*
X1696174Y-1462001D01*
X1697056Y-1462687D01*
X1709715Y-1469045D01*
X1710792Y-1469342D01*
X1711760Y-1469901D01*
X1725174Y-1474454D01*
X1726283Y-1474600D01*
X1727318Y-1475020D01*
X1741231Y-1477683D01*
X1742349Y-1477675D01*
X1743432Y-1477948D01*
X1757580Y-1478669D01*
X1758686Y-1478507D01*
X1759796Y-1478629D01*
X1766853Y-1478011D01*
X1946966Y-1462254D01*
X1954248Y-1461616D01*
X1955208Y-1461336D01*
X1956209Y-1461322D01*
X1970504Y-1458262D01*
X1971423Y-1457865D01*
X1972415Y-1457728D01*
X1986223Y-1452928D01*
X1987086Y-1452421D01*
X1988053Y-1452162D01*
X2001165Y-1445697D01*
X2001958Y-1445088D01*
X2002886Y-1444712D01*
X2015100Y-1436679D01*
X2015813Y-1435977D01*
X2016687Y-1435489D01*
X2027818Y-1426012D01*
X2028439Y-1425226D01*
X2029246Y-1424635D01*
X2039123Y-1413857D01*
X2039642Y-1413002D01*
X2040370Y-1412315D01*
X2048843Y-1400402D01*
X2049253Y-1399489D01*
X2049891Y-1398717D01*
X2056830Y-1385851D01*
X2057124Y-1384894D01*
X2057662Y-1384050D01*
X2062962Y-1370426D01*
X2063136Y-1369440D01*
X2063565Y-1368536D01*
X2067145Y-1354362D01*
X2067196Y-1353363D01*
X2067511Y-1352412D01*
X2069315Y-1337905D01*
X2069243Y-1336907D01*
X2069438Y-1335926D01*
X2069439Y-1328628D01*
X2069439Y-1328627D01*
X2069734Y-979196D01*
X2070034Y-971137D01*
X2069852Y-970010D01*
X2069958Y-968873D01*
X2068221Y-952250D01*
X2067883Y-951159D01*
X2067827Y-950018D01*
X2063767Y-933805D01*
X2063279Y-932773D01*
X2063063Y-931651D01*
X2056761Y-916171D01*
X2056132Y-915218D01*
X2055760Y-914138D01*
X2047341Y-899700D01*
X2046585Y-898844D01*
X2046065Y-897827D01*
X2035697Y-884719D01*
X2034827Y-883978D01*
X2034169Y-883045D01*
X2022059Y-871526D01*
X2021093Y-870916D01*
X2020310Y-870084D01*
X2006699Y-860385D01*
X2005657Y-859917D01*
X2004765Y-859204D01*
X1989923Y-851518D01*
X1988826Y-851201D01*
X1987842Y-850621D01*
X1972066Y-845102D01*
X1970936Y-844942D01*
X1969880Y-844506D01*
X1953484Y-841263D01*
X1952342Y-841264D01*
X1951235Y-840981D01*
X1945085Y-840649D01*
X1942297Y-836367D01*
X1940380Y-830143D01*
X1943004Y-825598D01*
X1944882Y-818589D01*
Y-811332D01*
X1943004Y-804323D01*
X1939376Y-798039D01*
X1934245Y-792908D01*
X1927960Y-789280D01*
X1920951Y-787402D01*
D02*
G37*
G36*
X1468071Y-1395709D02*
X1374449D01*
Y-1489331D01*
X1468071D01*
Y-1395709D01*
D02*
G37*
G36*
X889455Y-1480315D02*
X882199D01*
X875189Y-1482193D01*
X868905Y-1485821D01*
X863774Y-1490952D01*
X860146Y-1497237D01*
X858268Y-1504246D01*
Y-1511502D01*
X860146Y-1518511D01*
X863774Y-1524796D01*
X868905Y-1529927D01*
X875189Y-1533555D01*
X882199Y-1535433D01*
X889455D01*
X896464Y-1533555D01*
X902748Y-1529927D01*
X907880Y-1524796D01*
X911508Y-1518511D01*
X913386Y-1511502D01*
Y-1504246D01*
X911508Y-1497237D01*
X907880Y-1490952D01*
X902748Y-1485821D01*
X896464Y-1482193D01*
X889455Y-1480315D01*
D02*
G37*
G36*
X1310715Y-1484252D02*
X1303458D01*
X1296449Y-1486130D01*
X1290165Y-1489758D01*
X1285034Y-1494889D01*
X1281406Y-1501174D01*
X1279528Y-1508183D01*
Y-1515439D01*
X1281406Y-1522448D01*
X1285034Y-1528733D01*
X1290165Y-1533864D01*
X1296449Y-1537492D01*
X1303458Y-1539370D01*
X1310715D01*
X1317724Y-1537492D01*
X1324008Y-1533864D01*
X1329139Y-1528733D01*
X1332767Y-1522448D01*
X1334646Y-1515439D01*
Y-1508183D01*
X1332767Y-1501174D01*
X1329139Y-1494889D01*
X1324008Y-1489758D01*
X1317724Y-1486130D01*
X1310715Y-1484252D01*
D02*
G37*
G36*
X810715Y-1507874D02*
X803458D01*
X796449Y-1509752D01*
X790165Y-1513380D01*
X785034Y-1518512D01*
X781406Y-1524796D01*
X779528Y-1531805D01*
Y-1539061D01*
X781406Y-1546071D01*
X785034Y-1552355D01*
X790165Y-1557486D01*
X796449Y-1561114D01*
X803458Y-1562992D01*
X810715D01*
X817724Y-1561114D01*
X824008Y-1557486D01*
X829139Y-1552355D01*
X832768Y-1546071D01*
X834646Y-1539061D01*
Y-1531805D01*
X832768Y-1524796D01*
X829139Y-1518512D01*
X824008Y-1513380D01*
X817724Y-1509752D01*
X810715Y-1507874D01*
D02*
G37*
G36*
X964258Y-1582677D02*
X957002D01*
X949992Y-1584555D01*
X943708Y-1588184D01*
X938577Y-1593315D01*
X934949Y-1599599D01*
X933071Y-1606608D01*
Y-1613864D01*
X934949Y-1620874D01*
X938577Y-1627158D01*
X943708Y-1632289D01*
X946060Y-1633646D01*
X946451Y-1636622D01*
X942823Y-1642906D01*
X940945Y-1649915D01*
Y-1657171D01*
X942823Y-1664181D01*
X946451Y-1670465D01*
X951582Y-1675596D01*
X957867Y-1679224D01*
X964876Y-1681102D01*
X972132D01*
X979141Y-1679224D01*
X985426Y-1675596D01*
X990557Y-1670465D01*
X994185Y-1664181D01*
X996063Y-1657171D01*
Y-1649915D01*
X994185Y-1642906D01*
X990557Y-1636622D01*
X985426Y-1631491D01*
X983074Y-1630133D01*
X982683Y-1627158D01*
X986311Y-1620874D01*
X988189Y-1613864D01*
Y-1606608D01*
X986311Y-1599599D01*
X982683Y-1593315D01*
X977552Y-1588184D01*
X971267Y-1584555D01*
X964258Y-1582677D01*
D02*
G37*
G36*
X3289354Y-1591170D02*
X3275929Y-1592344D01*
X3263265Y-1596954D01*
X3252226Y-1604683D01*
X3243564Y-1615007D01*
X3237869Y-1627220D01*
X3235528Y-1640492D01*
X3236703Y-1653917D01*
X3241312Y-1666580D01*
X3249042Y-1677619D01*
X3259365Y-1686282D01*
X3271579Y-1691977D01*
X3284850Y-1694317D01*
X3298275Y-1693143D01*
X3310939Y-1688534D01*
X3321978Y-1680804D01*
X3330640Y-1670480D01*
X3336336Y-1658267D01*
X3338676Y-1644995D01*
X3337501Y-1631570D01*
X3332892Y-1618907D01*
X3325162Y-1607868D01*
X3314839Y-1599206D01*
X3302625Y-1593510D01*
X3289354Y-1591170D01*
D02*
G37*
G36*
X3132472Y-1604895D02*
X3119048Y-1606070D01*
X3106384Y-1610679D01*
X3095345Y-1618409D01*
X3086683Y-1628732D01*
X3080987Y-1640946D01*
X3078647Y-1654217D01*
X3079822Y-1667642D01*
X3084431Y-1680306D01*
X3092161Y-1691345D01*
X3102484Y-1700007D01*
X3114698Y-1705703D01*
X3127969Y-1708043D01*
X3141394Y-1706868D01*
X3154058Y-1702259D01*
X3165097Y-1694529D01*
X3173759Y-1684206D01*
X3179454Y-1671992D01*
X3181794Y-1658721D01*
X3180620Y-1645296D01*
X3176011Y-1632632D01*
X3168281Y-1621593D01*
X3157958Y-1612931D01*
X3145744Y-1607236D01*
X3132472Y-1604895D01*
D02*
G37*
G36*
X2802149Y-1633493D02*
X2788724Y-1634667D01*
X2776061Y-1639276D01*
X2765021Y-1647006D01*
X2756359Y-1657330D01*
X2750664Y-1669543D01*
X2748324Y-1682815D01*
X2749498Y-1696240D01*
X2754107Y-1708903D01*
X2761837Y-1719942D01*
X2772160Y-1728604D01*
X2784374Y-1734300D01*
X2797646Y-1736640D01*
X2811070Y-1735466D01*
X2823734Y-1730856D01*
X2834773Y-1723127D01*
X2843435Y-1712803D01*
X2849131Y-1700590D01*
X2851471Y-1687318D01*
X2850296Y-1673893D01*
X2845687Y-1661230D01*
X2837957Y-1650191D01*
X2827634Y-1641528D01*
X2815421Y-1635833D01*
X2802149Y-1633493D01*
D02*
G37*
G36*
X1480006Y-1700787D02*
X1472750D01*
X1465741Y-1702666D01*
X1459456Y-1706294D01*
X1454325Y-1711425D01*
X1450697Y-1717709D01*
X1448819Y-1724718D01*
Y-1731975D01*
X1449917Y-1736074D01*
X1443218Y-1742453D01*
X1441707Y-1743153D01*
X1439771Y-1742036D01*
X1432762Y-1740158D01*
X1425506D01*
X1418496Y-1742036D01*
X1412212Y-1745664D01*
X1407081Y-1750795D01*
X1403453Y-1757079D01*
X1401575Y-1764088D01*
Y-1771345D01*
X1403453Y-1778354D01*
X1407081Y-1784638D01*
X1412212Y-1789769D01*
X1418496Y-1793397D01*
X1425506Y-1795275D01*
X1432762D01*
X1439771Y-1793397D01*
X1446055Y-1789769D01*
X1451187Y-1784638D01*
X1454815Y-1778354D01*
X1456693Y-1771345D01*
Y-1764088D01*
X1455595Y-1759989D01*
X1462293Y-1753611D01*
X1463804Y-1752910D01*
X1465741Y-1754027D01*
X1472750Y-1755906D01*
X1480006D01*
X1487015Y-1754027D01*
X1493300Y-1750399D01*
X1498431Y-1745268D01*
X1502059Y-1738984D01*
X1503937Y-1731975D01*
Y-1724718D01*
X1502059Y-1717709D01*
X1498431Y-1711425D01*
X1493300Y-1706294D01*
X1487015Y-1702666D01*
X1480006Y-1700787D01*
D02*
G37*
G36*
X2645268Y-1647218D02*
X2631843Y-1648393D01*
X2619179Y-1653002D01*
X2608140Y-1660732D01*
X2599478Y-1671055D01*
X2593783Y-1683268D01*
X2591443Y-1696540D01*
X2592617Y-1709965D01*
X2597226Y-1722629D01*
X2604956Y-1733668D01*
X2615279Y-1742330D01*
X2627493Y-1748025D01*
X2640764Y-1750365D01*
X2654189Y-1749191D01*
X2666853Y-1744582D01*
X2677892Y-1736852D01*
X2686554Y-1726529D01*
X2692250Y-1714315D01*
X2694590Y-1701043D01*
X2693415Y-1687619D01*
X2688806Y-1674955D01*
X2681076Y-1663916D01*
X2670753Y-1655254D01*
X2658539Y-1649558D01*
X2645268Y-1647218D01*
D02*
G37*
G36*
X3596755Y-1637795D02*
X3584347D01*
X3572177Y-1640216D01*
X3560713Y-1644965D01*
X3550396Y-1651858D01*
X3541622Y-1660632D01*
X3534728Y-1670949D01*
X3529980Y-1682413D01*
X3527559Y-1694583D01*
Y-1706992D01*
X3529980Y-1719161D01*
X3534728Y-1730625D01*
X3541622Y-1740943D01*
X3550396Y-1749717D01*
X3560713Y-1756610D01*
X3572177Y-1761359D01*
X3584347Y-1763780D01*
X3596755D01*
X3608925Y-1761359D01*
X3620389Y-1756610D01*
X3630706Y-1749717D01*
X3639480Y-1740943D01*
X3646374Y-1730625D01*
X3651123Y-1719161D01*
X3653543Y-1706992D01*
Y-1694583D01*
X3651123Y-1682413D01*
X3646374Y-1670949D01*
X3639480Y-1660632D01*
X3630706Y-1651858D01*
X3620389Y-1644965D01*
X3608925Y-1640216D01*
X3596755Y-1637795D01*
D02*
G37*
G36*
X641423Y-1744094D02*
X634167D01*
X627158Y-1745973D01*
X620874Y-1749601D01*
X615743Y-1754732D01*
X612114Y-1761016D01*
X610236Y-1768025D01*
Y-1770873D01*
X601861Y-1776978D01*
X600436Y-1777267D01*
X594179Y-1775591D01*
X586923D01*
X579914Y-1777469D01*
X573630Y-1781097D01*
X568499Y-1786228D01*
X564870Y-1792512D01*
X562992Y-1799521D01*
Y-1806778D01*
X564870Y-1813787D01*
X568499Y-1820071D01*
X573630Y-1825202D01*
X579914Y-1828831D01*
X586923Y-1830709D01*
X594179D01*
X601189Y-1828831D01*
X607473Y-1825202D01*
X612604Y-1820071D01*
X616232Y-1813787D01*
X618110Y-1806778D01*
Y-1803930D01*
X626486Y-1797825D01*
X627910Y-1797536D01*
X634167Y-1799213D01*
X641423D01*
X648433Y-1797334D01*
X654717Y-1793706D01*
X659848Y-1788575D01*
X663476Y-1782291D01*
X665354Y-1775282D01*
Y-1768025D01*
X663476Y-1761016D01*
X659848Y-1754732D01*
X654717Y-1749601D01*
X648433Y-1745973D01*
X641423Y-1744094D01*
D02*
G37*
G36*
X1621738Y-1716535D02*
X1614482D01*
X1607473Y-1718414D01*
X1601189Y-1722042D01*
X1596058Y-1727173D01*
X1592429Y-1733457D01*
X1590551Y-1740466D01*
Y-1747723D01*
X1592429Y-1754732D01*
X1596058Y-1761016D01*
X1601189Y-1766147D01*
X1607473Y-1769775D01*
X1614482Y-1771653D01*
X1621738D01*
X1628748Y-1769775D01*
X1632278Y-1767737D01*
X1641672Y-1770011D01*
X1644183Y-1771472D01*
X1647239Y-1776764D01*
X1652370Y-1781895D01*
X1658654Y-1785523D01*
X1665663Y-1787401D01*
X1671643D01*
X1673911Y-1788419D01*
X1681102Y-1795806D01*
Y-1798904D01*
X1682980Y-1805913D01*
X1686609Y-1812197D01*
X1691740Y-1817328D01*
X1698024Y-1820957D01*
X1705033Y-1822835D01*
X1712290D01*
X1719299Y-1820957D01*
X1725583Y-1817328D01*
X1730714Y-1812197D01*
X1734342Y-1805913D01*
X1736220Y-1798904D01*
Y-1791647D01*
X1734342Y-1784638D01*
X1730714Y-1778354D01*
X1725583Y-1773223D01*
X1719299Y-1769595D01*
X1712290Y-1767717D01*
X1706310D01*
X1704042Y-1766699D01*
X1696850Y-1759312D01*
Y-1756214D01*
X1694972Y-1749205D01*
X1691344Y-1742921D01*
X1686213Y-1737790D01*
X1679929Y-1734162D01*
X1672920Y-1732284D01*
X1665663D01*
X1658654Y-1734162D01*
X1655123Y-1736200D01*
X1645730Y-1733926D01*
X1643218Y-1732465D01*
X1640163Y-1727173D01*
X1635032Y-1722042D01*
X1628748Y-1718414D01*
X1621738Y-1716535D01*
D02*
G37*
G36*
X964258Y-1771654D02*
X957002D01*
X949992Y-1773532D01*
X943708Y-1777160D01*
X938577Y-1782291D01*
X934949Y-1788575D01*
X933071Y-1795584D01*
Y-1802841D01*
X934949Y-1809850D01*
X938577Y-1816134D01*
X943708Y-1821265D01*
X949992Y-1824893D01*
X957002Y-1826772D01*
X964258D01*
X971267Y-1824893D01*
X977552Y-1821265D01*
X982683Y-1816134D01*
X986311Y-1809850D01*
X988189Y-1802841D01*
Y-1795584D01*
X986311Y-1788575D01*
X982683Y-1782291D01*
X977552Y-1777160D01*
X971267Y-1773532D01*
X964258Y-1771654D01*
D02*
G37*
G36*
X1141424Y-1775591D02*
X1134167D01*
X1127158Y-1777469D01*
X1120874Y-1781097D01*
X1115743Y-1786228D01*
X1112114Y-1792512D01*
X1110236Y-1799521D01*
Y-1806778D01*
X1112114Y-1813787D01*
X1115743Y-1820071D01*
X1120874Y-1825202D01*
X1127158Y-1828831D01*
X1134167Y-1830709D01*
X1141424D01*
X1148433Y-1828831D01*
X1154717Y-1825202D01*
X1159848Y-1820071D01*
X1163476Y-1813787D01*
X1165354Y-1806778D01*
Y-1799521D01*
X1163476Y-1792512D01*
X1159848Y-1786228D01*
X1154717Y-1781097D01*
X1148433Y-1777469D01*
X1141424Y-1775591D01*
D02*
G37*
G36*
X2003628Y-1830709D02*
X1996372D01*
X1989363Y-1832587D01*
X1983078Y-1836215D01*
X1977947Y-1841346D01*
X1974319Y-1847630D01*
X1972441Y-1854639D01*
Y-1861896D01*
X1974319Y-1868905D01*
X1977947Y-1875189D01*
X1983078Y-1880320D01*
X1989363Y-1883949D01*
X1996372Y-1885827D01*
X2003628D01*
X2010637Y-1883949D01*
X2016922Y-1880320D01*
X2022053Y-1875189D01*
X2025681Y-1868905D01*
X2027559Y-1861896D01*
Y-1854639D01*
X2025681Y-1847630D01*
X2022053Y-1841346D01*
X2016922Y-1836215D01*
X2010637Y-1832587D01*
X2003628Y-1830709D01*
D02*
G37*
G36*
X1235912Y-1834646D02*
X1228655D01*
X1221646Y-1836524D01*
X1215362Y-1840152D01*
X1210231Y-1845283D01*
X1206603Y-1851567D01*
X1204725Y-1858576D01*
Y-1865833D01*
X1206603Y-1872842D01*
X1210231Y-1879126D01*
X1215362Y-1884257D01*
X1221646Y-1887886D01*
X1228655Y-1889764D01*
X1235912D01*
X1242921Y-1887886D01*
X1249205Y-1884257D01*
X1254336Y-1879126D01*
X1257964Y-1872842D01*
X1259842Y-1865833D01*
Y-1858576D01*
X1257964Y-1851567D01*
X1254336Y-1845283D01*
X1249205Y-1840152D01*
X1242921Y-1836524D01*
X1235912Y-1834646D01*
D02*
G37*
G36*
X2287093Y-1842520D02*
X2279836D01*
X2272827Y-1844398D01*
X2266543Y-1848026D01*
X2261412Y-1853157D01*
X2257784Y-1859441D01*
X2255906Y-1866450D01*
Y-1873707D01*
X2257784Y-1880716D01*
X2261412Y-1887000D01*
X2266543Y-1892131D01*
X2272827Y-1895760D01*
X2279836Y-1897638D01*
X2287093D01*
X2294102Y-1895760D01*
X2300386Y-1892131D01*
X2305517Y-1887000D01*
X2309146Y-1880716D01*
X2311024Y-1873707D01*
Y-1866450D01*
X2309146Y-1859441D01*
X2305517Y-1853157D01*
X2300386Y-1848026D01*
X2294102Y-1844398D01*
X2287093Y-1842520D01*
D02*
G37*
G36*
X180794Y-1901575D02*
X173537D01*
X166528Y-1903453D01*
X160244Y-1907081D01*
X155113Y-1912212D01*
X151484Y-1918496D01*
X149606Y-1925506D01*
Y-1932762D01*
X151484Y-1939771D01*
X155113Y-1946055D01*
X160244Y-1951187D01*
X166528Y-1954815D01*
X173537Y-1956693D01*
X180794D01*
X187803Y-1954815D01*
X194087Y-1951187D01*
X199218Y-1946055D01*
X202846Y-1939771D01*
X204724Y-1932762D01*
Y-1925506D01*
X202846Y-1918496D01*
X199218Y-1912212D01*
X194087Y-1907081D01*
X187803Y-1903453D01*
X180794Y-1901575D01*
D02*
G37*
G36*
X2326463Y-1968504D02*
X2319206D01*
X2312197Y-1970382D01*
X2305913Y-1974010D01*
X2300782Y-1979141D01*
X2297154Y-1985426D01*
X2295276Y-1992435D01*
Y-1999691D01*
X2297154Y-2006700D01*
X2300782Y-2012985D01*
X2305913Y-2018116D01*
X2312197Y-2021744D01*
X2319206Y-2023622D01*
X2326463D01*
X2333472Y-2021744D01*
X2339756Y-2018116D01*
X2344887Y-2012985D01*
X2348516Y-2006700D01*
X2350394Y-1999691D01*
Y-1992435D01*
X2348516Y-1985426D01*
X2344887Y-1979141D01*
X2339756Y-1974010D01*
X2333472Y-1970382D01*
X2326463Y-1968504D01*
D02*
G37*
G36*
X707368Y-1981299D02*
X700112D01*
X693103Y-1983177D01*
X686819Y-1986806D01*
X681688Y-1991937D01*
X678059Y-1998221D01*
X676181Y-2005230D01*
Y-2012486D01*
X678059Y-2019496D01*
X681688Y-2025780D01*
X686819Y-2030911D01*
X693103Y-2034539D01*
X700112Y-2036417D01*
X707368D01*
X714378Y-2034539D01*
X720662Y-2030911D01*
X725793Y-2025780D01*
X729421Y-2019496D01*
X731299Y-2012486D01*
Y-2005230D01*
X729421Y-1998221D01*
X725793Y-1991937D01*
X720662Y-1986806D01*
X714378Y-1983177D01*
X707368Y-1981299D01*
D02*
G37*
G36*
X999691Y-2003937D02*
X992435D01*
X985426Y-2005815D01*
X979141Y-2009443D01*
X974010Y-2014574D01*
X970382Y-2020859D01*
X968504Y-2027868D01*
Y-2035124D01*
X970382Y-2042133D01*
X974010Y-2048418D01*
X979141Y-2053549D01*
X985426Y-2057177D01*
X992435Y-2059055D01*
X999691D01*
X1006700Y-2057177D01*
X1012985Y-2053549D01*
X1018116Y-2048418D01*
X1021744Y-2042133D01*
X1023622Y-2035124D01*
Y-2027868D01*
X1021744Y-2020859D01*
X1018116Y-2014574D01*
X1012985Y-2009443D01*
X1006700Y-2005815D01*
X999691Y-2003937D01*
D02*
G37*
G36*
X541299Y-1882323D02*
X447677D01*
Y-1975945D01*
X475870D01*
X477906Y-1986181D01*
X469687Y-1989586D01*
X460229Y-1996843D01*
X452972Y-2006301D01*
X448409Y-2017315D01*
X446853Y-2029134D01*
X448409Y-2040953D01*
X452972Y-2051967D01*
X460229Y-2061425D01*
X469687Y-2068682D01*
X480700Y-2073244D01*
X486227Y-2073972D01*
Y-2084296D01*
X480700Y-2085024D01*
X469687Y-2089586D01*
X460229Y-2096843D01*
X452972Y-2106301D01*
X448409Y-2117315D01*
X446853Y-2129134D01*
X448409Y-2140953D01*
X452972Y-2151967D01*
X460229Y-2161425D01*
X469687Y-2168682D01*
X480700Y-2173244D01*
X492520Y-2174800D01*
X496457D01*
X508276Y-2173244D01*
X519290Y-2168682D01*
X528748Y-2161425D01*
X536005Y-2151967D01*
X540567Y-2140953D01*
X542123Y-2129134D01*
X540567Y-2117315D01*
X536005Y-2106301D01*
X528748Y-2096843D01*
X519290Y-2089586D01*
X508276Y-2085024D01*
X502750Y-2084296D01*
Y-2073972D01*
X508276Y-2073244D01*
X519290Y-2068682D01*
X528748Y-2061425D01*
X536005Y-2051967D01*
X538952Y-2044851D01*
X550024D01*
X552972Y-2051967D01*
X560229Y-2061425D01*
X569687Y-2068682D01*
X580700Y-2073244D01*
X592520Y-2074800D01*
X596457D01*
X608276Y-2073244D01*
X619290Y-2068682D01*
X628748Y-2061425D01*
X636005Y-2051967D01*
X640567Y-2040953D01*
X642123Y-2029134D01*
X640567Y-2017315D01*
X636005Y-2006301D01*
X628748Y-1996843D01*
X619290Y-1989586D01*
X608276Y-1985024D01*
X602750Y-1984296D01*
Y-1973972D01*
X608276Y-1973244D01*
X619290Y-1968682D01*
X628748Y-1961425D01*
X636005Y-1951967D01*
X640567Y-1940953D01*
X642123Y-1929134D01*
X640567Y-1917315D01*
X636005Y-1906301D01*
X628748Y-1896843D01*
X619290Y-1889586D01*
X608276Y-1885024D01*
X596457Y-1883468D01*
X592520D01*
X580700Y-1885024D01*
X569687Y-1889586D01*
X560229Y-1896843D01*
X552972Y-1906301D01*
X551535Y-1909768D01*
X541299Y-1907732D01*
Y-1882323D01*
D02*
G37*
G36*
X2610725Y-2093218D02*
X2597454Y-2095558D01*
X2585240Y-2101253D01*
X2574917Y-2109916D01*
X2567187Y-2120955D01*
X2562578Y-2133618D01*
X2561403Y-2147043D01*
X2563744Y-2160315D01*
X2569439Y-2172528D01*
X2578101Y-2182852D01*
X2589140Y-2190581D01*
X2601804Y-2195191D01*
X2615229Y-2196365D01*
X2628500Y-2194025D01*
X2640714Y-2188330D01*
X2651037Y-2179667D01*
X2658767Y-2168628D01*
X2663376Y-2155965D01*
X2664551Y-2142540D01*
X2662211Y-2129268D01*
X2656515Y-2117055D01*
X2647853Y-2106731D01*
X2636814Y-2099002D01*
X2624150Y-2094392D01*
X2610725Y-2093218D01*
D02*
G37*
G36*
X2455637Y-2120564D02*
X2442366Y-2122904D01*
X2430152Y-2128599D01*
X2419829Y-2137262D01*
X2412099Y-2148301D01*
X2407490Y-2160965D01*
X2406316Y-2174390D01*
X2408656Y-2187661D01*
X2414351Y-2199875D01*
X2423013Y-2210198D01*
X2434052Y-2217928D01*
X2446716Y-2222537D01*
X2460141Y-2223711D01*
X2473412Y-2221371D01*
X2485626Y-2215676D01*
X2495949Y-2207014D01*
X2503679Y-2195974D01*
X2508288Y-2183311D01*
X2509463Y-2169886D01*
X2507123Y-2156615D01*
X2501427Y-2144401D01*
X2492765Y-2134077D01*
X2481726Y-2126348D01*
X2469062Y-2121739D01*
X2455637Y-2120564D01*
D02*
G37*
G36*
X281795Y-2165354D02*
X269386D01*
X257216Y-2167775D01*
X245753Y-2172524D01*
X235435Y-2179417D01*
X226661Y-2188191D01*
X219768Y-2198508D01*
X215019Y-2209972D01*
X212599Y-2222142D01*
Y-2234551D01*
X215019Y-2246721D01*
X219768Y-2258184D01*
X226661Y-2268502D01*
X235435Y-2277276D01*
X245753Y-2284169D01*
X257216Y-2288918D01*
X269386Y-2291339D01*
X281795D01*
X293965Y-2288918D01*
X305429Y-2284169D01*
X315746Y-2277276D01*
X324520Y-2268502D01*
X331413Y-2258184D01*
X336162Y-2246721D01*
X338583Y-2234551D01*
Y-2222142D01*
X336162Y-2209972D01*
X331413Y-2198508D01*
X324520Y-2188191D01*
X315746Y-2179417D01*
X305429Y-2172524D01*
X293965Y-2167775D01*
X281795Y-2165354D01*
D02*
G37*
%LPD*%
D45*
X3137111Y-492099D02*
D03*
X3293992Y-478374D02*
D03*
X3383858Y-48228D02*
D03*
X3226378D02*
D03*
X2612977Y-2144791D02*
D03*
X2457889Y-2172138D02*
D03*
X2799897Y-1685066D02*
D03*
X2643016Y-1698792D02*
D03*
X3130221Y-1656469D02*
D03*
X3287102Y-1642744D02*
D03*
X2127238Y-177455D02*
D03*
X1975124Y-218214D02*
D03*
D46*
X594488Y-1929134D02*
D03*
X494488Y-2029134D02*
D03*
X594488D02*
D03*
X494488Y-2129134D02*
D03*
X594488D02*
D03*
D47*
X494488Y-1929134D02*
D03*
X1421260Y-1442520D02*
D03*
D48*
Y-1342520D02*
D03*
D49*
X944449Y-547244D02*
D03*
X1014449D02*
D03*
X1084449D02*
D03*
X1154449D02*
D03*
X1224449D02*
D03*
X1294449D02*
D03*
X1364449D02*
D03*
X1434449D02*
D03*
X909449Y-125984D02*
D03*
X1049449D02*
D03*
X1119449D02*
D03*
X1189449D02*
D03*
X1259449D02*
D03*
X1329449D02*
D03*
X1399449D02*
D03*
X979449D02*
D03*
D50*
X3731299Y-462205D02*
D03*
D51*
Y-122047D02*
D03*
D52*
X3881890Y-462205D02*
D03*
Y-122047D02*
D03*
D53*
X1279528Y-889764D02*
D03*
X1381890D02*
D03*
Y-748031D02*
D03*
X1279528D02*
D03*
X3661417Y-200787D02*
D03*
D54*
X1314961Y-889764D02*
D03*
X1346457D02*
D03*
Y-748031D02*
D03*
X1314961D02*
D03*
D55*
X59055Y-55118D02*
D03*
Y-212598D02*
D03*
X590551Y-1803150D02*
D03*
X637795Y-1771653D02*
D03*
X1602362Y-1614173D02*
D03*
X393701Y-2165354D02*
D03*
X767717Y-2248032D02*
D03*
X224410Y-1976378D02*
D03*
X401575Y-1968504D02*
D03*
X1114173Y-1728347D02*
D03*
X1854331Y-1791339D02*
D03*
X2370079Y-1783465D02*
D03*
X2110236Y-1641732D02*
D03*
X2708661Y-1874016D02*
D03*
X3307087Y-1787402D02*
D03*
X2972320Y-1786556D02*
D03*
X3645669Y-909449D02*
D03*
X3688976Y-1173228D02*
D03*
X3602362Y-448819D02*
D03*
X3086614Y-401575D02*
D03*
X3606299Y-326772D02*
D03*
X2866142Y-1960630D02*
D03*
X3448819Y-326772D02*
D03*
X3582677Y-1492126D02*
D03*
X2090551Y-1783465D02*
D03*
X3279528Y-370079D02*
D03*
X393701Y-236220D02*
D03*
X3236220Y-637795D02*
D03*
X2893701Y-547244D02*
D03*
X2909449Y-685039D02*
D03*
X2641732Y-618110D02*
D03*
X2133858Y-437008D02*
D03*
X2169291Y-606299D02*
D03*
X2330709Y-555118D02*
D03*
X1854331Y-385827D02*
D03*
X1917323Y-814961D02*
D03*
X2322835Y-1996063D02*
D03*
X2283465Y-1870079D02*
D03*
X1669291Y-1759842D02*
D03*
X1618110Y-1744094D02*
D03*
X1708661Y-1795276D02*
D03*
X1476378Y-1728347D02*
D03*
X2000000Y-1858268D02*
D03*
X1429134Y-1767716D02*
D03*
X807087Y-1535433D02*
D03*
X488189Y-122047D02*
D03*
X1137795Y-1803150D02*
D03*
X1366142Y-55118D02*
D03*
X842520Y-125984D02*
D03*
X177165Y-1929134D02*
D03*
X703740Y-2008858D02*
D03*
X960630Y-1799213D02*
D03*
X1232284Y-1862205D02*
D03*
X996063Y-2031496D02*
D03*
X1307087Y-1511811D02*
D03*
X885827Y-1507874D02*
D03*
X1039370Y-1271653D02*
D03*
X1098425D02*
D03*
Y-1212598D02*
D03*
X1039370D02*
D03*
X1129921Y-1866142D02*
D03*
X1323819Y-2068898D02*
D03*
X1295276Y-1212598D02*
D03*
X3303150Y27559D02*
D03*
X1598425Y-1401575D02*
D03*
X2094488Y-1425197D02*
D03*
X669291Y-1338583D02*
D03*
X1622047Y-1070866D02*
D03*
X1492126Y-893701D02*
D03*
X1708661Y-736221D02*
D03*
X1503937Y-1177165D02*
D03*
X1862205Y-1527559D02*
D03*
X1925197Y-519685D02*
D03*
X2212598Y-803150D02*
D03*
X2015748Y-354331D02*
D03*
X2665354Y-425197D02*
D03*
X2744095Y-535433D02*
D03*
X2984252Y-114173D02*
D03*
X2881890Y-118110D02*
D03*
X2433071Y-129921D02*
D03*
X2094488Y-984252D02*
D03*
X2870079Y-409449D02*
D03*
X2011811Y-799213D02*
D03*
X1795276Y-874016D02*
D03*
X960630Y-1610236D02*
D03*
X968504Y-1653543D02*
D03*
X2897638Y-346457D02*
D03*
X2885827Y-200787D02*
D03*
X3326772Y-204724D02*
D03*
X472441Y-1692913D02*
D03*
X39370Y-2011811D02*
D03*
Y-2244095D02*
D03*
X196850Y-1692913D02*
D03*
X2098425Y-645669D02*
D03*
X2377953Y-1590551D02*
D03*
X2362205Y-1326772D02*
D03*
X2334646Y-1043307D02*
D03*
X2338583Y-885827D02*
D03*
X2433071Y-1472441D02*
D03*
X3255905Y-1425197D02*
D03*
X3574803Y-1307087D02*
D03*
X2925197Y-748032D02*
D03*
X3224410Y-720472D02*
D03*
X1066929Y-1590551D02*
D03*
X2342520Y-629921D02*
D03*
X3562992Y-1031496D02*
D03*
X1807087Y-460630D02*
D03*
X3527559Y-783465D02*
D03*
X3098425Y-559055D02*
D03*
X3346457Y-535433D02*
D03*
X3602362Y3937D02*
D03*
X3433071Y-141732D02*
D03*
X3374016Y-708661D02*
D03*
X3224410Y-547244D02*
D03*
X3326772Y-255905D02*
D03*
X2488189Y-425197D02*
D03*
X2177165Y-484252D02*
D03*
X3303150Y-90551D02*
D03*
X2192913Y-255905D02*
D03*
X1570866Y-236220D02*
D03*
X1169291Y-755905D02*
D03*
X1047244D02*
D03*
X1570866Y-433071D02*
D03*
X661417Y-594488D02*
D03*
X1047244Y-897638D02*
D03*
X736221Y-181102D02*
D03*
X1338583Y-618110D02*
D03*
X673228Y-1118110D02*
D03*
X393701Y-39370D02*
D03*
X661417Y-374016D02*
D03*
X838583Y-539370D02*
D03*
X515748Y-39370D02*
D03*
X1299213Y-43307D02*
D03*
X708661Y-2362205D02*
D03*
X2665354Y-775591D02*
D03*
X1232284Y-1015748D02*
D03*
X771654Y-1074803D02*
D03*
X1342520Y-1078740D02*
D03*
X1118110D02*
D03*
X846457Y-1232284D02*
D03*
X854331Y-692913D02*
D03*
X944882Y-1102362D02*
D03*
X1035433Y-1866142D02*
D03*
X1228347Y-1767716D02*
D03*
X838583Y-1338583D02*
D03*
X1208661Y-1590551D02*
D03*
X677165Y-1657480D02*
D03*
X3562992Y-673228D02*
D03*
X3094488Y-1736220D02*
D03*
X3023622Y-1519685D02*
D03*
X2232284Y-2157480D02*
D03*
X2688976Y-1543307D02*
D03*
X2460630Y-1858268D02*
D03*
X2129921Y-1870079D02*
D03*
X964567Y-1724409D02*
D03*
X3665354Y-692913D02*
D03*
X1409449Y-1625984D02*
D03*
X1145669Y-1590551D02*
D03*
X893701Y-960630D02*
D03*
X2846457Y-1771653D02*
D03*
X1051181Y-2251968D02*
D03*
X1089567Y-2068898D02*
D03*
X1350394Y-1948819D02*
D03*
X1226378Y-2068898D02*
D03*
X1374016Y-2145669D02*
D03*
Y-2251968D02*
D03*
X1299213Y-2332559D02*
D03*
X1200787Y-2334646D02*
D03*
X1122047D02*
D03*
X748032Y-2070866D02*
D03*
X314961Y-1893701D02*
D03*
X897638Y-2011811D02*
D03*
D56*
X3795276Y-1366142D02*
D03*
X1523622Y-78740D02*
D03*
X472441Y-2342520D02*
D03*
X3519685Y-1870079D02*
D03*
X1602362Y-1960630D02*
D03*
X1586614Y-2251968D02*
D03*
X1157480Y-905512D02*
D03*
X3834646Y-1086614D02*
D03*
X3712598Y-43307D02*
D03*
X2114173Y-1177165D02*
D03*
X2976378Y-2082677D02*
D03*
X3858268Y-590551D02*
D03*
X1484252Y-708662D02*
D03*
X1759842Y-318898D02*
D03*
X1547244Y-578740D02*
D03*
X905512Y-2342520D02*
D03*
X2472441Y-275591D02*
D03*
X1377953Y-2342520D02*
D03*
X3716535Y-1625984D02*
D03*
X141732Y-2334646D02*
D03*
X759842Y-921260D02*
D03*
X55118Y-1929134D02*
D03*
X2132123Y-2254532D02*
D03*
X3791339Y-893701D02*
D03*
X2082677Y-1984252D02*
D03*
X2442245Y-12259D02*
D03*
X3035433Y-1885827D02*
D03*
X1748032Y-594488D02*
D03*
%TF.MD5,ea9bc31b643581f2e71f521980e201b1*%
M02*
